<?xml version="1.0" encoding="UTF-8" standalone="no"?>
<svg
   xmlns:dc="http://purl.org/dc/elements/1.1/"
   xmlns:cc="http://creativecommons.org/ns#"
   xmlns:rdf="http://www.w3.org/1999/02/22-rdf-syntax-ns#"
   xmlns:svg="http://www.w3.org/2000/svg"
   xmlns="http://www.w3.org/2000/svg"
   xmlns:sodipodi="http://sodipodi.sourceforge.net/DTD/sodipodi-0.dtd"
   xmlns:inkscape="http://www.inkscape.org/namespaces/inkscape"
   inkscape:version="1.0 (4035a4fb49, 2020-05-01)"
   sodipodi:docname="scatter42-plates-2-pairs.svg"
   viewBox="0 0 1700.7875 1133.8583"
   height="300mm"
   width="450mm"
   xml:space="preserve"
   id="svg10"
   version="1.1"><metadata
     id="metadata16"><rdf:RDF><cc:Work
         rdf:about=""><dc:format>image/svg+xml</dc:format><dc:type
           rdf:resource="http://purl.org/dc/dcmitype/StillImage" /><dc:title></dc:title></cc:Work></rdf:RDF></metadata><defs
     id="defs14"><clipPath
       id="clipPath26"
       clipPathUnits="userSpaceOnUse"><path
         inkscape:connector-curvature="0"
         id="path24"
         d="M 0,867.401 H 1292.598 V 0 H 0 Z" /></clipPath><filter
       inkscape:collect="always"
       style="color-interpolation-filters:sRGB"
       id="filter4121"
       x="-1.5841346e-05"
       width="1.0000317"
       y="-2.4366046e-05"
       height="1.0000487"><feGaussianBlur
         inkscape:collect="always"
         stdDeviation="0.01076713"
         id="feGaussianBlur4123" /></filter><filter
       height="1.0000488"
       y="-2.4366045e-05"
       width="1.0000317"
       x="-1.5841346e-05"
       id="filter4121-1"
       style="color-interpolation-filters:sRGB"
       inkscape:collect="always"><feGaussianBlur
         id="feGaussianBlur4123-3"
         stdDeviation="0.01076713"
         inkscape:collect="always" /></filter></defs><sodipodi:namedview
     inkscape:document-rotation="0"
     units="mm"
     inkscape:current-layer="layer3"
     inkscape:window-maximized="1"
     inkscape:window-y="-8"
     inkscape:window-x="2936"
     inkscape:cy="885.3808"
     inkscape:cx="1793.5009"
     inkscape:zoom="0.45254834"
     showgrid="false"
     id="namedview12"
     inkscape:window-height="1017"
     inkscape:window-width="1920"
     inkscape:pageshadow="2"
     inkscape:pageopacity="0"
     guidetolerance="10"
     gridtolerance="10"
     objecttolerance="10"
     borderopacity="1"
     bordercolor="#666666"
     pagecolor="#ffffff" /><g
     inkscape:label="カット2(R0G0B255)"
     id="layer3"
     inkscape:groupmode="layer"
     style="display:inline;filter:url(#filter4121)"><g
       style="display:inline;filter:url(#filter4121-1)"
       id="g32510"
       transform="matrix(-1,0,0,1,1701.7875,17.501431)"><path
         d="m 94248,100709 763,-619 m 10468,-39667 -1067,444 m -2532,1731 -116,388 m 14207,-5041 -1707,239 m 11194,-326 -1721,-168 m -32638,34007 -1408,1012 m 31489,-35114 -1735,49 m 0,0 -1741,119 m -6712,1041 -2972,764 m -4518,1746 -736,442 m 5254,-2188 -2541,855 m -10468,39667 1503,-1011 m 6252,-37323 -547,430 m -18333,36578 10,121 m 9610,2519 742,-695 m 20016,-42525 -3272,620 m 12745,-1114 -2557,-95 m -16768,3272 -910,447 m -1283,872 -339,412 m 15824,-4835 -1733,182 m 19389,2926 -2444,-1135 m -43225,32973 -1308,1112 m 8131,5258 1329,-708 m 3478,-1227 933,-219 m -18358,1960 61,99 m 10364,-35943 155,-55 m -226,27122 -1635,711 m 47559,5707 164,-77 m 0,0 86,-191 m -50288,8481 3370,-3335 m -5123,-7583 -1218,1179 m 16151,1741 1196,-130 m 0,0 1333,-55 m -13230,-5737 -1516,878 m 39822,-32637 -2273,-577 m -38948,46265 217,103 m 15928,-8295 4561,-44 m -26449,2472 5743,5765 m 10132,-7144 1489,-461 m 30666,-37754 -1066,-330 m -20515,37452 29768,14 m -45923,-33345 70,-140 m 34327,-4558 -2003,-421 m 12792,5656 -900,-834 m -39711,35083 1006,-362 m 38705,-34721 -1332,-956 m -4289,-2192 -929,-346 m -44822,35610 -1139,1212 m 54390,-30846 -133,-442 m 141,31334 -8,-30892 m -54390,30846 -2076,2388 m 56041,-34195 -554,-687 m -37183,33207 1062,-184 m -9066,-6633 2,-26927 m 32393,-5119 -1187,-204 m -41508,40742 -64,164 m 6031,6087 219,-112 m 47069,-42811 -1845,-1057 m -40884,2115 h 7288 m -3921,35385 983,-404 m 41457,-33043 -292,-519 m -42389,74882 983,-404 m -9135,-5258 -1308,1112 m 1317,10927 217,103 m 7585,-15853 -1727,549 m 15217,-30743 -2972,764 m -24124,39317 61,99 m 6179,5755 3370,-3335 m 31952,-43546 -1721,-168 m -21992,30161 -4243,1147 m 23678,-31403 -1735,49 m -35488,41340 5743,5764 m 15779,-44325 -1067,444 m -8636,28680 -1525,561 m -1,0 -1635,711 m 25089,-33056 -1733,182 m -14207,5041 -19,24865 m -17859,10913 10,121 m 12618,194 1329,-708 m 16421,-40187 -3272,620 m -23827,36196 -1139,1212 m 2357,-2391 -1218,1179 m 2752,9851 219,-112 m 4875,-4649 1503,-1011 m 7999,-2468 1333,-55 m -21895,2044 -64,164 m 56105,-34359 -554,-687 m -46823,27101 -1516,878 m 2407,9707 742,-695 m -8221,-4497 -2076,2388 m 32020,-40655 -1707,239 m -10762,3130 -736,442 m -8518,38953 763,-619 m 6311,-2946 933,-219 m -11156,-5228 -1408,1012 m 12528,-30523 -339,412 m 0,0 -116,388 m 2648,-2119 -910,447 m 15943,-3670 -1741,119 m 17657,3108 -2444,-1135 m -30151,2020 -547,430 m 21518,-4496 -2557,-95 m -13160,1973 -2541,855 m -5591.074,5824.37 -366,-245 m 698,18468 v -17424 M 138297,103800 l -1332,-956 m -6284,-2868 -2273,-577 m -29127.074,7519.37 -432,-86 m -5558,332 -244,367 m 1044,18984 -432,-86 M 110166,137428 l 29768,14 m -46276.074,-30522.63 -367,245 m 5991,19266 -432,86 m 0,0 -4759,-1 m -1129,-1129 -1,-17423 M 126405,98978 l -1187,-204 m 14966,38400 -8,-30892 m -3211,-3438 -1845,-1057 m -35228.074,5743.37 -245,-367 m -798,-331 -4759,1 m 5559,19352 -367,245 M 103076,137657 l 1196,-130 m 35904,-31245 -133,-442 m -40064.074,19546.37 -86,433 m -6845,-1 -86,-432 M 139197,104634 l -900,-834 m -45250.074,3731.37 -86,432 m 1129,-1130 -432,86 m 6235,18900 -244,366 m -6356,0 -245,-367 M 139934,137442 l 164,-77 m -46439.074,-10935.63 -366,-244 m 6685,-18223 -86,-432 M 102014,137841 l 1062,-184 m 36967,-31817 -292,-519 m -11343,-5922 -2003,-421 m -26813,39543 1489,-461 m 30666,-37754 -1066,-330 m -25076,37496 4561,-44 m 29932,-63 86,-191 m -7508,-36522 -929,-346 m -33161,38577 1006,-362 m -5343.979,-120596.994 763,-619 m 10467.999,-39667 -1067,444 m -2532,1731 -116,388 m 14207,-5041 -1707,239 m 11194,-326 -1721,-168 m -32637.999,34007.0003 -1408,1012 m 31488.999,-35114.0003 -1735,49 m 0,0 -1741,119 m -6712,1041 -2972,764 m -4518,1746 -736,442 m 5254,-2188 -2541,855 m -10467.999,39667 1503,-1011 m 6251.999,-37323 -547,430 m -18332.999,36578 10,121 m 9610,2519 742,-695 m 20015.999,-42525 -3272,620 m 12745,-1114 -2557,-95 m -16768,3272 -910,447 m -1283,872 -339,412 m 15824,-4835 -1733,182 m 19389,2926 -2444,-1135 m -43224.999,32973.0002 -1308,1111.9998 m 8131,5258 1329,-708 m 3477.999,-1227 933,-219 m -18357.999,1960 61,99 m 10364,-35943 155,-55 m -226,27122.0002 -1635,711 m 47558.999,5706.9998 164,-77 m 0,0 86,-191 m -50287.999,8481 3370,-3335 m -5123,-7583 -1218,1179 m 16150.999,1741 1196,-130 m 0,0 1333,-55 m -13229.999,-5736.9998 -1516,878 m 39821.999,-32637.0002 -2273,-577 m -38947.999,46265 217,103 m 15927.999,-8295 4561,-44 m -26448.999,2472 5743,5765 m 10132,-7144 1488.999,-461 m 30665.98,-37754 -1066,-330 m -20515,37452 29768,14 m -45923,-33345 70,-140 m 34327,-4558 -2003,-421 m 12792,5656 -900,-834 m -39711,35083 1006,-362 m 38705,-34721 -1332,-956 m -4289,-2192 -929,-346 m -44822,35610 -1139,1212 m 54390,-30846 -133,-442 m 141,31334 -8,-30892 m -54390,30846 -2076,2388 m 56041,-34195 -554,-687 m -37183,33207 1062,-184 m -9066,-6632.9997 2,-26927.0003 m 32393,-5119 -1187,-204 m -41508,40742 -64,164 m 6031,6087 219,-112 m 47069,-42811 -1845,-1057 m -40884,2115 h 7288 m -3921,35385 983,-404 m 41457,-33043 -292,-519 m -42389,74882 983,-404 m -9135,-5258 -1308,1112 m 1317,10927 217,103 m 7585,-15853 -1727,549 m 15217,-30743 -2972,764 m -24124,39317 61,99 m 6179,5755 3370,-3335 m 31952,-43546 -1721,-168 m -21992,30161 -4243,1147 m 23678,-31403 -1735,49 m -35488,41340 5743,5764 m 15779,-44325 -1067,444 m -8636,28680 -1525,561 m -1.042,0 -1635,711 m 25089.002,-33056 -1733,182 m -14207,5041 -19,24865 m -17859.002,10913 10,121 m 12618,194 1329,-708 m 16421.002,-40187 -3272,620 m -23827.002,36196 -1139,1212 m 2357,-2391 -1218,1179 m 2752,9851 219,-112 m 4875,-4649 1503,-1011 m 7999.002,-2468 1333,-55 m -21895.002,2044 -64,164 m 56105.002,-34359 -554,-687 m -46823.002,27101 -1516,878 m 2407,9707 742,-695 m -8221,-4497 -2076,2388 m 32020.002,-40655 -1707,239 m -10762,3130 -736,442 m -8518.002,38953 763,-619 m 6311.002,-2946 933,-219 m -11156.002,-5228 -1408,1012 m 12528.002,-30523 -339,412 m 0,0 -116,388 m 2648,-2119 -910,447 m 15943,-3670 -1741,119 m 17657,3108 -2444,-1135 m -30151,2020 -547,430 m 21518,-4496 -2557,-95 m -13160,1973 -2541,855 m -5591.076,5824.37 -366,-245 m 698,18468 v -17424 m 38318.116,-4162.37 -1332,-956 m -6284,-2868 -2273,-577 m -29127.074,7519.37 -432,-86 m -5558,332 -244,367 m 1044,18984 -432,-86 m 16507.074,10998.63 29768,14 m -46276.074,-30522.63 -367,245 m 5991,19266 -432,86 m 0,0 -4759,-1.042 m -1129,-1129 -1.042,-17423 m 33444.076,-8985.369 -1187,-204 m 14966,38400 -8,-30892 m -3211,-3438 -1845,-1057 m -35228.076,5743.369 -245,-367 m -798,-331 -4759,1.042 m 5559,19352 -367,245 m 3794.076,11226.63 1196,-130 m 35904,-31245 -133,-442 m -40064.076,19546.37 -86,433 m -6845,-1.042 -86,-432 M 139197,21849.006 l -900,-834 m -45250.074,3731.37 -86,432 m 1129,-1130 -432,86 m 6235,18900 -244,366 m -6356,0 -245,-367 m 46886.074,11623.63 164,-77 m -46439.074,-10935.63 -366,-244 m 6685,-18223 -86,-432 m 2122.074,30310.63 1062,-184 m 36967,-31817 -292,-519 m -11343,-5922 -2003,-421 m -26813,39543 1489,-461 m 30666,-37754 -1066,-330 m -25076,37496 4561,-44 m 29932,-63 86,-191 m -7508,-36522 -929,-346 m -33161,38577 1006,-362 m -24006.688,-35887.998 -763,619 m -10468,39667 1067,-444 m 2532,-1731 116,-388 m -14207,5041 1707,-239 m -11194,326 1721,168 m 32638,-34007 1408,-1012 m -31489,35114 1735,-49 m 0,0 1741,-119 m 6712,-1041 2972,-764 m 4518,-1746 736,-442 m -5254,2188 2541,-855 m 10468,-39667 -1503,1011 m -6252,37323 547,-430 m 18333,-36578 -10,-121 m -9610,-2519 -742,695 m -20016,42525 3272,-620 m -12745,1114 2557,95 m 16768,-3272 910,-447 m 1283,-872 339,-412 m -15824,4835 1733,-182 m -19389,-2926 2444,1135 m 43225,-32973 1308,-1112 m -8131,-5258 -1329,708 m -3478,1227 -933,219 m 18358,-1960 -61,-99 m -10364,35943 -155,55 m 226,-27122 1635,-711 m -47559,-5707 -164,77 m 0,0 -86,191 m 50288,-8481 -3370,3335 m 5123,7583 1218,-1179 m -16151,-1741 -1196,130 m 0,0 -1333,55 m 13230,5737 1516,-878 m -39822,32637 2273,577 m 38948,-46265 -217,-103 m -15928,8295 -4561,44 m 26449,-2472 -5743,-5765 m -10132,7144 -1489,461 m -30666,37754 1066,330 m 20515,-37452 -29768,-14 m 45923,33345 -70,140 m -34327,4558 2003,421 m -12792,-5656 900,834 m 39711,-35083 -1006,362 m -38705,34721 1332,956 m 4289,2192 929,346 m 44822,-35610 1139,-1212 m -54390,30846 133,442 m -141,-31334 8,30892 m 54390,-30846 2076,-2388 m -56041,34195 554,687 m 37183,-33207 -1062,184 m 9066,6633 -2,26927 m -32393,5119 1187,204 m 41508,-40742 64,-164 m -6031,-6087 -219,112 m -47069,42811 1845,1057 m 40884,-2115 h -7288 m 3921,-35385 -983,404 m -41457,33043 292,519 m 42249,-74862 -983,404 m 9135,5258 1308,-1112 m -1317,-10927 -217,-103 m -7585,15853.0003 1727,-549 m -15217,30742.9997 2972,-764 m 24124,-39317 -61,-99 m -6179,-5755 -3370,3335 m -31952,43546 1721,168 m 21992,-30160.9997 4243,-1147 m -23678,31402.9997 1735,-49 m 35488,-41340 -5743,-5764 m -15779,44325 1067,-444 m 8636,-28679.9997 1525,-561.0003 m 1,0 1635,-711 m -25089,33056 1733,-182 m 14207,-5041 19,-24864.9997 m 17859,-10913.0003 -10,-121 m -12618,-194 -1329,708 m -16421,40187 3272,-620 m 23827,-36196 1139,-1212 m -2357,2391 1218,-1179 m -2752,-9851 -219,112 m -4875,4649 -1503,1011 m -7999,2468 -1333,55 m 21895,-2044 64,-164 m -56105,34359 554,687 m 46823,-27101 1516,-878 m -2407,-9707 -742,695 m 8221,4497 2076,-2388 m -32020,40655 1707,-239 m 10762,-3130 736,-442 m 8518,-38953 -763,619 m -6310,2946 -933,219 m 11155,5228 1408,-1012 m -12528,30523 339,-412 m 0,0 116,-388 m -2648,2119 910,-447 m -15943,3670 1741,-119 m -17657,-3108 2444,1135 m 30151,-2020 547,-430 m -21518,4496 2557,95 m 13160,-1973 2541,-855 m 5645.563,-5809.37 366,245 m -698,-18467.9997 V 12629.638 m -38372.563,4147.37 1332,956 m 6284,2868 2273,577 m 29181.563,-7504.37 432,86 m 5558,-332 244,-367 m -1044,-18983.9997 432,86 m -16561.563,-11013.6303 -29768,-14 m 46330.563,30537.63 367,-245 m -5991,-19265.9997 432,-86 m 0,0 4759,1 m 1129,1129 1,17422.9997 m -33498.563,8970.37 1187,204 m -14966,-38400 8,30892 m 3211,3438 1845,1057 m 35282.563,-5728.37 245,367 m 798,331 4759,-1 m -5559,-19351.9997 367,-245 m -3848.563,-11241.6303 -1196,130 m -35904,31245 133,442 m 40118.563,-19531.3697 86,-433 m 6845,1 86,432 m -46289.563,20737.3697 900,834 m 45304.563,-3716.37 86,-432 m -1129,1130 432,-86 m -6235,-18899.9997 244,-366 m 6356,0 245,367 m -46940.563,-11638.6303 -164,77 m 46493.563,10950.6303 366,244 m -6685,18222.9997 86,432 m -2176.563,-30325.63 -1062,184 m -36967,31817 292,519 m 11343,5922 2003,421 m 26813,-39543 -1489,461 m -30666,37754 1066,330 m 25076,-37496 -4561,44 m -29932,63 -86,191 m 7508,36522 929,346 m 33161,-38577 -1006,362 m 5484,120576.992 -763,619 m -10468,39667 1067,-444 m 2532,-1731 116,-388 m -14207,5041 1707,-239 m -11194,326 1721,168 m 32638,-34007 1408,-1012 m -31489,35114 1735,-49 m 0,0 1741,-119 m 6712,-1041 2972,-764 m 4518,-1746 736,-442 m -5254,2188 2541,-855 m 10468,-39667 -1503,1011 m -6252,37323 547,-430 m 18333,-36578 -10,-121 m -9610,-2519 -742,695 m -20016,42525 3272,-620 m -12745,1114 2557,95 m 16768,-3272 910,-447 m 1283,-872 339,-412 m -15824,4835 1733,-182 m -19389,-2926 2444,1135 m 43225,-32973 1308,-1112 m -8131,-5258 -1329,708 m -3478,1227 -933,219 m 18358,-1960 -61,-99 m -10364,35943 -155,55 m 226,-27122 1635,-711 m -47559,-5707 -164,77 m 0,0 -86,191 m 50288,-8480.998 -3370,3334.998 m 5123,7583 1218,-1179 m -16151,-1741 -1196,130 m 0,0 -1333,55 m 13230,5737 1516,-878 m -39822,32637 2273,577 m 38948,-46264.998 -217,-103 m -15928,8294.998 -4561,44 m 26449,-2472 -5743,-5764.998 m -10132,7143.998 -1489,461 m -30666,37754 1066,330 m 20515,-37452 -29768,-14 m 45923,33345 -70,140 m -34327,4558 2003,421 m -12792,-5656 900,834 m 39711,-35083 -1006,362 m -38705,34721 1332,956 m 4289,2192 929,346 m 44822,-35610 1139,-1212 m -54390,30846 133,442 m -141,-31334 8.021,30892 m 54390,-30846 2076,-2388 m -56041,34195 554,687 m 37183,-33207 -1062,184 m 9066,6633 -2,26927 m -32393,5119 1187,204 m 41508,-40742 64,-164 m -6031,-6086.998 -219,112 m -47069,42810.998 1845,1057 m 40884,-2115 h -7288 m 3921,-35385 -983,404 m -41457,33043 292,519 m 42248.979,-74861.998 -983,404 m 9135,5258 1308,-1112 m -1317,-10927 -217,-103 m -7585,15853 1727,-549 m -15217,30742.998 2972,-764 m 24124,-39316.998 -61,-99 m -6179,-5755 -3370,3335 m -31952,43545.998 1721,168 m 21992,-30160.998 4243,-1147 m -23678,31402.998 1735,-49 m 35488,-41339.998 -5743,-5764 m -15779,44324.998 1067,-444 m 8636,-28679.998 1525,-561 m 1.042,0 1635,-711 m -25089,33055.998 1733,-182 m 14207,-5040.998 19,-24865 m 17859,-10913 -10,-121 m -12618,-194 -1329,708 m -16421,40186.998 3272,-620 m 23827,-36195.998 1139,-1212 m -2357,2391 1218,-1179 m -2752,-9851 -219,112 m -4875,4649 -1503,1011 m -7999,2468 -1333,55 m 21895,-2044 64,-164 m -56105,34359 554,687 m 46823,-27101 1516,-878 m -2407,-9707 -742,695 m 8221,4497 2076,-2388 m -32020,40654.998 1707,-239 m 10762,-3130 736,-442 m 8518,-38952.998 -763,619 m -6310,2946 -933,219 m 11155,5228 1408,-1012 m -12528,30522.998 339,-411.998 m 0,0 116,-388 m -2648,2118.998 910,-447 m -15943,3670 1741,-119 m -17657,-3108 2444,1135 m 30151,-2020 547,-430 m -21518,4496 2557,95 m 13160,-1973 2541,-855 m 5645.562,-5809.368 366,245 m -698,-18468 v 17424 m -38372.562,4147.37 1332,955.998 m 6284,2868 2273,577 m 29181.562,-7504.368 432,86 m 5558,-332 244,-367 m -1044,-18984 432,86 m -16561.562,-11013.63 -29768,-14 m 46330.562,30537.63 367,-245 m -5991,-19266 432,-86 m 0,0 4759,1.042 m 1129,1129 1.042,17423 m -33498.563,8970.366 1187,204 m -14966,-38399.997 8.021,30892 m 3211,3437.997 1845,1057 m 35282.563,-5728.366 245,367 m 798,331 4759,-1.042 m -5559,-19352 367,-245 m -3848.563,-11241.63 -1196,130 m -35904,31245 133,442 m 40118.563,-19531.37 86,-433 m 6845,1.042 86,432 m -46289.563,20737.369 900,834 m 45304.563,-3716.369 86,-432 m -1129,1130 432,-86 m -6235,-18900 244,-366 m 6356,0 245,367 m -46940.563,-11638.631 -164,77 m 46493.563,10950.631 366,244 m -6685,18223 86,432 m -2176.563,-30325.631 -1062,184 m -36967,31817 292,519 m 11343,5921.997 2003,421 m 26813,-39542.997 -1489,461 m -30666,37753.997 1066,330 m 25076,-37495.997 -4561,44 m -29932,63 -86,191 m 7508,36521.997 929,346 m 33161,-38576.997 -1006,362"
         transform="matrix(0,-0.0096,0.0096,0,273.22896,1364.4007)"
         style="fill:#c2c200;fill-opacity:0;stroke:#0000ff;stroke-width:39.3701;stroke-linecap:round;stroke-linejoin:round;stroke-miterlimit:4;stroke-dasharray:none;stroke-opacity:1"
         id="path962" /></g></g><g
     inkscape:label="カット1(R255G0B0)"
     id="layer2"
     inkscape:groupmode="layer"
     style="display:inline"><g
       transform="matrix(-1,0,0,1,1703.9972,32.969396)"
       id="g27680" /><path
       d="m 889.40325,1060.7407 -1.3152,0.8832 m -4.512,-6.7008 1.3056,-0.8832 m 1.6032,-0.3168 1.6032,0.3168 m 2.5152,3.792 -0.3264,1.6032 m -7.9008,-1.6032 0.3168,-1.6032 m -11.952,-290.36155 1.6032,0.3168 m 2.5152,3.792 -0.3264,1.6032 m -0.8736,1.3152 -1.3152,0.8736 m 0,0 -1.6032,0.3264 m -2.9088,-1.2 -0.8832,-1.3152 m 0,0 -0.3168,-1.6032 m 0.3168,-1.6032 0.8832,-1.3056 m 22.4448,289.16155 0.3264,1.6032 m -22.7712,-290.76475 1.3056,-0.8832 m 322.52155,-122.7648 0.8736,1.3056 m -306.04795,417.22555 -1.6032,-0.3264 m -2.1888,-5.3952 0.8832,-1.3056 m 308.95675,-410.19835 0.3264,1.6032 m 0,0 -0.3264,1.6032 m -307.65115,413.69275 -1.3056,-0.8736 m -0.8832,-1.3152 -0.3168,-1.6032 m -7.8432,-289.45915 0.3264,1.6032 m 14.544,284.94715 0.8736,1.3056 m -19.536,-282.13435 -1.6032,-0.3264 m 18.9504,287.85595 -1.6032,0.3264 m -11.952,-290.37115 -0.8736,1.3152 m -4.5216,0.8736 -1.3056,-0.8736 m -1.2,-2.9184 0.3168,-1.6032 m 321.79195,-126.1536 1.6032,0.3168 m -321.20635,123.648 1.6032,-0.3168 m 319.60315,-123.3312 1.3152,0.8832 m 0.8736,4.512 -0.8832,1.3056 m -303.56155,404.80315 1.3152,0.8832 m -4.5216,-0.8832 1.6032,-0.3168 m -14.1408,-287.53915 1.3152,0.8832 m 0,0 0.8736,1.3056 m 9.0432,292.37755 -0.8832,-1.3152 m 7.584,0 -0.8736,1.3056 m 295.54555,-416.01595 0.8832,-1.3056 m -77.472,201.5136 -0.8832,-1.3056 m 79.6608,-193.5072 -1.3056,-0.8832 m 0,0 -0.8832,-1.3056 m -73.68,189.984 1.6032,0.3168 m 0,7.584 -1.6032,0.3264 m 4.1184,-4.1184 -0.3264,1.6032 m -3.792,2.5152 -1.6032,-0.3264 m -2.5056,-3.792 0.3168,-1.6032 m 79.6608,-197.8848 1.6032,-0.3168 m -75.8688,196.0128 1.3152,0.8832 m -5.8272,0 1.3056,-0.8832 m 75.2832,-190.3008 -0.3168,-1.6032 m 7.0176,2.9088 -1.3056,0.8832 m -82.8672,190.3008 0.8832,-1.3056 m 76.272,-192.7872 0.3168,-1.6032 m -75.2832,201.0912 -1.3056,-0.8832 m 6.7008,-4.512 0.3264,1.6032 m -5.7216,-3.792 1.6032,-0.3168 m 2.9184,1.2 0.8736,1.3056 m 75.2832,-190.3008 -1.6032,0.3264 m -2.9088,-7.0272 1.3056,-0.8832 m -72.0768,201.0912 -0.8736,1.3152 m 0,0 -1.3152,0.8736 m -5.3952,-2.1888 -0.3168,-1.6032 m 81.5808,-191.5776 -1.6032,-0.3264 m -34.6176,360.30715 0.8928,-1.3344 m 5.8176,0 0.8928,1.3344 m -6.7104,-1.3344 1.3344,-0.8928 m 4.4832,6.7104 -1.3344,0.8928 m 0,0 -1.5744,0.3072 m -1.5744,-0.3072 -1.3344,-0.8928 m 0,0 -0.8928,-1.3344 m 7.6032,0 -0.8928,1.3344 m 1.2096,-2.9088 -0.3168,1.5744 m -3.8016,2.5344 -1.5744,-0.3072 m 0,-7.6032 1.5744,-0.3168 m 1.5744,0.3168 1.3344,0.8928 m -7.0272,2.9088 0.3168,-1.5744 m 3.8016,-2.544 1.5744,0.3168 m 2.2272,2.2272 0.3168,1.5744 m -7.92,1.5744 -0.3168,-1.5744 m 173.5681,-272.47675 v 3.024 m -6.2784,72 v -3.024 m -29.7216,199.92955 v 3.0336 m 11.712,-3.0336 h 3.7824 m 32.2176,-271.92955 h -11.712 m -18,130.9632 h 11.7216 m -18.0096,143.99995 v -3.0336 m 6.288,-143.99995 v 3.0336 m -15.6384,-75.0336 v 3.0336 m -3.7824,-3.0336 h 3.7824 m 49.1328,-52.9056 h -3.7824 m -51.6288,68.976 h -11.712 m 29.712,-16.0704 h 21.9168 m -36,219.03355 h 11.712 m -15.6288,-143.99995 v -3.0336 m 39.9168,-124.9056 h -21.9168 m 1.4112,268.90555 v -52.90555 m -3.7824,-3.024 h -11.712 m 0,0 v 3.024 m 2.3616,-219.024 v 3.024 m 11.7216,-3.024 h -11.7216 m -6.2784,127.9296 h 21.9168 m -55.4112,143.99995 h 3.7728 m 32.2176,-268.90555 v 52.9056 m -4.8576,91.0944 v -3.024 m -45.3504,55.9296 v 3.0336 m 53.9904,-199.9392 h -3.7824 m -20.5056,216 v -3.024 m 6.2976,-85.0368 h 11.712 m -11.712,-58.9632 v 3.024 m -24.288,127.9392 v -3.0336 m 42.2784,-140.9664 h 11.7216 m 33.6288,-3.0336 h 3.7824 m -106.9152,144 h 3.792 m 29.7024,16.0704 h -11.712 m 85.1328,-160.0704 v -52.9056 m -85.1328,268.90555 v 3.0336 m 14.2176,-199.93915 v 52.9056 m -14.2176,91.0944 h -3.7728 m 85.1232,-216 v -3.024 m -11.712,55.9296 v 3.0336 m -73.4112,160.0608 v 52.90555 m 55.4112,-196.90555 h -21.9168 m -15.504,52.9056 h 3.792 m 33.6288,-55.9296 v 3.024 m -21.9168,0 v -3.024 m 33.6384,55.9296 h 3.7728 m -21.7824,91.0944 v -3.024 m 36,-157.0368 v -3.0336 m -14.2176,19.0944 h -3.7728 m -15.6384,-16.0608 v -3.0336 m -36.0096,215.99995 h 21.9264 m -6.2784,-127.92955 h -11.7216 m 0,58.9632 h 11.7216 m 36,-130.9632 h -11.7216 m 15.4944,55.9296 v -52.896 m -36,71.9904 h -3.7728 m -33.6384,0 v -3.024 m 54,-140.976 v -3.024 m -29.712,127.9296 v 3.0336 m 13.1232,68.9664 v -52.9056 m 18,72 h -3.7824 m -29.712,-72 h -21.9168 m 75.9168,-88.0608 h 11.712 m -87.6288,85.0368 h -11.712 m 36,-68.976 h -3.792 m -32.208,127.9392 h 11.712 m -15.504,-55.9392 v 52.9056 m 3.792,-52.9056 h -3.792 m 55.4208,72 h -21.9264 m -11.712,-3.024 v 3.024 m 15.6384,-19.0944 v 3.0336 m -21.9168,-3.0336 h 21.9168 m 11.7216,3.0336 v -3.0336 m -27.36,75.03355 h 11.712 m -29.7024,-130.96315 v 3.024 m 33.6288,-3.024 v 3.024 m 11.7216,52.9056 h 3.7728 m 76.8672,-144 v 3.0336 m 67.1328,284.97595 v -52.9152 m -15.4944,55.9392 h 11.7216 m -49.1424,-3.024 h 3.7824 m -72,3.024 h 11.7216 m 56.496,-55.9392 v 52.9152 m 3.7824,3.024 h 11.7216 m 21.9168,-58.9632 v 3.024 m -21.9168,55.9392 v -3.024 m -38.3616,3.024 v -3.024 m 75.7728,-52.9152 h -3.7728 m -83.7216,0 h -21.9168 m 93.9168,0 h -21.9168 m -83.7216,0 h -3.7824 m 121.1424,-3.024 h -11.7216 m -33.6384,0 v 3.024 m 45.36,0 v -3.024 m 0,58.9632 v -3.024 m -45.36,0 v 3.024 m 11.7216,-58.9632 h -11.7216 m 11.7216,55.9392 h 21.9168 m -33.6384,-52.9152 h -3.7824 m -56.496,0 v -3.024 m -11.7216,0 v 3.024 m 117.36,52.9152 h 3.7728 m -109.4112,-55.9392 h -11.7216 m 83.7216,3.024 v -3.024 m 21.9168,55.9392 v 3.024 m -105.6384,-3.024 v 3.024 m 33.6384,-58.9632 v 3.024 m -37.4208,0 v 52.9152 m 49.1424,0 h 3.7728 m -3.7728,-55.9392 h -11.7216 m 15.4944,55.9392 v -52.9152 m 106.5888,-3.024 h -11.7216 m -110.3616,58.9632 h 11.7216 m 0,-55.9392 v -3.024 m -33.6384,55.9392 h 21.9168 m 15.4944,-52.9152 h -3.7728 m -11.7216,52.9152 v 3.024 m 159.4944,-55.9392 h -3.7728 m -11.7216,0 h -21.9168 m 0,0 v -3.024 m -11.7216,0 v 3.024 m 45.36,0 v -3.024 m -45.36,3.024 h -3.7824 m 49.1424,-3.024 h -11.7216 m 0,0 v 3.024 m 15.4944,52.9152 v -52.9152 m -52.9152,0 v 52.9152 m -128.496,3.024 v -3.024 m -15.504,0 h 3.7824 m 177.6288,0 v 3.024 m 11.7216,-3.024 h 3.7728 m -15.4944,3.024 h 11.7216 m -33.6384,-3.024 h 21.9168 m 11.7216,3.024 v -3.024 m 38.3712,-55.9392 h -11.7216 m 45.36,58.9632 v -3.024 m -11.7216,3.024 h 11.7216 m 3.7728,-55.9392 h -3.7728 m -11.7216,0 h -21.9168 m 37.4016,52.9152 v -52.9152 m -121.1232,52.9152 v 3.024 m 0,0 h 11.7216 m 0,0 v -3.024 m 56.496,0 h 3.7824 m 45.36,-52.9152 v -3.024 m 0,0 h -11.7216 m -37.4208,3.024 v 52.9152 m 49.1424,0 h 3.7728 m -124.9152,0 h 3.7824 m 105.6288,-55.9392 v 3.024 m -33.6288,0 h -3.7824 m 15.504,0 v -3.024 m 0,55.9392 h 21.9168 m -33.6384,3.024 h 11.7216 m -0.01,0 v -3.024 m -11.712,-55.9392 v 3.024 m -0.01,52.9152 v 3.024 m 33.6384,-3.024 v 3.024 m -195.628,-287.99995 h 11.7216 m 39.9168,88.0608 h -21.9168 m -126.0096,127.93915 v -3.0336 m 51.648,-140.96635 v -3.0336 m 2.3616,72 h 21.9168 m 83.7216,-55.9296 h -11.7216 m -21.9168,0 h -11.7216 m -3.7824,3.024 v 52.9056 m -19.0848,-52.9056 h -3.7728 m 60.2784,52.9056 v 3.0336 m 0,0 h 11.7216 m -45.36,-58.9632 v 3.024 m 11.7216,55.9392 v -3.0336 m -32.0832,19.0944 h -21.9168 m -18,-72 v -3.024 m -11.7216,58.9632 h 11.7216 m 18,16.0608 v -3.024 m 42.2784,-13.0368 h 11.7216 m -11.7216,-55.9392 h -3.7824 m 49.1424,55.9392 v -3.0336 m -11.7216,-55.9296 v 3.024 m 11.7216,0 v -3.024 m -67.1424,-88.0704 h 3.7824 m 33.6384,0 v 3.0336 m -75.9168,85.0368 h -11.7216 m 0,55.9296 v 3.0336 m 18,13.0368 v 3.024 m 103.1328,-72 h -3.7728 m -83.7216,52.9056 v 3.0336 m 32.0832,-147.0336 h 21.9168 m -38.5056,144 v -52.9056 m 50.2176,-88.0608 v -3.0336 m 18.0096,144 h 3.7728 m -37.4112,-52.9056 v -3.024 m 0,55.9296 h 21.9168 m 15.4944,0 v -52.9056 m -33.4944,-88.0608 h 11.712 m -103.1328,140.9664 h 3.7824 m 65.7216,-140.9664 v -3.0336 m -20.3616,147.0336 v -3.0336 m 0,-52.9056 v -3.024 m 189.9168,128.95675 -0.3168,-1.5744 m 4.1184,-4.1184 1.5744,0.3072 m 2.544,3.8112 -0.3168,1.5744 m -0.8928,1.3344 -1.3344,0.8928 m -4.4832,-6.72 1.3344,-0.8928 m -2.2272,2.2272 0.8928,-1.3344 m 4.4832,6.72 -1.5744,0.3072 m 1.5744,-7.92 1.3344,0.8928 m -7.0272,2.9184 0.3168,-1.584 m 0.8928,4.4928 -0.8928,-1.3344 m 3.8016,2.5344 -1.5744,-0.3072 m 0,0 -1.3344,-0.8928 m 6.7104,-1.3344 -0.8928,1.3344 m -4.4832,-6.72 1.5744,-0.3072 m 3.8016,2.5344 0.3168,1.584 m -1.2096,-2.9184 0.8928,1.3344 m -206.88,-197.79835 v 3.024 m 0,52.9056 v 3.0336 m 27.3504,143.99995 v -3.0336 m 39.7824,-268.90555 h -3.7824 m -51.6288,68.976 h -11.7216 m -39.7824,75.024 v 52.9056 m 37.4208,-52.9056 h -21.9168 m 36,-19.0944 h 21.9168 m -39.9168,147.03355 v -3.0336 m 18,-196.90555 v -3.024 m -11.7216,58.9632 h 11.7216 m -15.504,-3.0336 h 3.7824 m 15.6384,147.03355 h 11.712 m -33.6288,-3.0336 h 21.9168 m 15.4944,0 v -52.90555 m 14.2272,-147.024 h -11.7216 m -6.288,147.024 v -3.024 m -45.3504,3.024 h -3.7824 m 3.7824,55.93915 h 11.7216 m 33.6288,-58.96315 h -11.712 m 0,55.92955 v 3.0336 m -37.4208,-3.0336 h 3.7824 m 14.2176,-196.90555 v 52.9056 m 52.9152,0 v -52.9056 m 22.8672,-3.024 v 3.024 m -38.3616,52.9056 v 3.0336 m 56.3616,-130.9632 v 3.024 m -38.3616,0 h -21.9168 m 15.6384,72 v -3.024 m 17.9904,-16.0704 h 3.7824 m -85.1328,215.99995 v 3.0336 m -18,-130.96315 v 3.024 m 103.1328,-91.0944 v -52.9056 m -49.1328,0 h -3.7824 m -38.496,199.9392 v -3.0336 m 33.6384,0 h 3.7728 m 16.5888,-196.9056 v -3.024 m 1.4112,219.024 h -3.7824 m 36,-219.024 h -11.712 m -33.6384,0 v 3.024 m 27.36,124.9056 h 3.7728 m -21.7824,143.99995 h 3.7824 m 32.2176,-268.90555 v -3.024 m -33.6288,0 h -11.7216 m -3.7824,3.024 v 52.9056 m 34.9152,19.0944 h -3.7728 m -29.7216,140.976 v 3.024 m -15.6384,-144 h -3.7824 m 15.504,55.9392 v -3.0336 m 21.9168,3.0336 h 11.7216 m -47.7216,13.0368 v 3.024 m 36,-75.024 v 3.024 m 18,-75.024 v 3.024 m -6.2784,127.9392 v -3.0336 m -11.7216,-52.9056 h -21.9168 m 109.4112,52.9056 v -52.9056 m 110.7456,-198 -2.1312,2.1312 m -139.7472,123.8688 h -3.7824 m 52.9152,52.9056 v -52.9056 m -85.1328,271.93915 h 11.7216 m 36,-215.99995 v -3.0336 m 21.9168,-55.9296 v 3.024 m -20.5056,216 h -3.7824 m -15.6288,-91.0944 h 21.9168 m -33.6384,3.0336 h 11.7216 m 3.9168,143.99995 h 11.712 m -11.712,-3.0336 v 3.0336 m 51.4944,-271.93915 h -3.7824 m -51.6288,72 v -3.024 m 15.6288,199.92955 h 3.7824 m -19.4112,-140.96635 v -3.0336 m 18,-72 h 21.9168 m -21.9168,-52.9056 v -3.024 m -2.3712,219.024 v -3.024 m 18.0096,-144 h -11.7216 m 29.712,-72 h -11.712 m -39.9168,72 h -11.7216 m -6.2784,202.96315 v -3.0336 m 57.9168,-212.96635 h 11.712 m -33.6288,-58.9632 h -11.7216 m -39.7824,271.92955 h 3.7824 m 45.3504,3.0336 v -3.0336 m -13.1328,-268.90555 v 52.9056 m 31.1424,72 h 3.7728 m 14.2176,-68.9664 v -3.0336 m 0,-52.9056 v -3.024 m -11.712,55.9296 v 3.0336 m -37.4208,-3.0336 h 3.7824 m 27.36,19.0944 v -3.024 m -49.1424,55.9296 h 3.7824 m 33.6384,-55.9296 v 3.024 m 0,0 h -21.9168 m 33.6384,55.9392 v -3.0336 m 136.1664,-224.9856 8.2848,8.2848 m -42.336,64.2336 -1.0272,2.8416 m -128.448,80.6592 h 11.7216 m 33.6288,-3.0336 h 3.7824 m -49.1328,0 v 3.0336 m -21.7824,16.0608 v 52.9056 m 3.7824,-52.9056 h -3.7824 m -2.496,196.90555 h 21.9168 m 15.4944,0 v -52.90555 m 20.5056,-216 h -21.9168 m 3.9168,127.9392 h 11.7216 m 3.7728,-55.9392 h -3.7728 m -11.7216,52.9056 v 3.0336 m 160.9824,-219.1968 37.4208,-37.4208 m -250.0416,397.58395 v 3.0336 m 18,-147.03355 v 3.0336 m -93.7824,88.0608 v 52.90555 m 31.1424,-127.92955 h -11.7216 m -3.9168,72 h -11.7216 m -18,-68.976 h -3.7824 m 37.4208,55.9392 h 11.7216 m 224.2656,-293.328 -1.3344,-0.8928 m -70.752,191.2128 0.3072,1.5744 m 69.552,-194.1216 -0.3072,-1.5744 m 8.2272,0 -0.3168,1.6032 m -85.3824,194.0928 0.3168,-1.5744 m 0,0 0.8832,-1.3344 m 1.344,6.7104 -1.344,-0.8832 m 78.8064,-202.416 1.584,-0.3072 m -77.472,203.9232 -1.5744,-0.3168 m 80.64,-195.7056 -1.5936,0.3264 m -73.3632,191.5776 -0.3072,1.5744 m -0.8928,-4.4832 0.8928,1.3344 m -3.8016,-2.5344 1.5744,0.3072 m 71.7792,-191.8944 0.3072,-1.5744 m -72.0864,193.4688 1.3344,0.8928 m -1.3344,6.7104 -1.5744,0.3168 m -2.9184,-1.2 -0.8832,-1.344 m 0.8832,-4.4832 1.344,-0.8928 m 76.128,-194.8032 1.3344,-0.8928 m -72.9792,202.416 -1.3344,0.8832 m 78.8064,-196.5888 -1.3152,0.8832 m 2.1984,-2.1888 -0.8832,1.3056 m -2.9088,1.2096 -1.584,-0.3168 m -72.0864,193.4688 -0.8928,1.344 m 71.6448,-195.7056 -0.8928,-1.3344 m 0,-3.1488 0.8928,-1.3344 m -76.128,194.8032 1.5744,-0.3072 m -3.8016,5.6832 -0.3168,-1.5744 m -217.7568,212.89915 0.8928,1.3344 m 0.3072,1.5744 -0.3072,1.5744 m -23.3568,-291.00475 0.8928,-1.3344 m 0,0 1.3344,-0.8928 m 1.584,-0.3072 1.5744,0.3072 m 2.5344,3.8016 -0.3072,1.5744 m 144.7104,184.944 h -11.7216 m -122.6304,97.53595 1.584,-0.3072 m -14.1696,-279.94555 -1.5744,0.3168 m 18.6528,286.64635 -1.3344,0.8928 m -21.1104,-290.05435 -0.3264,-1.6032 m 21.4368,284.05435 1.3344,0.8928 m -7.0272,2.9088 0.3072,-1.5744 m -9.024,-283.37275 -1.3344,0.8928 m -3.1584,-7.6032 1.584,-0.3072 m 11.9328,290.39035 0.8928,-1.3344 m 169.3056,-98.42875 h -11.712 m -150.8736,102.91195 -0.8928,1.3344 m -14.8512,-289.19035 -0.8928,1.3344 m 14.4096,288.74875 -1.5744,0.3168 m 302.256,-419.73115 1.5936,0.3168 m 0,0 1.3152,0.8832 m -202.128,297.0048 v 3.0336 m -103.0368,110.26555 1.5744,0.3072 m -4.4928,0.8928 1.3344,-0.8928 m 156.2688,-97.53595 v 3.024 m 0,0 h -21.9168 m -11.7216,0 h -3.7824 m -129.2064,-191.1168 0.3072,1.5744 m 144.3936,189.5424 v -3.024 m -148.5024,-182.4 -1.6032,-0.3264 m 116.6016,166.656 h 3.7824 m -106.848,118.98235 -0.3072,-1.5744 m 2.5344,3.8016 -1.3344,-0.8928 m -14.4288,-286.97275 -1.3152,-0.8832 m 0,0 -0.8736,-1.3056 m 324.7008,-128.16 0.8832,1.3056 m -302.2464,411.53275 0.3072,1.5744 m 116.928,-101.33755 v 3.024 m -123.9552,101.22235 -0.8928,-1.3344 m -9.024,-292.33915 0.8928,1.3344 m 317.9904,-123.6768 0.3168,1.6032 m -320.5344,119.8464 1.3344,0.8928 m 12.8352,294.88315 -1.584,-0.3168 m 118.848,-102.11515 v 52.90555 m -137.1264,-242.44795 0.3072,-1.5744 m 305.0496,-49.6032 11.0112,4.0032 m 39.84,-142.704 -2.6784,-2.6784 m -64.2048,76.0128 -18.096,49.728 m 67.8144,-31.6224 -3.552,-1.296 m -34.944,70.2528 v 3.024 m 87.7248,-131.3472 2.1408,-2.1408 m -183.7824,333.4272 v -3.0336 m 146.8992,-363.0048 -37.4112,37.4208 m 4.8288,106.416 18.096,-49.7184 m -45.1296,-19.6512 -1.0368,2.8416 m 19.392,144.7296 v -3.0336 m 0,-52.9056 v -3.024 m -7.344,-84.5952 -11.0112,-4.0128 m 42.6144,15.5136 -11.0112,-4.0032 m -0.576,-35.4528 2.1312,-2.1408 m 15.504,15.4944 -2.1408,2.1408 m -23.0304,76.5216 3.5424,1.296 m -4.5792,1.5456 1.0368,-2.8416 m -0.7488,-100.3104 8.2848,8.2944 m 33.408,-49.9872 -2.1408,2.1408 m -40.1664,216.3264 v -52.9056 m -37.4112,-3.024 h -11.7216 m 45.36,0 h -11.7216 m 48.1728,-88.7712 2.1408,-2.1408 m 31.2672,-47.8368 -2.1408,2.1408 m 0,0 -15.4944,-15.504 m -38.976,75.0144 -1.0272,2.832 m 26.3712,-16.6464 2.6688,2.6784 m -41.2608,144.1632 h 3.7728 m -49.1328,3.0336 h 11.7216 m 88.0032,-213.216 -8.2848,-8.2848 m -22.8576,92.2848 1.0368,-2.8416 m -35.9808,132.0576 h 11.7216 m -19.392,-144.7296 -3.552,-1.296 m 75.168,-65.0496 2.1408,-2.1408 m 23.7792,23.7888 -8.2848,-8.2848 m -119.0016,141.7728 v 52.9056 m 21.6288,-85.1232 1.0272,-2.8416 m -14.5536,-5.2992 3.552,1.2864 m -11.6544,91.9872 h 3.7824 m 0,-55.9392 v 3.024 m 0,0 h -3.7824 m 3.7824,52.9152 v 3.0336 m 57.5808,-133.2384 -20.6016,-7.4976 m 12.2304,-43.8816 2.6688,2.6784 m -40.1568,125.9904 v -3.024 m -3.8496,-36.048 -1.0368,2.8512 m 42.2976,36.2208 h -3.7728 m -8.3808,-84.7872 1.0368,-2.832 m 86.0256,-41.0592 -2.6784,-2.6688 m -109.6416,184.2528 h 21.9168 m 26.5248,-170.6208 15.504,15.4944 m -42.0288,155.1264 v 3.0336 m -72,144 h 11.7216 m 38.3616,-144 v -3.0336 m 7.152,-87.9648 20.6016,7.4976 m -93.4752,243.5616 h -3.7824 m 15.504,52.90555 h 21.9168 m -2.5056,-71.99995 v -52.9056 m -19.4112,127.93915 v -3.0336 m 37.4112,0 v -52.90555 m 38.5056,-216 h -21.9168 m -4.8864,-36.2208 11.0112,4.0032 m -71.856,245.1936 v 3.024 m 0,55.93915 h 11.7216 m -17.9904,-130.96315 h -11.7216 m 51.6384,75.024 h -21.9168 m 33.6288,0 v -3.024 m -63.3504,-72 v 3.024 m 45.3504,0 v -3.024 m 0,0 h -11.7216 m 0,0 v 3.024 m 29.7216,127.93915 v -3.0336 m 3.7824,-52.90555 h -3.7824 m -63.3504,-72 h -3.7824 m 55.4208,68.976 v 3.024 m -39.9168,-72 v -3.024 m 33.6384,58.9632 v -3.0336 m -31.1424,71.99995 h 3.7824 m -21.7824,-124.90555 v 52.9056 m 37.4208,-52.9056 h -21.9168 m 6.2784,124.90555 v 3.0336 m -3.7824,-55.93915 v 52.90555 m 31.1424,-71.99995 h 3.7728 m 2.5056,71.99995 v 3.0336 m -21.9168,-55.93915 v -3.024 m 3.9168,-16.0704 v 3.0336 m 29.712,68.96635 h 3.7824 m -55.4112,-71.99995 h 21.9168 m 15.4944,-52.9056 h -3.7728 m -49.152,52.9056 h 3.7824 m 51.648,75.03355 h 11.712 m -63.3504,-75.03355 v 3.0336 m 63.3408,13.0368 h -11.712 m -51.6288,-13.0368 h 11.7216 m 18,13.0368 h -11.7216 M 810.36653,72.654115 l 1.3152,-0.8736 m 4.512,6.7008 -1.3056,0.8832 m -1.6032,0.3168 -1.6032,-0.3168 m -2.5152,-3.792 0.3264,-1.6032 m 7.9008,1.6032 -0.3168,1.6032 m 11.952,290.361605 -1.6032,-0.3168 m -2.5152,-3.792 0.3264,-1.6032 m 0.8736,-1.3152 1.3152,-0.8736 m 0,0 1.6032,-0.3264 m 2.9088,1.2 0.8832,1.3152 m 0,0 0.3168,1.6032 m -0.3168,1.6032 -0.8832,1.3056 m -22.4448,-289.161605 -0.3264,-1.6032 m 22.7712,290.764805 -1.3056,0.8832 m -322.52159,122.76482 -0.8736,-1.3056 m 306.04799,-417.225625 1.6032,0.3264 m 2.1888,5.3952 -0.8832,1.3056 m -308.95679,410.198425 -0.3264,-1.6032 m 0,0 0.3264,-1.6032 m 307.65119,-413.692825 1.3056,0.8736 m 0.8832,1.3152 0.3168,1.6032 m 7.8432,289.459205 -0.3264,-1.6032 m -14.544,-284.947205 -0.8736,-1.3056 m 19.536,282.134405 1.6032,0.3264 m -18.9504,-287.856005 1.6032,-0.3264 m 11.952,290.371205 0.8736,-1.3152 m 4.5216,-0.8736 1.3056,0.8736 m 1.2,2.9184 -0.3168,1.6032 m -321.79199,126.15362 -1.6032,-0.3168 m 321.20639,-123.64802 -1.6032,0.3168 m -319.60319,123.33122 -1.3152,-0.8832 m -0.8736,-4.512 0.8832,-1.3056 m 303.56159,-404.803225 -1.3152,-0.8832 m 4.5216,0.8832 -1.6032,0.3168 m 14.1408,287.539205 -1.3152,-0.8832 m 0,0 -0.8736,-1.3056 m -9.0432,-292.377605 0.8832,1.3152 m -7.584,0 0.8736,-1.3152 m -295.54559,416.025625 -0.8832,1.3056 m 77.472,-201.52322 0.8832,1.3152 m -79.6608,193.50722 1.3056,0.8832 m 0,0 0.8832,1.3056 m 73.68,-189.98402 -1.6032,-0.3168 m 0,-7.584 1.6032,-0.3264 m -4.1184,4.1184 0.3264,-1.6032 m 3.792,-2.5152 1.6032,0.3264 m 2.5056,3.792 -0.3168,1.6032 m -79.6608,197.88482 -1.6032,0.3168 m 75.8688,-196.01282 -1.3152,-0.8832 m 5.8272,0 -1.3056,0.8832 m -75.2832,190.30082 0.3168,1.6032 m -7.0176,-2.9088 1.3056,-0.8832 m 82.8672,-190.30082 -0.8832,1.3056 m -76.272,192.78722 -0.3168,1.6032 m 75.2832,-201.09122 1.3056,0.8736 m -6.7008,4.5216 -0.3264,-1.6032 m 5.7216,3.792 -1.6032,0.3168 m -2.9184,-1.2 -0.8736,-1.3056 m -75.2832,190.30082 1.6032,-0.3264 m 2.9088,7.0272 -1.3056,0.8832 m 72.0768,-201.09122 0.8736,-1.3152 m 0,0 1.3152,-0.8736 m 5.3952,2.1888 0.3168,1.6032 m -81.5808,191.57762 1.6032,0.3264 m 34.6176,-360.30722 -0.8928,1.3344 m -5.8176,0 -0.8928,-1.3344 m 6.7104,1.3344 -1.3344,0.8928 m -4.4832,-6.7104 1.3344,-0.8928 m 0,0 1.5744,-0.3072 m 1.5744,0.3072 1.3344,0.8928 m 0,0 0.8928,1.3344 m -7.6032,0 0.8928,-1.3344 m -1.2096,2.9088 0.3168,-1.5744 m 3.8016,-2.5344 1.5744,0.3072 m 0,7.6032 -1.5744,0.3168 m -1.5744,-0.3168 -1.3344,-0.8928 m 7.0272,-2.9088 -0.3168,1.5744 m -3.8016,2.544 -1.5744,-0.3168 m -2.2272,-2.2272 -0.3168,-1.5744 m 7.92,-1.5744 0.3168,1.5744 M 373.80653,395.21413 v -3.024 m 6.2784,-72.00001 v 3.024 m 29.7216,-199.92 v -3.0336 m -11.712,3.0336 h -3.7824 m -32.2176,271.92001 h 11.712 m 18,-130.95361 h -11.7216 m 18.0096,-144 v 3.0336 m -6.288,144 v -3.0336 m 15.6384,75.0336 v -3.0336 m 3.7824,3.0336 h -3.7824 m -49.1328,52.90561 h 3.7824 m 51.6288,-68.97601 h 11.712 m -29.712,16.0704 h -21.9168 m 36,-219.0336 h -11.712 m 15.6288,144 v 3.0336 m -39.9168,124.89601 h 21.9168 m -1.4112,-268.89601 v 52.896 m 3.7824,3.0336 h 11.712 m 0,-0.01 v -3.024 m -2.3616,219.02402 v -3.024 m -11.7216,3.024 h 11.7216 m 6.2784,-127.92002 h -21.9168 m 55.4112,-144 h -3.7728 m -32.2176,268.90562 v -52.90562 m 4.8576,-91.0944 v 3.024 m 45.3504,-55.9392 v -3.0336 m -53.9904,199.93922 h 3.7824 m 20.5056,-215.99042 v 3.024 m -6.2976,85.0368 h -11.712 m 11.712,58.9632 v -3.024 m 24.288,-127.9392 v 3.0336 m -42.2784,140.9664 h -11.7216 m -33.6288,3.0336 h -3.7824 m 106.9152,-144 h -3.792 m -29.7024,-16.0704 h 11.712 m -85.1328,160.0704 v 52.90562 m 85.1328,-268.90562 v -3.0336 m -14.2176,199.9296 v -52.896 m 14.2176,-91.0944 h 3.7728 m -85.1232,216.00002 v 3.024 m 11.712,-55.92962 v -3.0336 m 73.4112,-160.07001 v -52.896 m -55.4112,196.9056 h 21.9168 m 15.504,-52.9056 h -3.792 m -33.6288,55.9296 v -3.024 m 21.9168,0 v 3.024 m -33.6384,-55.9296 h -3.7728 m 21.7824,-91.104 v 3.024 m -36,157.0464 v 3.0336 m 14.2176,-19.104 h 3.7728 m 15.6384,16.0704 v 3.0336 m 36.0096,-216 h -21.9264 m 6.2784,127.9296 h 11.7216 m 0,-58.9632 h -11.7216 m -36,130.9632 h 11.7216 m -15.4944,-55.9296 v 52.896 m 36,-71.9904 h 3.7728 m 33.6384,0 v 3.024 m -54,140.97601 v 3.024 m 29.712,-127.92961 v -3.0336 m -13.1232,-68.9664 v 52.9056 m -18,-72.0096 h 3.7824 m 29.712,72.0096 h 21.9168 m -75.9168,88.0608 h -11.712 m 87.6288,-85.0368 h 11.712 m -36,68.976 h 3.792 m 32.208,-127.9392 h -11.712 m 15.504,55.9392 v -52.9056 m -3.792,52.9056 h 3.792 m -55.4208,-72.0096 h 21.9264 m 11.712,3.024 v -3.024 m -15.6384,19.104 v -3.0336 m 21.9168,3.0336 h -21.9168 m -11.7216,-3.0336 v 3.0336 m 27.36,-75.0336 h -11.712 m 29.7024,130.9632 v -3.024 m -33.6288,3.024 v -3.024 m -11.7216,-52.9056 h -3.7728 m -76.8672,144 v -3.0336 M 268.31213,51.284515 v 52.915205 m 15.4944,-55.939205 h -11.7216 m 63.36,288.000005 h -11.7216 m -39.9168,-88.0608 h 21.9168 m 126.0096,-127.9392 v 3.0336 M 321.22733,51.284515 h -3.7824 m 62.64,212.976005 v 3.0336 m 9.36,-219.033605 h -11.7216 m 0,147.033605 h -21.9168 m -83.7216,55.9296 h 11.7216 m 37.4208,-147.024 V 51.284515 m -3.7824,-3.024 h -11.7216 m 0,202.963205 h 11.7216 m -33.6384,-144 v -3.024 m 37.4208,144 v -52.9056 m -15.504,-147.033605 v 3.024 m 38.3616,-3.024 v 3.024 m -3.7728,196.915205 h 3.7728 m -60.2784,-52.9056 v -3.0336 m -15.4944,-88.0608 h 3.7728 m 11.7216,88.0608 h -11.7216 m 45.36,58.9632 v -3.024 m 38.3616,-144 h 21.9168 m -93.9168,0 h 21.9168 m 83.7216,0 h 3.7824 m -121.1424,3.024 h 11.7216 m 21.9168,85.0368 v 3.0336 m 32.0832,-19.0944 h 21.9168 m -42.2784,-68.976 v -3.024 m -45.36,0 v 3.024 m 0,-58.963205 v 3.024 m 105.6384,196.915205 v 3.024 m 11.7216,-58.9632 h -11.7216 m -18,-16.0608 v 3.024 m -42.2784,13.0368 h -11.7216 m 11.7216,55.9392 h 3.7824 m -3.7824,-196.915205 v -3.024 m -45.36,144.000005 v 3.0336 m 11.7216,55.9296 v -3.024 m 21.9168,-140.976 h 11.7216 m -45.36,140.976 v 3.024 m 67.1424,88.0704 h -3.7824 m -33.6384,0 v -3.0336 m 3.9168,-284.976005 h -21.9168 m 33.6384,52.915205 h 3.7824 m 56.496,0 v 3.024 m 0,144 h 11.7216 m 0,-55.9296 v -3.0336 m -18,-13.0368 v -3.024 m -103.1328,72 h 3.7728 m 117.36,-140.976 v -3.024 m -33.6384,91.0944 v -3.0336 m -32.0832,147.0336 h -21.9168 m 38.5056,-144 v 52.9056 M 272.08493,51.284515 h -3.7728 m 21.7824,284.976005 v 3.0336 m -18.0096,-144 h -3.7728 m 109.4112,-88.0704 h 11.7216 m -83.7216,140.976 v 3.024 m 0,-55.9296 h -21.9168 m -15.4944,0 v 52.9056 m 37.4112,-144 v 3.024 m -3.9168,229.0368 h -11.712 m 103.1328,-140.9664 h -3.7824 M 283.80653,51.284515 v -3.024 m 39.9168,288.000005 v 3.0336 m 20.3616,-147.0336 v 3.0336 m 45.36,-144.009605 v -3.024 m -33.6384,58.963205 v -3.024 m 37.4208,0 V 51.284515 m -49.1424,196.915205 v 3.024 m -189.9168,-128.9568 0.3168,1.5744 m -4.1184,4.1184 -1.5744,-0.3072 m -2.544,-3.8112 0.3168,-1.5744 m 0.8928,-1.3344 1.3344,-0.8928 m 4.4832,6.72 -1.3344,0.8928 m 2.2272,-2.2272 -0.8928,1.3344 m -4.4832,-6.72 1.5744,-0.3072 m -1.5744,7.92 -1.3344,-0.8928 m 7.0272,-2.9184 -0.3168,1.584 m -0.8928,-4.4928 0.8928,1.3344 m -3.8016,-2.5344 1.5744,0.3072 m 0,0 1.3344,0.8928 m -6.7104,1.3344 0.8928,-1.3344 m 4.4832,6.72 -1.5744,0.3072 m -3.8016,-2.5344 -0.3168,-1.584 m 1.2096,2.9184 -0.8928,-1.3344 m 206.88,197.7984 v -3.024 m 0,-52.9056 v -3.0336 m -27.3504,-144 v 3.0336 m -39.7824,268.90561 h 3.7824 m 51.6288,-68.97601 h 11.7216 m 39.7824,-75.024 v -52.9056 m -37.4208,52.9056 h 21.9168 m -36,19.0944 h -21.9168 m 39.9168,-147.0336 v 3.0336 m -18,196.9056 v 3.024 m 11.7216,-58.9632 h -11.7216 m 15.504,3.0336 h -3.7824 m -15.6384,-147.0336 h -11.712 m 33.6288,3.0336 h -21.9168 m -15.4944,0 v 52.9056 m 21.7728,-124.915205 h -3.7728 m -32.2272,271.939205 h 11.7216 m 6.288,-147.024 v 3.024 m 45.3504,-3.024 h 3.7824 m -31.1424,-68.976 h 11.7216 m 15.6384,13.0368 h -11.7216 m -33.6288,58.9632 h 11.712 m 0,-55.9296 v -3.0336 m 37.4208,3.0336 h -3.7824 m -14.2176,196.9056 v -52.9056 m -52.9152,0 v 52.9056 m -22.8672,3.024 v -3.024 m 58.8672,-268.915205 v 52.915205 m -106.5888,3.024 h 11.7216 m 74.3616,160.0704 v -3.0336 m -56.3616,130.96321 v -3.024 m 38.3616,0 h 21.9168 m -15.6384,-72.00001 v 3.024 m -17.9904,16.0704 h -3.7824 m 85.1328,-216 v -3.0336 m -15.6384,-72.000005 h -11.7216 m 0,55.939205 v 3.024 m 45.36,144 v -3.024 M 377.72333,51.284515 h -21.9168 m -69.4944,288.009605 v 52.90561 m 49.1328,0 h 3.7824 m 1.0848,-288.00001 h 3.7728 m 11.7216,-52.915205 v -3.024 m 21.9168,144.000005 v 3.0336 m -33.6384,0 h -3.7728 m -16.5888,196.90561 v 3.024 m -1.4112,-219.02401 h 3.7824 m -36,219.02401 h 11.712 m 33.6384,0 v -3.024 m -27.36,-124.90561 h -3.7728 m 21.7824,-144 h -3.7824 m -32.2176,268.90561 v 3.024 m 33.6288,0 h 11.7216 m 3.7824,-3.024 v -52.90561 m -34.9152,-19.0944 h 3.7728 m 29.7216,-140.976 v -3.024 m 15.6384,144 h 3.7824 m -15.504,-55.9392 v 3.0336 m -21.9168,-3.0336 h -11.7216 m 47.7216,-13.0368 v -3.024 m -36,75.024 v -3.024 m -18,75.02401 v -3.024 m 6.2784,-127.93921 v 3.0336 m 11.7216,52.9056 h 21.9168 m -109.4112,-52.9056 v 52.9056 m -110.7456,198.00002 2.1312,-2.1312 m 139.7472,-123.86881 h 3.7824 m -52.9152,-52.90561 v 52.90561 m -18,-288.00001 h 3.7728 m 99.36,16.0608 h -11.7216 m -36,216 v 3.0336 m -21.9168,55.92961 v -3.024 m 20.5056,-216.00001 h 3.7824 m 15.6288,91.0944 h -21.9168 m 33.6384,-3.0336 h -11.7216 m -3.9168,-144 h -11.712 m 11.712,3.0336 v -3.0336 m -51.4944,271.93921 h 3.7824 m 51.6288,-72.00001 v 3.024 m -15.6288,-199.9296 h -3.7824 m 19.4112,140.9664 v 3.0336 m -18,72 h -21.9168 m -18,-235.0944 h 21.9168 m 18,288.00001 v 3.024 m 2.3712,-219.02401 v 3.024 m -20.3712,-75.024 v 3.024 m 11.7216,0 v -3.024 m -45.36,0 v 3.024 m 36,216 h 11.7216 m -2.3616,-219.024 h 3.7824 m -31.1328,291.02401 h 11.712 m 39.9168,-72.00001 h 11.7216 m 6.2784,-202.9632 v 3.0336 m -57.9168,212.9664 h -11.712 m 33.6288,58.96321 h 11.7216 m 39.7824,-271.92961 h -3.7824 m -45.3504,-3.0336 v 3.0336 m 13.1328,268.90561 v -52.90561 m -67.1424,-232.0704 h 11.7216 m 24.2784,160.0704 h -3.7728 m -14.2176,68.9664 v 3.0336 m 0,52.90561 v 3.024 m 11.712,-55.92961 v -3.0336 m -18,-229.0368 v -3.024 m 55.4208,235.0944 h -3.7824 m -27.36,-19.0944 v 3.024 m 49.1424,-55.9296 h -3.7824 m -33.6384,55.9296 v -3.024 m 0,0 h 21.9168 m -33.6384,-55.9392 v 3.0336 M 196.31213,51.284515 v 52.915205 m -96.393602,388.08002 -8.2848,-8.2848 m 42.336002,-64.23361 1.0272,-2.8416 m 128.448,-80.65921 h -11.7216 m -33.6288,3.0336 h -3.7824 m 49.1328,0 v -3.0336 m 21.7824,-16.0608 v -52.9056 m -3.7824,52.9056 h 3.7824 m 2.496,-196.9056 h -21.9168 m -15.4944,0 v 52.9056 m -20.5056,216.00001 h 21.9168 m -3.9168,-127.93921 h -11.7216 m -3.7728,55.9392 h 3.7728 m 11.7216,-52.9056 v -3.0336 m -160.982402,219.19682 -37.4208,37.4208 M 299.44493,123.29412 v -3.0336 m -18,147.0336 v -3.0336 m -32.2176,-160.0608 V 51.284515 m 126,124.915205 v -52.9056 m -31.1424,127.9296 h 11.7216 m 21.9168,-202.963205 v 3.024 m 15.504,0 h -3.7824 m -29.7216,127.939205 h 11.7216 m 18,68.976 h 3.7824 m -37.4208,-55.9392 h -11.7216 m -114.93475,286.33993 -0.336,1.6128 m -108.99485,5.37529 1.3344,0.8928 m 70.752,-191.21282 -0.3072,-1.5744 m 29.40125,141.03433 -0.3168,-1.584 m -98.63645,54.67129 0.3072,1.5744 m -8.2272,0 0.3168,-1.6032 m 106.55645,-56.23609 0.9024,-1.3536 m 3.0816,52.56 -1.584,-0.3168 m -0.144,-53.1456 1.584,-0.3072 m -25.01405,-135.29353 -0.3168,1.5744 m 0,0 -0.8832,1.3344 m 22.20125,181.99753 0.3168,-1.5936 m -23.86205,-187.11433 1.344,0.8832 m 26.21405,138.21193 1.5936,0.3072 m -106.61405,63.89689 -1.584,0.3072 m 77.472,-203.92322 1.5744,0.3168 m -80.64,195.70562 1.5936,-0.3264 m 73.3632,-191.57762 0.3072,-1.5744 m 0.8928,4.4832 -0.8928,-1.3344 m 33.07805,179.17513 1.5936,0.3072 m 1.3536,0.9024 0.9024,1.3536 m -2.2272,5.424 -1.6224,0.3264 m -29.27645,-184.95433 -1.5744,-0.3072 m 27.76925,138.58633 -0.9024,-1.3536 m -0.3168,-1.584 0.3168,-1.5936 m 6.7872,-1.3536 0.9024,1.3536 m 0,0 0.3168,1.5936 m -106.65245,56.24569 -0.3072,1.5744 m 72.0864,-193.46882 -1.3344,-0.8928 m 1.3344,-6.7104 1.5744,-0.3168 m 2.9184,1.2 0.8832,1.344 m -0.8832,4.4832 -1.344,0.8928 m 24.76445,178.15753 1.3536,-0.9024 m 1.44,-37.4496 -1.584,-0.3168 m -102.10205,55.31449 -1.3344,0.8928 m 102.08285,-62.99449 1.3536,-0.9024 m -30.45725,-138.51913 1.3344,-0.8832 m 29.26685,192.54793 -1.3536,-0.9024 m -106.71965,4.94329 1.3152,-0.8832 m 105.40445,-4.06009 -0.9024,-1.3536 m 7.6896,-3.1776 0.3168,1.5936 m -2.7168,-41.616 -1.5936,0.3168 m 1.7376,37.4496 1.3536,0.9024 m 1.0752,-42.5088 -0.3168,1.584 m -114.24605,53.05849 0.8832,-1.3056 m 2.9088,-1.2096 1.584,0.3168 m 72.0864,-193.46882 0.8928,-1.344 m 36.01565,189.43753 -0.8832,1.3248 m 0,0 -1.3248,0.8928 m -105.45245,4.05049 0.8928,1.3344 m 0,3.1488 -0.8928,1.3344 m 76.128,-194.80322 -1.5744,0.3072 m 25.43645,179.20393 0.9024,-1.3536 m 1.3536,-0.9024 1.584,-0.3072 m 2.8032,-38.3616 -1.3536,0.9024 m 0,-7.6896 1.3536,0.9024 m 0.9024,4.5312 -0.9024,1.3536 m -28.27805,-143.96233 0.3168,1.5744 m 21.31805,186.49033 -0.3168,-1.584 m 2.4288,-41.616 -1.3536,-0.9024 m 195.68035,-355.287135 -0.8928,-1.3344 m -0.3072,-1.5744 0.3072,-1.5744 m 23.3568,291.004805 -0.8928,1.3344 m 0,0 -1.3344,0.8928 M 211.81613,51.284515 v -3.024 m -11.7216,3.024 h -3.7728 m 239.9136,318.566405 -1.5744,-0.3072 m -2.5344,-3.8016 0.3072,-1.5744 m -144.7104,-184.944 h 11.7216 m 122.6304,-97.536005 -1.584,0.3072 m 14.1696,279.945605 1.5744,-0.3168 m -18.6528,-286.646405 1.3344,-0.8928 m 21.1104,290.054405 0.3264,1.6032 m -21.4368,-284.054405 -1.3344,-0.8928 m 7.0272,-2.9088 -0.3072,1.5744 m 9.024,283.372805 1.3344,-0.8928 m 3.1584,7.6032 -1.584,0.3072 m -11.9328,-290.390405 -0.8928,1.3344 m -169.3056,98.428805 h 11.712 m 150.8736,-102.912005 0.8928,-1.3344 m 14.8512,289.190405 0.8928,-1.3344 M 211.81613,48.260515 h -11.7216 m 218.8224,25.824 1.5744,-0.3168 m -302.256,419.731225 -1.5936,-0.3168 m 0,0 -1.3152,-0.8832 m 202.128,-297.00482 v -3.0336 m 103.0368,-110.265605 -1.5744,-0.3072 m 4.4928,-0.8928 -1.3344,0.8928 m -156.2688,97.536005 v -3.024 m 0,0 h 21.9168 M 233.73293,51.284515 h -21.9168 m 87.6288,124.915205 h 3.7824 m 129.2064,191.1168 -0.3072,-1.5744 m -144.3936,-189.5424 v 3.024 m 148.5024,182.4 1.6032,0.3264 M 200.09453,48.260515 v 3.024 m 121.1424,144.009605 h -3.7824 m 106.848,-118.982405 0.3072,1.5744 m -2.5344,-3.8016 1.3344,0.8928 m 14.4288,286.972805 1.3152,0.8832 m 0,0 0.8736,1.3056 m -324.7008,128.16002 -0.8832,-1.3056 m 302.2464,-411.532825 -0.3072,-1.5744 m -116.928,101.337605 v -3.024 m 123.9552,-101.222405 0.8928,1.3344 m 9.024,292.339205 -0.8928,-1.3344 m -317.9904,123.67682 -0.3168,-1.6032 m 320.5344,-119.84642 -1.3344,-0.8928 m -12.8352,-294.883205 1.584,0.3168 m -118.848,102.115205 v -52.9056 m 137.1264,242.448 -0.3072,1.5744 m -305.0496,49.60321 -11.0112,-4.0032 m -39.840002,142.70401 2.6784,2.6784 m 64.204802,-76.0128 18.096,-49.728 m -67.8144,31.6224 3.552,1.296 m 34.944,-70.25281 v -3.024 m -87.724802,131.34721 -2.1408,2.1408 M 233.72333,192.26052 v 3.0336 M 86.824128,558.29894 124.23533,520.87814 m -4.8288,-106.41601 -18.096,49.71841 m 45.1296,19.6512 1.0368,-2.8416 m -19.392,-144.72962 v 3.0336 m 0,52.90561 v 3.024 m 7.344,84.59521 11.0112,4.0128 m -42.6144,-15.5136 11.0112,4.0032 m 0.576,35.4528 -2.1312,2.1408 m -15.504002,-15.4944 2.1408,-2.1408 m 23.030402,-76.52161 -3.5424,-1.296 m 4.5792,-1.5456 -1.0368,2.8416 m 0.7488,100.31041 -8.2848,-8.2944 m -33.408002,49.9872 2.1408,-2.1408 M 124.31213,339.29412 v 52.90561 m 37.4112,3.024 h 11.7216 m -45.36,0 h 11.7216 m -48.172802,88.77121 -2.1408,2.1408 m -31.2672,47.8368 2.1408,-2.1408 m 0,0 15.4944,15.504 m 38.976002,-75.0144 1.0272,-2.832 m -26.371202,16.6464 -2.6688,-2.6784 M 128.08493,339.29412 h -3.7728 m 49.1328,-3.0336 h -11.7216 m -88.003202,213.21602 8.2848,8.2848 m 22.857602,-92.2848 -1.0368,2.8416 m 35.9808,-132.05762 h -11.7216 m 19.392,144.72962 3.552,1.296 m -75.168002,65.0496 -2.1408,2.1408 m -23.7792,-23.7888 8.2848,8.2848 M 177.22733,392.19973 v -52.90561 m -21.6288,85.12322 -1.0272,2.8416 m 14.5536,5.2992 -3.552,-1.2864 m 11.6544,-91.98722 h -3.7824 m 0,55.93921 v -3.024 m 0,0 h 3.7824 m -3.7824,-52.91521 v -3.0336 m -57.5808,133.23842 20.6016,7.4976 m -12.2304,43.8816 -2.6688,-2.6784 m 40.1568,-125.99041 v 3.024 m 0,-288.00001 h 11.7216 m -7.872,324.04802 1.0368,-2.8512 m -42.2976,-36.22081 h 3.7728 m 8.3808,84.78721 -1.0368,2.832 m -86.025602,41.0592 2.6784,2.6688 M 161.72333,339.29412 h -21.9168 m -26.5248,170.62082 -15.504002,-15.4944 M 139.80653,339.29412 v -3.0336 m 72,-144 h -11.7216 m -38.3616,144 v 3.0336 m -7.152,87.96482 -20.6016,-7.49761 m -5.8848,-371.500815 v 3.024 m 99.36,124.915205 h 3.7824 m -15.504,-52.9056 h -21.9168 m 2.5056,72 v 52.9056 M 139.80653,48.260515 h -11.7216 m -3.7728,55.939205 h 3.7728 m 87.6384,16.0608 v 3.0336 m -37.4112,0 v 52.9056 m -38.5056,216.00001 h 21.9168 m -21.9168,-288.00001 h 21.9168 m 4.8864,324.22082 -11.0112,-4.0032 m 71.856,-245.19362 v -3.024 m 0,-55.9392 h -11.7216 m 17.9904,130.9632 h 11.7216 M 124.32173,51.284515 v 52.915205 m 121.1232,-52.915205 v -3.024 m -51.6384,127.939205 h 21.9168 m 29.7216,-127.939205 h -11.7216 m -51.6288,127.939205 v 3.024 m 63.3504,72 v -3.024 M 233.72333,48.260515 v 3.024 m -33.6288,196.915205 v 3.024 m 0,0 h 11.7216 m 0,0 v -3.024 m -29.7216,-127.9392 v 3.0336 m -3.7824,52.9056 h 3.7824 m 63.3504,72 h 3.7824 m -72,-196.915205 h -3.7824 m -45.36,52.915205 v 3.024 m 65.7216,72 v -3.024 m 39.9168,72 v 3.024 m -33.6384,-58.9632 v 3.0336 m -72,-88.0704 h 11.7216 m 37.4208,-3.024 V 51.284515 m 54,72.009605 h -3.7824 m -99.36,-72.009605 h -3.7728 m 124.9152,0 h -3.7824 m -105.6288,55.939205 v -3.024 m 109.4112,144 v -52.9056 m -37.4208,52.9056 h 21.9168 m -60.2784,-144 h 3.7824 m 50.2176,19.0944 v -3.0336 m 3.7824,55.9392 v -52.9056 m -31.1424,72 h -3.7728 m -2.5056,-72 v -3.0336 m 21.9168,55.9392 v 3.024 m -54,-75.024 v 3.024 m 0,-55.939205 h -21.9168 m 72,144.009605 v -3.0336 m -29.712,-68.9664 h -3.7824 m 55.4112,72 h -21.9168 M 173.44493,48.260515 h -11.7216 m 34.5888,199.939205 h 3.7728 m 49.152,-52.9056 h -3.7824 m -51.648,-75.0336 h -11.712 m -20.3616,-72.000005 v 3.024 m 83.712,144.009605 v -3.0336 m -63.3408,-13.0368 h 11.712 m -20.3712,-72 v -3.024 m 0.01,-52.915205 v -3.024 m 71.9904,144.000005 h -11.7216 m -18,-13.0368 h 11.7216 M 139.81651,51.284515 v -3.024 m 1465.28599,24.3936 1.3152,-0.8736 m 4.512,6.7008 -1.3056,0.8832 m -1.6032,0.3168 -1.6032,-0.3168 m -2.5152,-3.792 0.3264,-1.6032 m 7.9008,1.6032 -0.3168,1.6032 m 11.952,290.361605 -1.6032,-0.3168 m -2.5152,-3.792 0.3264,-1.6032 m 0.8736,-1.3152 1.3152,-0.8736 m 0,0 1.6032,-0.3264 m 2.9088,1.2 0.8832,1.3152 m 0,0 0.3168,1.6032 m -0.3168,1.6032 -0.8832,1.3056 m -22.4448,-289.161605 -0.3264,-1.6032 m 22.7712,290.764805 -1.3056,0.8832 m -322.5216,122.76482 -0.8736,-1.3056 m 306.048,-417.225625 1.6032,0.3264 m 2.1888,5.3952 -0.8832,1.3056 m -308.9568,410.198425 -0.3264,-1.6032 m 0,0 0.3264,-1.6032 m 307.6512,-413.692825 1.3056,0.8736 m 0.8832,1.3152 0.3168,1.6032 m 7.8432,289.459205 -0.3264,-1.6032 m -14.544,-284.947205 -0.8736,-1.3056 m 19.536,282.134405 1.6032,0.3264 m -18.9504,-287.856005 1.6032,-0.3264 m 11.952,290.371205 0.8736,-1.3152 m 4.5216,-0.8736 1.3056,0.8736 m 1.2,2.9184 -0.3168,1.6032 m -321.792,126.15362 -1.6032,-0.3168 m 321.2064,-123.64802 -1.6032,0.3168 m -319.6032,123.33122 -1.3152,-0.8832 m -0.8736,-4.512 0.8832,-1.3056 m 303.5616,-404.803225 -1.3152,-0.8832 m 4.5216,0.8832 -1.6032,0.3168 m 14.1408,287.539205 -1.3152,-0.8832 m 0,0 -0.8736,-1.3056 m -9.0432,-292.377605 0.8832,1.3152 m -7.584,0 0.8736,-1.3152 m -295.5456,416.025625 -0.8832,1.3056 m 77.472,-201.52322 0.8832,1.3152 m -79.6608,193.50722 1.3056,0.8832 m 0,0 0.8832,1.3056 m 73.68,-189.98402 -1.6032,-0.3168 m 0,-7.584 1.6032,-0.3264 m -4.1184,4.1184 0.3264,-1.6032 m 3.792,-2.5152 1.6032,0.3264 m 2.5056,3.792 -0.3168,1.6032 m -79.6608,197.88482 -1.6032,0.3168 m 75.8688,-196.01282 -1.3152,-0.8832 m 5.8272,0 -1.3056,0.8832 m -75.2832,190.30082 0.3168,1.6032 m -7.0176,-2.9088 1.3056,-0.8832 m 82.8672,-190.30082 -0.8832,1.3056 m -76.272,192.78722 -0.3168,1.6032 m 75.2832,-201.09122 1.3056,0.8736 m -6.7008,4.5216 -0.3264,-1.6032 m 5.7216,3.792 -1.6032,0.3168 m -2.9184,-1.2 -0.8736,-1.3056 m -75.2832,190.30082 1.6032,-0.3264 m 2.9088,7.0272 -1.3056,0.8832 m 72.0768,-201.09122 0.8736,-1.3152 m 0,0 1.3152,-0.8736 m 5.3952,2.1888 0.3168,1.6032 m -81.5808,191.57762 1.6032,0.3264 m 34.6176,-360.30722 -0.8928,1.3344 m -5.8176,0 -0.8928,-1.3344 m 6.7104,1.3344 -1.3344,0.8928 m -4.4832,-6.7104 1.3344,-0.8928 m 0,0 1.5744,-0.3072 m 1.5744,0.3072 1.3344,0.8928 m 0,0 0.8928,1.3344 m -7.6032,0 0.8928,-1.3344 m -1.2096,2.9088 0.3168,-1.5744 m 3.8016,-2.5344 1.5744,0.3072 m 0,7.6032 -1.5744,0.3168 m -1.5744,-0.3168 -1.3344,-0.8928 m 7.0272,-2.9088 -0.3168,1.5744 m -3.8016,2.544 -1.5744,-0.3168 m -2.2272,-2.2272 -0.3168,-1.5744 m 7.92,-1.5744 0.3168,1.5744 m -173.76,273.81121 v -3.024 m 6.2784,-72.00001 v 3.024 m 29.7216,-199.92 v -3.0336 m -11.712,3.0336 h -3.7824 m -32.2176,271.92001 h 11.712 m 18,-130.95361 h -11.7216 m 18.0096,-144 v 3.0336 m -6.288,144 v -3.0336 m 15.6384,75.0336 v -3.0336 m 3.7824,3.0336 h -3.7824 m -49.1328,52.90561 h 3.7824 m 51.6288,-68.97601 h 11.712 m -29.712,16.0704 h -21.9168 m 36,-219.0336 h -11.712 m 15.6288,144 v 3.0336 m -39.9168,124.89601 h 21.9168 m -1.4112,-268.89601 v 52.896 m 3.7824,3.0336 h 11.712 m 0,-0.01 v -3.024 m -2.3616,219.02402 v -3.024 m -11.7216,3.024 h 11.7216 m 6.2784,-127.92002 h -21.9168 m 55.4112,-144 h -3.7728 m -32.2176,268.90562 v -52.90562 m 4.8576,-91.0944 v 3.024 m 45.3504,-55.9392 v -3.0336 m -53.9904,199.93922 h 3.7824 m 20.5056,-215.99042 v 3.024 m -6.2976,85.0368 h -11.712 m 11.712,58.9632 v -3.024 m 24.288,-127.9392 v 3.0336 m -42.2784,140.9664 h -11.7216 m -33.6288,3.0336 h -3.7824 m 106.9152,-144 h -3.792 m -29.7024,-16.0704 h 11.712 m -85.1328,160.0704 v 52.90562 m 85.1328,-268.90562 v -3.0336 m -14.2176,199.9296 v -52.896 m 14.2176,-91.0944 h 3.7728 m -85.1232,216.00002 v 3.024 m 11.712,-55.92962 v -3.0336 m 73.4112,-160.07001 v -52.896 m -55.4112,196.9056 h 21.9168 m 15.504,-52.9056 h -3.792 m -33.6288,55.9296 v -3.024 m 21.9168,0 v 3.024 m -33.6384,-55.9296 h -3.7728 m 21.7824,-91.104 v 3.024 m -36,157.0464 v 3.0336 m 14.2176,-19.104 h 3.7728 m 15.6384,16.0704 v 3.0336 m 36.0096,-216 h -21.9264 m 6.2784,127.9296 h 11.7216 m 0,-58.9632 h -11.7216 m -36,130.9632 h 11.7216 m -15.4944,-55.9296 v 52.896 m 36,-71.9904 h 3.7728 m 33.6384,0 v 3.024 m -54,140.97601 v 3.024 m 29.712,-127.92961 v -3.0336 m -13.1232,-68.9664 v 52.9056 m -18,-72.0096 h 3.7824 m 29.712,72.0096 h 21.9168 m -75.9168,88.0608 h -11.712 m 87.6288,-85.0368 h 11.712 m -36,68.976 h 3.792 m 32.208,-127.9392 h -11.712 m 15.504,55.9392 v -52.9056 m -3.792,52.9056 h 3.792 m -55.4208,-72.0096 h 21.9264 m 11.712,3.024 v -3.024 m -15.6384,19.104 v -3.0336 m 21.9168,3.0336 h -21.9168 m -11.7216,-3.0336 v 3.0336 m 27.36,-75.0336 h -11.712 m 29.7024,130.9632 v -3.024 m -33.6288,3.024 v -3.024 m -11.7216,-52.9056 h -3.7728 m -76.8672,144 v -3.0336 M 1063.0481,51.284515 v 52.915205 m 15.4944,-55.939205 h -11.7216 m 63.36,288.000005 h -11.7216 m -39.9168,-88.0608 h 21.9168 m 126.0096,-127.9392 v 3.0336 M 1115.9633,51.284515 h -3.7824 m 62.64,212.976005 v 3.0336 m 9.36,-219.033605 h -11.7216 m 0,147.033605 h -21.9168 m -83.7216,55.9296 h 11.7216 m 37.4208,-147.024 V 51.284515 m -3.7824,-3.024 h -11.7216 m 0,202.963205 h 11.7216 m -33.6384,-144 v -3.024 m 37.4208,144 v -52.9056 m -15.504,-147.033605 v 3.024 m 38.3616,-3.024 v 3.024 m -3.7728,196.915205 h 3.7728 m -60.2784,-52.9056 v -3.0336 m -15.4944,-88.0608 h 3.7728 m 11.7216,88.0608 h -11.7216 m 45.36,58.9632 v -3.024 m 38.3616,-144 h 21.9168 m -93.9168,0 h 21.9168 m 83.7216,0 h 3.7824 m -121.1424,3.024 h 11.7216 m 21.9168,85.0368 v 3.0336 m 32.0832,-19.0944 h 21.9168 m -42.2784,-68.976 v -3.024 m -45.36,0 v 3.024 m 0,-58.963205 v 3.024 m 105.6384,196.915205 v 3.024 m 11.7216,-58.9632 h -11.7216 m -18,-16.0608 v 3.024 m -42.2784,13.0368 h -11.7216 m 11.7216,55.9392 h 3.7824 m -3.7824,-196.915205 v -3.024 m -45.36,144.000005 v 3.0336 m 11.7216,55.9296 v -3.024 m 21.9168,-140.976 h 11.7216 m -45.36,140.976 v 3.024 m 67.1424,88.0704 h -3.7824 m -33.6384,0 v -3.0336 m 3.9168,-284.976005 h -21.9168 m 33.6384,52.915205 h 3.7824 m 56.496,0 v 3.024 m 0,144 h 11.7216 m 0,-55.9296 v -3.0336 m -18,-13.0368 v -3.024 m -103.1328,72 h 3.7728 m 117.36,-140.976 v -3.024 m -33.6384,91.0944 v -3.0336 m -32.0832,147.0336 h -21.9168 m 38.5056,-144 v 52.9056 M 1066.8209,51.284515 h -3.7728 m 21.7824,284.976005 v 3.0336 m -18.0096,-144 h -3.7728 m 109.4112,-88.0704 h 11.7216 m -83.7216,140.976 v 3.024 m 0,-55.9296 h -21.9168 m -15.4944,0 v 52.9056 m 37.4112,-144 v 3.024 m -3.9168,229.0368 h -11.712 m 103.1328,-140.9664 h -3.7824 M 1078.5425,51.284515 v -3.024 m 39.9168,288.000005 v 3.0336 m 20.3616,-147.0336 v 3.0336 m 45.36,-144.009605 v -3.024 m -33.6384,58.963205 v -3.024 m 37.4208,0 V 51.284515 m -49.1424,196.915205 v 3.024 m -189.91683,-128.9568 0.3168,1.5744 m -4.1184,4.1184 -1.5744,-0.3072 m -2.544,-3.8112 0.3168,-1.5744 m 0.8928,-1.3344 1.3344,-0.8928 m 4.4832,6.72 -1.3344,0.8928 m 2.2272,-2.2272 -0.8928,1.3344 m -4.4832,-6.72 1.5744,-0.3072 m -1.5744,7.92 -1.3344,-0.8928 m 7.0272,-2.9184 -0.3168,1.584 m -0.8928,-4.4928 0.8928,1.3344 m -3.8016,-2.5344 1.5744,0.3072 m 0,0 1.3344,0.8928 m -6.7104,1.3344 0.8928,-1.3344 m 4.4832,6.72 -1.5744,0.3072 m -3.8016,-2.5344 -0.3168,-1.584 m 1.2096,2.9184 -0.8928,-1.3344 m 206.88003,197.7984 v -3.024 m 0,-52.9056 v -3.0336 m -27.3504,-144 v 3.0336 m -39.7824,268.90561 h 3.7824 m 51.6288,-68.97601 h 11.7216 m 39.7824,-75.024 v -52.9056 m -37.4208,52.9056 h 21.9168 m -36,19.0944 h -21.9168 m 39.9168,-147.0336 v 3.0336 m -18,196.9056 v 3.024 m 11.7216,-58.9632 h -11.7216 m 15.504,3.0336 h -3.7824 m -15.6384,-147.0336 h -11.712 m 33.6288,3.0336 h -21.9168 m -15.4944,0 v 52.9056 m 21.7728,-124.915205 h -3.7728 m -32.2272,271.939205 h 11.7216 m 6.288,-147.024 v 3.024 m 45.3504,-3.024 h 3.7824 m -31.1424,-68.976 h 11.7216 m 15.6384,13.0368 h -11.7216 m -33.6288,58.9632 h 11.712 m 0,-55.9296 v -3.0336 m 37.4208,3.0336 h -3.7824 m -14.2176,196.9056 v -52.9056 m -52.9152,0 v 52.9056 m -22.8672,3.024 v -3.024 m 58.8672,-268.915205 v 52.915205 m -106.5888,3.024 h 11.7216 m 74.3616,160.0704 v -3.0336 m -56.3616,130.96321 v -3.024 m 38.3616,0 h 21.9168 m -15.6384,-72.00001 v 3.024 m -17.9904,16.0704 h -3.7824 m 85.1328,-216 v -3.0336 m -15.6384,-72.000005 h -11.7216 m 0,55.939205 v 3.024 m 45.36,144 v -3.024 M 1172.4593,51.284515 h -21.9168 m -69.4944,288.009605 v 52.90561 m 49.1328,0 h 3.7824 m 1.0848,-288.00001 h 3.7728 m 11.7216,-52.915205 v -3.024 m 21.9168,144.000005 v 3.0336 m -33.6384,0 h -3.7728 m -16.5888,196.90561 v 3.024 m -1.4112,-219.02401 h 3.7824 m -36,219.02401 h 11.712 m 33.6384,0 v -3.024 m -27.36,-124.90561 h -3.7728 m 21.7824,-144 h -3.7824 m -32.2176,268.90561 v 3.024 m 33.6288,0 h 11.7216 m 3.7824,-3.024 v -52.90561 m -34.9152,-19.0944 h 3.7728 m 29.7216,-140.976 v -3.024 m 15.6384,144 h 3.7824 m -15.504,-55.9392 v 3.0336 m -21.9168,-3.0336 h -11.7216 m 47.7216,-13.0368 v -3.024 m -36,75.024 v -3.024 m -18,75.02401 v -3.024 m 6.2784,-127.93921 v 3.0336 m 11.7216,52.9056 h 21.9168 m -109.4112,-52.9056 v 52.9056 m -110.74563,198.00002 2.1312,-2.1312 M 1058.1809,392.19973 h 3.7824 m -52.9152,-52.90561 v 52.90561 M 991.04807,104.19972 h 3.7728 m 99.36003,16.0608 h -11.7216 m -36,216 v 3.0336 m -21.9168,55.92961 v -3.024 m 20.5056,-216.00001 h 3.7824 m 15.6288,91.0944 h -21.9168 m 33.6384,-3.0336 h -11.7216 m -3.9168,-144 h -11.712 m 11.712,3.0336 v -3.0336 m -51.4944,271.93921 h 3.7824 m 51.6288,-72.00001 v 3.024 m -15.6288,-199.9296 h -3.7824 m 19.4112,140.9664 v 3.0336 m -18,72 h -21.9168 m -18,-235.0944 h 21.9168 m 18,288.00001 v 3.024 m 2.3712,-219.02401 v 3.024 m -20.3712,-75.024 v 3.024 m 11.7216,0 v -3.024 m -45.36003,0 v 3.024 m 36.00003,216 h 11.7216 m -2.3616,-219.024 h 3.7824 m -31.1328,291.02401 h 11.712 m 39.9168,-72.00001 h 11.7216 m 6.2784,-202.9632 v 3.0336 m -57.9168,212.9664 h -11.712 m 33.6288,58.96321 h 11.7216 m 39.7824,-271.92961 h -3.7824 m -45.3504,-3.0336 v 3.0336 m 13.1328,268.90561 v -52.90561 m -67.14243,-232.0704 h 11.72163 m 24.2784,160.0704 h -3.7728 m -14.2176,68.9664 v 3.0336 m 0,52.90561 v 3.024 m 11.712,-55.92961 v -3.0336 m -18,-229.0368 v -3.024 m 55.4208,235.0944 h -3.7824 m -27.36,-19.0944 v 3.024 m 49.1424,-55.9296 h -3.7824 m -33.6384,55.9296 v -3.024 m 0,0 h 21.9168 m -33.6384,-55.9392 v 3.0336 M 991.04807,51.284515 v 52.915205 m -96.3936,388.08002 -8.2848,-8.2848 m 42.336,-64.23361 1.0272,-2.8416 m 128.44803,-80.65921 h -11.7216 m -33.6288,3.0336 h -3.7824 m 49.1328,0 v -3.0336 m 21.7824,-16.0608 v -52.9056 m -3.7824,52.9056 h 3.7824 m 2.496,-196.9056 h -21.9168 m -15.4944,0 v 52.9056 m -20.5056,216.00001 h 21.9168 m -3.9168,-127.93921 h -11.7216 m -3.7728,55.9392 h 3.7728 m 11.7216,-52.9056 v -3.0336 m -160.98243,219.19682 -37.4208,37.4208 M 1094.1809,123.29412 v -3.0336 m -18,147.0336 v -3.0336 m -32.2176,-160.0608 V 51.284515 m 126,124.915205 v -52.9056 m -31.1424,127.9296 h 11.7216 m 21.9168,-202.963205 v 3.024 m 15.504,0 h -3.7824 m -29.7216,127.939205 h 11.7216 m 18,68.976 h 3.7824 m -37.4208,-55.9392 h -11.7216 m -114.9348,286.33993 -0.336,1.6128 m -108.99483,5.37529 1.3344,0.8928 m 70.752,-191.21282 -0.3072,-1.5744 m 29.40123,141.03433 -0.3168,-1.584 m -98.63643,54.67129 0.3072,1.5744 m -8.2272,0 0.3168,-1.6032 m 106.55643,-56.23609 0.9024,-1.3536 m 3.0816,52.56 -1.584,-0.3168 m -0.144,-53.1456 1.584,-0.3072 m -25.01403,-135.29353 -0.3168,1.5744 m 0,0 -0.8832,1.3344 m 22.20123,181.99753 0.3168,-1.5936 m -23.86203,-187.11433 1.344,0.8832 m 26.21403,138.21193 1.5936,0.3072 m -106.61403,63.89689 -1.584,0.3072 m 77.472,-203.92322 1.5744,0.3168 m -80.64,195.70562 1.5936,-0.3264 m 73.3632,-191.57762 0.3072,-1.5744 m 0.8928,4.4832 -0.8928,-1.3344 m 33.07803,179.17513 1.5936,0.3072 m 1.3536,0.9024 0.9024,1.3536 m -2.2272,5.424 -1.6224,0.3264 m -29.27643,-184.95433 -1.5744,-0.3072 m 27.76923,138.58633 -0.9024,-1.3536 m -0.3168,-1.584 0.3168,-1.5936 m 6.7872,-1.3536 0.9024,1.3536 m 0,0 0.3168,1.5936 m -106.65243,56.24569 -0.3072,1.5744 m 72.0864,-193.46882 -1.3344,-0.8928 m 1.3344,-6.7104 1.5744,-0.3168 m 2.9184,1.2 0.8832,1.344 m -0.8832,4.4832 -1.344,0.8928 m 24.76443,178.15753 1.3536,-0.9024 m 1.44,-37.4496 -1.584,-0.3168 m -102.10203,55.31449 -1.3344,0.8928 m 102.08283,-62.99449 1.3536,-0.9024 m -30.45723,-138.51913 1.3344,-0.8832 m 29.26683,192.54793 -1.3536,-0.9024 m -106.71963,4.94329 1.3152,-0.8832 m 105.40443,-4.06009 -0.9024,-1.3536 m 7.6896,-3.1776 0.3168,1.5936 m -2.7168,-41.616 -1.5936,0.3168 m 1.7376,37.4496 1.3536,0.9024 m 1.0752,-42.5088 -0.3168,1.584 m -114.24603,53.05849 0.8832,-1.3056 m 2.9088,-1.2096 1.584,0.3168 m 72.0864,-193.46882 0.8928,-1.344 m 36.01563,189.43753 -0.8832,1.3248 m 0,0 -1.3248,0.8928 m -105.45243,4.05049 0.8928,1.3344 m 0,3.1488 -0.8928,1.3344 m 76.128,-194.80322 -1.5744,0.3072 m 25.43643,179.20393 0.9024,-1.3536 m 1.3536,-0.9024 1.584,-0.3072 m 2.8032,-38.3616 -1.3536,0.9024 m 0,-7.6896 1.3536,0.9024 m 0.9024,4.5312 -0.9024,1.3536 m -28.27803,-143.96233 0.3168,1.5744 m 21.31803,186.49033 -0.3168,-1.584 m 2.4288,-41.616 -1.3536,-0.9024 m 195.6804,-355.287135 -0.8928,-1.3344 m -0.3072,-1.5744 0.3072,-1.5744 m 23.3568,291.004805 -0.8928,1.3344 m 0,0 -1.3344,0.8928 M 1006.5521,51.284515 v -3.024 m -11.72163,3.024 h -3.7728 m 239.91363,318.566405 -1.5744,-0.3072 m -2.5344,-3.8016 0.3072,-1.5744 m -144.7104,-184.944 h 11.7216 m 122.6304,-97.536005 -1.584,0.3072 m 14.1696,279.945605 1.5744,-0.3168 m -18.6528,-286.646405 1.3344,-0.8928 m 21.1104,290.054405 0.3264,1.6032 m -21.4368,-284.054405 -1.3344,-0.8928 m 7.0272,-2.9088 -0.3072,1.5744 m 9.024,283.372805 1.3344,-0.8928 m 3.1584,7.6032 -1.584,0.3072 m -11.9328,-290.390405 -0.8928,1.3344 m -169.3056,98.428805 h 11.712 m 150.8736,-102.912005 0.8928,-1.3344 m 14.8512,289.190405 0.8928,-1.3344 M 1006.5521,48.260515 h -11.72163 m 218.82243,25.824 1.5744,-0.3168 m -302.25603,419.731225 -1.5936,-0.3168 m 0,0 -1.3152,-0.8832 M 1112.1905,195.29412 v -3.0336 m 103.0368,-110.265605 -1.5744,-0.3072 m 4.4928,-0.8928 -1.3344,0.8928 m -156.2688,97.536005 v -3.024 m 0,0 h 21.9168 M 1028.4689,51.284515 h -21.9168 m 87.6288,124.915205 h 3.7824 m 129.2064,191.1168 -0.3072,-1.5744 m -144.3936,-189.5424 v 3.024 m 148.5024,182.4 1.6032,0.3264 M 994.83047,48.260515 v 3.024 M 1115.9729,195.29412 h -3.7824 m 106.848,-118.982405 0.3072,1.5744 m -2.5344,-3.8016 1.3344,0.8928 m 14.4288,286.972805 1.3152,0.8832 m 0,0 0.8736,1.3056 m -324.70083,128.16002 -0.8832,-1.3056 m 302.24643,-411.532825 -0.3072,-1.5744 m -116.928,101.337605 v -3.024 m 123.9552,-101.222405 0.8928,1.3344 m 9.024,292.339205 -0.8928,-1.3344 m -317.99043,123.67682 -0.3168,-1.6032 m 320.53443,-119.84642 -1.3344,-0.8928 m -12.8352,-294.883205 1.584,0.3168 m -118.848,102.115205 v -52.9056 m 137.1264,242.448 -0.3072,1.5744 m -305.04963,49.60321 -11.0112,-4.0032 m -39.84,142.70401 2.6784,2.6784 m 64.2048,-76.0128 18.096,-49.728 m -67.8144,31.6224 3.552,1.296 m 34.944,-70.25281 v -3.024 m -87.7248,131.34721 -2.1408,2.1408 M 1028.4593,192.26052 v 3.0336 m -146.89923,363.00482 37.4112,-37.4208 m -4.8288,-106.41601 -18.096,49.71841 m 45.1296,19.6512 1.0368,-2.8416 m -19.392,-144.72962 v 3.0336 m 0,52.90561 v 3.024 m 7.344,84.59521 11.0112,4.0128 m -42.6144,-15.5136 11.0112,4.0032 m 0.576,35.4528 -2.1312,2.1408 m -15.504,-15.4944 2.1408,-2.1408 m 23.0304,-76.52161 -3.5424,-1.296 m 4.5792,-1.5456 -1.0368,2.8416 m 0.7488,100.31041 -8.2848,-8.2944 m -33.408,49.9872 2.1408,-2.1408 m 40.1664,-216.32642 v 52.90561 m 37.4112,3.024 h 11.7216 m -45.36,0 h 11.7216 m -48.1728,88.77121 -2.1408,2.1408 m -31.2672,47.8368 2.1408,-2.1408 m 0,0 15.4944,15.504 m 38.976,-75.0144 1.0272,-2.832 m -26.3712,16.6464 -2.6688,-2.6784 m 41.2608,-144.16322 h -3.7728 m 49.1328,-3.0336 h -11.7216 m -88.0032,213.21602 8.2848,8.2848 m 22.8576,-92.2848 -1.0368,2.8416 m 35.9808,-132.05762 h -11.7216 m 19.392,144.72962 3.552,1.296 m -75.168,65.0496 -2.1408,2.1408 m -23.7792,-23.7888 8.2848,8.2848 m 119.0016,-141.77281 v -52.90561 m -21.6288,85.12322 -1.0272,2.8416 m 14.5536,5.2992 -3.552,-1.2864 m 11.6544,-91.98722 h -3.7824 m 0,55.93921 v -3.024 m 0,0 h 3.7824 m -3.7824,-52.91521 v -3.0336 m -57.5808,133.23842 20.6016,7.4976 m -12.2304,43.8816 -2.6688,-2.6784 m 40.1568,-125.99041 v 3.024 m 0,-288.00001 h 11.7216 m -7.872,324.04802 1.0368,-2.8512 m -42.2976,-36.22081 h 3.7728 m 8.3808,84.78721 -1.0368,2.832 m -86.0256,41.0592 2.6784,2.6688 m 109.6416,-184.25282 h -21.9168 m -26.5248,170.62082 -15.504,-15.4944 m 42.0288,-155.12642 v -3.0336 m 72.00003,-144 h -11.72163 m -38.3616,144 v 3.0336 m -7.152,87.96482 -20.6016,-7.49761 m -5.8848,-371.500815 v 3.024 m 99.36003,124.915205 h 3.7824 m -15.504,-52.9056 h -21.91683 m 2.5056,72 v 52.9056 M 934.54247,48.260515 h -11.7216 m -3.7728,55.939205 h 3.7728 m 87.63843,16.0608 v 3.0336 m -37.41123,0 v 52.9056 m -38.5056,216.00001 h 21.9168 m -21.9168,-288.00001 h 21.9168 m 4.8864,324.22082 -11.0112,-4.0032 m 71.85603,-245.19362 v -3.024 m 0,-55.9392 h -11.7216 m 17.9904,130.9632 h 11.7216 M 919.05767,51.284515 V 104.19972 M 1040.1809,51.284515 v -3.024 M 988.54247,176.19972 h 21.91683 m 29.7216,-127.939205 h -11.7216 M 976.83047,176.19972 v 3.024 m 63.35043,72 v -3.024 M 1028.4593,48.260515 v 3.024 M 994.83047,248.19972 v 3.024 m 0,0 h 11.72163 m 0,0 v -3.024 m -29.72163,-127.9392 v 3.0336 m -3.7824,52.9056 h 3.7824 m 63.35043,72 h 3.7824 M 971.96327,51.284515 h -3.7824 m -45.36,52.915205 v 3.024 m 65.7216,72 v -3.024 m 39.91683,72 v 3.024 m -33.63843,-58.9632 v 3.0336 m -72,-88.0704 h 11.7216 m 37.4208,-3.024 V 51.284515 m 54.00003,72.009605 h -3.7824 M 922.82087,51.284515 h -3.7728 m 124.91523,0 h -3.7824 M 934.55207,107.22372 v -3.024 m 109.41123,144 v -52.9056 m -37.4208,52.9056 h 21.9168 m -60.27843,-144 h 3.7824 m 50.21763,19.0944 v -3.0336 m 3.7824,55.9392 v -52.9056 m -31.14243,72 h -3.7728 m -2.5056,-72 v -3.0336 m 21.91683,55.9392 v 3.024 m -54.00003,-75.024 v 3.024 m 0,-55.939205 h -21.9168 m 72.00003,144.009605 v -3.0336 m -29.71203,-68.9664 h -3.7824 m 55.41123,72 h -21.9168 M 968.18087,48.260515 h -11.7216 m 34.5888,199.939205 h 3.7728 m 49.15203,-52.9056 h -3.7824 m -51.64803,-75.0336 h -11.712 m -20.3616,-72.000005 v 3.024 m 83.71203,144.009605 v -3.0336 m -63.34083,-13.0368 h 11.712 m -20.3712,-72 v -3.024 m 0.01,-52.915205 v -3.024 m 71.99043,144.000005 h -11.7216 m -18,-13.0368 h 11.7216 M 934.55246,51.284515 v -3.024 m 535.73074,607.364435 0.336,-1.6128 m 7.8144,45.4848 0.3168,1.584 m -0.3168,1.5936 -0.9024,1.3536 m -3.0816,-52.56 1.584,0.3168 m 0.144,53.1456 -1.584,0.3072 m 4.0128,-49.6128 -0.3168,1.5936 m -3.696,48.0192 -1.5936,-0.3072 m 1.4496,-45.1488 -1.5936,-0.3072 m -1.3536,-0.9024 -0.9024,-1.3536 m 2.2272,-5.424 1.6224,-0.3264 m 3.0816,46.6752 0.9024,1.3536 m 0.3168,1.584 -0.3168,1.5936 m -6.7872,1.3536 -0.9024,-1.3536 m 0,0 -0.3168,-1.5936 m 6.96,-42.5088 -1.3536,0.9024 m -1.44,37.4496 1.584,0.3168 m 1.3536,6.7872 -1.3536,0.9024 m -0.144,-53.1456 1.3536,0.9024 m 0,0 0.9024,1.3536 m -7.6896,3.1776 -0.3168,-1.5936 m 2.7168,41.616 1.5936,-0.3168 m -1.7376,-37.4496 -1.3536,-0.9024 m -1.0752,42.5088 0.3168,-1.584 m -0.1248,-45.4848 0.8832,-1.3248 m 0,0 1.3248,-0.8928 m 5.4624,5.424 -0.9024,1.3536 m -1.3536,0.9024 -1.584,0.3072 m -2.8032,38.3616 1.3536,-0.9024 m 0,7.6896 -1.3536,-0.9024 m -0.9024,-4.5312 0.9024,-1.3536 m 6.6432,-44.1024 0.3168,1.584 m -2.4288,41.616 1.3536,0.9024 M 94.667309,1060.7407 l -1.3152,0.8832 m -4.512,-6.7008 1.3056,-0.8832 m 1.6032,-0.3168 1.6032,0.3168 m 2.5152,3.792 -0.3264,1.6032 m -7.9008,-1.6032 0.3168,-1.6032 m -11.952,-290.36155 1.6032,0.3168 m 2.5152,3.792 -0.3264,1.6032 m -0.8736,1.3152 -1.3152,0.8736 m 0,0 -1.6032,0.3264 m -2.9088,-1.2 -0.8832,-1.3152 m 0,0 -0.3168,-1.6032 m 0.3168,-1.6032 0.8832,-1.3056 m 22.4448,289.16155 0.3264,1.6032 m -22.7712,-290.76475 1.3056,-0.8832 m 322.521591,-122.7648 0.8736,1.3056 m -306.047991,417.22555 -1.6032,-0.3264 m -2.1888,-5.3952 0.8832,-1.3056 M 397.7969,644.72475 l 0.3264,1.6032 m 0,0 -0.3264,1.6032 m -307.651191,413.69275 -1.3056,-0.8736 m -0.8832,-1.3152 -0.3168,-1.6032 m -7.8432,-289.45915 0.3264,1.6032 m 14.544,284.94715 0.8736,1.3056 m -19.536,-282.13435 -1.6032,-0.3264 m 18.9504,287.85595 -1.6032,0.3264 m -11.952,-290.37115 -0.8736,1.3152 m -4.5216,0.8736 -1.3056,-0.8736 m -1.2,-2.9184 0.3168,-1.6032 m 321.791991,-126.1536 1.6032,0.3168 m -321.206391,123.648 1.6032,-0.3168 m 319.603191,-123.3312 1.3152,0.8832 m 0.8736,4.512 -0.8832,1.3056 m -303.561591,404.80315 1.3152,0.8832 m -4.5216,-0.8832 1.6032,-0.3168 m -14.1408,-287.53915 1.3152,0.8832 m 0,0 0.8736,1.3056 m 9.0432,292.37755 -0.8832,-1.3152 m 7.584,0 -0.8736,1.3056 M 390.2129,644.72475 l 0.8832,-1.3056 m -77.472,201.5136 -0.8832,-1.3056 m 79.6608,-193.5072 -1.3056,-0.8832 m 0,0 -0.8832,-1.3056 m -73.68,189.984 1.6032,0.3168 m 0,7.584 -1.6032,0.3264 m 4.1184,-4.1184 -0.3264,1.6032 m -3.792,2.5152 -1.6032,-0.3264 m -2.5056,-3.792 0.3168,-1.6032 m 79.6608,-197.8848 1.6032,-0.3168 m -75.8688,196.0128 1.3152,0.8832 m -5.8272,0 1.3056,-0.8832 m 75.2832,-190.3008 -0.3168,-1.6032 m 7.0176,2.9088 -1.3056,0.8832 m -82.8672,190.3008 0.8832,-1.3056 m 76.272,-192.7872 0.3168,-1.6032 m -75.2832,201.0912 -1.3056,-0.8832 m 6.7008,-4.512 0.3264,1.6032 m -5.7216,-3.792 1.6032,-0.3168 m 2.9184,1.2 0.8736,1.3056 m 75.2832,-190.3008 -1.6032,0.3264 m -2.9088,-7.0272 1.3056,-0.8832 m -72.0768,201.0912 -0.8736,1.3152 m 0,0 -1.3152,0.8736 m -5.3952,-2.1888 -0.3168,-1.6032 m 81.5808,-191.5776 -1.6032,-0.3264 m -34.6176,360.30715 0.8928,-1.3344 m 5.8176,0 0.8928,1.3344 m -6.7104,-1.3344 1.3344,-0.8928 m 4.4832,6.7104 -1.3344,0.8928 m 0,0 -1.5744,0.3072 m -1.5744,-0.3072 -1.3344,-0.8928 m 0,0 -0.8928,-1.3344 m 7.6032,0 -0.8928,1.3344 m 1.2096,-2.9088 -0.3168,1.5744 m -3.8016,2.5344 -1.5744,-0.3072 m 0,-7.6032 1.5744,-0.3168 m 1.5744,0.3168 1.3344,0.8928 m -7.0272,2.9088 0.3168,-1.5744 m 3.8016,-2.544 1.5744,0.3168 m 2.2272,2.2272 0.3168,1.5744 m -7.92,1.5744 -0.3168,-1.5744 M 531.03531,739.52475 v 3.024 m -6.2784,72 v -3.024 m -29.7216,199.92955 v 3.0336 m 11.712,-3.0336 h 3.7824 m 32.2176,-271.92955 h -11.712 m -18,130.9632 h 11.7216 m -18.0096,143.99995 v -3.0336 m 6.288,-143.99995 v 3.0336 m -15.6384,-75.0336 v 3.0336 m -3.7824,-3.0336 h 3.7824 m 49.1328,-52.9056 h -3.7824 m -51.6288,68.976 h -11.712 m 29.712,-16.0704 h 21.9168 m -36,219.03355 h 11.712 m -15.6288,-143.99995 v -3.0336 m 39.9168,-124.9056 h -21.9168 m 1.4112,268.90555 v -52.90555 m -3.7824,-3.024 h -11.712 m 0,0 v 3.024 m 2.3616,-219.024 v 3.024 m 11.7216,-3.024 h -11.7216 m -6.2784,127.9296 h 21.9168 m -55.4112,143.99995 h 3.7728 m 32.2176,-268.90555 v 52.9056 m -4.8576,91.0944 v -3.024 m -45.3504,55.9296 v 3.0336 m 53.9904,-199.9392 h -3.7824 m -20.5056,216 v -3.024 m 6.2976,-85.0368 h 11.712 m -11.712,-58.9632 v 3.024 m -24.288,127.9392 v -3.0336 m 42.2784,-140.9664 h 11.7216 m 33.6288,-3.0336 h 3.7824 m -106.9152,144 h 3.792 m 29.7024,16.0704 h -11.712 m 85.1328,-160.0704 v -52.9056 m -85.1328,268.90555 v 3.0336 m 14.2176,-199.93915 v 52.9056 m -14.2176,91.0944 h -3.7728 m 85.1232,-216 v -3.024 m -11.712,55.9296 v 3.0336 m -73.4112,160.0608 v 52.90555 m 55.4112,-196.90555 h -21.9168 m -15.504,52.9056 h 3.792 m 33.6288,-55.9296 v 3.024 m -21.9168,0 v -3.024 m 33.6384,55.9296 h 3.7728 m -21.7824,91.0944 v -3.024 m 36,-157.0368 v -3.0336 m -14.2176,19.0944 h -3.7728 m -15.6384,-16.0608 v -3.0336 m -36.0096,215.99995 h 21.9264 m -6.2784,-127.92955 h -11.7216 m 0,58.9632 h 11.7216 m 36,-130.9632 h -11.7216 m 15.4944,55.9296 v -52.896 m -36,71.9904 h -3.7728 m -33.6384,0 v -3.024 m 54,-140.976 v -3.024 m -29.712,127.9296 v 3.0336 m 13.1232,68.9664 v -52.9056 m 18,72 h -3.7824 m -29.712,-72 h -21.9168 m 75.9168,-88.0608 h 11.712 m -87.6288,85.0368 h -11.712 m 36,-68.976 h -3.792 m -32.208,127.9392 h 11.712 m -15.504,-55.9392 v 52.9056 m 3.792,-52.9056 h -3.792 m 55.4208,72 h -21.9264 m -11.712,-3.024 v 3.024 m 15.6384,-19.0944 v 3.0336 m -21.9168,-3.0336 h 21.9168 m 11.7216,3.0336 v -3.0336 m -27.36,75.03355 h 11.712 m -29.7024,-130.96315 v 3.024 m 33.6288,-3.024 v 3.024 m 11.7216,52.9056 h 3.7728 m 76.8672,-144 v 3.0336 m 67.1328,284.97595 v -52.9152 m -15.4944,55.9392 h 11.7216 m -49.1424,-3.024 h 3.7824 m -72,3.024 h 11.7216 m 56.496,-55.9392 v 52.9152 m 3.7824,3.024 h 11.7216 m 21.9168,-58.9632 v 3.024 m -21.9168,55.9392 v -3.024 m -38.3616,3.024 v -3.024 m 75.7728,-52.9152 h -3.7728 m -83.7216,0 h -21.9168 m 93.9168,0 h -21.9168 m -83.7216,0 h -3.7824 m 121.1424,-3.024 h -11.7216 m -33.6384,0 v 3.024 m 45.36,0 v -3.024 m 0,58.9632 v -3.024 m -45.36,0 v 3.024 m 11.7216,-58.9632 h -11.7216 m 11.7216,55.9392 h 21.9168 m -33.6384,-52.9152 h -3.7824 m -56.496,0 v -3.024 m -11.7216,0 v 3.024 m 117.36,52.9152 h 3.7728 m -109.4112,-55.9392 h -11.7216 m 83.7216,3.024 v -3.024 m 21.9168,55.9392 v 3.024 m -105.6384,-3.024 v 3.024 m 33.6384,-58.9632 v 3.024 m -37.4208,0 v 52.9152 m 49.1424,0 h 3.7728 m -3.7728,-55.9392 h -11.7216 m 15.4944,55.9392 v -52.9152 m 106.5888,-3.024 h -11.7216 m -110.3616,58.9632 h 11.7216 m 0,-55.9392 v -3.024 m -33.6384,55.9392 h 21.9168 m 15.4944,-52.9152 h -3.7728 m -11.7216,52.9152 v 3.024 m 159.4944,-55.9392 h -3.7728 m -11.7216,0 h -21.9168 m 0,0 v -3.024 m -11.7216,0 v 3.024 m 45.36,0 v -3.024 m -45.36,3.024 h -3.7824 m 49.1424,-3.024 h -11.7216 m 0,0 v 3.024 m 15.4944,52.9152 v -52.9152 m -52.9152,0 v 52.9152 m -128.496,3.024 v -3.024 m -15.504,0 h 3.7824 m 177.6288,0 v 3.024 m 11.7216,-3.024 h 3.7728 m -15.4944,3.024 h 11.7216 m -33.6384,-3.024 h 21.9168 m 11.7216,3.024 v -3.024 m 38.3712,-55.9392 h -11.7216 m 45.36,58.9632 v -3.024 m -11.7216,3.024 h 11.7216 m 3.7728,-55.9392 h -3.7728 m -11.7216,0 h -21.9168 m 37.4016,52.9152 v -52.9152 m -121.1232,52.9152 v 3.024 m 0,0 h 11.7216 m 0,0 v -3.024 m 56.496,0 h 3.7824 m 45.36,-52.9152 v -3.024 m 0,0 h -11.7216 m -37.4208,3.024 v 52.9152 m 49.1424,0 h 3.7728 m -124.9152,0 h 3.7824 m 105.6288,-55.9392 v 3.024 m -33.6288,0 h -3.7824 m 15.504,0 v -3.024 m 0,55.9392 h 21.9168 m -33.6384,3.024 h 11.7216 m -0.01,0 v -3.024 m -11.712,-55.9392 v 3.024 m -0.009,52.9152 v 3.024 m 33.6384,-3.024 v 3.024 m -195.629,-287.99995 h 11.7216 m 39.9168,88.0608 h -21.9168 m -126.0096,127.93915 v -3.0336 m 51.648,-140.96635 v -3.0336 m 2.3616,72 h 21.9168 m 83.7216,-55.9296 h -11.7216 m -21.9168,0 h -11.7216 m -3.7824,3.024 v 52.9056 m -19.0848,-52.9056 h -3.7728 m 60.2784,52.9056 v 3.0336 m 0,0 h 11.7216 m -45.36,-58.9632 v 3.024 m 11.7216,55.9392 v -3.0336 m -32.0832,19.0944 h -21.9168 m -18,-72 v -3.024 m -11.7216,58.9632 h 11.7216 m 18,16.0608 v -3.024 m 42.2784,-13.0368 h 11.7216 m -11.7216,-55.9392 h -3.7824 m 49.1424,55.9392 v -3.0336 m -11.7216,-55.9296 v 3.024 m 11.7216,0 v -3.024 m -67.1424,-88.0704 h 3.7824 m 33.6384,0 v 3.0336 m -75.9168,85.0368 h -11.7216 m 0,55.9296 v 3.0336 m 18,13.0368 v 3.024 m 103.1328,-72 h -3.7728 m -83.7216,52.9056 v 3.0336 m 32.0832,-147.0336 h 21.9168 m -38.5056,144 v -52.9056 m 50.2176,-88.0608 v -3.0336 m 18.0096,144 h 3.7728 m -37.4112,-52.9056 v -3.024 m 0,55.9296 h 21.9168 m 15.4944,0 v -52.9056 m -33.4944,-88.0608 h 11.712 m -103.1328,140.9664 h 3.7824 m 65.7216,-140.9664 v -3.0336 m -20.3616,147.0336 v -3.0336 m 0,-52.9056 v -3.024 m 189.9168,128.95675 -0.3168,-1.5744 m 4.1184,-4.1184 1.5744,0.3072 m 2.544,3.8112 -0.3168,1.5744 m -0.8928,1.3344 -1.3344,0.8928 m -4.4832,-6.72 1.3344,-0.8928 m -2.2272,2.2272 0.8928,-1.3344 m 4.4832,6.72 -1.5744,0.3072 m 1.5744,-7.92 1.3344,0.8928 m -7.0272,2.9184 0.3168,-1.584 m 0.8928,4.4928 -0.8928,-1.3344 m 3.8016,2.5344 -1.5744,-0.3072 m 0,0 -1.3344,-0.8928 m 6.7104,-1.3344 -0.8928,1.3344 m -4.4832,-6.72 1.5744,-0.3072 m 3.8016,2.5344 0.3168,1.584 m -1.2096,-2.9184 0.8928,1.3344 m -206.88,-197.79835 v 3.024 m 0,52.9056 v 3.0336 m 27.3504,143.99995 v -3.0336 m 39.7824,-268.90555 h -3.7824 m -51.6288,68.976 h -11.7216 m -39.7824,75.024 v 52.9056 m 37.4208,-52.9056 h -21.9168 m 36,-19.0944 h 21.9168 m -39.9168,147.03355 v -3.0336 m 18,-196.90555 v -3.024 m -11.7216,58.9632 h 11.7216 m -15.504,-3.0336 h 3.7824 m 15.6384,147.03355 h 11.712 m -33.6288,-3.0336 h 21.9168 m 15.4944,0 v -52.90555 m 14.2272,-147.024 h -11.7216 m -6.288,147.024 v -3.024 m -45.3504,3.024 h -3.7824 m 3.7824,55.93915 h 11.7216 m 33.6288,-58.96315 h -11.712 m 0,55.92955 v 3.0336 m -37.4208,-3.0336 h 3.7824 m 14.2176,-196.90555 v 52.9056 m 52.9152,0 v -52.9056 m 22.8672,-3.024 v 3.024 m -38.3616,52.9056 v 3.0336 m 56.3616,-130.9632 v 3.024 m -38.3616,0 h -21.9168 m 15.6384,72 v -3.024 m 17.9904,-16.0704 h 3.7824 m -85.1328,215.99995 v 3.0336 m -18,-130.96315 v 3.024 m 103.1328,-91.0944 v -52.9056 m -49.1328,0 h -3.7824 m -38.496,199.9392 v -3.0336 m 33.6384,0 h 3.7728 m 16.5888,-196.9056 v -3.024 m 1.4112,219.024 h -3.7824 m 36,-219.024 h -11.712 m -33.6384,0 v 3.024 m 27.36,124.9056 h 3.7728 m -21.7824,143.99995 h 3.7824 m 32.2176,-268.90555 v -3.024 m -33.6288,0 h -11.7216 m -3.7824,3.024 v 52.9056 m 34.9152,19.0944 h -3.7728 m -29.7216,140.976 v 3.024 m -15.6384,-144 h -3.7824 m 15.504,55.9392 v -3.0336 m 21.9168,3.0336 h 11.7216 m -47.7216,13.0368 v 3.024 m 36,-75.024 v 3.024 m 18,-75.024 v 3.024 m -6.2784,127.9392 v -3.0336 m -11.7216,-52.9056 h -21.9168 m 109.4112,52.9056 v -52.9056 m 110.7456,-198 -2.1312,2.1312 m -139.7472,123.8688 h -3.7824 m 52.9152,52.9056 v -52.9056 m -85.1328,271.93915 h 11.7216 m 36,-215.99995 v -3.0336 m 21.9168,-55.9296 v 3.024 m -20.5056,216 h -3.7824 m -15.6288,-91.0944 h 21.9168 m -33.6384,3.0336 h 11.7216 m 3.9168,143.99995 h 11.712 m -11.712,-3.0336 v 3.0336 m 51.4944,-271.93915 h -3.7824 m -51.6288,72 v -3.024 m 15.6288,199.92955 h 3.7824 m -19.4112,-140.96635 v -3.0336 m 18,-72 h 21.9168 m -21.9168,-52.9056 v -3.024 m -2.3712,219.024 v -3.024 m 18.0096,-144 h -11.7216 m 29.712,-72 h -11.712 m -39.9168,72 h -11.7216 m -6.2784,202.96315 v -3.0336 m 57.9168,-212.96635 h 11.712 m -33.6288,-58.9632 h -11.7216 m -39.7824,271.92955 h 3.7824 m 45.3504,3.0336 v -3.0336 m -13.1328,-268.90555 v 52.9056 m 31.1424,72 h 3.7728 m 14.2176,-68.9664 v -3.0336 m 0,-52.9056 v -3.024 m -11.712,55.9296 v 3.0336 m -37.4208,-3.0336 h 3.7824 m 27.36,19.0944 v -3.024 m -49.1424,55.9296 h 3.7824 m 33.6384,-55.9296 v 3.024 m 0,0 h -21.9168 m 33.6384,55.9392 v -3.0336 m 136.1664,-224.9856 8.2848,8.2848 m -42.336,64.2336 -1.0272,2.8416 m -128.448,80.6592 h 11.7216 m 33.6288,-3.0336 h 3.7824 m -49.1328,0 v 3.0336 m -21.7824,16.0608 v 52.9056 m 3.7824,-52.9056 h -3.7824 m -2.496,196.90555 h 21.9168 m 15.4944,0 v -52.90555 m 20.5056,-216 h -21.9168 m 3.9168,127.9392 h 11.7216 m 3.7728,-55.9392 h -3.7728 m -11.7216,52.9056 v 3.0336 m 160.9824,-219.1968 37.4208,-37.4208 m -250.0416,397.58395 v 3.0336 m 18,-147.03355 v 3.0336 m -93.7824,88.0608 v 52.90555 m 31.1424,-127.92955 h -11.7216 m -3.9168,72 h -11.7216 m -18,-68.976 h -3.7824 m 37.4208,55.9392 h 11.7216 m 224.2656,-293.328 -1.3344,-0.8928 m -70.752,191.2128 0.3072,1.5744 m 69.552,-194.1216 -0.3072,-1.5744 m 8.2272,0 -0.3168,1.6032 m -85.3824,194.0928 0.3168,-1.5744 m 0,0 0.8832,-1.3344 m 1.344,6.7104 -1.344,-0.8832 m 78.8064,-202.416 1.584,-0.3072 m -77.472,203.9232 -1.5744,-0.3168 m 80.64,-195.7056 -1.5936,0.3264 m -73.3632,191.5776 -0.3072,1.5744 m -0.8928,-4.4832 0.8928,1.3344 m -3.8016,-2.5344 1.5744,0.3072 m 71.7792,-191.8944 0.3072,-1.5744 m -72.0864,193.4688 1.3344,0.8928 m -1.3344,6.7104 -1.5744,0.3168 m -2.9184,-1.2 -0.8832,-1.344 m 0.8832,-4.4832 1.344,-0.8928 m 76.128,-194.8032 1.3344,-0.8928 m -72.9792,202.416 -1.3344,0.8832 m 78.8064,-196.5888 -1.3152,0.8832 m 2.1984,-2.1888 -0.8832,1.3056 m -2.9088,1.2096 -1.584,-0.3168 m -72.0864,193.4688 -0.8928,1.344 m 71.6448,-195.7056 -0.8928,-1.3344 m 0,-3.1488 0.8928,-1.3344 m -76.128,194.8032 1.5744,-0.3072 m -3.8016,5.6832 -0.3168,-1.5744 m -217.7568,212.89915 0.8928,1.3344 m 0.3072,1.5744 -0.3072,1.5744 m -23.3568,-291.00475 0.8928,-1.3344 m 0,0 1.3344,-0.8928 m 1.584,-0.3072 1.5744,0.3072 m 2.5344,3.8016 -0.3072,1.5744 m 144.7104,184.944 h -11.7216 m -122.6304,97.53595 1.584,-0.3072 m -14.1696,-279.94555 -1.5744,0.3168 m 18.6528,286.64635 -1.3344,0.8928 m -21.1104,-290.05435 -0.3264,-1.6032 m 21.4368,284.05435 1.3344,0.8928 m -7.0272,2.9088 0.3072,-1.5744 m -9.024,-283.37275 -1.3344,0.8928 m -3.1584,-7.6032 1.584,-0.3072 m 11.9328,290.39035 0.8928,-1.3344 m 169.3056,-98.42875 h -11.712 m -150.8736,102.91195 -0.8928,1.3344 m -14.8512,-289.19035 -0.8928,1.3344 m 14.4096,288.74875 -1.5744,0.3168 m 302.256,-419.73115 1.5936,0.3168 m 0,0 1.3152,0.8832 m -202.128,297.0048 v 3.0336 m -103.0368,110.26555 1.5744,0.3072 m -4.4928,0.8928 1.3344,-0.8928 m 156.2688,-97.53595 v 3.024 m 0,0 h -21.9168 m -11.7216,0 h -3.7824 m -129.2064,-191.1168 0.3072,1.5744 m 144.3936,189.5424 v -3.024 m -148.5024,-182.4 -1.6032,-0.3264 m 116.6016,166.656 h 3.7824 m -106.848,118.98235 -0.3072,-1.5744 m 2.5344,3.8016 -1.3344,-0.8928 m -14.4288,-286.97275 -1.3152,-0.8832 m 0,0 -0.8736,-1.3056 m 324.7008,-128.16 0.8832,1.3056 m -302.2464,411.53275 0.3072,1.5744 m 116.928,-101.33755 v 3.024 m -123.9552,101.22235 -0.8928,-1.3344 m -9.024,-292.33915 0.8928,1.3344 m 317.9904,-123.6768 0.3168,1.6032 m -320.5344,119.8464 1.3344,0.8928 m 12.8352,294.88315 -1.584,-0.3168 m 118.848,-102.11515 v 52.90555 m -137.1264,-242.44795 0.3072,-1.5744 m 305.0496,-49.6032 11.0112,4.0032 m 39.84,-142.704 -2.6784,-2.6784 m -64.2048,76.0128 -18.096,49.728 m 67.8144,-31.6224 -3.552,-1.296 m -34.944,70.2528 v 3.024 m 87.7248,-131.3472 2.1408,-2.1408 m -183.7824,333.4272 v -3.0336 m 146.8992,-363.0048 -37.4112,37.4208 m 4.8288,106.416 18.096,-49.7184 m -45.1296,-19.6512 -1.0368,2.8416 m 19.392,144.7296 v -3.0336 m 0,-52.9056 v -3.024 m -7.344,-84.5952 -11.0112,-4.0128 m 42.6144,15.5136 -11.0112,-4.0032 m -0.576,-35.4528 2.1312,-2.1408 m 15.504,15.4944 -2.1408,2.1408 m -23.0304,76.5216 3.5424,1.296 m -4.5792,1.5456 1.0368,-2.8416 m -0.7488,-100.3104 8.2848,8.2944 m 33.408,-49.9872 -2.1408,2.1408 m -40.1664,216.3264 v -52.9056 m -37.4112,-3.024 h -11.7216 m 45.36,0 h -11.7216 m 48.1728,-88.7712 2.1408,-2.1408 m 31.2672,-47.8368 -2.1408,2.1408 m 0,0 -15.4944,-15.504 m -38.976,75.0144 -1.0272,2.832 m 26.3712,-16.6464 2.6688,2.6784 m -41.2608,144.1632 h 3.7728 m -49.1328,3.0336 h 11.7216 m 88.0032,-213.216 -8.2848,-8.2848 m -22.8576,92.2848 1.0368,-2.8416 m -35.9808,132.0576 h 11.7216 m -19.392,-144.7296 -3.552,-1.296 m 75.168,-65.0496 2.1408,-2.1408 m 23.7792,23.7888 -8.2848,-8.2848 m -119.0016,141.7728 v 52.9056 m 21.6288,-85.1232 1.0272,-2.8416 m -14.5536,-5.2992 3.552,1.2864 m -11.6544,91.9872 h 3.7824 m 0,-55.9392 v 3.024 m 0,0 h -3.7824 m 3.7824,52.9152 v 3.0336 m 57.5808,-133.2384 -20.6016,-7.4976 m 12.2304,-43.8816 2.6688,2.6784 m -40.1568,125.9904 v -3.024 m -3.8496,-36.048 -1.0368,2.8512 m 42.2976,36.2208 h -3.7728 m -8.3808,-84.7872 1.0368,-2.832 m 86.0256,-41.0592 -2.6784,-2.6688 m -109.6416,184.2528 h 21.9168 m 26.5248,-170.6208 15.504,15.4944 m -42.0288,155.1264 v 3.0336 m -72,144 h 11.7216 m 38.3616,-144 v -3.0336 m 7.152,-87.9648 20.6016,7.4976 m -93.4752,243.5616 h -3.7824 m 15.504,52.90555 h 21.9168 m -2.5056,-71.99995 v -52.9056 m -19.4112,127.93915 v -3.0336 m 37.4112,0 v -52.90555 m 38.5056,-216 h -21.9168 m -4.8864,-36.2208 11.0112,4.0032 m -71.856,245.1936 v 3.024 m 0,55.93915 h 11.7216 m -17.9904,-130.96315 h -11.7216 m 51.6384,75.024 h -21.9168 m 33.6288,0 v -3.024 m -63.3504,-72 v 3.024 m 45.3504,0 v -3.024 m 0,0 h -11.7216 m 0,0 v 3.024 m 29.7216,127.93915 v -3.0336 m 3.7824,-52.90555 h -3.7824 m -63.3504,-72 h -3.7824 m 55.4208,68.976 v 3.024 m -39.9168,-72 v -3.024 m 33.6384,58.9632 v -3.0336 m -31.1424,71.99995 h 3.7824 m -21.7824,-124.90555 v 52.9056 m 37.4208,-52.9056 h -21.9168 m 6.2784,124.90555 v 3.0336 m -3.7824,-55.93915 v 52.90555 m 31.1424,-71.99995 h 3.7728 m 2.5056,71.99995 v 3.0336 m -21.9168,-55.93915 v -3.024 m 3.9168,-16.0704 v 3.0336 m 29.712,68.96635 h 3.7824 m -55.4112,-71.99995 h 21.9168 m 15.4944,-52.9056 h -3.7728 m -49.152,52.9056 h 3.7824 m 51.648,75.03355 h 11.712 m -63.3504,-75.03355 v 3.0336 m 63.3408,13.0368 h -11.712 m -51.6288,-13.0368 h 11.7216 m 18,13.0368 h -11.7216 m -1.84965,-299.8998 0.336,-1.6128 m 7.8144,45.4848 0.3168,1.584 m -0.3168,1.5936 -0.9024,1.3536 m -3.0816,-52.56 1.584,0.3168 m 0.144,53.1456 -1.584,0.3072 m 4.0128,-49.6128 -0.3168,1.5936 m -3.696,48.0192 -1.5936,-0.3072 m 1.4496,-45.1488 -1.5936,-0.3072 m -1.3536,-0.9024 -0.9024,-1.3536 m 2.2272,-5.424 1.6224,-0.3264 m 3.0816,46.6752 0.9024,1.3536 m 0.3168,1.584 -0.3168,1.5936 m -6.7872,1.3536 -0.9024,-1.3536 m 0,0 -0.3168,-1.5936 m 6.96,-42.5088 -1.3536,0.9024 m -1.44,37.4496 1.584,0.3168 m 1.3536,6.7872 -1.3536,0.9024 m -0.144,-53.1456 1.3536,0.9024 m 0,0 0.9024,1.3536 m -7.6896,3.1776 -0.3168,-1.5936 m 2.7168,41.616 1.5936,-0.3168 m -1.7376,-37.4496 -1.3536,-0.9024 m -1.0752,42.5088 0.3168,-1.584 m -0.1248,-45.4848 0.8832,-1.3248 m 0,0 1.3248,-0.8928 m 5.4624,5.424 -0.9024,1.3536 m -1.3536,0.9024 -1.584,0.3072 m -2.8032,38.3616 1.3536,-0.9024 m 0,7.6896 -1.3536,-0.9024 m -0.9024,-4.5312 0.9024,-1.3536 m 6.6432,-44.1024 0.3168,1.584 m -2.4288,41.616 1.3536,0.9024"
       style="display:inline;fill:none;fill-opacity:0;stroke:#ff0000;stroke-width:0.378;stroke-linecap:round;stroke-linejoin:round;stroke-miterlimit:4;stroke-dasharray:none;stroke-opacity:1"
       id="path4140-6" /></g><g
     inkscape:label="彫刻"
     id="layer1"
     inkscape:groupmode="layer"
     style="display:inline" /></svg>
