<?xml version="1.0" encoding="UTF-8" standalone="no"?>
<svg
   xmlns:dc="http://purl.org/dc/elements/1.1/"
   xmlns:cc="http://creativecommons.org/ns#"
   xmlns:rdf="http://www.w3.org/1999/02/22-rdf-syntax-ns#"
   xmlns:svg="http://www.w3.org/2000/svg"
   xmlns="http://www.w3.org/2000/svg"
   xmlns:sodipodi="http://sodipodi.sourceforge.net/DTD/sodipodi-0.dtd"
   xmlns:inkscape="http://www.inkscape.org/namespaces/inkscape"
   inkscape:version="1.0 (4035a4fb49, 2020-05-01)"
   sodipodi:docname="scatter42-plates-2-pairs.svg"
   viewBox="0 0 1700.7875 1133.8583"
   height="300mm"
   width="450mm"
   xml:space="preserve"
   id="svg10"
   version="1.1"><metadata
     id="metadata16"><rdf:RDF><cc:Work
         rdf:about=""><dc:format>image/svg+xml</dc:format><dc:type
           rdf:resource="http://purl.org/dc/dcmitype/StillImage" /><dc:title /></cc:Work></rdf:RDF></metadata><defs
     id="defs14"><clipPath
       id="clipPath26"
       clipPathUnits="userSpaceOnUse"><path
         inkscape:connector-curvature="0"
         id="path24"
         d="M 0,867.401 H 1292.598 V 0 H 0 Z" /></clipPath><filter
       inkscape:collect="always"
       style="color-interpolation-filters:sRGB"
       id="filter4121"
       x="-1.5841346e-05"
       width="1.0000317"
       y="-2.4366046e-05"
       height="1.0000487"><feGaussianBlur
         inkscape:collect="always"
         stdDeviation="0.01076713"
         id="feGaussianBlur4123" /></filter></defs><sodipodi:namedview
     inkscape:document-rotation="0"
     units="mm"
     inkscape:current-layer="layer3"
     inkscape:window-maximized="1"
     inkscape:window-y="-8"
     inkscape:window-x="1016"
     inkscape:cy="607.34695"
     inkscape:cx="911.46347"
     inkscape:zoom="0.57629203"
     showgrid="false"
     id="namedview12"
     inkscape:window-height="1017"
     inkscape:window-width="1920"
     inkscape:pageshadow="2"
     inkscape:pageopacity="0"
     guidetolerance="10"
     gridtolerance="10"
     objecttolerance="10"
     borderopacity="1"
     bordercolor="#666666"
     pagecolor="#ffffff" /><g
     inkscape:label="カット2(R0G0B255)"
     id="layer3"
     inkscape:groupmode="layer"
     style="display:inline;filter:url(#filter4121)"><path
       d="m 884.80708,481.23421 a 234.97824,234.97824 0 0 0 23.9136,-101.32896 m 327.83042,66.91296 A 616.56,616.56 0 0 0 1215.4119,70.745503 m -330.60482,410.479107 -33.12,57.8496 m 0,0 74.4,42.864 m 0.12681,-0.12681 33.80919,-57.47319 M 1215.4215,70.738207 908.71108,70.728607 m 0.0192,309.168003 V 70.738207 M 1207.8951,524.33821 v -77.52 m 0,0 h 27.9071 m -275.77912,77.52 h 84.38402 163.488 m 292.183,-64.70118 6.3158,9.6e-4 5.9242,9.6e-4 5.544,0.002 5.1763,0.002 4.8221,0.003 4.4784,0.004 4.1472,0.004 3.8294,0.005 3.5232,0.006 3.2285,0.007 2.9472,0.008 2.6784,0.008 2.4201,0.01 2.1754,0.0106 1.943,0.0115 1.7213,0.0125 1.5149,0.0134 1.3171,0.0144 1.1347,0.0163 0.9629,0.0173 0.8026,0.0192 0.6566,0.0202 0.5223,0.0211 0.3984,0.023 0.2889,0.025 0.1911,0.0259 0.027,0.006 1.871,0.59904 1.6733,0.94176 1.4361,1.2432 1.1597,1.50144 0.8429,1.72032 0.4762,1.81536 0.04,0.4752 0.037,0.86784 0.031,1.23552 0.026,1.58112 0.021,1.90176 0.016,2.1984 0.011,2.47104 0.01,2.72064 9e-4,2.94624 v 3.14694 l -0.01,3.32448 -0.014,3.47808 -0.019,3.60672 -0.025,3.71328 -0.03,3.79488 -0.035,3.85152 -0.016,1.68864 -0.029,2.84892 -0.022,2.18205 -0.021,2.06042 -0.017,1.69757 -0.016,1.57592 -0.056,1.05138 -0.048,1.00357 -0.2225,0.87784 -0.3639,0.81241 -0.7027,1.2048 -0.9254,1.18944 -1.0368,1.04832 -1.0378,0.78144 -0.061,0.0355 -0.7152,0.36 -0.8803,0.36384 -0.5597,0.19296 -0.12,0.0355 -0.1392,0.0326 -0.1689,0.0298 -0.2141,0.0288 -0.2707,0.0269 -0.3408,0.025 -0.4234,0.023 -0.5194,0.0211 -0.6278,0.0202 -0.7488,0.0182 -0.8832,0.0163 -1.0301,0.0154 -1.1904,0.0134 -1.3632,0.0125 -1.5494,0.0115 -1.7472,0.01 -1.9594,0.009 -2.184,0.009 -2.4201,0.007 -2.6717,0.006 -2.9338,0.005 -3.2093,0.005 -3.4992,0.003 -3.7996,0.003 -4.1156,0.003 -4.4419,0.002 -4.7827,9.6e-4 -5.135,9.6e-4 -5.5018,9.6e-4 h -5.881 -6.2716 -6.1268 -6.7171 l -6.3139,9.6e-4 -5.9222,9.6e-4 h -5.544 -5.1792 -4.8269 l -4.4861,-9.6e-4 -4.1587,-0.003 -3.8458,-0.003 -3.5424,-0.005 -3.2553,-0.007 -2.978,-0.008 -2.7148,-0.0106 -2.4653,-0.0125 -2.2263,-0.0144 -2.0025,-0.0182 -1.7895,-0.0202 -1.5897,-0.024 -1.4035,-0.0269 -1.2298,-0.0298 -1.0685,-0.0346 -0.9197,-0.0384 -0.7843,-0.0422 -0.6614,-0.0461 -0.552,-0.0518 -0.4531,-0.0557 -0.3696,-0.0614 -0.2976,-0.0662 -0.2391,-0.072 -0.192,-0.0768 -0.1593,-0.0835 -0.1383,-0.0893 -0.1296,-0.096 -0.1353,-0.10176 -0.1527,-0.10944 -0.1642,-0.10464 -0.9235,-0.66336 -0.9552,-0.8688 -0.8678,-0.95136 -0.6605,-0.91296 -0.1536,-0.27264 -0.144,-0.28032 -0.1296,-0.26112 -0.1161,-0.26496 -0.1037,-0.29088 -0.091,-0.33792 -0.081,-0.408 -0.071,-0.50112 -0.06,-0.6144 -0.053,-0.75168 -0.044,-0.91008 -0.038,-1.09152 -0.032,-1.29504 -0.026,-1.51968 -0.022,-1.76736 -0.018,-2.03712 -0.015,-2.32896 -0.013,-2.64384 -0.013,-2.97984 -0.012,-3.33888 -0.013,-3.71904 -0.01,-2.45472 -0.01,-3.32832 -0.01,-3.22656 v -3.09984 l -10e-4,-2.94816 v -2.76864 -2.5632 l 0.01,-2.3328 0.01,-2.07456 0.012,-1.79232 0.013,-1.48224 0.015,-1.1472 0.018,-0.78624 0.02,-0.39744 v -0.0182 l 0.4474,-1.74144 0.8073,-1.62432 1.1156,-1.45728 1.3708,-1.23648 1.5764,-0.96672 1.7299,-0.64416 0.84,-0.17472 0.3533,-0.0221 0.7689,-0.0211 1.1856,-0.0192 1.6013,-0.0182 2.0179,-0.0173 2.4336,-0.0163 2.8483,-0.0144 3.265,-0.0134 3.6806,-0.0125 4.0954,-0.0115 4.511,-0.01 4.9258,-0.009 5.3414,-0.008 5.7562,-0.006 6.1699,-0.005 6.5856,-0.004 6.9994,-0.003 16.5595,-9.6e-4 z m -246.0824,21.45056 a 234.97824,234.97824 0 0 0 23.9136,-101.32896 m 327.8304,66.91296 A 616.56,616.56 0 0 0 1584.6005,70.598888 m -330.6048,410.479102 -33.12,57.8496 m 0,0 74.4,42.864 m 0.1268,-0.1268 79.5404,-134.9932 m 209.6672,-376.079998 -306.7104,-0.0096 m 0.019,309.167998 V 70.591592 m 97.024,376.079998 h 230.0479 m -11.8875,206.93542 a 234.97824,234.97824 0 0 0 -23.9136,101.32896 m -327.8304,-66.91296 a 616.56,616.56 0 0 0 21.1392,376.07279 m 330.6048,-410.47919 33.12,-57.8496 m 0,0 -74.4,-42.864 m -0.1268,0.12681 -33.8092,57.47319 m -255.3984,453.60009 306.7104,0.01 m -0.019,-309.16849 V 1064.1031 M 1270.0153,610.50301 v 77.52 m 0,0 h -27.9071 m 275.7791,-77.52 h -84.384 -163.488 m -292.18295,64.70118 -6.31584,-9.6e-4 -5.92416,-9.6e-4 -5.544,-0.002 -5.17632,-0.002 -4.82208,-0.003 -4.4784,-0.004 -4.1472,-0.004 -3.82944,-0.005 -3.5232,-0.006 -3.22848,-0.007 -2.9472,-0.008 -2.6784,-0.008 -2.42016,-0.01 -2.17536,-0.0106 -1.94304,-0.0115 -1.72128,-0.0125 -1.51488,-0.0134 -1.31712,-0.0144 -1.13472,-0.0163 -0.96288,-0.0173 -0.80256,-0.0192 -0.65664,-0.0202 -0.52224,-0.0211 -0.3984,-0.023 -0.28896,-0.025 -0.19104,-0.0259 -0.0269,-0.006 -1.87104,-0.59904 -1.67328,-0.94176 -1.43616,-1.2432 -1.15968,-1.50144 -0.84288,-1.72032 -0.47616,-1.81536 -0.0403,-0.4752 -0.0365,-0.86784 -0.0307,-1.23552 -0.0259,-1.58112 -0.0211,-1.90176 -0.0163,-2.1984 -0.0106,-2.47104 -0.006,-2.72064 -9.6e-4,-2.94624 0.003,-3.14694 0.009,-3.32448 0.0144,-3.47808 0.0192,-3.60672 0.025,-3.71328 0.0298,-3.79488 0.0346,-3.85152 0.0163,-1.68864 0.0291,-2.84892 0.0223,-2.18205 0.021,-2.06042 0.0173,-1.69757 0.0161,-1.57592 0.0565,-1.05138 0.0482,-1.00357 0.22249,-0.87784 0.36389,-0.81241 0.70272,-1.2048 0.92544,-1.18944 1.0368,-1.04832 1.03776,-0.78144 0.0605,-0.0355 0.7152,-0.36 0.88032,-0.36384 0.55968,-0.19296 0.12,-0.0355 0.1392,-0.0326 0.16896,-0.0298 0.21408,-0.0288 0.27072,-0.0269 0.3408,-0.025 0.42336,-0.023 0.51936,-0.0211 0.62784,-0.0202 0.7488,-0.0182 0.8832,-0.0163 1.03008,-0.0154 1.1904,-0.0134 1.3632,-0.0125 1.54944,-0.0115 1.7472,-0.01 1.95936,-0.009 2.184,-0.009 2.42016,-0.007 2.67168,-0.006 2.93376,-0.005 3.20928,-0.005 3.4992,-0.003 3.79968,-0.003 4.11552,-0.003 4.44192,-0.002 4.78272,-9.6e-4 5.13504,-9.6e-4 5.50176,-9.6e-4 h 5.88096 6.27168 6.12672 6.71712 l 6.31392,-9.6e-4 5.92219,-9.6e-4 h 5.5441 5.1791 4.8269 l 4.4861,9.6e-4 4.1587,0.003 3.8458,0.003 3.5424,0.005 3.2554,0.007 2.9779,0.008 2.7148,0.0106 2.4653,0.0125 2.2263,0.0144 2.0025,0.0182 1.7895,0.0202 1.5897,0.024 1.4036,0.0269 1.2297,0.0298 1.0685,0.0346 0.9197,0.0384 0.7843,0.0422 0.6614,0.0461 0.552,0.0518 0.4532,0.0557 0.3696,0.0614 0.2976,0.0662 0.239,0.072 0.192,0.0768 0.1594,0.0835 0.1382,0.0893 0.1296,0.096 0.1354,0.10176 0.1526,0.10944 0.1642,0.10464 0.9235,0.66336 0.9552,0.8688 0.8678,0.95136 0.6605,0.91296 0.1536,0.27264 0.144,0.28032 0.1296,0.26112 0.1162,0.26496 0.1036,0.29088 0.091,0.33792 0.081,0.408 0.071,0.50112 0.061,0.6144 0.053,0.75168 0.044,0.91008 0.038,1.09152 0.032,1.29504 0.026,1.51968 0.022,1.76736 0.018,2.03712 0.015,2.32896 0.013,2.64384 0.013,2.97984 0.013,3.33888 0.012,3.71904 0.01,2.45472 0.01,3.32832 0.01,3.22656 v 3.09984 2.94816 2.76864 2.5632 l -0.01,2.3328 -0.01,2.07456 -0.011,1.79232 -0.013,1.48224 -0.015,1.1472 -0.018,0.78624 -0.02,0.39744 v 0.0182 l -0.4474,1.74144 -0.8073,1.62432 -1.1155,1.45728 -1.3709,1.23648 -1.5763,0.96672 -1.73,0.64416 -0.84,0.17472 -0.3532,0.0221 -0.769,0.0211 -1.1856,0.0192 -1.6013,0.0182 -2.0179,0.0173 -2.4336,0.0163 -2.8483,0.0144 -3.265,0.0134 -3.6806,0.0125 -4.0954,0.0115 -4.511,0.01 -4.9258,0.009 -5.3414,0.008 -5.7562,0.006 -6.1699,0.005 -6.5856,0.004 -6.99937,0.003 -16.55949,9.6e-4 z m 246.08235,-21.45056 a 234.97824,234.97824 0 0 0 -23.9136,101.32896 M 872.1707,688.16963 a 616.56,616.56 0 0 0 21.1392,376.07267 m 330.6048,-410.47907 33.12,-57.8496 m 0,0 -74.4,-42.864 m -0.1268,0.1268 -79.5404,134.9932 m -209.6672,376.07997 306.7104,0.01 m -0.019,-309.16837 v 309.15837 m -97.024,-376.07997 H 872.91956 M 103.98962,479.82893 a 234.97824,234.97824 0 0 0 23.9136,-101.32896 m 327.8304,66.91296 A 616.56,616.56 0 0 0 434.59442,69.340223 m -330.6048,410.479107 -33.12,57.8496 m 0,0 74.4,42.864 m 0.12681,-0.12681 33.80919,-57.47319 m 255.3984,-453.600003 -306.7104,-0.0096 m 0.0192,309.168003 V 69.332927 m 299.1648,453.600003 v -77.52 m 0,0 h 27.90714 m -275.77914,77.52 h 84.384 163.488 m 292.18297,-64.70118 6.31584,9.6e-4 5.92416,9.6e-4 5.544,0.002 5.17632,0.002 4.82208,0.003 4.4784,0.004 4.1472,0.004 3.82944,0.005 3.5232,0.006 3.22848,0.007 2.9472,0.008 2.6784,0.008 2.42016,0.01 2.17536,0.0106 1.94304,0.0115 1.72128,0.0125 1.51488,0.0134 1.31712,0.0144 1.13472,0.0163 0.96288,0.0173 0.80256,0.0192 0.65664,0.0202 0.52224,0.0211 0.3984,0.023 0.28896,0.025 0.19104,0.0259 0.0269,0.006 1.87104,0.59904 1.67328,0.94176 1.43616,1.2432 1.15968,1.50144 0.84288,1.72032 0.47616,1.81536 0.0403,0.4752 0.0365,0.86784 0.0307,1.23552 0.0259,1.58112 0.0211,1.90176 0.0163,2.1984 0.0106,2.47104 0.006,2.72064 9.6e-4,2.94624 -0.003,3.14694 -0.009,3.32448 -0.0144,3.47808 -0.0192,3.60672 -0.025,3.71328 -0.0298,3.79488 -0.0346,3.85152 -0.0163,1.68864 -0.0291,2.84892 -0.0223,2.18205 -0.021,2.06042 -0.0173,1.69757 -0.0161,1.57592 -0.0565,1.05138 -0.0482,1.00357 -0.22249,0.87784 -0.36389,0.81241 -0.70272,1.2048 -0.92544,1.18944 -1.0368,1.04832 -1.03776,0.78144 -0.0605,0.0355 -0.7152,0.36 -0.88032,0.36384 -0.55968,0.19296 -0.12,0.0355 -0.1392,0.0326 -0.16896,0.0298 -0.21408,0.0288 -0.27072,0.0269 -0.3408,0.025 -0.42336,0.023 -0.51936,0.0211 -0.62784,0.0202 -0.7488,0.0182 -0.8832,0.0163 -1.03008,0.0154 -1.1904,0.0134 -1.3632,0.0125 -1.54944,0.0115 -1.7472,0.01 -1.95936,0.009 -2.184,0.009 -2.42016,0.007 -2.67168,0.006 -2.93376,0.005 -3.20928,0.005 -3.4992,0.003 -3.79968,0.003 -4.11552,0.003 -4.44192,0.002 -4.78272,9.6e-4 -5.13504,9.6e-4 -5.50176,9.6e-4 h -5.88096 -6.27168 -6.12672 -6.71712 l -6.31392,9.6e-4 -5.92224,9.6e-4 h -5.544 -5.1792 -4.82688 l -4.48608,-9.6e-4 -4.15872,-0.003 -3.84576,-0.003 -3.5424,-0.005 -3.25536,-0.007 -2.97792,-0.008 -2.71488,-0.0106 -2.46528,-0.0125 -2.22624,-0.0144 -2.00256,-0.0182 -1.78944,-0.0202 -1.58976,-0.024 -1.40352,-0.0269 -1.22976,-0.0298 -1.06848,-0.0346 -0.91968,-0.0384 -0.78432,-0.0422 -0.66144,-0.0461 -0.552,-0.0518 -0.45312,-0.0557 -0.3696,-0.0614 -0.2976,-0.0662 -0.23904,-0.072 -0.192,-0.0768 -0.15936,-0.0835 -0.13824,-0.0893 -0.1296,-0.096 -0.13536,-0.10176 -0.15264,-0.10944 -0.16416,-0.10464 -0.92352,-0.66336 -0.9552,-0.8688 -0.86784,-0.95136 -0.66048,-0.91296 -0.1536,-0.27264 -0.144,-0.28032 -0.1296,-0.26112 -0.11616,-0.26496 -0.10368,-0.29088 -0.0912,-0.33792 -0.0806,-0.408 -0.071,-0.50112 -0.0605,-0.6144 -0.0528,-0.75168 -0.0442,-0.91008 -0.0384,-1.09152 -0.0317,-1.29504 -0.0259,-1.51968 -0.0221,-1.76736 -0.0182,-2.03712 -0.0154,-2.32896 -0.0134,-2.64384 -0.0125,-2.97984 -0.0125,-3.33888 -0.0125,-3.71904 -0.008,-2.45472 -0.01,-3.32832 -0.007,-3.22656 -0.005,-3.09984 -9.6e-4,-2.94816 0.002,-2.76864 0.004,-2.5632 0.006,-2.3328 0.01,-2.07456 0.0115,-1.79232 0.0134,-1.48224 0.0154,-1.1472 0.0182,-0.78624 0.0202,-0.39744 0.002,-0.0182 0.44736,-1.74144 0.80736,-1.62432 1.11552,-1.45728 1.37088,-1.23648 1.57632,-0.96672 1.72992,-0.64416 0.84,-0.17472 0.35328,-0.0221 0.76896,-0.0211 1.1856,-0.0192 1.60128,-0.0182 2.01792,-0.0173 2.4336,-0.0163 2.84832,-0.0144 3.26496,-0.0134 3.68064,-0.0125 4.09536,-0.0115 4.51105,-0.01 4.92576,-0.009 5.34144,-0.008 5.75616,-0.006 6.16992,-0.005 6.5856,-0.004 6.99935,-0.003 16.55949,-9.6e-4 z m -246.08235,21.45056 a 234.97824,234.97824 0 0 0 23.9136,-101.32896 m 327.8304,66.91296 A 616.56,616.56 0 0 0 803.78304,69.193608 m -330.6048,410.479102 -33.12,57.8496 m 0,0 74.4,42.864 m 0.12681,-0.1268 79.5404,-134.9932 m 209.66719,-376.079998 -306.7104,-0.0096 m 0.0192,309.167998 V 69.186312 m 97.02401,376.079998 h 230.04793 m -11.88752,206.93542 a 234.97824,234.97824 0 0 0 -23.9136,101.32896 m -327.8304,-66.91296 a 616.56,616.56 0 0 0 21.1392,376.07267 m 330.6048,-410.47907 33.12,-57.8496 m 0,0 -74.4,-42.864 m -0.12681,0.12681 -33.80919,57.47319 m -255.3984,453.59997 306.7104,0.01 m -0.0192,-309.16837 V 1062.6977 M 489.19786,609.09773 v 77.52 m 0,0 h -27.90714 m 275.77914,-77.52 h -84.384 -163.488 m -292.18297,64.70118 -6.31584,-9.6e-4 -5.92416,-9.6e-4 -5.544,-0.002 -5.17632,-0.002 -4.82208,-0.003 -4.4784,-0.004 -4.1472,-0.004 -3.82944,-0.005 -3.5232,-0.006 -3.22848,-0.007 -2.9472,-0.008 -2.6784,-0.008 -2.42016,-0.01 -2.17536,-0.0106 -1.94304,-0.0115 -1.72128,-0.0125 -1.51488,-0.0134 -1.31712,-0.0144 -1.13472,-0.0163 -0.96288,-0.0173 -0.80256,-0.0192 -0.65664,-0.0202 -0.52224,-0.0211 -0.3984,-0.023 -0.28896,-0.025 -0.19104,-0.0259 -0.0269,-0.006 -1.87104,-0.59904 -1.67328,-0.94176 -1.43616,-1.2432 -1.15968,-1.50144 -0.84288,-1.72032 -0.47616,-1.81536 -0.0403,-0.4752 -0.0365,-0.86784 -0.0307,-1.23552 -0.0259,-1.58112 -0.0211,-1.90176 -0.0163,-2.1984 -0.0106,-2.47104 -0.006,-2.72064 -9.6e-4,-2.94624 0.003,-3.14694 0.009,-3.32448 0.0144,-3.47808 0.0192,-3.60672 0.025,-3.71328 0.0298,-3.79488 0.0346,-3.85152 0.0163,-1.68864 0.0291,-2.84892 0.0223,-2.18205 0.021,-2.06042 0.0173,-1.69757 0.0161,-1.57592 0.0565,-1.05138 0.0482,-1.00357 0.22249,-0.87784 0.36389,-0.81241 0.70272,-1.2048 0.92544,-1.18944 1.0368,-1.04832 1.03776,-0.78144 0.0605,-0.0355 0.7152,-0.36 0.88032,-0.36384 0.55968,-0.19296 0.12,-0.0355 0.1392,-0.0326 0.16896,-0.0298 0.21408,-0.0288 0.27072,-0.0269 0.3408,-0.025 0.42336,-0.023 0.51936,-0.0211 0.62784,-0.0202 0.7488,-0.0182 0.8832,-0.0163 1.03008,-0.0154 1.1904,-0.0134 1.3632,-0.0125 1.54944,-0.0115 1.7472,-0.01 1.95936,-0.009 2.184,-0.009 2.42016,-0.007 2.67168,-0.006 2.93376,-0.005 3.20928,-0.005 3.4992,-0.003 3.79968,-0.003 4.11552,-0.003 4.44192,-0.002 4.78272,-9.6e-4 5.13504,-9.6e-4 5.50176,-9.6e-4 h 5.88096 6.27168 6.12672 6.71712 l 6.31392,-9.6e-4 5.92224,-9.6e-4 h 5.544 5.1792 4.82688 l 4.48608,9.6e-4 4.15872,0.003 3.84576,0.003 3.5424,0.005 3.25536,0.007 2.97792,0.008 2.71488,0.0106 2.46528,0.0125 2.22624,0.0144 2.00256,0.0182 1.78944,0.0202 1.58976,0.024 1.40352,0.0269 1.22976,0.0298 1.06848,0.0346 0.91968,0.0384 0.78432,0.0422 0.66144,0.0461 0.552,0.0518 0.45312,0.0557 0.3696,0.0614 0.2976,0.0662 0.23904,0.072 0.192,0.0768 0.15936,0.0835 0.13824,0.0893 0.1296,0.096 0.13536,0.10176 0.15264,0.10944 0.16416,0.10464 0.92352,0.66336 0.9552,0.8688 0.86784,0.95136 0.66048,0.91296 0.1536,0.27264 0.144,0.28032 0.1296,0.26112 0.11616,0.26496 0.10368,0.29088 0.0912,0.33792 0.0806,0.408 0.071,0.50112 0.0605,0.6144 0.0528,0.75168 0.0442,0.91008 0.0384,1.09152 0.0317,1.29504 0.0259,1.51968 0.0221,1.76736 0.0182,2.03712 0.0154,2.32896 0.0134,2.64384 0.0125,2.97984 0.0125,3.33888 0.0125,3.71904 0.008,2.45472 0.01,3.32832 0.007,3.22656 0.005,3.09984 9.6e-4,2.94816 -0.002,2.76864 -0.004,2.5632 -0.006,2.3328 -0.01,2.07456 -0.0115,1.79232 -0.0134,1.48224 -0.0154,1.1472 -0.0182,0.78624 -0.0202,0.39744 -0.002,0.0182 -0.44736,1.74144 -0.80736,1.62432 -1.11552,1.45728 -1.37088,1.23648 -1.57632,0.96672 -1.72992,0.64416 -0.84,0.17472 -0.35328,0.0221 -0.76896,0.0211 -1.1856,0.0192 -1.60128,0.0182 -2.01792,0.0173 -2.4336,0.0163 -2.84832,0.0144 -3.26496,0.0134 -3.68064,0.0125 -4.09536,0.0115 -4.51105,0.01 -4.92576,0.009 -5.34144,0.008 -5.75616,0.006 -6.16992,0.005 -6.5856,0.004 -6.99935,0.003 -16.55949,9.6e-4 z m 246.08235,-21.45056 a 234.97824,234.97824 0 0 0 -23.9136,101.32896 M 91.353239,686.76435 A 616.56,616.56 0 0 0 112.49244,1062.837 m 330.6048,-410.47905 33.12,-57.8496 m 0,0 -74.4,-42.864 m -0.12681,0.1268 -79.5404,134.9932 m -209.66719,376.07995 306.7104,0.01 m -0.0192,-309.16835 V 1062.8443 M 322.15003,686.76435 H 92.102096"
       style="fill:none;fill-opacity:0;stroke:#0000ff;stroke-width:0.377953;stroke-linecap:round;stroke-linejoin:round;stroke-miterlimit:4;stroke-dasharray:none;stroke-opacity:1"
       id="path2962-1-7-4" /></g><g
     inkscape:label="カット1(R255G0B0)"
     id="layer2"
     inkscape:groupmode="layer"
     style="display:inline"><path
       d="m 146.24932,653.55975 a 4.1154857,4.1154857 0 0 1 -4.11549,4.11549 4.1154857,4.1154857 0 0 1 -4.11548,-4.11549 4.1154857,4.1154857 0 0 1 4.11548,-4.11548 4.1154857,4.1154857 0 0 1 4.11549,4.11548 m 0.048,143.95203 a 4.1154857,4.1154857 0 0 1 -4.11549,4.11549 4.1154857,4.1154857 0 0 1 -4.11548,-4.11549 4.1154857,4.1154857 0 0 1 4.11548,-4.11549 4.1154857,4.1154857 0 0 1 4.11549,4.11549 m 224.64,-144.23999 a 4.1154857,4.1154857 0 0 1 -4.11548,4.11549 4.1154857,4.1154857 0 0 1 -4.11549,-4.11549 4.1154857,4.1154857 0 0 1 4.11549,-4.11549 4.1154857,4.1154857 0 0 1 4.11548,4.11549 m -57.6,166.75195 a 4.1154857,4.1154857 0 0 1 -4.11549,4.11549 4.1154857,4.1154857 0 0 1 -4.11548,-4.11549 4.1154857,4.1154857 0 0 1 4.11548,-4.11548 4.1154857,4.1154857 0 0 1 4.11549,4.11548 m 174.91199,42.52802 a 4.1154857,4.1154857 0 0 1 -4.11549,4.11548 4.1154857,4.1154857 0 0 1 -4.11549,-4.11548 4.1154857,4.1154857 0 0 1 4.11549,-4.11549 4.1154857,4.1154857 0 0 1 4.11549,4.11549 m 31.36233,-489.90357 a 4.0863733,4.0863733 0 0 1 -4.08637,4.08638 4.0863733,4.0863733 0 0 1 -4.08637,-4.08638 4.0863733,4.0863733 0 0 1 4.08637,-4.08637 4.0863733,4.0863733 0 0 1 4.08637,4.08637 m -48.12204,0.14289 a 4.0863733,4.0863733 0 0 1 -4.08637,4.08637 4.0863733,4.0863733 0 0 1 -4.08637,-4.08637 4.0863733,4.0863733 0 0 1 4.08637,-4.08638 4.0863733,4.0863733 0 0 1 4.08637,4.08638 m 27.21441,118.95928 2.6208,1.5168 m -10.9632,18.9792 -2.6208,-1.5072 m -5.856,10.1472 2.6208,1.5072 m 0,0 -1.8912,3.2736 m 45.8208,26.4576 1.8912,-3.2736 m 8.4768,-8.6304 -2.6208,-1.5168 m 0,0 10.9632,-18.9792 m -64.5312,5.9424 45.8208,26.4576 m 18.7104,-32.4 2.6208,1.5072 m -48.4416,-27.9648 -10.9632,18.9792 m 16.8192,-29.1264 -2.6208,-1.5168 m 45.2064,39.6288 5.856,-10.1472 m -22.6752,39.2832 5.856,-10.1472 m -8.4768,8.6304 2.6208,1.5168 m 22.6752,-39.2832 -2.6208,-1.5072 m 0,0 1.8912,-3.2736 m 0,0 -45.8208,-26.4576 m 0,0 -1.8912,3.2736 m -19.44,27.6192 -5.856,10.1472 m 22.6752,-39.2832 -5.856,10.1472 m -162.9024,-29.4912 v 21.9168 m -199.0944,-8.9952 v -21.9264 m 3.024,0 v -11.712 m 16.0704,-21.7824 v 3.7728 m 322.6464,45.5616 -2.9184,-0.7776 m -86.8224,31.3536 v -3.7824 m -52.9056,-45.3504 h -3.0336 m -193.0368,-8.9952 h -3.024 m 0,45.3504 h 3.024 m -55.929596,-45.3504 h -3.0336 m 3.0336,45.3504 v 3.7824 m 248.966396,5.2128 h 3.0336 m -199.0944,-54.3456 v -3.7824 m 19.0944,-14.2272 h -3.0336 m 0,0 v 11.7216 m 0,0 h 3.0336 m 307.9872,76.8672 2.9184,0.7872 m -78,-50.6496 h 3.024 M 83.801614,437.75996 v 3.7824 m -3.0336,33.6384 v 11.712 m 255.033596,-40.128 v 3.7728 m -199.0944,-12.7776 H 83.801614 m 307.929596,12.7776 h -3.024 m 86.8224,17.7792 0.9792,-3.6576 m -87.8016,31.2288 h 3.024 M 80.768014,453.25436 h 3.0336 m 0,21.9264 h -3.0336 m 310.963196,8.9952 h -3.024 m -307.939196,2.7168 h 3.0336 m 304.905596,-36.3552 v -3.7728 m 35.712,7.8528 -2.928,-0.7872 m 45.216,59.0784 3.0432,-11.3184 m -44.352,-50.6208 -0.9792,3.648 m -91.6512,7.6416 h 3.0336 m 75.8976,39.8208 51.12,13.6896 m -41.328,-61.9392 -3.024,11.328 m -85.6992,19.0176 v 11.712 m 136.9824,5.7024 -2.928,-0.7872 m -57.0624,-3.1584 2.9184,0.7776 m 0,0 -0.9792,3.6576 m 63.7152,-21.6672 3.0336,-11.3184 m -142.6464,26.7936 v 3.7824 m 85.584,-33.7344 -5.6736,21.1776 m 60.7968,-22.4544 -51.1104,-13.6896 m -89.5968,48.7008 h 52.9056 m 0,-52.9056 h -52.9056 m -251.999996,43.9104 h 52.905596 m 0,0 v -3.7824 m 199.0944,-2.7168 h -3.0336 m 58.9632,-21.9168 v -11.7216 m -252,36.3552 v -11.712 m 0,0 h -3.024 m 0,-21.9264 h 3.024 m 278.736,11.904 2.9184,0.7776 m 45.4368,34.8672 5.6736,-21.1776 m 0,0 2.9184,0.7872 M 80.768014,441.54236 v 11.712 m 334.943996,33.8592 -2.928,-0.7872 m 50.0352,29.4432 0.9696,-3.648 M 83.801614,453.25436 v 21.9264 m 304.905596,8.9952 v -21.9168 m 24.0768,24.0672 -3.024,11.3184 m -76.992,-47.1072 v 11.7216 m 58.9632,33.6288 v -11.712 M 80.768014,381.25436 h 3.0336 m 52.905596,37.4208 v -3.7824 m 0,0 h 3.024 m 0,0 v -11.712 m 0,0 h -3.024 m 72,32.0736 h 3.024 m -75.024,-32.0736 v -21.9264 m 19.0944,75.9264 h -3.0336 m 55.9392,11.712 h 3.024 m 157.0368,-99.3504 v 11.712 m -88.0608,20.5056 h -52.9056 m 140.9664,-20.5056 h 3.0336 m -216,87.6384 v 3.7824 m 52.9056,-52.9152 h -52.9056 m -75.033596,-50.2176 v 11.712 m 130.963196,75.9264 h -3.024 m 3.024,11.712 v -11.712 m 0,-21.9264 v -11.7216 m 13.0368,15.648 v 11.712 m 0,-33.6384 h 3.0336 m -3.0336,33.6384 h 3.0336 M 83.801614,365.75996 v 3.7824 m 0,45.3504 v 3.7824 m 55.929596,-49.1328 h -3.024 m 0,0 v -3.7824 m 91.0944,51.4944 v 21.9264 m 0,-37.4208 v 3.7824 m -143.999996,-2.3616 h -3.0336 m 55.939196,-21.9264 h 3.024 m -55.929596,37.4208 h 52.905596 m 3.024,-37.4208 v -11.712 m 144,81.3504 v -11.712 m -75.024,33.4944 v -3.7824 m -127.939196,-54 h 3.0336 m 52.905596,-49.1328 H 83.801614 m 68.966396,91.4208 v 11.712 m 58.9632,-45.36 h -3.024 m 72,15.648 v -21.9264 m -52.9056,21.9264 h -3.0336 m 58.9632,-21.9264 v -11.712 m 88.0704,-36 h -3.0336 m 3.0336,-3.7824 v 3.7824 m 0,11.712 v 21.9264 m -219.0336,65.712 h 3.0336 m 127.9296,-63.3504 h -3.024 m -196.905596,-24.288 v 21.9264 m 287.999996,0 h -3.0336 m 0,0 v 11.712 m 0,0 h 3.0336 m -88.0704,24.288 h -3.024 m -124.9056,-3.9264 v 21.9264 m 72,-2.5056 h 52.9056 M 80.768014,403.18076 v 11.712 m 143.999996,-9.3504 v 11.712 m 3.0336,-11.712 h -3.0336 m 55.9392,45.3504 h 3.024 m -75.024,6.288 v -21.9264 m 0,-11.7216 v -3.7728 m 19.0944,31.1328 v 3.7824 m 52.9056,-37.4208 h 3.024 m -3.024,-11.712 v -3.7824 M 83.801614,369.54236 h -3.0336 m 199.939196,85.1328 v -3.7824 m -124.9056,21.7824 h 52.9056 m 216,-91.4208 h 3.024 m -216,-18 v -11.7216 m -3.024,-3.7728 h -52.9056 m 68.9664,-14.2176 v 11.712 m 199.9392,24.288 v -3.7824 m -68.976,-2.5056 v -11.7216 m -127.9296,-6.2784 v 21.9264 m 196.9056,-1.4208 h -52.9056 m 55.9296,49.1328 v -11.712 m -130.9632,-18 v 11.712 m 75.0336,21.7824 h 52.9056 m -68.976,-21.7824 v -11.712 m -55.9296,15.4944 h 52.9056 m -196.9056,-52.9152 v 3.7728 m 72,-21.7728 v 3.7824 m 124.9056,51.6384 v -21.9264 m -52.9056,-15.4944 v 3.7728 m 55.9296,33.648 h -3.024 m 3.024,-33.648 h -3.024 m -52.9056,11.7216 v 21.9264 m -144,-21.9264 v 21.9264 m -3.0336,11.712 h 3.0336 m 0,0 v 3.7824 m 216,14.2176 v 3.7824 m -144,-85.1328 h -3.0336 m -68.9664,51.6384 h -3.0336 m 3.0336,-33.648 h -3.0336 m 72,-6.2784 h 3.0336 m -3.0336,21.9264 v 11.712 m 72,-27.36 v 11.7216 m -72,15.6384 h 3.0336 m 196.9056,24.288 v -21.9264 m -72,15.6384 h 3.024 m -144,-11.712 h -3.024 m 19.0944,-6.288 v 3.7824 m 196.9056,32.2176 h 3.024 m -130.9632,-18 h 3.0336 m 52.9056,-45.36 v -3.7728 m -199.9392,37.4208 v 11.712 m 55.9392,-33.6384 h 3.024 m 0,-11.7216 h -3.024 m 19.0944,31.1424 h 52.9056 m 0,0 v -3.7824 m 19.0944,18 v 3.7824 m 124.9056,18 v -3.7824 m -216,-63.36 v -3.7728 m 19.0944,19.4208 h -3.0336 m 202.9632,14.0736 v -11.712 m -147.024,9.3504 h 3.024 m -75.024,6.288 v -21.9264 m 219.024,39.9264 h -3.024 m -127.9392,-39.9264 h 3.0336 m 0,-11.7216 h -3.0336 m 3.0336,33.648 h -3.0336 m -144,-33.648 v 11.7216 m 0,0 h 3.0336 m 196.9056,0 h 3.024 m -3.024,-15.4944 h -52.9056 m -144,52.9152 h 52.9056 m 0,0 v -3.7824 m 3.024,0 v -11.712 m 216,-15.6384 h -3.024 m -216,27.3504 h 3.024 m 140.976,3.7824 v -3.7824 m -216,-54 h 3.024 m 0,-11.712 h -3.024 m 147.024,36 h -3.024 m 91.0944,-69.6384 h -3.0336 m -88.0608,47.712 h 3.024 M 83.801614,331.18076 h -3.0336 m 55.939196,15.4944 v -3.7824 m 0,-49.1328 H 83.801614 m 215.999996,-14.2272 h -3.0336 m 0,45.36 h 3.0336 m 0,3.7824 h 52.9056 m -212.976,-19.4208 v -11.712 m 216,15.6384 h -3.024 m -72,20.3616 v -3.7824 m 0,0 h -52.9056 m 124.9056,-38.5056 h 3.024 m 68.976,2.5056 h -52.9056 m 0,15.4944 v 21.9264 m -72,-39.9264 v 21.9264 m 72,29.712 v 3.7824 m -287.999996,0 h 52.905596 m 232.0608,-37.4208 h 3.0336 m 0,21.9264 h -3.0336 m -287.999996,0 v 11.712 m 219.033596,-67.1328 v 3.7728 m -3.0336,33.648 v 11.712 m 3.0336,0 v 3.7824 m -3.0336,-49.1424 v 11.7216 m -13.0368,54 v -11.712 m 68.976,-4.8672 v -3.7824 m -68.976,8.6496 h -3.024 m 91.0944,13.1328 h 52.9056 M 83.801614,293.75996 v 3.7824 m 0,45.3504 v 3.7824 m 343.929596,-49.1328 h -3.024 m 0,49.1328 v -3.7824 m -284.976,0 v -11.712 m -55.929596,-33.6384 h -3.0336 m 343.939196,11.712 h 3.024 m 0,0 v -11.712 m -343.929596,11.712 v 21.9264 m 287.999996,-37.4208 v 3.7824 m 55.9296,45.3504 v -11.712 m -346.963196,11.712 h 3.0336 m 52.905596,-33.6384 h 3.024 m 0,-11.712 h -3.024 m 0,0 v -3.7824 m 216,31.1328 h 3.024 m -219.024,6.288 v -21.9264 m 144,57.9264 v -21.9264 m 19.0944,-32.0736 h -3.0336 m 58.9632,11.712 v -11.712 m -3.024,0 v -21.9264 m 72,51.6384 h 3.024 M 80.768014,297.54236 v 11.712 m 0,0 h 3.0336 m 199.929596,69.6384 v -11.712 m 144,-36 h -3.024 m -55.9392,0 v 11.712 m 55.9392,-45.3504 v -3.7824 m -127.9392,-2.5056 h 3.0336 m 68.9664,6.288 v 11.712 m 55.9392,21.9264 v -21.9264 m -55.9392,33.6384 h 3.0336 m -19.0944,-67.1328 h -52.9056 m 72,-54 v 3.7824 m -3.0336,11.712 h 3.0336 m -3.0336,21.9264 v 11.712 m -216,8.64 v 11.7216 m 75.0336,-33.4944 v 3.7824 m 144,9.3504 v 3.7824 m -219.0336,16.5792 h 3.0336 m 199.9296,0 v -11.7216 m -147.024,49.1424 v -3.7824 m 3.024,-33.6384 v -11.7216 m 160.0704,-42.2784 v 21.9264 m -160.0704,54 h -3.024 m 19.0944,-39.9264 v 21.9264 m 140.9664,-24.288 h 3.0336 m -163.0944,8.64 v -3.7728 m -52.9056,15.4944 v 21.9264 m 55.9296,-33.648 h -3.024 m 19.0944,-17.9904 h -3.0336 m -68.9664,63.3504 v 3.7824 m 72,-21.7824 v 3.7824 m 52.9056,-3.7824 h 3.024 m 0,0 v -11.712 m 88.0704,-36 h -3.0336 m 55.9392,11.712 h 3.024 m -199.9296,39.7824 h 52.9056 m -52.9056,-15.4944 h -3.0336 m 199.9392,-20.5056 v -3.7824 m 3.024,-11.712 h -3.024 m -271.9392,54 v 11.712 m 271.9392,-65.712 v -21.9264 m -72,42.2784 v -3.7728 m -144,15.4944 h 3.024 m 72,-29.712 h -3.024 m 147.024,9.3504 v -11.712 m -219.024,65.712 h 3.024 m 13.0368,-63.3504 v 11.712 m 55.9392,-15.4944 h -52.9056 m 52.9056,52.9152 v -3.7824 m 91.0944,-81.3504 h -3.0336 m 55.9392,11.712 h 3.024 m 0,0 v -11.712 m 0,0 h -3.024 m -212.976,99.3504 v -11.712 m 157.0368,-87.6384 v 11.712 m 3.0336,37.4208 h 52.9056 m 0,-49.1328 v -3.7824 m -268.9056,54 v 3.7728 m 268.9056,-57.7728 h -52.9056 m -91.0944,39.7824 v -3.7824 m 75.024,21.7728 h -3.024 m -199.9392,45.36 h 3.0336 m 0,-11.712 h -3.0336 m 3.0336,15.4944 h 52.9056 m 16.0608,-33.4944 v 11.712 m 0,0 h 3.0336 m -19.0944,-31.1328 h -52.9056 m 68.9664,-2.5056 h 3.0336 m 55.9296,21.9264 h -3.024 m 0,0 v -21.9264 m 3.024,0 v -11.712 m -127.9296,17.9904 h -3.0336 m 127.9392,-6.2784 h 3.024 m -75.024,39.9264 v -21.9264 m 144,-72 h 3.024 m 0,-11.7216 h -3.024 m -196.9056,33.648 h -3.0336 m -68.966396,18 h -3.0336 m 219.033596,-2.5056 h 52.9056 m -199.9392,-37.4208 h 3.0336 m 196.9056,21.9264 v -21.9264 m -144,-15.4944 h -52.9056 m 72,-18 v 3.7824 m -19.0944,51.6384 v -21.9264 m 19.0944,-29.712 h -3.0336 m -68.9664,14.2176 v 3.7728 m 68.9664,-6.2784 h 3.0336 m -147.033596,24.288 v 11.712 m 0,0 h 3.0336 m 140.966396,-47.712 v 11.712 m 72,18 h 3.0336 m -215.999996,51.6384 v 3.7824 m 71.999996,-21.7824 v 3.7824 m -16.0704,14.2176 v -11.712 m 216,-18 h -3.024 m -271.939196,29.712 h 3.0336 m 0,3.7824 h 52.905596 m 216,-18 v -3.7824 m -196.9056,-33.6384 v 21.9264 m 52.9056,15.4944 v -3.7824 m 3.024,-11.712 h -3.024 m -55.9392,0 v 11.712 m -68.966396,-31.1328 v 3.7824 m 124.905596,27.3504 h 3.024 M 83.801614,225.54236 h -3.0336 m 58.963196,33.6384 h -3.024 m 163.0944,-39.9264 v 21.9264 m 55.9296,11.712 v -11.712 m -55.9296,-33.648 h -3.0336 m -160.0608,51.648 v -21.9264 m 219.024,-18 v -11.7216 m -55.9296,33.648 h -3.0336 m -160.0608,-19.4208 H 83.801614 m 215.999996,-18 v 3.7728 m 0,45.36 v 3.7824 M 83.801614,237.25436 v 21.9264 m 55.929596,-21.9264 v -11.712 m 212.976,27.3504 h 3.024 m -3.024,-49.1328 h -52.9056 m -144,3.7728 h -3.0336 m 0,0 v 11.7216 m 58.9632,33.6384 v -11.712 m 140.976,-33.648 v -3.7728 m -196.9056,52.9152 h 52.9056 m 0,-37.4208 h 3.024 m 0,0 v -11.7216 m 0,0 h -3.024 m -72,29.7216 h 3.024 m 157.0368,3.9264 v 11.712 m 0,0 h 3.0336 m -91.0944,-45.36 v -3.7728 m -68.976,21.7824 h -3.024 m 0,49.1328 v -3.7824 m 160.0608,-63.36 v 11.7216 m -144,33.6384 h 3.0336 m -75.033596,6.288 v 11.712 m 55.939196,-45.3504 v -3.7824 m 0,49.1328 h 3.024 m 140.976,-36 h 3.024 m -55.9296,-33.6384 v 21.9264 m 52.9056,0 v -21.9264 m -52.9056,33.6384 v 3.7824 m 52.9056,-52.9152 h -52.9056 m 55.9296,3.7824 h -3.024 m 0,11.712 h 3.024 m -3.024,37.4208 v -3.7824 m -52.9056,-11.712 h -3.0336 m 3.0336,15.4944 h 52.9056 m -55.9392,-3.7824 h 3.0336 m 55.9296,-11.712 h -3.024 m 3.024,-21.9264 v -11.712 m -58.9632,33.6384 v 11.712 m 55.9392,-45.3504 v -3.7824 m 3.024,49.1328 v -11.712 M 146.1027,284.37114 a 4.1154857,4.1154857 0 0 1 -4.11549,4.11549 4.1154857,4.1154857 0 0 1 -4.11548,-4.11549 4.1154857,4.1154857 0 0 1 4.11548,-4.11549 4.1154857,4.1154857 0 0 1 4.11549,4.11549 m 0.048,143.95201 a 4.1154857,4.1154857 0 0 1 -4.11548,4.11549 4.1154857,4.1154857 0 0 1 -4.11549,-4.11549 4.1154857,4.1154857 0 0 1 4.11549,-4.11549 4.1154857,4.1154857 0 0 1 4.11548,4.11549 m 224.63999,-144.24 a 4.1154857,4.1154857 0 0 1 -4.11549,4.11548 4.1154857,4.1154857 0 0 1 -4.11548,-4.11548 4.1154857,4.1154857 0 0 1 4.11548,-4.11549 4.1154857,4.1154857 0 0 1 4.11549,4.11549 m -57.59998,166.75199 a 4.1154857,4.1154857 0 0 1 -4.11548,4.11549 4.1154857,4.1154857 0 0 1 -4.11549,-4.11549 4.1154857,4.1154857 0 0 1 4.11549,-4.11548 4.1154857,4.1154857 0 0 1 4.11548,4.11548 m 174.91199,42.52799 a 4.1154857,4.1154857 0 0 1 -4.11549,4.11548 4.1154857,4.1154857 0 0 1 -4.11548,-4.11548 4.1154857,4.1154857 0 0 1 4.11548,-4.11549 4.1154857,4.1154857 0 0 1 4.11549,4.11549 m 493.32844,-34.8836 a 4.1154857,4.1154857 0 0 1 4.11549,-4.11549 4.1154857,4.1154857 0 0 1 4.11548,4.11549 4.1154857,4.1154857 0 0 1 -4.11548,4.11548 4.1154857,4.1154857 0 0 1 -4.11549,-4.11548 m -0.048,-143.95203 a 4.1154857,4.1154857 0 0 1 4.11549,-4.11549 4.1154857,4.1154857 0 0 1 4.11548,4.11549 4.1154857,4.1154857 0 0 1 -4.11548,4.11549 4.1154857,4.1154857 0 0 1 -4.11549,-4.11549 m -224.64,144.23999 a 4.1154857,4.1154857 0 0 1 4.11548,-4.11549 4.1154857,4.1154857 0 0 1 4.11549,4.11549 4.1154857,4.1154857 0 0 1 -4.11549,4.11549 4.1154857,4.1154857 0 0 1 -4.11548,-4.11549 m 57.6,-166.75195 a 4.1154857,4.1154857 0 0 1 4.11549,-4.11549 4.1154857,4.1154857 0 0 1 4.11548,4.11549 4.1154857,4.1154857 0 0 1 -4.11548,4.11548 4.1154857,4.1154857 0 0 1 -4.11549,-4.11548 M 639.43115,249.48752 a 4.1154857,4.1154857 0 0 1 4.11549,-4.11548 4.1154857,4.1154857 0 0 1 4.11549,4.11548 4.1154857,4.1154857 0 0 1 -4.11549,4.11549 4.1154857,4.1154857 0 0 1 -4.11549,-4.11549 m -31.36233,489.90357 a 4.0863733,4.0863733 0 0 1 4.08637,-4.08638 4.0863733,4.0863733 0 0 1 4.08637,4.08638 4.0863733,4.0863733 0 0 1 -4.08637,4.08637 4.0863733,4.0863733 0 0 1 -4.08637,-4.08637 m 48.12204,-0.14289 a 4.0863733,4.0863733 0 0 1 4.08637,-4.08637 4.0863733,4.0863733 0 0 1 4.08637,4.08637 4.0863733,4.0863733 0 0 1 -4.08637,4.08638 4.0863733,4.0863733 0 0 1 -4.08637,-4.08638 m -27.21442,-118.95926 -2.6208,-1.5168 m 10.9632,-18.9792 2.6208,1.5072 m 5.856,-10.1472 -2.6208,-1.5072 m 0,0 1.8912,-3.2736 m -45.8208,-26.4576 -1.8912,3.2736 m -8.4768,8.6304 2.6208,1.5168 m 0,0 -10.9632,18.9792 m 64.5312,-5.9424 -45.8208,-26.4576 m -18.7104,32.4 -2.6208,-1.5072 m 48.4416,27.9648 10.9632,-18.9792 m -16.8192,29.1264 2.6208,1.5168 m -45.2064,-39.6288 -5.856,10.1472 m 22.6752,-39.2832 -5.856,10.1472 m 8.4768,-8.6304 -2.6208,-1.5168 m -22.6752,39.2832 2.6208,1.5072 m 0,0 -1.8912,3.2736 m 0,0 45.8208,26.4576 m 0,0 1.8912,-3.2736 m 19.44,-27.6192 5.856,-10.1472 m -22.6752,39.2832 5.856,-10.1472 m 162.9024,29.4912 v -21.9168 m 199.0944,8.9952 v 21.9264 m -3.024,0 v 11.712 m -16.0704,21.7824 v -3.7728 m -322.6464,-45.5616 2.9184,0.7776 m 86.8224,-31.3536 v 3.7824 m 52.9056,45.3504 h 3.0336 m 193.0368,8.9952 h 3.024 m 0,-45.3504 h -3.024 m 55.92956,45.3504 h 3.0336 m -3.0336,-45.3504 v -3.7824 m -248.96636,-5.2128 h -3.0336 m 199.0944,54.3456 v 3.7824 m -19.0944,14.2272 h 3.0336 m 0,0 v -11.7216 m 0,0 h -3.0336 m -307.9872,-76.8672 -2.9184,-0.7872 m 78,50.6496 h -3.024 m 307.92956,24.4992 v -3.7824 m 3.0336,-33.6384 v -11.712 m -255.03356,40.128 v -3.7728 m 199.0944,12.7776 h 52.90556 m -307.92956,-12.7776 h 3.024 m -86.8224,-17.7792 -0.9792,3.6576 m 87.8016,-31.2288 h -3.024 m 310.96316,42.6336 h -3.0336 m 0,-21.9264 h 3.0336 m -310.96316,-8.9952 h 3.024 m 307.93916,-2.7168 h -3.0336 m -304.90556,36.3552 v 3.7728 m -35.712,-7.8528 2.928,0.7872 m -45.216,-59.0784 -3.0432,11.3184 m 44.352,50.6208 0.9792,-3.648 m 91.6512,-7.6416 h -3.0336 m -75.8976,-39.8208 -51.12,-13.6896 m 41.328,61.9392 3.024,-11.328 m 85.6992,-19.0176 v -11.712 m -136.9824,-5.7024 2.928,0.7872 m 57.0624,3.1584 -2.9184,-0.7776 m 0,0 0.9792,-3.6576 m -63.7152,21.6672 -3.0336,11.3184 m 142.6464,-26.7936 v -3.7824 m -85.584,33.7344 5.6736,-21.1776 m -60.7968,22.4544 51.1104,13.6896 m 89.5968,-48.7008 h -52.9056 m 0,52.9056 h 52.9056 m 251.99996,-43.9104 h -52.90556 m 0,0 v 3.7824 m -199.0944,2.7168 h 3.0336 m -58.9632,21.9168 v 11.7216 m 252,-36.3552 v 11.712 m 0,0 h 3.024 m 0,21.9264 h -3.024 m -278.736,-11.904 -2.9184,-0.7776 m -45.4368,-34.8672 -5.6736,21.1776 m 0,0 -2.9184,-0.7872 m 394.64636,38.8704 v -11.712 m -334.94396,-33.8592 2.928,0.7872 m -50.0352,-29.4432 -0.9696,3.648 m 379.98716,58.8672 v -21.9264 m -304.90556,-8.9952 v 21.9168 m -24.0768,-24.0672 3.024,-11.3184 m 76.992,47.1072 v -11.7216 m -58.9632,-33.6288 v 11.712 m 310.96316,102.9216 h -3.0336 m -52.90556,-37.4208 v 3.7824 m 0,0 h -3.024 m 0,0 v 11.712 m 0,0 h 3.024 m -72,-32.0736 h -3.024 m 75.024,32.0736 v 21.9264 m -19.0944,-75.9264 h 3.0336 m -55.9392,-11.712 h -3.024 m -157.0368,99.3504 v -11.712 m 88.0608,-20.5056 h 52.9056 m -140.9664,20.5056 h -3.0336 m 216,-87.6384 v -3.7824 m -52.9056,52.9152 h 52.9056 m 75.03356,50.2176 v -11.712 m -130.96316,-75.9264 h 3.024 m -3.024,-11.712 v 11.712 m 0,21.9264 v 11.7216 m -13.0368,-15.648 v -11.712 m 0,33.6384 h -3.0336 m 3.0336,-33.6384 h -3.0336 m 143.99996,85.1328 v -3.7824 m 0,-45.3504 v -3.7824 m -55.92956,49.1328 h 3.024 m 0,0 v 3.7824 m -91.0944,-51.4944 v -21.9264 m 0,37.4208 v -3.7824 m 143.99996,2.3616 h 3.0336 m -55.93916,21.9264 h -3.024 m 55.92956,-37.4208 h -52.90556 m -3.024,37.4208 v 11.712 m -144,-81.3504 v 11.712 m 75.024,-33.4944 v 3.7824 m 127.93916,54 h -3.0336 m -52.90556,49.1328 h 52.90556 m -68.96636,-91.4208 v -11.712 m -58.9632,45.36 h 3.024 m -72,-15.648 v 21.9264 m 52.9056,-21.9264 h 3.0336 m -58.9632,21.9264 v 11.712 m -88.0704,36 h 3.0336 m -3.0336,3.7824 v -3.7824 m 0,-11.712 v -21.9264 m 219.0336,-65.712 h -3.0336 m -127.9296,63.3504 h 3.024 m 196.90556,24.288 v -21.9264 m -287.99996,0 h 3.0336 m 0,0 v -11.712 m 0,0 h -3.0336 m 88.0704,-24.288 h 3.024 m 124.9056,3.9264 v -21.9264 m -72,2.5056 h -52.9056 m 199.93916,51.4944 v -11.712 m -143.99996,9.3504 v -11.712 m -3.0336,11.712 h 3.0336 m -55.9392,-45.3504 h -3.024 m 75.024,-6.288 v 21.9264 m 0,11.7216 v 3.7728 m -19.0944,-31.1328 v -3.7824 m -52.9056,37.4208 h -3.024 m 3.024,11.712 v 3.7824 m 196.90556,32.2176 h 3.0336 m -199.93916,-85.1328 v 3.7824 m 124.9056,-21.7824 h -52.9056 m -216,91.4208 h -3.024 m 216,18 v 11.7216 m 3.024,3.7728 h 52.9056 m -68.9664,14.2176 v -11.712 m -199.9392,-24.288 v 3.7824 m 68.976,2.5056 v 11.7216 m 127.9296,6.2784 v -21.9264 m -196.9056,1.4208 h 52.9056 m -55.9296,-49.1328 v 11.712 m 130.9632,18 v -11.712 m -75.0336,-21.7824 h -52.9056 m 68.976,21.7824 v 11.712 m 55.9296,-15.4944 h -52.9056 m 196.9056,52.9152 v -3.7728 m -72,21.7728 v -3.7824 m -124.9056,-51.6384 v 21.9264 m 52.9056,15.4944 v -3.7728 m -55.9296,-33.648 h 3.024 m -3.024,33.648 h 3.024 m 52.9056,-11.7216 v -21.9264 m 144,21.9264 v -21.9264 m 3.0336,-11.712 h -3.0336 m 0,0 v -3.7824 m -216,-14.2176 v -3.7824 m 144,85.1328 h 3.0336 m 68.9664,-51.6384 h 3.0336 m -3.0336,33.648 h 3.0336 m -72,6.2784 h -3.0336 m 3.0336,-21.9264 v -11.712 m -72,27.36 v -11.7216 m 72,-15.6384 h -3.0336 m -196.9056,-24.288 v 21.9264 m 72,-15.6384 h -3.024 m 144,11.712 h 3.024 m -19.0944,6.288 v -3.7824 m -196.9056,-32.2176 h -3.024 m 130.9632,18 h -3.0336 m -52.9056,45.36 v 3.7728 m 199.9392,-37.4208 v -11.712 m -55.9392,33.6384 h -3.024 m 0,11.7216 h 3.024 m -19.0944,-31.1424 h -52.9056 m 0,0 v 3.7824 m -19.0944,-18 v -3.7824 m -124.9056,-18 v 3.7824 m 216,63.36 v 3.7728 m -19.0944,-19.4208 h 3.0336 m -202.9632,-14.0736 v 11.712 m 147.024,-9.3504 h -3.024 m 75.024,-6.288 v 21.9264 m -219.024,-39.9264 h 3.024 m 127.9392,39.9264 h -3.0336 m 0,11.7216 h 3.0336 m -3.0336,-33.648 h 3.0336 m 144,33.648 v -11.7216 m 0,0 h -3.0336 m -196.9056,0 h -3.024 m 3.024,15.4944 h 52.9056 m 144,-52.9152 h -52.9056 m 0,0 v 3.7824 m -3.024,0 v 11.712 m -216,15.6384 h 3.024 m 216,-27.3504 h -3.024 m -140.976,-3.7824 v 3.7824 m 216,54 h -3.024 m 0,11.712 h 3.024 m -147.024,-36 h 3.024 m -91.0944,69.6384 h 3.0336 m 88.0608,-47.712 h -3.024 m 199.92956,14.0736 h 3.0336 m -55.93916,-15.4944 v 3.7824 m 0,49.1328 h 52.90556 m -215.99996,14.2272 h 3.0336 m 0,-45.36 h -3.0336 m 0,-3.7824 h -52.9056 m 212.976,19.4208 v 11.712 m -216,-15.6384 h 3.024 m 72,-20.3616 v 3.7824 m 0,0 h 52.9056 m -124.9056,38.5056 h -3.024 m -68.976,-2.5056 h 52.9056 m 0,-15.4944 v -21.9264 m 72,39.9264 v -21.9264 m -72,-29.712 v -3.7824 m 287.99996,0 h -52.90556 m -232.0608,37.4208 h -3.0336 m 0,-21.9264 h 3.0336 m 287.99996,0 v -11.712 m -219.03356,67.1328 v -3.7728 m 3.0336,-33.648 v -11.712 m -3.0336,0 v -3.7824 m 3.0336,49.1424 v -11.7216 m 13.0368,-54 v 11.712 m -68.976,4.8672 v 3.7824 m 68.976,-8.6496 h 3.024 m -91.0944,-13.1328 h -52.9056 m 340.90556,52.9152 v -3.7824 m 0,-45.3504 v -3.7824 m -343.92956,49.1328 h 3.024 m 0,-49.1328 v 3.7824 m 284.976,0 v 11.712 m 55.92956,33.6384 h 3.0336 m -343.93916,-11.712 h -3.024 m 0,0 v 11.712 m 343.92956,-11.712 v -21.9264 m -287.99996,37.4208 v -3.7824 m -55.9296,-45.3504 v 11.712 m 346.96316,-11.712 h -3.0336 m -52.90556,33.6384 h -3.024 m 0,11.712 h 3.024 m 0,0 v 3.7824 m -216,-31.1328 h -3.024 m 219.024,-6.288 v 21.9264 m -144,-57.9264 v 21.9264 m -19.0944,32.0736 h 3.0336 m -58.9632,-11.712 v 11.712 m 3.024,0 v 21.9264 m -72,-51.6384 h -3.024 m 346.96316,45.3504 v -11.712 m 0,0 h -3.0336 m -199.92956,-69.6384 v 11.712 m -144,36 h 3.024 m 55.9392,0 v -11.712 m -55.9392,45.3504 v 3.7824 m 127.9392,2.5056 h -3.0336 m -68.9664,-6.288 v -11.712 m -55.9392,-21.9264 v 21.9264 m 55.9392,-33.6384 h -3.0336 m 19.0944,67.1328 h 52.9056 m -72,54 v -3.7824 m 3.0336,-11.712 h -3.0336 m 3.0336,-21.9264 v -11.712 m 216,-8.64 v -11.7216 m -75.0336,33.4944 v -3.7824 m -144,-9.3504 v -3.7824 m 219.0336,-16.5792 h -3.0336 m -199.9296,0 v 11.7216 m 147.024,-49.1424 v 3.7824 m -3.024,33.6384 v 11.7216 m -160.0704,42.2784 v -21.9264 m 160.0704,-54 h 3.024 m -19.0944,39.9264 v -21.9264 m -140.9664,24.288 h -3.0336 m 163.0944,-8.64 v 3.7728 m 52.9056,-15.4944 v -21.9264 m -55.9296,33.648 h 3.024 m -19.0944,17.9904 h 3.0336 m 68.9664,-63.3504 v -3.7824 m -72,21.7824 v -3.7824 m -52.9056,3.7824 h -3.024 m 0,0 v 11.712 m -88.0704,36 h 3.0336 m -55.9392,-11.712 h -3.024 m 199.9296,-39.7824 h -52.9056 m 52.9056,15.4944 h 3.0336 m -199.9392,20.5056 v 3.7824 m -3.024,11.712 h 3.024 m 271.9392,-54 v -11.712 m -271.9392,65.712 v 21.9264 m 72,-42.2784 v 3.7728 m 144,-15.4944 h -3.024 m -72,29.712 h 3.024 m -147.024,-9.3504 v 11.712 m 219.024,-65.712 h -3.024 m -13.0368,63.3504 v -11.712 m -55.9392,15.4944 h 52.9056 m -52.9056,-52.9152 v 3.7824 m -91.0944,81.3504 h 3.0336 m -55.9392,-11.712 h -3.024 m 0,0 v 11.712 m 0,0 h 3.024 m 212.976,-99.3504 v 11.712 m -157.0368,87.6384 v -11.712 m -3.0336,-37.4208 h -52.9056 m 0,49.1328 v 3.7824 m 268.9056,-54 v -3.7728 m -268.9056,57.7728 h 52.9056 m 91.0944,-39.7824 v 3.7824 m -75.024,-21.7728 h 3.024 m 199.9392,-45.36 h -3.0336 m 0,11.712 h 3.0336 m -3.0336,-15.4944 h -52.9056 m -16.0608,33.4944 v -11.712 m 0,0 h -3.0336 m 19.0944,31.1328 h 52.9056 m -68.9664,2.5056 h -3.0336 m -55.9296,-21.9264 h 3.024 m 0,0 v 21.9264 m -3.024,0 v 11.712 m 127.9296,-17.9904 h 3.0336 m -127.9392,6.2784 h -3.024 m 75.024,-39.9264 v 21.9264 m -144,72 h -3.024 m 0,11.7216 h 3.024 m 196.9056,-33.648 h 3.0336 m 68.96636,-18 h 3.0336 m -219.03356,2.5056 h -52.9056 m 199.9392,37.4208 h -3.0336 m -196.9056,-21.9264 v 21.9264 m 144,15.4944 h 52.9056 m -72,18 v -3.7824 m 19.0944,-51.6384 v 21.9264 m -19.0944,29.712 h 3.0336 m 68.9664,-14.2176 v -3.7728 m -68.9664,6.2784 h -3.0336 m 147.03356,-24.288 v -11.712 m 0,0 h -3.0336 m -140.96636,47.712 v -11.712 m -72,-18 h -3.0336 m 215.99996,-51.6384 v -3.7824 m -71.99996,21.7824 v -3.7824 m 16.0704,-14.2176 v 11.712 m -216,18 h 3.024 m 271.93916,-29.712 h -3.0336 m 0,-3.7824 h -52.90556 m -216,18 v 3.7824 m 196.9056,33.6384 v -21.9264 m -52.9056,-15.4944 v 3.7824 m -3.024,11.712 h 3.024 m 55.9392,0 v -11.712 m 68.96636,31.1328 v -3.7824 m -124.90556,-27.3504 h -3.024 m 127.92956,27.3504 h 3.0336 m -58.96316,-33.6384 h 3.024 m -163.0944,39.9264 v -21.9264 m -55.9296,-11.712 v 11.712 m 55.9296,33.648 h 3.0336 m 160.0608,-51.648 v 21.9264 m -219.024,18 v 11.7216 m 55.9296,-33.648 h 3.0336 m 160.0608,19.4208 h 52.90556 m -215.99996,18 v -3.7728 m 0,-45.36 v -3.7824 m 215.99996,19.4208 v -21.9264 m -55.92956,21.9264 v 11.712 m -212.976,-27.3504 h -3.024 m 3.024,49.1328 h 52.9056 m 144,-3.7728 h 3.0336 m 0,0 v -11.7216 m -58.9632,-33.6384 v 11.712 m -140.976,33.648 v 3.7728 m 196.9056,-52.9152 h -52.9056 m 0,37.4208 h -3.024 m 0,0 v 11.7216 m 0,0 h 3.024 m 72,-29.7216 h -3.024 m -157.0368,-3.9264 v -11.712 m 0,0 h -3.0336 m 91.0944,45.36 v 3.7728 m 68.976,-21.7824 h 3.024 m 0,-49.1328 v 3.7824 m -160.0608,63.36 v -11.7216 m 144,-33.6384 h -3.0336 m 75.03356,-6.288 v -11.712 m -55.93916,45.3504 v 3.7824 m 0,-49.1328 h -3.024 m -140.976,36 h -3.024 m 55.9296,33.6384 v -21.9264 m -52.9056,0 v 21.9264 m 52.9056,-33.6384 v -3.7824 m -52.9056,52.9152 h 52.9056 m -55.9296,-3.7824 h 3.024 m 0,-11.712 h -3.024 m 3.024,-37.4208 v 3.7824 m 52.9056,11.712 h 3.0336 m -3.0336,-15.4944 h -52.9056 m 55.9392,3.7824 h -3.0336 m -55.9296,11.712 h 3.024 m -3.024,21.9264 v 11.712 m 58.9632,-33.6384 v -11.712 m -55.9392,45.3504 v 3.7824 m -3.024,-49.1328 v 11.712 m 137.62852,-61.1904 a 4.1154857,4.1154857 0 0 1 4.11549,-4.11549 4.1154857,4.1154857 0 0 1 4.11548,4.11549 4.1154857,4.1154857 0 0 1 -4.11548,4.11549 4.1154857,4.1154857 0 0 1 -4.11549,-4.11549 m -0.048,-143.95201 a 4.1154857,4.1154857 0 0 1 4.11548,-4.11549 4.1154857,4.1154857 0 0 1 4.11549,4.11549 4.1154857,4.1154857 0 0 1 -4.11549,4.11549 4.1154857,4.1154857 0 0 1 -4.11548,-4.11549 m -224.63999,144.24 a 4.1154857,4.1154857 0 0 1 4.11549,-4.11548 4.1154857,4.1154857 0 0 1 4.11548,4.11548 4.1154857,4.1154857 0 0 1 -4.11548,4.11549 4.1154857,4.1154857 0 0 1 -4.11549,-4.11549 m 57.59998,-166.75199 a 4.1154857,4.1154857 0 0 1 4.11548,-4.11549 4.1154857,4.1154857 0 0 1 4.11549,4.11549 4.1154857,4.1154857 0 0 1 -4.11549,4.11548 4.1154857,4.1154857 0 0 1 -4.11548,-4.11548 M 639.57776,618.67615 a 4.1154857,4.1154857 0 0 1 4.11549,-4.11548 4.1154857,4.1154857 0 0 1 4.11548,4.11548 4.1154857,4.1154857 0 0 1 -4.11548,4.11549 4.1154857,4.1154857 0 0 1 -4.11549,-4.11549 M 144.84404,1434.3772 a 4.1154857,4.1154857 0 0 1 -4.11549,4.1155 4.1154857,4.1154857 0 0 1 -4.11548,-4.1155 4.1154857,4.1154857 0 0 1 4.11548,-4.1155 4.1154857,4.1154857 0 0 1 4.11549,4.1155 m 0.048,143.952 a 4.1154857,4.1154857 0 0 1 -4.11549,4.1155 4.1154857,4.1154857 0 0 1 -4.11548,-4.1155 4.1154857,4.1154857 0 0 1 4.11548,-4.1155 4.1154857,4.1154857 0 0 1 4.11549,4.1155 m 224.64001,-144.2399 a 4.1154857,4.1154857 0 0 1 -4.11548,4.1154 4.1154857,4.1154857 0 0 1 -4.11549,-4.1154 4.1154857,4.1154857 0 0 1 4.11549,-4.1155 4.1154857,4.1154857 0 0 1 4.11548,4.1155 m -57.6,166.7519 a 4.1154857,4.1154857 0 0 1 -4.11549,4.1155 4.1154857,4.1154857 0 0 1 -4.11548,-4.1155 4.1154857,4.1154857 0 0 1 4.11548,-4.1155 4.1154857,4.1154857 0 0 1 4.11549,4.1155 m 174.91199,42.528 a 4.1154857,4.1154857 0 0 1 -4.11549,4.1155 4.1154857,4.1154857 0 0 1 -4.11549,-4.1155 4.1154857,4.1154857 0 0 1 4.11549,-4.1155 4.1154857,4.1154857 0 0 1 4.11549,4.1155 m 31.36233,-489.9035 a 4.0863733,4.0863733 0 0 1 -4.08637,4.0863 4.0863733,4.0863733 0 0 1 -4.08637,-4.0863 4.0863733,4.0863733 0 0 1 4.08637,-4.0864 4.0863733,4.0863733 0 0 1 4.08637,4.0864 m -48.12204,0.1428 a 4.0863733,4.0863733 0 0 1 -4.08637,4.0864 4.0863733,4.0863733 0 0 1 -4.08637,-4.0864 4.0863733,4.0863733 0 0 1 4.08637,-4.0863 4.0863733,4.0863733 0 0 1 4.08637,4.0863 m 27.21441,118.9593 2.6208,1.5168 m -10.9632,18.9792 -2.6208,-1.5072 m -5.856,10.1472 2.6208,1.5072 m 0,0 -1.8912,3.2736 m 45.8208,26.4576 1.8912,-3.2736 m 8.4768,-8.6304 -2.6208,-1.5168 m 0,0 10.9632,-18.9792 m -64.5312,5.9424 45.8208,26.4576 m 18.7104,-32.4 2.6208,1.5072 m -48.4416,-27.9648 -10.9632,18.9792 m 16.8192,-29.1264 -2.6208,-1.5168 m 45.2064,39.6288 5.856,-10.1472 m -22.6752,39.2832 5.856,-10.1472 m -8.4768,8.6304 2.6208,1.5168 m 22.6752,-39.2832 -2.6208,-1.5072 m 0,0 1.8912,-3.2736 m 0,0 -45.8208,-26.4576 m 0,0 -1.8912,3.2736 m -19.44,27.6192 -5.856,10.1472 m 22.6752,-39.2832 -5.856,10.1472 m -162.9024,-29.4912 v 21.9168 m -199.0944,-8.9952 v -21.9264 m 3.024,0 v -11.712 m 16.0704,-21.7824 v 3.7728 m 322.6464,45.5616 -2.9184,-0.7776 m -86.8224,31.3536 v -3.7824 m -52.9056,-45.3504 h -3.0336 m -193.0368,-8.9952 h -3.024 m 0,45.3504 h 3.024 m -55.929596,-45.3504 h -3.0336 m 3.0336,45.3504 v 3.7824 m 248.966396,5.2128 h 3.0336 m -199.0944,-54.3456 v -3.7824 m 19.0944,-14.2272 h -3.0336 m 0,0 v 11.7216 m 0,0 h 3.0336 m 307.9872,76.8672 2.9184,0.7872 m -78,-50.6496 h 3.024 M 82.396334,1218.5774 v 3.7824 m -3.0336,33.6384 v 11.712 m 255.033596,-40.128 v 3.7728 m -199.0944,-12.7776 H 82.396334 m 307.929596,12.7776 h -3.024 m 86.8224,17.7792 0.9792,-3.6576 m -87.8016,31.2288 h 3.024 M 79.362734,1234.0718 h 3.0336 m 0,21.9264 h -3.0336 m 310.963196,8.9952 h -3.024 m -307.939196,2.7168 h 3.0336 M 387.30193,1231.355 v -3.7728 m 35.712,7.8528 -2.928,-0.7872 m 45.216,59.0784 3.0432,-11.3184 m -44.352,-50.6208 -0.9792,3.648 m -91.6512,7.6416 h 3.0336 m 75.8976,39.8208 51.12,13.6896 m -41.328,-61.9392 -3.024,11.328 m -85.6992,19.0176 v 11.712 m 136.9824,5.7024 -2.928,-0.7872 m -57.0624,-3.1584 2.9184,0.7776 m 0,0 -0.9792,3.6576 m 63.7152,-21.6672 3.0336,-11.3184 m -142.6464,26.7936 v 3.7824 m 85.584,-33.7344 -5.6736,21.1776 m 60.7968,-22.4544 -51.1104,-13.6896 m -89.5968,48.7008 h 52.9056 m 0,-52.9056 h -52.9056 m -251.999996,43.9104 h 52.905596 m 0,0 v -3.7824 m 199.0944,-2.7168 h -3.0336 m 58.9632,-21.9168 v -11.7216 m -252,36.3552 v -11.712 m 0,0 h -3.024 m 0,-21.9264 h 3.024 m 278.736,11.904 2.9184,0.7776 m 45.4368,34.8672 5.6736,-21.1776 m 0,0 2.9184,0.7872 M 79.362734,1222.3598 v 11.712 m 334.943996,33.8592 -2.928,-0.7872 m 50.0352,29.4432 0.9696,-3.648 M 82.396334,1234.0718 v 21.9264 m 304.905596,8.9952 v -21.9168 m 24.0768,24.0672 -3.024,11.3184 m -76.992,-47.1072 v 11.7216 m 58.9632,33.6288 v -11.712 M 79.362734,1162.0718 h 3.0336 m 52.905596,37.4208 v -3.7824 m 0,0 h 3.024 m 0,0 v -11.712 m 0,0 h -3.024 m 72,32.0736 h 3.024 m -75.024,-32.0736 v -21.9264 m 19.0944,75.9264 h -3.0336 m 55.9392,11.712 h 3.024 m 157.0368,-99.3504 v 11.712 m -88.0608,20.5056 h -52.9056 m 140.9664,-20.5056 h 3.0336 m -216,87.6384 v 3.7824 m 52.9056,-52.9152 h -52.9056 m -75.033596,-50.2176 v 11.712 m 130.963196,75.9264 h -3.024 m 3.024,11.712 v -11.712 m 0,-21.9264 v -11.7216 m 13.0368,15.648 v 11.712 m 0,-33.6384 h 3.0336 m -3.0336,33.6384 h 3.0336 M 82.396334,1146.5774 v 3.7824 m 0,45.3504 v 3.7824 m 55.929596,-49.1328 h -3.024 m 0,0 v -3.7824 m 91.0944,51.4944 v 21.9264 m 0,-37.4208 v 3.7824 m -143.999996,-2.3616 h -3.0336 m 55.939196,-21.9264 h 3.024 m -55.929596,37.4208 h 52.905596 m 3.024,-37.4208 v -11.712 m 144,81.3504 v -11.712 m -75.024,33.4944 v -3.7824 m -127.939196,-54 h 3.0336 m 52.905596,-49.1328 H 82.396334 m 68.966396,91.4208 v 11.712 m 58.9632,-45.36 h -3.024 m 72,15.648 v -21.9264 m -52.9056,21.9264 h -3.0336 m 58.9632,-21.9264 v -11.712 m 88.0704,-36 h -3.0336 m 3.0336,-3.7824 v 3.7824 m 0,11.712 v 21.9264 m -219.0336,65.712 h 3.0336 m 127.9296,-63.3504 h -3.024 m -196.905596,-24.288 v 21.9264 m 287.999996,0 h -3.0336 m 0,0 v 11.712 m 0,0 h 3.0336 m -88.0704,24.288 h -3.024 m -124.9056,-3.9264 v 21.9264 m 72,-2.5056 h 52.9056 M 79.362734,1183.9982 v 11.712 m 143.999996,-9.3504 v 11.712 m 3.0336,-11.712 h -3.0336 m 55.9392,45.3504 h 3.024 m -75.024,6.288 v -21.9264 m 0,-11.7216 v -3.7728 m 19.0944,31.1328 v 3.7824 m 52.9056,-37.4208 h 3.024 m -3.024,-11.712 v -3.7824 M 82.396334,1150.3598 h -3.0336 m 199.939196,85.1328 v -3.7824 m -124.9056,21.7824 h 52.9056 m 216,-91.4208 h 3.024 m -216,-18 v -11.7216 m -3.024,-3.7728 h -52.9056 m 68.9664,-14.2176 v 11.712 m 199.9392,24.288 v -3.7824 m -68.976,-2.5056 v -11.7216 m -127.9296,-6.2784 v 21.9264 m 196.9056,-1.4208 h -52.9056 m 55.9296,49.1328 v -11.712 m -130.9632,-18 v 11.712 m 75.0336,21.7824 h 52.9056 m -68.976,-21.7824 v -11.712 m -55.9296,15.4944 h 52.9056 m -196.9056,-52.9152 v 3.7728 m 72,-21.7728 v 3.7824 m 124.9056,51.6384 v -21.9264 m -52.9056,-15.4944 v 3.7728 m 55.9296,33.648 h -3.024 m 3.024,-33.648 h -3.024 m -52.9056,11.7216 v 21.9264 m -144,-21.9264 v 21.9264 m -3.0336,11.712 h 3.0336 m 0,0 v 3.7824 m 216,14.2176 v 3.7824 m -144,-85.1328 h -3.0336 m -68.9664,51.6384 h -3.0336 m 3.0336,-33.648 h -3.0336 m 72,-6.2784 h 3.0336 m -3.0336,21.9264 v 11.712 m 72,-27.36 v 11.7216 m -72,15.6384 h 3.0336 m 196.9056,24.288 v -21.9264 m -72,15.6384 h 3.024 m -144,-11.712 h -3.024 m 19.0944,-6.288 v 3.7824 m 196.9056,32.2176 h 3.024 m -130.9632,-18 h 3.0336 m 52.9056,-45.36 v -3.7728 m -199.9392,37.4208 v 11.712 m 55.9392,-33.6384 h 3.024 m 0,-11.7216 h -3.024 m 19.0944,31.1424 h 52.9056 m 0,0 v -3.7824 m 19.0944,18 v 3.7824 m 124.9056,18 v -3.7824 m -216,-63.36 v -3.7728 m 19.0944,19.4208 h -3.0336 m 202.9632,14.0736 v -11.712 m -147.024,9.3504 h 3.024 m -75.024,6.288 v -21.9264 m 219.024,39.9264 h -3.024 m -127.9392,-39.9264 h 3.0336 m 0,-11.7216 h -3.0336 m 3.0336,33.648 h -3.0336 m -144,-33.648 v 11.7216 m 0,0 h 3.0336 m 196.9056,0 h 3.024 m -3.024,-15.4944 h -52.9056 m -144,52.9152 h 52.9056 m 0,0 v -3.7824 m 3.024,0 v -11.712 m 216,-15.6384 h -3.024 m -216,27.3504 h 3.024 m 140.976,3.7824 v -3.7824 m -216,-54 h 3.024 m 0,-11.712 h -3.024 m 147.024,36 h -3.024 m 91.0944,-69.6384 h -3.0336 m -88.0608,47.712 h 3.024 M 82.396334,1111.9982 h -3.0336 m 55.939196,15.4944 v -3.7824 m 0,-49.1328 H 82.396334 m 215.999996,-14.2272 h -3.0336 m 0,45.36 h 3.0336 m 0,3.7824 h 52.9056 m -212.976,-19.4208 v -11.712 m 216,15.6384 h -3.024 m -72,20.3616 v -3.7824 m 0,0 h -52.9056 m 124.9056,-38.5056 h 3.024 m 68.976,2.5056 h -52.9056 m 0,15.4944 v 21.9264 m -72,-39.9264 v 21.9264 m 72,29.712 v 3.7824 m -287.999996,0 h 52.905596 m 232.0608,-37.4208 h 3.0336 m 0,21.9264 h -3.0336 m -287.999996,0 v 11.712 m 219.033596,-67.1328 v 3.7728 m -3.0336,33.648 v 11.712 m 3.0336,0 v 3.7824 m -3.0336,-49.1424 v 11.7216 m -13.0368,54 v -11.712 m 68.976,-4.8672 v -3.7824 m -68.976,8.6496 h -3.024 m 91.0944,13.1328 h 52.9056 M 82.396334,1074.5774 v 3.7824 m 0,45.3504 v 3.7824 m 343.929596,-49.1328 h -3.024 m 0,49.1328 v -3.7824 m -284.976,0 v -11.712 m -55.929596,-33.6384 h -3.0336 m 343.939196,11.712 h 3.024 m 0,0 v -11.712 m -343.929596,11.712 v 21.9264 m 287.999996,-37.4208 v 3.7824 m 55.9296,45.3504 v -11.712 m -346.963196,11.712 h 3.0336 m 52.905596,-33.6384 h 3.024 m 0,-11.712 h -3.024 m 0,0 v -3.7824 m 216,31.1328 h 3.024 m -219.024,6.288 v -21.9264 m 144,57.9264 v -21.9264 m 19.0944,-32.0736 h -3.0336 m 58.9632,11.712 v -11.712 m -3.024,0 v -21.9264 m 72,51.6384 h 3.024 M 79.362734,1078.3598 v 11.712 m 0,0 h 3.0336 m 199.929596,69.6384 v -11.712 m 144,-36 h -3.024 m -55.9392,0 v 11.712 m 55.9392,-45.3504 v -3.7824 m -127.9392,-2.5056 h 3.0336 m 68.9664,6.288 v 11.712 m 55.9392,21.9264 v -21.9264 m -55.9392,33.6384 h 3.0336 m -19.0944,-67.1328 h -52.9056 m 72,-54 v 3.7824 m -3.0336,11.712 h 3.0336 m -3.0336,21.9264 v 11.712 m -216,8.64 v 11.7216 m 75.0336,-33.4944 v 3.7824 m 144,9.3504 v 3.7824 m -219.0336,16.5792 h 3.0336 m 199.9296,0 v -11.7216 m -147.024,49.1424 v -3.7824 m 3.024,-33.6384 v -11.7216 m 160.0704,-42.2784 v 21.9264 m -160.0704,54 h -3.024 m 19.0944,-39.9264 v 21.9264 m 140.9664,-24.288 h 3.0336 m -163.0944,8.64 v -3.7728 m -52.9056,15.4944 v 21.9264 m 55.9296,-33.648 h -3.024 m 19.0944,-17.9904 h -3.0336 m -68.9664,63.3504 v 3.7824 m 72,-21.7824 v 3.7824 m 52.9056,-3.7824 h 3.024 m 0,0 v -11.712 m 88.0704,-36 h -3.0336 m 55.9392,11.712 h 3.024 m -199.9296,39.7824 h 52.9056 m -52.9056,-15.4944 h -3.0336 m 199.9392,-20.5056 v -3.7824 m 3.024,-11.712 h -3.024 m -271.9392,54 v 11.712 m 271.9392,-65.712 v -21.9264 m -72,42.2784 v -3.7728 m -144,15.4944 h 3.024 m 72,-29.712 h -3.024 m 147.024,9.3504 v -11.712 m -219.024,65.712 h 3.024 m 13.0368,-63.3504 v 11.712 m 55.9392,-15.4944 h -52.9056 m 52.9056,52.9152 v -3.7824 m 91.0944,-81.3504 h -3.0336 m 55.9392,11.712 h 3.024 m 0,0 v -11.712 m 0,0 h -3.024 m -212.976,99.3504 v -11.712 m 157.0368,-87.6384 v 11.712 m 3.0336,37.4208 h 52.9056 m 0,-49.1328 v -3.7824 m -268.9056,54 v 3.7728 m 268.9056,-57.7728 h -52.9056 m -91.0944,39.7824 v -3.7824 m 75.024,21.7728 h -3.024 m -199.9392,45.36 h 3.0336 m 0,-11.712 h -3.0336 m 3.0336,15.4944 h 52.9056 m 16.0608,-33.4944 v 11.712 m 0,0 h 3.0336 m -19.0944,-31.1328 h -52.9056 m 68.9664,-2.5056 h 3.0336 m 55.9296,21.9264 h -3.024 m 0,0 v -21.9264 m 3.024,0 v -11.712 m -127.9296,17.9904 h -3.0336 m 127.9392,-6.2784 h 3.024 m -75.024,39.9264 v -21.9264 m 144,-72 h 3.024 m 0,-11.7216 h -3.024 m -196.9056,33.648 h -3.0336 m -68.966396,18 h -3.0336 m 219.033596,-2.5056 h 52.9056 m -199.9392,-37.4208 h 3.0336 m 196.9056,21.9264 v -21.9264 m -144,-15.4944 h -52.9056 m 72,-18 v 3.7824 m -19.0944,51.6384 v -21.9264 m 19.0944,-29.712 h -3.0336 m -68.9664,14.2176 v 3.7728 m 68.9664,-6.2784 h 3.0336 m -147.033596,24.288 v 11.712 m 0,0 h 3.0336 m 140.966396,-47.712 v 11.712 m 72,18 h 3.0336 m -215.999996,51.6384 v 3.7824 m 71.999996,-21.7824 v 3.7824 m -16.0704,14.2176 v -11.712 m 216,-18 h -3.024 m -271.939196,29.712 h 3.0336 m 0,3.7824 h 52.905596 m 216,-18 v -3.7824 m -196.9056,-33.6384 v 21.9264 m 52.9056,15.4944 v -3.7824 m 3.024,-11.712 h -3.024 m -55.9392,0 v 11.712 m -68.966396,-31.1328 v 3.7824 m 124.905596,27.3504 h 3.024 M 82.396334,1006.3598 h -3.0336 m 58.963196,33.6384 h -3.024 m 163.0944,-39.9264 v 21.9264 m 55.9296,11.712 v -11.712 m -55.9296,-33.648 h -3.0336 m -160.0608,51.648 v -21.9264 m 219.024,-18 v -11.7216 m -55.9296,33.648 h -3.0336 m -160.0608,-19.4208 H 82.396334 m 215.999996,-18 v 3.7728 m 0,45.36 v 3.7824 M 82.396334,1018.0718 v 21.9264 m 55.929596,-21.9264 v -11.712 m 212.976,27.3504 h 3.024 m -3.024,-49.1328 h -52.9056 m -144,3.7728 h -3.0336 m 0,0 v 11.7216 m 58.9632,33.6384 v -11.712 m 140.976,-33.648 v -3.7728 m -196.9056,52.9152 h 52.9056 m 0,-37.4208 h 3.024 m 0,0 v -11.7216 m 0,0 h -3.024 m -72,29.7216 h 3.024 m 157.0368,3.9264 v 11.712 m 0,0 h 3.0336 m -91.0944,-45.36 v -3.7728 m -68.976,21.7824 h -3.024 m 0,49.1328 v -3.7824 m 160.0608,-63.36 v 11.7216 m -144,33.6384 h 3.0336 m -75.033596,6.288 v 11.712 m 55.939196,-45.3504 v -3.7824 m 0,49.1328 h 3.024 m 140.976,-36 h 3.024 m -55.9296,-33.6384 v 21.9264 m 52.9056,0 v -21.9264 m -52.9056,33.6384 v 3.7824 m 52.9056,-52.9152 h -52.9056 m 55.9296,3.7824 h -3.024 m 0,11.712 h 3.024 m -3.024,37.4208 v -3.7824 m -52.9056,-11.712 h -3.0336 m 3.0336,15.4944 h 52.9056 m -55.9392,-3.7824 h 3.0336 m 55.9296,-11.712 h -3.024 m 3.024,-21.9264 v -11.712 m -58.9632,33.6384 v 11.712 m 55.9392,-45.3504 v -3.7824 m 3.024,49.1328 v -11.712 m -137.62851,61.1904 a 4.1154857,4.1154857 0 0 1 -4.11549,4.1155 4.1154857,4.1154857 0 0 1 -4.11548,-4.1155 4.1154857,4.1154857 0 0 1 4.11548,-4.1155 4.1154857,4.1154857 0 0 1 4.11549,4.1155 m 0.048,143.952 a 4.1154857,4.1154857 0 0 1 -4.11548,4.1155 4.1154857,4.1154857 0 0 1 -4.11549,-4.1155 4.1154857,4.1154857 0 0 1 4.11549,-4.1155 4.1154857,4.1154857 0 0 1 4.11548,4.1155 m 224.63999,-144.24 a 4.1154857,4.1154857 0 0 1 -4.11549,4.1155 4.1154857,4.1154857 0 0 1 -4.11548,-4.1155 4.1154857,4.1154857 0 0 1 4.11548,-4.1155 4.1154857,4.1154857 0 0 1 4.11549,4.1155 m -57.59998,166.752 a 4.1154857,4.1154857 0 0 1 -4.11548,4.1155 4.1154857,4.1154857 0 0 1 -4.11549,-4.1155 4.1154857,4.1154857 0 0 1 4.11549,-4.1155 4.1154857,4.1154857 0 0 1 4.11548,4.1155 m 174.91199,42.528 a 4.1154857,4.1154857 0 0 1 -4.11549,4.1155 4.1154857,4.1154857 0 0 1 -4.11548,-4.1155 4.1154857,4.1154857 0 0 1 4.11548,-4.1155 4.1154857,4.1154857 0 0 1 4.11549,4.1155 m 493.32844,-34.8836 a 4.1154857,4.1154857 0 0 1 4.11549,-4.1155 4.1154857,4.1154857 0 0 1 4.11548,4.1155 4.1154857,4.1154857 0 0 1 -4.11548,4.1155 4.1154857,4.1154857 0 0 1 -4.11549,-4.1155 m -0.048,-143.952 a 4.1154857,4.1154857 0 0 1 4.11549,-4.1155 4.1154857,4.1154857 0 0 1 4.11548,4.1155 4.1154857,4.1154857 0 0 1 -4.11548,4.1155 4.1154857,4.1154857 0 0 1 -4.11549,-4.1155 m -224.64001,144.24 a 4.1154857,4.1154857 0 0 1 4.11548,-4.1155 4.1154857,4.1154857 0 0 1 4.11549,4.1155 4.1154857,4.1154857 0 0 1 -4.11549,4.1154 4.1154857,4.1154857 0 0 1 -4.11548,-4.1154 m 57.6,-166.752 a 4.1154857,4.1154857 0 0 1 4.11549,-4.1155 4.1154857,4.1154857 0 0 1 4.11548,4.1155 4.1154857,4.1154857 0 0 1 -4.11548,4.1155 4.1154857,4.1154857 0 0 1 -4.11549,-4.1155 m -174.91199,-42.528 a 4.1154857,4.1154857 0 0 1 4.11549,-4.1155 4.1154857,4.1154857 0 0 1 4.11549,4.1155 4.1154857,4.1154857 0 0 1 -4.11549,4.1155 4.1154857,4.1154857 0 0 1 -4.11549,-4.1155 m -31.36233,489.9036 a 4.0863733,4.0863733 0 0 1 4.08637,-4.0864 4.0863733,4.0863733 0 0 1 4.08637,4.0864 4.0863733,4.0863733 0 0 1 -4.08637,4.0863 4.0863733,4.0863733 0 0 1 -4.08637,-4.0863 m 48.12204,-0.1429 a 4.0863733,4.0863733 0 0 1 4.08637,-4.0864 4.0863733,4.0863733 0 0 1 4.08637,4.0864 4.0863733,4.0863733 0 0 1 -4.08637,4.0863 4.0863733,4.0863733 0 0 1 -4.08637,-4.0863 m -27.21444,-118.9593 -2.6208,-1.5168 m 10.9632,-18.9792 2.6208,1.5072 m 5.856,-10.1472 -2.6208,-1.5072 m 0,0 1.8912,-3.2736 m -45.8208,-26.4576 -1.8912,3.2736 m -8.4768,8.6304 2.6208,1.5168 m 0,0 -10.9632,18.9792 m 64.5312,-5.9424 -45.8208,-26.4576 m -18.7104,32.4 -2.6208,-1.5072 m 48.4416,27.9648 10.9632,-18.9792 m -16.8192,29.1264 2.6208,1.5168 m -45.2064,-39.6288 -5.856,10.1472 m 22.6752,-39.2832 -5.856,10.1472 m 8.4768,-8.6304 -2.6208,-1.5168 m -22.6752,39.2832 2.6208,1.5072 m 0,0 -1.8912,3.2736 m 0,0 45.8208,26.4576 m 0,0 1.8912,-3.2736 m 19.44,-27.6192 5.856,-10.1472 m -22.6752,39.2832 5.856,-10.1472 m 162.9024,29.4912 v -21.9168 m 199.0944,8.9952 v 21.9264 m -3.024,0 v 11.712 m -16.0704,21.7824 v -3.7728 m -322.6464,-45.5616 2.9184,0.7776 m 86.8224,-31.3536 v 3.7824 m 52.9056,45.3504 h 3.0336 m 193.0368,8.9952 h 3.024 m 0,-45.3504 h -3.024 m 55.92957,45.3504 h 3.0336 m -3.0336,-45.3504 v -3.7824 m -248.96637,-5.2128 h -3.0336 m 199.0944,54.3456 v 3.7824 m -19.0944,14.2272 h 3.0336 m 0,0 v -11.7216 m 0,0 h -3.0336 m -307.9872,-76.8672 -2.9184,-0.7872 m 78,50.6496 h -3.024 m 307.92957,24.4992 v -3.7824 m 3.0336,-33.6384 v -11.712 m -255.03357,40.128 v -3.7728 m 199.0944,12.7776 h 52.90557 m -307.92957,-12.7776 h 3.024 m -86.8224,-17.7792 -0.9792,3.6576 m 87.8016,-31.2288 h -3.024 m 310.96317,42.6336 h -3.0336 m 0,-21.9264 h 3.0336 m -310.96317,-8.9952 h 3.024 m 307.93917,-2.7168 h -3.0336 m -304.90557,36.3552 v 3.7728 m -35.712,-7.8528 2.928,0.7872 m -45.216,-59.0784 -3.0432,11.3184 m 44.352,50.6208 0.9792,-3.648 m 91.6512,-7.6416 h -3.0336 m -75.8976,-39.8208 -51.12,-13.6896 m 41.328,61.9392 3.024,-11.328 m 85.6992,-19.0176 v -11.712 m -136.9824,-5.7024 2.928,0.7872 m 57.0624,3.1584 -2.9184,-0.7776 m 0,0 0.9792,-3.6576 m -63.7152,21.6672 -3.0336,11.3184 m 142.6464,-26.7936 v -3.7824 m -85.584,33.7344 5.6736,-21.1776 m -60.7968,22.4544 51.1104,13.6896 m 89.5968,-48.7008 h -52.9056 m 0,52.9056 h 52.9056 m 251.99997,-43.9104 h -52.90557 m 0,0 v 3.7824 m -199.0944,2.7168 h 3.0336 m -58.9632,21.9168 v 11.7216 m 252,-36.3552 v 11.712 m 0,0 h 3.024 m 0,21.9264 h -3.024 m -278.736,-11.904 -2.9184,-0.7776 m -45.4368,-34.8672 -5.6736,21.1776 m 0,0 -2.9184,-0.7872 m 394.64637,38.8704 v -11.712 m -334.94397,-33.8592 2.928,0.7872 m -50.0352,-29.4432 -0.9696,3.648 m 379.98717,58.8672 v -21.9264 m -304.90557,-8.9952 v 21.9168 m -24.0768,-24.0672 3.024,-11.3184 m 76.992,47.1072 v -11.7216 m -58.9632,-33.6288 v 11.712 m 310.96317,102.9216 h -3.0336 m -52.90557,-37.4208 v 3.7824 m 0,0 h -3.024 m 0,0 v 11.712 m 0,0 h 3.024 m -72,-32.0736 h -3.024 m 75.024,32.0736 v 21.9264 m -19.0944,-75.9264 h 3.0336 m -55.9392,-11.712 h -3.024 m -157.0368,99.3504 v -11.712 m 88.0608,-20.5056 h 52.9056 m -140.9664,20.5056 h -3.0336 m 216,-87.6384 v -3.7824 m -52.9056,52.9152 h 52.9056 m 75.03357,50.2176 v -11.712 M 914.54394,1435.676 h 3.024 m -3.024,-11.712 v 11.712 m 0,21.9264 v 11.7216 m -13.0368,-15.648 v -11.712 m 0,33.6384 h -3.0336 m 3.0336,-33.6384 h -3.0336 m 143.99996,85.1328 v -3.7824 m 0,-45.3504 v -3.7824 m -55.92956,49.1328 h 3.024 m 0,0 v 3.7824 m -91.0944,-51.4944 v -21.9264 m 0,37.4208 v -3.7824 m 143.99996,2.3616 h 3.0336 m -55.93916,21.9264 h -3.024 m 55.92956,-37.4208 h -52.90556 m -3.024,37.4208 v 11.712 m -144,-81.3504 v 11.712 m 75.024,-33.4944 v 3.7824 m 127.93916,54 h -3.0336 m -52.90556,49.1328 h 52.90556 m -68.96636,-91.4208 v -11.712 m -58.9632,45.36 h 3.024 m -72,-15.648 v 21.9264 m 52.9056,-21.9264 h 3.0336 m -58.9632,21.9264 v 11.712 m -88.0704,36 h 3.0336 m -3.0336,3.7824 v -3.7824 m 0,-11.712 v -21.9264 m 219.0336,-65.712 h -3.0336 m -127.9296,63.3504 h 3.024 m 196.90556,24.288 v -21.9264 m -287.99996,0 h 3.0336 m 0,0 v -11.712 m 0,0 h -3.0336 m 88.0704,-24.288 h 3.024 m 124.9056,3.9264 v -21.9264 m -72,2.5056 h -52.9056 m 199.93916,51.4944 v -11.712 m -143.99996,9.3504 v -11.712 m -3.0336,11.712 h 3.0336 m -55.9392,-45.3504 h -3.024 m 75.024,-6.288 v 21.9264 m 0,11.7216 v 3.7728 m -19.0944,-31.1328 v -3.7824 m -52.9056,37.4208 h -3.024 m 3.024,11.712 v 3.7824 m 196.90556,32.2176 h 3.0336 m -199.93916,-85.1328 v 3.7824 m 124.9056,-21.7824 h -52.9056 m -216,91.4208 h -3.024 m 216,18 v 11.7216 m 3.024,3.7728 h 52.9056 m -68.9664,14.2176 v -11.712 m -199.9392,-24.288 v 3.7824 m 68.976,2.5056 v 11.7216 m 127.9296,6.2784 v -21.9264 m -196.9056,1.4208 h 52.9056 m -55.9296,-49.1328 v 11.712 m 130.9632,18 v -11.712 m -75.0336,-21.7824 h -52.9056 m 68.976,21.7824 v 11.712 m 55.9296,-15.4944 h -52.9056 m 196.9056,52.9152 v -3.7728 m -72,21.7728 v -3.7824 m -124.9056,-51.6384 v 21.9264 m 52.9056,15.4944 v -3.7728 m -55.9296,-33.648 h 3.024 m -3.024,33.648 h 3.024 m 52.9056,-11.7216 v -21.9264 m 144,21.9264 v -21.9264 m 3.0336,-11.712 h -3.0336 m 0,0 v -3.7824 m -216,-14.2176 v -3.7824 m 144,85.1328 h 3.0336 m 68.9664,-51.6384 h 3.0336 m -3.0336,33.648 h 3.0336 m -72,6.2784 h -3.0336 m 3.0336,-21.9264 v -11.712 m -72,27.36 v -11.7216 m 72,-15.6384 h -3.0336 m -196.9056,-24.288 v 21.9264 m 72,-15.6384 h -3.024 m 144,11.712 h 3.024 m -19.0944,6.288 v -3.7824 m -196.9056,-32.2176 h -3.024 m 130.9632,18 h -3.0336 m -52.9056,45.36 v 3.7728 m 199.9392,-37.4208 v -11.712 m -55.9392,33.6384 h -3.024 m 0,11.7216 h 3.024 m -19.0944,-31.1424 h -52.9056 m 0,0 v 3.7824 m -19.0944,-18 v -3.7824 m -124.9056,-18 v 3.7824 m 216,63.36 v 3.7728 m -19.0944,-19.4208 h 3.0336 m -202.9632,-14.0736 v 11.712 m 147.024,-9.3504 h -3.024 m 75.024,-6.288 v 21.9264 m -219.024,-39.9264 h 3.024 m 127.9392,39.9264 h -3.0336 m 0,11.7216 h 3.0336 m -3.0336,-33.648 h 3.0336 m 144,33.648 v -11.7216 m 0,0 h -3.0336 m -196.9056,0 h -3.024 m 3.024,15.4944 h 52.9056 m 144,-52.9152 h -52.9056 m 0,0 v 3.7824 m -3.024,0 v 11.712 m -216,15.6384 h 3.024 m 216,-27.3504 h -3.024 m -140.976,-3.7824 v 3.7824 m 216,54 h -3.024 m 0,11.712 h 3.024 m -147.024,-36 h 3.024 m -91.0944,69.6384 h 3.0336 m 88.0608,-47.712 h -3.024 m 199.92956,14.0736 h 3.0336 m -55.93916,-15.4944 v 3.7824 m 0,49.1328 h 52.90556 m -215.99996,14.2272 h 3.0336 m 0,-45.36 h -3.0336 m 0,-3.7824 h -52.9056 m 212.976,19.4208 v 11.712 m -216,-15.6384 h 3.024 m 72,-20.3616 v 3.7824 m 0,0 h 52.9056 m -124.9056,38.5056 h -3.024 m -68.976,-2.5056 h 52.9056 m 0,-15.4944 v -21.9264 m 72,39.9264 v -21.9264 m -72,-29.712 v -3.7824 m 287.99996,0 h -52.90556 m -232.0608,37.4208 h -3.0336 m 0,-21.9264 h 3.0336 m 287.99996,0 v -11.712 m -219.03356,67.1328 v -3.7728 m 3.0336,-33.648 v -11.712 m -3.0336,0 v -3.7824 m 3.0336,49.1424 v -11.7216 m 13.0368,-54 v 11.712 m -68.976,4.8672 v 3.7824 m 68.976,-8.6496 h 3.024 m -91.0944,-13.1328 h -52.9056 m 340.90556,52.9152 v -3.7824 m 0,-45.3504 v -3.7824 m -343.92956,49.1328 h 3.024 m 0,-49.1328 v 3.7824 m 284.976,0 v 11.712 m 55.92956,33.6384 h 3.0336 m -343.93916,-11.712 h -3.024 m 0,0 v 11.712 m 343.92956,-11.712 v -21.9264 m -287.99996,37.4208 v -3.7824 m -55.9296,-45.3504 v 11.712 m 346.96316,-11.712 h -3.0336 m -52.90556,33.6384 h -3.024 m 0,11.712 h 3.024 m 0,0 v 3.7824 m -216,-31.1328 h -3.024 m 219.024,-6.288 v 21.9264 m -144,-57.9264 v 21.9264 m -19.0944,32.0736 h 3.0336 m -58.9632,-11.712 v 11.712 m 3.024,0 v 21.9264 m -72,-51.6384 h -3.024 m 346.96316,45.3504 v -11.712 m 0,0 h -3.0336 M 842.54394,1513.964 v 11.712 m -144,36 h 3.024 m 55.9392,0 v -11.712 m -55.9392,45.3504 v 3.7824 m 127.9392,2.5056 h -3.0336 m -68.9664,-6.288 v -11.712 m -55.9392,-21.9264 v 21.9264 m 55.9392,-33.6384 h -3.0336 m 19.0944,67.1328 h 52.9056 m -72,54 v -3.7824 m 3.0336,-11.712 h -3.0336 m 3.0336,-21.9264 v -11.712 m 216,-8.64 v -11.7216 m -75.0336,33.4944 v -3.7824 m -144,-9.3504 v -3.7824 m 219.0336,-16.5792 h -3.0336 m -199.9296,0 v 11.7216 m 147.024,-49.1424 v 3.7824 m -3.024,33.6384 v 11.7216 m -160.0704,42.2784 v -21.9264 m 160.0704,-54 h 3.024 m -19.0944,39.9264 v -21.9264 m -140.9664,24.288 h -3.0336 m 163.0944,-8.64 v 3.7728 m 52.9056,-15.4944 v -21.9264 m -55.9296,33.648 h 3.024 m -19.0944,17.9904 h 3.0336 m 68.9664,-63.3504 v -3.7824 m -72,21.7824 v -3.7824 m -52.9056,3.7824 h -3.024 m 0,0 v 11.712 m -88.0704,36 h 3.0336 m -55.9392,-11.712 h -3.024 m 199.9296,-39.7824 h -52.9056 m 52.9056,15.4944 h 3.0336 m -199.9392,20.5056 v 3.7824 m -3.024,11.712 h 3.024 m 271.9392,-54 v -11.712 m -271.9392,65.712 v 21.9264 m 72,-42.2784 v 3.7728 m 144,-15.4944 h -3.024 m -72,29.712 h 3.024 m -147.024,-9.3504 v 11.712 m 219.024,-65.712 h -3.024 m -13.0368,63.3504 v -11.712 m -55.9392,15.4944 h 52.9056 m -52.9056,-52.9152 v 3.7824 m -91.0944,81.3504 h 3.0336 m -55.9392,-11.712 h -3.024 m 0,0 v 11.712 m 0,0 h 3.024 m 212.976,-99.3504 v 11.712 m -157.0368,87.6384 v -11.712 m -3.0336,-37.4208 h -52.9056 m 0,49.1328 v 3.7824 m 268.9056,-54 v -3.7728 m -268.9056,57.7728 h 52.9056 m 91.0944,-39.7824 v 3.7824 m -75.024,-21.7728 h 3.024 m 199.9392,-45.36 h -3.0336 m 0,11.712 h 3.0336 m -3.0336,-15.4944 h -52.9056 m -16.0608,33.4944 v -11.712 m 0,0 h -3.0336 m 19.0944,31.1328 h 52.9056 m -68.9664,2.5056 h -3.0336 m -55.9296,-21.9264 h 3.024 m 0,0 v 21.9264 m -3.024,0 v 11.712 m 127.9296,-17.9904 h 3.0336 m -127.9392,6.2784 h -3.024 m 75.024,-39.9264 v 21.9264 m -144,72 h -3.024 m 0,11.7216 h 3.024 m 196.9056,-33.648 h 3.0336 m 68.96636,-18 h 3.0336 m -219.03356,2.5056 h -52.9056 m 199.9392,37.4208 h -3.0336 m -196.9056,-21.9264 v 21.9264 m 144,15.4944 h 52.9056 m -72,18 v -3.7824 m 19.0944,-51.6384 v 21.9264 m -19.0944,29.712 h 3.0336 m 68.9664,-14.2176 v -3.7728 m -68.9664,6.2784 h -3.0336 m 147.03356,-24.288 v -11.712 m 0,0 h -3.0336 m -140.96636,47.712 v -11.712 m -72,-18 h -3.0336 m 215.99996,-51.6384 v -3.7824 m -71.99996,21.7824 v -3.7824 m 16.0704,-14.2176 v 11.712 m -216,18 h 3.024 m 271.93916,-29.712 h -3.0336 m 0,-3.7824 h -52.90556 m -216,18 v 3.7824 m 196.9056,33.6384 v -21.9264 m -52.9056,-15.4944 v 3.7824 m -3.024,11.712 h 3.024 m 55.9392,0 v -11.712 m 68.96636,31.1328 v -3.7824 M 917.56794,1639.964 h -3.024 m 127.92956,27.3504 h 3.0336 m -58.96316,-33.6384 h 3.024 m -163.0944,39.9264 v -21.9264 m -55.9296,-11.712 v 11.712 m 55.9296,33.648 h 3.0336 m 160.0608,-51.648 v 21.9264 m -219.024,18 v 11.7216 m 55.9296,-33.648 h 3.0336 m 160.0608,19.4208 h 52.90556 m -215.99996,18 v -3.7728 m 0,-45.36 v -3.7824 m 215.99996,19.4208 v -21.9264 m -55.92956,21.9264 v 11.712 m -212.976,-27.3504 h -3.024 m 3.024,49.1328 h 52.9056 m 144,-3.7728 h 3.0336 m 0,0 v -11.7216 m -58.9632,-33.6384 v 11.712 m -140.976,33.648 v 3.7728 m 196.9056,-52.9152 h -52.9056 m 0,37.4208 h -3.024 m 0,0 v 11.7216 m 0,0 h 3.024 m 72,-29.7216 h -3.024 m -157.0368,-3.9264 v -11.712 m 0,0 h -3.0336 m 91.0944,45.36 v 3.7728 m 68.976,-21.7824 h 3.024 m 0,-49.1328 v 3.7824 m -160.0608,63.36 v -11.7216 m 144,-33.6384 h -3.0336 m 75.03356,-6.288 v -11.712 m -55.93916,45.3504 v 3.7824 m 0,-49.1328 h -3.024 m -140.976,36 h -3.024 m 55.9296,33.6384 v -21.9264 m -52.9056,0 v 21.9264 m 52.9056,-33.6384 v -3.7824 m -52.9056,52.9152 h 52.9056 m -55.9296,-3.7824 h 3.024 m 0,-11.712 h -3.024 m 3.024,-37.4208 v 3.7824 m 52.9056,11.712 h 3.0336 m -3.0336,-15.4944 h -52.9056 m 55.9392,3.7824 h -3.0336 m -55.9296,11.712 h 3.024 m -3.024,21.9264 v 11.712 m 58.9632,-33.6384 v -11.712 m -55.9392,45.3504 v 3.7824 m -3.024,-49.1328 v 11.712 m 137.62854,-61.1904 a 4.1154857,4.1154857 0 0 1 4.11549,-4.1155 4.1154857,4.1154857 0 0 1 4.11548,4.1155 4.1154857,4.1154857 0 0 1 -4.11548,4.1155 4.1154857,4.1154857 0 0 1 -4.11549,-4.1155 m -0.048,-143.952 a 4.1154857,4.1154857 0 0 1 4.11548,-4.1155 4.1154857,4.1154857 0 0 1 4.11549,4.1155 4.1154857,4.1154857 0 0 1 -4.11549,4.1155 4.1154857,4.1154857 0 0 1 -4.11548,-4.1155 m -224.63999,144.24 a 4.1154857,4.1154857 0 0 1 4.11549,-4.1155 4.1154857,4.1154857 0 0 1 4.11548,4.1155 4.1154857,4.1154857 0 0 1 -4.11548,4.1155 4.1154857,4.1154857 0 0 1 -4.11549,-4.1155 m 57.59998,-166.752 a 4.1154857,4.1154857 0 0 1 4.11548,-4.1155 4.1154857,4.1154857 0 0 1 4.11549,4.1155 4.1154857,4.1154857 0 0 1 -4.11549,4.1155 4.1154857,4.1154857 0 0 1 -4.11548,-4.1155 m -174.91199,-42.528 a 4.1154857,4.1154857 0 0 1 4.11549,-4.1155 4.1154857,4.1154857 0 0 1 4.11548,4.1155 4.1154857,4.1154857 0 0 1 -4.11548,4.1155 4.1154857,4.1154857 0 0 1 -4.11549,-4.1155"
       transform="rotate(90,895.5321,899.27786)"
       style="fill:none;fill-opacity:0;stroke:#ff0000;stroke-width:0.378;stroke-linecap:round;stroke-linejoin:round;stroke-miterlimit:4;stroke-dasharray:none;stroke-opacity:1;filter:url(#filter4121)"
       id="circle730-5-9-0" /></g><g
     inkscape:label="彫刻"
     id="layer1"
     inkscape:groupmode="layer"
     style="display:inline" /></svg>
