<?xml version="1.0" encoding="UTF-8" standalone="no"?>
<svg
   xmlns:dc="http://purl.org/dc/elements/1.1/"
   xmlns:cc="http://creativecommons.org/ns#"
   xmlns:rdf="http://www.w3.org/1999/02/22-rdf-syntax-ns#"
   xmlns:svg="http://www.w3.org/2000/svg"
   xmlns="http://www.w3.org/2000/svg"
   xmlns:sodipodi="http://sodipodi.sourceforge.net/DTD/sodipodi-0.dtd"
   xmlns:inkscape="http://www.inkscape.org/namespaces/inkscape"
   inkscape:version="1.0 (4035a4fb49, 2020-05-01)"
   sodipodi:docname="bottom-middle-case.svg"
   id="svg6484"
   viewBox="0 0 165350 116930"
   height="29.700220cm"
   width="41.998900cm"
   version="1.1">
  <metadata
     id="metadata6490">
    <rdf:RDF>
      <cc:Work
         rdf:about="">
        <dc:format>image/svg+xml</dc:format>
        <dc:type
           rdf:resource="http://purl.org/dc/dcmitype/StillImage" />
        <dc:title>SVG Picture created as molecule_v2-brd.svg date 2021/07/11 23:45:58 </dc:title>
      </cc:Work>
    </rdf:RDF>
  </metadata>
  <defs
     id="defs6488" />
  <sodipodi:namedview
     pagecolor="#ffffff"
     bordercolor="#666666"
     borderopacity="1"
     objecttolerance="10"
     gridtolerance="10"
     guidetolerance="10"
     inkscape:pageopacity="0"
     inkscape:pageshadow="2"
     inkscape:window-width="1618"
     inkscape:window-height="1040"
     id="namedview6486"
     showgrid="false"
     inkscape:zoom="14.481547"
     inkscape:cx="905.54043"
     inkscape:cy="26.643752"
     inkscape:window-x="2976"
     inkscape:window-y="0"
     inkscape:window-maximized="0"
     inkscape:current-layer="g3642"
     inkscape:document-rotation="0" />
  <title
     id="title2">SVG Picture created as molecule_v2-brd.svg date 2021/07/11 23:45:58 </title>
  <desc
     id="desc4">Picture generated by PCBNEW </desc>
  <g
     id="g3642"
     transform="translate(-19505.775,-90141.775)">
    <path
       d="m 75608.5,90194.2 151.2,64.2 136.9,86.9 119.8,105 100.1,118.3 77.8,127 52.6,131 25,130.4 0.8,2346.9 -7006,-1.5 -14932,4 -1734.7,-4 -14931.9,4 -363.8,-0.4 -415.5,14 -458.8,33.3 -493.8,57.5 -520.4,86.7 -538.7,120.8 -548.6,159.8 -550.3,203.8 -543.5,252.7 -528.4,306.4 -256,175 -249,190.3 -241.1,206.2 -232.1,222.7 -222.1,239.9 -211,257.6 -198.9,276.1 -185.7,295 -171.5,314.7 -156.3,334.9 -140,355.7 -122.7,377.3 -7273,22379.6 28.5,156 61.6,122 87,96 104.3,77 229.4,119 109.3,56 95.2,62 13267.1,6852 1555.2,773 13266.9,6852 1529.8,797 13267,6852 192.5,118 198.7,99 202.7,71 204.7,32 h 22501.7 l 317.2,-72 243,-94 197.2,-106 179.6,-113 13266.5,-6853 1530,-797 13267,-6852 1555,-773 13267,-6852 287,-166 167,-124 49,-63 32,-72 31,-201 -7273,-22379.6 -122,-377.3 -140,-355.7 -157,-334.9 -171,-314.7 -186,-295 -199,-276.1 -211,-257.6 -222,-239.9 -232,-222.7 -241,-206.2 -249,-190.3 -256,-175 -528,-306.4 -544,-252.7 -550,-203.8 -549,-159.8 -539,-120.8 -520,-86.7 -494,-57.5 -458,-33.3 -416,-14 -364,0.4 -14931,4 -1735,-4 -14931.9,4 -1500.1,-0.3 -3,-2334.7 30.1,-157.8 64.2,-146.1 91.8,-132.1 112.8,-115.7 127.2,-97 135.1,-76.1 136.3,-52.9 131,-27.3 34339.5,2.9 619,18.1 606,44.3 591,71.2 575,99.8 558,128.7 538,159.8 516,191 493,224.5 470,257.9 442,294.7 415,331.6 385,369.7 354,409 321,449.9 286,491.9 249,534.5 8659,27214.1 59,185 30,166 v 150 l -30,135 -60,121 -90,110 -121,100 -150,92 v 0 l -45310,23391 -140.8,60 -170.4,49 -175.5,34 -155.7,14 h -25631 l -155.7,-14 -175.5,-34 -170.5,-49 -140.7,-60 -45302.8,-23388 -133,-88 -110,-97 -88,-107 -64,-118 -40,-129 -13,-142 14,-156 41,-170 8679,-27278.1 249,-534.5 286,-491.9 321,-449.9 354,-409 384,-369.7 416,-331.6 442,-294.7 469,-257.9 493,-224.5 517,-191 538,-159.8 557,-128.7 575,-99.8 592,-71.2 606,-44.3 619,-18.1 39772.1,-2.9 v 0 z"
       style="fill:#008400;fill-opacity:0;stroke:#008400;stroke-width:31.25;stroke-linecap:round;stroke-linejoin:round;stroke-miterlimit:4;stroke-dasharray:none;stroke-opacity:1"
       id="path4652-8-3-7" />
  </g>
</svg>
