<?xml version="1.0" encoding="UTF-8" standalone="no"?>
<svg
   xmlns:dc="http://purl.org/dc/elements/1.1/"
   xmlns:cc="http://creativecommons.org/ns#"
   xmlns:rdf="http://www.w3.org/1999/02/22-rdf-syntax-ns#"
   xmlns:svg="http://www.w3.org/2000/svg"
   xmlns="http://www.w3.org/2000/svg"
   xmlns:sodipodi="http://sodipodi.sourceforge.net/DTD/sodipodi-0.dtd"
   xmlns:inkscape="http://www.inkscape.org/namespaces/inkscape"
   version="1.1"
   width="420mm"
   height="297mm"
   viewBox="0 0 165354.33 116929.14"
   id="svg2574"
   sodipodi:docname="keys.svg"
   inkscape:version="1.0 (4035a4fb49, 2020-05-01)">
  <metadata
     id="metadata2580">
    <rdf:RDF>
      <cc:Work
         rdf:about="">
        <dc:format>image/svg+xml</dc:format>
        <dc:type
           rdf:resource="http://purl.org/dc/dcmitype/StillImage" />
        <dc:title>SVG Picture created as noname-brd.svg date 2021/06/13 22:34:52 </dc:title>
      </cc:Work>
    </rdf:RDF>
  </metadata>
  <defs
     id="defs2578" />
  <sodipodi:namedview
     units="mm"
     inkscape:document-rotation="0"
     pagecolor="#ffffff"
     bordercolor="#666666"
     borderopacity="1"
     objecttolerance="10"
     gridtolerance="10"
     guidetolerance="10"
     inkscape:pageopacity="0"
     inkscape:pageshadow="2"
     inkscape:window-width="1920"
     inkscape:window-height="1017"
     id="namedview2576"
     showgrid="false"
     inkscape:zoom="0.38663669"
     inkscape:cx="966.98116"
     inkscape:cy="1226.454"
     inkscape:window-x="-8"
     inkscape:window-y="-8"
     inkscape:window-maximized="1"
     inkscape:current-layer="g1073" />
  <title
     id="title2">SVG Picture created as noname-brd.svg date 2021/06/13 22:34:52 </title>
  <desc
     id="desc4">Picture generated by PCBNEW </desc>
  <g
     style="fill:#000000;fill-opacity:1;stroke:#000000;stroke-linecap:round;stroke-linejoin:round;stroke-opacity:1"
     id="g6" />
  <g
     style="fill:#000000;fill-opacity:0;stroke:#000000;stroke-width:-0.000393701;stroke-linecap:round;stroke-linejoin:round;stroke-opacity:1"
     id="g8" />
  <g
     style="fill:#000000;fill-opacity:0;stroke:#000000;stroke-width:39.3701;stroke-linecap:round;stroke-linejoin:round;stroke-opacity:1"
     id="g10" />
  <g
     style="fill:#000000;fill-opacity:0;stroke:#000000;stroke-width:39.3701;stroke-linecap:round;stroke-linejoin:round;stroke-opacity:1"
     id="g16" />
  <g
     style="fill:#000000;fill-opacity:0;stroke:#000000;stroke-width:39.3701;stroke-linecap:round;stroke-linejoin:round;stroke-opacity:1"
     id="g22" />
  <g
     style="fill:#000000;fill-opacity:0;stroke:#000000;stroke-width:39.3701;stroke-linecap:round;stroke-linejoin:round;stroke-opacity:1"
     id="g28" />
  <g
     style="fill:#000000;fill-opacity:0;stroke:#000000;stroke-width:39.3701;stroke-linecap:round;stroke-linejoin:round;stroke-opacity:1"
     id="g34" />
  <g
     style="fill:#000000;fill-opacity:0;stroke:#000000;stroke-width:39.3701;stroke-linecap:round;stroke-linejoin:round;stroke-opacity:1"
     id="g40" />
  <g
     style="fill:#000000;fill-opacity:0;stroke:#000000;stroke-width:39.3701;stroke-linecap:round;stroke-linejoin:round;stroke-opacity:1"
     id="g46" />
  <g
     style="fill:#000000;fill-opacity:0;stroke:#000000;stroke-width:39.3701;stroke-linecap:round;stroke-linejoin:round;stroke-opacity:1"
     id="g52" />
  <g
     style="fill:#000000;fill-opacity:0;stroke:#000000;stroke-width:39.3701;stroke-linecap:round;stroke-linejoin:round;stroke-opacity:1"
     id="g58" />
  <g
     style="fill:#000000;fill-opacity:0;stroke:#000000;stroke-width:39.3701;stroke-linecap:round;stroke-linejoin:round;stroke-opacity:1"
     id="g68" />
  <g
     style="fill:#000000;fill-opacity:0;stroke:#000000;stroke-width:39.3701;stroke-linecap:round;stroke-linejoin:round;stroke-opacity:1"
     id="g76" />
  <g
     style="fill:#000000;fill-opacity:0;stroke:#000000;stroke-width:39.3701;stroke-linecap:round;stroke-linejoin:round;stroke-opacity:1"
     id="g84" />
  <g
     style="fill:#000000;fill-opacity:0;stroke:#000000;stroke-width:39.3701;stroke-linecap:round;stroke-linejoin:round;stroke-opacity:1"
     id="g94" />
  <g
     style="fill:#000000;fill-opacity:0;stroke:#000000;stroke-width:39.3701;stroke-linecap:round;stroke-linejoin:round;stroke-opacity:1"
     id="g102" />
  <g
     style="fill:#000000;fill-opacity:0;stroke:#000000;stroke-width:39.3701;stroke-linecap:round;stroke-linejoin:round;stroke-opacity:1"
     id="g110" />
  <g
     style="fill:#000000;fill-opacity:0;stroke:#000000;stroke-width:39.3701;stroke-linecap:round;stroke-linejoin:round;stroke-opacity:1"
     id="g116" />
  <g
     style="fill:#000000;fill-opacity:0;stroke:#000000;stroke-width:39.3701;stroke-linecap:round;stroke-linejoin:round;stroke-opacity:1"
     id="g122" />
  <g
     style="fill:#000000;fill-opacity:0;stroke:#000000;stroke-width:39.3701;stroke-linecap:round;stroke-linejoin:round;stroke-opacity:1"
     id="g128" />
  <g
     style="fill:#000000;fill-opacity:0;stroke:#000000;stroke-width:39.3701;stroke-linecap:round;stroke-linejoin:round;stroke-opacity:1"
     id="g134" />
  <g
     style="fill:#000000;fill-opacity:0;stroke:#000000;stroke-width:39.3701;stroke-linecap:round;stroke-linejoin:round;stroke-opacity:1"
     id="g140" />
  <g
     style="fill:#000000;fill-opacity:0;stroke:#000000;stroke-width:39.3701;stroke-linecap:round;stroke-linejoin:round;stroke-opacity:1"
     id="g150" />
  <g
     style="fill:#000000;fill-opacity:0;stroke:#000000;stroke-width:39.3701;stroke-linecap:round;stroke-linejoin:round;stroke-opacity:1"
     id="g158" />
  <g
     style="fill:#000000;fill-opacity:0;stroke:#000000;stroke-width:39.3701;stroke-linecap:round;stroke-linejoin:round;stroke-opacity:1"
     id="g166" />
  <g
     style="fill:#000000;fill-opacity:0;stroke:#000000;stroke-width:39.3701;stroke-linecap:round;stroke-linejoin:round;stroke-opacity:1"
     id="g176" />
  <g
     style="fill:#000000;fill-opacity:0;stroke:#000000;stroke-width:39.3701;stroke-linecap:round;stroke-linejoin:round;stroke-opacity:1"
     id="g184" />
  <g
     style="fill:#000000;fill-opacity:0;stroke:#000000;stroke-width:39.3701;stroke-linecap:round;stroke-linejoin:round;stroke-opacity:1"
     id="g192" />
  <g
     style="fill:#000000;fill-opacity:0;stroke:#000000;stroke-width:39.3701;stroke-linecap:round;stroke-linejoin:round;stroke-opacity:1"
     id="g198" />
  <g
     style="fill:#000000;fill-opacity:0;stroke:#000000;stroke-width:39.3701;stroke-linecap:round;stroke-linejoin:round;stroke-opacity:1"
     id="g204" />
  <g
     style="fill:#000000;fill-opacity:0;stroke:#000000;stroke-width:39.3701;stroke-linecap:round;stroke-linejoin:round;stroke-opacity:1"
     id="g210" />
  <g
     style="fill:#000000;fill-opacity:0;stroke:#000000;stroke-width:39.3701;stroke-linecap:round;stroke-linejoin:round;stroke-opacity:1"
     id="g220" />
  <g
     style="fill:#000000;fill-opacity:0;stroke:#000000;stroke-width:39.3701;stroke-linecap:round;stroke-linejoin:round;stroke-opacity:1"
     id="g228" />
  <g
     style="fill:#000000;fill-opacity:0;stroke:#000000;stroke-width:39.3701;stroke-linecap:round;stroke-linejoin:round;stroke-opacity:1"
     id="g236" />
  <g
     style="fill:#000000;fill-opacity:0;stroke:#000000;stroke-width:39.3701;stroke-linecap:round;stroke-linejoin:round;stroke-opacity:1"
     id="g244" />
  <g
     style="fill:#000000;fill-opacity:0;stroke:#000000;stroke-width:39.3701;stroke-linecap:round;stroke-linejoin:round;stroke-opacity:1"
     id="g250" />
  <g
     style="fill:#000000;fill-opacity:0;stroke:#000000;stroke-width:39.3701;stroke-linecap:round;stroke-linejoin:round;stroke-opacity:1"
     id="g256" />
  <g
     style="fill:#000000;fill-opacity:0;stroke:#000000;stroke-width:39.3701;stroke-linecap:round;stroke-linejoin:round;stroke-opacity:1"
     id="g262" />
  <g
     style="fill:#000000;fill-opacity:0;stroke:#000000;stroke-width:39.3701;stroke-linecap:round;stroke-linejoin:round;stroke-opacity:1"
     id="g272" />
  <g
     style="fill:#000000;fill-opacity:0;stroke:#000000;stroke-width:39.3701;stroke-linecap:round;stroke-linejoin:round;stroke-opacity:1"
     id="g280" />
  <g
     style="fill:#000000;fill-opacity:0;stroke:#000000;stroke-width:39.3701;stroke-linecap:round;stroke-linejoin:round;stroke-opacity:1"
     id="g288" />
  <g
     style="fill:#000000;fill-opacity:0;stroke:#000000;stroke-width:39.3701;stroke-linecap:round;stroke-linejoin:round;stroke-opacity:1"
     id="g296" />
  <g
     style="fill:#000000;fill-opacity:0;stroke:#000000;stroke-width:39.3701;stroke-linecap:round;stroke-linejoin:round;stroke-opacity:1"
     id="g318" />
  <g
     style="fill:#000000;fill-opacity:0;stroke:#000000;stroke-width:39.3701;stroke-linecap:round;stroke-linejoin:round;stroke-opacity:1"
     id="g324" />
  <g
     style="fill:#000000;fill-opacity:0;stroke:#000000;stroke-width:39.3701;stroke-linecap:round;stroke-linejoin:round;stroke-opacity:1"
     id="g406" />
  <g
     style="fill:#000000;fill-opacity:0;stroke:#000000;stroke-width:39.3701;stroke-linecap:round;stroke-linejoin:round;stroke-opacity:1"
     id="g412" />
  <g
     style="fill:#000000;fill-opacity:0;stroke:#000000;stroke-width:39.3701;stroke-linecap:round;stroke-linejoin:round;stroke-opacity:1"
     id="g430" />
  <g
     style="fill:#000000;fill-opacity:0;stroke:#000000;stroke-width:39.3701;stroke-linecap:round;stroke-linejoin:round;stroke-opacity:1"
     id="g458" />
  <g
     style="fill:#000000;fill-opacity:0;stroke:#000000;stroke-width:39.3701;stroke-linecap:round;stroke-linejoin:round;stroke-opacity:1"
     id="g484" />
  <g
     style="fill:#000000;fill-opacity:0;stroke:#000000;stroke-width:39.3701;stroke-linecap:round;stroke-linejoin:round;stroke-opacity:1"
     id="g490" />
  <g
     style="fill:#000000;fill-opacity:0;stroke:#000000;stroke-width:39.3701;stroke-linecap:round;stroke-linejoin:round;stroke-opacity:1"
     id="g516" />
  <g
     style="fill:#000000;fill-opacity:0;stroke:#000000;stroke-width:39.3701;stroke-linecap:round;stroke-linejoin:round;stroke-opacity:1"
     id="g594" />
  <g
     style="fill:#000000;fill-opacity:0;stroke:#000000;stroke-width:39.3701;stroke-linecap:round;stroke-linejoin:round;stroke-opacity:1"
     id="g600" />
  <g
     style="fill:#000000;fill-opacity:0;stroke:#000000;stroke-width:39.3701;stroke-linecap:round;stroke-linejoin:round;stroke-opacity:1"
     id="g624" />
  <g
     style="fill:#000000;fill-opacity:0;stroke:#000000;stroke-width:39.3701;stroke-linecap:round;stroke-linejoin:round;stroke-opacity:1"
     id="g630" />
  <g
     style="fill:#000000;fill-opacity:0;stroke:#000000;stroke-width:59.0551;stroke-linecap:round;stroke-linejoin:round;stroke-opacity:1"
     id="g2562">
    <g
       transform="translate(24042.044,-8890.7757)"
       id="g1073">
      <g
         id="g634" />
      <g
         id="g636" />
      <g
         id="g638"
         style="fill:#840000;fill-opacity:0;stroke:#840000;stroke-width:59.0551;stroke-linecap:round;stroke-linejoin:round;stroke-opacity:1" />
      <g
         id="g790"
         style="fill:#840000;fill-opacity:0;stroke:#840000;stroke-width:78.7402;stroke-linecap:round;stroke-linejoin:round;stroke-opacity:1" />
      <g
         id="g794"
         style="fill:#840000;fill-opacity:1;stroke:#840000;stroke-width:0;stroke-linecap:round;stroke-linejoin:round;stroke-opacity:1" />
      <g
         id="g796"
         style="fill:#840000;fill-opacity:1;stroke:#840000;stroke-width:78.7402;stroke-linecap:round;stroke-linejoin:round;stroke-opacity:1" />
      <g
         id="g822"
         style="fill:#840000;fill-opacity:0;stroke:#840000;stroke-width:78.7402;stroke-linecap:round;stroke-linejoin:round;stroke-opacity:1" />
      <g
         id="g826"
         style="fill:#840000;fill-opacity:1;stroke:#840000;stroke-width:0;stroke-linecap:round;stroke-linejoin:round;stroke-opacity:1" />
      <g
         id="g828"
         style="fill:#840000;fill-opacity:1;stroke:#840000;stroke-width:78.7402;stroke-linecap:round;stroke-linejoin:round;stroke-opacity:1" />
      <g
         id="g990"
         style="fill:#840000;fill-opacity:0;stroke:#840000;stroke-width:78.7402;stroke-linecap:round;stroke-linejoin:round;stroke-opacity:1" />
      <g
         id="g994"
         style="fill:#840000;fill-opacity:1;stroke:#840000;stroke-width:0;stroke-linecap:round;stroke-linejoin:round;stroke-opacity:1" />
      <g
         id="g996"
         style="fill:#840000;fill-opacity:1;stroke:#840000;stroke-width:78.7402;stroke-linecap:round;stroke-linejoin:round;stroke-opacity:1" />
      <g
         id="g1732"
         style="fill:#840000;fill-opacity:0;stroke:#840000;stroke-width:78.7402;stroke-linecap:round;stroke-linejoin:round;stroke-opacity:1" />
      <g
         id="g1736"
         style="fill:#840000;fill-opacity:1;stroke:#840000;stroke-width:0;stroke-linecap:round;stroke-linejoin:round;stroke-opacity:1" />
      <g
         id="g1738"
         style="fill:#840000;fill-opacity:1;stroke:#840000;stroke-width:78.7402;stroke-linecap:round;stroke-linejoin:round;stroke-opacity:1" />
      <g
         id="g1748"
         style="fill:#840000;fill-opacity:0;stroke:#840000;stroke-width:78.7402;stroke-linecap:round;stroke-linejoin:round;stroke-opacity:1" />
      <g
         id="g1752"
         style="fill:#840000;fill-opacity:1;stroke:#840000;stroke-width:0;stroke-linecap:round;stroke-linejoin:round;stroke-opacity:1" />
      <g
         id="g1754"
         style="fill:#840000;fill-opacity:1;stroke:#840000;stroke-width:78.7402;stroke-linecap:round;stroke-linejoin:round;stroke-opacity:1" />
      <g
         id="g1772"
         style="fill:#840000;fill-opacity:0;stroke:#840000;stroke-width:78.7402;stroke-linecap:round;stroke-linejoin:round;stroke-opacity:1" />
      <g
         id="g1776"
         style="fill:#840000;fill-opacity:1;stroke:#840000;stroke-width:0;stroke-linecap:round;stroke-linejoin:round;stroke-opacity:1" />
      <g
         id="g1778"
         style="fill:#840000;fill-opacity:1;stroke:#840000;stroke-width:78.7402;stroke-linecap:round;stroke-linejoin:round;stroke-opacity:1" />
      <g
         id="g1994"
         style="fill:#840000;fill-opacity:0;stroke:#840000;stroke-width:78.7402;stroke-linecap:round;stroke-linejoin:round;stroke-opacity:1" />
      <g
         id="g1998"
         style="fill:#840000;fill-opacity:1;stroke:#840000;stroke-width:0;stroke-linecap:round;stroke-linejoin:round;stroke-opacity:1" />
      <g
         id="g2000"
         style="fill:#840000;fill-opacity:1;stroke:#840000;stroke-width:78.7402;stroke-linecap:round;stroke-linejoin:round;stroke-opacity:1" />
      <g
         id="g2026"
         style="fill:#840000;fill-opacity:0;stroke:#840000;stroke-width:78.7402;stroke-linecap:round;stroke-linejoin:round;stroke-opacity:1" />
      <g
         id="g2030"
         style="fill:#840000;fill-opacity:1;stroke:#840000;stroke-width:0;stroke-linecap:round;stroke-linejoin:round;stroke-opacity:1" />
      <g
         id="g2032"
         style="fill:#840000;fill-opacity:1;stroke:#840000;stroke-width:78.7402;stroke-linecap:round;stroke-linejoin:round;stroke-opacity:1" />
      <g
         id="g2112"
         style="fill:#840000;fill-opacity:0;stroke:#840000;stroke-width:78.7402;stroke-linecap:round;stroke-linejoin:round;stroke-opacity:1" />
      <g
         id="g2120"
         style="fill:#840000;fill-opacity:1;stroke:#840000;stroke-width:0;stroke-linecap:round;stroke-linejoin:round;stroke-opacity:1" />
      <g
         id="g2122"
         style="fill:#840000;fill-opacity:1;stroke:#840000;stroke-width:78.7402;stroke-linecap:round;stroke-linejoin:round;stroke-opacity:1" />
      <g
         id="g2492"
         style="fill:#840000;fill-opacity:0;stroke:#840000;stroke-width:78.7402;stroke-linecap:round;stroke-linejoin:round;stroke-opacity:1" />
      <g
         id="g2496"
         style="fill:#840000;fill-opacity:1;stroke:#840000;stroke-width:0;stroke-linecap:round;stroke-linejoin:round;stroke-opacity:1" />
      <g
         id="g2498"
         style="fill:#840000;fill-opacity:1;stroke:#840000;stroke-width:78.7402;stroke-linecap:round;stroke-linejoin:round;stroke-opacity:1" />
      <g
         id="g2544"
         style="fill:#840000;fill-opacity:0;stroke:#840000;stroke-width:78.7402;stroke-linecap:round;stroke-linejoin:round;stroke-opacity:1" />
      <g
         id="g2548"
         style="fill:#840000;fill-opacity:1;stroke:#840000;stroke-width:0;stroke-linecap:round;stroke-linejoin:round;stroke-opacity:1" />
      <g
         id="g2550"
         style="fill:#840000;fill-opacity:1;stroke:#840000;stroke-width:78.7402;stroke-linecap:round;stroke-linejoin:round;stroke-opacity:1" />
      <g
         id="g2558"
         style="fill:#840000;fill-opacity:0;stroke:#840000;stroke-width:78.7402;stroke-linecap:round;stroke-linejoin:round;stroke-opacity:1" />
      <g
         id="g2560" />
      <path
         id="path2556-1-9"
         style="fill:none;fill-opacity:0;stroke:#000000;stroke-width:39.3701;stroke-linecap:round;stroke-linejoin:round;stroke-miterlimit:4;stroke-dasharray:none;stroke-opacity:1"
         d="m 28830.442,43812.631 c -21.743,0 -39.37,-17.627 -39.37,-39.37 0,-21.743 17.627,-39.37 39.37,-39.37 21.743,0 39.37,17.627 39.37,39.37 0,21.743 -17.627,39.37 -39.37,39.37 z M 18622.84,26476.33 c -21.743,0 -39.37,-17.627 -39.37,-39.37 0,-21.743 17.627,-39.37 39.37,-39.37 21.743,0 39.37,17.627 39.37,39.37 0,21.743 -17.627,39.37 -39.37,39.37 z m 9720.801,16564.13 113,-168 168,-113 205,-41 205,41 168,113 113,168 41,205 -41,205 -113,168 -168,113 -205,41 -205,-41 -168,-113 -113,-168 -41,-205 z m -9349,-17504 113,168 42,205 -42,205 -113,168 -167,113 -205,41 -205,-41 -168,-113 -113,-168 -41,-205 41,-205 113,-168 168,-113 205,-41 205,41 z m -15810.0005,-4962 1703,-5241 5241.0005,1703 -1703.0005,5241 z m -16008.9995,729 1703,-5241 5240.9995,1703 -1703,5241 z m -8857,3021 1703,-5242 5241,1703 -1703,5242 z m 21821.99954,-802 -5241.00004,-1703 1702,-5241 5242,1703 z m -15892.99954,6791 5242,1703 -1703,5241 -5242,-1703 z m 14685.9995,-20862.9998 5241,1702.9998 -1703,5241 -5241,-1703 z M 79909.641,26223.46 l -5241,1703 1703,5242 5241,-1703 z m -80382.00046,-798 -1703.00004,5242 -5242,-1703 1703,-5242 z m 46493.00046,17570 -4344,3393 3393,4344 4344,-3393 z m -51280.0005,-27141 -5240.9995,-1703 1702.9995,-5240.9998 5241,1702.9998 z m 6132.00004,11850 1702.99996,-5241 5242,1703 -1703,5241 z m 44064.00046,5815 5241,-1703 -1703,-5241 -5241,1703 z m 20857,-8634 1703,5241 5242,-1703 -1703,-5241 z m -49105,-3752 -1703,5242 -5241.0005,-1703 1703.0005,-5242 z m 446,23696 -4344,-3393 3394,-4344 4344,3393 z m -31267,-25938 -5241,-1703 1703,-5242 5241,1703 z m 76982,-3037 5241,-1703 -1703,-5240.9998 -5241,1702.9998 z m -9435,-4701 1703,5241 5242,-1703 -1703,-5240.9998 z m -16560,41250 4343,-3394 -3393,-4344 -4344,3394 z m 28318,-29397 5242,-1703 -1703,-5241 -5242,1703 z m -12692,15932 -1703,-5242 -5241,1703 1703,5242 z m 13138,-8092 -5241,1703 1703,5241 5241,-1703 z m -13544,452 1703,5242 5241,-1703 -1703,-5242 z m -5932,-11868 -5241,1703 1703,5242 5241,-1703 z m -5688,25399 4344,-3393 -3393,-4344 -4344,3393 z m 11021,-15422 5241,-1703 -1703,-5241 -5241,1703 z m 5974,-5885 5241,-1703 -1703,-5241 -5241,1703 z m 12354,13735 5241,-1703 -1703,-5241 -5241,1703 z m 4226,-11230 5242,-1703 -1703,-5242 -5242,1703 z m -9023,2937 -1703,-5242 -5241,1703 1703,5242 z m 6715,-10073 5242,-1703 -1703,-5242 -5242,1703 z m -22557,3386 5241,-1703 -1703,-5241 -5241,1703 z m -28429,30126 -4344,-3394 3394,-4344 4344,3394 z m -28764.0005,-21557 5241,1703 -1703,5241 -5241,-1703 z m 14840,2850 5242.0005,1703 -1703,5242 -5242.0005,-1703 z m -1296,-2398 -1703,5242 -5241,-1703 1703.00004,-5242 z m 6054.0005,11697 4344,3393 -3394,4344 -4344.0005,-3393 z m -28648,-15069 -1703,5242 -5241,-1703 1703,-5242 z m 8873.9995,-3041 -1703,5241 -5240.9995,-1703 1703,-5241 z m 17320,1690 5241.0005,1703 -1703,5241 -5241.0005,-1703 z m 29697.5005,-92.431 c -21.743,0 -39.37,-17.627 -39.37,-39.37 0,-21.743 17.627,-39.37 39.37,-39.37 21.743,0 39.37,17.627 39.37,39.37 0,21.743 -17.627,39.37 -39.37,39.37 z m -486.5,-361.569 -41,-205 41,-206 113,-167 168,-113 205,-41 205,41 167,113 113,167 42,206 -42,205 -113,167 -167,113 -205,42 -205,-42 -168,-113 z m -13945,14831 328,145 334,133 338,122 343,109 345,98 350,86 352,74 354,61 356,50 358,36 359,25 359,11 h 360 l 359,-13 359,-26 358,-38 356,-50 354,-63 351,-75 349,-87 346,-100 342,-111 337,-123 334,-134 328,-146 323,-158 317,-168 311,-179 305,-190 297,-201 291,-211 283,-220 275,-231 267,-239 258,-249 249,-258 240,-266 231,-274 221,-283 v -12282 l -205,-262 -213,-256 -221,-248 -229,-241 -237,-234 -244,-225 -1740,-1256 -10,-6 -311,-171 -316,-160 -322,-149 -327,-138 -332,-127 -336,-116 -340,-104 -343,-92 -346,-80 -348,-68 -351,-57 -353,-44 -354,-32 -354,-20 -356,-8 -355,4 -355,17 -354,28 -353,41 -351,53 -350,65 -347,77 -344,88 -340,101 -337,112 -333,123 -329,135 -323,146 -319,157 -312,168 -307,178 -300,189 -294,199 -286,209 -279,219 -271,228 -264,237 -254,246 -247,255 -237,263 -227,271 -63,78 -62,78 -60,79 -60,79 -59,81 -58,81 -57,81 -57,82 -56,82 -56,82 -38,55 -188,299 -178,306 -166,312 -156,317 -145,323 v 8023 l 146,326 159,321 169,315 180,310 191,303 202,296 211,289 222,281 232,273 241,266 250,256 259,248 268,239 276,229 283,220 292,210 298,199 306,189 311,178 318,168 z"
         sodipodi:nodetypes="ssssssssssccccccccccccccccccccccccccccccccccccccccccccccccccccccccccccccccccccccccccccccccccccccccccccccccccccccccccccccccccccccccccccccccccccccccccccccccccccccccccccccccccccccccccccccccccccccccccccccccccccccccccccccccccccccccccccccccccccccccccsssssccccccccccccccccccccccccccccccccccccccccccccccccccccccccccccccccccccccccccccccccccccccccccccccccccccccccccccccccccccccccccccccccccccccccccccccccc" />
    </g>
  </g>
  <g
     style="fill:#ffffff;fill-opacity:0;stroke:#ffffff;stroke-width:78.7402;stroke-linecap:round;stroke-linejoin:round;stroke-opacity:1"
     id="g2564" />
  <g
     style="fill:#000000;fill-opacity:0;stroke:#000000;stroke-width:78.7402;stroke-linecap:round;stroke-linejoin:round;stroke-opacity:1"
     id="g2568">
    <g
       id="g2566" />
  </g>
  <g
     style="fill:#000000;fill-opacity:0;stroke:#000000;stroke-width:78.7402;stroke-linecap:round;stroke-linejoin:round;stroke-opacity:1"
     id="g2572">
    <g
       id="g2570" />
  </g>
</svg>
