<?xml version="1.0" encoding="UTF-8" standalone="no"?>
<svg
   xmlns:dc="http://purl.org/dc/elements/1.1/"
   xmlns:cc="http://creativecommons.org/ns#"
   xmlns:rdf="http://www.w3.org/1999/02/22-rdf-syntax-ns#"
   xmlns:svg="http://www.w3.org/2000/svg"
   xmlns="http://www.w3.org/2000/svg"
   xmlns:sodipodi="http://sodipodi.sourceforge.net/DTD/sodipodi-0.dtd"
   xmlns:inkscape="http://www.inkscape.org/namespaces/inkscape"
   inkscape:version="1.0 (4035a4fb49, 2020-05-01)"
   sodipodi:docname="middle-case.svg"
   id="svg6484"
   viewBox="0 0 165350 116930"
   height="29.700220cm"
   width="41.998900cm"
   version="1.1">
  <metadata
     id="metadata6490">
    <rdf:RDF>
      <cc:Work
         rdf:about="">
        <dc:format>image/svg+xml</dc:format>
        <dc:type
           rdf:resource="http://purl.org/dc/dcmitype/StillImage" />
      </cc:Work>
    </rdf:RDF>
  </metadata>
  <defs
     id="defs6488" />
  <sodipodi:namedview
     pagecolor="#ffffff"
     bordercolor="#666666"
     borderopacity="1"
     objecttolerance="10"
     gridtolerance="10"
     guidetolerance="10"
     inkscape:pageopacity="0"
     inkscape:pageshadow="2"
     inkscape:window-width="1618"
     inkscape:window-height="1040"
     id="namedview6486"
     showgrid="false"
     inkscape:zoom="0.64"
     inkscape:cx="479.30578"
     inkscape:cy="456.01277"
     inkscape:window-x="286"
     inkscape:window-y="0"
     inkscape:window-maximized="0"
     inkscape:current-layer="svg6484"
     inkscape:document-rotation="0" />
  <title
     id="title2">SVG Picture created as molecule_v2-brd.svg date 2021/07/11 23:45:58 </title>
  <desc
     id="desc4">Picture generated by PCBNEW </desc>
  <path
     d="m 3597.57,32550.5 -35,-60.7 -18.63,-74.7 5,-89.4 37.2,-103.2 743.64,-1440.7 -95.26,-61.7 -109.32,-55.8 -229.39,-119.3 -104.31,-76.5 -86.92,-96.2 -61.64,-122.5 -28.5,-155.2 7272.96,-22379.9697 122.7,-377.22 140,-355.75 156.3,-334.9 171.5,-314.66 185.7,-295.05 198.9,-276.04 211,-257.65 222.1,-239.88 232.1,-222.73 241.1,-206.2 249,-190.27 256,-174.97 528.4,-306.48 543.5,-252.67 550.3,-203.77 548.6,-159.82 538.7,-120.78 520.4,-86.69 493.8,-57.53 458.8,-33.29 415.5,-13.99 363.8,0.39 v -1621.37 l 14.2,-108.68 36.6,-81.77 50.8,-57.84 58.9,-37.89 108.8,-34.9 48.7,-3.99 14294.8,-2.99 49.8,3.99 108.8,34.9 57.9,37.89 51.8,57.84 35.6,81.76 15.2,108.69 v 1620.37 l 1734.7,3.99 v -1621.37 l 14.2,-108.68 36.6,-81.77 50.8,-57.84 59,-37.89 108.7,-34.9 48.8,-3.99 14294.8,-2.99 49.8,3.99 108.7,34.9 57.9,37.89 51.9,57.84 35.5,81.76 15.3,108.69 v 1620.37 l 18851.4,3.99 v -1621.37 l 14.3,-108.68 36.5,-81.77 50.9,-57.84 58.9,-37.89 108.7,-34.9 48.8,-3.99 14294.8,-2.99 49.8,3.99 108.8,34.9 57.9,37.89 51.8,57.84 35.6,81.76 15.2,108.69 v 1620.37 l 1734.7,3.99 v -1621.37 l 14.2,-108.68 36.6,-81.77 50.8,-57.84 58.9,-37.89 108.8,-34.9 48.8,-3.99 14294.8,-2.99 49.8,3.99 109,34.9 58,37.89 51,57.84 36,81.76 15,108.69 v 1620.37 l 364,-0.39 416,13.99 458,33.29 494,57.53 520,86.69 539,120.78 549,159.82 550,203.77 544,252.67 528,306.48 256,174.97 249,190.27 241,206.2 232,222.73 222,239.88 211,257.65 199,276.04 186,295.05 171,314.66 157,334.9 140,355.75 122,377.22 7273,22379.9597 -31,200.3 -32,72.5 -49,63.1 -167,124.1 -287,165.4 744,1440.8 37,103.1 5,89.4 -19,74.7 -35,60.7 -81,80.9 -41,25.9 -12701,6559 -46,19.3 -113,18.8 -69,-7.1 -72,-27.6 -70,-56.3 -63,-89.6 -743,-1439.9 -1555.3,773.3 743.3,1440.8 38,103.1 5,89.5 -19,74.7 -35,60.7 -81,80.8 -41,26 -12701.4,6558.9 -46.1,19.3 -112.6,18.9 -68.9,-7.1 -72.6,-27.6 -69.1,-56.4 -63.4,-89.6 -743.2,-1439.9 -1529.7,797.2 743.6,1440.8 37.2,103.1 5,89.4 -18.6,74.7 -35,60.7 -80.6,80.9 -41.5,25.9 -12701.2,6559 -46.1,19.3 -112.7,18.9 -68.8,-7.2 -72.6,-27.6 -69.1,-56.3 -63.4,-89.6 -743.2,-1439.9 -179.6,113 -197.2,106.7 -243,93.3 -317.2,72.5 H 48014.3 l -204.7,-32.3 -202.7,-70.9 -198.7,-99.1 -192.5,-117.4 -743.2,1439.9 -63.4,89.6 -69.1,56.3 -72.6,27.6 -68.9,7.2 -112.6,-18.9 -46.1,-19.3 -12701.2,-6559 -41.5,-25.9 -80.6,-80.9 -35,-60.7 -18.7,-74.7 5,-89.4 37.2,-103.1 743.7,-1440.8 -1529.8,-797.2 -743.1,1439.9 -63.4,89.6 -69.1,56.3 -72.6,27.7 -68.9,7.1 -112.6,-18.9 -46.1,-19.3 -12701.2,-6558.9 -41.5,-26 -80.7,-80.9 -35,-60.7 -18.6,-74.7 5,-89.4 37.2,-103.1 743.7,-1440.8 -1555.2,-773.3 -743.2,1439.9 -63.4,89.5 -69.1,56.4 -72.6,27.6 -68.8,7.1 -112.7,-18.8 -46.1,-19.3 -12701.19,-6559 -41.52,-25.9 z m 69194.031,24241.318 -172.825,50.41 -177.998,34.74 -157.917,14.329 H 46287.048 l -157.916,-14.329 -177.998,-34.74 -172.927,-50.41 -142.703,-61.646 -45947.60805,-24109.91 -134.89303,-91.335 -111.56566,-100.303 -89.25253,-110.303 -64.91094,-121.23 -40.56933,-133.291 -13.18503,-146.383 14.19927,-160.506 41.58356,-175.556 8802.53084,-28119.7759 252.5441,-550.9982 290.0707,-507.0833 325.5689,-463.787 359.0386,-421.6244 389.4656,-381.1115 421.921,-341.8354 448.291,-303.79642 475.676,-265.86052 500.017,-231.4295755 524.358,-196.8955345 545.658,-164.7325 564.928,-132.67255 583.184,-102.88049 600.426,-73.39771 614.625,-45.6674 627.811,-18.65868 87335.024,9.2778 627.81,18.65868 614.62,45.6674 599.41,73.39771 583.19,102.8805 565.94,132.67254 545.66,164.7325 523.34,196.8955348 500.02,231.4295752 476.69,265.86052 448.29,303.79642 420.91,341.8354 390.48,381.1115 359.04,421.6244 325.56,463.787 290.08,507.0833 252.54,550.9982 8782.25,28054.5211 59.84,190.402 30.42,171.536 v 154.32 l -30.42,138.858 -60.86,125.251 -92.29,113.292 -121.71,103.086 -152.14,94.634 -45954.705,24113.415 z"
     style="fill:none;fill-opacity:0;stroke:#000000;stroke-width:104.16666527;stroke-linecap:round;stroke-linejoin:round;stroke-miterlimit:4;stroke-dasharray:none;stroke-opacity:1"
     id="path4652-8-3-7" />
</svg>
