<?xml version="1.0" standalone="no"?>
<!DOCTYPE svg PUBLIC "-//W3C//DTD SVG 1.1//EN" "http://www.w3.org/Graphics/SVG/1.1/DTD/svg11.dtd">
<svg width="52mm" height="52mm" viewBox="-26 -26 52 52" xmlns="http://www.w3.org/2000/svg" version="1.1">
<title>OpenSCAD Model</title>
<path d="
M -25.75,-0 L -25.2552,5.02358 L -23.7899,9.8541 L -21.4103,14.3059 L -18.208,18.208 L -14.3059,21.4103
 L -9.8541,23.7899 L -5.02358,25.2552 L 0,25.75 L 5.02358,25.2552 L 9.8541,23.7899 L 14.3059,21.4103
 L 18.208,18.208 L 21.4103,14.3059 L 23.7899,9.8541 L 25.2552,5.02358 L 25.75,-0 L 25.2552,-5.02358
 L 23.7899,-9.8541 L 21.4103,-14.3059 L 18.208,-18.208 L 14.3059,-21.4103 L 9.8541,-23.7899 L 5.02358,-25.2552
 L 0,-25.75 L -5.02358,-25.2552 L -9.8541,-23.7899 L -14.3059,-21.4103 L -18.208,-18.208 L -21.4103,-14.3059
 L -23.7899,-9.8541 L -25.2552,-5.02358 z
M -19.6698,-10.3941 L -19.6602,-10.688 L -19.5934,-10.9743 L -19.472,-11.2422 L -19.3008,-11.4812 L -19.0861,-11.6822
 L -18.8364,-11.8375 L -18.5612,-11.9411 L -18.2711,-11.989 L -17.9772,-11.9794 L -17.6908,-11.9126 L -17.423,-11.7912
 L -17.184,-11.6199 L -16.983,-11.4053 L -16.8277,-11.1556 L -16.7241,-10.8804 L -16.6762,-10.5903 L -16.6858,-10.2964
 L -16.7526,-10.01 L -16.874,-9.74219 L -17.0452,-9.50317 L -17.2599,-9.30216 L -17.5096,-9.14688 L -17.7848,-9.0433
 L -18.0749,-8.9954 L -18.3688,-9.00502 L -18.6552,-9.07179 L -18.923,-9.19315 L -19.162,-9.36443 L -19.363,-9.57905
 L -19.5183,-9.82875 L -19.6219,-10.104 z
M -15.2028,-1.06066 L -1.06066,-15.2028 L 15.2028,1.06066 L 1.06066,15.2028 z
M -1.5,20.9844 L -1.47118,20.6917 L -1.38582,20.4103 L -1.2472,20.151 L -1.06066,19.9237 L -0.833355,19.7372
 L -0.574024,19.5986 L -0.292635,19.5132 L 0,19.4844 L 0.292635,19.5132 L 0.574024,19.5986 L 0.833355,19.7372
 L 1.06066,19.9237 L 1.2472,20.151 L 1.38582,20.4103 L 1.47118,20.6917 L 1.5,20.9844 L 1.47118,21.277
 L 1.38582,21.5584 L 1.2472,21.8177 L 1.06066,22.045 L 0.833355,22.2316 L 0.574024,22.3702 L 0.292635,22.4556
 L 0,22.4844 L -0.292635,22.4556 L -0.574024,22.3702 L -0.833355,22.2316 L -1.06066,22.045 L -1.2472,21.8177
 L -1.38582,21.5584 L -1.47118,21.277 z
M 16.6762,-10.5903 L 16.7241,-10.8804 L 16.8277,-11.1556 L 16.983,-11.4053 L 17.184,-11.6199 L 17.423,-11.7912
 L 17.6908,-11.9126 L 17.9772,-11.9794 L 18.2711,-11.989 L 18.5612,-11.9411 L 18.8364,-11.8375 L 19.0861,-11.6822
 L 19.3008,-11.4812 L 19.472,-11.2422 L 19.5934,-10.9743 L 19.6602,-10.688 L 19.6698,-10.3941 L 19.6219,-10.104
 L 19.5183,-9.82875 L 19.363,-9.57905 L 19.162,-9.36443 L 18.923,-9.19315 L 18.6552,-9.07179 L 18.3688,-9.00502
 L 18.0749,-8.9954 L 17.7848,-9.0433 L 17.5096,-9.14688 L 17.2599,-9.30216 L 17.0452,-9.50317 L 16.874,-9.74219
 L 16.7526,-10.01 L 16.6858,-10.2964 z
" stroke="black" fill="lightgray" stroke-width="0.5"/>
</svg>
