  0
SECTION
  2
HEADER
  9
$ACADVER
  1
AC1014
  9
$HANDSEED
  5
FFFF
  9
$MEASUREMENT
 70
     1
  0
ENDSEC
  0
SECTION
  2
TABLES
  0
TABLE
  2
VPORT
  5
8
330
0
100
AcDbSymbolTable
 70
     4
  0
VPORT
  5
2E
330
8
100
AcDbSymbolTableRecord
100
AcDbViewportTableRecord
  2
*ACTIVE
 70
     0
 10
0.0
 20
0.0
 11
1.0
 21
1.0
 12
210.0
 22
148.5
 13
0.0
 23
0.0
 14
10.0
 24
10.0
 15
10.0
 25
10.0
 16
0.0
 26
0.0
 36
1.0
 17
0.0
 27
0.0
 37
0.0
 40
341.0
 41
1.24
 42
50.0
 43
0.0
 44
0.0
 50
0.0
 51
0.0
 71
     0
 72
   100
 73
     1
 74
     3
 75
     0
 76
     0
 77
     0
 78
     0
  0
ENDTAB
  0
TABLE
  2
LTYPE
  5
5
330
0
100
AcDbSymbolTable
 70
     1
  0
LTYPE
  5
14
330
5
100
AcDbSymbolTableRecord
100
AcDbLinetypeTableRecord
  2
BYBLOCK
 70
     0
  3

 72
    65
 73
     0
 40
0.0
  0
LTYPE
  5
15
330
5
100
AcDbSymbolTableRecord
100
AcDbLinetypeTableRecord
  2
BYLAYER
 70
     0
  3

 72
    65
 73
     0
 40
0.0
  0
LTYPE
  5
16
330
5
100
AcDbSymbolTableRecord
100
AcDbLinetypeTableRecord
  2
CONTINUOUS
 70
     0
  3
Solid line
 72
    65
 73
     0
 40
0.0
  0
ENDTAB
  0
TABLE
  2
LAYER
  5
2
100
AcDbSymbolTable
 70
1
  0
LAYER
  5
50
100
AcDbSymbolTableRecord
100
AcDbLayerTableRecord
  2
0
 70
0
  6
CONTINUOUS
  0
ENDTAB
  0
TABLE
  2
STYLE
  5
3
330
0
100
AcDbSymbolTable
 70
     1
  0
STYLE
  5
11
330
3
100
AcDbSymbolTableRecord
100
AcDbTextStyleTableRecord
  2
STANDARD
 70
     0
 40
0.0
 41
1.0
 50
0.0
 71
     0
 42
2.5
  3
txt
  4

  0
ENDTAB
  0
TABLE
  2
VIEW
  5
6
330
0
100
AcDbSymbolTable
 70
     0
  0
ENDTAB
  0
TABLE
  2
UCS
  5
7
330
0
100
AcDbSymbolTable
 70
     0
  0
ENDTAB
  0
TABLE
  2
APPID
  5
9
330
0
100
AcDbSymbolTable
 70
     2
  0
APPID
  5
12
330
9
100
AcDbSymbolTableRecord
100
AcDbRegAppTableRecord
  2
ACAD
 70
     0
  0
ENDTAB
  0
TABLE
  2
DIMSTYLE
  5
A
330
0
100
AcDbSymbolTable
 70
     1
  0
DIMSTYLE
105
27
330
A
100
AcDbSymbolTableRecord
100
AcDbDimStyleTableRecord
  2
ISO-25
 70
     0
  3

  4

  5

  6

  7

 40
1.0
 41
2.5
 42
0.625
 43
3.75
 44
1.25
 45
0.0
 46
0.0
 47
0.0
 48
0.0
140
2.5
141
2.5
142
0.0
143
0.03937007874016
144
1.0
145
0.0
146
1.0
147
0.625
 71
     0
 72
     0
 73
     0
 74
     0
 75
     0
 76
     0
 77
     1
 78
     8
170
     0
171
     3
172
     1
173
     0
174
     0
175
     0
176
     0
177
     0
178
     0
270
     2
271
     2
272
     2
273
     2
274
     3
340
11
275
     0
280
     0
281
     0
282
     0
283
     0
284
     8
285
     0
286
     0
287
     3
288
     0
  0
ENDTAB
  0
TABLE
  2
BLOCK_RECORD
  5
1
330
0
100
AcDbSymbolTable
 70
     1
  0
BLOCK_RECORD
  5
1F
330
1
100
AcDbSymbolTableRecord
100
AcDbBlockTableRecord
  2
*MODEL_SPACE
  0
BLOCK_RECORD
  5
1B
330
1
100
AcDbSymbolTableRecord
100
AcDbBlockTableRecord
  2
*PAPER_SPACE
  0
ENDTAB
  0
ENDSEC
  0
SECTION
  2
BLOCKS
  0
BLOCK
  5
20
330
1F
100
AcDbEntity
  8
0
100
AcDbBlockBegin
  2
*MODEL_SPACE
 70
     0
 10
0.0
 20
0.0
 30
0.0
  3
*MODEL_SPACE
  1

  0
ENDBLK
  5
21
330
1F
100
AcDbEntity
  8
0
100
AcDbBlockEnd
  0
BLOCK
  5
1C
330
1B
100
AcDbEntity
 67
     1
  8
0
100
AcDbBlockBegin
  2
*PAPER_SPACE
  1

  0
ENDBLK
  5
1D
330
1B
100
AcDbEntity
 67
     1
  8
0
100
AcDbBlockEnd
  0
ENDSEC
  0
SECTION
  2
ENTITIES
  0
LWPOLYLINE
  5
100
100
AcDbEntity
  8
0
 62
7
100
AcDbPolyline
 90
129
 70
1
 10
234.224576
 20
-137.561757
 30
0.0
 10
234.127294
 20
-138.871381
 30
0.0
 10
233.966004
 20
-140.169575
 30
0.0
 10
233.741722
 20
-141.454815
 30
0.0
 10
233.455464
 20
-142.724307
 30
0.0
 10
233.107992
 20
-143.976273
 30
0.0
 10
232.700322
 20
-145.208427
 30
0.0
 10
232.233470
 20
-146.418229
 30
0.0
 10
231.707944
 20
-147.604155
 30
0.0
 10
231.125014
 20
-148.763665
 30
0.0
 10
230.485442
 20
-149.894473
 30
0.0
 10
229.790244
 20
-150.994801
 30
0.0
 10
229.039928
 20
-152.061855
 30
0.0
 10
228.236018
 20
-153.094111
 30
0.0
 10
227.379022
 20
-154.089029
 30
0.0
 10
226.469702
 20
-155.044323
 30
0.0
 10
225.514408
 20
-155.953389
 30
0.0
 10
224.519490
 20
-156.810639
 30
0.0
 10
223.487488
 20
-157.614549
 30
0.0
 10
222.420180
 20
-158.364611
 30
0.0
 10
221.320106
 20
-159.060063
 30
0.0
 10
220.189044
 20
-159.699635
 30
0.0
 10
219.029788
 20
-160.282565
 30
0.0
 10
217.843862
 20
-160.807837
 30
0.0
 10
216.633806
 20
-161.274943
 30
0.0
 10
215.401652
 20
-161.682613
 30
0.0
 10
214.149686
 20
-162.030085
 30
0.0
 10
212.880194
 20
-162.316343
 30
0.0
 10
211.595208
 20
-162.540625
 30
0.0
 10
210.296760
 20
-162.701661
 30
0.0
 10
208.987390
 20
-162.799197
 30
0.0
 10
207.668876
 20
-162.831963
 30
0.0
 10
206.350362
 20
-162.799197
 30
0.0
 10
205.040992
 20
-162.701661
 30
0.0
 10
203.742544
 20
-162.540625
 30
0.0
 10
202.457558
 20
-162.316343
 30
0.0
 10
201.187812
 20
-162.030085
 30
0.0
 10
199.935846
 20
-161.682613
 30
0.0
 10
198.703946
 20
-161.274943
 30
0.0
 10
197.493890
 20
-160.807837
 30
0.0
 10
196.307964
 20
-160.282565
 30
0.0
 10
195.148454
 20
-159.699635
 30
0.0
 10
194.017646
 20
-159.060063
 30
0.0
 10
192.917572
 20
-158.364611
 30
0.0
 10
191.850264
 20
-157.614549
 30
0.0
 10
190.818262
 20
-156.810639
 30
0.0
 10
189.823344
 20
-155.953389
 30
0.0
 10
188.867796
 20
-155.044323
 30
0.0
 10
187.958730
 20
-154.089029
 30
0.0
 10
187.101734
 20
-153.094111
 30
0.0
 10
186.297570
 20
-152.061855
 30
0.0
 10
185.547508
 20
-150.994801
 30
0.0
 10
184.852056
 20
-149.894473
 30
0.0
 10
184.212484
 20
-148.763665
 30
0.0
 10
183.629554
 20
-147.604155
 30
0.0
 10
183.104282
 20
-146.418229
 30
0.0
 10
182.637176
 20
-145.208427
 30
0.0
 10
182.229506
 20
-143.976273
 30
0.0
 10
181.882288
 20
-142.724307
 30
0.0
 10
181.596030
 20
-141.454815
 30
0.0
 10
181.371748
 20
-140.169575
 30
0.0
 10
181.210458
 20
-138.871381
 30
0.0
 10
181.112922
 20
-137.561757
 30
0.0
 10
181.080410
 20
-136.243243
 30
0.0
 10
181.112922
 20
-134.924983
 30
0.0
 10
181.210458
 20
-133.615359
 30
0.0
 10
181.371748
 20
-132.316911
 30
0.0
 10
181.596030
 20
-131.031925
 30
0.0
 10
181.882288
 20
-129.762433
 30
0.0
 10
182.229506
 20
-128.510467
 30
0.0
 10
182.637176
 20
-127.278313
 30
0.0
 10
183.104282
 20
-126.068257
 30
0.0
 10
183.629554
 20
-124.882585
 30
0.0
 10
184.212484
 20
-123.723075
 30
0.0
 10
184.852056
 20
-122.592267
 30
0.0
 10
185.547508
 20
-121.491939
 30
0.0
 10
186.297570
 20
-120.424885
 30
0.0
 10
187.101734
 20
-119.392629
 30
0.0
 10
187.958730
 20
-118.397711
 30
0.0
 10
188.867796
 20
-117.442417
 30
0.0
 10
189.823344
 20
-116.533351
 30
0.0
 10
190.818262
 20
-115.676101
 30
0.0
 10
191.850264
 20
-114.872191
 30
0.0
 10
192.917572
 20
-114.122129
 30
0.0
 10
194.017646
 20
-113.426677
 30
0.0
 10
195.148454
 20
-112.787105
 30
0.0
 10
196.307964
 20
-112.204175
 30
0.0
 10
197.493890
 20
-111.678649
 30
0.0
 10
198.703946
 20
-111.211797
 30
0.0
 10
199.935846
 20
-110.804127
 30
0.0
 10
201.187812
 20
-110.456655
 30
0.0
 10
202.457558
 20
-110.170397
 30
0.0
 10
203.742544
 20
-109.946115
 30
0.0
 10
205.040992
 20
-109.784825
 30
0.0
 10
206.350362
 20
-109.687543
 30
0.0
 10
207.668876
 20
-109.654777
 30
0.0
 10
208.987390
 20
-109.687543
 30
0.0
 10
210.296760
 20
-109.784825
 30
0.0
 10
211.595208
 20
-109.946115
 30
0.0
 10
212.880194
 20
-110.170397
 30
0.0
 10
214.149686
 20
-110.456655
 30
0.0
 10
215.401652
 20
-110.804127
 30
0.0
 10
216.633806
 20
-111.211797
 30
0.0
 10
217.843862
 20
-111.678649
 30
0.0
 10
219.029788
 20
-112.204175
 30
0.0
 10
220.189044
 20
-112.787105
 30
0.0
 10
221.320106
 20
-113.426677
 30
0.0
 10
222.420180
 20
-114.122129
 30
0.0
 10
223.487488
 20
-114.872191
 30
0.0
 10
224.519490
 20
-115.676101
 30
0.0
 10
225.514408
 20
-116.533351
 30
0.0
 10
226.469702
 20
-117.442417
 30
0.0
 10
227.379022
 20
-118.397711
 30
0.0
 10
228.236018
 20
-119.392629
 30
0.0
 10
229.039928
 20
-120.424885
 30
0.0
 10
229.790244
 20
-121.491939
 30
0.0
 10
230.485442
 20
-122.592267
 30
0.0
 10
231.125014
 20
-123.723075
 30
0.0
 10
231.707944
 20
-124.882585
 30
0.0
 10
232.233470
 20
-126.068257
 30
0.0
 10
232.700322
 20
-127.278313
 30
0.0
 10
233.107992
 20
-128.510467
 30
0.0
 10
233.455464
 20
-129.762433
 30
0.0
 10
233.741722
 20
-131.031925
 30
0.0
 10
233.966004
 20
-132.316911
 30
0.0
 10
234.127294
 20
-133.615359
 30
0.0
 10
234.224576
 20
-134.924983
 30
0.0
 10
234.257342
 20
-136.243243
 30
0.0
 10
234.257342
 20
-136.243243
 30
0.0
  0
LWPOLYLINE
  5
101
100
AcDbEntity
  8
0
 62
7
100
AcDbPolyline
 90
4
 70
1
 10
255.297940
 20
-101.745725
 30
0.0
 10
259.623560
 20
-115.057865
 30
0.0
 10
272.935700
 20
-110.732245
 30
0.0
 10
268.610080
 20
-97.420359
 30
0.0
  0
LWPOLYLINE
  5
102
100
AcDbEntity
  8
0
 62
7
100
AcDbPolyline
 90
4
 70
1
 10
309.272940
 20
-99.272019
 30
0.0
 10
295.960800
 20
-103.597385
 30
0.0
 10
300.286420
 20
-116.909779
 30
0.0
 10
313.598560
 20
-112.583905
 30
0.0
  0
LWPOLYLINE
  5
103
100
AcDbEntity
  8
0
 62
7
100
AcDbPolyline
 90
4
 70
1
 10
331.769720
 20
-106.942819
 30
0.0
 10
318.457580
 20
-111.268185
 30
0.0
 10
322.783200
 20
-124.582865
 30
0.0
 10
336.095340
 20
-120.257245
 30
0.0
  0
LWPOLYLINE
  5
104
100
AcDbEntity
  8
0
 62
7
100
AcDbPolyline
 90
4
 70
1
 10
293.979600
 20
-113.894545
 30
0.0
 10
289.656520
 20
-100.582659
 30
0.0
 10
276.341840
 20
-104.908025
 30
0.0
 10
280.667460
 20
-118.220419
 30
0.0
  0
LWPOLYLINE
  5
105
100
AcDbEntity
  8
0
 62
7
100
AcDbPolyline
 90
4
 70
1
 10
307.721000
 20
-139.795179
 30
0.0
 10
312.046620
 20
-153.107319
 30
0.0
 10
325.361300
 20
-148.781699
 30
0.0
 10
321.035680
 20
-135.469559
 30
0.0
  0
LWPOLYLINE
  5
106
100
AcDbEntity
  8
0
 62
7
100
AcDbPolyline
 90
4
 70
1
 10
270.421100
 20
-86.802905
 30
0.0
 10
274.746720
 20
-100.115045
 30
0.0
 10
288.058860
 20
-95.789679
 30
0.0
 10
283.733240
 20
-82.477285
 30
0.0
  0
LWPOLYLINE
  5
107
100
AcDbEntity
  8
0
 62
7
100
AcDbPolyline
 90
4
 70
1
 10
286.550100
 20
-136.368719
 30
0.0
 10
299.864780
 20
-132.042845
 30
0.0
 10
295.539160
 20
-118.728419
 30
0.0
 10
282.224480
 20
-123.054039
 30
0.0
  0
LWPOLYLINE
  5
108
100
AcDbEntity
  8
0
 62
7
100
AcDbPolyline
 90
4
 70
1
 10
307.695600
 20
-94.417825
 30
0.0
 10
303.369980
 20
-81.105685
 30
0.0
 10
290.057840
 20
-85.431305
 30
0.0
 10
294.383460
 20
-98.743699
 30
0.0
  0
LWPOLYLINE
  5
109
100
AcDbEntity
  8
0
 62
7
100
AcDbPolyline
 90
4
 70
1
 10
274.482560
 20
-115.530305
 30
0.0
 10
261.167880
 20
-119.856179
 30
0.0
 10
265.493500
 20
-133.168065
 30
0.0
 10
278.808180
 20
-128.842445
 30
0.0
  0
LWPOLYLINE
  5
10a
100
AcDbEntity
  8
0
 62
7
100
AcDbPolyline
 90
4
 70
1
 10
242.960906
 20
-125.466785
 30
0.0
 10
256.273300
 20
-121.141165
 30
0.0
 10
251.947426
 20
-107.826485
 30
0.0
 10
238.635286
 20
-112.152105
 30
0.0
  0
LWPOLYLINE
  5
10b
100
AcDbEntity
  8
0
 62
7
100
AcDbPolyline
 90
4
 70
1
 10
248.536206
 20
-163.721725
 30
0.0
 10
239.915446
 20
-152.687965
 30
0.0
 10
228.881686
 20
-161.306185
 30
0.0
 10
237.502446
 20
-172.339945
 30
0.0
  0
LWPOLYLINE
  5
10c
100
AcDbEntity
  8
0
 62
7
100
AcDbPolyline
 90
4
 70
1
 10
330.233020
 20
-102.132059
 30
0.0
 10
325.907400
 20
-88.817125
 30
0.0
 10
312.595260
 20
-93.142745
 30
0.0
 10
316.920880
 20
-106.457679
 30
0.0
  0
LWPOLYLINE
  5
10d
100
AcDbEntity
  8
0
 62
7
100
AcDbPolyline
 90
4
 70
1
 10
239.389666
 20
-182.957145
 30
0.0
 10
230.768906
 20
-171.923385
 30
0.0
 10
219.735146
 20
-180.544145
 30
0.0
 10
228.355906
 20
-191.577905
 30
0.0
  0
LWPOLYLINE
  5
10e
100
AcDbEntity
  8
0
 62
7
100
AcDbPolyline
 90
4
 70
1
 10
288.104580
 20
-141.148745
 30
0.0
 10
292.430200
 20
-154.461139
 30
0.0
 10
305.742340
 20
-150.135265
 30
0.0
 10
301.416720
 20
-136.823125
 30
0.0
  0
LWPOLYLINE
  5
10f
100
AcDbEntity
  8
0
 62
7
100
AcDbPolyline
 90
4
 70
1
 10
250.408186
 20
-148.387999
 30
0.0
 10
254.734060
 20
-161.702425
 30
0.0
 10
268.048740
 20
-157.376805
 30
0.0
 10
263.723120
 20
-144.062125
 30
0.0
  0
LWPOLYLINE
  5
110
100
AcDbEntity
  8
0
 62
7
100
AcDbPolyline
 90
4
 70
1
 10
271.340580
 20
-151.285885
 30
0.0
 10
284.652720
 20
-146.960519
 30
0.0
 10
280.327100
 20
-133.645585
 30
0.0
 10
267.014960
 20
-137.971205
 30
0.0
  0
LWPOLYLINE
  5
111
100
AcDbEntity
  8
0
 62
7
100
AcDbPolyline
 90
4
 70
1
 10
240.603786
 20
-176.299805
 30
0.0
 10
249.224546
 20
-187.333565
 30
0.0
 10
260.258560
 20
-178.715345
 30
0.0
 10
251.637546
 20
-167.681585
 30
0.0
  0
LWPOLYLINE
  5
112
100
AcDbEntity
  8
0
 62
7
100
AcDbPolyline
 90
4
 70
1
 10
328.729340
 20
-142.721005
 30
0.0
 10
342.041480
 20
-138.395385
 30
0.0
 10
337.715860
 20
-125.080959
 30
0.0
 10
324.403720
 20
-129.406325
 30
0.0
  0
LWPOLYLINE
  5
113
100
AcDbEntity
  8
0
 62
7
100
AcDbPolyline
 90
4
 70
1
 10
306.189380
 20
-134.994325
 30
0.0
 10
319.501520
 20
-130.668959
 30
0.0
 10
315.175900
 20
-117.356565
 30
0.0
 10
301.863760
 20
-121.682185
 30
0.0
  0
LWPOLYLINE
  5
114
100
AcDbEntity
  8
0
 62
7
100
AcDbPolyline
 90
4
 70
1
 10
244.558566
 20
-130.300659
 30
0.0
 10
248.884186
 20
-143.612545
 30
0.0
 10
262.196580
 20
-139.287179
 30
0.0
 10
257.870960
 20
-125.974785
 30
0.0
  0
LWPOLYLINE
  5
115
100
AcDbEntity
  8
0
 62
7
100
AcDbPolyline
 90
4
 70
1
 10
147.126452
 20
-97.435345
 30
0.0
 10
160.438846
 20
-101.760965
 30
0.0
 10
156.113226
 20
-115.073105
 30
0.0
 10
142.800832
 20
-110.747485
 30
0.0
  0
LWPOLYLINE
  5
116
100
AcDbEntity
  8
0
 62
7
100
AcDbPolyline
 90
4
 70
1
 10
106.463846
 20
-99.287005
 30
0.0
 10
119.775986
 20
-103.612625
 30
0.0
 10
115.450366
 20
-116.925019
 30
0.0
 10
102.138226
 20
-112.599399
 30
0.0
  0
LWPOLYLINE
  5
117
100
AcDbEntity
  8
0
 62
7
100
AcDbPolyline
 90
4
 70
1
 10
83.967066
 20
-106.958059
 30
0.0
 10
97.279206
 20
-111.283425
 30
0.0
 10
92.953586
 20
-124.598105
 30
0.0
 10
79.641446
 20
-120.272485
 30
0.0
  0
LWPOLYLINE
  5
118
100
AcDbEntity
  8
0
 62
7
100
AcDbPolyline
 90
4
 70
1
 10
121.757186
 20
-113.909785
 30
0.0
 10
126.080266
 20
-100.597899
 30
0.0
 10
139.394946
 20
-104.923265
 30
0.0
 10
135.069326
 20
-118.235405
 30
0.0
  0
LWPOLYLINE
  5
119
100
AcDbEntity
  8
0
 62
7
100
AcDbPolyline
 90
4
 70
1
 10
108.015786
 20
-139.810165
 30
0.0
 10
103.690166
 20
-153.122305
 30
0.0
 10
90.375486
 20
-148.796685
 30
0.0
 10
94.701106
 20
-135.484545
 30
0.0
  0
LWPOLYLINE
  5
11a
100
AcDbEntity
  8
0
 62
7
100
AcDbPolyline
 90
4
 70
1
 10
145.315686
 20
-86.818145
 30
0.0
 10
140.990066
 20
-100.130285
 30
0.0
 10
127.677926
 20
-95.804919
 30
0.0
 10
132.003292
 20
-82.492779
 30
0.0
  0
LWPOLYLINE
  5
11b
100
AcDbEntity
  8
0
 62
7
100
AcDbPolyline
 90
4
 70
1
 10
129.186686
 20
-136.383705
 30
0.0
 10
115.871752
 20
-132.058339
 30
0.0
 10
120.197626
 20
-118.743405
 30
0.0
 10
133.512306
 20
-123.069025
 30
0.0
  0
LWPOLYLINE
  5
11c
100
AcDbEntity
  8
0
 62
7
100
AcDbPolyline
 90
4
 70
1
 10
108.041186
 20
-94.433319
 30
0.0
 10
112.366806
 20
-81.120925
 30
0.0
 10
125.678946
 20
-85.446545
 30
0.0
 10
121.353326
 20
-98.758685
 30
0.0
  0
LWPOLYLINE
  5
11d
100
AcDbEntity
  8
0
 62
7
100
AcDbPolyline
 90
4
 70
1
 10
141.254226
 20
-115.545545
 30
0.0
 10
154.568906
 20
-119.871165
 30
0.0
 10
150.243286
 20
-133.183305
 30
0.0
 10
136.928606
 20
-128.857685
 30
0.0
  0
LWPOLYLINE
  5
11e
100
AcDbEntity
  8
0
 62
7
100
AcDbPolyline
 90
4
 70
1
 10
172.775626
 20
-125.482025
 30
0.0
 10
159.463486
 20
-121.156405
 30
0.0
 10
163.789106
 20
-107.841725
 30
0.0
 10
177.101246
 20
-112.167345
 30
0.0
  0
LWPOLYLINE
  5
11f
100
AcDbEntity
  8
0
 62
7
100
AcDbPolyline
 90
4
 70
1
 10
167.200072
 20
-163.737219
 30
0.0
 10
175.821086
 20
-152.703205
 30
0.0
 10
186.854592
 20
-161.321425
 30
0.0
 10
178.234086
 20
-172.355185
 30
0.0
  0
LWPOLYLINE
  5
120
100
AcDbEntity
  8
0
 62
7
100
AcDbPolyline
 90
4
 70
1
 10
85.503766
 20
-102.147045
 30
0.0
 10
89.829386
 20
-88.832365
 30
0.0
 10
103.141526
 20
-93.158239
 30
0.0
 10
98.815906
 20
-106.472665
 30
0.0
  0
LWPOLYLINE
  5
121
100
AcDbEntity
  8
0
 62
7
100
AcDbPolyline
 90
4
 70
1
 10
176.346866
 20
-182.972385
 30
0.0
 10
184.967626
 20
-171.938879
 30
0.0
 10
196.001132
 20
-180.559385
 30
0.0
 10
187.380626
 20
-191.593145
 30
0.0
  0
LWPOLYLINE
  5
122
100
AcDbEntity
  8
0
 62
7
100
AcDbPolyline
 90
4
 70
1
 10
127.632206
 20
-141.163985
 30
0.0
 10
123.306586
 20
-154.476125
 30
0.0
 10
109.994446
 20
-150.150505
 30
0.0
 10
114.320066
 20
-136.838365
 30
0.0
  0
LWPOLYLINE
  5
123
100
AcDbEntity
  8
0
 62
7
100
AcDbPolyline
 90
4
 70
1
 10
165.328346
 20
-148.402985
 30
0.0
 10
161.002472
 20
-161.717665
 30
0.0
 10
147.688046
 20
-157.392045
 30
0.0
 10
152.013412
 20
-144.077619
 30
0.0
  0
LWPOLYLINE
  5
124
100
AcDbEntity
  8
0
 62
7
100
AcDbPolyline
 90
4
 70
1
 10
144.396206
 20
-151.301125
 30
0.0
 10
131.084066
 20
-146.975505
 30
0.0
 10
135.409686
 20
-133.660825
 30
0.0
 10
148.721572
 20
-137.986699
 30
0.0
  0
LWPOLYLINE
  5
125
100
AcDbEntity
  8
0
 62
7
100
AcDbPolyline
 90
4
 70
1
 10
175.132746
 20
-176.315045
 30
0.0
 10
166.511986
 20
-187.349059
 30
0.0
 10
155.478226
 20
-178.730585
 30
0.0
 10
164.098986
 20
-167.696825
 30
0.0
  0
LWPOLYLINE
  5
126
100
AcDbEntity
  8
0
 62
7
100
AcDbPolyline
 90
4
 70
1
 10
87.007192
 20
-142.736499
 30
0.0
 10
73.695306
 20
-138.410625
 30
0.0
 10
78.020672
 20
-125.096199
 30
0.0
 10
91.333066
 20
-129.421819
 30
0.0
  0
LWPOLYLINE
  5
127
100
AcDbEntity
  8
0
 62
7
100
AcDbPolyline
 90
4
 70
1
 10
109.547152
 20
-135.009819
 30
0.0
 10
96.235266
 20
-130.683945
 30
0.0
 10
100.560886
 20
-117.372059
 30
0.0
 10
113.873026
 20
-121.697679
 30
0.0
  0
LWPOLYLINE
  5
128
100
AcDbEntity
  8
0
 62
7
100
AcDbPolyline
 90
4
 70
1
 10
171.177966
 20
-130.315645
 30
0.0
 10
166.852346
 20
-143.627785
 30
0.0
 10
153.540206
 20
-139.302165
 30
0.0
 10
157.865826
 20
-125.990025
 30
0.0
  0
LWPOLYLINE
  5
129
100
AcDbEntity
  8
0
 62
7
100
AcDbPolyline
 90
217
 70
1
 10
106.398314
 20
-164.408541
 30
0.0
 10
104.502712
 20
-168.071983
 30
0.0
 10
104.407716
 20
-168.335381
 30
0.0
 10
104.393238
 20
-168.561695
 30
0.0
 10
104.438704
 20
-168.751433
 30
0.0
 10
104.523286
 20
-168.905357
 30
0.0
 10
104.724454
 20
-169.108303
 30
0.0
 10
104.829102
 20
-169.175105
 30
0.0
 10
136.566148
 20
-185.581981
 30
0.0
 10
136.680956
 20
-185.628717
 30
0.0
 10
136.962896
 20
-185.675707
 30
0.0
 10
137.137394
 20
-185.655641
 30
0.0
 10
137.318496
 20
-185.582997
 30
0.0
 10
137.495026
 20
-185.440757
 30
0.0
 10
137.655046
 20
-185.210633
 30
0.0
 10
139.558014
 20
-181.532713
 30
0.0
 10
144.005300
 20
-183.828111
 30
0.0
 10
142.109952
 20
-187.491553
 30
0.0
 10
142.014702
 20
-187.754951
 30
0.0
 10
142.000224
 20
-187.981265
 30
0.0
 10
142.045944
 20
-188.171003
 30
0.0
 10
142.130272
 20
-188.324927
 30
0.0
 10
142.331440
 20
-188.527873
 30
0.0
 10
142.436088
 20
-188.594421
 30
0.0
 10
174.173388
 20
-205.001297
 30
0.0
 10
174.287942
 20
-205.048287
 30
0.0
 10
174.570136
 20
-205.095277
 30
0.0
 10
174.744634
 20
-205.074957
 30
0.0
 10
174.925736
 20
-205.002567
 30
0.0
 10
175.102012
 20
-204.860327
 30
0.0
 10
175.262032
 20
-204.630203
 30
0.0
 10
177.165254
 20
-200.952537
 30
0.0
 10
178.355244
 20
-201.600745
 30
0.0
 10
178.954684
 20
-201.801405
 30
0.0
 10
179.392834
 20
-201.877605
 30
0.0
 10
179.753006
 20
-201.873541
 30
0.0
 10
207.868266
 20
-201.884971
 30
0.0
 10
236.059472
 20
-201.858555
 30
0.0
 10
236.539786
 20
-201.812073
 30
0.0
 10
237.055152
 20
-201.686851
 30
0.0
 10
237.678214
 20
-201.434883
 30
0.0
 10
238.946182
 20
-200.790993
 30
0.0
 10
240.841784
 20
-204.454181
 30
0.0
 10
241.001804
 20
-204.684305
 30
0.0
 10
241.178334
 20
-204.826545
 30
0.0
 10
241.359436
 20
-204.899189
 30
0.0
 10
241.533934
 20
-204.919255
 30
0.0
 10
241.815874
 20
-204.872265
 30
0.0
 10
241.930682
 20
-204.825529
 30
0.0
 10
273.667220
 20
-188.418653
 30
0.0
 10
273.771360
 20
-188.351851
 30
0.0
 10
273.974560
 20
-188.149159
 30
0.0
 10
274.058380
 20
-187.994981
 30
0.0
 10
274.104100
 20
-187.805243
 30
0.0
 10
274.088860
 20
-187.578929
 30
0.0
 10
273.994880
 20
-187.315785
 30
0.0
 10
272.105120
 20
-183.666567
 30
0.0
 10
276.570440
 20
-181.389203
 30
0.0
 10
278.475440
 20
-185.066869
 30
0.0
 10
278.635460
 20
-185.296993
 30
0.0
 10
278.810720
 20
-185.439233
 30
0.0
 10
278.991060
 20
-185.511623
 30
0.0
 10
279.166320
 20
-185.531943
 30
0.0
 10
279.448260
 20
-185.484953
 30
0.0
 10
279.562560
 20
-185.437963
 30
0.0
 10
311.299860
 20
-169.031087
 30
0.0
 10
311.404000
 20
-168.964539
 30
0.0
 10
311.607200
 20
-168.761593
 30
0.0
 10
311.691020
 20
-168.607669
 30
0.0
 10
311.736740
 20
-168.417931
 30
0.0
 10
311.721500
 20
-168.191617
 30
0.0
 10
311.627520
 20
-167.928219
 30
0.0
 10
309.730140
 20
-164.264777
 30
0.0
 10
314.182760
 20
-161.958711
 30
0.0
 10
316.077600
 20
-165.622153
 30
0.0
 10
316.237620
 20
-165.852023
 30
0.0
 10
316.415420
 20
-165.994517
 30
0.0
 10
316.595760
 20
-166.066907
 30
0.0
 10
316.771020
 20
-166.086973
 30
0.0
 10
317.052960
 20
-166.039983
 30
0.0
 10
317.167260
 20
-165.993247
 30
0.0
 10
348.904560
 20
-149.586371
 30
0.0
 10
349.008700
 20
-149.519823
 30
0.0
 10
349.209360
 20
-149.316877
 30
0.0
 10
349.293180
 20
-149.162953
 30
0.0
 10
349.338900
 20
-148.972961
 30
0.0
 10
349.326200
 20
-148.746901
 30
0.0
 10
349.229680
 20
-148.483503
 30
0.0
 10
347.334840
 20
-144.818537
 30
0.0
 10
348.493080
 20
-144.217827
 30
0.0
 10
348.576900
 20
-144.155597
 30
0.0
 10
348.744540
 20
-143.971701
 30
0.0
 10
348.823280
 20
-143.836065
 30
0.0
 10
348.876620
 20
-143.672235
 30
0.0
 10
348.889320
 20
-143.480719
 30
0.0
 10
348.848680
 20
-143.261771
 30
0.0
 10
330.329540
 20
-86.282459
 30
0.0
 10
329.813920
 20
-84.936259
 30
0.0
 10
329.206860
 20
-83.696485
 30
0.0
 10
328.510900
 20
-82.556279
 30
0.0
 10
327.728580
 20
-81.512339
 30
0.0
 10
326.867520
 20
-80.562125
 30
0.0
 10
325.932800
 20
-79.706145
 30
0.0
 10
324.921880
 20
-78.936525
 30
0.0
 10
323.844920
 20
-78.253265
 30
0.0
 10
322.701920
 20
-77.654079
 30
0.0
 10
321.503040
 20
-77.133125
 30
0.0
 10
320.243200
 20
-76.691165
 30
0.0
 10
318.935100
 20
-76.320579
 30
0.0
 10
317.578740
 20
-76.020859
 30
0.0
 10
316.176660
 20
-75.789719
 30
0.0
 10
314.739020
 20
-75.624365
 30
0.0
 10
313.263280
 20
-75.520479
 30
0.0
 10
311.754520
 20
-75.482379
 30
0.0
 10
311.751980
 20
-71.357165
 30
0.0
 10
311.716420
 20
-71.079543
 30
0.0
 10
311.624980
 20
-70.871771
 30
0.0
 10
311.497980
 20
-70.724197
 30
0.0
 10
311.350660
 20
-70.626153
 30
0.0
 10
311.078880
 20
-70.538523
 30
0.0
 10
310.956960
 20
-70.527347
 30
0.0
 10
275.229320
 20
-70.535475
 30
0.0
 10
275.104860
 20
-70.546397
 30
0.0
 10
274.833080
 20
-70.634281
 30
0.0
 10
274.688300
 20
-70.732325
 30
0.0
 10
274.561300
 20
-70.879899
 30
0.0
 10
274.469860
 20
-71.087417
 30
0.0
 10
274.431760
 20
-71.365293
 30
0.0
 10
274.431760
 20
-75.493301
 30
0.0
 10
269.425420
 20
-75.525051
 30
0.0
 10
269.422880
 20
-71.397043
 30
0.0
 10
269.387320
 20
-71.119421
 30
0.0
 10
269.295880
 20
-70.911903
 30
0.0
 10
269.168880
 20
-70.764329
 30
0.0
 10
269.024100
 20
-70.666285
 30
0.0
 10
268.749780
 20
-70.578401
 30
0.0
 10
268.627860
 20
-70.567479
 30
0.0
 10
232.900220
 20
-70.575353
 30
0.0
 10
232.776776
 20
-70.586529
 30
0.0
 10
232.504742
 20
-70.674413
 30
0.0
 10
232.359200
 20
-70.772457
 30
0.0
 10
232.231438
 20
-70.920031
 30
0.0
 10
232.140252
 20
-71.127549
 30
0.0
 10
232.103676
 20
-71.405171
 30
0.0
 10
232.103676
 20
-75.533179
 30
0.0
 10
183.626506
 20
-75.494825
 30
0.0
 10
183.626252
 20
-71.366817
 30
0.0
 10
183.589930
 20
-71.089195
 30
0.0
 10
183.498744
 20
-70.881677
 30
0.0
 10
183.371236
 20
-70.734103
 30
0.0
 10
183.225440
 20
-70.636059
 30
0.0
 10
182.953406
 20
-70.548175
 30
0.0
 10
182.829962
 20
-70.537253
 30
0.0
 10
147.102576
 20
-70.545127
 30
0.0
 10
146.979132
 20
-70.556303
 30
0.0
 10
146.707098
 20
-70.643933
 30
0.0
 10
146.561556
 20
-70.742231
 30
0.0
 10
146.433794
 20
-70.889805
 30
0.0
 10
146.342608
 20
-71.097323
 30
0.0
 10
146.306032
 20
-71.374945
 30
0.0
 10
146.306032
 20
-75.502953
 30
0.0
 10
141.293342
 20
-75.494825
 30
0.0
 10
141.293342
 20
-71.366817
 30
0.0
 10
141.256766
 20
-71.089195
 30
0.0
 10
141.165580
 20
-70.881677
 30
0.0
 10
141.038072
 20
-70.734103
 30
0.0
 10
140.892276
 20
-70.636059
 30
0.0
 10
140.620242
 20
-70.548429
 30
0.0
 10
140.496798
 20
-70.537253
 30
0.0
 10
104.769412
 20
-70.545127
 30
0.0
 10
104.645968
 20
-70.556303
 30
0.0
 10
104.374188
 20
-70.644187
 30
0.0
 10
104.228392
 20
-70.742231
 30
0.0
 10
104.100630
 20
-70.889805
 30
0.0
 10
104.009444
 20
-71.097323
 30
0.0
 10
103.973122
 20
-71.374945
 30
0.0
 10
103.972868
 20
-75.502953
 30
0.0
 10
102.472236
 20
-75.535465
 30
0.0
 10
100.996496
 20
-75.639859
 30
0.0
 10
99.558856
 20
-75.804705
 30
0.0
 10
98.156776
 20
-76.035845
 30
0.0
 10
96.800416
 20
-76.335819
 30
0.0
 10
95.492316
 20
-76.706659
 30
0.0
 10
94.232476
 20
-77.148365
 30
0.0
 10
93.033596
 20
-77.669319
 30
0.0
 10
91.890596
 20
-78.268505
 30
0.0
 10
90.813636
 20
-78.951765
 30
0.0
 10
89.802716
 20
-79.721639
 30
0.0
 10
88.867996
 20
-80.577619
 30
0.0
 10
88.007190
 20
-81.527579
 30
0.0
 10
87.224616
 20
-82.571265
 30
0.0
 10
86.528656
 20
-83.711725
 30
0.0
 10
85.921850
 20
-84.951499
 30
0.0
 10
85.405976
 20
-86.297445
 30
0.0
 10
66.933572
 20
-143.140359
 30
0.0
 10
66.858388
 20
-143.419505
 30
0.0
 10
66.865246
 20
-143.659281
 30
0.0
 10
66.932048
 20
-143.860195
 30
0.0
 10
67.036442
 20
-144.023263
 30
0.0
 10
67.269614
 20
-144.237385
 30
0.0
 10
67.386962
 20
-144.307743
 30
0.0
 10
68.769230
 20
-145.021483
 30
0.0
 10
66.873882
 20
-148.684925
 30
0.0
 10
66.778632
 20
-148.948323
 30
0.0
 10
66.764154
 20
-149.174637
 30
0.0
 10
66.809620
 20
-149.364375
 30
0.0
 10
66.894202
 20
-149.518299
 30
0.0
 10
67.095370
 20
-149.721245
 30
0.0
 10
67.200018
 20
-149.787793
 30
0.0
 10
98.937318
 20
-166.194669
 30
0.0
 10
99.051872
 20
-166.241659
 30
0.0
 10
99.333812
 20
-166.288649
 30
0.0
 10
99.508310
 20
-166.268329
 30
0.0
 10
99.689666
 20
-166.195939
 30
0.0
 10
99.865942
 20
-166.053445
 30
0.0
 10
100.025962
 20
-165.823575
 30
0.0
 10
101.934518
 20
-162.131177
 30
0.0
  0
ENDSEC
  0
SECTION
  2
OBJECTS
  0
DICTIONARY
  5
C
330
0
100
AcDbDictionary
  3
ACAD_GROUP
350
D
  3
ACAD_MLINESTYLE
350
17
  0
DICTIONARY
  5
D
330
C
100
AcDbDictionary
  0
DICTIONARY
  5
1A
330
C
100
AcDbDictionary
  0
DICTIONARY
  5
17
330
C
100
AcDbDictionary
  3
STANDARD
350
18
  0
DICTIONARY
  5
19
330
C
100
AcDbDictionary
  0
ENDSEC
  0
EOF
