  0
SECTION
  2
HEADER
  9
$ACADVER
  1
AC1014
  9
$HANDSEED
  5
FFFF
  9
$MEASUREMENT
 70
     1
  0
ENDSEC
  0
SECTION
  2
TABLES
  0
TABLE
  2
VPORT
  5
8
330
0
100
AcDbSymbolTable
 70
     4
  0
VPORT
  5
2E
330
8
100
AcDbSymbolTableRecord
100
AcDbViewportTableRecord
  2
*ACTIVE
 70
     0
 10
0.0
 20
0.0
 11
1.0
 21
1.0
 12
210.0
 22
148.5
 13
0.0
 23
0.0
 14
10.0
 24
10.0
 15
10.0
 25
10.0
 16
0.0
 26
0.0
 36
1.0
 17
0.0
 27
0.0
 37
0.0
 40
341.0
 41
1.24
 42
50.0
 43
0.0
 44
0.0
 50
0.0
 51
0.0
 71
     0
 72
   100
 73
     1
 74
     3
 75
     0
 76
     0
 77
     0
 78
     0
  0
ENDTAB
  0
TABLE
  2
LTYPE
  5
5
330
0
100
AcDbSymbolTable
 70
     1
  0
LTYPE
  5
14
330
5
100
AcDbSymbolTableRecord
100
AcDbLinetypeTableRecord
  2
BYBLOCK
 70
     0
  3

 72
    65
 73
     0
 40
0.0
  0
LTYPE
  5
15
330
5
100
AcDbSymbolTableRecord
100
AcDbLinetypeTableRecord
  2
BYLAYER
 70
     0
  3

 72
    65
 73
     0
 40
0.0
  0
LTYPE
  5
16
330
5
100
AcDbSymbolTableRecord
100
AcDbLinetypeTableRecord
  2
CONTINUOUS
 70
     0
  3
Solid line
 72
    65
 73
     0
 40
0.0
  0
ENDTAB
  0
TABLE
  2
LAYER
  5
2
100
AcDbSymbolTable
 70
1
  0
LAYER
  5
50
100
AcDbSymbolTableRecord
100
AcDbLayerTableRecord
  2
0
 70
0
  6
CONTINUOUS
  0
ENDTAB
  0
TABLE
  2
STYLE
  5
3
330
0
100
AcDbSymbolTable
 70
     1
  0
STYLE
  5
11
330
3
100
AcDbSymbolTableRecord
100
AcDbTextStyleTableRecord
  2
STANDARD
 70
     0
 40
0.0
 41
1.0
 50
0.0
 71
     0
 42
2.5
  3
txt
  4

  0
ENDTAB
  0
TABLE
  2
VIEW
  5
6
330
0
100
AcDbSymbolTable
 70
     0
  0
ENDTAB
  0
TABLE
  2
UCS
  5
7
330
0
100
AcDbSymbolTable
 70
     0
  0
ENDTAB
  0
TABLE
  2
APPID
  5
9
330
0
100
AcDbSymbolTable
 70
     2
  0
APPID
  5
12
330
9
100
AcDbSymbolTableRecord
100
AcDbRegAppTableRecord
  2
ACAD
 70
     0
  0
ENDTAB
  0
TABLE
  2
DIMSTYLE
  5
A
330
0
100
AcDbSymbolTable
 70
     1
  0
DIMSTYLE
105
27
330
A
100
AcDbSymbolTableRecord
100
AcDbDimStyleTableRecord
  2
ISO-25
 70
     0
  3

  4

  5

  6

  7

 40
1.0
 41
2.5
 42
0.625
 43
3.75
 44
1.25
 45
0.0
 46
0.0
 47
0.0
 48
0.0
140
2.5
141
2.5
142
0.0
143
0.03937007874016
144
1.0
145
0.0
146
1.0
147
0.625
 71
     0
 72
     0
 73
     0
 74
     0
 75
     0
 76
     0
 77
     1
 78
     8
170
     0
171
     3
172
     1
173
     0
174
     0
175
     0
176
     0
177
     0
178
     0
270
     2
271
     2
272
     2
273
     2
274
     3
340
11
275
     0
280
     0
281
     0
282
     0
283
     0
284
     8
285
     0
286
     0
287
     3
288
     0
  0
ENDTAB
  0
TABLE
  2
BLOCK_RECORD
  5
1
330
0
100
AcDbSymbolTable
 70
     1
  0
BLOCK_RECORD
  5
1F
330
1
100
AcDbSymbolTableRecord
100
AcDbBlockTableRecord
  2
*MODEL_SPACE
  0
BLOCK_RECORD
  5
1B
330
1
100
AcDbSymbolTableRecord
100
AcDbBlockTableRecord
  2
*PAPER_SPACE
  0
ENDTAB
  0
ENDSEC
  0
SECTION
  2
BLOCKS
  0
BLOCK
  5
20
330
1F
100
AcDbEntity
  8
0
100
AcDbBlockBegin
  2
*MODEL_SPACE
 70
     0
 10
0.0
 20
0.0
 30
0.0
  3
*MODEL_SPACE
  1

  0
ENDBLK
  5
21
330
1F
100
AcDbEntity
  8
0
100
AcDbBlockEnd
  0
BLOCK
  5
1C
330
1B
100
AcDbEntity
 67
     1
  8
0
100
AcDbBlockBegin
  2
*PAPER_SPACE
  1

  0
ENDBLK
  5
1D
330
1B
100
AcDbEntity
 67
     1
  8
0
100
AcDbBlockEnd
  0
ENDSEC
  0
SECTION
  2
ENTITIES
  0
LWPOLYLINE
  5
100
100
AcDbEntity
  8
0
 62
7
100
AcDbPolyline
 90
56
 70
1
 10
33.024067
 20
-171.140834
 30
0.0
 10
32.798261
 20
-171.118477
 30
0.0
 10
32.583123
 20
-171.052945
 30
0.0
 10
32.384749
 20
-170.947281
 30
0.0
 10
32.209489
 20
-170.803263
 30
0.0
 10
32.065471
 20
-170.628003
 30
0.0
 10
31.959553
 20
-170.429629
 30
0.0
 10
31.894275
 20
-170.214491
 30
0.0
 10
31.871923
 20
-169.988939
 30
0.0
 10
31.871923
 20
-83.527570
 30
0.0
 10
31.894275
 20
-83.301764
 30
0.0
 10
31.959553
 20
-83.086626
 30
0.0
 10
32.065471
 20
-82.888252
 30
0.0
 10
32.209489
 20
-82.712992
 30
0.0
 10
32.384749
 20
-82.568974
 30
0.0
 10
32.583123
 20
-82.463310
 30
0.0
 10
32.798261
 20
-82.397778
 30
0.0
 10
33.024067
 20
-82.375426
 30
0.0
 10
389.602548
 20
-82.402345
 30
0.0
 10
389.828608
 20
-82.424697
 30
0.0
 10
390.044508
 20
-82.489975
 30
0.0
 10
390.242628
 20
-82.595893
 30
0.0
 10
390.417888
 20
-82.739657
 30
0.0
 10
390.560128
 20
-82.915171
 30
0.0
 10
390.666808
 20
-83.113291
 30
0.0
 10
390.732848
 20
-83.328429
 30
0.0
 10
390.755607
 20
-83.554235
 30
0.0
 10
390.755607
 20
-169.952086
 30
0.0
 10
390.732848
 20
-170.177892
 30
0.0
 10
390.666808
 20
-170.392776
 30
0.0
 10
390.560128
 20
-170.591150
 30
0.0
 10
390.417888
 20
-170.766664
 30
0.0
 10
390.242628
 20
-170.910428
 30
0.0
 10
390.044508
 20
-171.016346
 30
0.0
 10
389.828608
 20
-171.081624
 30
0.0
 10
389.602548
 20
-171.103981
 30
0.0
 10
389.602548
 20
-171.103981
 30
0.0
 10
281.119529
 20
-171.103981
 30
0.0
 10
280.563269
 20
-171.147161
 30
0.0
 10
280.022249
 20
-171.275177
 30
0.0
 10
279.509169
 20
-171.484727
 30
0.0
 10
279.031649
 20
-171.772763
 30
0.0
 10
224.301002
 20
-210.497095
 30
0.0
 10
223.813068
 20
-210.772685
 30
0.0
 10
223.292876
 20
-210.973091
 30
0.0
 10
222.749062
 20
-211.095773
 30
0.0
 10
222.190262
 20
-211.138191
 30
0.0
 10
190.811104
 20
-211.209311
 30
0.0
 10
190.253574
 20
-211.167909
 30
0.0
 10
189.711538
 20
-211.043703
 30
0.0
 10
189.194394
 20
-210.838979
 30
0.0
 10
188.711286
 20
-210.557039
 30
0.0
 10
134.180303
 20
-171.809600
 30
0.0
 10
133.701767
 20
-171.521565
 30
0.0
 10
133.187671
 20
-171.312015
 30
0.0
 10
132.368775
 20
-171.162282
 30
0.0
  0
LWPOLYLINE
  5
101
100
AcDbEntity
  8
0
 62
7
100
AcDbPolyline
 90
1024
 70
1
 10
232.104943
 20
-157.051177
 30
0.0
 10
232.103356
 20
-157.209419
 30
0.0
 10
232.100976
 20
-157.367153
 30
0.0
 10
232.097430
 20
-157.525141
 30
0.0
 10
232.093117
 20
-157.682875
 30
0.0
 10
232.087773
 20
-157.840355
 30
0.0
 10
232.081423
 20
-157.997835
 30
0.0
 10
232.074067
 20
-158.155061
 30
0.0
 10
232.065680
 20
-158.312287
 30
0.0
 10
232.056526
 20
-158.469259
 30
0.0
 10
232.046366
 20
-158.626231
 30
0.0
 10
232.034936
 20
-158.782949
 30
0.0
 10
232.023003
 20
-158.939667
 30
0.0
 10
232.009800
 20
-159.096131
 30
0.0
 10
231.995830
 20
-159.252341
 30
0.0
 10
231.980854
 20
-159.408551
 30
0.0
 10
231.964847
 20
-159.564507
 30
0.0
 10
231.947834
 20
-159.720209
 30
0.0
 10
231.930054
 20
-159.875911
 30
0.0
 10
231.911268
 20
-160.031359
 30
0.0
 10
231.891451
 20
-160.186553
 30
0.0
 10
231.870628
 20
-160.341747
 30
0.0
 10
231.849038
 20
-160.496687
 30
0.0
 10
231.826445
 20
-160.651373
 30
0.0
 10
231.802816
 20
-160.805805
 30
0.0
 10
231.778421
 20
-160.959983
 30
0.0
 10
231.753021
 20
-161.114161
 30
0.0
 10
231.726616
 20
-161.268085
 30
0.0
 10
231.699184
 20
-161.421755
 30
0.0
 10
231.670990
 20
-161.575171
 30
0.0
 10
231.641780
 20
-161.728333
 30
0.0
 10
231.611808
 20
-161.881241
 30
0.0
 10
231.580820
 20
-162.034149
 30
0.0
 10
231.548816
 20
-162.186549
 30
0.0
 10
231.516050
 20
-162.338949
 30
0.0
 10
231.482268
 20
-162.490841
 30
0.0
 10
231.447470
 20
-162.642733
 30
0.0
 10
231.411910
 20
-162.794117
 30
0.0
 10
231.375334
 20
-162.945501
 30
0.0
 10
231.337742
 20
-163.096377
 30
0.0
 10
231.299388
 20
-163.247253
 30
0.0
 10
231.260018
 20
-163.397621
 30
0.0
 10
231.219886
 20
-163.547989
 30
0.0
 10
231.178738
 20
-163.697849
 30
0.0
 10
231.136828
 20
-163.847455
 30
0.0
 10
231.093902
 20
-163.996807
 30
0.0
 10
231.049960
 20
-164.145905
 30
0.0
 10
231.005256
 20
-164.294749
 30
0.0
 10
230.959536
 20
-164.443339
 30
0.0
 10
230.913054
 20
-164.591421
 30
0.0
 10
230.865556
 20
-164.739249
 30
0.0
 10
230.817296
 20
-164.886823
 30
0.0
 10
230.768020
 20
-165.034143
 30
0.0
 10
230.717982
 20
-165.181209
 30
0.0
 10
230.666928
 20
-165.327767
 30
0.0
 10
230.615112
 20
-165.474071
 30
0.0
 10
230.562280
 20
-165.620121
 30
0.0
 10
230.508686
 20
-165.765663
 30
0.0
 10
230.454076
 20
-165.910951
 30
0.0
 10
230.398704
 20
-166.055985
 30
0.0
 10
230.342316
 20
-166.200511
 30
0.0
 10
230.285166
 20
-166.344783
 30
0.0
 10
230.227000
 20
-166.488801
 30
0.0
 10
230.168072
 20
-166.632311
 30
0.0
 10
230.108128
 20
-166.775567
 30
0.0
 10
230.047676
 20
-166.918315
 30
0.0
 10
229.985954
 20
-167.060809
 30
0.0
 10
229.923470
 20
-167.202795
 30
0.0
 10
229.860224
 20
-167.344527
 30
0.0
 10
229.795962
 20
-167.485751
 30
0.0
 10
229.730938
 20
-167.626721
 30
0.0
 10
229.665152
 20
-167.767437
 30
0.0
 10
229.598350
 20
-167.907391
 30
0.0
 10
229.530786
 20
-168.047345
 30
0.0
 10
229.462206
 20
-168.186537
 30
0.0
 10
229.393118
 20
-168.325475
 30
0.0
 10
229.322760
 20
-168.464159
 30
0.0
 10
229.251894
 20
-168.602081
 30
0.0
 10
229.180012
 20
-168.739749
 30
0.0
 10
229.107114
 20
-168.877163
 30
0.0
 10
229.033708
 20
-169.014069
 30
0.0
 10
228.959286
 20
-169.150467
 30
0.0
 10
228.883848
 20
-169.286357
 30
0.0
 10
228.807902
 20
-169.421993
 30
0.0
 10
228.730940
 20
-169.556867
 30
0.0
 10
228.652962
 20
-169.691741
 30
0.0
 10
228.574476
 20
-169.825853
 30
0.0
 10
228.494974
 20
-169.959457
 30
0.0
 10
228.414710
 20
-170.092807
 30
0.0
 10
228.333684
 20
-170.225649
 30
0.0
 10
228.251642
 20
-170.357983
 30
0.0
 10
228.168838
 20
-170.489809
 30
0.0
 10
228.085272
 20
-170.621381
 30
0.0
 10
228.000690
 20
-170.752191
 30
0.0
 10
227.915600
 20
-170.882747
 30
0.0
 10
227.829494
 20
-171.012541
 30
0.0
 10
227.742626
 20
-171.142081
 30
0.0
 10
227.654742
 20
-171.271113
 30
0.0
 10
227.566350
 20
-171.399383
 30
0.0
 10
227.476942
 20
-171.527399
 30
0.0
 10
227.386772
 20
-171.654907
 30
0.0
 10
227.295840
 20
-171.781907
 30
0.0
 10
227.204146
 20
-171.908145
 30
0.0
 10
227.111436
 20
-172.034129
 30
0.0
 10
227.017964
 20
-172.159605
 30
0.0
 10
226.923984
 20
-172.284319
 30
0.0
 10
226.828988
 20
-172.408525
 30
0.0
 10
226.732976
 20
-172.532477
 30
0.0
 10
226.636456
 20
-172.655667
 30
0.0
 10
226.539174
 20
-172.778349
 30
0.0
 10
226.440876
 20
-172.900523
 30
0.0
 10
226.341816
 20
-173.021935
 30
0.0
 10
226.241994
 20
-173.143093
 30
0.0
 10
226.141410
 20
-173.263489
 30
0.0
 10
226.040064
 20
-173.383377
 30
0.0
 10
225.937956
 20
-173.502757
 30
0.0
 10
225.835086
 20
-173.621375
 30
0.0
 10
225.731200
 20
-173.739739
 30
0.0
 10
225.626806
 20
-173.857341
 30
0.0
 10
225.521650
 20
-173.974181
 30
0.0
 10
225.415478
 20
-174.090767
 30
0.0
 10
225.308544
 20
-174.206591
 30
0.0
 10
225.201102
 20
-174.321653
 30
0.0
 10
225.092644
 20
-174.436461
 30
0.0
 10
224.983424
 20
-174.550253
 30
0.0
 10
224.873442
 20
-174.663791
 30
0.0
 10
224.762698
 20
-174.776567
 30
0.0
 10
224.651192
 20
-174.888835
 30
0.0
 10
224.539178
 20
-175.000087
 30
0.0
 10
224.426402
 20
-175.110831
 30
0.0
 10
224.312864
 20
-175.220813
 30
0.0
 10
224.198818
 20
-175.330033
 30
0.0
 10
224.084264
 20
-175.438491
 30
0.0
 10
223.968948
 20
-175.545933
 30
0.0
 10
223.853124
 20
-175.652867
 30
0.0
 10
223.736792
 20
-175.759039
 30
0.0
 10
223.619698
 20
-175.864195
 30
0.0
 10
223.502350
 20
-175.968843
 30
0.0
 10
223.383986
 20
-176.072475
 30
0.0
 10
223.265368
 20
-176.175345
 30
0.0
 10
223.145988
 20
-176.277707
 30
0.0
 10
223.026100
 20
-176.379053
 30
0.0
 10
222.905704
 20
-176.479637
 30
0.0
 10
222.784546
 20
-176.579205
 30
0.0
 10
222.663134
 20
-176.678265
 30
0.0
 10
222.540960
 20
-176.776563
 30
0.0
 10
222.418278
 20
-176.873845
 30
0.0
 10
222.295088
 20
-176.970619
 30
0.0
 10
222.171136
 20
-177.066377
 30
0.0
 10
222.046930
 20
-177.161373
 30
0.0
 10
221.921962
 20
-177.255607
 30
0.0
 10
221.796740
 20
-177.348825
 30
0.0
 10
221.670756
 20
-177.441535
 30
0.0
 10
221.544264
 20
-177.533229
 30
0.0
 10
221.417520
 20
-177.624161
 30
0.0
 10
221.290012
 20
-177.714331
 30
0.0
 10
221.161996
 20
-177.803739
 30
0.0
 10
221.033472
 20
-177.892385
 30
0.0
 10
220.904694
 20
-177.980015
 30
0.0
 10
220.775154
 20
-178.066883
 30
0.0
 10
220.645106
 20
-178.152989
 30
0.0
 10
220.514804
 20
-178.238333
 30
0.0
 10
220.383740
 20
-178.322661
 30
0.0
 10
220.252422
 20
-178.406227
 30
0.0
 10
220.120596
 20
-178.489031
 30
0.0
 10
219.988262
 20
-178.571073
 30
0.0
 10
219.855420
 20
-178.652099
 30
0.0
 10
219.722070
 20
-178.732363
 30
0.0
 10
219.588466
 20
-178.811865
 30
0.0
 10
219.454100
 20
-178.890605
 30
0.0
 10
219.319480
 20
-178.968329
 30
0.0
 10
219.184352
 20
-179.045291
 30
0.0
 10
219.048970
 20
-179.121237
 30
0.0
 10
218.912826
 20
-179.196675
 30
0.0
 10
218.776428
 20
-179.271097
 30
0.0
 10
218.639776
 20
-179.344503
 30
0.0
 10
218.502362
 20
-179.417401
 30
0.0
 10
218.364694
 20
-179.489283
 30
0.0
 10
218.226518
 20
-179.560149
 30
0.0
 10
218.088088
 20
-179.630507
 30
0.0
 10
217.949150
 20
-179.699849
 30
0.0
 10
217.809704
 20
-179.768175
 30
0.0
 10
217.670004
 20
-179.835739
 30
0.0
 10
217.529796
 20
-179.902541
 30
0.0
 10
217.389334
 20
-179.968581
 30
0.0
 10
217.248364
 20
-180.033605
 30
0.0
 10
217.107140
 20
-180.097613
 30
0.0
 10
216.965408
 20
-180.161113
 30
0.0
 10
216.823422
 20
-180.223343
 30
0.0
 10
216.680928
 20
-180.285065
 30
0.0
 10
216.537926
 20
-180.345771
 30
0.0
 10
216.394924
 20
-180.405461
 30
0.0
 10
216.251414
 20
-180.464389
 30
0.0
 10
216.107396
 20
-180.522555
 30
0.0
 10
215.963124
 20
-180.579705
 30
0.0
 10
215.818598
 20
-180.636093
 30
0.0
 10
215.673564
 20
-180.691465
 30
0.0
 10
215.528276
 20
-180.746075
 30
0.0
 10
215.382734
 20
-180.799669
 30
0.0
 10
215.236684
 20
-180.852501
 30
0.0
 10
215.090380
 20
-180.904317
 30
0.0
 10
214.943822
 20
-180.955371
 30
0.0
 10
214.796756
 20
-181.005409
 30
0.0
 10
214.649436
 20
-181.054685
 30
0.0
 10
214.501862
 20
-181.102945
 30
0.0
 10
214.354034
 20
-181.150443
 30
0.0
 10
214.205952
 20
-181.196925
 30
0.0
 10
214.057362
 20
-181.242645
 30
0.0
 10
213.908518
 20
-181.287349
 30
0.0
 10
213.759420
 20
-181.331291
 30
0.0
 10
213.610068
 20
-181.374217
 30
0.0
 10
213.460462
 20
-181.416127
 30
0.0
 10
213.310602
 20
-181.457275
 30
0.0
 10
213.160234
 20
-181.497407
 30
0.0
 10
213.009866
 20
-181.536777
 30
0.0
 10
212.858990
 20
-181.575131
 30
0.0
 10
212.708114
 20
-181.612723
 30
0.0
 10
212.556730
 20
-181.649299
 30
0.0
 10
212.405346
 20
-181.684859
 30
0.0
 10
212.253454
 20
-181.719657
 30
0.0
 10
212.101308
 20
-181.753439
 30
0.0
 10
211.949162
 20
-181.786205
 30
0.0
 10
211.796508
 20
-181.818209
 30
0.0
 10
211.643854
 20
-181.849197
 30
0.0
 10
211.490946
 20
-181.879423
 30
0.0
 10
211.337784
 20
-181.908379
 30
0.0
 10
211.184114
 20
-181.936827
 30
0.0
 10
211.030698
 20
-181.964005
 30
0.0
 10
210.876774
 20
-181.990411
 30
0.0
 10
210.722596
 20
-182.015811
 30
0.0
 10
210.568418
 20
-182.040205
 30
0.0
 10
210.413732
 20
-182.063832
 30
0.0
 10
210.259046
 20
-182.086428
 30
0.0
 10
210.104360
 20
-182.108018
 30
0.0
 10
209.949166
 20
-182.128841
 30
0.0
 10
209.793972
 20
-182.148658
 30
0.0
 10
209.638524
 20
-182.167444
 30
0.0
 10
209.482822
 20
-182.185224
 30
0.0
 10
209.327120
 20
-182.202237
 30
0.0
 10
209.171164
 20
-182.218244
 30
0.0
 10
209.014954
 20
-182.233219
 30
0.0
 10
208.858744
 20
-182.247189
 30
0.0
 10
208.702280
 20
-182.260390
 30
0.0
 10
208.545562
 20
-182.272589
 30
0.0
 10
208.388844
 20
-182.283753
 30
0.0
 10
208.231872
 20
-182.293913
 30
0.0
 10
208.074900
 20
-182.303069
 30
0.0
 10
207.917674
 20
-182.311457
 30
0.0
 10
207.760448
 20
-182.318810
 30
0.0
 10
207.602968
 20
-182.325160
 30
0.0
 10
207.445234
 20
-182.330507
 30
0.0
 10
207.287754
 20
-182.334819
 30
0.0
 10
207.129766
 20
-182.338363
 30
0.0
 10
206.971778
 20
-182.340745
 30
0.0
 10
206.813790
 20
-182.342333
 30
0.0
 10
206.655802
 20
-182.342861
 30
0.0
 10
206.497560
 20
-182.342333
 30
0.0
 10
206.339572
 20
-182.340745
 30
0.0
 10
206.181584
 20
-182.338363
 30
0.0
 10
206.023850
 20
-182.334819
 30
0.0
 10
205.866116
 20
-182.330507
 30
0.0
 10
205.708382
 20
-182.325160
 30
0.0
 10
205.551156
 20
-182.318810
 30
0.0
 10
205.393676
 20
-182.311457
 30
0.0
 10
205.236450
 20
-182.303069
 30
0.0
 10
205.079478
 20
-182.293913
 30
0.0
 10
204.922506
 20
-182.283753
 30
0.0
 10
204.765788
 20
-182.272589
 30
0.0
 10
204.609324
 20
-182.260390
 30
0.0
 10
204.452860
 20
-182.247189
 30
0.0
 10
204.296396
 20
-182.233219
 30
0.0
 10
204.140440
 20
-182.218244
 30
0.0
 10
203.984230
 20
-182.202237
 30
0.0
 10
203.828528
 20
-182.185224
 30
0.0
 10
203.672826
 20
-182.167444
 30
0.0
 10
203.517378
 20
-182.148658
 30
0.0
 10
203.362184
 20
-182.128841
 30
0.0
 10
203.207244
 20
-182.108018
 30
0.0
 10
203.052304
 20
-182.086428
 30
0.0
 10
202.897618
 20
-182.063832
 30
0.0
 10
202.743186
 20
-182.040205
 30
0.0
 10
202.588754
 20
-182.015811
 30
0.0
 10
202.434830
 20
-181.990411
 30
0.0
 10
202.280906
 20
-181.964005
 30
0.0
 10
202.127236
 20
-181.936827
 30
0.0
 10
201.973820
 20
-181.908379
 30
0.0
 10
201.820658
 20
-181.879423
 30
0.0
 10
201.667496
 20
-181.849197
 30
0.0
 10
201.514842
 20
-181.818209
 30
0.0
 10
201.362188
 20
-181.786205
 30
0.0
 10
201.210042
 20
-181.753439
 30
0.0
 10
201.057896
 20
-181.719657
 30
0.0
 10
200.906258
 20
-181.684859
 30
0.0
 10
200.754620
 20
-181.649299
 30
0.0
 10
200.603490
 20
-181.612723
 30
0.0
 10
200.452360
 20
-181.575131
 30
0.0
 10
200.301484
 20
-181.536777
 30
0.0
 10
200.151116
 20
-181.497407
 30
0.0
 10
200.001002
 20
-181.457275
 30
0.0
 10
199.850888
 20
-181.416127
 30
0.0
 10
199.701282
 20
-181.374217
 30
0.0
 10
199.551930
 20
-181.331291
 30
0.0
 10
199.402832
 20
-181.287349
 30
0.0
 10
199.253988
 20
-181.242645
 30
0.0
 10
199.105652
 20
-181.196925
 30
0.0
 10
198.957316
 20
-181.150443
 30
0.0
 10
198.809488
 20
-181.102945
 30
0.0
 10
198.661914
 20
-181.054685
 30
0.0
 10
198.514594
 20
-181.005409
 30
0.0
 10
198.367782
 20
-180.955371
 30
0.0
 10
198.220970
 20
-180.904317
 30
0.0
 10
198.074666
 20
-180.852501
 30
0.0
 10
197.928870
 20
-180.799669
 30
0.0
 10
197.783074
 20
-180.746075
 30
0.0
 10
197.637786
 20
-180.691465
 30
0.0
 10
197.493006
 20
-180.636093
 30
0.0
 10
197.348226
 20
-180.579705
 30
0.0
 10
197.203954
 20
-180.522555
 30
0.0
 10
197.060190
 20
-180.464389
 30
0.0
 10
196.916680
 20
-180.405461
 30
0.0
 10
196.773424
 20
-180.345771
 30
0.0
 10
196.630422
 20
-180.285065
 30
0.0
 10
196.488182
 20
-180.223343
 30
0.0
 10
196.345942
 20
-180.161113
 30
0.0
 10
196.204210
 20
-180.097613
 30
0.0
 10
196.062986
 20
-180.033605
 30
0.0
 10
195.922016
 20
-179.968581
 30
0.0
 10
195.781554
 20
-179.902541
 30
0.0
 10
195.641346
 20
-179.835739
 30
0.0
 10
195.501646
 20
-179.768175
 30
0.0
 10
195.362200
 20
-179.699849
 30
0.0
 10
195.223262
 20
-179.630507
 30
0.0
 10
195.084832
 20
-179.560149
 30
0.0
 10
194.946656
 20
-179.489283
 30
0.0
 10
194.808988
 20
-179.417401
 30
0.0
 10
194.671828
 20
-179.344503
 30
0.0
 10
194.534922
 20
-179.271097
 30
0.0
 10
194.398524
 20
-179.196675
 30
0.0
 10
194.262380
 20
-179.121237
 30
0.0
 10
194.126998
 20
-179.045291
 30
0.0
 10
193.991870
 20
-178.968329
 30
0.0
 10
193.857250
 20
-178.890605
 30
0.0
 10
193.723138
 20
-178.811865
 30
0.0
 10
193.589280
 20
-178.732363
 30
0.0
 10
193.455930
 20
-178.652099
 30
0.0
 10
193.323088
 20
-178.571073
 30
0.0
 10
193.190754
 20
-178.489031
 30
0.0
 10
193.058928
 20
-178.406227
 30
0.0
 10
192.927610
 20
-178.322661
 30
0.0
 10
192.796546
 20
-178.238333
 30
0.0
 10
192.666244
 20
-178.152989
 30
0.0
 10
192.536196
 20
-178.066883
 30
0.0
 10
192.406910
 20
-177.980015
 30
0.0
 10
192.277878
 20
-177.892385
 30
0.0
 10
192.149354
 20
-177.803739
 30
0.0
 10
192.021338
 20
-177.714331
 30
0.0
 10
191.894084
 20
-177.624161
 30
0.0
 10
191.767084
 20
-177.533229
 30
0.0
 10
191.640592
 20
-177.441535
 30
0.0
 10
191.514862
 20
-177.348825
 30
0.0
 10
191.389386
 20
-177.255607
 30
0.0
 10
191.264418
 20
-177.161373
 30
0.0
 10
191.140212
 20
-177.066377
 30
0.0
 10
191.016514
 20
-176.970619
 30
0.0
 10
190.893324
 20
-176.873845
 30
0.0
 10
190.770642
 20
-176.776563
 30
0.0
 10
190.648468
 20
-176.678265
 30
0.0
 10
190.526802
 20
-176.579205
 30
0.0
 10
190.405898
 20
-176.479637
 30
0.0
 10
190.285248
 20
-176.379053
 30
0.0
 10
190.165360
 20
-176.277707
 30
0.0
 10
190.046234
 20
-176.175345
 30
0.0
 10
189.927362
 20
-176.072475
 30
0.0
 10
189.809252
 20
-175.968843
 30
0.0
 10
189.691650
 20
-175.864195
 30
0.0
 10
189.574556
 20
-175.759039
 30
0.0
 10
189.458224
 20
-175.652867
 30
0.0
 10
189.342400
 20
-175.545933
 30
0.0
 10
189.227084
 20
-175.438491
 30
0.0
 10
189.112530
 20
-175.330033
 30
0.0
 10
188.998484
 20
-175.220813
 30
0.0
 10
188.885200
 20
-175.110831
 30
0.0
 10
188.772170
 20
-175.000087
 30
0.0
 10
188.660156
 20
-174.888835
 30
0.0
 10
188.548650
 20
-174.776567
 30
0.0
 10
188.437906
 20
-174.663791
 30
0.0
 10
188.327924
 20
-174.550253
 30
0.0
 10
188.218704
 20
-174.436461
 30
0.0
 10
188.110500
 20
-174.321653
 30
0.0
 10
188.002804
 20
-174.206591
 30
0.0
 10
187.895870
 20
-174.090767
 30
0.0
 10
187.789952
 20
-173.974181
 30
0.0
 10
187.684542
 20
-173.857341
 30
0.0
 10
187.580148
 20
-173.739739
 30
0.0
 10
187.476262
 20
-173.621375
 30
0.0
 10
187.373392
 20
-173.502757
 30
0.0
 10
187.271284
 20
-173.383377
 30
0.0
 10
187.169938
 20
-173.263489
 30
0.0
 10
187.069354
 20
-173.143093
 30
0.0
 10
186.969532
 20
-173.021935
 30
0.0
 10
186.870472
 20
-172.900523
 30
0.0
 10
186.772428
 20
-172.778349
 30
0.0
 10
186.674892
 20
-172.655667
 30
0.0
 10
186.578372
 20
-172.532477
 30
0.0
 10
186.482614
 20
-172.408525
 30
0.0
 10
186.387618
 20
-172.284319
 30
0.0
 10
186.293384
 20
-172.159351
 30
0.0
 10
186.199912
 20
-172.034129
 30
0.0
 10
186.107456
 20
-171.908145
 30
0.0
 10
186.015508
 20
-171.781907
 30
0.0
 10
185.924576
 20
-171.654907
 30
0.0
 10
185.834406
 20
-171.527399
 30
0.0
 10
185.744998
 20
-171.399383
 30
0.0
 10
185.656606
 20
-171.271113
 30
0.0
 10
185.568722
 20
-171.142081
 30
0.0
 10
185.481854
 20
-171.012541
 30
0.0
 10
185.395748
 20
-170.882747
 30
0.0
 10
185.310658
 20
-170.752191
 30
0.0
 10
185.226076
 20
-170.621381
 30
0.0
 10
185.142510
 20
-170.489809
 30
0.0
 10
185.059706
 20
-170.357983
 30
0.0
 10
184.977918
 20
-170.225649
 30
0.0
 10
184.896638
 20
-170.092807
 30
0.0
 10
184.816374
 20
-169.959457
 30
0.0
 10
184.736872
 20
-169.825853
 30
0.0
 10
184.658386
 20
-169.691741
 30
0.0
 10
184.580662
 20
-169.556867
 30
0.0
 10
184.503700
 20
-169.421993
 30
0.0
 10
184.427500
 20
-169.286357
 30
0.0
 10
184.352316
 20
-169.150467
 30
0.0
 10
184.277894
 20
-169.014069
 30
0.0
 10
184.204234
 20
-168.877163
 30
0.0
 10
184.131590
 20
-168.739749
 30
0.0
 10
184.059708
 20
-168.602081
 30
0.0
 10
183.988588
 20
-168.464159
 30
0.0
 10
183.918484
 20
-168.325475
 30
0.0
 10
183.849142
 20
-168.186537
 30
0.0
 10
183.780562
 20
-168.047345
 30
0.0
 10
183.712998
 20
-167.907391
 30
0.0
 10
183.646196
 20
-167.767437
 30
0.0
 10
183.580410
 20
-167.626721
 30
0.0
 10
183.515386
 20
-167.485751
 30
0.0
 10
183.451124
 20
-167.344527
 30
0.0
 10
183.387878
 20
-167.202795
 30
0.0
 10
183.325394
 20
-167.060809
 30
0.0
 10
183.263926
 20
-166.918315
 30
0.0
 10
183.203220
 20
-166.775567
 30
0.0
 10
183.143276
 20
-166.632311
 30
0.0
 10
183.084348
 20
-166.488801
 30
0.0
 10
183.026436
 20
-166.344783
 30
0.0
 10
182.969032
 20
-166.200511
 30
0.0
 10
182.912898
 20
-166.055985
 30
0.0
 10
182.857272
 20
-165.910951
 30
0.0
 10
182.802916
 20
-165.765663
 30
0.0
 10
182.749068
 20
-165.620121
 30
0.0
 10
182.696236
 20
-165.474071
 30
0.0
 10
182.644420
 20
-165.327767
 30
0.0
 10
182.593366
 20
-165.181209
 30
0.0
 10
182.543328
 20
-165.034143
 30
0.0
 10
182.494052
 20
-164.886823
 30
0.0
 10
182.445792
 20
-164.739249
 30
0.0
 10
182.398294
 20
-164.591421
 30
0.0
 10
182.351812
 20
-164.443339
 30
0.0
 10
182.306092
 20
-164.294749
 30
0.0
 10
182.261388
 20
-164.145905
 30
0.0
 10
182.217700
 20
-163.996807
 30
0.0
 10
182.174774
 20
-163.847455
 30
0.0
 10
182.132610
 20
-163.697849
 30
0.0
 10
182.091462
 20
-163.547989
 30
0.0
 10
182.051330
 20
-163.397621
 30
0.0
 10
182.011960
 20
-163.247253
 30
0.0
 10
181.973606
 20
-163.096377
 30
0.0
 10
181.936268
 20
-162.945501
 30
0.0
 10
181.899692
 20
-162.794117
 30
0.0
 10
181.863878
 20
-162.642733
 30
0.0
 10
181.829334
 20
-162.490841
 30
0.0
 10
181.795552
 20
-162.338949
 30
0.0
 10
181.762532
 20
-162.186549
 30
0.0
 10
181.730528
 20
-162.034149
 30
0.0
 10
181.699540
 20
-161.881241
 30
0.0
 10
181.669568
 20
-161.728333
 30
0.0
 10
181.640358
 20
-161.575171
 30
0.0
 10
181.612164
 20
-161.421755
 30
0.0
 10
181.584732
 20
-161.268085
 30
0.0
 10
181.558565
 20
-161.114161
 30
0.0
 10
181.533165
 20
-160.959983
 30
0.0
 10
181.508532
 20
-160.805805
 30
0.0
 10
181.484905
 20
-160.651373
 30
0.0
 10
181.462309
 20
-160.496687
 30
0.0
 10
181.440719
 20
-160.341747
 30
0.0
 10
181.419896
 20
-160.186553
 30
0.0
 10
181.400343
 20
-160.031359
 30
0.0
 10
181.381557
 20
-159.875911
 30
0.0
 10
181.363513
 20
-159.720209
 30
0.0
 10
181.346500
 20
-159.564507
 30
0.0
 10
181.330757
 20
-159.408551
 30
0.0
 10
181.315517
 20
-159.252341
 30
0.0
 10
181.301547
 20
-159.096131
 30
0.0
 10
181.288583
 20
-158.939667
 30
0.0
 10
181.276386
 20
-158.782949
 30
0.0
 10
181.265220
 20
-158.626231
 30
0.0
 10
181.255060
 20
-158.469259
 30
0.0
 10
181.245667
 20
-158.312287
 30
0.0
 10
181.237280
 20
-158.155061
 30
0.0
 10
181.230163
 20
-157.997835
 30
0.0
 10
181.223813
 20
-157.840355
 30
0.0
 10
181.218469
 20
-157.682875
 30
0.0
 10
181.213892
 20
-157.525141
 30
0.0
 10
181.210585
 20
-157.367153
 30
0.0
 10
181.207938
 20
-157.209419
 30
0.0
 10
181.206351
 20
-157.051177
 30
0.0
 10
181.205822
 20
-156.893189
 30
0.0
 10
181.206351
 20
-156.734947
 30
0.0
 10
181.207938
 20
-156.576959
 30
0.0
 10
181.210585
 20
-156.418971
 30
0.0
 10
181.213892
 20
-156.261237
 30
0.0
 10
181.218469
 20
-156.103503
 30
0.0
 10
181.223813
 20
-155.946023
 30
0.0
 10
181.230163
 20
-155.788543
 30
0.0
 10
181.237280
 20
-155.631063
 30
0.0
 10
181.245667
 20
-155.474091
 30
0.0
 10
181.255060
 20
-155.316865
 30
0.0
 10
181.265220
 20
-155.160147
 30
0.0
 10
181.276386
 20
-155.003175
 30
0.0
 10
181.288583
 20
-154.846711
 30
0.0
 10
181.301547
 20
-154.690247
 30
0.0
 10
181.315517
 20
-154.533783
 30
0.0
 10
181.330757
 20
-154.377827
 30
0.0
 10
181.346765
 20
-154.221871
 30
0.0
 10
181.363539
 20
-154.065915
 30
0.0
 10
181.381585
 20
-153.910467
 30
0.0
 10
181.400369
 20
-153.755019
 30
0.0
 10
181.419922
 20
-153.599571
 30
0.0
 10
181.440745
 20
-153.444631
 30
0.0
 10
181.462335
 20
-153.289691
 30
0.0
 10
181.484930
 20
-153.135005
 30
0.0
 10
181.508557
 20
-152.980573
 30
0.0
 10
181.533190
 20
-152.826141
 30
0.0
 10
181.558590
 20
-152.672217
 30
0.0
 10
181.584757
 20
-152.518293
 30
0.0
 10
181.612189
 20
-152.364623
 30
0.0
 10
181.640383
 20
-152.211207
 30
0.0
 10
181.669593
 20
-152.058045
 30
0.0
 10
181.699565
 20
-151.904883
 30
0.0
 10
181.730553
 20
-151.752229
 30
0.0
 10
181.762557
 20
-151.599829
 30
0.0
 10
181.795577
 20
-151.447429
 30
0.0
 10
181.829359
 20
-151.295283
 30
0.0
 10
181.863903
 20
-151.143645
 30
0.0
 10
181.899717
 20
-150.992007
 30
0.0
 10
181.936293
 20
-150.840877
 30
0.0
 10
181.973631
 20
-150.689747
 30
0.0
 10
182.011985
 20
-150.539125
 30
0.0
 10
182.051355
 20
-150.388503
 30
0.0
 10
182.091487
 20
-150.238389
 30
0.0
 10
182.132635
 20
-150.088275
 30
0.0
 10
182.174799
 20
-149.938669
 30
0.0
 10
182.217725
 20
-149.789317
 30
0.0
 10
182.261413
 20
-149.640219
 30
0.0
 10
182.306117
 20
-149.491375
 30
0.0
 10
182.351837
 20
-149.343039
 30
0.0
 10
182.398319
 20
-149.194703
 30
0.0
 10
182.445817
 20
-149.046875
 30
0.0
 10
182.494077
 20
-148.899301
 30
0.0
 10
182.543353
 20
-148.751981
 30
0.0
 10
182.593391
 20
-148.605169
 30
0.0
 10
182.644445
 20
-148.458611
 30
0.0
 10
182.696261
 20
-148.312307
 30
0.0
 10
182.749093
 20
-148.166257
 30
0.0
 10
182.802941
 20
-148.020715
 30
0.0
 10
182.857297
 20
-147.875173
 30
0.0
 10
182.912923
 20
-147.730393
 30
0.0
 10
182.969057
 20
-147.585613
 30
0.0
 10
183.026461
 20
-147.441341
 30
0.0
 10
183.084373
 20
-147.297577
 30
0.0
 10
183.143301
 20
-147.154067
 30
0.0
 10
183.203245
 20
-147.010811
 30
0.0
 10
183.263951
 20
-146.868063
 30
0.0
 10
183.325419
 20
-146.725569
 30
0.0
 10
183.387903
 20
-146.583329
 30
0.0
 10
183.451149
 20
-146.441851
 30
0.0
 10
183.515411
 20
-146.300373
 30
0.0
 10
183.580435
 20
-146.159403
 30
0.0
 10
183.646221
 20
-146.018941
 30
0.0
 10
183.713023
 20
-145.878733
 30
0.0
 10
183.780587
 20
-145.739033
 30
0.0
 10
183.849167
 20
-145.599587
 30
0.0
 10
183.918509
 20
-145.460649
 30
0.0
 10
183.988613
 20
-145.322219
 30
0.0
 10
184.059733
 20
-145.184043
 30
0.0
 10
184.131615
 20
-145.046375
 30
0.0
 10
184.204259
 20
-144.909215
 30
0.0
 10
184.277919
 20
-144.772309
 30
0.0
 10
184.352341
 20
-144.635911
 30
0.0
 10
184.427525
 20
-144.500021
 30
0.0
 10
184.503725
 20
-144.364385
 30
0.0
 10
184.580687
 20
-144.229257
 30
0.0
 10
184.658411
 20
-144.094637
 30
0.0
 10
184.736897
 20
-143.960525
 30
0.0
 10
184.816399
 20
-143.826667
 30
0.0
 10
184.896663
 20
-143.693317
 30
0.0
 10
184.977943
 20
-143.560729
 30
0.0
 10
185.059731
 20
-143.428141
 30
0.0
 10
185.142535
 20
-143.296315
 30
0.0
 10
185.226101
 20
-143.164997
 30
0.0
 10
185.310683
 20
-143.034187
 30
0.0
 10
185.395773
 20
-142.903631
 30
0.0
 10
185.481879
 20
-142.773583
 30
0.0
 10
185.568747
 20
-142.644297
 30
0.0
 10
185.656631
 20
-142.515265
 30
0.0
 10
185.745023
 20
-142.386741
 30
0.0
 10
185.834431
 20
-142.258979
 30
0.0
 10
185.924601
 20
-142.131471
 30
0.0
 10
186.015533
 20
-142.004471
 30
0.0
 10
186.107481
 20
-141.877979
 30
0.0
 10
186.199937
 20
-141.752249
 30
0.0
 10
186.293409
 20
-141.626773
 30
0.0
 10
186.387643
 20
-141.502059
 30
0.0
 10
186.482639
 20
-141.377599
 30
0.0
 10
186.578397
 20
-141.253901
 30
0.0
 10
186.674917
 20
-141.130711
 30
0.0
 10
186.772453
 20
-141.008029
 30
0.0
 10
186.870497
 20
-140.885855
 30
0.0
 10
186.969557
 20
-140.764189
 30
0.0
 10
187.069379
 20
-140.643285
 30
0.0
 10
187.169963
 20
-140.522889
 30
0.0
 10
187.271309
 20
-140.402747
 30
0.0
 10
187.373417
 20
-140.283621
 30
0.0
 10
187.476287
 20
-140.164749
 30
0.0
 10
187.580173
 20
-140.046639
 30
0.0
 10
187.684567
 20
-139.929037
 30
0.0
 10
187.789977
 20
-139.811943
 30
0.0
 10
187.895895
 20
-139.695611
 30
0.0
 10
188.002829
 20
-139.579787
 30
0.0
 10
188.110525
 20
-139.464471
 30
0.0
 10
188.218729
 20
-139.349917
 30
0.0
 10
188.327949
 20
-139.235871
 30
0.0
 10
188.437931
 20
-139.122587
 30
0.0
 10
188.548675
 20
-139.009811
 30
0.0
 10
188.660181
 20
-138.897543
 30
0.0
 10
188.772195
 20
-138.786037
 30
0.0
 10
188.885225
 20
-138.675293
 30
0.0
 10
188.998509
 20
-138.565311
 30
0.0
 10
189.112555
 20
-138.456345
 30
0.0
 10
189.227109
 20
-138.347887
 30
0.0
 10
189.342425
 20
-138.240191
 30
0.0
 10
189.458249
 20
-138.133511
 30
0.0
 10
189.574581
 20
-138.027339
 30
0.0
 10
189.691675
 20
-137.921929
 30
0.0
 10
189.809277
 20
-137.817535
 30
0.0
 10
189.927387
 20
-137.713903
 30
0.0
 10
190.046259
 20
-137.610779
 30
0.0
 10
190.165385
 20
-137.508671
 30
0.0
 10
190.285273
 20
-137.407325
 30
0.0
 10
190.405923
 20
-137.306741
 30
0.0
 10
190.526827
 20
-137.206919
 30
0.0
 10
190.648493
 20
-137.107859
 30
0.0
 10
190.770667
 20
-137.009815
 30
0.0
 10
190.893349
 20
-136.912279
 30
0.0
 10
191.016539
 20
-136.815759
 30
0.0
 10
191.140237
 20
-136.720001
 30
0.0
 10
191.264443
 20
-136.625005
 30
0.0
 10
191.389411
 20
-136.530771
 30
0.0
 10
191.514887
 20
-136.437299
 30
0.0
 10
191.640617
 20
-136.344843
 30
0.0
 10
191.767109
 20
-136.252895
 30
0.0
 10
191.894109
 20
-136.161963
 30
0.0
 10
192.021363
 20
-136.071793
 30
0.0
 10
192.149379
 20
-135.982385
 30
0.0
 10
192.277903
 20
-135.893993
 30
0.0
 10
192.406935
 20
-135.806363
 30
0.0
 10
192.536221
 20
-135.719241
 30
0.0
 10
192.666269
 20
-135.633389
 30
0.0
 10
192.796571
 20
-135.548045
 30
0.0
 10
192.927635
 20
-135.463717
 30
0.0
 10
193.058953
 20
-135.379897
 30
0.0
 10
193.190779
 20
-135.297093
 30
0.0
 10
193.323113
 20
-135.215305
 30
0.0
 10
193.455955
 20
-135.134025
 30
0.0
 10
193.589305
 20
-135.053761
 30
0.0
 10
193.723163
 20
-134.974513
 30
0.0
 10
193.857275
 20
-134.895773
 30
0.0
 10
193.991895
 20
-134.818049
 30
0.0
 10
194.127023
 20
-134.741087
 30
0.0
 10
194.262405
 20
-134.664887
 30
0.0
 10
194.398549
 20
-134.589703
 30
0.0
 10
194.534947
 20
-134.515281
 30
0.0
 10
194.671853
 20
-134.441621
 30
0.0
 10
194.809013
 20
-134.368977
 30
0.0
 10
194.946681
 20
-134.297095
 30
0.0
 10
195.084857
 20
-134.225975
 30
0.0
 10
195.223287
 20
-134.155871
 30
0.0
 10
195.362225
 20
-134.086529
 30
0.0
 10
195.501671
 20
-134.017949
 30
0.0
 10
195.641371
 20
-133.950385
 30
0.0
 10
195.781579
 20
-133.883583
 30
0.0
 10
195.922041
 20
-133.817797
 30
0.0
 10
196.063011
 20
-133.752773
 30
0.0
 10
196.204235
 20
-133.688511
 30
0.0
 10
196.345967
 20
-133.625265
 30
0.0
 10
196.488207
 20
-133.562781
 30
0.0
 10
196.630701
 20
-133.501313
 30
0.0
 10
196.773449
 20
-133.440607
 30
0.0
 10
196.916705
 20
-133.380663
 30
0.0
 10
197.060215
 20
-133.321735
 30
0.0
 10
197.203979
 20
-133.263823
 30
0.0
 10
197.348251
 20
-133.206673
 30
0.0
 10
197.493031
 20
-133.150285
 30
0.0
 10
197.637811
 20
-133.094913
 30
0.0
 10
197.783099
 20
-133.040303
 30
0.0
 10
197.928895
 20
-132.986455
 30
0.0
 10
198.074691
 20
-132.933877
 30
0.0
 10
198.220995
 20
-132.881807
 30
0.0
 10
198.367807
 20
-132.831007
 30
0.0
 10
198.514619
 20
-132.780715
 30
0.0
 10
198.661939
 20
-132.731439
 30
0.0
 10
198.809513
 20
-132.683179
 30
0.0
 10
198.957341
 20
-132.635681
 30
0.0
 10
199.105677
 20
-132.589199
 30
0.0
 10
199.254013
 20
-132.543479
 30
0.0
 10
199.402857
 20
-132.498775
 30
0.0
 10
199.551955
 20
-132.455087
 30
0.0
 10
199.701307
 20
-132.412161
 30
0.0
 10
199.850913
 20
-132.369997
 30
0.0
 10
200.001027
 20
-132.328849
 30
0.0
 10
200.151141
 20
-132.288717
 30
0.0
 10
200.301509
 20
-132.249347
 30
0.0
 10
200.452385
 20
-132.210993
 30
0.0
 10
200.603515
 20
-132.173655
 30
0.0
 10
200.754645
 20
-132.137079
 30
0.0
 10
200.906283
 20
-132.101519
 30
0.0
 10
201.057921
 20
-132.066721
 30
0.0
 10
201.210067
 20
-132.032939
 30
0.0
 10
201.362213
 20
-131.999919
 30
0.0
 10
201.514867
 20
-131.968169
 30
0.0
 10
201.667521
 20
-131.937181
 30
0.0
 10
201.820683
 20
-131.906955
 30
0.0
 10
201.973845
 20
-131.877745
 30
0.0
 10
202.127261
 20
-131.849551
 30
0.0
 10
202.280931
 20
-131.822373
 30
0.0
 10
202.434855
 20
-131.795967
 30
0.0
 10
202.588779
 20
-131.770567
 30
0.0
 10
202.743211
 20
-131.745934
 30
0.0
 10
202.897643
 20
-131.722574
 30
0.0
 10
203.052329
 20
-131.699978
 30
0.0
 10
203.207269
 20
-131.678124
 30
0.0
 10
203.362209
 20
-131.657537
 30
0.0
 10
203.517403
 20
-131.637720
 30
0.0
 10
203.672851
 20
-131.618934
 30
0.0
 10
203.828553
 20
-131.600890
 30
0.0
 10
203.984255
 20
-131.584116
 30
0.0
 10
204.140465
 20
-131.568109
 30
0.0
 10
204.296421
 20
-131.553133
 30
0.0
 10
204.452885
 20
-131.538899
 30
0.0
 10
204.609349
 20
-131.525935
 30
0.0
 10
204.765813
 20
-131.513737
 30
0.0
 10
204.922531
 20
-131.502572
 30
0.0
 10
205.079503
 20
-131.492412
 30
0.0
 10
205.236475
 20
-131.483019
 30
0.0
 10
205.393701
 20
-131.474896
 30
0.0
 10
205.551181
 20
-131.467540
 30
0.0
 10
205.708407
 20
-131.461190
 30
0.0
 10
205.866141
 20
-131.455846
 30
0.0
 10
206.023875
 20
-131.451269
 30
0.0
 10
206.181609
 20
-131.447962
 30
0.0
 10
206.339597
 20
-131.445315
 30
0.0
 10
206.497585
 20
-131.443727
 30
0.0
 10
206.655827
 20
-131.443473
 30
0.0
 10
206.813815
 20
-131.443727
 30
0.0
 10
206.971803
 20
-131.445315
 30
0.0
 10
207.129791
 20
-131.447962
 30
0.0
 10
207.287779
 20
-131.451269
 30
0.0
 10
207.445259
 20
-131.455846
 30
0.0
 10
207.602993
 20
-131.461190
 30
0.0
 10
207.760473
 20
-131.467540
 30
0.0
 10
207.917699
 20
-131.474896
 30
0.0
 10
208.074925
 20
-131.483019
 30
0.0
 10
208.231897
 20
-131.492412
 30
0.0
 10
208.388869
 20
-131.502572
 30
0.0
 10
208.545587
 20
-131.513737
 30
0.0
 10
208.702305
 20
-131.525935
 30
0.0
 10
208.858769
 20
-131.538899
 30
0.0
 10
209.014979
 20
-131.553133
 30
0.0
 10
209.171189
 20
-131.568109
 30
0.0
 10
209.327145
 20
-131.584116
 30
0.0
 10
209.482847
 20
-131.600890
 30
0.0
 10
209.638549
 20
-131.618934
 30
0.0
 10
209.793997
 20
-131.637720
 30
0.0
 10
209.949191
 20
-131.657537
 30
0.0
 10
210.104385
 20
-131.678124
 30
0.0
 10
210.259071
 20
-131.699978
 30
0.0
 10
210.413757
 20
-131.722574
 30
0.0
 10
210.568443
 20
-131.745934
 30
0.0
 10
210.722621
 20
-131.770567
 30
0.0
 10
210.876799
 20
-131.795967
 30
0.0
 10
211.030723
 20
-131.822373
 30
0.0
 10
211.184139
 20
-131.849551
 30
0.0
 10
211.337809
 20
-131.877745
 30
0.0
 10
211.490971
 20
-131.906955
 30
0.0
 10
211.643879
 20
-131.937181
 30
0.0
 10
211.796533
 20
-131.968169
 30
0.0
 10
211.949187
 20
-131.999919
 30
0.0
 10
212.101333
 20
-132.032939
 30
0.0
 10
212.253479
 20
-132.066721
 30
0.0
 10
212.405371
 20
-132.101519
 30
0.0
 10
212.556755
 20
-132.137079
 30
0.0
 10
212.708139
 20
-132.173655
 30
0.0
 10
212.859015
 20
-132.210993
 30
0.0
 10
213.009891
 20
-132.249347
 30
0.0
 10
213.160259
 20
-132.288717
 30
0.0
 10
213.310627
 20
-132.328849
 30
0.0
 10
213.460487
 20
-132.369997
 30
0.0
 10
213.610093
 20
-132.412161
 30
0.0
 10
213.759445
 20
-132.455087
 30
0.0
 10
213.908543
 20
-132.498775
 30
0.0
 10
214.057387
 20
-132.543479
 30
0.0
 10
214.205977
 20
-132.589199
 30
0.0
 10
214.354059
 20
-132.635681
 30
0.0
 10
214.501887
 20
-132.683179
 30
0.0
 10
214.649461
 20
-132.731439
 30
0.0
 10
214.796781
 20
-132.780715
 30
0.0
 10
214.943847
 20
-132.831007
 30
0.0
 10
215.090405
 20
-132.881807
 30
0.0
 10
215.236709
 20
-132.933877
 30
0.0
 10
215.382759
 20
-132.986455
 30
0.0
 10
215.528301
 20
-133.040303
 30
0.0
 10
215.673589
 20
-133.094913
 30
0.0
 10
215.818623
 20
-133.150285
 30
0.0
 10
215.963149
 20
-133.206673
 30
0.0
 10
216.107421
 20
-133.263823
 30
0.0
 10
216.251439
 20
-133.321735
 30
0.0
 10
216.394949
 20
-133.380663
 30
0.0
 10
216.537951
 20
-133.440607
 30
0.0
 10
216.680953
 20
-133.501313
 30
0.0
 10
216.823447
 20
-133.562781
 30
0.0
 10
216.965433
 20
-133.625265
 30
0.0
 10
217.107165
 20
-133.688511
 30
0.0
 10
217.248389
 20
-133.752773
 30
0.0
 10
217.389359
 20
-133.817797
 30
0.0
 10
217.529821
 20
-133.883583
 30
0.0
 10
217.670029
 20
-133.950385
 30
0.0
 10
217.809729
 20
-134.017949
 30
0.0
 10
217.949175
 20
-134.086529
 30
0.0
 10
218.088113
 20
-134.155871
 30
0.0
 10
218.226543
 20
-134.225975
 30
0.0
 10
218.364719
 20
-134.297095
 30
0.0
 10
218.502387
 20
-134.368977
 30
0.0
 10
218.639801
 20
-134.441621
 30
0.0
 10
218.776453
 20
-134.515281
 30
0.0
 10
218.912851
 20
-134.589703
 30
0.0
 10
219.048995
 20
-134.664887
 30
0.0
 10
219.184377
 20
-134.741087
 30
0.0
 10
219.319505
 20
-134.818049
 30
0.0
 10
219.454125
 20
-134.895773
 30
0.0
 10
219.588491
 20
-134.974513
 30
0.0
 10
219.722095
 20
-135.053761
 30
0.0
 10
219.855445
 20
-135.134025
 30
0.0
 10
219.988287
 20
-135.215305
 30
0.0
 10
220.120621
 20
-135.297093
 30
0.0
 10
220.252447
 20
-135.379897
 30
0.0
 10
220.383765
 20
-135.463717
 30
0.0
 10
220.514829
 20
-135.548045
 30
0.0
 10
220.645131
 20
-135.633389
 30
0.0
 10
220.775179
 20
-135.719241
 30
0.0
 10
220.904719
 20
-135.806363
 30
0.0
 10
221.033497
 20
-135.893993
 30
0.0
 10
221.162021
 20
-135.982385
 30
0.0
 10
221.290037
 20
-136.071793
 30
0.0
 10
221.417545
 20
-136.161963
 30
0.0
 10
221.544291
 20
-136.252895
 30
0.0
 10
221.670783
 20
-136.344843
 30
0.0
 10
221.796767
 20
-136.437299
 30
0.0
 10
221.921989
 20
-136.530771
 30
0.0
 10
222.046957
 20
-136.625005
 30
0.0
 10
222.171163
 20
-136.720001
 30
0.0
 10
222.295115
 20
-136.815759
 30
0.0
 10
222.418305
 20
-136.912279
 30
0.0
 10
222.540987
 20
-137.009815
 30
0.0
 10
222.663161
 20
-137.107859
 30
0.0
 10
222.784573
 20
-137.206919
 30
0.0
 10
222.905731
 20
-137.306741
 30
0.0
 10
223.026127
 20
-137.407325
 30
0.0
 10
223.146015
 20
-137.508671
 30
0.0
 10
223.265395
 20
-137.610779
 30
0.0
 10
223.384013
 20
-137.713903
 30
0.0
 10
223.502377
 20
-137.817535
 30
0.0
 10
223.619725
 20
-137.921929
 30
0.0
 10
223.736819
 20
-138.027339
 30
0.0
 10
223.853151
 20
-138.133511
 30
0.0
 10
223.968975
 20
-138.240191
 30
0.0
 10
224.084291
 20
-138.347887
 30
0.0
 10
224.198845
 20
-138.456345
 30
0.0
 10
224.312891
 20
-138.565311
 30
0.0
 10
224.426429
 20
-138.675293
 30
0.0
 10
224.539205
 20
-138.786037
 30
0.0
 10
224.651219
 20
-138.897543
 30
0.0
 10
224.762725
 20
-139.009811
 30
0.0
 10
224.873469
 20
-139.122587
 30
0.0
 10
224.983451
 20
-139.235871
 30
0.0
 10
225.092671
 20
-139.349917
 30
0.0
 10
225.201129
 20
-139.464471
 30
0.0
 10
225.308571
 20
-139.579787
 30
0.0
 10
225.415505
 20
-139.695611
 30
0.0
 10
225.521677
 20
-139.811943
 30
0.0
 10
225.626833
 20
-139.929037
 30
0.0
 10
225.731227
 20
-140.046639
 30
0.0
 10
225.835113
 20
-140.164749
 30
0.0
 10
225.937983
 20
-140.283621
 30
0.0
 10
226.040091
 20
-140.402747
 30
0.0
 10
226.141437
 20
-140.522889
 30
0.0
 10
226.242021
 20
-140.643285
 30
0.0
 10
226.341843
 20
-140.764189
 30
0.0
 10
226.440903
 20
-140.885855
 30
0.0
 10
226.539201
 20
-141.008029
 30
0.0
 10
226.636483
 20
-141.130711
 30
0.0
 10
226.733003
 20
-141.253901
 30
0.0
 10
226.829015
 20
-141.377599
 30
0.0
 10
226.924011
 20
-141.502059
 30
0.0
 10
227.017991
 20
-141.626773
 30
0.0
 10
227.111463
 20
-141.752249
 30
0.0
 10
227.204173
 20
-141.877979
 30
0.0
 10
227.295867
 20
-142.004471
 30
0.0
 10
227.386799
 20
-142.131471
 30
0.0
 10
227.476969
 20
-142.258979
 30
0.0
 10
227.566377
 20
-142.386741
 30
0.0
 10
227.654769
 20
-142.515265
 30
0.0
 10
227.742653
 20
-142.644297
 30
0.0
 10
227.829521
 20
-142.773583
 30
0.0
 10
227.915627
 20
-142.903631
 30
0.0
 10
228.000717
 20
-143.034187
 30
0.0
 10
228.085299
 20
-143.164997
 30
0.0
 10
228.168865
 20
-143.296315
 30
0.0
 10
228.251669
 20
-143.428141
 30
0.0
 10
228.333711
 20
-143.560729
 30
0.0
 10
228.414737
 20
-143.693317
 30
0.0
 10
228.495001
 20
-143.826667
 30
0.0
 10
228.574503
 20
-143.960525
 30
0.0
 10
228.652989
 20
-144.094637
 30
0.0
 10
228.730967
 20
-144.229257
 30
0.0
 10
228.807929
 20
-144.364385
 30
0.0
 10
228.883875
 20
-144.500021
 30
0.0
 10
228.959313
 20
-144.635911
 30
0.0
 10
229.033735
 20
-144.772309
 30
0.0
 10
229.107141
 20
-144.909215
 30
0.0
 10
229.180039
 20
-145.046375
 30
0.0
 10
229.251921
 20
-145.184043
 30
0.0
 10
229.322787
 20
-145.322219
 30
0.0
 10
229.393145
 20
-145.460649
 30
0.0
 10
229.462233
 20
-145.599587
 30
0.0
 10
229.530813
 20
-145.739033
 30
0.0
 10
229.598377
 20
-145.878733
 30
0.0
 10
229.665179
 20
-146.018941
 30
0.0
 10
229.730965
 20
-146.159403
 30
0.0
 10
229.795989
 20
-146.300373
 30
0.0
 10
229.860251
 20
-146.441851
 30
0.0
 10
229.923497
 20
-146.583329
 30
0.0
 10
229.985981
 20
-146.725569
 30
0.0
 10
230.047703
 20
-146.868063
 30
0.0
 10
230.108155
 20
-147.010811
 30
0.0
 10
230.168099
 20
-147.154067
 30
0.0
 10
230.227027
 20
-147.297577
 30
0.0
 10
230.285193
 20
-147.441341
 30
0.0
 10
230.342343
 20
-147.585613
 30
0.0
 10
230.398731
 20
-147.730393
 30
0.0
 10
230.454103
 20
-147.875173
 30
0.0
 10
230.508713
 20
-148.020715
 30
0.0
 10
230.562307
 20
-148.166257
 30
0.0
 10
230.615139
 20
-148.312307
 30
0.0
 10
230.666955
 20
-148.458611
 30
0.0
 10
230.718009
 20
-148.605169
 30
0.0
 10
230.768047
 20
-148.751981
 30
0.0
 10
230.817323
 20
-148.899301
 30
0.0
 10
230.865583
 20
-149.046875
 30
0.0
 10
230.913081
 20
-149.194703
 30
0.0
 10
230.959563
 20
-149.343039
 30
0.0
 10
231.005283
 20
-149.491375
 30
0.0
 10
231.049987
 20
-149.640219
 30
0.0
 10
231.093929
 20
-149.789317
 30
0.0
 10
231.136855
 20
-149.938669
 30
0.0
 10
231.178765
 20
-150.088275
 30
0.0
 10
231.219913
 20
-150.238389
 30
0.0
 10
231.260045
 20
-150.388503
 30
0.0
 10
231.299415
 20
-150.539125
 30
0.0
 10
231.337769
 20
-150.689747
 30
0.0
 10
231.375361
 20
-150.840877
 30
0.0
 10
231.411937
 20
-150.992007
 30
0.0
 10
231.447497
 20
-151.143645
 30
0.0
 10
231.482295
 20
-151.295283
 30
0.0
 10
231.516077
 20
-151.447429
 30
0.0
 10
231.548843
 20
-151.599829
 30
0.0
 10
231.580847
 20
-151.752229
 30
0.0
 10
231.611835
 20
-151.904883
 30
0.0
 10
231.641807
 20
-152.058045
 30
0.0
 10
231.671017
 20
-152.211207
 30
0.0
 10
231.699211
 20
-152.364623
 30
0.0
 10
231.726643
 20
-152.518293
 30
0.0
 10
231.753049
 20
-152.672217
 30
0.0
 10
231.778449
 20
-152.826141
 30
0.0
 10
231.802843
 20
-152.980573
 30
0.0
 10
231.826471
 20
-153.135005
 30
0.0
 10
231.849066
 20
-153.289691
 30
0.0
 10
231.870656
 20
-153.444631
 30
0.0
 10
231.891479
 20
-153.599571
 30
0.0
 10
231.911296
 20
-153.755019
 30
0.0
 10
231.930082
 20
-153.910467
 30
0.0
 10
231.947862
 20
-154.065915
 30
0.0
 10
231.964875
 20
-154.221871
 30
0.0
 10
231.980882
 20
-154.377827
 30
0.0
 10
231.995856
 20
-154.533783
 30
0.0
 10
232.009826
 20
-154.690247
 30
0.0
 10
232.023028
 20
-154.846711
 30
0.0
 10
232.034961
 20
-155.003175
 30
0.0
 10
232.046391
 20
-155.160147
 30
0.0
 10
232.056551
 20
-155.316865
 30
0.0
 10
232.065706
 20
-155.474091
 30
0.0
 10
232.074095
 20
-155.631063
 30
0.0
 10
232.081448
 20
-155.788543
 30
0.0
 10
232.087798
 20
-155.946023
 30
0.0
 10
232.093145
 20
-156.103503
 30
0.0
 10
232.097456
 20
-156.261237
 30
0.0
 10
232.101001
 20
-156.418971
 30
0.0
 10
232.103384
 20
-156.576959
 30
0.0
 10
232.104971
 20
-156.734947
 30
0.0
 10
232.105500
 20
-156.893189
 30
0.0
  0
LWPOLYLINE
  5
102
100
AcDbEntity
  8
0
 62
7
100
AcDbPolyline
 90
1024
 70
1
 10
231.901489
 20
-157.048134
 30
0.0
 10
231.899902
 20
-157.205106
 30
0.0
 10
231.897522
 20
-157.361824
 30
0.0
 10
231.893976
 20
-157.518288
 30
0.0
 10
231.889663
 20
-157.674752
 30
0.0
 10
231.884319
 20
-157.831216
 30
0.0
 10
231.877969
 20
-157.987426
 30
0.0
 10
231.870852
 20
-158.143382
 30
0.0
 10
231.862729
 20
-158.299338
 30
0.0
 10
231.853336
 20
-158.455294
 30
0.0
 10
231.843176
 20
-158.610742
 30
0.0
 10
231.832249
 20
-158.766444
 30
0.0
 10
231.820052
 20
-158.921892
 30
0.0
 10
231.807088
 20
-159.077086
 30
0.0
 10
231.793118
 20
-159.232026
 30
0.0
 10
231.778381
 20
-159.386966
 30
0.0
 10
231.762374
 20
-159.541652
 30
0.0
 10
231.745597
 20
-159.696338
 30
0.0
 10
231.727817
 20
-159.850770
 30
0.0
 10
231.709270
 20
-160.004948
 30
0.0
 10
231.689717
 20
-160.158872
 30
0.0
 10
231.669133
 20
-160.312796
 30
0.0
 10
231.647543
 20
-160.466466
 30
0.0
 10
231.625186
 20
-160.619882
 30
0.0
 10
231.601823
 20
-160.773298
 30
0.0
 10
231.577429
 20
-160.926460
 30
0.0
 10
231.552293
 20
-161.079114
 30
0.0
 10
231.526126
 20
-161.231768
 30
0.0
 10
231.498948
 20
-161.384422
 30
0.0
 10
231.471008
 20
-161.536568
 30
0.0
 10
231.442052
 20
-161.688460
 30
0.0
 10
231.412080
 20
-161.840352
 30
0.0
 10
231.381346
 20
-161.991990
 30
0.0
 10
231.349596
 20
-162.143120
 30
0.0
 10
231.317084
 20
-162.294250
 30
0.0
 10
231.283556
 20
-162.445126
 30
0.0
 10
231.249012
 20
-162.595748
 30
0.0
 10
231.213706
 20
-162.746116
 30
0.0
 10
231.177384
 20
-162.896230
 30
0.0
 10
231.140300
 20
-163.046090
 30
0.0
 10
231.102200
 20
-163.195696
 30
0.0
 10
231.063338
 20
-163.344794
 30
0.0
 10
231.023460
 20
-163.493892
 30
0.0
 10
230.982566
 20
-163.642736
 30
0.0
 10
230.940910
 20
-163.791072
 30
0.0
 10
230.898238
 20
-163.939408
 30
0.0
 10
230.854804
 20
-164.087236
 30
0.0
 10
230.810354
 20
-164.234810
 30
0.0
 10
230.765142
 20
-164.382130
 30
0.0
 10
230.718914
 20
-164.529196
 30
0.0
 10
230.671924
 20
-164.676008
 30
0.0
 10
230.623918
 20
-164.822312
 30
0.0
 10
230.575150
 20
-164.968616
 30
0.0
 10
230.525366
 20
-165.114412
 30
0.0
 10
230.474820
 20
-165.259700
 30
0.0
 10
230.423258
 20
-165.404988
 30
0.0
 10
230.370934
 20
-165.549768
 30
0.0
 10
230.317594
 20
-165.694294
 30
0.0
 10
230.263492
 20
-165.838566
 30
0.0
 10
230.208374
 20
-165.982330
 30
0.0
 10
230.152494
 20
-166.125840
 30
0.0
 10
230.095852
 20
-166.268842
 30
0.0
 10
230.038194
 20
-166.411590
 30
0.0
 10
229.979774
 20
-166.554084
 30
0.0
 10
229.920338
 20
-166.696070
 30
0.0
 10
229.860140
 20
-166.837802
 30
0.0
 10
229.799180
 20
-166.979280
 30
0.0
 10
229.737204
 20
-167.120250
 30
0.0
 10
229.674466
 20
-167.260712
 30
0.0
 10
229.610712
 20
-167.400920
 30
0.0
 10
229.546196
 20
-167.540874
 30
0.0
 10
229.480918
 20
-167.680320
 30
0.0
 10
229.414624
 20
-167.819258
 30
0.0
 10
229.347568
 20
-167.957942
 30
0.0
 10
229.279496
 20
-168.096118
 30
0.0
 10
229.210662
 20
-168.234040
 30
0.0
 10
229.141066
 20
-168.371454
 30
0.0
 10
229.070708
 20
-168.508614
 30
0.0
 10
228.999334
 20
-168.645012
 30
0.0
 10
228.927198
 20
-168.781410
 30
0.0
 10
228.854300
 20
-168.917046
 30
0.0
 10
228.780386
 20
-169.052428
 30
0.0
 10
228.705710
 20
-169.187302
 30
0.0
 10
228.630272
 20
-169.321922
 30
0.0
 10
228.553818
 20
-169.455780
 30
0.0
 10
228.476602
 20
-169.589384
 30
0.0
 10
228.398624
 20
-169.722480
 30
0.0
 10
228.319884
 20
-169.855322
 30
0.0
 10
228.240128
 20
-169.987402
 30
0.0
 10
228.159610
 20
-170.119228
 30
0.0
 10
228.078330
 20
-170.250546
 30
0.0
 10
227.996288
 20
-170.381356
 30
0.0
 10
227.913230
 20
-170.511912
 30
0.0
 10
227.829410
 20
-170.641706
 30
0.0
 10
227.744828
 20
-170.770992
 30
0.0
 10
227.659484
 20
-170.900024
 30
0.0
 10
227.573378
 20
-171.028548
 30
0.0
 10
227.486256
 20
-171.156310
 30
0.0
 10
227.398372
 20
-171.283818
 30
0.0
 10
227.309726
 20
-171.410818
 30
0.0
 10
227.220318
 20
-171.537310
 30
0.0
 10
227.130148
 20
-171.663294
 30
0.0
 10
227.038962
 20
-171.788516
 30
0.0
 10
226.947268
 20
-171.913484
 30
0.0
 10
226.854558
 20
-172.037944
 30
0.0
 10
226.761086
 20
-172.161896
 30
0.0
 10
226.666852
 20
-172.285086
 30
0.0
 10
226.571602
 20
-172.408022
 30
0.0
 10
226.475844
 20
-172.530196
 30
0.0
 10
226.379324
 20
-172.651862
 30
0.0
 10
226.281788
 20
-172.773020
 30
0.0
 10
226.183490
 20
-172.893670
 30
0.0
 10
226.084684
 20
-173.013812
 30
0.0
 10
225.984862
 20
-173.133192
 30
0.0
 10
225.884278
 20
-173.252318
 30
0.0
 10
225.782932
 20
-173.370682
 30
0.0
 10
225.680824
 20
-173.488538
 30
0.0
 10
225.577700
 20
-173.605632
 30
0.0
 10
225.474068
 20
-173.722472
 30
0.0
 10
225.369674
 20
-173.838550
 30
0.0
 10
225.264518
 20
-173.953866
 30
0.0
 10
225.158346
 20
-174.068928
 30
0.0
 10
225.051666
 20
-174.183228
 30
0.0
 10
224.943970
 20
-174.297020
 30
0.0
 10
224.835766
 20
-174.410050
 30
0.0
 10
224.726800
 20
-174.522572
 30
0.0
 10
224.616818
 20
-174.634586
 30
0.0
 10
224.506328
 20
-174.745838
 30
0.0
 10
224.395076
 20
-174.856328
 30
0.0
 10
224.283062
 20
-174.966310
 30
0.0
 10
224.170540
 20
-175.075276
 30
0.0
 10
224.057510
 20
-175.183734
 30
0.0
 10
223.943718
 20
-175.291176
 30
0.0
 10
223.829418
 20
-175.397856
 30
0.0
 10
223.714356
 20
-175.504028
 30
0.0
 10
223.599040
 20
-175.609184
 30
0.0
 10
223.482962
 20
-175.713578
 30
0.0
 10
223.366122
 20
-175.817210
 30
0.0
 10
223.249028
 20
-175.920334
 30
0.0
 10
223.131172
 20
-176.022442
 30
0.0
 10
223.012808
 20
-176.123788
 30
0.0
 10
222.893682
 20
-176.224372
 30
0.0
 10
222.774302
 20
-176.324194
 30
0.0
 10
222.654160
 20
-176.423000
 30
0.0
 10
222.533510
 20
-176.521298
 30
0.0
 10
222.412352
 20
-176.618834
 30
0.0
 10
222.290686
 20
-176.715354
 30
0.0
 10
222.168512
 20
-176.811112
 30
0.0
 10
222.045576
 20
-176.906362
 30
0.0
 10
221.922386
 20
-177.000596
 30
0.0
 10
221.798434
 20
-177.094068
 30
0.0
 10
221.673974
 20
-177.186778
 30
0.0
 10
221.549006
 20
-177.278472
 30
0.0
 10
221.423784
 20
-177.369658
 30
0.0
 10
221.297800
 20
-177.459828
 30
0.0
 10
221.171308
 20
-177.549236
 30
0.0
 10
221.044308
 20
-177.637882
 30
0.0
 10
220.916800
 20
-177.725766
 30
0.0
 10
220.789038
 20
-177.812888
 30
0.0
 10
220.660514
 20
-177.898994
 30
0.0
 10
220.531482
 20
-177.984338
 30
0.0
 10
220.402196
 20
-178.068920
 30
0.0
 10
220.272402
 20
-178.152740
 30
0.0
 10
220.141846
 20
-178.235798
 30
0.0
 10
220.011036
 20
-178.317840
 30
0.0
 10
219.879718
 20
-178.399120
 30
0.0
 10
219.747892
 20
-178.479638
 30
0.0
 10
219.615812
 20
-178.559394
 30
0.0
 10
219.482970
 20
-178.638134
 30
0.0
 10
219.349874
 20
-178.716112
 30
0.0
 10
219.216270
 20
-178.793328
 30
0.0
 10
219.082412
 20
-178.869782
 30
0.0
 10
218.947792
 20
-178.945220
 30
0.0
 10
218.812918
 20
-179.019896
 30
0.0
 10
218.677536
 20
-179.093810
 30
0.0
 10
218.541900
 20
-179.166708
 30
0.0
 10
218.405502
 20
-179.238844
 30
0.0
 10
218.269104
 20
-179.310218
 30
0.0
 10
218.131944
 20
-179.380576
 30
0.0
 10
217.994530
 20
-179.450172
 30
0.0
 10
217.856608
 20
-179.519006
 30
0.0
 10
217.718432
 20
-179.587078
 30
0.0
 10
217.579748
 20
-179.654134
 30
0.0
 10
217.440810
 20
-179.720428
 30
0.0
 10
217.301364
 20
-179.785706
 30
0.0
 10
217.161410
 20
-179.850222
 30
0.0
 10
217.021202
 20
-179.913976
 30
0.0
 10
216.880740
 20
-179.976714
 30
0.0
 10
216.739770
 20
-180.038690
 30
0.0
 10
216.598292
 20
-180.099650
 30
0.0
 10
216.456560
 20
-180.159848
 30
0.0
 10
216.314574
 20
-180.219284
 30
0.0
 10
216.172080
 20
-180.277704
 30
0.0
 10
216.029332
 20
-180.335362
 30
0.0
 10
215.886330
 20
-180.392258
 30
0.0
 10
215.742820
 20
-180.448138
 30
0.0
 10
215.598802
 20
-180.503002
 30
0.0
 10
215.454784
 20
-180.557104
 30
0.0
 10
215.310258
 20
-180.610444
 30
0.0
 10
215.165478
 20
-180.662768
 30
0.0
 10
215.020190
 20
-180.714330
 30
0.0
 10
214.874902
 20
-180.764876
 30
0.0
 10
214.729106
 20
-180.814660
 30
0.0
 10
214.582802
 20
-180.863428
 30
0.0
 10
214.436498
 20
-180.911434
 30
0.0
 10
214.289686
 20
-180.958424
 30
0.0
 10
214.142620
 20
-181.004652
 30
0.0
 10
213.995300
 20
-181.049864
 30
0.0
 10
213.847726
 20
-181.094314
 30
0.0
 10
213.699898
 20
-181.137748
 30
0.0
 10
213.551562
 20
-181.180420
 30
0.0
 10
213.403226
 20
-181.222076
 30
0.0
 10
213.254382
 20
-181.262970
 30
0.0
 10
213.105284
 20
-181.302848
 30
0.0
 10
212.956186
 20
-181.341710
 30
0.0
 10
212.806580
 20
-181.379810
 30
0.0
 10
212.656720
 20
-181.416894
 30
0.0
 10
212.506606
 20
-181.453216
 30
0.0
 10
212.356238
 20
-181.488522
 30
0.0
 10
212.205616
 20
-181.523066
 30
0.0
 10
212.054740
 20
-181.556594
 30
0.0
 10
211.903610
 20
-181.589106
 30
0.0
 10
211.752480
 20
-181.620856
 30
0.0
 10
211.600842
 20
-181.651590
 30
0.0
 10
211.448950
 20
-181.681562
 30
0.0
 10
211.297058
 20
-181.710518
 30
0.0
 10
211.144912
 20
-181.738458
 30
0.0
 10
210.992258
 20
-181.765636
 30
0.0
 10
210.839604
 20
-181.791803
 30
0.0
 10
210.686950
 20
-181.816939
 30
0.0
 10
210.533788
 20
-181.841333
 30
0.0
 10
210.380372
 20
-181.864696
 30
0.0
 10
210.226956
 20
-181.887053
 30
0.0
 10
210.073286
 20
-181.908643
 30
0.0
 10
209.919362
 20
-181.929227
 30
0.0
 10
209.765438
 20
-181.948780
 30
0.0
 10
209.611260
 20
-181.967327
 30
0.0
 10
209.456828
 20
-181.985107
 30
0.0
 10
209.302142
 20
-182.001881
 30
0.0
 10
209.147456
 20
-182.017891
 30
0.0
 10
208.992516
 20
-182.032628
 30
0.0
 10
208.837576
 20
-182.046598
 30
0.0
 10
208.682128
 20
-182.059562
 30
0.0
 10
208.526934
 20
-182.071759
 30
0.0
 10
208.371232
 20
-182.082925
 30
0.0
 10
208.215530
 20
-182.092821
 30
0.0
 10
208.059828
 20
-182.102211
 30
0.0
 10
207.903872
 20
-182.110334
 30
0.0
 10
207.747916
 20
-182.117690
 30
0.0
 10
207.591706
 20
-182.123776
 30
0.0
 10
207.435242
 20
-182.129120
 30
0.0
 10
207.278778
 20
-182.133433
 30
0.0
 10
207.122314
 20
-182.136979
 30
0.0
 10
206.965596
 20
-182.139359
 30
0.0
 10
206.808624
 20
-182.140946
 30
0.0
 10
206.651906
 20
-182.141477
 30
0.0
 10
206.488584
 20
-182.140946
 30
0.0
 10
206.325516
 20
-182.139359
 30
0.0
 10
206.162702
 20
-182.136715
 30
0.0
 10
206.000142
 20
-182.133169
 30
0.0
 10
205.837836
 20
-182.128353
 30
0.0
 10
205.675784
 20
-182.122770
 30
0.0
 10
205.513986
 20
-182.116156
 30
0.0
 10
205.352442
 20
-182.108536
 30
0.0
 10
205.191152
 20
-182.099910
 30
0.0
 10
205.030116
 20
-182.090014
 30
0.0
 10
204.869588
 20
-182.079351
 30
0.0
 10
204.709060
 20
-182.067657
 30
0.0
 10
204.548786
 20
-182.054957
 30
0.0
 10
204.389020
 20
-182.041251
 30
0.0
 10
204.229508
 20
-182.026781
 30
0.0
 10
204.070250
 20
-182.011038
 30
0.0
 10
203.911246
 20
-181.994261
 30
0.0
 10
203.752496
 20
-181.976748
 30
0.0
 10
203.594000
 20
-181.958201
 30
0.0
 10
203.435758
 20
-181.938381
 30
0.0
 10
203.278024
 20
-181.917797
 30
0.0
 10
203.120544
 20
-181.896471
 30
0.0
 10
202.963318
 20
-181.873878
 30
0.0
 10
202.806600
 20
-181.850515
 30
0.0
 10
202.649882
 20
-181.826121
 30
0.0
 10
202.493672
 20
-181.800721
 30
0.0
 10
202.337716
 20
-181.774315
 30
0.0
 10
202.182268
 20
-181.746883
 30
0.0
 10
202.026820
 20
-181.718689
 30
0.0
 10
201.871880
 20
-181.689479
 30
0.0
 10
201.717448
 20
-181.659507
 30
0.0
 10
201.563016
 20
-181.628265
 30
0.0
 10
201.409092
 20
-181.596261
 30
0.0
 10
201.255422
 20
-181.563495
 30
0.0
 10
201.102260
 20
-181.529459
 30
0.0
 10
200.949352
 20
-181.494915
 30
0.0
 10
200.796952
 20
-181.459101
 30
0.0
 10
200.644806
 20
-181.422525
 30
0.0
 10
200.492914
 20
-181.384933
 30
0.0
 10
200.341530
 20
-181.346325
 30
0.0
 10
200.190400
 20
-181.306955
 30
0.0
 10
200.039524
 20
-181.266823
 30
0.0
 10
199.889410
 20
-181.225675
 30
0.0
 10
199.739296
 20
-181.183511
 30
0.0
 10
199.589690
 20
-181.140585
 30
0.0
 10
199.440592
 20
-181.096643
 30
0.0
 10
199.291748
 20
-181.051939
 30
0.0
 10
199.143158
 20
-181.006219
 30
0.0
 10
198.995076
 20
-180.959737
 30
0.0
 10
198.847502
 20
-180.912239
 30
0.0
 10
198.700182
 20
-180.863979
 30
0.0
 10
198.553370
 20
-180.814703
 30
0.0
 10
198.407066
 20
-180.764665
 30
0.0
 10
198.260762
 20
-180.713611
 30
0.0
 10
198.115220
 20
-180.661795
 30
0.0
 10
197.969932
 20
-180.609217
 30
0.0
 10
197.825152
 20
-180.555623
 30
0.0
 10
197.680880
 20
-180.501267
 30
0.0
 10
197.536862
 20
-180.446149
 30
0.0
 10
197.393352
 20
-180.390015
 30
0.0
 10
197.250096
 20
-180.333119
 30
0.0
 10
197.107348
 20
-180.275207
 30
0.0
 10
196.965108
 20
-180.216533
 30
0.0
 10
196.823376
 20
-180.157097
 30
0.0
 10
196.681898
 20
-180.096899
 30
0.0
 10
196.540928
 20
-180.035685
 30
0.0
 10
196.400466
 20
-179.973709
 30
0.0
 10
196.260512
 20
-179.910971
 30
0.0
 10
196.120812
 20
-179.847217
 30
0.0
 10
195.981874
 20
-179.782701
 30
0.0
 10
195.843190
 20
-179.717423
 30
0.0
 10
195.705014
 20
-179.651383
 30
0.0
 10
195.567092
 20
-179.584581
 30
0.0
 10
195.429932
 20
-179.516763
 30
0.0
 10
195.293026
 20
-179.448437
 30
0.0
 10
195.156628
 20
-179.379095
 30
0.0
 10
195.020738
 20
-179.308991
 30
0.0
 10
194.885356
 20
-179.238125
 30
0.0
 10
194.750482
 20
-179.166243
 30
0.0
 10
194.616116
 20
-179.093853
 30
0.0
 10
194.482258
 20
-179.020447
 30
0.0
 10
194.348908
 20
-178.946533
 30
0.0
 10
194.215812
 20
-178.871603
 30
0.0
 10
194.083478
 20
-178.795911
 30
0.0
 10
193.951398
 20
-178.719711
 30
0.0
 10
193.820080
 20
-178.642495
 30
0.0
 10
193.689270
 20
-178.564517
 30
0.0
 10
193.558714
 20
-178.485777
 30
0.0
 10
193.428920
 20
-178.406275
 30
0.0
 10
193.299380
 20
-178.326265
 30
0.0
 10
193.170602
 20
-178.245239
 30
0.0
 10
193.042332
 20
-178.163451
 30
0.0
 10
192.914570
 20
-178.080901
 30
0.0
 10
192.787316
 20
-177.997843
 30
0.0
 10
192.660570
 20
-177.913769
 30
0.0
 10
192.534332
 20
-177.829187
 30
0.0
 10
192.408602
 20
-177.743589
 30
0.0
 10
192.283634
 20
-177.657483
 30
0.0
 10
192.158920
 20
-177.570615
 30
0.0
 10
192.034968
 20
-177.482985
 30
0.0
 10
191.911524
 20
-177.394593
 30
0.0
 10
191.788588
 20
-177.305439
 30
0.0
 10
191.666160
 20
-177.215523
 30
0.0
 10
191.544240
 20
-177.125099
 30
0.0
 10
191.423082
 20
-177.033913
 30
0.0
 10
191.302432
 20
-176.941965
 30
0.0
 10
191.182290
 20
-176.849255
 30
0.0
 10
191.062910
 20
-176.755783
 30
0.0
 10
190.943784
 20
-176.661803
 30
0.0
 10
190.825420
 20
-176.567061
 30
0.0
 10
190.707564
 20
-176.471557
 30
0.0
 10
190.590470
 20
-176.375545
 30
0.0
 10
190.473884
 20
-176.278771
 30
0.0
 10
190.357806
 20
-176.181235
 30
0.0
 10
190.242490
 20
-176.082937
 30
0.0
 10
190.127682
 20
-175.984131
 30
0.0
 10
190.013382
 20
-175.884563
 30
0.0
 10
189.899590
 20
-175.784233
 30
0.0
 10
189.786814
 20
-175.683395
 30
0.0
 10
189.674292
 20
-175.581795
 30
0.0
 10
189.562532
 20
-175.479687
 30
0.0
 10
189.451280
 20
-175.376817
 30
0.0
 10
189.340790
 20
-175.273185
 30
0.0
 10
189.230808
 20
-175.169045
 30
0.0
 10
189.121588
 20
-175.064143
 30
0.0
 10
189.012876
 20
-174.958733
 30
0.0
 10
188.904672
 20
-174.852561
 30
0.0
 10
188.797484
 20
-174.745881
 30
0.0
 10
188.690550
 20
-174.638439
 30
0.0
 10
188.584378
 20
-174.530235
 30
0.0
 10
188.478968
 20
-174.421777
 30
0.0
 10
188.374066
 20
-174.312303
 30
0.0
 10
188.269926
 20
-174.202321
 30
0.0
 10
188.166294
 20
-174.091831
 30
0.0
 10
188.063424
 20
-173.980579
 30
0.0
 10
187.961316
 20
-173.868819
 30
0.0
 10
187.859716
 20
-173.756551
 30
0.0
 10
187.758878
 20
-173.643521
 30
0.0
 10
187.658548
 20
-173.529729
 30
0.0
 10
187.558980
 20
-173.415683
 30
0.0
 10
187.460174
 20
-173.300875
 30
0.0
 10
187.362130
 20
-173.185305
 30
0.0
 10
187.264594
 20
-173.069227
 30
0.0
 10
187.167566
 20
-172.952641
 30
0.0
 10
187.071554
 20
-172.835547
 30
0.0
 10
186.976050
 20
-172.717691
 30
0.0
 10
186.881308
 20
-172.599327
 30
0.0
 10
186.787328
 20
-172.480455
 30
0.0
 10
186.693856
 20
-172.360821
 30
0.0
 10
186.601400
 20
-172.240679
 30
0.0
 10
186.509452
 20
-172.120029
 30
0.0
 10
186.418012
 20
-171.998871
 30
0.0
 10
186.327588
 20
-171.876951
 30
0.0
 10
186.237672
 20
-171.754777
 30
0.0
 10
186.148772
 20
-171.631841
 30
0.0
 10
186.060380
 20
-171.508397
 30
0.0
 10
185.972750
 20
-171.384191
 30
0.0
 10
185.885628
 20
-171.259731
 30
0.0
 10
185.799522
 20
-171.134509
 30
0.0
 10
185.714178
 20
-171.008779
 30
0.0
 10
185.629342
 20
-170.882795
 30
0.0
 10
185.545522
 20
-170.756049
 30
0.0
 10
185.462210
 20
-170.628795
 30
0.0
 10
185.379660
 20
-170.500779
 30
0.0
 10
185.297872
 20
-170.372509
 30
0.0
 10
185.217100
 20
-170.243731
 30
0.0
 10
185.136836
 20
-170.114191
 30
0.0
 10
185.057334
 20
-169.984397
 30
0.0
 10
184.978594
 20
-169.854095
 30
0.0
 10
184.900616
 20
-169.723031
 30
0.0
 10
184.823654
 20
-169.591713
 30
0.0
 10
184.747200
 20
-169.459633
 30
0.0
 10
184.671508
 20
-169.327299
 30
0.0
 10
184.596578
 20
-169.194457
 30
0.0
 10
184.522664
 20
-169.060853
 30
0.0
 10
184.449258
 20
-168.926995
 30
0.0
 10
184.376868
 20
-168.792629
 30
0.0
 10
184.305240
 20
-168.657755
 30
0.0
 10
184.234374
 20
-168.522373
 30
0.0
 10
184.164270
 20
-168.386483
 30
0.0
 10
184.094928
 20
-168.250085
 30
0.0
 10
184.026348
 20
-168.113433
 30
0.0
 10
183.958530
 20
-167.976019
 30
0.0
 10
183.891728
 20
-167.838351
 30
0.0
 10
183.825688
 20
-167.700175
 30
0.0
 10
183.760410
 20
-167.561491
 30
0.0
 10
183.695894
 20
-167.422299
 30
0.0
 10
183.632394
 20
-167.282599
 30
0.0
 10
183.569402
 20
-167.142645
 30
0.0
 10
183.507426
 20
-167.002183
 30
0.0
 10
183.446466
 20
-166.861213
 30
0.0
 10
183.386014
 20
-166.719735
 30
0.0
 10
183.326578
 20
-166.578003
 30
0.0
 10
183.267904
 20
-166.435763
 30
0.0
 10
183.210246
 20
-166.293015
 30
0.0
 10
183.153350
 20
-166.150013
 30
0.0
 10
183.097216
 20
-166.006249
 30
0.0
 10
183.041844
 20
-165.862485
 30
0.0
 10
182.987488
 20
-165.717959
 30
0.0
 10
182.933894
 20
-165.573179
 30
0.0
 10
182.881316
 20
-165.427891
 30
0.0
 10
182.829500
 20
-165.282349
 30
0.0
 10
182.778446
 20
-165.136299
 30
0.0
 10
182.728408
 20
-164.989741
 30
0.0
 10
182.679386
 20
-164.842929
 30
0.0
 10
182.630872
 20
-164.695609
 30
0.0
 10
182.583628
 20
-164.548035
 30
0.0
 10
182.536892
 20
-164.399953
 30
0.0
 10
182.491426
 20
-164.251617
 30
0.0
 10
182.446468
 20
-164.102773
 30
0.0
 10
182.402780
 20
-163.953421
 30
0.0
 10
182.359600
 20
-163.803815
 30
0.0
 10
182.317690
 20
-163.653955
 30
0.0
 10
182.276288
 20
-163.503587
 30
0.0
 10
182.236156
 20
-163.352711
 30
0.0
 10
182.196786
 20
-163.201835
 30
0.0
 10
182.158178
 20
-163.050197
 30
0.0
 10
182.120840
 20
-162.898559
 30
0.0
 10
182.084010
 20
-162.746413
 30
0.0
 10
182.048450
 20
-162.593759
 30
0.0
 10
182.013652
 20
-162.440851
 30
0.0
 10
181.979616
 20
-162.287689
 30
0.0
 10
181.946850
 20
-162.134019
 30
0.0
 10
181.914846
 20
-161.980095
 30
0.0
 10
181.883858
 20
-161.825917
 30
0.0
 10
181.853632
 20
-161.671231
 30
0.0
 10
181.824422
 20
-161.516291
 30
0.0
 10
181.796228
 20
-161.361097
 30
0.0
 10
181.768796
 20
-161.205395
 30
0.0
 10
181.742629
 20
-161.049439
 30
0.0
 10
181.717229
 20
-160.893229
 30
0.0
 10
181.692834
 20
-160.736765
 30
0.0
 10
181.669207
 20
-160.579793
 30
0.0
 10
181.646850
 20
-160.422567
 30
0.0
 10
181.625260
 20
-160.265087
 30
0.0
 10
181.604676
 20
-160.107353
 30
0.0
 10
181.585123
 20
-159.949111
 30
0.0
 10
181.566337
 20
-159.790869
 30
0.0
 10
181.548822
 20
-159.632119
 30
0.0
 10
181.532047
 20
-159.473115
 30
0.0
 10
181.516543
 20
-159.313857
 30
0.0
 10
181.501806
 20
-159.154091
 30
0.0
 10
181.488100
 20
-158.994325
 30
0.0
 10
181.475400
 20
-158.834051
 30
0.0
 10
181.463706
 20
-158.673777
 30
0.0
 10
181.453043
 20
-158.512995
 30
0.0
 10
181.443386
 20
-158.351959
 30
0.0
 10
181.434760
 20
-158.190669
 30
0.0
 10
181.426876
 20
-158.029125
 30
0.0
 10
181.420262
 20
-157.867327
 30
0.0
 10
181.414679
 20
-157.705275
 30
0.0
 10
181.410102
 20
-157.542969
 30
0.0
 10
181.406292
 20
-157.380409
 30
0.0
 10
181.403645
 20
-157.217849
 30
0.0
 10
181.402058
 20
-157.054781
 30
0.0
 10
181.401529
 20
-156.891459
 30
0.0
 10
181.402058
 20
-156.734487
 30
0.0
 10
181.403645
 20
-156.577769
 30
0.0
 10
181.406025
 20
-156.421051
 30
0.0
 10
181.409571
 20
-156.264333
 30
0.0
 10
181.413884
 20
-156.107869
 30
0.0
 10
181.419228
 20
-155.951659
 30
0.0
 10
181.425578
 20
-155.795449
 30
0.0
 10
181.432695
 20
-155.639239
 30
0.0
 10
181.441085
 20
-155.483283
 30
0.0
 10
181.450239
 20
-155.327581
 30
0.0
 10
181.460399
 20
-155.171879
 30
0.0
 10
181.471326
 20
-155.016431
 30
0.0
 10
181.483523
 20
-154.860983
 30
0.0
 10
181.496487
 20
-154.705789
 30
0.0
 10
181.510457
 20
-154.550595
 30
0.0
 10
181.525433
 20
-154.395655
 30
0.0
 10
181.541176
 20
-154.240969
 30
0.0
 10
181.557950
 20
-154.086283
 30
0.0
 10
181.575730
 20
-153.932105
 30
0.0
 10
181.594277
 20
-153.777673
 30
0.0
 10
181.614094
 20
-153.623749
 30
0.0
 10
181.634679
 20
-153.469825
 30
0.0
 10
181.656004
 20
-153.316155
 30
0.0
 10
181.678600
 20
-153.162739
 30
0.0
 10
181.701963
 20
-153.009323
 30
0.0
 10
181.726093
 20
-152.856415
 30
0.0
 10
181.751493
 20
-152.703507
 30
0.0
 10
181.777660
 20
-152.550853
 30
0.0
 10
181.804584
 20
-152.398453
 30
0.0
 10
181.832524
 20
-152.246053
 30
0.0
 10
181.861480
 20
-152.094161
 30
0.0
 10
181.891452
 20
-151.942269
 30
0.0
 10
181.922186
 20
-151.790885
 30
0.0
 10
181.953936
 20
-151.639501
 30
0.0
 10
181.986448
 20
-151.488371
 30
0.0
 10
182.019976
 20
-151.337495
 30
0.0
 10
182.054520
 20
-151.186873
 30
0.0
 10
182.089826
 20
-151.036505
 30
0.0
 10
182.126148
 20
-150.886391
 30
0.0
 10
182.163232
 20
-150.736785
 30
0.0
 10
182.201332
 20
-150.587179
 30
0.0
 10
182.240448
 20
-150.437827
 30
0.0
 10
182.280326
 20
-150.288729
 30
0.0
 10
182.320966
 20
-150.139885
 30
0.0
 10
182.362876
 20
-149.991549
 30
0.0
 10
182.405294
 20
-149.843213
 30
0.0
 10
182.448728
 20
-149.695385
 30
0.0
 10
182.493178
 20
-149.547811
 30
0.0
 10
182.538390
 20
-149.400491
 30
0.0
 10
182.584618
 20
-149.253425
 30
0.0
 10
182.631862
 20
-149.106613
 30
0.0
 10
182.679614
 20
-148.960309
 30
0.0
 10
182.728636
 20
-148.814259
 30
0.0
 10
182.778166
 20
-148.668463
 30
0.0
 10
182.828966
 20
-148.522921
 30
0.0
 10
182.880274
 20
-148.377633
 30
0.0
 10
182.932598
 20
-148.232853
 30
0.0
 10
182.985938
 20
-148.088327
 30
0.0
 10
183.040040
 20
-147.944309
 30
0.0
 10
183.095158
 20
-147.800545
 30
0.0
 10
183.151038
 20
-147.657035
 30
0.0
 10
183.207680
 20
-147.513779
 30
0.0
 10
183.265338
 20
-147.371031
 30
0.0
 10
183.323758
 20
-147.228537
 30
0.0
 10
183.383194
 20
-147.086551
 30
0.0
 10
183.443392
 20
-146.944819
 30
0.0
 10
183.504606
 20
-146.803595
 30
0.0
 10
183.566328
 20
-146.662625
 30
0.0
 10
183.629320
 20
-146.521909
 30
0.0
 10
183.692820
 20
-146.381701
 30
0.0
 10
183.757336
 20
-146.242001
 30
0.0
 10
183.822868
 20
-146.102555
 30
0.0
 10
183.888908
 20
-145.963363
 30
0.0
 10
183.956218
 20
-145.824679
 30
0.0
 10
184.024036
 20
-145.686503
 30
0.0
 10
184.092870
 20
-145.548581
 30
0.0
 10
184.162466
 20
-145.411167
 30
0.0
 10
184.232824
 20
-145.274261
 30
0.0
 10
184.304198
 20
-145.137609
 30
0.0
 10
184.376334
 20
-145.001465
 30
0.0
 10
184.449486
 20
-144.865575
 30
0.0
 10
184.523146
 20
-144.730193
 30
0.0
 10
184.597822
 20
-144.595319
 30
0.0
 10
184.673514
 20
-144.460953
 30
0.0
 10
184.749714
 20
-144.326841
 30
0.0
 10
184.826930
 20
-144.193237
 30
0.0
 10
184.904908
 20
-144.060141
 30
0.0
 10
184.983902
 20
-143.927553
 30
0.0
 10
185.063404
 20
-143.795219
 30
0.0
 10
185.143922
 20
-143.663393
 30
0.0
 10
185.225202
 20
-143.532075
 30
0.0
 10
185.307244
 20
-143.401265
 30
0.0
 10
185.390302
 20
-143.270963
 30
0.0
 10
185.474122
 20
-143.140915
 30
0.0
 10
185.558704
 20
-143.011629
 30
0.0
 10
185.644048
 20
-142.882597
 30
0.0
 10
185.730408
 20
-142.754327
 30
0.0
 10
185.817276
 20
-142.626311
 30
0.0
 10
185.905160
 20
-142.498803
 30
0.0
 10
185.993806
 20
-142.371803
 30
0.0
 10
186.083214
 20
-142.245311
 30
0.0
 10
186.173638
 20
-142.119581
 30
0.0
 10
186.264570
 20
-141.994105
 30
0.0
 10
186.356518
 20
-141.869137
 30
0.0
 10
186.449228
 20
-141.744677
 30
0.0
 10
186.542446
 20
-141.620979
 30
0.0
 10
186.636934
 20
-141.497535
 30
0.0
 10
186.731930
 20
-141.374853
 30
0.0
 10
186.827688
 20
-141.252425
 30
0.0
 10
186.924462
 20
-141.130759
 30
0.0
 10
187.021744
 20
-141.009601
 30
0.0
 10
187.120042
 20
-140.888951
 30
0.0
 10
187.219102
 20
-140.768809
 30
0.0
 10
187.318924
 20
-140.649429
 30
0.0
 10
187.419254
 20
-140.530557
 30
0.0
 10
187.520854
 20
-140.411939
 30
0.0
 10
187.622962
 20
-140.294337
 30
0.0
 10
187.725832
 20
-140.176989
 30
0.0
 10
187.829464
 20
-140.060403
 30
0.0
 10
187.933858
 20
-139.944325
 30
0.0
 10
188.039268
 20
-139.828755
 30
0.0
 10
188.145186
 20
-139.713693
 30
0.0
 10
188.251866
 20
-139.599393
 30
0.0
 10
188.359562
 20
-139.485855
 30
0.0
 10
188.467766
 20
-139.372571
 30
0.0
 10
188.576986
 20
-139.260049
 30
0.0
 10
188.686714
 20
-139.148289
 30
0.0
 10
188.797458
 20
-139.037037
 30
0.0
 10
188.908710
 20
-138.926293
 30
0.0
 10
189.020470
 20
-138.816565
 30
0.0
 10
189.132992
 20
-138.707345
 30
0.0
 10
189.246276
 20
-138.599141
 30
0.0
 10
189.359814
 20
-138.491445
 30
0.0
 10
189.474114
 20
-138.384765
 30
0.0
 10
189.589176
 20
-138.278847
 30
0.0
 10
189.704746
 20
-138.173437
 30
0.0
 10
189.820824
 20
-138.069043
 30
0.0
 10
189.937410
 20
-137.965411
 30
0.0
 10
190.054758
 20
-137.862541
 30
0.0
 10
190.172360
 20
-137.760433
 30
0.0
 10
190.290978
 20
-137.659087
 30
0.0
 10
190.409850
 20
-137.558503
 30
0.0
 10
190.529230
 20
-137.458681
 30
0.0
 10
190.649372
 20
-137.359621
 30
0.0
 10
190.770022
 20
-137.261323
 30
0.0
 10
190.891180
 20
-137.164041
 30
0.0
 10
191.012846
 20
-137.067267
 30
0.0
 10
191.135274
 20
-136.971509
 30
0.0
 10
191.257956
 20
-136.876513
 30
0.0
 10
191.381400
 20
-136.782279
 30
0.0
 10
191.505098
 20
-136.688807
 30
0.0
 10
191.629558
 20
-136.596097
 30
0.0
 10
191.754526
 20
-136.504149
 30
0.0
 10
191.880002
 20
-136.413217
 30
0.0
 10
192.005732
 20
-136.322793
 30
0.0
 10
192.132224
 20
-136.233385
 30
0.0
 10
192.259224
 20
-136.144739
 30
0.0
 10
192.386732
 20
-136.056855
 30
0.0
 10
192.514748
 20
-135.969987
 30
0.0
 10
192.643018
 20
-135.883627
 30
0.0
 10
192.772050
 20
-135.798283
 30
0.0
 10
192.901336
 20
-135.713701
 30
0.0
 10
193.031384
 20
-135.629881
 30
0.0
 10
193.161686
 20
-135.547077
 30
0.0
 10
193.292496
 20
-135.464781
 30
0.0
 10
193.423814
 20
-135.383501
 30
0.0
 10
193.555640
 20
-135.302983
 30
0.0
 10
193.687720
 20
-135.223481
 30
0.0
 10
193.820562
 20
-135.144487
 30
0.0
 10
193.953658
 20
-135.066509
 30
0.0
 10
194.087262
 20
-134.989293
 30
0.0
 10
194.221374
 20
-134.913093
 30
0.0
 10
194.355740
 20
-134.837401
 30
0.0
 10
194.490614
 20
-134.762725
 30
0.0
 10
194.625996
 20
-134.689065
 30
0.0
 10
194.761886
 20
-134.615913
 30
0.0
 10
194.898030
 20
-134.543777
 30
0.0
 10
195.034682
 20
-134.472403
 30
0.0
 10
195.171588
 20
-134.402045
 30
0.0
 10
195.309002
 20
-134.332449
 30
0.0
 10
195.446924
 20
-134.263615
 30
0.0
 10
195.585100
 20
-134.195797
 30
0.0
 10
195.723784
 20
-134.128487
 30
0.0
 10
195.862976
 20
-134.062447
 30
0.0
 10
196.002422
 20
-133.996915
 30
0.0
 10
196.142122
 20
-133.932399
 30
0.0
 10
196.282330
 20
-133.868899
 30
0.0
 10
196.423046
 20
-133.805907
 30
0.0
 10
196.564016
 20
-133.744185
 30
0.0
 10
196.705240
 20
-133.682971
 30
0.0
 10
196.846972
 20
-133.622773
 30
0.0
 10
196.988958
 20
-133.563337
 30
0.0
 10
197.131452
 20
-133.504917
 30
0.0
 10
197.274200
 20
-133.447259
 30
0.0
 10
197.417456
 20
-133.390617
 30
0.0
 10
197.560966
 20
-133.334737
 30
0.0
 10
197.704730
 20
-133.279619
 30
0.0
 10
197.848748
 20
-133.225517
 30
0.0
 10
197.993274
 20
-133.172431
 30
0.0
 10
198.138054
 20
-133.119853
 30
0.0
 10
198.283342
 20
-133.068545
 30
0.0
 10
198.428884
 20
-133.017745
 30
0.0
 10
198.574680
 20
-132.968215
 30
0.0
 10
198.720730
 20
-132.919193
 30
0.0
 10
198.867034
 20
-132.871441
 30
0.0
 10
199.013846
 20
-132.824197
 30
0.0
 10
199.160912
 20
-132.777969
 30
0.0
 10
199.308232
 20
-132.732757
 30
0.0
 10
199.455806
 20
-132.688307
 30
0.0
 10
199.603634
 20
-132.644873
 30
0.0
 10
199.751970
 20
-132.602455
 30
0.0
 10
199.900306
 20
-132.560545
 30
0.0
 10
200.049150
 20
-132.519905
 30
0.0
 10
200.198248
 20
-132.480027
 30
0.0
 10
200.347600
 20
-132.440911
 30
0.0
 10
200.497206
 20
-132.402811
 30
0.0
 10
200.646812
 20
-132.365727
 30
0.0
 10
200.796926
 20
-132.329405
 30
0.0
 10
200.947294
 20
-132.294099
 30
0.0
 10
201.097916
 20
-132.259555
 30
0.0
 10
201.248792
 20
-132.226027
 30
0.0
 10
201.399922
 20
-132.193515
 30
0.0
 10
201.551306
 20
-132.161765
 30
0.0
 10
201.702690
 20
-132.131031
 30
0.0
 10
201.854582
 20
-132.101059
 30
0.0
 10
202.006474
 20
-132.072357
 30
0.0
 10
202.158874
 20
-132.044163
 30
0.0
 10
202.311274
 20
-132.017239
 30
0.0
 10
202.463928
 20
-131.991072
 30
0.0
 10
202.616836
 20
-131.965672
 30
0.0
 10
202.769744
 20
-131.941542
 30
0.0
 10
202.923160
 20
-131.918179
 30
0.0
 10
203.076576
 20
-131.895583
 30
0.0
 10
203.230246
 20
-131.874257
 30
0.0
 10
203.384170
 20
-131.853673
 30
0.0
 10
203.538094
 20
-131.834120
 30
0.0
 10
203.692526
 20
-131.815335
 30
0.0
 10
203.846704
 20
-131.797555
 30
0.0
 10
204.001390
 20
-131.780780
 30
0.0
 10
204.156076
 20
-131.765037
 30
0.0
 10
204.311016
 20
-131.750062
 30
0.0
 10
204.466210
 20
-131.736092
 30
0.0
 10
204.621404
 20
-131.723127
 30
0.0
 10
204.776852
 20
-131.710930
 30
0.0
 10
204.932300
 20
-131.700003
 30
0.0
 10
205.088002
 20
-131.689843
 30
0.0
 10
205.243704
 20
-131.680689
 30
0.0
 10
205.399660
 20
-131.672302
 30
0.0
 10
205.555870
 20
-131.665185
 30
0.0
 10
205.712080
 20
-131.658835
 30
0.0
 10
205.868290
 20
-131.653491
 30
0.0
 10
206.024754
 20
-131.649178
 30
0.0
 10
206.181472
 20
-131.645632
 30
0.0
 10
206.338190
 20
-131.643250
 30
0.0
 10
206.494908
 20
-131.641662
 30
0.0
 10
206.651880
 20
-131.641134
 30
0.0
 10
206.808598
 20
-131.641662
 30
0.0
 10
206.965570
 20
-131.643250
 30
0.0
 10
207.122288
 20
-131.645632
 30
0.0
 10
207.278752
 20
-131.649178
 30
0.0
 10
207.435216
 20
-131.653491
 30
0.0
 10
207.591680
 20
-131.658835
 30
0.0
 10
207.747890
 20
-131.665185
 30
0.0
 10
207.903846
 20
-131.672302
 30
0.0
 10
208.059802
 20
-131.680689
 30
0.0
 10
208.215504
 20
-131.689843
 30
0.0
 10
208.371206
 20
-131.700003
 30
0.0
 10
208.526908
 20
-131.710930
 30
0.0
 10
208.682102
 20
-131.723127
 30
0.0
 10
208.837550
 20
-131.736092
 30
0.0
 10
208.992490
 20
-131.750062
 30
0.0
 10
209.147430
 20
-131.765037
 30
0.0
 10
209.302116
 20
-131.780780
 30
0.0
 10
209.456802
 20
-131.797555
 30
0.0
 10
209.611234
 20
-131.815335
 30
0.0
 10
209.765412
 20
-131.834120
 30
0.0
 10
209.919336
 20
-131.853673
 30
0.0
 10
210.073260
 20
-131.874257
 30
0.0
 10
210.226930
 20
-131.895583
 30
0.0
 10
210.380346
 20
-131.918179
 30
0.0
 10
210.533762
 20
-131.941542
 30
0.0
 10
210.686924
 20
-131.965672
 30
0.0
 10
210.839578
 20
-131.991072
 30
0.0
 10
210.992232
 20
-132.017239
 30
0.0
 10
211.144886
 20
-132.044163
 30
0.0
 10
211.297032
 20
-132.072357
 30
0.0
 10
211.448924
 20
-132.101059
 30
0.0
 10
211.600816
 20
-132.131031
 30
0.0
 10
211.752454
 20
-132.161765
 30
0.0
 10
211.903584
 20
-132.193515
 30
0.0
 10
212.054714
 20
-132.226027
 30
0.0
 10
212.205590
 20
-132.259555
 30
0.0
 10
212.356212
 20
-132.294099
 30
0.0
 10
212.506580
 20
-132.329405
 30
0.0
 10
212.656694
 20
-132.365727
 30
0.0
 10
212.806554
 20
-132.402811
 30
0.0
 10
212.956160
 20
-132.440911
 30
0.0
 10
213.105258
 20
-132.480027
 30
0.0
 10
213.254356
 20
-132.519905
 30
0.0
 10
213.403200
 20
-132.560545
 30
0.0
 10
213.551536
 20
-132.602455
 30
0.0
 10
213.699872
 20
-132.644873
 30
0.0
 10
213.847700
 20
-132.688307
 30
0.0
 10
213.995274
 20
-132.732757
 30
0.0
 10
214.142594
 20
-132.777969
 30
0.0
 10
214.289660
 20
-132.824197
 30
0.0
 10
214.436472
 20
-132.871441
 30
0.0
 10
214.582776
 20
-132.919193
 30
0.0
 10
214.729080
 20
-132.968215
 30
0.0
 10
214.874876
 20
-133.017745
 30
0.0
 10
215.020164
 20
-133.068545
 30
0.0
 10
215.165452
 20
-133.119853
 30
0.0
 10
215.310232
 20
-133.172431
 30
0.0
 10
215.454758
 20
-133.225517
 30
0.0
 10
215.598776
 20
-133.279619
 30
0.0
 10
215.742794
 20
-133.334737
 30
0.0
 10
215.886304
 20
-133.390617
 30
0.0
 10
216.029306
 20
-133.447259
 30
0.0
 10
216.172054
 20
-133.504917
 30
0.0
 10
216.314548
 20
-133.563337
 30
0.0
 10
216.456534
 20
-133.622773
 30
0.0
 10
216.598266
 20
-133.682971
 30
0.0
 10
216.739744
 20
-133.744185
 30
0.0
 10
216.880714
 20
-133.805907
 30
0.0
 10
217.021176
 20
-133.868899
 30
0.0
 10
217.161384
 20
-133.932399
 30
0.0
 10
217.301338
 20
-133.996915
 30
0.0
 10
217.440784
 20
-134.062447
 30
0.0
 10
217.579722
 20
-134.128487
 30
0.0
 10
217.718406
 20
-134.195797
 30
0.0
 10
217.856582
 20
-134.263615
 30
0.0
 10
217.994504
 20
-134.332449
 30
0.0
 10
218.131918
 20
-134.402045
 30
0.0
 10
218.269078
 20
-134.472403
 30
0.0
 10
218.405476
 20
-134.543777
 30
0.0
 10
218.541874
 20
-134.615913
 30
0.0
 10
218.677510
 20
-134.689065
 30
0.0
 10
218.812892
 20
-134.762725
 30
0.0
 10
218.947766
 20
-134.837401
 30
0.0
 10
219.082386
 20
-134.913093
 30
0.0
 10
219.216244
 20
-134.989293
 30
0.0
 10
219.349848
 20
-135.066509
 30
0.0
 10
219.482944
 20
-135.144487
 30
0.0
 10
219.615786
 20
-135.223481
 30
0.0
 10
219.747866
 20
-135.302983
 30
0.0
 10
219.879692
 20
-135.383501
 30
0.0
 10
220.011010
 20
-135.464781
 30
0.0
 10
220.141820
 20
-135.547077
 30
0.0
 10
220.272376
 20
-135.629881
 30
0.0
 10
220.402170
 20
-135.713701
 30
0.0
 10
220.531456
 20
-135.798283
 30
0.0
 10
220.660488
 20
-135.883627
 30
0.0
 10
220.789012
 20
-135.969987
 30
0.0
 10
220.916774
 20
-136.056855
 30
0.0
 10
221.044282
 20
-136.144739
 30
0.0
 10
221.171282
 20
-136.233385
 30
0.0
 10
221.297774
 20
-136.322793
 30
0.0
 10
221.423758
 20
-136.413217
 30
0.0
 10
221.548980
 20
-136.504149
 30
0.0
 10
221.673948
 20
-136.596097
 30
0.0
 10
221.798408
 20
-136.688807
 30
0.0
 10
221.922360
 20
-136.782279
 30
0.0
 10
222.045550
 20
-136.876513
 30
0.0
 10
222.168486
 20
-136.971509
 30
0.0
 10
222.290660
 20
-137.067267
 30
0.0
 10
222.412326
 20
-137.164041
 30
0.0
 10
222.533484
 20
-137.261323
 30
0.0
 10
222.654134
 20
-137.359621
 30
0.0
 10
222.774276
 20
-137.458681
 30
0.0
 10
222.893656
 20
-137.558503
 30
0.0
 10
223.012782
 20
-137.659087
 30
0.0
 10
223.131146
 20
-137.760433
 30
0.0
 10
223.249002
 20
-137.862541
 30
0.0
 10
223.366096
 20
-137.965411
 30
0.0
 10
223.482936
 20
-138.069043
 30
0.0
 10
223.599014
 20
-138.173437
 30
0.0
 10
223.714330
 20
-138.278847
 30
0.0
 10
223.829392
 20
-138.384765
 30
0.0
 10
223.943692
 20
-138.491445
 30
0.0
 10
224.057484
 20
-138.599141
 30
0.0
 10
224.170514
 20
-138.707345
 30
0.0
 10
224.283036
 20
-138.816565
 30
0.0
 10
224.395050
 20
-138.926293
 30
0.0
 10
224.506302
 20
-139.037037
 30
0.0
 10
224.616792
 20
-139.148289
 30
0.0
 10
224.726774
 20
-139.260049
 30
0.0
 10
224.835740
 20
-139.372571
 30
0.0
 10
224.943944
 20
-139.485855
 30
0.0
 10
225.051640
 20
-139.599393
 30
0.0
 10
225.158320
 20
-139.713693
 30
0.0
 10
225.264492
 20
-139.828755
 30
0.0
 10
225.369648
 20
-139.944325
 30
0.0
 10
225.474042
 20
-140.060403
 30
0.0
 10
225.577674
 20
-140.176989
 30
0.0
 10
225.680798
 20
-140.294337
 30
0.0
 10
225.782906
 20
-140.411939
 30
0.0
 10
225.884252
 20
-140.530557
 30
0.0
 10
225.984836
 20
-140.649429
 30
0.0
 10
226.084658
 20
-140.768809
 30
0.0
 10
226.183464
 20
-140.888951
 30
0.0
 10
226.281762
 20
-141.009601
 30
0.0
 10
226.379298
 20
-141.130759
 30
0.0
 10
226.475818
 20
-141.252425
 30
0.0
 10
226.571576
 20
-141.374853
 30
0.0
 10
226.666826
 20
-141.497535
 30
0.0
 10
226.761060
 20
-141.620979
 30
0.0
 10
226.854532
 20
-141.744677
 30
0.0
 10
226.947242
 20
-141.869137
 30
0.0
 10
227.038936
 20
-141.994105
 30
0.0
 10
227.130122
 20
-142.119581
 30
0.0
 10
227.220292
 20
-142.245311
 30
0.0
 10
227.309700
 20
-142.371803
 30
0.0
 10
227.398346
 20
-142.498803
 30
0.0
 10
227.486230
 20
-142.626311
 30
0.0
 10
227.573352
 20
-142.754327
 30
0.0
 10
227.659458
 20
-142.882597
 30
0.0
 10
227.744802
 20
-143.011629
 30
0.0
 10
227.829384
 20
-143.140915
 30
0.0
 10
227.913204
 20
-143.270963
 30
0.0
 10
227.996262
 20
-143.401265
 30
0.0
 10
228.078304
 20
-143.532075
 30
0.0
 10
228.159584
 20
-143.663393
 30
0.0
 10
228.240102
 20
-143.795219
 30
0.0
 10
228.319858
 20
-143.927553
 30
0.0
 10
228.398598
 20
-144.060141
 30
0.0
 10
228.476576
 20
-144.193237
 30
0.0
 10
228.553792
 20
-144.326841
 30
0.0
 10
228.630246
 20
-144.460953
 30
0.0
 10
228.705684
 20
-144.595319
 30
0.0
 10
228.780360
 20
-144.730193
 30
0.0
 10
228.854274
 20
-144.865575
 30
0.0
 10
228.927172
 20
-145.001465
 30
0.0
 10
228.999308
 20
-145.137609
 30
0.0
 10
229.070682
 20
-145.274261
 30
0.0
 10
229.141040
 20
-145.411167
 30
0.0
 10
229.210636
 20
-145.548581
 30
0.0
 10
229.279470
 20
-145.686503
 30
0.0
 10
229.347542
 20
-145.824679
 30
0.0
 10
229.414598
 20
-145.963363
 30
0.0
 10
229.480892
 20
-146.102555
 30
0.0
 10
229.546170
 20
-146.242001
 30
0.0
 10
229.610686
 20
-146.381701
 30
0.0
 10
229.674440
 20
-146.521909
 30
0.0
 10
229.737178
 20
-146.662625
 30
0.0
 10
229.799154
 20
-146.803595
 30
0.0
 10
229.860114
 20
-146.944819
 30
0.0
 10
229.920312
 20
-147.086551
 30
0.0
 10
229.979748
 20
-147.228537
 30
0.0
 10
230.038168
 20
-147.371031
 30
0.0
 10
230.095826
 20
-147.513779
 30
0.0
 10
230.152722
 20
-147.657035
 30
0.0
 10
230.208348
 20
-147.800545
 30
0.0
 10
230.263466
 20
-147.944309
 30
0.0
 10
230.317568
 20
-148.088327
 30
0.0
 10
230.370908
 20
-148.232853
 30
0.0
 10
230.423232
 20
-148.377633
 30
0.0
 10
230.474794
 20
-148.522921
 30
0.0
 10
230.525340
 20
-148.668463
 30
0.0
 10
230.575124
 20
-148.814259
 30
0.0
 10
230.623892
 20
-148.960309
 30
0.0
 10
230.671898
 20
-149.106613
 30
0.0
 10
230.718888
 20
-149.253425
 30
0.0
 10
230.765116
 20
-149.400491
 30
0.0
 10
230.810328
 20
-149.547811
 30
0.0
 10
230.854778
 20
-149.695385
 30
0.0
 10
230.898212
 20
-149.843213
 30
0.0
 10
230.940884
 20
-149.991549
 30
0.0
 10
230.982540
 20
-150.139885
 30
0.0
 10
231.023434
 20
-150.288729
 30
0.0
 10
231.063312
 20
-150.437827
 30
0.0
 10
231.102174
 20
-150.587179
 30
0.0
 10
231.140274
 20
-150.736785
 30
0.0
 10
231.177358
 20
-150.886391
 30
0.0
 10
231.213680
 20
-151.036505
 30
0.0
 10
231.248986
 20
-151.186873
 30
0.0
 10
231.283530
 20
-151.337495
 30
0.0
 10
231.317058
 20
-151.488371
 30
0.0
 10
231.349570
 20
-151.639501
 30
0.0
 10
231.381320
 20
-151.790885
 30
0.0
 10
231.412054
 20
-151.942269
 30
0.0
 10
231.442026
 20
-152.094161
 30
0.0
 10
231.470982
 20
-152.246053
 30
0.0
 10
231.498922
 20
-152.398453
 30
0.0
 10
231.526100
 20
-152.550853
 30
0.0
 10
231.552267
 20
-152.703507
 30
0.0
 10
231.577403
 20
-152.856415
 30
0.0
 10
231.601797
 20
-153.009323
 30
0.0
 10
231.625160
 20
-153.162739
 30
0.0
 10
231.647517
 20
-153.316155
 30
0.0
 10
231.669107
 20
-153.469825
 30
0.0
 10
231.689692
 20
-153.623749
 30
0.0
 10
231.709244
 20
-153.777673
 30
0.0
 10
231.727792
 20
-153.932105
 30
0.0
 10
231.745572
 20
-154.086283
 30
0.0
 10
231.762346
 20
-154.240969
 30
0.0
 10
231.778353
 20
-154.395655
 30
0.0
 10
231.793090
 20
-154.550595
 30
0.0
 10
231.807060
 20
-154.705789
 30
0.0
 10
231.820024
 20
-154.860983
 30
0.0
 10
231.832224
 20
-155.016431
 30
0.0
 10
231.843151
 20
-155.171879
 30
0.0
 10
231.853311
 20
-155.327581
 30
0.0
 10
231.862704
 20
-155.483283
 30
0.0
 10
231.870824
 20
-155.639239
 30
0.0
 10
231.877944
 20
-155.795449
 30
0.0
 10
231.884294
 20
-155.951659
 30
0.0
 10
231.889638
 20
-156.107869
 30
0.0
 10
231.893951
 20
-156.264333
 30
0.0
 10
231.897494
 20
-156.421051
 30
0.0
 10
231.899877
 20
-156.577769
 30
0.0
 10
231.901464
 20
-156.734487
 30
0.0
 10
231.901992
 20
-156.891459
 30
0.0
  0
LWPOLYLINE
  5
103
100
AcDbEntity
  8
0
 62
7
100
AcDbPolyline
 90
4
 70
1
 10
347.141825
 20
-94.545079
 30
0.0
 10
333.141345
 20
-94.545079
 30
0.0
 10
333.141345
 20
-108.543019
 30
0.0
 10
347.141825
 20
-108.543019
 30
0.0
  0
LWPOLYLINE
  5
104
100
AcDbEntity
  8
0
 62
7
100
AcDbPolyline
 90
4
 70
1
 10
189.021720
 20
-100.658859
 30
0.0
 10
175.234600
 20
-98.228079
 30
0.0
 10
172.803820
 20
-112.015199
 30
0.0
 10
186.590940
 20
-114.445979
 30
0.0
  0
LWPOLYLINE
  5
105
100
AcDbEntity
  8
0
 62
7
100
AcDbPolyline
 90
4
 70
1
 10
237.924337
 20
-98.248399
 30
0.0
 10
224.137217
 20
-100.679179
 30
0.0
 10
226.567997
 20
-114.466299
 30
0.0
 10
240.355117
 20
-112.035519
 30
0.0
  0
LWPOLYLINE
  5
106
100
AcDbEntity
  8
0
 62
7
100
AcDbPolyline
 90
4
 70
1
 10
170.261280
 20
-97.351779
 30
0.0
 10
156.474160
 20
-94.920999
 30
0.0
 10
154.043380
 20
-108.705579
 30
0.0
 10
167.830500
 20
-111.138899
 30
0.0
  0
LWPOLYLINE
  5
107
100
AcDbEntity
  8
0
 62
7
100
AcDbPolyline
 90
4
 70
1
 10
242.897657
 20
-97.372099
 30
0.0
 10
245.328437
 20
-111.159219
 30
0.0
 10
259.115560
 20
-108.728439
 30
0.0
 10
256.684780
 20
-94.938779
 30
0.0
  0
LWPOLYLINE
  5
108
100
AcDbEntity
  8
0
 62
7
100
AcDbPolyline
 90
4
 70
1
 10
309.326305
 20
-108.543019
 30
0.0
 10
323.326785
 20
-108.543019
 30
0.0
 10
323.326785
 20
-94.545079
 30
0.0
 10
309.326305
 20
-94.545079
 30
0.0
  0
LWPOLYLINE
  5
109
100
AcDbEntity
  8
0
 62
7
100
AcDbPolyline
 90
44
 70
1
 10
367.322125
 20
-127.364419
 30
0.0
 10
367.322125
 20
-121.093159
 30
0.0
 10
368.147625
 20
-121.093159
 30
0.0
 10
368.147625
 20
-118.294079
 30
0.0
 10
367.322125
 20
-118.294079
 30
0.0
 10
367.322125
 20
-115.063199
 30
0.0
 10
365.597465
 20
-115.063199
 30
0.0
 10
365.597465
 20
-114.143719
 30
0.0
 10
362.295465
 20
-114.143719
 30
0.0
 10
362.295465
 20
-115.063199
 30
0.0
 10
360.570805
 20
-115.063199
 30
0.0
 10
360.570805
 20
-118.294079
 30
0.0
 10
359.046805
 20
-118.294079
 30
0.0
 10
359.046805
 20
-113.595079
 30
0.0
 10
345.046325
 20
-113.595079
 30
0.0
 10
345.046325
 20
-118.294079
 30
0.0
 10
343.522325
 20
-118.294079
 30
0.0
 10
343.522325
 20
-115.063199
 30
0.0
 10
341.797665
 20
-115.063199
 30
0.0
 10
341.797665
 20
-114.143719
 30
0.0
 10
338.495665
 20
-114.143719
 30
0.0
 10
338.495665
 20
-115.063199
 30
0.0
 10
336.771005
 20
-115.063199
 30
0.0
 10
336.771005
 20
-118.294079
 30
0.0
 10
335.945505
 20
-118.294079
 30
0.0
 10
335.945505
 20
-121.093159
 30
0.0
 10
336.771005
 20
-121.093159
 30
0.0
 10
336.771005
 20
-127.364419
 30
0.0
 10
338.495665
 20
-127.364419
 30
0.0
 10
338.495665
 20
-128.344859
 30
0.0
 10
341.797665
 20
-128.344859
 30
0.0
 10
341.797665
 20
-127.364419
 30
0.0
 10
343.522325
 20
-127.364419
 30
0.0
 10
343.522325
 20
-122.894019
 30
0.0
 10
345.046325
 20
-122.894019
 30
0.0
 10
345.046325
 20
-127.593019
 30
0.0
 10
359.046805
 20
-127.593019
 30
0.0
 10
359.046805
 20
-122.894019
 30
0.0
 10
360.570805
 20
-122.894019
 30
0.0
 10
360.570805
 20
-127.364419
 30
0.0
 10
362.295465
 20
-127.364419
 30
0.0
 10
362.295465
 20
-128.344859
 30
0.0
 10
365.597465
 20
-128.344859
 30
0.0
 10
365.597465
 20
-127.364419
 30
0.0
  0
LWPOLYLINE
  5
10a
100
AcDbEntity
  8
0
 62
7
100
AcDbPolyline
 90
4
 70
1
 10
371.241345
 20
-102.734039
 30
0.0
 10
385.241825
 20
-102.734039
 30
0.0
 10
385.241825
 20
-88.733559
 30
0.0
 10
371.241345
 20
-88.733559
 30
0.0
  0
LWPOLYLINE
  5
10b
100
AcDbEntity
  8
0
 62
7
100
AcDbPolyline
 90
4
 70
1
 10
51.389280
 20
-102.734039
 30
0.0
 10
51.389280
 20
-88.733559
 30
0.0
 10
37.388800
 20
-88.733559
 30
0.0
 10
37.388800
 20
-102.734039
 30
0.0
  0
LWPOLYLINE
  5
10c
100
AcDbEntity
  8
0
 62
7
100
AcDbPolyline
 90
44
 70
1
 10
351.322665
 20
-134.113199
 30
0.0
 10
351.322665
 20
-133.193719
 30
0.0
 10
348.020665
 20
-133.193719
 30
0.0
 10
348.020665
 20
-134.113199
 30
0.0
 10
346.296005
 20
-134.113199
 30
0.0
 10
346.296005
 20
-137.344079
 30
0.0
 10
345.470505
 20
-137.344079
 30
0.0
 10
345.470505
 20
-140.143159
 30
0.0
 10
346.296005
 20
-140.143159
 30
0.0
 10
346.296005
 20
-146.414419
 30
0.0
 10
348.020665
 20
-146.414419
 30
0.0
 10
348.020665
 20
-147.394859
 30
0.0
 10
351.322665
 20
-147.394859
 30
0.0
 10
351.322665
 20
-146.414419
 30
0.0
 10
353.047325
 20
-146.414419
 30
0.0
 10
353.047325
 20
-141.944019
 30
0.0
 10
354.571325
 20
-141.944019
 30
0.0
 10
354.571325
 20
-146.643019
 30
0.0
 10
368.571805
 20
-146.643019
 30
0.0
 10
368.571805
 20
-141.944019
 30
0.0
 10
370.095805
 20
-141.944019
 30
0.0
 10
370.095805
 20
-146.414419
 30
0.0
 10
371.820465
 20
-146.414419
 30
0.0
 10
371.820465
 20
-147.394859
 30
0.0
 10
375.122465
 20
-147.394859
 30
0.0
 10
375.122465
 20
-146.414419
 30
0.0
 10
376.847125
 20
-146.414419
 30
0.0
 10
376.847125
 20
-140.143159
 30
0.0
 10
377.672625
 20
-140.143159
 30
0.0
 10
377.672625
 20
-137.344079
 30
0.0
 10
376.847125
 20
-137.344079
 30
0.0
 10
376.847125
 20
-134.113199
 30
0.0
 10
375.122465
 20
-134.113199
 30
0.0
 10
375.122465
 20
-133.193719
 30
0.0
 10
371.820465
 20
-133.193719
 30
0.0
 10
371.820465
 20
-134.113199
 30
0.0
 10
370.095805
 20
-134.113199
 30
0.0
 10
370.095805
 20
-137.344079
 30
0.0
 10
368.571805
 20
-137.344079
 30
0.0
 10
368.571805
 20
-132.645079
 30
0.0
 10
354.571325
 20
-132.645079
 30
0.0
 10
354.571325
 20
-137.344079
 30
0.0
 10
353.047325
 20
-137.344079
 30
0.0
 10
353.047325
 20
-134.113199
 30
0.0
  0
LWPOLYLINE
  5
10d
100
AcDbEntity
  8
0
 62
7
100
AcDbPolyline
 90
4
 70
1
 10
158.955740
 20
-134.044619
 30
0.0
 10
145.168620
 20
-131.613839
 30
0.0
 10
142.737840
 20
-145.400959
 30
0.0
 10
156.524960
 20
-147.831739
 30
0.0
  0
LWPOLYLINE
  5
10e
100
AcDbEntity
  8
0
 62
7
100
AcDbPolyline
 90
4
 70
1
 10
264.088880
 20
-107.849599
 30
0.0
 10
277.876000
 20
-105.418819
 30
0.0
 10
275.445220
 20
-91.631699
 30
0.0
 10
261.658100
 20
-94.065019
 30
0.0
  0
LWPOLYLINE
  5
10f
100
AcDbEntity
  8
0
 62
7
100
AcDbPolyline
 90
4
 70
1
 10
116.522500
 20
-102.091419
 30
0.0
 10
130.309620
 20
-104.522199
 30
0.0
 10
132.740400
 20
-90.735079
 30
0.0
 10
118.953280
 20
-88.304299
 30
0.0
  0
LWPOLYLINE
  5
110
100
AcDbEntity
  8
0
 62
7
100
AcDbPolyline
 90
4
 70
1
 10
79.964280
 20
-94.448559
 30
0.0
 10
65.963800
 20
-94.448559
 30
0.0
 10
65.963800
 20
-108.449039
 30
0.0
 10
79.964280
 20
-108.449039
 30
0.0
  0
LWPOLYLINE
  5
111
100
AcDbEntity
  8
0
 62
7
100
AcDbPolyline
 90
4
 70
1
 10
135.282940
 20
-105.398499
 30
0.0
 10
149.070060
 20
-107.829279
 30
0.0
 10
151.500840
 20
-94.042159
 30
0.0
 10
137.713720
 20
-91.611379
 30
0.0
  0
LWPOLYLINE
  5
112
100
AcDbEntity
  8
0
 62
7
100
AcDbPolyline
 90
4
 70
1
 10
103.776780
 20
-94.448559
 30
0.0
 10
89.776300
 20
-94.448559
 30
0.0
 10
89.776300
 20
-108.449039
 30
0.0
 10
103.776780
 20
-108.449039
 30
0.0
  0
LWPOLYLINE
  5
113
100
AcDbEntity
  8
0
 62
7
100
AcDbPolyline
 90
4
 70
1
 10
280.418540
 20
-90.755399
 30
0.0
 10
282.849320
 20
-104.542519
 30
0.0
 10
296.636465
 20
-102.111739
 30
0.0
 10
294.205660
 20
-88.324619
 30
0.0
  0
LWPOLYLINE
  5
114
100
AcDbEntity
  8
0
 62
7
100
AcDbPolyline
 90
4
 70
1
 10
123.977400
 20
-142.093879
 30
0.0
 10
137.764520
 20
-144.524659
 30
0.0
 10
140.195300
 20
-130.737539
 30
0.0
 10
126.408180
 20
-128.306759
 30
0.0
  0
LWPOLYLINE
  5
115
100
AcDbEntity
  8
0
 62
7
100
AcDbPolyline
 90
4
 70
1
 10
94.251780
 20
-146.549039
 30
0.0
 10
94.251780
 20
-132.548559
 30
0.0
 10
80.251300
 20
-132.548559
 30
0.0
 10
80.251300
 20
-146.549039
 30
0.0
  0
LWPOLYLINE
  5
116
100
AcDbEntity
  8
0
 62
7
100
AcDbPolyline
 90
4
 70
1
 10
318.853845
 20
-146.643019
 30
0.0
 10
332.854325
 20
-146.643019
 30
0.0
 10
332.854325
 20
-132.645079
 30
0.0
 10
318.853845
 20
-132.645079
 30
0.0
  0
LWPOLYLINE
  5
117
100
AcDbEntity
  8
0
 62
7
100
AcDbPolyline
 90
4
 70
1
 10
291.724080
 20
-127.450779
 30
0.0
 10
294.154860
 20
-141.237899
 30
0.0
 10
307.942005
 20
-138.804579
 30
0.0
 10
305.511225
 20
-125.019999
 30
0.0
  0
LWPOLYLINE
  5
118
100
AcDbEntity
  8
0
 62
7
100
AcDbPolyline
 90
4
 70
1
 10
286.750760
 20
-128.327079
 30
0.0
 10
272.963640
 20
-130.757859
 30
0.0
 10
275.394420
 20
-144.544979
 30
0.0
 10
289.181540
 20
-142.114199
 30
0.0
  0
LWPOLYLINE
  5
119
100
AcDbEntity
  8
0
 62
7
100
AcDbPolyline
 90
4
 70
1
 10
121.434860
 20
-127.427919
 30
0.0
 10
107.647740
 20
-124.997139
 30
0.0
 10
105.216960
 20
-138.784259
 30
0.0
 10
119.004080
 20
-141.215039
 30
0.0
  0
LWPOLYLINE
  5
11a
100
AcDbEntity
  8
0
 62
7
100
AcDbPolyline
 90
4
 70
1
 10
148.389340
 20
-127.054539
 30
0.0
 10
162.179000
 20
-129.485319
 30
0.0
 10
164.609780
 20
-115.698199
 30
0.0
 10
150.822660
 20
-113.267419
 30
0.0
  0
LWPOLYLINE
  5
11b
100
AcDbEntity
  8
0
 62
7
100
AcDbPolyline
 90
4
 70
1
 10
246.009157
 20
-130.381939
 30
0.0
 10
243.575837
 20
-116.594819
 30
0.0
 10
229.788717
 20
-119.025599
 30
0.0
 10
232.219497
 20
-132.812719
 30
0.0
  0
LWPOLYLINE
  5
11c
100
AcDbEntity
  8
0
 62
7
100
AcDbPolyline
 90
4
 70
1
 10
167.152320
 20
-130.361619
 30
0.0
 10
180.939440
 20
-132.792399
 30
0.0
 10
183.370220
 20
-119.005279
 30
0.0
 10
169.583100
 20
-116.574499
 30
0.0
  0
LWPOLYLINE
  5
11d
100
AcDbEntity
  8
0
 62
7
100
AcDbPolyline
 90
4
 70
1
 10
250.982477
 20
-129.505639
 30
0.0
 10
264.769600
 20
-127.074859
 30
0.0
 10
262.336280
 20
-113.287739
 30
0.0
 10
248.551697
 20
-115.718519
 30
0.0
  0
LWPOLYLINE
  5
11e
100
AcDbEntity
  8
0
 62
7
100
AcDbPolyline
 90
44
 70
1
 10
46.045120
 20
-147.298339
 30
0.0
 10
46.045120
 20
-146.317899
 30
0.0
 10
47.769780
 20
-146.317899
 30
0.0
 10
47.769780
 20
-141.850039
 30
0.0
 10
49.296320
 20
-141.850039
 30
0.0
 10
49.296320
 20
-146.549039
 30
0.0
 10
63.296800
 20
-146.549039
 30
0.0
 10
63.296800
 20
-141.850039
 30
0.0
 10
64.820800
 20
-141.850039
 30
0.0
 10
64.820800
 20
-146.317899
 30
0.0
 10
66.545460
 20
-146.317899
 30
0.0
 10
66.545460
 20
-147.298339
 30
0.0
 10
69.844920
 20
-147.298339
 30
0.0
 10
69.844920
 20
-146.317899
 30
0.0
 10
71.569580
 20
-146.317899
 30
0.0
 10
71.569580
 20
-140.049179
 30
0.0
 10
72.395080
 20
-140.049179
 30
0.0
 10
72.395080
 20
-137.247559
 30
0.0
 10
71.569580
 20
-137.247559
 30
0.0
 10
71.569580
 20
-134.019219
 30
0.0
 10
69.844920
 20
-134.019219
 30
0.0
 10
69.844920
 20
-133.099739
 30
0.0
 10
66.545460
 20
-133.099739
 30
0.0
 10
66.545460
 20
-134.019219
 30
0.0
 10
64.820800
 20
-134.019219
 30
0.0
 10
64.820800
 20
-137.247559
 30
0.0
 10
63.296800
 20
-137.247559
 30
0.0
 10
63.296800
 20
-132.548559
 30
0.0
 10
49.296320
 20
-132.548559
 30
0.0
 10
49.296320
 20
-137.247559
 30
0.0
 10
47.769780
 20
-137.247559
 30
0.0
 10
47.769780
 20
-134.019219
 30
0.0
 10
46.045120
 20
-134.019219
 30
0.0
 10
46.045120
 20
-133.099739
 30
0.0
 10
42.745660
 20
-133.099739
 30
0.0
 10
42.745660
 20
-134.019219
 30
0.0
 10
41.021000
 20
-134.019219
 30
0.0
 10
41.021000
 20
-137.247559
 30
0.0
 10
40.195500
 20
-137.247559
 30
0.0
 10
40.195500
 20
-140.049179
 30
0.0
 10
41.021000
 20
-140.049179
 30
0.0
 10
41.021000
 20
-146.317899
 30
0.0
 10
42.745660
 20
-146.317899
 30
0.0
 10
42.745660
 20
-147.298339
 30
0.0
  0
LWPOLYLINE
  5
11f
100
AcDbEntity
  8
0
 62
7
100
AcDbPolyline
 90
4
 70
1
 10
143.418560
 20
-126.175699
 30
0.0
 10
145.849340
 20
-112.388579
 30
0.0
 10
132.062220
 20
-109.957799
 30
0.0
 10
129.631440
 20
-123.744919
 30
0.0
  0
LWPOLYLINE
  5
120
100
AcDbEntity
  8
0
 62
7
100
AcDbPolyline
 90
4
 70
1
 10
281.099260
 20
-109.980659
 30
0.0
 10
267.309600
 20
-112.411439
 30
0.0
 10
269.740380
 20
-126.198559
 30
0.0
 10
283.530040
 20
-123.767779
 30
0.0
  0
LWPOLYLINE
  5
121
100
AcDbEntity
  8
0
 62
7
100
AcDbPolyline
 90
4
 70
1
 10
286.072580
 20
-109.101819
 30
0.0
 10
288.503360
 20
-122.888939
 30
0.0
 10
302.290505
 20
-120.458159
 30
0.0
 10
299.859725
 20
-106.671039
 30
0.0
  0
LWPOLYLINE
  5
122
100
AcDbEntity
  8
0
 62
7
100
AcDbPolyline
 90
4
 70
1
 10
72.821800
 20
-113.498559
 30
0.0
 10
58.821320
 20
-113.498559
 30
0.0
 10
58.821320
 20
-127.499039
 30
0.0
 10
72.821800
 20
-127.499039
 30
0.0
  0
LWPOLYLINE
  5
123
100
AcDbEntity
  8
0
 62
7
100
AcDbPolyline
 90
4
 70
1
 10
113.301780
 20
-106.650719
 30
0.0
 10
110.868460
 20
-120.437839
 30
0.0
 10
124.655580
 20
-122.868619
 30
0.0
 10
127.088900
 20
-109.081499
 30
0.0
  0
LWPOLYLINE
  5
124
100
AcDbEntity
  8
0
 62
7
100
AcDbPolyline
 90
4
 70
1
 10
314.091345
 20
-127.593019
 30
0.0
 10
328.091825
 20
-127.593019
 30
0.0
 10
328.091825
 20
-113.595079
 30
0.0
 10
314.091345
 20
-113.595079
 30
0.0
  0
LWPOLYLINE
  5
125
100
AcDbEntity
  8
0
 62
7
100
AcDbPolyline
 90
4
 70
1
 10
99.014280
 20
-127.499039
 30
0.0
 10
99.014280
 20
-113.498559
 30
0.0
 10
85.013800
 20
-113.498559
 30
0.0
 10
85.013800
 20
-127.499039
 30
0.0
  0
LWPOLYLINE
  5
126
100
AcDbEntity
  8
0
 62
7
100
AcDbPolyline
 90
4
 70
1
 10
175.290480
 20
-188.527619
 30
0.0
 10
181.648100
 20
-176.053679
 30
0.0
 10
169.174160
 20
-169.698599
 30
0.0
 10
162.816540
 20
-182.172539
 30
0.0
  0
LWPOLYLINE
  5
127
100
AcDbEntity
  8
0
 62
7
100
AcDbPolyline
 90
4
 70
1
 10
226.979477
 20
-185.139259
 30
0.0
 10
215.653617
 20
-193.368859
 30
0.0
 10
223.883217
 20
-204.694719
 30
0.0
 10
235.209077
 20
-196.465119
 30
0.0
  0
LWPOLYLINE
  5
128
100
AcDbEntity
  8
0
 62
7
100
AcDbPolyline
 90
4
 70
1
 10
197.330060
 20
-193.381559
 30
0.0
 10
186.004200
 20
-185.151959
 30
0.0
 10
177.774600
 20
-196.477819
 30
0.0
 10
189.100460
 20
-204.707419
 30
0.0
  0
LWPOLYLINE
  5
129
100
AcDbEntity
  8
0
 62
7
100
AcDbPolyline
 90
4
 70
1
 10
250.304297
 20
-182.236039
 30
0.0
 10
243.949217
 20
-169.759559
 30
0.0
 10
231.475277
 20
-176.117179
 30
0.0
 10
237.830357
 20
-188.591119
 30
0.0
  0
LWPOLYLINE
  5
12a
100
AcDbEntity
  8
0
 62
7
100
AcDbPolyline
 90
4
 70
1
 10
86.156800
 20
-151.598559
 30
0.0
 10
72.156320
 20
-151.598559
 30
0.0
 10
72.156320
 20
-165.599039
 30
0.0
 10
86.156800
 20
-165.599039
 30
0.0
  0
LWPOLYLINE
  5
12b
100
AcDbEntity
  8
0
 62
7
100
AcDbPolyline
 90
4
 70
1
 10
281.899360
 20
-148.525159
 30
0.0
 10
284.332680
 20
-162.312279
 30
0.0
 10
298.119825
 20
-159.881499
 30
0.0
 10
295.686480
 20
-146.094379
 30
0.0
  0
LWPOLYLINE
  5
12c
100
AcDbEntity
  8
0
 62
7
100
AcDbPolyline
 90
4
 70
1
 10
326.948825
 20
-151.598559
 30
0.0
 10
326.948825
 20
-165.599039
 30
0.0
 10
340.949305
 20
-165.599039
 30
0.0
 10
340.949305
 20
-151.598559
 30
0.0
  0
LWPOLYLINE
  5
12d
100
AcDbEntity
  8
0
 62
7
100
AcDbPolyline
 90
4
 70
1
 10
254.203200
 20
-134.064939
 30
0.0
 10
256.633980
 20
-147.852059
 30
0.0
 10
270.421100
 20
-145.421279
 30
0.0
 10
267.990320
 20
-131.634159
 30
0.0
  0
LWPOLYLINE
  5
12e
100
AcDbEntity
  8
0
 62
7
100
AcDbPolyline
 90
4
 70
1
 10
235.442757
 20
-137.374559
 30
0.0
 10
237.873537
 20
-151.161679
 30
0.0
 10
251.660657
 20
-148.730899
 30
0.0
 10
249.229877
 20
-134.943779
 30
0.0
  0
LWPOLYLINE
  5
12f
100
AcDbEntity
  8
0
 62
7
100
AcDbPolyline
 90
4
 70
1
 10
62.344300
 20
-151.598559
 30
0.0
 10
48.343820
 20
-151.598559
 30
0.0
 10
48.343820
 20
-165.599039
 30
0.0
 10
62.344300
 20
-165.599039
 30
0.0
  0
LWPOLYLINE
  5
130
100
AcDbEntity
  8
0
 62
7
100
AcDbPolyline
 90
4
 70
1
 10
163.261040
 20
-160.706999
 30
0.0
 10
149.946360
 20
-156.381379
 30
0.0
 10
145.620740
 20
-169.696059
 30
0.0
 10
158.935420
 20
-174.021679
 30
0.0
  0
LWPOLYLINE
  5
131
100
AcDbEntity
  8
0
 62
7
100
AcDbPolyline
 90
4
 70
1
 10
249.849637
 20
-160.760339
 30
0.0
 10
254.175260
 20
-174.075019
 30
0.0
 10
267.489940
 20
-169.749399
 30
0.0
 10
263.164320
 20
-156.434719
 30
0.0
  0
LWPOLYLINE
  5
132
100
AcDbEntity
  8
0
 62
7
100
AcDbPolyline
 90
4
 70
1
 10
131.259580
 20
-148.504839
 30
0.0
 10
117.472460
 20
-146.074059
 30
0.0
 10
115.041680
 20
-159.861179
 30
0.0
 10
128.828800
 20
-162.291959
 30
0.0
  0
LWPOLYLINE
  5
133
100
AcDbEntity
  8
0
 62
7
100
AcDbPolyline
 90
4
 70
1
 10
163.929060
 20
-134.920919
 30
0.0
 10
161.498280
 20
-148.708039
 30
0.0
 10
175.285400
 20
-151.138819
 30
0.0
 10
177.716180
 20
-137.351699
 30
0.0
  0
LWPOLYLINE
  5
134
100
AcDbEntity
  8
0
 62
7
100
AcDbPolyline
 90
4
 70
1
 10
364.761805
 20
-165.599039
 30
0.0
 10
364.761805
 20
-151.598559
 30
0.0
 10
350.761325
 20
-151.598559
 30
0.0
 10
350.761325
 20
-165.599039
 30
0.0
  0
LWPOLYLINE
  5
135
100
AcDbEntity
  8
0
 62
7
100
AcDbPolyline
 90
64
 70
1
 10
205.699357
 20
-176.721699
 30
0.0
 10
205.818737
 20
-176.635339
 30
0.0
 10
205.943197
 20
-176.559139
 30
0.0
 10
206.077817
 20
-176.495639
 30
0.0
 10
206.214977
 20
-176.447379
 30
0.0
 10
206.359757
 20
-176.411819
 30
0.0
 10
206.504537
 20
-176.388959
 30
0.0
 10
206.651857
 20
-176.381339
 30
0.0
 10
206.799177
 20
-176.388959
 30
0.0
 10
206.943957
 20
-176.411819
 30
0.0
 10
207.086197
 20
-176.447379
 30
0.0
 10
207.225897
 20
-176.495639
 30
0.0
 10
207.357977
 20
-176.559139
 30
0.0
 10
207.484977
 20
-176.635339
 30
0.0
 10
207.601817
 20
-176.721699
 30
0.0
 10
207.711037
 20
-176.820759
 30
0.0
 10
207.810097
 20
-176.929979
 30
0.0
 10
207.898997
 20
-177.049359
 30
0.0
 10
207.975197
 20
-177.173819
 30
0.0
 10
208.036157
 20
-177.308439
 30
0.0
 10
208.086957
 20
-177.445599
 30
0.0
 10
208.122517
 20
-177.590379
 30
0.0
 10
208.142837
 20
-177.735159
 30
0.0
 10
208.150457
 20
-177.882479
 30
0.0
 10
208.142837
 20
-178.029799
 30
0.0
 10
208.122517
 20
-178.174579
 30
0.0
 10
208.086957
 20
-178.316819
 30
0.0
 10
208.036157
 20
-178.456519
 30
0.0
 10
207.975197
 20
-178.588599
 30
0.0
 10
207.898997
 20
-178.715599
 30
0.0
 10
207.810097
 20
-178.832439
 30
0.0
 10
207.711037
 20
-178.941659
 30
0.0
 10
207.601817
 20
-179.040719
 30
0.0
 10
207.484977
 20
-179.129619
 30
0.0
 10
207.357977
 20
-179.205819
 30
0.0
 10
207.225897
 20
-179.266779
 30
0.0
 10
207.086197
 20
-179.317579
 30
0.0
 10
206.943957
 20
-179.353139
 30
0.0
 10
206.799177
 20
-179.375999
 30
0.0
 10
206.651857
 20
-179.381079
 30
0.0
 10
206.504537
 20
-179.373459
 30
0.0
 10
206.359757
 20
-179.353139
 30
0.0
 10
206.214977
 20
-179.317579
 30
0.0
 10
206.077817
 20
-179.266779
 30
0.0
 10
205.943197
 20
-179.205819
 30
0.0
 10
205.818737
 20
-179.129619
 30
0.0
 10
205.699357
 20
-179.040719
 30
0.0
 10
205.590140
 20
-178.941659
 30
0.0
 10
205.491080
 20
-178.832439
 30
0.0
 10
205.404720
 20
-178.715599
 30
0.0
 10
205.328520
 20
-178.588599
 30
0.0
 10
205.265020
 20
-178.456519
 30
0.0
 10
205.216760
 20
-178.316819
 30
0.0
 10
205.181200
 20
-178.174579
 30
0.0
 10
205.158340
 20
-178.029799
 30
0.0
 10
205.150720
 20
-177.882479
 30
0.0
 10
205.158340
 20
-177.735159
 30
0.0
 10
205.181200
 20
-177.590379
 30
0.0
 10
205.216760
 20
-177.445599
 30
0.0
 10
205.265020
 20
-177.308439
 30
0.0
 10
205.328520
 20
-177.173819
 30
0.0
 10
205.404720
 20
-177.049359
 30
0.0
 10
205.491080
 20
-176.929979
 30
0.0
 10
205.590140
 20
-176.820759
 30
0.0
  0
LWPOLYLINE
  5
136
100
AcDbEntity
  8
0
 62
7
100
AcDbPolyline
 90
64
 70
1
 10
186.979560
 20
-146.355999
 30
0.0
 10
186.992260
 20
-146.208679
 30
0.0
 10
187.017660
 20
-146.063899
 30
0.0
 10
187.058300
 20
-145.924199
 30
0.0
 10
187.111640
 20
-145.787039
 30
0.0
 10
187.180220
 20
-145.654959
 30
0.0
 10
187.258960
 20
-145.530499
 30
0.0
 10
187.350400
 20
-145.416199
 30
0.0
 10
187.452000
 20
-145.309519
 30
0.0
 10
187.566300
 20
-145.215539
 30
0.0
 10
187.685680
 20
-145.131719
 30
0.0
 10
187.815220
 20
-145.060599
 30
0.0
 10
187.949840
 20
-145.002179
 30
0.0
 10
188.089540
 20
-144.956459
 30
0.0
 10
188.234320
 20
-144.925979
 30
0.0
 10
188.379100
 20
-144.908199
 30
0.0
 10
188.526420
 20
-144.905555
 30
0.0
 10
188.673740
 20
-144.918255
 30
0.0
 10
188.818520
 20
-144.943655
 30
0.0
 10
188.960760
 20
-144.984295
 30
0.0
 10
189.097920
 20
-145.040175
 30
0.0
 10
189.227460
 20
-145.106215
 30
0.0
 10
189.351920
 20
-145.184955
 30
0.0
 10
189.466220
 20
-145.276395
 30
0.0
 10
189.572900
 20
-145.380535
 30
0.0
 10
189.669420
 20
-145.492295
 30
0.0
 10
189.753240
 20
-145.614212
 30
0.0
 10
189.824360
 20
-145.741212
 30
0.0
 10
189.882780
 20
-145.875832
 30
0.0
 10
189.925960
 20
-146.018072
 30
0.0
 10
189.958980
 20
-146.160312
 30
0.0
 10
189.974220
 20
-146.307632
 30
0.0
 10
189.976864
 20
-146.454952
 30
0.0
 10
189.966704
 20
-146.602272
 30
0.0
 10
189.938764
 20
-146.747052
 30
0.0
 10
189.898124
 20
-146.886752
 30
0.0
 10
189.844784
 20
-147.023912
 30
0.0
 10
189.776204
 20
-147.155992
 30
0.0
 10
189.697464
 20
-147.277912
 30
0.0
 10
189.606024
 20
-147.394752
 30
0.0
 10
189.504424
 20
-147.498892
 30
0.0
 10
189.392664
 20
-147.595412
 30
0.0
 10
189.270744
 20
-147.679232
 30
0.0
 10
189.141204
 20
-147.750352
 30
0.0
 10
189.006584
 20
-147.808772
 30
0.0
 10
188.866884
 20
-147.854492
 30
0.0
 10
188.722104
 20
-147.884972
 30
0.0
 10
188.577324
 20
-147.902752
 30
0.0
 10
188.430004
 20
-147.905399
 30
0.0
 10
188.282684
 20
-147.892699
 30
0.0
 10
188.137904
 20
-147.867299
 30
0.0
 10
187.995664
 20
-147.826659
 30
0.0
 10
187.858504
 20
-147.770779
 30
0.0
 10
187.728964
 20
-147.704739
 30
0.0
 10
187.604504
 20
-147.623459
 30
0.0
 10
187.490204
 20
-147.532019
 30
0.0
 10
187.383524
 20
-147.430419
 30
0.0
 10
187.289544
 20
-147.318659
 30
0.0
 10
187.205724
 20
-147.196739
 30
0.0
 10
187.132064
 20
-147.069739
 30
0.0
 10
187.073644
 20
-146.932579
 30
0.0
 10
187.030464
 20
-146.792879
 30
0.0
 10
186.997444
 20
-146.650639
 30
0.0
 10
186.982204
 20
-146.503319
 30
0.0
  0
LWPOLYLINE
  5
137
100
AcDbEntity
  8
0
 62
7
100
AcDbPolyline
 90
4
 70
1
 10
209.923377
 20
-166.625199
 30
0.0
 10
216.367357
 20
-160.181219
 30
0.0
 10
203.436220
 20
-147.250079
 30
0.0
 10
196.984620
 20
-153.701679
 30
0.0
  0
LWPOLYLINE
  5
138
100
AcDbEntity
  8
0
 62
7
100
AcDbPolyline
 90
32
 70
1
 10
206.969357
 20
-164.275699
 30
0.0
 10
206.931257
 20
-164.397619
 30
0.0
 10
206.872837
 20
-164.509379
 30
0.0
 10
206.791557
 20
-164.603359
 30
0.0
 10
206.697577
 20
-164.684639
 30
0.0
 10
206.585817
 20
-164.743059
 30
0.0
 10
206.463897
 20
-164.781159
 30
0.0
 10
206.331817
 20
-164.793859
 30
0.0
 10
206.202277
 20
-164.781159
 30
0.0
 10
206.080357
 20
-164.743059
 30
0.0
 10
205.968597
 20
-164.684639
 30
0.0
 10
205.872077
 20
-164.603359
 30
0.0
 10
205.793337
 20
-164.509379
 30
0.0
 10
205.734917
 20
-164.397619
 30
0.0
 10
205.696817
 20
-164.275699
 30
0.0
 10
205.684117
 20
-164.143619
 30
0.0
 10
205.696817
 20
-164.014079
 30
0.0
 10
205.734917
 20
-163.892159
 30
0.0
 10
205.793337
 20
-163.780399
 30
0.0
 10
205.872077
 20
-163.686419
 30
0.0
 10
205.968597
 20
-163.605139
 30
0.0
 10
206.080357
 20
-163.546719
 30
0.0
 10
206.202277
 20
-163.508619
 30
0.0
 10
206.331817
 20
-163.495919
 30
0.0
 10
206.463897
 20
-163.508619
 30
0.0
 10
206.585817
 20
-163.546719
 30
0.0
 10
206.697577
 20
-163.605139
 30
0.0
 10
206.791557
 20
-163.686419
 30
0.0
 10
206.872837
 20
-163.780399
 30
0.0
 10
206.931257
 20
-163.892159
 30
0.0
 10
206.969357
 20
-164.014079
 30
0.0
 10
206.982057
 20
-164.143619
 30
0.0
  0
SPLINE
  5
139
100
AcDbEntity
  8
0
 62
7
100
AcDbSpline
 70
8
 71
3
 72
8
 73
4
 74
0
 40
0
 40
0
 40
0
 40
0
 40
1
 40
1
 40
1
 40
1
 10
207.592927
 20
-166.104707
 30
0.0
 10
207.565315
 20
-166.104707
 30
0.0
 10
207.542928
 20
-166.082325
 30
0.0
 10
207.542928
 20
-166.054710
 30
0.0
  0
SPLINE
  5
13a
100
AcDbEntity
  8
0
 62
7
100
AcDbSpline
 70
8
 71
3
 72
8
 73
4
 74
0
 40
0
 40
0
 40
0
 40
0
 40
1
 40
1
 40
1
 40
1
 10
207.542928
 20
-166.054710
 30
0.0
 10
207.542928
 20
-166.027095
 30
0.0
 10
207.565313
 20
-166.004710
 30
0.0
 10
207.592927
 20
-166.004710
 30
0.0
  0
SPLINE
  5
13b
100
AcDbEntity
  8
0
 62
7
100
AcDbSpline
 70
8
 71
3
 72
8
 73
4
 74
0
 40
0
 40
0
 40
0
 40
0
 40
1
 40
1
 40
1
 40
1
 10
207.592927
 20
-166.004710
 30
0.0
 10
207.620542
 20
-166.004710
 30
0.0
 10
207.642927
 20
-166.027092
 30
0.0
 10
207.642927
 20
-166.054710
 30
0.0
  0
SPLINE
  5
13c
100
AcDbEntity
  8
0
 62
7
100
AcDbSpline
 70
8
 71
3
 72
8
 73
4
 74
0
 40
0
 40
0
 40
0
 40
0
 40
1
 40
1
 40
1
 40
1
 10
207.642927
 20
-166.054710
 30
0.0
 10
207.642927
 20
-166.082325
 30
0.0
 10
207.620542
 20
-166.104707
 30
0.0
 10
207.592927
 20
-166.104707
 30
0.0
  0
LWPOLYLINE
  5
13d
100
AcDbEntity
  8
0
 62
7
100
AcDbPolyline
 90
32
 70
1
 10
207.845657
 20
-166.002899
 30
0.0
 10
207.723737
 20
-166.040999
 30
0.0
 10
207.591657
 20
-166.053699
 30
0.0
 10
207.459577
 20
-166.040999
 30
0.0
 10
207.337657
 20
-166.002899
 30
0.0
 10
207.228437
 20
-165.941939
 30
0.0
 10
207.131917
 20
-165.863199
 30
0.0
 10
207.053177
 20
-165.766679
 30
0.0
 10
206.992217
 20
-165.657459
 30
0.0
 10
206.954117
 20
-165.535539
 30
0.0
 10
206.941417
 20
-165.403459
 30
0.0
 10
206.954117
 20
-165.271379
 30
0.0
 10
206.992217
 20
-165.149459
 30
0.0
 10
207.053177
 20
-165.040239
 30
0.0
 10
207.131917
 20
-164.943719
 30
0.0
 10
207.228437
 20
-164.864979
 30
0.0
 10
207.337657
 20
-164.804019
 30
0.0
 10
207.459577
 20
-164.765919
 30
0.0
 10
207.591657
 20
-164.753219
 30
0.0
 10
207.723737
 20
-164.765919
 30
0.0
 10
207.845657
 20
-164.804019
 30
0.0
 10
207.954877
 20
-164.864979
 30
0.0
 10
208.051397
 20
-164.943719
 30
0.0
 10
208.130137
 20
-165.040239
 30
0.0
 10
208.191097
 20
-165.149459
 30
0.0
 10
208.229197
 20
-165.271379
 30
0.0
 10
208.241897
 20
-165.403459
 30
0.0
 10
208.229197
 20
-165.535539
 30
0.0
 10
208.191097
 20
-165.657459
 30
0.0
 10
208.130137
 20
-165.766679
 30
0.0
 10
208.051397
 20
-165.863199
 30
0.0
 10
207.954877
 20
-165.941939
 30
0.0
  0
LWPOLYLINE
  5
13e
100
AcDbEntity
  8
0
 62
7
100
AcDbPolyline
 90
1
 70
1
 10
207.592927
 20
-166.104707
 30
0.0
  0
SPLINE
  5
13f
100
AcDbEntity
  8
0
 62
7
100
AcDbSpline
 70
8
 71
3
 72
8
 73
4
 74
0
 40
0
 40
0
 40
0
 40
0
 40
1
 40
1
 40
1
 40
1
 10
206.334098
 20
-164.846137
 30
0.0
 10
206.306486
 20
-164.846137
 30
0.0
 10
206.284098
 20
-164.823755
 30
0.0
 10
206.284098
 20
-164.796140
 30
0.0
  0
SPLINE
  5
140
100
AcDbEntity
  8
0
 62
7
100
AcDbSpline
 70
8
 71
3
 72
8
 73
4
 74
0
 40
0
 40
0
 40
0
 40
0
 40
1
 40
1
 40
1
 40
1
 10
206.284098
 20
-164.796140
 30
0.0
 10
206.284098
 20
-164.768525
 30
0.0
 10
206.306481
 20
-164.746140
 30
0.0
 10
206.334098
 20
-164.746140
 30
0.0
  0
SPLINE
  5
141
100
AcDbEntity
  8
0
 62
7
100
AcDbSpline
 70
8
 71
3
 72
8
 73
4
 74
0
 40
0
 40
0
 40
0
 40
0
 40
1
 40
1
 40
1
 40
1
 10
206.334098
 20
-164.746140
 30
0.0
 10
206.361713
 20
-164.746140
 30
0.0
 10
206.384098
 20
-164.768522
 30
0.0
 10
206.384098
 20
-164.796140
 30
0.0
  0
SPLINE
  5
142
100
AcDbEntity
  8
0
 62
7
100
AcDbSpline
 70
8
 71
3
 72
8
 73
4
 74
0
 40
0
 40
0
 40
0
 40
0
 40
1
 40
1
 40
1
 40
1
 10
206.384098
 20
-164.796140
 30
0.0
 10
206.384098
 20
-164.823755
 30
0.0
 10
206.361713
 20
-164.846137
 30
0.0
 10
206.334098
 20
-164.846137
 30
0.0
  0
LWPOLYLINE
  5
143
100
AcDbEntity
  8
0
 62
7
100
AcDbPolyline
 90
32
 70
1
 10
204.475080
 20
-162.632319
 30
0.0
 10
204.536040
 20
-162.523099
 30
0.0
 10
204.614780
 20
-162.426579
 30
0.0
 10
204.711300
 20
-162.347839
 30
0.0
 10
204.820520
 20
-162.286879
 30
0.0
 10
204.942440
 20
-162.248779
 30
0.0
 10
205.074520
 20
-162.236079
 30
0.0
 10
205.206600
 20
-162.248779
 30
0.0
 10
205.328520
 20
-162.286879
 30
0.0
 10
205.437740
 20
-162.347839
 30
0.0
 10
205.534260
 20
-162.426579
 30
0.0
 10
205.613000
 20
-162.523099
 30
0.0
 10
205.673960
 20
-162.632319
 30
0.0
 10
205.712057
 20
-162.754239
 30
0.0
 10
205.724757
 20
-162.886319
 30
0.0
 10
205.712057
 20
-163.018399
 30
0.0
 10
205.673960
 20
-163.140319
 30
0.0
 10
205.613000
 20
-163.249539
 30
0.0
 10
205.534260
 20
-163.346059
 30
0.0
 10
205.437740
 20
-163.424799
 30
0.0
 10
205.328520
 20
-163.485759
 30
0.0
 10
205.206600
 20
-163.523859
 30
0.0
 10
205.074520
 20
-163.536559
 30
0.0
 10
204.942440
 20
-163.523859
 30
0.0
 10
204.820520
 20
-163.485759
 30
0.0
 10
204.711300
 20
-163.424799
 30
0.0
 10
204.614780
 20
-163.346059
 30
0.0
 10
204.536040
 20
-163.249539
 30
0.0
 10
204.475080
 20
-163.140319
 30
0.0
 10
204.436980
 20
-163.018399
 30
0.0
 10
204.424280
 20
-162.886319
 30
0.0
 10
204.436980
 20
-162.754239
 30
0.0
  0
LWPOLYLINE
  5
144
100
AcDbEntity
  8
0
 62
7
100
AcDbPolyline
 90
1
 70
1
 10
206.334098
 20
-164.846137
 30
0.0
  0
LWPOLYLINE
  5
145
100
AcDbEntity
  8
0
 62
7
100
AcDbPolyline
 90
32
 70
1
 10
207.614517
 20
-149.525919
 30
0.0
 10
207.627217
 20
-149.655459
 30
0.0
 10
207.614517
 20
-149.787539
 30
0.0
 10
207.576417
 20
-149.909459
 30
0.0
 10
207.515457
 20
-150.018679
 30
0.0
 10
207.436717
 20
-150.115199
 30
0.0
 10
207.340197
 20
-150.193939
 30
0.0
 10
207.228437
 20
-150.254899
 30
0.0
 10
207.106517
 20
-150.292999
 30
0.0
 10
206.976977
 20
-150.305699
 30
0.0
 10
206.844897
 20
-150.292999
 30
0.0
 10
206.722977
 20
-150.254899
 30
0.0
 10
206.613757
 20
-150.193939
 30
0.0
 10
206.517237
 20
-150.115199
 30
0.0
 10
206.438497
 20
-150.018679
 30
0.0
 10
206.377537
 20
-149.909459
 30
0.0
 10
206.339437
 20
-149.787539
 30
0.0
 10
206.326737
 20
-149.655459
 30
0.0
 10
206.339437
 20
-149.525919
 30
0.0
 10
206.377537
 20
-149.403999
 30
0.0
 10
206.438497
 20
-149.292239
 30
0.0
 10
206.517237
 20
-149.195719
 30
0.0
 10
206.613757
 20
-149.116979
 30
0.0
 10
206.722977
 20
-149.056019
 30
0.0
 10
206.844897
 20
-149.020459
 30
0.0
 10
206.976977
 20
-149.005219
 30
0.0
 10
207.106517
 20
-149.020459
 30
0.0
 10
207.228437
 20
-149.056019
 30
0.0
 10
207.340197
 20
-149.116979
 30
0.0
 10
207.436717
 20
-149.195719
 30
0.0
 10
207.515457
 20
-149.292239
 30
0.0
 10
207.576417
 20
-149.403999
 30
0.0
  0
LWPOLYLINE
  5
146
100
AcDbEntity
  8
0
 62
7
100
AcDbPolyline
 90
32
 70
1
 10
206.316577
 20
-148.144159
 30
0.0
 10
206.354677
 20
-148.266079
 30
0.0
 10
206.367377
 20
-148.398159
 30
0.0
 10
206.354677
 20
-148.527699
 30
0.0
 10
206.316577
 20
-148.649619
 30
0.0
 10
206.255617
 20
-148.761379
 30
0.0
 10
206.176877
 20
-148.857899
 30
0.0
 10
206.080357
 20
-148.936639
 30
0.0
 10
205.971137
 20
-148.997599
 30
0.0
 10
205.849217
 20
-149.033159
 30
0.0
 10
205.717137
 20
-149.048399
 30
0.0
 10
205.587600
 20
-149.033159
 30
0.0
 10
205.465680
 20
-148.997599
 30
0.0
 10
205.353920
 20
-148.936639
 30
0.0
 10
205.257400
 20
-148.857899
 30
0.0
 10
205.178660
 20
-148.761379
 30
0.0
 10
205.117700
 20
-148.649619
 30
0.0
 10
205.082140
 20
-148.527699
 30
0.0
 10
205.066900
 20
-148.398159
 30
0.0
 10
205.082140
 20
-148.266079
 30
0.0
 10
205.117700
 20
-148.144159
 30
0.0
 10
205.178660
 20
-148.034939
 30
0.0
 10
205.257400
 20
-147.938419
 30
0.0
 10
205.353920
 20
-147.859679
 30
0.0
 10
205.465680
 20
-147.798719
 30
0.0
 10
205.587600
 20
-147.760619
 30
0.0
 10
205.717137
 20
-147.747919
 30
0.0
 10
205.849217
 20
-147.760619
 30
0.0
 10
205.971137
 20
-147.798719
 30
0.0
 10
206.080357
 20
-147.859679
 30
0.0
 10
206.176877
 20
-147.938419
 30
0.0
 10
206.255617
 20
-148.034939
 30
0.0
  0
LWPOLYLINE
  5
147
100
AcDbEntity
  8
0
 62
7
100
AcDbPolyline
 90
32
 70
1
 10
212.549737
 20
-154.326519
 30
0.0
 10
212.610697
 20
-154.438279
 30
0.0
 10
212.648797
 20
-154.560199
 30
0.0
 10
212.661497
 20
-154.689739
 30
0.0
 10
212.648797
 20
-154.821819
 30
0.0
 10
212.610697
 20
-154.943739
 30
0.0
 10
212.549737
 20
-155.052959
 30
0.0
 10
212.470997
 20
-155.149479
 30
0.0
 10
212.374477
 20
-155.230759
 30
0.0
 10
212.265257
 20
-155.289179
 30
0.0
 10
212.143337
 20
-155.327279
 30
0.0
 10
212.011257
 20
-155.339979
 30
0.0
 10
211.879177
 20
-155.327279
 30
0.0
 10
211.757257
 20
-155.289179
 30
0.0
 10
211.648037
 20
-155.230759
 30
0.0
 10
211.551517
 20
-155.149479
 30
0.0
 10
211.472777
 20
-155.052959
 30
0.0
 10
211.411817
 20
-154.943739
 30
0.0
 10
211.373717
 20
-154.821819
 30
0.0
 10
211.361017
 20
-154.689739
 30
0.0
 10
211.373717
 20
-154.560199
 30
0.0
 10
211.411817
 20
-154.438279
 30
0.0
 10
211.472777
 20
-154.326519
 30
0.0
 10
211.551517
 20
-154.229999
 30
0.0
 10
211.648037
 20
-154.151259
 30
0.0
 10
211.757257
 20
-154.092839
 30
0.0
 10
211.879177
 20
-154.054739
 30
0.0
 10
212.011257
 20
-154.039499
 30
0.0
 10
212.143337
 20
-154.054739
 30
0.0
 10
212.265257
 20
-154.092839
 30
0.0
 10
212.374477
 20
-154.151259
 30
0.0
 10
212.470997
 20
-154.229999
 30
0.0
  0
LWPOLYLINE
  5
148
100
AcDbEntity
  8
0
 62
7
100
AcDbPolyline
 90
32
 70
1
 10
199.318880
 20
-156.955419
 30
0.0
 10
199.240140
 20
-157.051939
 30
0.0
 10
199.143620
 20
-157.130679
 30
0.0
 10
199.034400
 20
-157.191639
 30
0.0
 10
198.912480
 20
-157.229739
 30
0.0
 10
198.780400
 20
-157.242439
 30
0.0
 10
198.650860
 20
-157.229739
 30
0.0
 10
198.528940
 20
-157.191639
 30
0.0
 10
198.417180
 20
-157.130679
 30
0.0
 10
198.320660
 20
-157.051939
 30
0.0
 10
198.241920
 20
-156.955419
 30
0.0
 10
198.180960
 20
-156.846199
 30
0.0
 10
198.145400
 20
-156.724279
 30
0.0
 10
198.130160
 20
-156.592199
 30
0.0
 10
198.145400
 20
-156.462659
 30
0.0
 10
198.180960
 20
-156.340739
 30
0.0
 10
198.241920
 20
-156.228979
 30
0.0
 10
198.320660
 20
-156.132459
 30
0.0
 10
198.417180
 20
-156.053719
 30
0.0
 10
198.528940
 20
-155.992759
 30
0.0
 10
198.650860
 20
-155.957199
 30
0.0
 10
198.780400
 20
-155.941959
 30
0.0
 10
198.912480
 20
-155.957199
 30
0.0
 10
199.034400
 20
-155.992759
 30
0.0
 10
199.143620
 20
-156.053719
 30
0.0
 10
199.240140
 20
-156.132459
 30
0.0
 10
199.318880
 20
-156.228979
 30
0.0
 10
199.379840
 20
-156.340739
 30
0.0
 10
199.417940
 20
-156.462659
 30
0.0
 10
199.430640
 20
-156.592199
 30
0.0
 10
199.417940
 20
-156.724279
 30
0.0
 10
199.379840
 20
-156.846199
 30
0.0
  0
LWPOLYLINE
  5
149
100
AcDbEntity
  8
0
 62
7
100
AcDbPolyline
 90
32
 70
1
 10
212.633557
 20
-156.081659
 30
0.0
 10
212.620857
 20
-155.949579
 30
0.0
 10
212.633557
 20
-155.817499
 30
0.0
 10
212.671657
 20
-155.695579
 30
0.0
 10
212.730077
 20
-155.586359
 30
0.0
 10
212.808817
 20
-155.489839
 30
0.0
 10
212.905337
 20
-155.411099
 30
0.0
 10
213.017097
 20
-155.350139
 30
0.0
 10
213.139017
 20
-155.312039
 30
0.0
 10
213.268557
 20
-155.299339
 30
0.0
 10
213.400637
 20
-155.312039
 30
0.0
 10
213.522557
 20
-155.350139
 30
0.0
 10
213.634317
 20
-155.411099
 30
0.0
 10
213.728297
 20
-155.489839
 30
0.0
 10
213.809577
 20
-155.586359
 30
0.0
 10
213.867997
 20
-155.695579
 30
0.0
 10
213.906097
 20
-155.817499
 30
0.0
 10
213.918797
 20
-155.949579
 30
0.0
 10
213.906097
 20
-156.081659
 30
0.0
 10
213.867997
 20
-156.203579
 30
0.0
 10
213.809577
 20
-156.312799
 30
0.0
 10
213.728297
 20
-156.409319
 30
0.0
 10
213.634317
 20
-156.488059
 30
0.0
 10
213.522557
 20
-156.549019
 30
0.0
 10
213.400637
 20
-156.587119
 30
0.0
 10
213.268557
 20
-156.599819
 30
0.0
 10
213.139017
 20
-156.587119
 30
0.0
 10
213.017097
 20
-156.549019
 30
0.0
 10
212.905337
 20
-156.488059
 30
0.0
 10
212.808817
 20
-156.409319
 30
0.0
 10
212.730077
 20
-156.312799
 30
0.0
 10
212.671657
 20
-156.203579
 30
0.0
  0
LWPOLYLINE
  5
14a
100
AcDbEntity
  8
0
 62
7
100
AcDbPolyline
 90
32
 70
1
 10
199.580500
 20
-158.311779
 30
0.0
 10
199.501760
 20
-158.215259
 30
0.0
 10
199.440800
 20
-158.103499
 30
0.0
 10
199.402700
 20
-157.981579
 30
0.0
 10
199.390000
 20
-157.852039
 30
0.0
 10
199.402700
 20
-157.719959
 30
0.0
 10
199.440800
 20
-157.598039
 30
0.0
 10
199.501760
 20
-157.488819
 30
0.0
 10
199.580500
 20
-157.392299
 30
0.0
 10
199.677020
 20
-157.313559
 30
0.0
 10
199.786240
 20
-157.252599
 30
0.0
 10
199.908160
 20
-157.214499
 30
0.0
 10
200.040240
 20
-157.201799
 30
0.0
 10
200.169780
 20
-157.214499
 30
0.0
 10
200.291700
 20
-157.252599
 30
0.0
 10
200.403460
 20
-157.313559
 30
0.0
 10
200.499980
 20
-157.392299
 30
0.0
 10
200.578720
 20
-157.488819
 30
0.0
 10
200.639680
 20
-157.598039
 30
0.0
 10
200.677780
 20
-157.719959
 30
0.0
 10
200.690480
 20
-157.852039
 30
0.0
 10
200.677780
 20
-157.981579
 30
0.0
 10
200.639680
 20
-158.103499
 30
0.0
 10
200.578720
 20
-158.215259
 30
0.0
 10
200.499980
 20
-158.311779
 30
0.0
 10
200.403460
 20
-158.390519
 30
0.0
 10
200.291700
 20
-158.451479
 30
0.0
 10
200.169780
 20
-158.487039
 30
0.0
 10
200.040240
 20
-158.502279
 30
0.0
 10
199.908160
 20
-158.487039
 30
0.0
 10
199.786240
 20
-158.451479
 30
0.0
 10
199.677020
 20
-158.390519
 30
0.0
  0
LWPOLYLINE
  5
14b
100
AcDbEntity
  8
0
 62
7
100
AcDbPolyline
 90
32
 70
1
 10
208.833717
 20
-150.661299
 30
0.0
 10
208.871817
 20
-150.783219
 30
0.0
 10
208.884517
 20
-150.915299
 30
0.0
 10
208.871817
 20
-151.044839
 30
0.0
 10
208.833717
 20
-151.166759
 30
0.0
 10
208.775297
 20
-151.278519
 30
0.0
 10
208.694017
 20
-151.375039
 30
0.0
 10
208.597497
 20
-151.453779
 30
0.0
 10
208.488277
 20
-151.514739
 30
0.0
 10
208.366357
 20
-151.550299
 30
0.0
 10
208.234277
 20
-151.565539
 30
0.0
 10
208.104737
 20
-151.550299
 30
0.0
 10
207.982817
 20
-151.514739
 30
0.0
 10
207.871057
 20
-151.453779
 30
0.0
 10
207.774537
 20
-151.375039
 30
0.0
 10
207.695797
 20
-151.278519
 30
0.0
 10
207.637377
 20
-151.166759
 30
0.0
 10
207.599277
 20
-151.044839
 30
0.0
 10
207.584037
 20
-150.915299
 30
0.0
 10
207.599277
 20
-150.783219
 30
0.0
 10
207.637377
 20
-150.661299
 30
0.0
 10
207.695797
 20
-150.552079
 30
0.0
 10
207.774537
 20
-150.455559
 30
0.0
 10
207.871057
 20
-150.376819
 30
0.0
 10
207.982817
 20
-150.315859
 30
0.0
 10
208.104737
 20
-150.277759
 30
0.0
 10
208.234277
 20
-150.265059
 30
0.0
 10
208.366357
 20
-150.277759
 30
0.0
 10
208.488277
 20
-150.315859
 30
0.0
 10
208.597497
 20
-150.376819
 30
0.0
 10
208.694017
 20
-150.455559
 30
0.0
 10
208.775297
 20
-150.552079
 30
0.0
  0
SPLINE
  5
14c
100
AcDbEntity
  8
0
 62
7
100
AcDbSpline
 70
8
 71
3
 72
8
 73
4
 74
0
 40
0
 40
0
 40
0
 40
0
 40
1
 40
1
 40
1
 40
1
 10
198.782186
 20
-157.294212
 30
0.0
 10
198.754568
 20
-157.294212
 30
0.0
 10
198.732183
 20
-157.271829
 30
0.0
 10
198.732183
 20
-157.244214
 30
0.0
  0
SPLINE
  5
14d
100
AcDbEntity
  8
0
 62
7
100
AcDbSpline
 70
8
 71
3
 72
8
 73
4
 74
0
 40
0
 40
0
 40
0
 40
0
 40
1
 40
1
 40
1
 40
1
 10
198.732183
 20
-157.244214
 30
0.0
 10
198.732183
 20
-157.216599
 30
0.0
 10
198.754568
 20
-157.194214
 30
0.0
 10
198.782186
 20
-157.194214
 30
0.0
  0
SPLINE
  5
14e
100
AcDbEntity
  8
0
 62
7
100
AcDbSpline
 70
8
 71
3
 72
8
 73
4
 74
0
 40
0
 40
0
 40
0
 40
0
 40
1
 40
1
 40
1
 40
1
 10
198.782186
 20
-157.194214
 30
0.0
 10
198.809800
 20
-157.194214
 30
0.0
 10
198.832183
 20
-157.216597
 30
0.0
 10
198.832183
 20
-157.244214
 30
0.0
  0
SPLINE
  5
14f
100
AcDbEntity
  8
0
 62
7
100
AcDbSpline
 70
8
 71
3
 72
8
 73
4
 74
0
 40
0
 40
0
 40
0
 40
0
 40
1
 40
1
 40
1
 40
1
 10
198.832183
 20
-157.244214
 30
0.0
 10
198.832183
 20
-157.271829
 30
0.0
 10
198.809800
 20
-157.294212
 30
0.0
 10
198.782186
 20
-157.294212
 30
0.0
  0
LWPOLYLINE
  5
150
100
AcDbEntity
  8
0
 62
7
100
AcDbPolyline
 90
32
 70
1
 10
202.808840
 20
-160.968619
 30
0.0
 10
202.686920
 20
-161.006719
 30
0.0
 10
202.557380
 20
-161.019419
 30
0.0
 10
202.425300
 20
-161.006719
 30
0.0
 10
202.303380
 20
-160.968619
 30
0.0
 10
202.194160
 20
-160.907659
 30
0.0
 10
202.097640
 20
-160.828919
 30
0.0
 10
202.018900
 20
-160.732399
 30
0.0
 10
201.957940
 20
-160.620639
 30
0.0
 10
201.919840
 20
-160.498719
 30
0.0
 10
201.907140
 20
-160.369179
 30
0.0
 10
201.919840
 20
-160.237099
 30
0.0
 10
201.957940
 20
-160.115179
 30
0.0
 10
202.018900
 20
-160.005959
 30
0.0
 10
202.097640
 20
-159.909439
 30
0.0
 10
202.194160
 20
-159.830699
 30
0.0
 10
202.303380
 20
-159.769739
 30
0.0
 10
202.425300
 20
-159.731639
 30
0.0
 10
202.557380
 20
-159.718939
 30
0.0
 10
202.686920
 20
-159.731639
 30
0.0
 10
202.808840
 20
-159.769739
 30
0.0
 10
202.920600
 20
-159.830699
 30
0.0
 10
203.017120
 20
-159.909439
 30
0.0
 10
203.095860
 20
-160.005959
 30
0.0
 10
203.156820
 20
-160.115179
 30
0.0
 10
203.194920
 20
-160.237099
 30
0.0
 10
203.207620
 20
-160.369179
 30
0.0
 10
203.194920
 20
-160.498719
 30
0.0
 10
203.156820
 20
-160.620639
 30
0.0
 10
203.095860
 20
-160.732399
 30
0.0
 10
203.017120
 20
-160.828919
 30
0.0
 10
202.920600
 20
-160.907659
 30
0.0
  0
LWPOLYLINE
  5
151
100
AcDbEntity
  8
0
 62
7
100
AcDbPolyline
 90
1
 70
1
 10
198.782186
 20
-157.294212
 30
0.0
  0
LWPOLYLINE
  5
152
100
AcDbEntity
  8
0
 62
7
100
AcDbPolyline
 90
32
 70
1
 10
210.751417
 20
-154.082679
 30
0.0
 10
210.621877
 20
-154.069979
 30
0.0
 10
210.499957
 20
-154.031879
 30
0.0
 10
210.388197
 20
-153.970919
 30
0.0
 10
210.291677
 20
-153.892179
 30
0.0
 10
210.212937
 20
-153.795659
 30
0.0
 10
210.154517
 20
-153.683899
 30
0.0
 10
210.116417
 20
-153.561979
 30
0.0
 10
210.103717
 20
-153.432439
 30
0.0
 10
210.116417
 20
-153.300359
 30
0.0
 10
210.154517
 20
-153.178439
 30
0.0
 10
210.212937
 20
-153.069219
 30
0.0
 10
210.291677
 20
-152.972699
 30
0.0
 10
210.388197
 20
-152.893959
 30
0.0
 10
210.499957
 20
-152.832999
 30
0.0
 10
210.621877
 20
-152.794899
 30
0.0
 10
210.751417
 20
-152.782199
 30
0.0
 10
210.883497
 20
-152.794899
 30
0.0
 10
211.005417
 20
-152.832999
 30
0.0
 10
211.117177
 20
-152.893959
 30
0.0
 10
211.211157
 20
-152.972699
 30
0.0
 10
211.292437
 20
-153.069219
 30
0.0
 10
211.350857
 20
-153.178439
 30
0.0
 10
211.388957
 20
-153.300359
 30
0.0
 10
211.401657
 20
-153.432439
 30
0.0
 10
211.388957
 20
-153.561979
 30
0.0
 10
211.350857
 20
-153.683899
 30
0.0
 10
211.292437
 20
-153.795659
 30
0.0
 10
211.211157
 20
-153.892179
 30
0.0
 10
211.117177
 20
-153.970919
 30
0.0
 10
211.005417
 20
-154.031879
 30
0.0
 10
210.883497
 20
-154.069979
 30
0.0
  0
SPLINE
  5
153
100
AcDbEntity
  8
0
 62
7
100
AcDbSpline
 70
8
 71
3
 72
8
 73
4
 74
0
 40
0
 40
0
 40
0
 40
0
 40
1
 40
1
 40
1
 40
1
 10
201.299562
 20
-159.811613
 30
0.0
 10
201.271950
 20
-159.811613
 30
0.0
 10
201.249562
 20
-159.789228
 30
0.0
 10
201.249562
 20
-159.761613
 30
0.0
  0
SPLINE
  5
154
100
AcDbEntity
  8
0
 62
7
100
AcDbSpline
 70
8
 71
3
 72
8
 73
4
 74
0
 40
0
 40
0
 40
0
 40
0
 40
1
 40
1
 40
1
 40
1
 10
201.249562
 20
-159.761613
 30
0.0
 10
201.249562
 20
-159.733996
 30
0.0
 10
201.271944
 20
-159.711614
 30
0.0
 10
201.299562
 20
-159.711614
 30
0.0
  0
SPLINE
  5
155
100
AcDbEntity
  8
0
 62
7
100
AcDbSpline
 70
8
 71
3
 72
8
 73
4
 74
0
 40
0
 40
0
 40
0
 40
0
 40
1
 40
1
 40
1
 40
1
 10
201.299562
 20
-159.711614
 30
0.0
 10
201.327177
 20
-159.711614
 30
0.0
 10
201.349562
 20
-159.733996
 30
0.0
 10
201.349562
 20
-159.761613
 30
0.0
  0
SPLINE
  5
156
100
AcDbEntity
  8
0
 62
7
100
AcDbSpline
 70
8
 71
3
 72
8
 73
4
 74
0
 40
0
 40
0
 40
0
 40
0
 40
1
 40
1
 40
1
 40
1
 10
201.349562
 20
-159.761613
 30
0.0
 10
201.349562
 20
-159.789228
 30
0.0
 10
201.327177
 20
-159.811613
 30
0.0
 10
201.299562
 20
-159.811613
 30
0.0
  0
LWPOLYLINE
  5
157
100
AcDbEntity
  8
0
 62
7
100
AcDbPolyline
 90
32
 70
1
 10
209.857337
 20
-151.634119
 30
0.0
 10
209.953857
 20
-151.712859
 30
0.0
 10
210.032597
 20
-151.809379
 30
0.0
 10
210.093557
 20
-151.921139
 30
0.0
 10
210.131657
 20
-152.043059
 30
0.0
 10
210.144357
 20
-152.172599
 30
0.0
 10
210.131657
 20
-152.304679
 30
0.0
 10
210.093557
 20
-152.426599
 30
0.0
 10
210.032597
 20
-152.535819
 30
0.0
 10
209.953857
 20
-152.632339
 30
0.0
 10
209.857337
 20
-152.713619
 30
0.0
 10
209.745577
 20
-152.772039
 30
0.0
 10
209.623657
 20
-152.810139
 30
0.0
 10
209.494117
 20
-152.822839
 30
0.0
 10
209.362037
 20
-152.810139
 30
0.0
 10
209.240117
 20
-152.772039
 30
0.0
 10
209.130897
 20
-152.713619
 30
0.0
 10
209.034377
 20
-152.632339
 30
0.0
 10
208.955637
 20
-152.535819
 30
0.0
 10
208.894677
 20
-152.426599
 30
0.0
 10
208.856577
 20
-152.304679
 30
0.0
 10
208.843877
 20
-152.172599
 30
0.0
 10
208.856577
 20
-152.043059
 30
0.0
 10
208.894677
 20
-151.921139
 30
0.0
 10
208.955637
 20
-151.809379
 30
0.0
 10
209.034377
 20
-151.712859
 30
0.0
 10
209.130897
 20
-151.634119
 30
0.0
 10
209.240117
 20
-151.575699
 30
0.0
 10
209.362037
 20
-151.537599
 30
0.0
 10
209.494117
 20
-151.522359
 30
0.0
 10
209.623657
 20
-151.537599
 30
0.0
 10
209.745577
 20
-151.575699
 30
0.0
  0
SPLINE
  5
158
100
AcDbEntity
  8
0
 62
7
100
AcDbSpline
 70
8
 71
3
 72
8
 73
4
 74
0
 40
0
 40
0
 40
0
 40
0
 40
1
 40
1
 40
1
 40
1
 10
202.558132
 20
-161.070183
 30
0.0
 10
202.530520
 20
-161.070183
 30
0.0
 10
202.508132
 20
-161.047798
 30
0.0
 10
202.508132
 20
-161.020183
 30
0.0
  0
SPLINE
  5
159
100
AcDbEntity
  8
0
 62
7
100
AcDbSpline
 70
8
 71
3
 72
8
 73
4
 74
0
 40
0
 40
0
 40
0
 40
0
 40
1
 40
1
 40
1
 40
1
 10
202.508132
 20
-161.020183
 30
0.0
 10
202.508132
 20
-160.992566
 30
0.0
 10
202.530514
 20
-160.970184
 30
0.0
 10
202.558132
 20
-160.970184
 30
0.0
  0
SPLINE
  5
15a
100
AcDbEntity
  8
0
 62
7
100
AcDbSpline
 70
8
 71
3
 72
8
 73
4
 74
0
 40
0
 40
0
 40
0
 40
0
 40
1
 40
1
 40
1
 40
1
 10
202.558132
 20
-160.970184
 30
0.0
 10
202.585747
 20
-160.970184
 30
0.0
 10
202.608132
 20
-160.992566
 30
0.0
 10
202.608132
 20
-161.020183
 30
0.0
  0
SPLINE
  5
15b
100
AcDbEntity
  8
0
 62
7
100
AcDbSpline
 70
8
 71
3
 72
8
 73
4
 74
0
 40
0
 40
0
 40
0
 40
0
 40
1
 40
1
 40
1
 40
1
 10
202.608132
 20
-161.020183
 30
0.0
 10
202.608132
 20
-161.047798
 30
0.0
 10
202.585747
 20
-161.070183
 30
0.0
 10
202.558132
 20
-161.070183
 30
0.0
  0
LWPOLYLINE
  5
15c
100
AcDbEntity
  8
0
 62
7
100
AcDbPolyline
 90
1
 70
1
 10
201.299562
 20
-159.811613
 30
0.0
  0
LWPOLYLINE
  5
15d
100
AcDbEntity
  8
0
 62
7
100
AcDbPolyline
 90
1
 70
1
 10
202.558132
 20
-161.070183
 30
0.0
  0
SPLINE
  5
15e
100
AcDbEntity
  8
0
 62
7
100
AcDbSpline
 70
8
 71
3
 72
8
 73
4
 74
0
 40
0
 40
0
 40
0
 40
0
 40
1
 40
1
 40
1
 40
1
 10
205.718926
 20
-149.098902
 30
0.0
 10
205.691308
 20
-149.098902
 30
0.0
 10
205.668923
 20
-149.076519
 30
0.0
 10
205.668923
 20
-149.048904
 30
0.0
  0
SPLINE
  5
15f
100
AcDbEntity
  8
0
 62
7
100
AcDbSpline
 70
8
 71
3
 72
8
 73
4
 74
0
 40
0
 40
0
 40
0
 40
0
 40
1
 40
1
 40
1
 40
1
 10
205.668923
 20
-149.048904
 30
0.0
 10
205.668923
 20
-149.021289
 30
0.0
 10
205.691308
 20
-148.998904
 30
0.0
 10
205.718926
 20
-148.998904
 30
0.0
  0
SPLINE
  5
160
100
AcDbEntity
  8
0
 62
7
100
AcDbSpline
 70
8
 71
3
 72
8
 73
4
 74
0
 40
0
 40
0
 40
0
 40
0
 40
1
 40
1
 40
1
 40
1
 10
205.718926
 20
-148.998904
 30
0.0
 10
205.746538
 20
-148.998904
 30
0.0
 10
205.768923
 20
-149.021287
 30
0.0
 10
205.768923
 20
-149.048904
 30
0.0
  0
SPLINE
  5
161
100
AcDbEntity
  8
0
 62
7
100
AcDbSpline
 70
8
 71
3
 72
8
 73
4
 74
0
 40
0
 40
0
 40
0
 40
0
 40
1
 40
1
 40
1
 40
1
 10
205.768923
 20
-149.048904
 30
0.0
 10
205.768923
 20
-149.076519
 30
0.0
 10
205.746538
 20
-149.098902
 30
0.0
 10
205.718926
 20
-149.098902
 30
0.0
  0
LWPOLYLINE
  5
162
100
AcDbEntity
  8
0
 62
7
100
AcDbPolyline
 90
32
 70
1
 10
200.837800
 20
-158.649599
 30
0.0
 10
200.934320
 20
-158.570859
 30
0.0
 10
201.046080
 20
-158.512439
 30
0.0
 10
201.168000
 20
-158.474339
 30
0.0
 10
201.297540
 20
-158.459099
 30
0.0
 10
201.429620
 20
-158.474339
 30
0.0
 10
201.551540
 20
-158.512439
 30
0.0
 10
201.660760
 20
-158.570859
 30
0.0
 10
201.757280
 20
-158.649599
 30
0.0
 10
201.838560
 20
-158.746119
 30
0.0
 10
201.896980
 20
-158.857879
 30
0.0
 10
201.935080
 20
-158.979799
 30
0.0
 10
201.947780
 20
-159.109339
 30
0.0
 10
201.935080
 20
-159.241419
 30
0.0
 10
201.896980
 20
-159.363339
 30
0.0
 10
201.838560
 20
-159.472559
 30
0.0
 10
201.757280
 20
-159.569079
 30
0.0
 10
201.660760
 20
-159.650359
 30
0.0
 10
201.551540
 20
-159.708779
 30
0.0
 10
201.429620
 20
-159.746879
 30
0.0
 10
201.297540
 20
-159.759579
 30
0.0
 10
201.168000
 20
-159.746879
 30
0.0
 10
201.046080
 20
-159.708779
 30
0.0
 10
200.934320
 20
-159.650359
 30
0.0
 10
200.837800
 20
-159.569079
 30
0.0
 10
200.759060
 20
-159.472559
 30
0.0
 10
200.700640
 20
-159.363339
 30
0.0
 10
200.662540
 20
-159.241419
 30
0.0
 10
200.647300
 20
-159.109339
 30
0.0
 10
200.662540
 20
-158.979799
 30
0.0
 10
200.700640
 20
-158.857879
 30
0.0
 10
200.759060
 20
-158.746119
 30
0.0
  0
SPLINE
  5
163
100
AcDbEntity
  8
0
 62
7
100
AcDbSpline
 70
8
 71
3
 72
8
 73
4
 74
0
 40
0
 40
0
 40
0
 40
0
 40
1
 40
1
 40
1
 40
1
 10
208.236302
 20
-151.616042
 30
0.0
 10
208.208687
 20
-151.616042
 30
0.0
 10
208.186302
 20
-151.593659
 30
0.0
 10
208.186302
 20
-151.566044
 30
0.0
  0
SPLINE
  5
164
100
AcDbEntity
  8
0
 62
7
100
AcDbSpline
 70
8
 71
3
 72
8
 73
4
 74
0
 40
0
 40
0
 40
0
 40
0
 40
1
 40
1
 40
1
 40
1
 10
208.186302
 20
-151.566044
 30
0.0
 10
208.186302
 20
-151.538429
 30
0.0
 10
208.208684
 20
-151.516044
 30
0.0
 10
208.236302
 20
-151.516044
 30
0.0
  0
SPLINE
  5
165
100
AcDbEntity
  8
0
 62
7
100
AcDbSpline
 70
8
 71
3
 72
8
 73
4
 74
0
 40
0
 40
0
 40
0
 40
0
 40
1
 40
1
 40
1
 40
1
 10
208.236302
 20
-151.516044
 30
0.0
 10
208.263917
 20
-151.516044
 30
0.0
 10
208.286302
 20
-151.538427
 30
0.0
 10
208.286302
 20
-151.566044
 30
0.0
  0
SPLINE
  5
166
100
AcDbEntity
  8
0
 62
7
100
AcDbSpline
 70
8
 71
3
 72
8
 73
4
 74
0
 40
0
 40
0
 40
0
 40
0
 40
1
 40
1
 40
1
 40
1
 10
208.286302
 20
-151.566044
 30
0.0
 10
208.286302
 20
-151.593659
 30
0.0
 10
208.263917
 20
-151.616042
 30
0.0
 10
208.236302
 20
-151.616042
 30
0.0
  0
LWPOLYLINE
  5
167
100
AcDbEntity
  8
0
 62
7
100
AcDbPolyline
 90
1
 70
1
 10
205.718926
 20
-149.098902
 30
0.0
  0
SPLINE
  5
168
100
AcDbEntity
  8
0
 62
7
100
AcDbSpline
 70
8
 71
3
 72
8
 73
4
 74
0
 40
0
 40
0
 40
0
 40
0
 40
1
 40
1
 40
1
 40
1
 10
209.494872
 20
-152.874873
 30
0.0
 10
209.467257
 20
-152.874873
 30
0.0
 10
209.444872
 20
-152.852488
 30
0.0
 10
209.444872
 20
-152.824873
 30
0.0
  0
SPLINE
  5
169
100
AcDbEntity
  8
0
 62
7
100
AcDbSpline
 70
8
 71
3
 72
8
 73
4
 74
0
 40
0
 40
0
 40
0
 40
0
 40
1
 40
1
 40
1
 40
1
 10
209.444872
 20
-152.824873
 30
0.0
 10
209.444872
 20
-152.797256
 30
0.0
 10
209.467254
 20
-152.774874
 30
0.0
 10
209.494872
 20
-152.774874
 30
0.0
  0
SPLINE
  5
16a
100
AcDbEntity
  8
0
 62
7
100
AcDbSpline
 70
8
 71
3
 72
8
 73
4
 74
0
 40
0
 40
0
 40
0
 40
0
 40
1
 40
1
 40
1
 40
1
 10
209.494872
 20
-152.774874
 30
0.0
 10
209.522487
 20
-152.774874
 30
0.0
 10
209.544872
 20
-152.797256
 30
0.0
 10
209.544872
 20
-152.824873
 30
0.0
  0
SPLINE
  5
16b
100
AcDbEntity
  8
0
 62
7
100
AcDbSpline
 70
8
 71
3
 72
8
 73
4
 74
0
 40
0
 40
0
 40
0
 40
0
 40
1
 40
1
 40
1
 40
1
 10
209.544872
 20
-152.824873
 30
0.0
 10
209.544872
 20
-152.852488
 30
0.0
 10
209.522487
 20
-152.874873
 30
0.0
 10
209.494872
 20
-152.874873
 30
0.0
  0
LWPOLYLINE
  5
16c
100
AcDbEntity
  8
0
 62
7
100
AcDbPolyline
 90
1
 70
1
 10
208.236302
 20
-151.616042
 30
0.0
  0
SPLINE
  5
16d
100
AcDbEntity
  8
0
 62
7
100
AcDbSpline
 70
8
 71
3
 72
8
 73
4
 74
0
 40
0
 40
0
 40
0
 40
0
 40
1
 40
1
 40
1
 40
1
 10
206.977732
 20
-150.357472
 30
0.0
 10
206.950117
 20
-150.357472
 30
0.0
 10
206.927732
 20
-150.335089
 30
0.0
 10
206.927732
 20
-150.307474
 30
0.0
  0
SPLINE
  5
16e
100
AcDbEntity
  8
0
 62
7
100
AcDbSpline
 70
8
 71
3
 72
8
 73
4
 74
0
 40
0
 40
0
 40
0
 40
0
 40
1
 40
1
 40
1
 40
1
 10
206.927732
 20
-150.307474
 30
0.0
 10
206.927732
 20
-150.279859
 30
0.0
 10
206.950114
 20
-150.257474
 30
0.0
 10
206.977732
 20
-150.257474
 30
0.0
  0
SPLINE
  5
16f
100
AcDbEntity
  8
0
 62
7
100
AcDbSpline
 70
8
 71
3
 72
8
 73
4
 74
0
 40
0
 40
0
 40
0
 40
0
 40
1
 40
1
 40
1
 40
1
 10
206.977732
 20
-150.257474
 30
0.0
 10
207.005347
 20
-150.257474
 30
0.0
 10
207.027732
 20
-150.279857
 30
0.0
 10
207.027732
 20
-150.307474
 30
0.0
  0
SPLINE
  5
170
100
AcDbEntity
  8
0
 62
7
100
AcDbSpline
 70
8
 71
3
 72
8
 73
4
 74
0
 40
0
 40
0
 40
0
 40
0
 40
1
 40
1
 40
1
 40
1
 10
207.027732
 20
-150.307474
 30
0.0
 10
207.027732
 20
-150.335089
 30
0.0
 10
207.005347
 20
-150.357472
 30
0.0
 10
206.977732
 20
-150.357472
 30
0.0
  0
LWPOLYLINE
  5
171
100
AcDbEntity
  8
0
 62
7
100
AcDbPolyline
 90
1
 70
1
 10
209.494872
 20
-152.874873
 30
0.0
  0
SPLINE
  5
172
100
AcDbEntity
  8
0
 62
7
100
AcDbSpline
 70
8
 71
3
 72
8
 73
4
 74
0
 40
0
 40
0
 40
0
 40
0
 40
1
 40
1
 40
1
 40
1
 10
210.753698
 20
-154.133443
 30
0.0
 10
210.726086
 20
-154.133443
 30
0.0
 10
210.703698
 20
-154.111058
 30
0.0
 10
210.703698
 20
-154.083443
 30
0.0
  0
SPLINE
  5
173
100
AcDbEntity
  8
0
 62
7
100
AcDbSpline
 70
8
 71
3
 72
8
 73
4
 74
0
 40
0
 40
0
 40
0
 40
0
 40
1
 40
1
 40
1
 40
1
 10
210.703698
 20
-154.083443
 30
0.0
 10
210.703698
 20
-154.055826
 30
0.0
 10
210.726081
 20
-154.033444
 30
0.0
 10
210.753698
 20
-154.033444
 30
0.0
  0
SPLINE
  5
174
100
AcDbEntity
  8
0
 62
7
100
AcDbSpline
 70
8
 71
3
 72
8
 73
4
 74
0
 40
0
 40
0
 40
0
 40
0
 40
1
 40
1
 40
1
 40
1
 10
210.753698
 20
-154.033444
 30
0.0
 10
210.781313
 20
-154.033444
 30
0.0
 10
210.803698
 20
-154.055826
 30
0.0
 10
210.803698
 20
-154.083443
 30
0.0
  0
SPLINE
  5
175
100
AcDbEntity
  8
0
 62
7
100
AcDbSpline
 70
8
 71
3
 72
8
 73
4
 74
0
 40
0
 40
0
 40
0
 40
0
 40
1
 40
1
 40
1
 40
1
 10
210.803698
 20
-154.083443
 30
0.0
 10
210.803698
 20
-154.111058
 30
0.0
 10
210.781313
 20
-154.133443
 30
0.0
 10
210.753698
 20
-154.133443
 30
0.0
  0
LWPOLYLINE
  5
176
100
AcDbEntity
  8
0
 62
7
100
AcDbPolyline
 90
1
 70
1
 10
206.977732
 20
-150.357472
 30
0.0
  0
LWPOLYLINE
  5
177
100
AcDbEntity
  8
0
 62
7
100
AcDbPolyline
 90
1
 70
1
 10
210.753698
 20
-154.133443
 30
0.0
  0
SPLINE
  5
178
100
AcDbEntity
  8
0
 62
7
100
AcDbSpline
 70
8
 71
3
 72
8
 73
4
 74
0
 40
0
 40
0
 40
0
 40
0
 40
1
 40
1
 40
1
 40
1
 10
205.075528
 20
-163.587567
 30
0.0
 10
205.047916
 20
-163.587567
 30
0.0
 10
205.025528
 20
-163.565185
 30
0.0
 10
205.025528
 20
-163.537570
 30
0.0
  0
SPLINE
  5
179
100
AcDbEntity
  8
0
 62
7
100
AcDbSpline
 70
8
 71
3
 72
8
 73
4
 74
0
 40
0
 40
0
 40
0
 40
0
 40
1
 40
1
 40
1
 40
1
 10
205.025528
 20
-163.537570
 30
0.0
 10
205.025528
 20
-163.509955
 30
0.0
 10
205.047913
 20
-163.487570
 30
0.0
 10
205.075528
 20
-163.487570
 30
0.0
  0
SPLINE
  5
17a
100
AcDbEntity
  8
0
 62
7
100
AcDbSpline
 70
8
 71
3
 72
8
 73
4
 74
0
 40
0
 40
0
 40
0
 40
0
 40
1
 40
1
 40
1
 40
1
 10
205.075528
 20
-163.487570
 30
0.0
 10
205.103143
 20
-163.487570
 30
0.0
 10
205.125528
 20
-163.509952
 30
0.0
 10
205.125528
 20
-163.537570
 30
0.0
  0
SPLINE
  5
17b
100
AcDbEntity
  8
0
 62
7
100
AcDbSpline
 70
8
 71
3
 72
8
 73
4
 74
0
 40
0
 40
0
 40
0
 40
0
 40
1
 40
1
 40
1
 40
1
 10
205.125528
 20
-163.537570
 30
0.0
 10
205.125528
 20
-163.565185
 30
0.0
 10
205.103143
 20
-163.587567
 30
0.0
 10
205.075528
 20
-163.587567
 30
0.0
  0
LWPOLYLINE
  5
17c
100
AcDbEntity
  8
0
 62
7
100
AcDbPolyline
 90
32
 70
1
 10
213.928957
 20
-156.955419
 30
0.0
 10
213.989917
 20
-156.843659
 30
0.0
 10
214.068657
 20
-156.749679
 30
0.0
 10
214.165177
 20
-156.668399
 30
0.0
 10
214.274397
 20
-156.609979
 30
0.0
 10
214.396317
 20
-156.571879
 30
0.0
 10
214.528397
 20
-156.559179
 30
0.0
 10
214.660477
 20
-156.571879
 30
0.0
 10
214.782397
 20
-156.609979
 30
0.0
 10
214.891617
 20
-156.668399
 30
0.0
 10
214.988137
 20
-156.749679
 30
0.0
 10
215.066877
 20
-156.843659
 30
0.0
 10
215.127837
 20
-156.955419
 30
0.0
 10
215.165937
 20
-157.077339
 30
0.0
 10
215.178637
 20
-157.206879
 30
0.0
 10
215.165937
 20
-157.338959
 30
0.0
 10
215.127837
 20
-157.460879
 30
0.0
 10
215.066877
 20
-157.572639
 30
0.0
 10
214.988137
 20
-157.666619
 30
0.0
 10
214.891617
 20
-157.747899
 30
0.0
 10
214.782397
 20
-157.806319
 30
0.0
 10
214.660477
 20
-157.844419
 30
0.0
 10
214.528397
 20
-157.857119
 30
0.0
 10
214.396317
 20
-157.844419
 30
0.0
 10
214.274397
 20
-157.806319
 30
0.0
 10
214.165177
 20
-157.747899
 30
0.0
 10
214.068657
 20
-157.666619
 30
0.0
 10
213.989917
 20
-157.572639
 30
0.0
 10
213.928957
 20
-157.460879
 30
0.0
 10
213.890857
 20
-157.338959
 30
0.0
 10
213.878157
 20
-157.206879
 30
0.0
 10
213.890857
 20
-157.077339
 30
0.0
  0
LWPOLYLINE
  5
17d
100
AcDbEntity
  8
0
 62
7
100
AcDbPolyline
 90
1
 70
1
 10
205.075528
 20
-163.587567
 30
0.0
  0
SPLINE
  5
17e
100
AcDbEntity
  8
0
 62
7
100
AcDbSpline
 70
8
 71
3
 72
8
 73
4
 74
0
 40
0
 40
0
 40
0
 40
0
 40
1
 40
1
 40
1
 40
1
 10
203.816958
 20
-162.328751
 30
0.0
 10
203.789346
 20
-162.328751
 30
0.0
 10
203.766958
 20
-162.306368
 30
0.0
 10
203.766958
 20
-162.278753
 30
0.0
  0
SPLINE
  5
17f
100
AcDbEntity
  8
0
 62
7
100
AcDbSpline
 70
8
 71
3
 72
8
 73
4
 74
0
 40
0
 40
0
 40
0
 40
0
 40
1
 40
1
 40
1
 40
1
 10
203.766958
 20
-162.278753
 30
0.0
 10
203.766958
 20
-162.251136
 30
0.0
 10
203.789344
 20
-162.228754
 30
0.0
 10
203.816958
 20
-162.228754
 30
0.0
  0
SPLINE
  5
180
100
AcDbEntity
  8
0
 62
7
100
AcDbSpline
 70
8
 71
3
 72
8
 73
4
 74
0
 40
0
 40
0
 40
0
 40
0
 40
1
 40
1
 40
1
 40
1
 10
203.816958
 20
-162.228754
 30
0.0
 10
203.844573
 20
-162.228754
 30
0.0
 10
203.866958
 20
-162.251136
 30
0.0
 10
203.866958
 20
-162.278753
 30
0.0
  0
SPLINE
  5
181
100
AcDbEntity
  8
0
 62
7
100
AcDbSpline
 70
8
 71
3
 72
8
 73
4
 74
0
 40
0
 40
0
 40
0
 40
0
 40
1
 40
1
 40
1
 40
1
 10
203.866958
 20
-162.278753
 30
0.0
 10
203.866958
 20
-162.306368
 30
0.0
 10
203.844573
 20
-162.328751
 30
0.0
 10
203.816958
 20
-162.328751
 30
0.0
  0
LWPOLYLINE
  5
182
100
AcDbEntity
  8
0
 62
7
100
AcDbPolyline
 90
32
 70
1
 10
204.180440
 20
-162.167499
 30
0.0
 10
204.068680
 20
-162.225919
 30
0.0
 10
203.946760
 20
-162.264019
 30
0.0
 10
203.814680
 20
-162.276719
 30
0.0
 10
203.685140
 20
-162.264019
 30
0.0
 10
203.563220
 20
-162.225919
 30
0.0
 10
203.451460
 20
-162.167499
 30
0.0
 10
203.354940
 20
-162.086219
 30
0.0
 10
203.276200
 20
-161.989699
 30
0.0
 10
203.217780
 20
-161.880479
 30
0.0
 10
203.179680
 20
-161.758559
 30
0.0
 10
203.166980
 20
-161.626479
 30
0.0
 10
203.179680
 20
-161.496939
 30
0.0
 10
203.217780
 20
-161.375019
 30
0.0
 10
203.276200
 20
-161.263259
 30
0.0
 10
203.354940
 20
-161.166739
 30
0.0
 10
203.451460
 20
-161.087999
 30
0.0
 10
203.563220
 20
-161.029579
 30
0.0
 10
203.685140
 20
-160.991479
 30
0.0
 10
203.814680
 20
-160.976239
 30
0.0
 10
203.946760
 20
-160.991479
 30
0.0
 10
204.068680
 20
-161.029579
 30
0.0
 10
204.180440
 20
-161.087999
 30
0.0
 10
204.274420
 20
-161.166739
 30
0.0
 10
204.355700
 20
-161.263259
 30
0.0
 10
204.414120
 20
-161.375019
 30
0.0
 10
204.452220
 20
-161.496939
 30
0.0
 10
204.464920
 20
-161.626479
 30
0.0
 10
204.452220
 20
-161.758559
 30
0.0
 10
204.414120
 20
-161.880479
 30
0.0
 10
204.355700
 20
-161.989699
 30
0.0
 10
204.274420
 20
-162.086219
 30
0.0
  0
SPLINE
  5
183
100
AcDbEntity
  8
0
 62
7
100
AcDbSpline
 70
8
 71
3
 72
8
 73
4
 74
0
 40
0
 40
0
 40
0
 40
0
 40
1
 40
1
 40
1
 40
1
 10
200.040992
 20
-158.552782
 30
0.0
 10
200.013380
 20
-158.552782
 30
0.0
 10
199.990992
 20
-158.530399
 30
0.0
 10
199.990992
 20
-158.502784
 30
0.0
  0
SPLINE
  5
184
100
AcDbEntity
  8
0
 62
7
100
AcDbSpline
 70
8
 71
3
 72
8
 73
4
 74
0
 40
0
 40
0
 40
0
 40
0
 40
1
 40
1
 40
1
 40
1
 10
199.990992
 20
-158.502784
 30
0.0
 10
199.990992
 20
-158.475169
 30
0.0
 10
200.013374
 20
-158.452784
 30
0.0
 10
200.040992
 20
-158.452784
 30
0.0
  0
SPLINE
  5
185
100
AcDbEntity
  8
0
 62
7
100
AcDbSpline
 70
8
 71
3
 72
8
 73
4
 74
0
 40
0
 40
0
 40
0
 40
0
 40
1
 40
1
 40
1
 40
1
 10
200.040992
 20
-158.452784
 30
0.0
 10
200.068607
 20
-158.452784
 30
0.0
 10
200.090992
 20
-158.475167
 30
0.0
 10
200.090992
 20
-158.502784
 30
0.0
  0
SPLINE
  5
186
100
AcDbEntity
  8
0
 62
7
100
AcDbSpline
 70
8
 71
3
 72
8
 73
4
 74
0
 40
0
 40
0
 40
0
 40
0
 40
1
 40
1
 40
1
 40
1
 10
200.090992
 20
-158.502784
 30
0.0
 10
200.090992
 20
-158.530399
 30
0.0
 10
200.068607
 20
-158.552782
 30
0.0
 10
200.040992
 20
-158.552782
 30
0.0
  0
LWPOLYLINE
  5
187
100
AcDbEntity
  8
0
 62
7
100
AcDbPolyline
 90
1
 70
1
 10
203.816958
 20
-162.328751
 30
0.0
  0
SPLINE
  5
188
100
AcDbEntity
  8
0
 62
7
100
AcDbSpline
 70
8
 71
3
 72
8
 73
4
 74
0
 40
0
 40
0
 40
0
 40
0
 40
1
 40
1
 40
1
 40
1
 10
212.012268
 20
-155.392013
 30
0.0
 10
211.984656
 20
-155.392013
 30
0.0
 10
211.962268
 20
-155.369628
 30
0.0
 10
211.962268
 20
-155.342013
 30
0.0
  0
SPLINE
  5
189
100
AcDbEntity
  8
0
 62
7
100
AcDbSpline
 70
8
 71
3
 72
8
 73
4
 74
0
 40
0
 40
0
 40
0
 40
0
 40
1
 40
1
 40
1
 40
1
 10
211.962268
 20
-155.342013
 30
0.0
 10
211.962268
 20
-155.314396
 30
0.0
 10
211.984651
 20
-155.292014
 30
0.0
 10
212.012268
 20
-155.292014
 30
0.0
  0
SPLINE
  5
18a
100
AcDbEntity
  8
0
 62
7
100
AcDbSpline
 70
8
 71
3
 72
8
 73
4
 74
0
 40
0
 40
0
 40
0
 40
0
 40
1
 40
1
 40
1
 40
1
 10
212.012268
 20
-155.292014
 30
0.0
 10
212.039883
 20
-155.292014
 30
0.0
 10
212.062268
 20
-155.314396
 30
0.0
 10
212.062268
 20
-155.342013
 30
0.0
  0
SPLINE
  5
18b
100
AcDbEntity
  8
0
 62
7
100
AcDbSpline
 70
8
 71
3
 72
8
 73
4
 74
0
 40
0
 40
0
 40
0
 40
0
 40
1
 40
1
 40
1
 40
1
 10
212.062268
 20
-155.342013
 30
0.0
 10
212.062268
 20
-155.369628
 30
0.0
 10
212.039883
 20
-155.392013
 30
0.0
 10
212.012268
 20
-155.392013
 30
0.0
  0
LWPOLYLINE
  5
18c
100
AcDbEntity
  8
0
 62
7
100
AcDbPolyline
 90
1
 70
1
 10
200.040992
 20
-158.552782
 30
0.0
  0
SPLINE
  5
18d
100
AcDbEntity
  8
0
 62
7
100
AcDbSpline
 70
8
 71
3
 72
8
 73
4
 74
0
 40
0
 40
0
 40
0
 40
0
 40
1
 40
1
 40
1
 40
1
 10
213.270838
 20
-156.650827
 30
0.0
 10
213.243226
 20
-156.650827
 30
0.0
 10
213.220838
 20
-156.628445
 30
0.0
 10
213.220838
 20
-156.600830
 30
0.0
  0
SPLINE
  5
18e
100
AcDbEntity
  8
0
 62
7
100
AcDbSpline
 70
8
 71
3
 72
8
 73
4
 74
0
 40
0
 40
0
 40
0
 40
0
 40
1
 40
1
 40
1
 40
1
 10
213.220838
 20
-156.600830
 30
0.0
 10
213.220838
 20
-156.573215
 30
0.0
 10
213.243221
 20
-156.550830
 30
0.0
 10
213.270838
 20
-156.550830
 30
0.0
  0
SPLINE
  5
18f
100
AcDbEntity
  8
0
 62
7
100
AcDbSpline
 70
8
 71
3
 72
8
 73
4
 74
0
 40
0
 40
0
 40
0
 40
0
 40
1
 40
1
 40
1
 40
1
 10
213.270838
 20
-156.550830
 30
0.0
 10
213.298453
 20
-156.550830
 30
0.0
 10
213.320838
 20
-156.573212
 30
0.0
 10
213.320838
 20
-156.600830
 30
0.0
  0
SPLINE
  5
190
100
AcDbEntity
  8
0
 62
7
100
AcDbSpline
 70
8
 71
3
 72
8
 73
4
 74
0
 40
0
 40
0
 40
0
 40
0
 40
1
 40
1
 40
1
 40
1
 10
213.320838
 20
-156.600830
 30
0.0
 10
213.320838
 20
-156.628445
 30
0.0
 10
213.298453
 20
-156.650827
 30
0.0
 10
213.270838
 20
-156.650827
 30
0.0
  0
LWPOLYLINE
  5
191
100
AcDbEntity
  8
0
 62
7
100
AcDbPolyline
 90
1
 70
1
 10
212.012268
 20
-155.392013
 30
0.0
  0
SPLINE
  5
192
100
AcDbEntity
  8
0
 62
7
100
AcDbSpline
 70
8
 71
3
 72
8
 73
4
 74
0
 40
0
 40
0
 40
0
 40
0
 40
1
 40
1
 40
1
 40
1
 10
214.529667
 20
-157.909397
 30
0.0
 10
214.502055
 20
-157.909397
 30
0.0
 10
214.479668
 20
-157.887015
 30
0.0
 10
214.479668
 20
-157.859400
 30
0.0
  0
SPLINE
  5
193
100
AcDbEntity
  8
0
 62
7
100
AcDbSpline
 70
8
 71
3
 72
8
 73
4
 74
0
 40
0
 40
0
 40
0
 40
0
 40
1
 40
1
 40
1
 40
1
 10
214.479668
 20
-157.859400
 30
0.0
 10
214.479668
 20
-157.831785
 30
0.0
 10
214.502053
 20
-157.809400
 30
0.0
 10
214.529667
 20
-157.809400
 30
0.0
  0
SPLINE
  5
194
100
AcDbEntity
  8
0
 62
7
100
AcDbSpline
 70
8
 71
3
 72
8
 73
4
 74
0
 40
0
 40
0
 40
0
 40
0
 40
1
 40
1
 40
1
 40
1
 10
214.529667
 20
-157.809400
 30
0.0
 10
214.557282
 20
-157.809400
 30
0.0
 10
214.579667
 20
-157.831782
 30
0.0
 10
214.579667
 20
-157.859400
 30
0.0
  0
SPLINE
  5
195
100
AcDbEntity
  8
0
 62
7
100
AcDbSpline
 70
8
 71
3
 72
8
 73
4
 74
0
 40
0
 40
0
 40
0
 40
0
 40
1
 40
1
 40
1
 40
1
 10
214.579667
 20
-157.859400
 30
0.0
 10
214.579667
 20
-157.887015
 30
0.0
 10
214.557282
 20
-157.909397
 30
0.0
 10
214.529667
 20
-157.909397
 30
0.0
  0
LWPOLYLINE
  5
196
100
AcDbEntity
  8
0
 62
7
100
AcDbPolyline
 90
1
 70
1
 10
213.270838
 20
-156.650827
 30
0.0
  0
LWPOLYLINE
  5
197
100
AcDbEntity
  8
0
 62
7
100
AcDbPolyline
 90
1
 70
1
 10
214.529667
 20
-157.909397
 30
0.0
  0
LWPOLYLINE
  5
198
100
AcDbEntity
  8
0
 62
7
100
AcDbPolyline
 90
4
 70
1
 10
192.011300
 20
-155.977519
 30
0.0
 10
205.732377
 20
-142.256439
 30
0.0
 10
221.292417
 20
-157.816479
 30
0.0
 10
207.571337
 20
-171.537559
 30
0.0
  0
LWPOLYLINE
  5
199
100
AcDbEntity
  8
0
 62
7
100
AcDbPolyline
 90
64
 70
1
 10
223.459037
 20
-147.024019
 30
0.0
 10
223.403157
 20
-146.886859
 30
0.0
 10
223.362517
 20
-146.747159
 30
0.0
 10
223.337117
 20
-146.602379
 30
0.0
 10
223.324417
 20
-146.455059
 30
0.0
 10
223.327064
 20
-146.307739
 30
0.0
 10
223.344844
 20
-146.160419
 30
0.0
 10
223.375324
 20
-146.018179
 30
0.0
 10
223.421044
 20
-145.875939
 30
0.0
 10
223.479464
 20
-145.741319
 30
0.0
 10
223.550584
 20
-145.614319
 30
0.0
 10
223.634404
 20
-145.492399
 30
0.0
 10
223.728384
 20
-145.380639
 30
0.0
 10
223.835064
 20
-145.276499
 30
0.0
 10
223.949364
 20
-145.185059
 30
0.0
 10
224.073824
 20
-145.106319
 30
0.0
 10
224.205904
 20
-145.040279
 30
0.0
 10
224.343064
 20
-144.984399
 30
0.0
 10
224.482764
 20
-144.943759
 30
0.0
 10
224.627544
 20
-144.918359
 30
0.0
 10
224.774864
 20
-144.905659
 30
0.0
 10
224.922184
 20
-144.908306
 30
0.0
 10
225.069504
 20
-144.926086
 30
0.0
 10
225.211744
 20
-144.956566
 30
0.0
 10
225.353984
 20
-145.002286
 30
0.0
 10
225.488604
 20
-145.060706
 30
0.0
 10
225.615604
 20
-145.131826
 30
0.0
 10
225.737524
 20
-145.215646
 30
0.0
 10
225.849284
 20
-145.309626
 30
0.0
 10
225.950884
 20
-145.416306
 30
0.0
 10
226.044864
 20
-145.530606
 30
0.0
 10
226.123604
 20
-145.655066
 30
0.0
 10
226.189644
 20
-145.787146
 30
0.0
 10
226.245524
 20
-145.924306
 30
0.0
 10
226.286164
 20
-146.064006
 30
0.0
 10
226.311564
 20
-146.208786
 30
0.0
 10
226.324264
 20
-146.356106
 30
0.0
 10
226.321617
 20
-146.503426
 30
0.0
 10
226.303837
 20
-146.650746
 30
0.0
 10
226.273357
 20
-146.792986
 30
0.0
 10
226.227637
 20
-146.932686
 30
0.0
 10
226.169217
 20
-147.069846
 30
0.0
 10
226.098097
 20
-147.196846
 30
0.0
 10
226.014277
 20
-147.318766
 30
0.0
 10
225.920297
 20
-147.430526
 30
0.0
 10
225.813617
 20
-147.532126
 30
0.0
 10
225.696777
 20
-147.623566
 30
0.0
 10
225.574857
 20
-147.704846
 30
0.0
 10
225.442777
 20
-147.770886
 30
0.0
 10
225.305617
 20
-147.826766
 30
0.0
 10
225.165917
 20
-147.867406
 30
0.0
 10
225.021137
 20
-147.892806
 30
0.0
 10
224.873817
 20
-147.905506
 30
0.0
 10
224.726497
 20
-147.902859
 30
0.0
 10
224.579177
 20
-147.885079
 30
0.0
 10
224.436937
 20
-147.854599
 30
0.0
 10
224.294697
 20
-147.808879
 30
0.0
 10
224.160077
 20
-147.750459
 30
0.0
 10
224.033077
 20
-147.679339
 30
0.0
 10
223.911157
 20
-147.595519
 30
0.0
 10
223.799397
 20
-147.498999
 30
0.0
 10
223.695257
 20
-147.394859
 30
0.0
 10
223.603817
 20
-147.278019
 30
0.0
 10
223.525077
 20
-147.156099
 30
0.0
  0
LWPOLYLINE
  5
19a
100
AcDbEntity
  8
0
 62
7
100
AcDbPolyline
 90
8
 70
1
 10
397.449192
 20
-75.679851
 30
0.0
 10
397.453180
 20
-177.840371
 30
0.0
 10
281.700427
 20
-177.864475
 30
0.0
 10
225.581850
 20
-217.871835
 30
0.0
 10
186.681372
 20
-217.872628
 30
0.0
 10
131.320626
 20
-177.864465
 30
0.0
 10
25.167935
 20
-177.840371
 30
0.0
 10
25.163970
 20
-75.679851
 30
0.0
  0
LWPOLYLINE
  5
19b
100
AcDbEntity
  8
0
 62
7
100
AcDbPolyline
 90
8
 70
1
 10
399.056784
 20
-179.436598
 30
0.0
 10
399.052644
 20
-74.080525
 30
0.0
 10
23.564936
 20
-74.081556
 30
0.0
 10
23.564936
 20
-179.437452
 30
0.0
 10
130.558047
 20
-179.426357
 30
0.0
 10
186.688268
 20
-219.463369
 30
0.0
 10
226.340073
 20
-219.463369
 30
0.0
 10
282.469869
 20
-179.426357
 30
0.0
  0
LWPOLYLINE
  5
19c
100
AcDbEntity
  8
0
 62
7
100
AcDbPolyline
 90
8
 70
1
 10
397.063138
 20
-177.430562
 30
0.0
 10
397.059175
 20
-76.078306
 30
0.0
 10
25.558311
 20
-76.078306
 30
0.0
 10
25.562273
 20
-177.430562
 30
0.0
 10
131.320629
 20
-177.454664
 30
0.0
 10
186.681377
 20
-217.462829
 30
0.0
 10
225.581858
 20
-217.462026
 30
0.0
 10
281.700427
 20
-177.454664
 30
0.0
  0
LWPOLYLINE
  5
19d
100
AcDbEntity
  8
0
 62
7
100
AcDbPolyline
 90
17
 70
1
 10
223.611694
 20
-211.427741
 30
0.0
 10
205.939898
 20
-211.473207
 30
0.0
 10
189.440058
 20
-211.521213
 30
0.0
 10
134.211822
 20
-172.193367
 30
0.0
 10
133.868414
 20
-171.972387
 30
0.0
 10
133.448806
 20
-171.742263
 30
0.0
 10
132.883402
 20
-171.549223
 30
0.0
 10
132.102606
 20
-171.440003
 30
0.0
 10
31.556188
 20
-171.442322
 30
0.0
 10
31.568126
 20
-82.080042
 30
0.0
 10
391.060280
 20
-82.071675
 30
0.0
 10
391.047580
 20
-171.434209
 30
0.0
 10
281.309521
 20
-171.436789
 30
0.0
 10
280.649121
 20
-171.494447
 30
0.0
 10
280.082701
 20
-171.622209
 30
0.0
 10
279.559461
 20
-171.846491
 30
0.0
 10
279.028601
 20
-172.193455
 30
0.0
  0
ENDSEC
  0
SECTION
  2
OBJECTS
  0
DICTIONARY
  5
C
330
0
100
AcDbDictionary
  3
ACAD_GROUP
350
D
  3
ACAD_MLINESTYLE
350
17
  0
DICTIONARY
  5
D
330
C
100
AcDbDictionary
  0
DICTIONARY
  5
1A
330
C
100
AcDbDictionary
  0
DICTIONARY
  5
17
330
C
100
AcDbDictionary
  3
STANDARD
350
18
  0
DICTIONARY
  5
19
330
C
100
AcDbDictionary
  0
ENDSEC
  0
EOF
