  0
SECTION
  2
HEADER
  9
$ACADVER
  1
AC1014
  9
$HANDSEED
  5
FFFF
  9
$MEASUREMENT
 70
     1
  0
ENDSEC
  0
SECTION
  2
TABLES
  0
TABLE
  2
VPORT
  5
8
330
0
100
AcDbSymbolTable
 70
     4
  0
VPORT
  5
2E
330
8
100
AcDbSymbolTableRecord
100
AcDbViewportTableRecord
  2
*ACTIVE
 70
     0
 10
0.0
 20
0.0
 11
1.0
 21
1.0
 12
210.0
 22
148.5
 13
0.0
 23
0.0
 14
10.0
 24
10.0
 15
10.0
 25
10.0
 16
0.0
 26
0.0
 36
1.0
 17
0.0
 27
0.0
 37
0.0
 40
341.0
 41
1.24
 42
50.0
 43
0.0
 44
0.0
 50
0.0
 51
0.0
 71
     0
 72
   100
 73
     1
 74
     3
 75
     0
 76
     0
 77
     0
 78
     0
  0
ENDTAB
  0
TABLE
  2
LTYPE
  5
5
330
0
100
AcDbSymbolTable
 70
     1
  0
LTYPE
  5
14
330
5
100
AcDbSymbolTableRecord
100
AcDbLinetypeTableRecord
  2
BYBLOCK
 70
     0
  3

 72
    65
 73
     0
 40
0.0
  0
LTYPE
  5
15
330
5
100
AcDbSymbolTableRecord
100
AcDbLinetypeTableRecord
  2
BYLAYER
 70
     0
  3

 72
    65
 73
     0
 40
0.0
  0
LTYPE
  5
16
330
5
100
AcDbSymbolTableRecord
100
AcDbLinetypeTableRecord
  2
CONTINUOUS
 70
     0
  3
Solid line
 72
    65
 73
     0
 40
0.0
  0
ENDTAB
  0
TABLE
  2
LAYER
  5
2
100
AcDbSymbolTable
 70
1
  0
LAYER
  5
50
100
AcDbSymbolTableRecord
100
AcDbLayerTableRecord
  2
0
 70
0
  6
CONTINUOUS
  0
ENDTAB
  0
TABLE
  2
STYLE
  5
3
330
0
100
AcDbSymbolTable
 70
     1
  0
STYLE
  5
11
330
3
100
AcDbSymbolTableRecord
100
AcDbTextStyleTableRecord
  2
STANDARD
 70
     0
 40
0.0
 41
1.0
 50
0.0
 71
     0
 42
2.5
  3
txt
  4

  0
ENDTAB
  0
TABLE
  2
VIEW
  5
6
330
0
100
AcDbSymbolTable
 70
     0
  0
ENDTAB
  0
TABLE
  2
UCS
  5
7
330
0
100
AcDbSymbolTable
 70
     0
  0
ENDTAB
  0
TABLE
  2
APPID
  5
9
330
0
100
AcDbSymbolTable
 70
     2
  0
APPID
  5
12
330
9
100
AcDbSymbolTableRecord
100
AcDbRegAppTableRecord
  2
ACAD
 70
     0
  0
ENDTAB
  0
TABLE
  2
DIMSTYLE
  5
A
330
0
100
AcDbSymbolTable
 70
     1
  0
DIMSTYLE
105
27
330
A
100
AcDbSymbolTableRecord
100
AcDbDimStyleTableRecord
  2
ISO-25
 70
     0
  3

  4

  5

  6

  7

 40
1.0
 41
2.5
 42
0.625
 43
3.75
 44
1.25
 45
0.0
 46
0.0
 47
0.0
 48
0.0
140
2.5
141
2.5
142
0.0
143
0.03937007874016
144
1.0
145
0.0
146
1.0
147
0.625
 71
     0
 72
     0
 73
     0
 74
     0
 75
     0
 76
     0
 77
     1
 78
     8
170
     0
171
     3
172
     1
173
     0
174
     0
175
     0
176
     0
177
     0
178
     0
270
     2
271
     2
272
     2
273
     2
274
     3
340
11
275
     0
280
     0
281
     0
282
     0
283
     0
284
     8
285
     0
286
     0
287
     3
288
     0
  0
ENDTAB
  0
TABLE
  2
BLOCK_RECORD
  5
1
330
0
100
AcDbSymbolTable
 70
     1
  0
BLOCK_RECORD
  5
1F
330
1
100
AcDbSymbolTableRecord
100
AcDbBlockTableRecord
  2
*MODEL_SPACE
  0
BLOCK_RECORD
  5
1B
330
1
100
AcDbSymbolTableRecord
100
AcDbBlockTableRecord
  2
*PAPER_SPACE
  0
ENDTAB
  0
ENDSEC
  0
SECTION
  2
BLOCKS
  0
BLOCK
  5
20
330
1F
100
AcDbEntity
  8
0
100
AcDbBlockBegin
  2
*MODEL_SPACE
 70
     0
 10
0.0
 20
0.0
 30
0.0
  3
*MODEL_SPACE
  1

  0
ENDBLK
  5
21
330
1F
100
AcDbEntity
  8
0
100
AcDbBlockEnd
  0
BLOCK
  5
1C
330
1B
100
AcDbEntity
 67
     1
  8
0
100
AcDbBlockBegin
  2
*PAPER_SPACE
  1

  0
ENDBLK
  5
1D
330
1B
100
AcDbEntity
 67
     1
  8
0
100
AcDbBlockEnd
  0
ENDSEC
  0
SECTION
  2
ENTITIES
  0
LWPOLYLINE
  5
100
100
AcDbEntity
  8
0
 62
2
100
AcDbPolyline
 90
5
 70
0
 10
32.791403
 20
-171.113381
 30
0.0
 10
32.575503
 20
-171.047341
 30
0.0
 10
32.377383
 20
-170.940661
 30
0.0
 10
32.202123
 20
-170.795881
 30
0.0
 10
32.057343
 20
-170.620621
 30
0.0
  0
LWPOLYLINE
  5
101
100
AcDbEntity
  8
0
 62
2
100
AcDbPolyline
 90
3
 70
0
 10
31.950663
 20
-170.422501
 30
0.0
 10
31.887163
 20
-170.209141
 30
0.0
 10
31.864303
 20
-169.983081
 30
0.0
  0
LWPOLYLINE
  5
102
100
AcDbEntity
  8
0
 62
2
100
AcDbPolyline
 90
3
 70
0
 10
31.864303
 20
-83.521481
 30
0.0
 10
31.887163
 20
-83.295421
 30
0.0
 10
31.950663
 20
-83.079521
 30
0.0
  0
LWPOLYLINE
  5
103
100
AcDbEntity
  8
0
 62
2
100
AcDbPolyline
 90
2
 70
0
 10
32.057343
 20
-170.620621
 30
0.0
 10
31.950663
 20
-170.422501
 30
0.0
  0
LWPOLYLINE
  5
104
100
AcDbEntity
  8
0
 62
2
100
AcDbPolyline
 90
2
 70
0
 10
33.014923
 20
-171.133701
 30
0.0
 10
32.791403
 20
-171.113381
 30
0.0
  0
LWPOLYLINE
  5
105
100
AcDbEntity
  8
0
 62
2
100
AcDbPolyline
 90
2
 70
0
 10
31.950663
 20
-83.079521
 30
0.0
 10
32.057343
 20
-82.881401
 30
0.0
  0
LWPOLYLINE
  5
106
100
AcDbEntity
  8
0
 62
2
100
AcDbPolyline
 90
2
 70
0
 10
31.864303
 20
-169.983081
 30
0.0
 10
31.864303
 20
-83.521481
 30
0.0
  0
LWPOLYLINE
  5
107
100
AcDbEntity
  8
0
 62
2
100
AcDbPolyline
 90
4
 70
0
 10
32.057343
 20
-82.881401
 30
0.0
 10
32.202123
 20
-82.706141
 30
0.0
 10
32.377383
 20
-82.561361
 30
0.0
 10
32.575503
 20
-82.457221
 30
0.0
  0
LWPOLYLINE
  5
108
100
AcDbEntity
  8
0
 62
2
100
AcDbPolyline
 90
2
 70
0
 10
280.555700
 20
-171.141321
 30
0.0
 10
280.014680
 20
-171.268321
 30
0.0
  0
LWPOLYLINE
  5
109
100
AcDbEntity
  8
0
 62
2
100
AcDbPolyline
 90
2
 70
0
 10
281.111960
 20
-171.098141
 30
0.0
 10
280.555700
 20
-171.141321
 30
0.0
  0
LWPOLYLINE
  5
10a
100
AcDbEntity
  8
0
 62
2
100
AcDbPolyline
 90
2
 70
0
 10
280.014680
 20
-171.268321
 30
0.0
 10
279.501600
 20
-171.479141
 30
0.0
  0
LWPOLYLINE
  5
10b
100
AcDbEntity
  8
0
 62
2
100
AcDbPolyline
 90
2
 70
0
 10
390.552965
 20
-82.909341
 30
0.0
 10
390.659645
 20
-83.107461
 30
0.0
  0
LWPOLYLINE
  5
10c
100
AcDbEntity
  8
0
 62
2
100
AcDbPolyline
 90
2
 70
0
 10
390.748545
 20
-169.944981
 30
0.0
 10
390.725787
 20
-170.171041
 30
0.0
  0
LWPOLYLINE
  5
10d
100
AcDbEntity
  8
0
 62
2
100
AcDbPolyline
 90
2
 70
0
 10
390.725787
 20
-83.320821
 30
0.0
 10
390.748545
 20
-83.546881
 30
0.0
  0
LWPOLYLINE
  5
10e
100
AcDbEntity
  8
0
 62
2
100
AcDbPolyline
 90
2
 70
0
 10
133.179820
 20
-171.306421
 30
0.0
 10
132.359400
 20
-171.156561
 30
0.0
  0
LWPOLYLINE
  5
10f
100
AcDbEntity
  8
0
 62
2
100
AcDbPolyline
 90
2
 70
0
 10
389.821445
 20
-171.075281
 30
0.0
 10
389.595385
 20
-171.098141
 30
0.0
  0
LWPOLYLINE
  5
110
100
AcDbEntity
  8
0
 62
2
100
AcDbPolyline
 90
2
 70
0
 10
390.037345
 20
-82.482621
 30
0.0
 10
390.235465
 20
-82.589301
 30
0.0
  0
LWPOLYLINE
  5
111
100
AcDbEntity
  8
0
 62
2
100
AcDbPolyline
 90
2
 70
0
 10
132.359400
 20
-171.156561
 30
0.0
 10
33.014923
 20
-171.133701
 30
0.0
  0
LWPOLYLINE
  5
112
100
AcDbEntity
  8
0
 62
2
100
AcDbPolyline
 90
2
 70
0
 10
223.283777
 20
-210.965979
 30
0.0
 10
222.740217
 20
-211.090439
 30
0.0
  0
LWPOLYLINE
  5
113
100
AcDbEntity
  8
0
 62
2
100
AcDbPolyline
 90
2
 70
0
 10
390.659645
 20
-83.107461
 30
0.0
 10
390.725685
 20
-83.320821
 30
0.0
  0
LWPOLYLINE
  5
114
100
AcDbEntity
  8
0
 62
2
100
AcDbPolyline
 90
2
 70
0
 10
390.235465
 20
-170.905101
 30
0.0
 10
390.037345
 20
-171.009241
 30
0.0
  0
LWPOLYLINE
  5
115
100
AcDbEntity
  8
0
 62
2
100
AcDbPolyline
 90
2
 70
0
 10
389.595385
 20
-171.098141
 30
0.0
 10
281.111960
 20
-171.098141
 30
0.0
  0
LWPOLYLINE
  5
116
100
AcDbEntity
  8
0
 62
2
100
AcDbPolyline
 90
2
 70
0
 10
279.501600
 20
-171.479141
 30
0.0
 10
279.024080
 20
-171.766161
 30
0.0
  0
LWPOLYLINE
  5
117
100
AcDbEntity
  8
0
 62
2
100
AcDbPolyline
 90
2
 70
0
 10
223.804477
 20
-210.765319
 30
0.0
 10
223.283777
 20
-210.965979
 30
0.0
  0
LWPOLYLINE
  5
118
100
AcDbEntity
  8
0
 62
2
100
AcDbPolyline
 90
2
 70
0
 10
390.410725
 20
-170.760321
 30
0.0
 10
390.235465
 20
-170.905101
 30
0.0
  0
LWPOLYLINE
  5
119
100
AcDbEntity
  8
0
 62
2
100
AcDbPolyline
 90
2
 70
0
 10
32.575503
 20
-82.457221
 30
0.0
 10
32.791403
 20
-82.391181
 30
0.0
  0
LWPOLYLINE
  5
11a
100
AcDbEntity
  8
0
 62
2
100
AcDbPolyline
 90
2
 70
0
 10
279.024080
 20
-171.766161
 30
0.0
 10
224.292157
 20
-210.490999
 30
0.0
  0
LWPOLYLINE
  5
11b
100
AcDbEntity
  8
0
 62
2
100
AcDbPolyline
 90
2
 70
0
 10
189.702440
 20
-211.037099
 30
0.0
 10
189.186820
 20
-210.831359
 30
0.0
  0
LWPOLYLINE
  5
11c
100
AcDbEntity
  8
0
 62
2
100
AcDbPolyline
 90
3
 70
0
 10
134.172960
 20
-171.804261
 30
0.0
 10
133.692900
 20
-171.514701
 30
0.0
 10
133.179820
 20
-171.306421
 30
0.0
  0
LWPOLYLINE
  5
11d
100
AcDbEntity
  8
0
 62
2
100
AcDbPolyline
 90
2
 70
0
 10
224.292157
 20
-210.490999
 30
0.0
 10
223.804477
 20
-210.765319
 30
0.0
  0
LWPOLYLINE
  5
11e
100
AcDbEntity
  8
0
 62
2
100
AcDbPolyline
 90
2
 70
0
 10
189.186820
 20
-210.831359
 30
0.0
 10
188.704220
 20
-210.549419
 30
0.0
  0
LWPOLYLINE
  5
11f
100
AcDbEntity
  8
0
 62
2
100
AcDbPolyline
 90
2
 70
0
 10
389.821445
 20
-82.419121
 30
0.0
 10
390.037345
 20
-82.482621
 30
0.0
  0
LWPOLYLINE
  5
120
100
AcDbEntity
  8
0
 62
2
100
AcDbPolyline
 90
2
 70
0
 10
222.181417
 20
-211.131079
 30
0.0
 10
190.802260
 20
-211.202199
 30
0.0
  0
LWPOLYLINE
  5
121
100
AcDbEntity
  8
0
 62
2
100
AcDbPolyline
 90
2
 70
0
 10
32.791403
 20
-82.391181
 30
0.0
 10
33.014923
 20
-82.368321
 30
0.0
  0
LWPOLYLINE
  5
122
100
AcDbEntity
  8
0
 62
2
100
AcDbPolyline
 90
2
 70
0
 10
390.235465
 20
-82.589301
 30
0.0
 10
390.410725
 20
-82.734081
 30
0.0
  0
LWPOLYLINE
  5
123
100
AcDbEntity
  8
0
 62
2
100
AcDbPolyline
 90
2
 70
0
 10
188.704220
 20
-210.549419
 30
0.0
 10
134.172960
 20
-171.804261
 30
0.0
  0
LWPOLYLINE
  5
124
100
AcDbEntity
  8
0
 62
2
100
AcDbPolyline
 90
2
 70
0
 10
222.740217
 20
-211.090439
 30
0.0
 10
222.181417
 20
-211.131079
 30
0.0
  0
LWPOLYLINE
  5
125
100
AcDbEntity
  8
0
 62
2
100
AcDbPolyline
 90
2
 70
0
 10
390.410725
 20
-82.734081
 30
0.0
 10
390.552965
 20
-82.909341
 30
0.0
  0
LWPOLYLINE
  5
126
100
AcDbEntity
  8
0
 62
2
100
AcDbPolyline
 90
2
 70
0
 10
190.802260
 20
-211.202199
 30
0.0
 10
190.246000
 20
-211.161559
 30
0.0
  0
LWPOLYLINE
  5
127
100
AcDbEntity
  8
0
 62
2
100
AcDbPolyline
 90
2
 70
0
 10
389.595385
 20
-82.396261
 30
0.0
 10
389.821445
 20
-82.419121
 30
0.0
  0
LWPOLYLINE
  5
128
100
AcDbEntity
  8
0
 62
2
100
AcDbPolyline
 90
2
 70
0
 10
390.037345
 20
-171.009241
 30
0.0
 10
389.821445
 20
-171.075281
 30
0.0
  0
LWPOLYLINE
  5
129
100
AcDbEntity
  8
0
 62
2
100
AcDbPolyline
 90
2
 70
0
 10
190.246000
 20
-211.161559
 30
0.0
 10
189.702440
 20
-211.037099
 30
0.0
  0
LWPOLYLINE
  5
12a
100
AcDbEntity
  8
0
 62
2
100
AcDbPolyline
 90
3
 70
0
 10
390.725685
 20
-170.171041
 30
0.0
 10
390.659645
 20
-170.386941
 30
0.0
 10
390.552965
 20
-170.585061
 30
0.0
  0
LWPOLYLINE
  5
12b
100
AcDbEntity
  8
0
 62
2
100
AcDbPolyline
 90
2
 70
0
 10
33.014923
 20
-82.368321
 30
0.0
 10
201.411180
 20
-82.381517
 30
0.0
  0
LWPOLYLINE
  5
12c
100
AcDbEntity
  8
0
 62
2
100
AcDbPolyline
 90
2
 70
0
 10
212.052167
 20
-82.382337
 30
0.0
 10
389.595385
 20
-82.396249
 30
0.0
  0
LWPOLYLINE
  5
12d
100
AcDbEntity
  8
0
 62
2
100
AcDbPolyline
 90
2
 70
0
 10
390.748545
 20
-83.546869
 30
0.0
 10
390.748545
 20
-169.944966
 30
0.0
  0
LWPOLYLINE
  5
12e
100
AcDbEntity
  8
0
 62
2
100
AcDbPolyline
 90
2
 70
0
 10
390.552965
 20
-170.585046
 30
0.0
 10
390.410725
 20
-170.760306
 30
0.0
  0
LWPOLYLINE
  5
12f
100
AcDbEntity
  8
0
 62
2
100
AcDbPolyline
 90
2
 70
0
 10
201.409300
 20
-77.306696
 30
0.0
 10
212.049357
 20
-77.306696
 30
0.0
  0
LWPOLYLINE
  5
130
100
AcDbEntity
  8
0
 62
2
100
AcDbPolyline
 90
2
 70
0
 10
201.411180
 20
-82.381517
 30
0.0
 10
201.409300
 20
-77.306696
 30
0.0
  0
LWPOLYLINE
  5
131
100
AcDbEntity
  8
0
 62
2
100
AcDbPolyline
 90
2
 70
0
 10
212.052167
 20
-82.382350
 30
0.0
 10
212.049357
 20
-77.306696
 30
0.0
  0
ENDSEC
  0
SECTION
  2
OBJECTS
  0
DICTIONARY
  5
C
330
0
100
AcDbDictionary
  3
ACAD_GROUP
350
D
  3
ACAD_MLINESTYLE
350
17
  0
DICTIONARY
  5
D
330
C
100
AcDbDictionary
  0
DICTIONARY
  5
1A
330
C
100
AcDbDictionary
  0
DICTIONARY
  5
17
330
C
100
AcDbDictionary
  3
STANDARD
350
18
  0
DICTIONARY
  5
19
330
C
100
AcDbDictionary
  0
ENDSEC
  0
EOF
