<?xml version="1.0" encoding="UTF-8" standalone="no"?>
<svg
   xmlns:dc="http://purl.org/dc/elements/1.1/"
   xmlns:cc="http://creativecommons.org/ns#"
   xmlns:rdf="http://www.w3.org/1999/02/22-rdf-syntax-ns#"
   xmlns:svg="http://www.w3.org/2000/svg"
   xmlns="http://www.w3.org/2000/svg"
   xmlns:sodipodi="http://sodipodi.sourceforge.net/DTD/sodipodi-0.dtd"
   xmlns:inkscape="http://www.inkscape.org/namespaces/inkscape"
   inkscape:version="1.0 (4035a4fb49, 2020-05-01)"
   sodipodi:docname="hagoromo.svg"
   id="svg104"
   version="1.1"
   viewBox="0.000 0.000 365.284 147.744"
   height="147.744mm"
   width="365.284mm">
  <metadata
     id="metadata110">
    <rdf:RDF>
      <cc:Work
         rdf:about="">
        <dc:format>image/svg+xml</dc:format>
        <dc:type
           rdf:resource="http://purl.org/dc/dcmitype/StillImage" />
      </cc:Work>
    </rdf:RDF>
  </metadata>
  <defs
     id="defs108" />
  <sodipodi:namedview
     inkscape:current-layer="svg104"
     inkscape:window-maximized="0"
     inkscape:window-y="284"
     inkscape:window-x="1904"
     inkscape:cy="279.20127"
     inkscape:cx="690.30047"
     inkscape:zoom="1.0408511"
     showgrid="false"
     id="namedview106"
     inkscape:window-height="480"
     inkscape:window-width="846"
     inkscape:pageshadow="2"
     inkscape:pageopacity="0"
     guidetolerance="10"
     gridtolerance="10"
     objecttolerance="10"
     borderopacity="1"
     bordercolor="#666666"
     pagecolor="#ffffff" />
  <g
     id="g985">
    <polygon
       points="169.846,127.889 158.52,119.66 150.291,130.985 161.617,139.215 "
       style="fill:none;stroke:#000000;stroke-width:0.05mm"
       id="polygon4" />
    <polygon
       points="207.725,130.973 199.496,119.647 188.17,127.876 196.399,139.203 "
       style="fill:none;stroke:#000000;stroke-width:0.05mm"
       id="polygon6" />
    <polygon
       points="222.821,116.742 216.465,104.268 203.991,110.624 210.347,123.098 "
       style="fill:none;stroke:#000000;stroke-width:0.05mm"
       id="polygon8" />
    <polygon
       points="154.164,110.562 141.69,104.206 135.334,116.68 147.808,123.036 "
       style="fill:none;stroke:#000000;stroke-width:0.05mm"
       id="polygon10" />
    <polygon
       points="240.006,104.256 235.68,90.942 222.365,95.268 226.692,108.583 "
       style="fill:none;stroke:#000000;stroke-width:0.05mm"
       id="polygon12" />
    <polygon
       points="135.778,95.215 122.463,90.889 118.137,104.204 131.452,108.53 "
       style="fill:none;stroke:#000000;stroke-width:0.05mm"
       id="polygon14" />
    <polygon
       points="337.278,100.106 337.278,86.106 323.278,86.106 323.278,100.106 "
       style="fill:none;stroke:#000000;stroke-width:0.05mm"
       id="polygon16" />
    <polygon
       points="313.466,100.106 313.466,86.106 299.466,86.106 299.466,100.106 "
       style="fill:none;stroke:#000000;stroke-width:0.05mm"
       id="polygon18" />
    <polygon
       points="58.672,100.106 58.672,86.106 44.672,86.106 44.672,100.106 "
       style="fill:none;stroke:#000000;stroke-width:0.05mm"
       id="polygon20" />
    <polygon
       points="34.86,100.106 34.86,86.106 20.86,86.106 20.86,100.106 "
       style="fill:none;stroke:#000000;stroke-width:0.05mm"
       id="polygon22" />
    <polygon
       points="270.635,94.389 268.204,80.602 254.417,83.033 256.848,96.82 "
       style="fill:none;stroke:#000000;stroke-width:0.05mm"
       id="polygon24" />
    <polygon
       points="103.776,83.012 89.989,80.581 87.558,94.368 101.345,96.799 "
       style="fill:none;stroke:#000000;stroke-width:0.05mm"
       id="polygon26" />
    <polygon
       points="224.178,83.237 221.747,69.45 207.959,71.881 210.39,85.668 "
       style="fill:none;stroke:#000000;stroke-width:0.05mm"
       id="polygon28" />
    <polygon
       points="150.233,71.86 136.446,69.429 134.015,83.216 147.802,85.647 "
       style="fill:none;stroke:#000000;stroke-width:0.05mm"
       id="polygon30" />
    <polygon
       points="242.938,79.929 240.507,66.142 226.72,68.573 229.151,82.36 "
       style="fill:none;stroke:#000000;stroke-width:0.05mm"
       id="polygon32" />
    <polygon
       points="131.473,68.552 117.685,66.121 115.254,79.908 129.042,82.339 "
       style="fill:none;stroke:#000000;stroke-width:0.05mm"
       id="polygon34" />
    <polygon
       points="325.563,71.851 325.563,68.621 323.838,68.621 323.838,67.701 320.538,67.701 320.538,68.621 318.813,68.621 318.813,71.851 317.988,71.851 317.988,74.651 318.813,74.651 318.813,80.921 320.538,80.921 320.538,81.901 323.838,81.901 323.838,80.921 325.563,80.921 325.563,76.451 327.088,76.451 327.088,81.151 341.088,81.151 341.088,76.451 342.613,76.451 342.613,80.921 344.338,80.921 344.338,81.901 347.638,81.901 347.638,80.921 349.363,80.921 349.363,74.651 350.188,74.651 350.188,71.851 349.363,71.851 349.363,68.621 347.638,68.621 347.638,67.701 344.338,67.701 344.338,68.621 342.613,68.621 342.613,71.851 341.088,71.851 341.088,67.151 327.088,67.151 327.088,71.851 "
       style="fill:none;stroke:#000000;stroke-width:0.05mm"
       id="polygon36" />
    <polygon
       points="20.287,71.756 20.287,68.526 18.562,68.526 18.562,67.606 15.262,67.606 15.262,68.526 13.537,68.526 13.537,71.756 12.712,71.756 12.712,74.556 13.537,74.556 13.537,80.826 15.262,80.826 15.262,81.806 18.562,81.806 18.562,80.826 20.287,80.826 20.287,76.356 21.812,76.356 21.812,81.056 35.812,81.056 35.812,76.356 37.337,76.356 37.337,80.826 39.062,80.826 39.062,81.806 42.362,81.806 42.362,80.826 44.087,80.826 44.087,74.556 44.912,74.556 44.912,71.756 44.087,71.756 44.087,68.526 42.362,68.526 42.362,67.606 39.062,67.606 39.062,68.526 37.337,68.526 37.337,71.756 35.812,71.756 35.812,67.056 21.812,67.056 21.812,71.756 "
       style="fill:none;stroke:#000000;stroke-width:0.05mm"
       id="polygon38" />
    <polygon
       points="305.37,81.151 305.37,67.151 291.37,67.151 291.37,81.151 "
       style="fill:none;stroke:#000000;stroke-width:0.05mm"
       id="polygon40" />
    <polygon
       points="66.768,81.056 66.768,67.056 52.768,67.056 52.768,81.056 "
       style="fill:none;stroke:#000000;stroke-width:0.05mm"
       id="polygon42" />
    <polygon
       points="261.699,76.621 259.267,62.834 245.48,65.265 247.911,79.052 "
       style="fill:none;stroke:#000000;stroke-width:0.05mm"
       id="polygon44" />
    <polygon
       points="112.712,65.244 98.925,62.813 96.494,76.6 110.281,79.031 "
       style="fill:none;stroke:#000000;stroke-width:0.05mm"
       id="polygon46" />
    <polygon
       points="280.459,73.313 278.028,59.526 264.241,61.957 266.672,75.744 "
       style="fill:none;stroke:#000000;stroke-width:0.05mm"
       id="polygon48" />
    <polygon
       points="93.951,61.936 80.164,59.505 77.733,73.292 91.52,75.723 "
       style="fill:none;stroke:#000000;stroke-width:0.05mm"
       id="polygon50" />
    <polygon
       points="218.525,64.89 216.093,51.103 202.306,53.534 204.737,67.321 "
       style="fill:none;stroke:#000000;stroke-width:0.05mm"
       id="polygon52" />
    <polygon
       points="155.886,53.513 142.099,51.082 139.668,64.869 153.455,67.3 "
       style="fill:none;stroke:#000000;stroke-width:0.05mm"
       id="polygon54" />
    <polygon
       points="237.285,61.582 234.854,47.795 221.067,50.226 223.498,64.013 "
       style="fill:none;stroke:#000000;stroke-width:0.05mm"
       id="polygon56" />
    <polygon
       points="137.126,50.205 123.338,47.774 120.907,61.561 134.695,63.992 "
       style="fill:none;stroke:#000000;stroke-width:0.05mm"
       id="polygon58" />
    <polygon
       points="316.038,52.801 316.038,49.571 314.313,49.571 314.313,48.651 311.013,48.651 311.013,49.571 309.288,49.571 309.288,52.801 308.463,52.801 308.463,55.601 309.288,55.601 309.288,61.871 311.013,61.871 311.013,62.851 314.313,62.851 314.313,61.871 316.038,61.871 316.038,57.401 317.563,57.401 317.563,62.101 331.563,62.101 331.563,57.401 333.088,57.401 333.088,61.871 334.813,61.871 334.813,62.851 338.113,62.851 338.113,61.871 339.838,61.871 339.838,55.601 340.663,55.601 340.663,52.801 339.838,52.801 339.838,49.571 338.113,49.571 338.113,48.651 334.813,48.651 334.813,49.571 333.088,49.571 333.088,52.801 331.563,52.801 331.563,48.101 317.563,48.101 317.563,52.801 "
       style="fill:none;stroke:#000000;stroke-width:0.05mm"
       id="polygon60" />
    <polygon
       points="300.607,62.101 300.607,48.101 286.607,48.101 286.607,62.101 "
       style="fill:none;stroke:#000000;stroke-width:0.05mm"
       id="polygon62" />
    <polygon
       points="71.531,62.006 71.531,48.006 57.531,48.006 57.531,62.006 "
       style="fill:none;stroke:#000000;stroke-width:0.05mm"
       id="polygon64" />
    <polygon
       points="45.337,62.006 45.337,48.006 31.337,48.006 31.337,62.006 "
       style="fill:none;stroke:#000000;stroke-width:0.05mm"
       id="polygon66" />
    <polygon
       points="256.046,58.274 253.615,44.487 239.827,46.918 242.258,60.705 "
       style="fill:none;stroke:#000000;stroke-width:0.05mm"
       id="polygon68" />
    <polygon
       points="118.365,46.897 104.578,44.466 102.147,58.253 115.934,60.684 "
       style="fill:none;stroke:#000000;stroke-width:0.05mm"
       id="polygon70" />
    <polygon
       points="274.806,54.966 272.375,41.179 258.588,43.61 261.019,57.397 "
       style="fill:none;stroke:#000000;stroke-width:0.05mm"
       id="polygon72" />
    <polygon
       points="99.605,43.589 85.817,41.158 83.386,54.945 97.173,57.376 "
       style="fill:none;stroke:#000000;stroke-width:0.05mm"
       id="polygon74" />
    <polygon
       points="212.871,46.543 210.44,32.755 196.653,35.187 199.084,48.974 "
       style="fill:none;stroke:#000000;stroke-width:0.05mm"
       id="polygon76" />
    <polygon
       points="161.539,35.166 147.752,32.735 145.321,46.522 159.108,48.953 "
       style="fill:none;stroke:#000000;stroke-width:0.05mm"
       id="polygon78" />
    <polygon
       points="231.632,43.235 229.201,29.447 215.414,31.879 217.845,45.666 "
       style="fill:none;stroke:#000000;stroke-width:0.05mm"
       id="polygon80" />
    <polygon
       points="142.779,31.858 128.991,29.427 126.56,43.214 140.348,45.645 "
       style="fill:none;stroke:#000000;stroke-width:0.05mm"
       id="polygon82" />
    <polygon
       points="319.657,43.051 319.657,29.051 305.657,29.051 305.657,43.051 "
       style="fill:none;stroke:#000000;stroke-width:0.05mm"
       id="polygon84" />
    <polygon
       points="295.844,43.051 295.844,29.051 281.844,29.051 281.844,43.051 "
       style="fill:none;stroke:#000000;stroke-width:0.05mm"
       id="polygon86" />
    <polygon
       points="76.293,42.956 76.293,28.956 62.293,28.956 62.293,42.956 "
       style="fill:none;stroke:#000000;stroke-width:0.05mm"
       id="polygon88" />
    <polygon
       points="52.481,42.956 52.481,28.956 38.481,28.956 38.481,42.956 "
       style="fill:none;stroke:#000000;stroke-width:0.05mm"
       id="polygon90" />
    <polygon
       points="250.393,39.927 247.962,26.139 234.174,28.571 236.605,42.358 "
       style="fill:none;stroke:#000000;stroke-width:0.05mm"
       id="polygon92" />
    <polygon
       points="124.018,28.55 110.231,26.119 107.8,39.906 121.587,42.337 "
       style="fill:none;stroke:#000000;stroke-width:0.05mm"
       id="polygon94" />
    <polygon
       points="269.153,36.619 266.722,22.831 252.935,25.263 255.366,39.05 "
       style="fill:none;stroke:#000000;stroke-width:0.05mm"
       id="polygon96" />
    <polygon
       points="105.258,25.242 91.47,22.811 89.039,36.598 102.827,39.029 "
       style="fill:none;stroke:#000000;stroke-width:0.05mm"
       id="polygon98" />
    <polygon
       points="357.757,37.241 357.757,23.241 343.757,23.241 343.757,37.241 "
       style="fill:none;stroke:#000000;stroke-width:0.05mm"
       id="polygon100" />
    <polygon
       points="23.906,37.241 23.906,23.241 9.906,23.241 9.906,37.241 "
       style="fill:none;stroke:#000000;stroke-width:0.05mm"
       id="polygon102" />
  </g>
</svg>
