  0
SECTION
  2
HEADER
  9
$ACADVER
  1
AC1014
  9
$HANDSEED
  5
FFFF
  9
$MEASUREMENT
 70
     1
  0
ENDSEC
  0
SECTION
  2
TABLES
  0
TABLE
  2
VPORT
  5
8
330
0
100
AcDbSymbolTable
 70
     4
  0
VPORT
  5
2E
330
8
100
AcDbSymbolTableRecord
100
AcDbViewportTableRecord
  2
*ACTIVE
 70
     0
 10
0.0
 20
0.0
 11
1.0
 21
1.0
 12
210.0
 22
148.5
 13
0.0
 23
0.0
 14
10.0
 24
10.0
 15
10.0
 25
10.0
 16
0.0
 26
0.0
 36
1.0
 17
0.0
 27
0.0
 37
0.0
 40
341.0
 41
1.24
 42
50.0
 43
0.0
 44
0.0
 50
0.0
 51
0.0
 71
     0
 72
   100
 73
     1
 74
     3
 75
     0
 76
     0
 77
     0
 78
     0
  0
ENDTAB
  0
TABLE
  2
LTYPE
  5
5
330
0
100
AcDbSymbolTable
 70
     1
  0
LTYPE
  5
14
330
5
100
AcDbSymbolTableRecord
100
AcDbLinetypeTableRecord
  2
BYBLOCK
 70
     0
  3

 72
    65
 73
     0
 40
0.0
  0
LTYPE
  5
15
330
5
100
AcDbSymbolTableRecord
100
AcDbLinetypeTableRecord
  2
BYLAYER
 70
     0
  3

 72
    65
 73
     0
 40
0.0
  0
LTYPE
  5
16
330
5
100
AcDbSymbolTableRecord
100
AcDbLinetypeTableRecord
  2
CONTINUOUS
 70
     0
  3
Solid line
 72
    65
 73
     0
 40
0.0
  0
ENDTAB
  0
TABLE
  2
LAYER
  5
2
100
AcDbSymbolTable
 70
1
  0
LAYER
  5
50
100
AcDbSymbolTableRecord
100
AcDbLayerTableRecord
  2
0
 70
0
  6
CONTINUOUS
  0
ENDTAB
  0
TABLE
  2
STYLE
  5
3
330
0
100
AcDbSymbolTable
 70
     1
  0
STYLE
  5
11
330
3
100
AcDbSymbolTableRecord
100
AcDbTextStyleTableRecord
  2
STANDARD
 70
     0
 40
0.0
 41
1.0
 50
0.0
 71
     0
 42
2.5
  3
txt
  4

  0
ENDTAB
  0
TABLE
  2
VIEW
  5
6
330
0
100
AcDbSymbolTable
 70
     0
  0
ENDTAB
  0
TABLE
  2
UCS
  5
7
330
0
100
AcDbSymbolTable
 70
     0
  0
ENDTAB
  0
TABLE
  2
APPID
  5
9
330
0
100
AcDbSymbolTable
 70
     2
  0
APPID
  5
12
330
9
100
AcDbSymbolTableRecord
100
AcDbRegAppTableRecord
  2
ACAD
 70
     0
  0
ENDTAB
  0
TABLE
  2
DIMSTYLE
  5
A
330
0
100
AcDbSymbolTable
 70
     1
  0
DIMSTYLE
105
27
330
A
100
AcDbSymbolTableRecord
100
AcDbDimStyleTableRecord
  2
ISO-25
 70
     0
  3

  4

  5

  6

  7

 40
1.0
 41
2.5
 42
0.625
 43
3.75
 44
1.25
 45
0.0
 46
0.0
 47
0.0
 48
0.0
140
2.5
141
2.5
142
0.0
143
0.03937007874016
144
1.0
145
0.0
146
1.0
147
0.625
 71
     0
 72
     0
 73
     0
 74
     0
 75
     0
 76
     0
 77
     1
 78
     8
170
     0
171
     3
172
     1
173
     0
174
     0
175
     0
176
     0
177
     0
178
     0
270
     2
271
     2
272
     2
273
     2
274
     3
340
11
275
     0
280
     0
281
     0
282
     0
283
     0
284
     8
285
     0
286
     0
287
     3
288
     0
  0
ENDTAB
  0
TABLE
  2
BLOCK_RECORD
  5
1
330
0
100
AcDbSymbolTable
 70
     1
  0
BLOCK_RECORD
  5
1F
330
1
100
AcDbSymbolTableRecord
100
AcDbBlockTableRecord
  2
*MODEL_SPACE
  0
BLOCK_RECORD
  5
1B
330
1
100
AcDbSymbolTableRecord
100
AcDbBlockTableRecord
  2
*PAPER_SPACE
  0
ENDTAB
  0
ENDSEC
  0
SECTION
  2
BLOCKS
  0
BLOCK
  5
20
330
1F
100
AcDbEntity
  8
0
100
AcDbBlockBegin
  2
*MODEL_SPACE
 70
     0
 10
0.0
 20
0.0
 30
0.0
  3
*MODEL_SPACE
  1

  0
ENDBLK
  5
21
330
1F
100
AcDbEntity
  8
0
100
AcDbBlockEnd
  0
BLOCK
  5
1C
330
1B
100
AcDbEntity
 67
     1
  8
0
100
AcDbBlockBegin
  2
*PAPER_SPACE
  1

  0
ENDBLK
  5
1D
330
1B
100
AcDbEntity
 67
     1
  8
0
100
AcDbBlockEnd
  0
ENDSEC
  0
SECTION
  2
ENTITIES
  0
LWPOLYLINE
  5
100
100
AcDbEntity
  8
0
 62
7
100
AcDbPolyline
 90
4
 70
1
 10
23.906000
 20
110.503000
 30
0.0
 10
23.906000
 20
124.503000
 30
0.0
 10
9.906000
 20
124.503000
 30
0.0
 10
9.906000
 20
110.503000
 30
0.0
  0
LWPOLYLINE
  5
101
100
AcDbEntity
  8
0
 62
7
100
AcDbPolyline
 90
4
 70
1
 10
357.757000
 20
110.503000
 30
0.0
 10
357.757000
 20
124.503000
 30
0.0
 10
343.757000
 20
124.503000
 30
0.0
 10
343.757000
 20
110.503000
 30
0.0
  0
LWPOLYLINE
  5
102
100
AcDbEntity
  8
0
 62
7
100
AcDbPolyline
 90
4
 70
1
 10
105.258000
 20
122.502000
 30
0.0
 10
91.470000
 20
124.933000
 30
0.0
 10
89.039000
 20
111.146000
 30
0.0
 10
102.827000
 20
108.715000
 30
0.0
  0
LWPOLYLINE
  5
103
100
AcDbEntity
  8
0
 62
7
100
AcDbPolyline
 90
4
 70
1
 10
269.153000
 20
111.125000
 30
0.0
 10
266.722000
 20
124.913000
 30
0.0
 10
252.935000
 20
122.481000
 30
0.0
 10
255.366000
 20
108.694000
 30
0.0
  0
LWPOLYLINE
  5
104
100
AcDbEntity
  8
0
 62
7
100
AcDbPolyline
 90
4
 70
1
 10
124.018000
 20
119.194000
 30
0.0
 10
110.231000
 20
121.625000
 30
0.0
 10
107.800000
 20
107.838000
 30
0.0
 10
121.587000
 20
105.407000
 30
0.0
  0
LWPOLYLINE
  5
105
100
AcDbEntity
  8
0
 62
7
100
AcDbPolyline
 90
4
 70
1
 10
250.393000
 20
107.817000
 30
0.0
 10
247.962000
 20
121.605000
 30
0.0
 10
234.174000
 20
119.173000
 30
0.0
 10
236.605000
 20
105.386000
 30
0.0
  0
LWPOLYLINE
  5
106
100
AcDbEntity
  8
0
 62
7
100
AcDbPolyline
 90
4
 70
1
 10
52.481000
 20
104.788000
 30
0.0
 10
52.481000
 20
118.788000
 30
0.0
 10
38.481000
 20
118.788000
 30
0.0
 10
38.481000
 20
104.788000
 30
0.0
  0
LWPOLYLINE
  5
107
100
AcDbEntity
  8
0
 62
7
100
AcDbPolyline
 90
4
 70
1
 10
76.293000
 20
104.788000
 30
0.0
 10
76.293000
 20
118.788000
 30
0.0
 10
62.293000
 20
118.788000
 30
0.0
 10
62.293000
 20
104.788000
 30
0.0
  0
LWPOLYLINE
  5
108
100
AcDbEntity
  8
0
 62
7
100
AcDbPolyline
 90
4
 70
1
 10
295.844000
 20
104.693000
 30
0.0
 10
295.844000
 20
118.693000
 30
0.0
 10
281.844000
 20
118.693000
 30
0.0
 10
281.844000
 20
104.693000
 30
0.0
  0
LWPOLYLINE
  5
109
100
AcDbEntity
  8
0
 62
7
100
AcDbPolyline
 90
4
 70
1
 10
319.657000
 20
104.693000
 30
0.0
 10
319.657000
 20
118.693000
 30
0.0
 10
305.657000
 20
118.693000
 30
0.0
 10
305.657000
 20
104.693000
 30
0.0
  0
LWPOLYLINE
  5
10a
100
AcDbEntity
  8
0
 62
7
100
AcDbPolyline
 90
4
 70
1
 10
142.779000
 20
115.886000
 30
0.0
 10
128.991000
 20
118.317000
 30
0.0
 10
126.560000
 20
104.530000
 30
0.0
 10
140.348000
 20
102.099000
 30
0.0
  0
LWPOLYLINE
  5
10b
100
AcDbEntity
  8
0
 62
7
100
AcDbPolyline
 90
4
 70
1
 10
231.632000
 20
104.509000
 30
0.0
 10
229.201000
 20
118.297000
 30
0.0
 10
215.414000
 20
115.865000
 30
0.0
 10
217.845000
 20
102.078000
 30
0.0
  0
LWPOLYLINE
  5
10c
100
AcDbEntity
  8
0
 62
7
100
AcDbPolyline
 90
4
 70
1
 10
161.539000
 20
112.578000
 30
0.0
 10
147.752000
 20
115.009000
 30
0.0
 10
145.321000
 20
101.222000
 30
0.0
 10
159.108000
 20
98.791000
 30
0.0
  0
LWPOLYLINE
  5
10d
100
AcDbEntity
  8
0
 62
7
100
AcDbPolyline
 90
4
 70
1
 10
212.871000
 20
101.201000
 30
0.0
 10
210.440000
 20
114.989000
 30
0.0
 10
196.653000
 20
112.557000
 30
0.0
 10
199.084000
 20
98.770000
 30
0.0
  0
LWPOLYLINE
  5
10e
100
AcDbEntity
  8
0
 62
7
100
AcDbPolyline
 90
4
 70
1
 10
99.605000
 20
104.155000
 30
0.0
 10
85.817000
 20
106.586000
 30
0.0
 10
83.386000
 20
92.799000
 30
0.0
 10
97.173000
 20
90.368000
 30
0.0
  0
LWPOLYLINE
  5
10f
100
AcDbEntity
  8
0
 62
7
100
AcDbPolyline
 90
4
 70
1
 10
274.806000
 20
92.778000
 30
0.0
 10
272.375000
 20
106.565000
 30
0.0
 10
258.588000
 20
104.134000
 30
0.0
 10
261.019000
 20
90.347000
 30
0.0
  0
LWPOLYLINE
  5
110
100
AcDbEntity
  8
0
 62
7
100
AcDbPolyline
 90
4
 70
1
 10
118.365000
 20
100.847000
 30
0.0
 10
104.578000
 20
103.278000
 30
0.0
 10
102.147000
 20
89.491000
 30
0.0
 10
115.934000
 20
87.060000
 30
0.0
  0
LWPOLYLINE
  5
111
100
AcDbEntity
  8
0
 62
7
100
AcDbPolyline
 90
4
 70
1
 10
256.046000
 20
89.470000
 30
0.0
 10
253.615000
 20
103.257000
 30
0.0
 10
239.827000
 20
100.826000
 30
0.0
 10
242.258000
 20
87.039000
 30
0.0
  0
LWPOLYLINE
  5
112
100
AcDbEntity
  8
0
 62
7
100
AcDbPolyline
 90
4
 70
1
 10
45.337000
 20
85.738000
 30
0.0
 10
45.337000
 20
99.738000
 30
0.0
 10
31.337000
 20
99.738000
 30
0.0
 10
31.337000
 20
85.738000
 30
0.0
  0
LWPOLYLINE
  5
113
100
AcDbEntity
  8
0
 62
7
100
AcDbPolyline
 90
4
 70
1
 10
71.531000
 20
85.738000
 30
0.0
 10
71.531000
 20
99.738000
 30
0.0
 10
57.531000
 20
99.738000
 30
0.0
 10
57.531000
 20
85.738000
 30
0.0
  0
LWPOLYLINE
  5
114
100
AcDbEntity
  8
0
 62
7
100
AcDbPolyline
 90
4
 70
1
 10
300.607000
 20
85.643000
 30
0.0
 10
300.607000
 20
99.643000
 30
0.0
 10
286.607000
 20
99.643000
 30
0.0
 10
286.607000
 20
85.643000
 30
0.0
  0
LWPOLYLINE
  5
115
100
AcDbEntity
  8
0
 62
7
100
AcDbPolyline
 90
44
 70
1
 10
311.013000
 20
99.093000
 30
0.0
 10
311.013000
 20
98.173000
 30
0.0
 10
309.288000
 20
98.173000
 30
0.0
 10
309.288000
 20
94.943000
 30
0.0
 10
308.463000
 20
94.943000
 30
0.0
 10
308.463000
 20
92.143000
 30
0.0
 10
309.288000
 20
92.143000
 30
0.0
 10
309.288000
 20
85.873000
 30
0.0
 10
311.013000
 20
85.873000
 30
0.0
 10
311.013000
 20
84.893000
 30
0.0
 10
314.313000
 20
84.893000
 30
0.0
 10
314.313000
 20
85.873000
 30
0.0
 10
316.038000
 20
85.873000
 30
0.0
 10
316.038000
 20
90.343000
 30
0.0
 10
317.563000
 20
90.343000
 30
0.0
 10
317.563000
 20
85.643000
 30
0.0
 10
331.563000
 20
85.643000
 30
0.0
 10
331.563000
 20
90.343000
 30
0.0
 10
333.088000
 20
90.343000
 30
0.0
 10
333.088000
 20
85.873000
 30
0.0
 10
334.813000
 20
85.873000
 30
0.0
 10
334.813000
 20
84.893000
 30
0.0
 10
338.113000
 20
84.893000
 30
0.0
 10
338.113000
 20
85.873000
 30
0.0
 10
339.838000
 20
85.873000
 30
0.0
 10
339.838000
 20
92.143000
 30
0.0
 10
340.663000
 20
92.143000
 30
0.0
 10
340.663000
 20
94.943000
 30
0.0
 10
339.838000
 20
94.943000
 30
0.0
 10
339.838000
 20
98.173000
 30
0.0
 10
338.113000
 20
98.173000
 30
0.0
 10
338.113000
 20
99.093000
 30
0.0
 10
334.813000
 20
99.093000
 30
0.0
 10
334.813000
 20
98.173000
 30
0.0
 10
333.088000
 20
98.173000
 30
0.0
 10
333.088000
 20
94.943000
 30
0.0
 10
331.563000
 20
94.943000
 30
0.0
 10
331.563000
 20
99.643000
 30
0.0
 10
317.563000
 20
99.643000
 30
0.0
 10
317.563000
 20
94.943000
 30
0.0
 10
316.038000
 20
94.943000
 30
0.0
 10
316.038000
 20
98.173000
 30
0.0
 10
314.313000
 20
98.173000
 30
0.0
 10
314.313000
 20
99.093000
 30
0.0
  0
LWPOLYLINE
  5
116
100
AcDbEntity
  8
0
 62
7
100
AcDbPolyline
 90
4
 70
1
 10
137.126000
 20
97.539000
 30
0.0
 10
123.338000
 20
99.970000
 30
0.0
 10
120.907000
 20
86.183000
 30
0.0
 10
134.695000
 20
83.752000
 30
0.0
  0
LWPOLYLINE
  5
117
100
AcDbEntity
  8
0
 62
7
100
AcDbPolyline
 90
4
 70
1
 10
237.285000
 20
86.162000
 30
0.0
 10
234.854000
 20
99.949000
 30
0.0
 10
221.067000
 20
97.518000
 30
0.0
 10
223.498000
 20
83.731000
 30
0.0
  0
LWPOLYLINE
  5
118
100
AcDbEntity
  8
0
 62
7
100
AcDbPolyline
 90
4
 70
1
 10
155.886000
 20
94.231000
 30
0.0
 10
142.099000
 20
96.662000
 30
0.0
 10
139.668000
 20
82.875000
 30
0.0
 10
153.455000
 20
80.444000
 30
0.0
  0
LWPOLYLINE
  5
119
100
AcDbEntity
  8
0
 62
7
100
AcDbPolyline
 90
4
 70
1
 10
218.525000
 20
82.854000
 30
0.0
 10
216.093000
 20
96.641000
 30
0.0
 10
202.306000
 20
94.210000
 30
0.0
 10
204.737000
 20
80.423000
 30
0.0
  0
LWPOLYLINE
  5
11a
100
AcDbEntity
  8
0
 62
7
100
AcDbPolyline
 90
4
 70
1
 10
93.951000
 20
85.808000
 30
0.0
 10
80.164000
 20
88.239000
 30
0.0
 10
77.733000
 20
74.452000
 30
0.0
 10
91.520000
 20
72.021000
 30
0.0
  0
LWPOLYLINE
  5
11b
100
AcDbEntity
  8
0
 62
7
100
AcDbPolyline
 90
4
 70
1
 10
280.459000
 20
74.431000
 30
0.0
 10
278.028000
 20
88.218000
 30
0.0
 10
264.241000
 20
85.787000
 30
0.0
 10
266.672000
 20
72.000000
 30
0.0
  0
LWPOLYLINE
  5
11c
100
AcDbEntity
  8
0
 62
7
100
AcDbPolyline
 90
4
 70
1
 10
112.712000
 20
82.500000
 30
0.0
 10
98.925000
 20
84.931000
 30
0.0
 10
96.494000
 20
71.144000
 30
0.0
 10
110.281000
 20
68.713000
 30
0.0
  0
LWPOLYLINE
  5
11d
100
AcDbEntity
  8
0
 62
7
100
AcDbPolyline
 90
4
 70
1
 10
261.699000
 20
71.123000
 30
0.0
 10
259.267000
 20
84.910000
 30
0.0
 10
245.480000
 20
82.479000
 30
0.0
 10
247.911000
 20
68.692000
 30
0.0
  0
LWPOLYLINE
  5
11e
100
AcDbEntity
  8
0
 62
7
100
AcDbPolyline
 90
4
 70
1
 10
66.768000
 20
66.688000
 30
0.0
 10
66.768000
 20
80.688000
 30
0.0
 10
52.768000
 20
80.688000
 30
0.0
 10
52.768000
 20
66.688000
 30
0.0
  0
LWPOLYLINE
  5
11f
100
AcDbEntity
  8
0
 62
7
100
AcDbPolyline
 90
4
 70
1
 10
305.370000
 20
66.593000
 30
0.0
 10
305.370000
 20
80.593000
 30
0.0
 10
291.370000
 20
80.593000
 30
0.0
 10
291.370000
 20
66.593000
 30
0.0
  0
LWPOLYLINE
  5
120
100
AcDbEntity
  8
0
 62
7
100
AcDbPolyline
 90
44
 70
1
 10
15.262000
 20
80.138000
 30
0.0
 10
15.262000
 20
79.218000
 30
0.0
 10
13.537000
 20
79.218000
 30
0.0
 10
13.537000
 20
75.988000
 30
0.0
 10
12.712000
 20
75.988000
 30
0.0
 10
12.712000
 20
73.188000
 30
0.0
 10
13.537000
 20
73.188000
 30
0.0
 10
13.537000
 20
66.918000
 30
0.0
 10
15.262000
 20
66.918000
 30
0.0
 10
15.262000
 20
65.938000
 30
0.0
 10
18.562000
 20
65.938000
 30
0.0
 10
18.562000
 20
66.918000
 30
0.0
 10
20.287000
 20
66.918000
 30
0.0
 10
20.287000
 20
71.388000
 30
0.0
 10
21.812000
 20
71.388000
 30
0.0
 10
21.812000
 20
66.688000
 30
0.0
 10
35.812000
 20
66.688000
 30
0.0
 10
35.812000
 20
71.388000
 30
0.0
 10
37.337000
 20
71.388000
 30
0.0
 10
37.337000
 20
66.918000
 30
0.0
 10
39.062000
 20
66.918000
 30
0.0
 10
39.062000
 20
65.938000
 30
0.0
 10
42.362000
 20
65.938000
 30
0.0
 10
42.362000
 20
66.918000
 30
0.0
 10
44.087000
 20
66.918000
 30
0.0
 10
44.087000
 20
73.188000
 30
0.0
 10
44.912000
 20
73.188000
 30
0.0
 10
44.912000
 20
75.988000
 30
0.0
 10
44.087000
 20
75.988000
 30
0.0
 10
44.087000
 20
79.218000
 30
0.0
 10
42.362000
 20
79.218000
 30
0.0
 10
42.362000
 20
80.138000
 30
0.0
 10
39.062000
 20
80.138000
 30
0.0
 10
39.062000
 20
79.218000
 30
0.0
 10
37.337000
 20
79.218000
 30
0.0
 10
37.337000
 20
75.988000
 30
0.0
 10
35.812000
 20
75.988000
 30
0.0
 10
35.812000
 20
80.688000
 30
0.0
 10
21.812000
 20
80.688000
 30
0.0
 10
21.812000
 20
75.988000
 30
0.0
 10
20.287000
 20
75.988000
 30
0.0
 10
20.287000
 20
79.218000
 30
0.0
 10
18.562000
 20
79.218000
 30
0.0
 10
18.562000
 20
80.138000
 30
0.0
  0
LWPOLYLINE
  5
121
100
AcDbEntity
  8
0
 62
7
100
AcDbPolyline
 90
44
 70
1
 10
320.538000
 20
80.043000
 30
0.0
 10
320.538000
 20
79.123000
 30
0.0
 10
318.813000
 20
79.123000
 30
0.0
 10
318.813000
 20
75.893000
 30
0.0
 10
317.988000
 20
75.893000
 30
0.0
 10
317.988000
 20
73.093000
 30
0.0
 10
318.813000
 20
73.093000
 30
0.0
 10
318.813000
 20
66.823000
 30
0.0
 10
320.538000
 20
66.823000
 30
0.0
 10
320.538000
 20
65.843000
 30
0.0
 10
323.838000
 20
65.843000
 30
0.0
 10
323.838000
 20
66.823000
 30
0.0
 10
325.563000
 20
66.823000
 30
0.0
 10
325.563000
 20
71.293000
 30
0.0
 10
327.088000
 20
71.293000
 30
0.0
 10
327.088000
 20
66.593000
 30
0.0
 10
341.088000
 20
66.593000
 30
0.0
 10
341.088000
 20
71.293000
 30
0.0
 10
342.613000
 20
71.293000
 30
0.0
 10
342.613000
 20
66.823000
 30
0.0
 10
344.338000
 20
66.823000
 30
0.0
 10
344.338000
 20
65.843000
 30
0.0
 10
347.638000
 20
65.843000
 30
0.0
 10
347.638000
 20
66.823000
 30
0.0
 10
349.363000
 20
66.823000
 30
0.0
 10
349.363000
 20
73.093000
 30
0.0
 10
350.188000
 20
73.093000
 30
0.0
 10
350.188000
 20
75.893000
 30
0.0
 10
349.363000
 20
75.893000
 30
0.0
 10
349.363000
 20
79.123000
 30
0.0
 10
347.638000
 20
79.123000
 30
0.0
 10
347.638000
 20
80.043000
 30
0.0
 10
344.338000
 20
80.043000
 30
0.0
 10
344.338000
 20
79.123000
 30
0.0
 10
342.613000
 20
79.123000
 30
0.0
 10
342.613000
 20
75.893000
 30
0.0
 10
341.088000
 20
75.893000
 30
0.0
 10
341.088000
 20
80.593000
 30
0.0
 10
327.088000
 20
80.593000
 30
0.0
 10
327.088000
 20
75.893000
 30
0.0
 10
325.563000
 20
75.893000
 30
0.0
 10
325.563000
 20
79.123000
 30
0.0
 10
323.838000
 20
79.123000
 30
0.0
 10
323.838000
 20
80.043000
 30
0.0
  0
LWPOLYLINE
  5
122
100
AcDbEntity
  8
0
 62
7
100
AcDbPolyline
 90
4
 70
1
 10
131.473000
 20
79.192000
 30
0.0
 10
117.685000
 20
81.623000
 30
0.0
 10
115.254000
 20
67.836000
 30
0.0
 10
129.042000
 20
65.405000
 30
0.0
  0
LWPOLYLINE
  5
123
100
AcDbEntity
  8
0
 62
7
100
AcDbPolyline
 90
4
 70
1
 10
242.938000
 20
67.815000
 30
0.0
 10
240.507000
 20
81.602000
 30
0.0
 10
226.720000
 20
79.171000
 30
0.0
 10
229.151000
 20
65.384000
 30
0.0
  0
LWPOLYLINE
  5
124
100
AcDbEntity
  8
0
 62
7
100
AcDbPolyline
 90
4
 70
1
 10
150.233000
 20
75.884000
 30
0.0
 10
136.446000
 20
78.315000
 30
0.0
 10
134.015000
 20
64.528000
 30
0.0
 10
147.802000
 20
62.097000
 30
0.0
  0
LWPOLYLINE
  5
125
100
AcDbEntity
  8
0
 62
7
100
AcDbPolyline
 90
4
 70
1
 10
224.178000
 20
64.507000
 30
0.0
 10
221.747000
 20
78.294000
 30
0.0
 10
207.959000
 20
75.863000
 30
0.0
 10
210.390000
 20
62.076000
 30
0.0
  0
LWPOLYLINE
  5
126
100
AcDbEntity
  8
0
 62
7
100
AcDbPolyline
 90
4
 70
1
 10
103.776000
 20
64.732000
 30
0.0
 10
89.989000
 20
67.163000
 30
0.0
 10
87.558000
 20
53.376000
 30
0.0
 10
101.345000
 20
50.945000
 30
0.0
  0
LWPOLYLINE
  5
127
100
AcDbEntity
  8
0
 62
7
100
AcDbPolyline
 90
4
 70
1
 10
270.635000
 20
53.355000
 30
0.0
 10
268.204000
 20
67.142000
 30
0.0
 10
254.417000
 20
64.711000
 30
0.0
 10
256.848000
 20
50.924000
 30
0.0
  0
LWPOLYLINE
  5
128
100
AcDbEntity
  8
0
 62
7
100
AcDbPolyline
 90
4
 70
1
 10
34.860000
 20
47.638000
 30
0.0
 10
34.860000
 20
61.638000
 30
0.0
 10
20.860000
 20
61.638000
 30
0.0
 10
20.860000
 20
47.638000
 30
0.0
  0
LWPOLYLINE
  5
129
100
AcDbEntity
  8
0
 62
7
100
AcDbPolyline
 90
4
 70
1
 10
58.672000
 20
47.638000
 30
0.0
 10
58.672000
 20
61.638000
 30
0.0
 10
44.672000
 20
61.638000
 30
0.0
 10
44.672000
 20
47.638000
 30
0.0
  0
LWPOLYLINE
  5
12a
100
AcDbEntity
  8
0
 62
7
100
AcDbPolyline
 90
4
 70
1
 10
313.466000
 20
47.638000
 30
0.0
 10
313.466000
 20
61.638000
 30
0.0
 10
299.466000
 20
61.638000
 30
0.0
 10
299.466000
 20
47.638000
 30
0.0
  0
LWPOLYLINE
  5
12b
100
AcDbEntity
  8
0
 62
7
100
AcDbPolyline
 90
4
 70
1
 10
337.278000
 20
47.638000
 30
0.0
 10
337.278000
 20
61.638000
 30
0.0
 10
323.278000
 20
61.638000
 30
0.0
 10
323.278000
 20
47.638000
 30
0.0
  0
LWPOLYLINE
  5
12c
100
AcDbEntity
  8
0
 62
7
100
AcDbPolyline
 90
4
 70
1
 10
135.778000
 20
52.529000
 30
0.0
 10
122.463000
 20
56.855000
 30
0.0
 10
118.137000
 20
43.540000
 30
0.0
 10
131.452000
 20
39.214000
 30
0.0
  0
LWPOLYLINE
  5
12d
100
AcDbEntity
  8
0
 62
7
100
AcDbPolyline
 90
4
 70
1
 10
240.006000
 20
43.488000
 30
0.0
 10
235.680000
 20
56.802000
 30
0.0
 10
222.365000
 20
52.476000
 30
0.0
 10
226.692000
 20
39.161000
 30
0.0
  0
LWPOLYLINE
  5
12e
100
AcDbEntity
  8
0
 62
7
100
AcDbPolyline
 90
4
 70
1
 10
154.164000
 20
37.182000
 30
0.0
 10
141.690000
 20
43.538000
 30
0.0
 10
135.334000
 20
31.064000
 30
0.0
 10
147.808000
 20
24.708000
 30
0.0
  0
LWPOLYLINE
  5
12f
100
AcDbEntity
  8
0
 62
7
100
AcDbPolyline
 90
4
 70
1
 10
222.821000
 20
31.002000
 30
0.0
 10
216.465000
 20
43.476000
 30
0.0
 10
203.991000
 20
37.120000
 30
0.0
 10
210.347000
 20
24.646000
 30
0.0
  0
LWPOLYLINE
  5
130
100
AcDbEntity
  8
0
 62
7
100
AcDbPolyline
 90
4
 70
1
 10
207.725000
 20
16.771000
 30
0.0
 10
199.496000
 20
28.097000
 30
0.0
 10
188.170000
 20
19.868000
 30
0.0
 10
196.399000
 20
8.541000
 30
0.0
  0
LWPOLYLINE
  5
131
100
AcDbEntity
  8
0
 62
7
100
AcDbPolyline
 90
4
 70
1
 10
169.846000
 20
19.855000
 30
0.0
 10
158.520000
 20
28.084000
 30
0.0
 10
150.291000
 20
16.759000
 30
0.0
 10
161.617000
 20
8.529000
 30
0.0
  0
ENDSEC
  0
SECTION
  2
OBJECTS
  0
DICTIONARY
  5
C
330
0
100
AcDbDictionary
  3
ACAD_GROUP
350
D
  3
ACAD_MLINESTYLE
350
17
  0
DICTIONARY
  5
D
330
C
100
AcDbDictionary
  0
DICTIONARY
  5
1A
330
C
100
AcDbDictionary
  0
DICTIONARY
  5
17
330
C
100
AcDbDictionary
  3
STANDARD
350
18
  0
DICTIONARY
  5
19
330
C
100
AcDbDictionary
  0
ENDSEC
  0
EOF
