  0
SECTION
  2
HEADER
  9
$ACADVER
  1
AC1014
  9
$HANDSEED
  5
FFFF
  9
$MEASUREMENT
 70
     1
  0
ENDSEC
  0
SECTION
  2
TABLES
  0
TABLE
  2
VPORT
  5
8
330
0
100
AcDbSymbolTable
 70
     4
  0
VPORT
  5
2E
330
8
100
AcDbSymbolTableRecord
100
AcDbViewportTableRecord
  2
*ACTIVE
 70
     0
 10
0.0
 20
0.0
 11
1.0
 21
1.0
 12
210.0
 22
148.5
 13
0.0
 23
0.0
 14
10.0
 24
10.0
 15
10.0
 25
10.0
 16
0.0
 26
0.0
 36
1.0
 17
0.0
 27
0.0
 37
0.0
 40
341.0
 41
1.24
 42
50.0
 43
0.0
 44
0.0
 50
0.0
 51
0.0
 71
     0
 72
   100
 73
     1
 74
     3
 75
     0
 76
     0
 77
     0
 78
     0
  0
ENDTAB
  0
TABLE
  2
LTYPE
  5
5
330
0
100
AcDbSymbolTable
 70
     1
  0
LTYPE
  5
14
330
5
100
AcDbSymbolTableRecord
100
AcDbLinetypeTableRecord
  2
BYBLOCK
 70
     0
  3

 72
    65
 73
     0
 40
0.0
  0
LTYPE
  5
15
330
5
100
AcDbSymbolTableRecord
100
AcDbLinetypeTableRecord
  2
BYLAYER
 70
     0
  3

 72
    65
 73
     0
 40
0.0
  0
LTYPE
  5
16
330
5
100
AcDbSymbolTableRecord
100
AcDbLinetypeTableRecord
  2
CONTINUOUS
 70
     0
  3
Solid line
 72
    65
 73
     0
 40
0.0
  0
ENDTAB
  0
TABLE
  2
LAYER
  5
2
100
AcDbSymbolTable
 70
1
  0
LAYER
  5
50
100
AcDbSymbolTableRecord
100
AcDbLayerTableRecord
  2
0
 70
0
  6
CONTINUOUS
  0
ENDTAB
  0
TABLE
  2
STYLE
  5
3
330
0
100
AcDbSymbolTable
 70
     1
  0
STYLE
  5
11
330
3
100
AcDbSymbolTableRecord
100
AcDbTextStyleTableRecord
  2
STANDARD
 70
     0
 40
0.0
 41
1.0
 50
0.0
 71
     0
 42
2.5
  3
txt
  4

  0
ENDTAB
  0
TABLE
  2
VIEW
  5
6
330
0
100
AcDbSymbolTable
 70
     0
  0
ENDTAB
  0
TABLE
  2
UCS
  5
7
330
0
100
AcDbSymbolTable
 70
     0
  0
ENDTAB
  0
TABLE
  2
APPID
  5
9
330
0
100
AcDbSymbolTable
 70
     2
  0
APPID
  5
12
330
9
100
AcDbSymbolTableRecord
100
AcDbRegAppTableRecord
  2
ACAD
 70
     0
  0
ENDTAB
  0
TABLE
  2
DIMSTYLE
  5
A
330
0
100
AcDbSymbolTable
 70
     1
  0
DIMSTYLE
105
27
330
A
100
AcDbSymbolTableRecord
100
AcDbDimStyleTableRecord
  2
ISO-25
 70
     0
  3

  4

  5

  6

  7

 40
1.0
 41
2.5
 42
0.625
 43
3.75
 44
1.25
 45
0.0
 46
0.0
 47
0.0
 48
0.0
140
2.5
141
2.5
142
0.0
143
0.03937007874016
144
1.0
145
0.0
146
1.0
147
0.625
 71
     0
 72
     0
 73
     0
 74
     0
 75
     0
 76
     0
 77
     1
 78
     8
170
     0
171
     3
172
     1
173
     0
174
     0
175
     0
176
     0
177
     0
178
     0
270
     2
271
     2
272
     2
273
     2
274
     3
340
11
275
     0
280
     0
281
     0
282
     0
283
     0
284
     8
285
     0
286
     0
287
     3
288
     0
  0
ENDTAB
  0
TABLE
  2
BLOCK_RECORD
  5
1
330
0
100
AcDbSymbolTable
 70
     1
  0
BLOCK_RECORD
  5
1F
330
1
100
AcDbSymbolTableRecord
100
AcDbBlockTableRecord
  2
*MODEL_SPACE
  0
BLOCK_RECORD
  5
1B
330
1
100
AcDbSymbolTableRecord
100
AcDbBlockTableRecord
  2
*PAPER_SPACE
  0
ENDTAB
  0
ENDSEC
  0
SECTION
  2
BLOCKS
  0
BLOCK
  5
20
330
1F
100
AcDbEntity
  8
0
100
AcDbBlockBegin
  2
*MODEL_SPACE
 70
     0
 10
0.0
 20
0.0
 30
0.0
  3
*MODEL_SPACE
  1

  0
ENDBLK
  5
21
330
1F
100
AcDbEntity
  8
0
100
AcDbBlockEnd
  0
BLOCK
  5
1C
330
1B
100
AcDbEntity
 67
     1
  8
0
100
AcDbBlockBegin
  2
*PAPER_SPACE
  1

  0
ENDBLK
  5
1D
330
1B
100
AcDbEntity
 67
     1
  8
0
100
AcDbBlockEnd
  0
ENDSEC
  0
SECTION
  2
ENTITIES
  0
LWPOLYLINE
  5
100
100
AcDbEntity
  8
0
 62
7
100
AcDbPolyline
 90
8
 70
1
 10
399.056784
 20
-179.436596
 30
0.0
 10
399.052694
 20
-74.080520
 30
0.0
 10
23.564936
 20
-74.081551
 30
0.0
 10
23.564936
 20
-179.437452
 30
0.0
 10
130.558047
 20
-179.426357
 30
0.0
 10
186.688268
 20
-219.463369
 30
0.0
 10
226.340073
 20
-219.463369
 30
0.0
 10
282.469869
 20
-179.426357
 30
0.0
  0
LWPOLYLINE
  5
101
100
AcDbEntity
  8
0
 62
7
100
AcDbPolyline
 90
318
 70
1
 10
274.208240
 20
-175.712303
 30
0.0
 10
274.109180
 20
-175.914487
 30
0.0
 10
274.048220
 20
-176.133943
 30
0.0
 10
274.032980
 20
-176.360765
 30
0.0
 10
274.060920
 20
-176.584031
 30
0.0
 10
274.132040
 20
-176.797137
 30
0.0
 10
274.246340
 20
-176.993987
 30
0.0
 10
275.813520
 20
-179.190579
 30
0.0
 10
275.925280
 20
-179.387429
 30
0.0
 10
275.996400
 20
-179.600535
 30
0.0
 10
276.026880
 20
-179.823801
 30
0.0
 10
276.009100
 20
-180.050623
 30
0.0
 10
275.950680
 20
-180.270333
 30
0.0
 10
275.849080
 20
-180.472263
 30
0.0
 10
275.711920
 20
-180.651079
 30
0.0
 10
275.539200
 20
-180.801193
 30
0.0
 10
234.612180
 20
-209.994175
 30
0.0
 10
234.414314
 20
-210.107713
 30
0.0
 10
234.200192
 20
-210.180357
 30
0.0
 10
233.976418
 20
-210.209821
 30
0.0
 10
233.749088
 20
-210.195084
 30
0.0
 10
233.529632
 20
-210.136410
 30
0.0
 10
233.327702
 20
-210.036842
 30
0.0
 10
233.149394
 20
-209.899682
 30
0.0
 10
233.000296
 20
-209.728740
 30
0.0
 10
231.432100
 20
-207.527576
 30
0.0
 10
231.282748
 20
-207.357142
 30
0.0
 10
231.104440
 20
-207.219982
 30
0.0
 10
230.902764
 20
-207.120160
 30
0.0
 10
230.683054
 20
-207.061486
 30
0.0
 10
230.455724
 20
-207.046749
 30
0.0
 10
230.231950
 20
-207.076467
 30
0.0
 10
230.017828
 20
-207.148857
 30
0.0
 10
229.820216
 20
-207.262395
 30
0.0
 10
223.611694
 20
-211.427741
 30
0.0
 10
205.939898
 20
-211.473207
 30
0.0
 10
189.440058
 20
-211.521213
 30
0.0
 10
183.363870
 20
-207.309385
 30
0.0
 10
183.166258
 20
-207.195847
 30
0.0
 10
182.952136
 20
-207.123203
 30
0.0
 10
182.728362
 20
-207.093739
 30
0.0
 10
182.501032
 20
-207.108212
 30
0.0
 10
182.281322
 20
-207.167140
 30
0.0
 10
182.079646
 20
-207.266708
 30
0.0
 10
181.901338
 20
-207.403868
 30
0.0
 10
181.751986
 20
-207.574302
 30
0.0
 10
180.183790
 20
-209.775466
 30
0.0
 10
180.034692
 20
-209.946408
 30
0.0
 10
179.856130
 20
-210.083568
 30
0.0
 10
179.654454
 20
-210.183136
 30
0.0
 10
179.434998
 20
-210.242064
 30
0.0
 10
179.207668
 20
-210.256537
 30
0.0
 10
178.983894
 20
-210.227073
 30
0.0
 10
178.769772
 20
-210.154683
 30
0.0
 10
178.571652
 20
-210.040891
 30
0.0
 10
137.644886
 20
-180.847909
 30
0.0
 10
137.472928
 20
-180.697795
 30
0.0
 10
137.334498
 20
-180.518979
 30
0.0
 10
137.233914
 20
-180.317049
 30
0.0
 10
137.173716
 20
-180.097339
 30
0.0
 10
137.157709
 20
-179.870517
 30
0.0
 10
137.186411
 20
-179.647505
 30
0.0
 10
137.257785
 20
-179.434145
 30
0.0
 10
137.370561
 20
-179.237295
 30
0.0
 10
138.938503
 20
-177.040703
 30
0.0
 10
139.051279
 20
-176.843853
 30
0.0
 10
139.122907
 20
-176.630747
 30
0.0
 10
139.151101
 20
-176.407481
 30
0.0
 10
139.135358
 20
-176.180659
 30
0.0
 10
139.075160
 20
-175.961203
 30
0.0
 10
138.974322
 20
-175.759019
 30
0.0
 10
138.836146
 20
-175.580457
 30
0.0
 10
138.664188
 20
-175.430343
 30
0.0
 10
138.427968
 20
-175.193107
 30
0.0
 10
134.211822
 20
-172.193367
 30
0.0
 10
133.868414
 20
-171.972387
 30
0.0
 10
133.448806
 20
-171.742263
 30
0.0
 10
132.883402
 20
-171.549223
 30
0.0
 10
132.102606
 20
-171.440003
 30
0.0
 10
98.198181
 20
-171.440798
 30
0.0
 10
97.777557
 20
-171.508108
 30
0.0
 10
97.550735
 20
-171.530465
 30
0.0
 10
97.334327
 20
-171.595743
 30
0.0
 10
97.134937
 20
-171.701661
 30
0.0
 10
96.958407
 20
-171.845425
 30
0.0
 10
96.813881
 20
-172.020939
 30
0.0
 10
96.707455
 20
-172.219313
 30
0.0
 10
96.641923
 20
-172.434451
 30
0.0
 10
96.619327
 20
-172.660003
 30
0.0
 10
96.620914
 20
-175.362563
 30
0.0
 10
96.598821
 20
-175.588369
 30
0.0
 10
96.533035
 20
-175.803507
 30
0.0
 10
96.426863
 20
-176.001881
 30
0.0
 10
96.282083
 20
-176.177141
 30
0.0
 10
96.105553
 20
-176.321159
 30
0.0
 10
95.906163
 20
-176.427077
 30
0.0
 10
95.689755
 20
-176.492355
 30
0.0
 10
95.462679
 20
-176.514712
 30
0.0
 10
45.190918
 20
-176.514712
 30
0.0
 10
44.963842
 20
-176.492355
 30
0.0
 10
44.747434
 20
-176.427077
 30
0.0
 10
44.548044
 20
-176.321159
 30
0.0
 10
44.371514
 20
-176.177141
 30
0.0
 10
44.226734
 20
-176.001881
 30
0.0
 10
44.120562
 20
-175.803507
 30
0.0
 10
44.054776
 20
-175.588369
 30
0.0
 10
44.032424
 20
-175.362563
 30
0.0
 10
44.033430
 20
-172.664067
 30
0.0
 10
44.010824
 20
-172.438261
 30
0.0
 10
43.945038
 20
-172.223123
 30
0.0
 10
43.838612
 20
-172.025003
 30
0.0
 10
43.693832
 20
-171.849489
 30
0.0
 10
43.517556
 20
-171.705725
 30
0.0
 10
43.318166
 20
-171.599807
 30
0.0
 10
43.101758
 20
-171.534529
 30
0.0
 10
42.874682
 20
-171.512172
 30
0.0
 10
42.515780
 20
-171.442068
 30
0.0
 10
31.556188
 20
-171.442322
 30
0.0
 10
31.568126
 20
-82.080042
 30
0.0
 10
42.664116
 20
-82.079788
 30
0.0
 10
42.859442
 20
-82.055150
 30
0.0
 10
43.086518
 20
-82.032798
 30
0.0
 10
43.302672
 20
-81.967520
 30
0.0
 10
43.502316
 20
-81.861602
 30
0.0
 10
43.678592
 20
-81.717838
 30
0.0
 10
43.823118
 20
-81.542324
 30
0.0
 10
43.929798
 20
-81.344204
 30
0.0
 10
43.995584
 20
-81.129066
 30
0.0
 10
44.017936
 20
-80.903260
 30
0.0
 10
44.016930
 20
-78.204764
 30
0.0
 10
44.039536
 20
-77.978958
 30
0.0
 10
44.105068
 20
-77.763820
 30
0.0
 10
44.211494
 20
-77.565446
 30
0.0
 10
44.356020
 20
-77.390186
 30
0.0
 10
44.532550
 20
-77.246168
 30
0.0
 10
44.731940
 20
-77.140250
 30
0.0
 10
44.948348
 20
-77.074972
 30
0.0
 10
45.175678
 20
-77.052620
 30
0.0
 10
95.447107
 20
-77.052620
 30
0.0
 10
95.674437
 20
-77.074972
 30
0.0
 10
95.890845
 20
-77.140250
 30
0.0
 10
96.090235
 20
-77.246168
 30
0.0
 10
96.266765
 20
-77.390186
 30
0.0
 10
96.411291
 20
-77.565446
 30
0.0
 10
96.517717
 20
-77.763820
 30
0.0
 10
96.583249
 20
-77.978958
 30
0.0
 10
96.605606
 20
-78.204764
 30
0.0
 10
96.604018
 20
-80.907324
 30
0.0
 10
96.626375
 20
-81.132876
 30
0.0
 10
96.692161
 20
-81.348014
 30
0.0
 10
96.798333
 20
-81.546388
 30
0.0
 10
96.943113
 20
-81.721902
 30
0.0
 10
97.119643
 20
-81.865666
 30
0.0
 10
97.319033
 20
-81.971584
 30
0.0
 10
97.535441
 20
-82.036862
 30
0.0
 10
97.762263
 20
-82.059214
 30
0.0
 10
97.953779
 20
-82.078518
 30
0.0
 10
117.093949
 20
-82.078015
 30
0.0
 10
117.339313
 20
-82.055155
 30
0.0
 10
117.566643
 20
-82.032803
 30
0.0
 10
117.782797
 20
-81.967525
 30
0.0
 10
117.982441
 20
-81.861607
 30
0.0
 10
118.158717
 20
-81.717843
 30
0.0
 10
118.303243
 20
-81.542329
 30
0.0
 10
118.409923
 20
-81.344209
 30
0.0
 10
118.475455
 20
-81.129071
 30
0.0
 10
118.498049
 20
-80.903265
 30
0.0
 10
118.496992
 20
-78.204769
 30
0.0
 10
118.519349
 20
-77.978963
 30
0.0
 10
118.585135
 20
-77.763825
 30
0.0
 10
118.691307
 20
-77.565451
 30
0.0
 10
118.836087
 20
-77.390191
 30
0.0
 10
119.012617
 20
-77.246173
 30
0.0
 10
119.212007
 20
-77.140255
 30
0.0
 10
119.428415
 20
-77.074977
 30
0.0
 10
119.655491
 20
-77.052625
 30
0.0
 10
169.927171
 20
-77.052625
 30
0.0
 10
170.154501
 20
-77.074977
 30
0.0
 10
170.370909
 20
-77.140255
 30
0.0
 10
170.570045
 20
-77.246173
 30
0.0
 10
170.746829
 20
-77.390191
 30
0.0
 10
170.891355
 20
-77.565451
 30
0.0
 10
170.997781
 20
-77.763825
 30
0.0
 10
171.063313
 20
-77.978963
 30
0.0
 10
171.085406
 20
-78.204769
 30
0.0
 10
171.083818
 20
-80.907329
 30
0.0
 10
171.106412
 20
-81.132881
 30
0.0
 10
171.171944
 20
-81.348019
 30
0.0
 10
171.278370
 20
-81.546393
 30
0.0
 10
171.422896
 20
-81.721907
 30
0.0
 10
171.599426
 20
-81.865671
 30
0.0
 10
171.798816
 20
-81.971589
 30
0.0
 10
172.015224
 20
-82.036867
 30
0.0
 10
172.242300
 20
-82.059219
 30
0.0
 10
172.508238
 20
-82.076745
 30
0.0
 10
250.196424
 20
-82.074972
 30
0.0
 10
250.401148
 20
-82.055160
 30
0.0
 10
250.628224
 20
-82.032808
 30
0.0
 10
250.844378
 20
-81.967530
 30
0.0
 10
251.044022
 20
-81.861612
 30
0.0
 10
251.220298
 20
-81.717848
 30
0.0
 10
251.365078
 20
-81.542334
 30
0.0
 10
251.471504
 20
-81.344214
 30
0.0
 10
251.537290
 20
-81.129076
 30
0.0
 10
251.559647
 20
-80.903270
 30
0.0
 10
251.558588
 20
-78.204774
 30
0.0
 10
251.581183
 20
-77.978968
 30
0.0
 10
251.646715
 20
-77.763830
 30
0.0
 10
251.753141
 20
-77.565456
 30
0.0
 10
251.897667
 20
-77.390196
 30
0.0
 10
252.074451
 20
-77.246178
 30
0.0
 10
252.273587
 20
-77.140260
 30
0.0
 10
252.489995
 20
-77.074982
 30
0.0
 10
252.717325
 20
-77.052630
 30
0.0
 10
302.988751
 20
-77.052630
 30
0.0
 10
303.214811
 20
-77.074982
 30
0.0
 10
303.430711
 20
-77.140260
 30
0.0
 10
303.631371
 20
-77.246178
 30
0.0
 10
303.806631
 20
-77.390196
 30
0.0
 10
303.951411
 20
-77.565456
 30
0.0
 10
304.058091
 20
-77.763830
 30
0.0
 10
304.124131
 20
-77.978968
 30
0.0
 10
304.146890
 20
-78.204774
 30
0.0
 10
304.144223
 20
-80.907334
 30
0.0
 10
304.166981
 20
-81.132886
 30
0.0
 10
304.233021
 20
-81.348024
 30
0.0
 10
304.339701
 20
-81.546398
 30
0.0
 10
304.484481
 20
-81.721912
 30
0.0
 10
304.659741
 20
-81.865676
 30
0.0
 10
304.860401
 20
-81.971594
 30
0.0
 10
305.076301
 20
-82.036872
 30
0.0
 10
305.302361
 20
-82.059224
 30
0.0
 10
305.774801
 20
-82.073702
 30
0.0
 10
324.568261
 20
-82.073199
 30
0.0
 10
324.852741
 20
-82.055165
 30
0.0
 10
325.078801
 20
-82.032813
 30
0.0
 10
325.294701
 20
-81.967535
 30
0.0
 10
325.495361
 20
-81.861617
 30
0.0
 10
325.670621
 20
-81.717853
 30
0.0
 10
325.815401
 20
-81.542339
 30
0.0
 10
325.922081
 20
-81.344219
 30
0.0
 10
325.988121
 20
-81.129081
 30
0.0
 10
326.010880
 20
-80.903275
 30
0.0
 10
326.010880
 20
-78.204779
 30
0.0
 10
326.031250
 20
-77.978973
 30
0.0
 10
326.097290
 20
-77.763835
 30
0.0
 10
326.203970
 20
-77.565461
 30
0.0
 10
326.348750
 20
-77.390201
 30
0.0
 10
326.526550
 20
-77.246183
 30
0.0
 10
326.724670
 20
-77.140265
 30
0.0
 10
326.940570
 20
-77.074987
 30
0.0
 10
327.169170
 20
-77.052635
 30
0.0
 10
377.438310
 20
-77.052635
 30
0.0
 10
377.666910
 20
-77.074987
 30
0.0
 10
377.882810
 20
-77.140265
 30
0.0
 10
378.083470
 20
-77.246183
 30
0.0
 10
378.258730
 20
-77.390201
 30
0.0
 10
378.403510
 20
-77.565461
 30
0.0
 10
378.510190
 20
-77.763835
 30
0.0
 10
378.576230
 20
-77.978973
 30
0.0
 10
378.596601
 20
-78.204779
 30
0.0
 10
378.596601
 20
-80.907339
 30
0.0
 10
378.619360
 20
-81.132891
 30
0.0
 10
378.685400
 20
-81.348029
 30
0.0
 10
378.789540
 20
-81.546403
 30
0.0
 10
378.934320
 20
-81.721917
 30
0.0
 10
379.112120
 20
-81.865681
 30
0.0
 10
379.310240
 20
-81.971599
 30
0.0
 10
379.528680
 20
-82.036877
 30
0.0
 10
379.754740
 20
-82.059229
 30
0.0
 10
380.057000
 20
-82.071929
 30
0.0
 10
391.060280
 20
-82.071675
 30
0.0
 10
391.047580
 20
-171.434209
 30
0.0
 10
380.234800
 20
-171.434463
 30
0.0
 10
379.754740
 20
-171.508123
 30
0.0
 10
379.528680
 20
-171.530480
 30
0.0
 10
379.310240
 20
-171.595758
 30
0.0
 10
379.112120
 20
-171.701676
 30
0.0
 10
378.934320
 20
-171.845440
 30
0.0
 10
378.789540
 20
-172.020954
 30
0.0
 10
378.685400
 20
-172.219328
 30
0.0
 10
378.619360
 20
-172.434466
 30
0.0
 10
378.596601
 20
-172.660018
 30
0.0
 10
378.596601
 20
-175.362578
 30
0.0
 10
378.576230
 20
-175.588384
 30
0.0
 10
378.510190
 20
-175.803522
 30
0.0
 10
378.403510
 20
-176.001896
 30
0.0
 10
378.258730
 20
-176.177156
 30
0.0
 10
378.083470
 20
-176.321174
 30
0.0
 10
377.882810
 20
-176.427092
 30
0.0
 10
377.666910
 20
-176.492370
 30
0.0
 10
377.438310
 20
-176.514727
 30
0.0
 10
327.169170
 20
-176.514727
 30
0.0
 10
326.940570
 20
-176.492370
 30
0.0
 10
326.724670
 20
-176.427092
 30
0.0
 10
326.526550
 20
-176.321174
 30
0.0
 10
326.348750
 20
-176.177156
 30
0.0
 10
326.203970
 20
-176.001896
 30
0.0
 10
326.097290
 20
-175.803522
 30
0.0
 10
326.031250
 20
-175.588384
 30
0.0
 10
326.010880
 20
-175.362578
 30
0.0
 10
326.010880
 20
-172.664082
 30
0.0
 10
325.988121
 20
-172.438276
 30
0.0
 10
325.922081
 20
-172.223138
 30
0.0
 10
325.815401
 20
-172.025018
 30
0.0
 10
325.670621
 20
-171.849504
 30
0.0
 10
325.495361
 20
-171.705740
 30
0.0
 10
325.294701
 20
-171.599822
 30
0.0
 10
325.078801
 20
-171.534544
 30
0.0
 10
324.852741
 20
-171.512187
 30
0.0
 10
324.459041
 20
-171.435733
 30
0.0
 10
281.309521
 20
-171.436789
 30
0.0
 10
280.649121
 20
-171.494447
 30
0.0
 10
280.082701
 20
-171.622209
 30
0.0
 10
279.559461
 20
-171.846491
 30
0.0
 10
279.028601
 20
-172.193455
 30
0.0
 10
274.690281
 20
-175.261267
 30
0.0
 10
274.347381
 20
-175.533809
 30
0.0
  0
ENDSEC
  0
SECTION
  2
OBJECTS
  0
DICTIONARY
  5
C
330
0
100
AcDbDictionary
  3
ACAD_GROUP
350
D
  3
ACAD_MLINESTYLE
350
17
  0
DICTIONARY
  5
D
330
C
100
AcDbDictionary
  0
DICTIONARY
  5
1A
330
C
100
AcDbDictionary
  0
DICTIONARY
  5
17
330
C
100
AcDbDictionary
  3
STANDARD
350
18
  0
DICTIONARY
  5
19
330
C
100
AcDbDictionary
  0
ENDSEC
  0
EOF
