<?xml version="1.0" encoding="UTF-8" standalone="no"?>
<svg
   xmlns:dc="http://purl.org/dc/elements/1.1/"
   xmlns:cc="http://creativecommons.org/ns#"
   xmlns:rdf="http://www.w3.org/1999/02/22-rdf-syntax-ns#"
   xmlns:svg="http://www.w3.org/2000/svg"
   xmlns="http://www.w3.org/2000/svg"
   xmlns:sodipodi="http://sodipodi.sourceforge.net/DTD/sodipodi-0.dtd"
   xmlns:inkscape="http://www.inkscape.org/namespaces/inkscape"
   version="1.1"
   width="41.998900cm"
   height="29.700220cm"
   viewBox="0 0 165350 116930"
   id="svg6850"
   sodipodi:docname="middle-case.svg"
   inkscape:version="1.0 (4035a4fb49, 2020-05-01)">
  <metadata
     id="metadata6856">
    <rdf:RDF>
      <cc:Work
         rdf:about="">
        <dc:format>image/svg+xml</dc:format>
        <dc:type
           rdf:resource="http://purl.org/dc/dcmitype/StillImage" />
        <dc:title>SVG Picture created as hagoromo-brd.svg date 2021/08/31 23:11:58 </dc:title>
      </cc:Work>
    </rdf:RDF>
  </metadata>
  <defs
     id="defs6854" />
  <sodipodi:namedview
     inkscape:current-layer="svg6850"
     inkscape:window-maximized="0"
     inkscape:window-y="0"
     inkscape:window-x="260"
     inkscape:cy="58.861201"
     inkscape:cx="1426.6814"
     inkscape:zoom="0.45254834"
     showgrid="false"
     id="namedview6852"
     inkscape:window-height="1032"
     inkscape:window-width="1644"
     inkscape:pageshadow="2"
     inkscape:pageopacity="0"
     guidetolerance="10"
     gridtolerance="10"
     objecttolerance="10"
     borderopacity="1"
     bordercolor="#666666"
     pagecolor="#ffffff"
     inkscape:document-rotation="0" />
  <title
     id="title2">SVG Picture created as hagoromo-brd.svg date 2021/08/31 23:11:58 </title>
  <desc
     id="desc4">Picture generated by PCBNEW </desc>
  <path
     id="path1150"
     style="fill:none;stroke:#000000;stroke-width:104.167px;stroke-linecap:butt;stroke-linejoin:miter;stroke-opacity:1"
     d="m 17055.008,68891.753 v 1970.062 l 21257.606,-1.151 v -1968.098 l 13922.035,0.792 2355.68,1612.62 -1144.022,1603.856 17306.817,12343.416 1142.88,-1602.26 2603.684,1793.563 h 13574.186 l 2721.029,-1793.564 1142.879,1602.261 17306.648,-12343.417 -1144.01,-1603.856 2239.51,-1612.599 17734.42,-1.626 v 1970.062 l 21257.3,-1.151 v -1968.098 l 4905.58,0.834 V 33159.881 l -4906.39,-1.515 v -1968.098 l -21257.3,-1.151 v 1970.062 l -2663.82,0.833 -5390.63,-1.646 v -1968.098 l -21257.299,-1.151 v 1970.062 l -2663.86,0.833 -28470.467,-1.646 v -1968.098 l -21257.609,-1.151 v 1970.062 l -2663.86,0.833 -5392.193,-1.647 v -1968.097 l -21257.61,-1.151 v 1970.062 l -4899.81,0.702 -0.942,35733.479 z M 111208.6,72546.379 89110.265,88308.982 H 73499.315 L 51400.802,72546.379 8489.7746,72554.524 V 29499.647 l 149403.6854,1.114 1.32,43053.642 z"
     sodipodi:nodetypes="ccccccccccccccccccccccccccccccccccccccccccccccccccccc" />
</svg>
