999
"DXF R12 Output" (www.mydxf.blogspot.com)
 0 
SECTION
 2 
HEADER
 9 
$ACADVER
 1 
AC1009
 9 
$EXTMIN
 10 
 0 
 20 
 0 
 9 
$EXTMAX
 10 
 8.5 
 20 
 11 
 0 
ENDSEC
 0 
SECTION
 2 
ENTITIES
0
LINE
8
Layer 1
10
204.761000
20
211.012000
11
208.454200
21
211.423900
0
LINE
8
Layer 1
10
245.319700
20
215.700310
11
248.999050
21
216.109350
0
LINE
8
Layer 1
10
237.958250
20
214.859330
11
241.640370
21
215.282680
0
LINE
8
Layer 1
10
223.215870
20
213.128740
11
226.903520
21
213.563530
0
LINE
8
Layer 1
10
153.028420
20
206.981590
11
156.721620
21
207.113160
0
LINE
8
Layer 1
10
241.640320
20
215.282680
11
245.319670
21
215.700310
0
LINE
8
Layer 1
10
215.834970
20
212.267740
11
219.525400
21
212.696810
0
LINE
8
Layer 1
10
234.273300
20
214.430260
11
237.958190
21
214.859330
0
LINE
8
Layer 1
10
226.903490
20
213.563530
11
230.588390
21
213.998320
0
LINE
8
Layer 1
10
182.593390
20
208.797980
11
186.286610
21
209.129800
0
LINE
8
Layer 1
10
178.897430
20
208.489060
11
182.593390
21
208.797980
0
LINE
8
Layer 1
10
149.332390
20
206.881460
11
153.028370
21
206.981590
0
LINE
8
Layer 1
10
201.064970
20
210.611510
11
204.760950
21
211.012000
0
LINE
8
Layer 1
10
230.588450
20
213.998330
11
234.273340
21
214.430240
0
LINE
8
Layer 1
10
145.639240
20
206.812820
11
149.332450
21
206.881520
0
LINE
8
Layer 1
10
208.454150
20
211.423940
11
212.144590
21
211.841570
0
LINE
8
Layer 1
10
219.525440
20
212.696850
11
223.215880
21
213.128780
0
LINE
8
Layer 1
10
197.371780
20
210.216820
11
201.064980
21
210.611560
0
LINE
8
Layer 1
10
164.113580
20
207.467920
11
167.809550
21
207.685300
0
LINE
8
Layer 1
10
160.417600
20
207.276250
11
164.113580
21
207.467920
0
LINE
8
Layer 1
10
138.255580
20
206.787110
11
141.946020
21
206.781110
0
LINE
8
Layer 1
10
167.809520
20
207.685020
11
171.505500
21
207.928180
0
LINE
8
Layer 1
10
186.286600
20
209.129570
11
189.982570
21
209.478540
0
LINE
8
Layer 1
10
189.982570
20
209.478540
11
193.678550
21
209.841820
0
LINE
8
Layer 1
10
156.721550
20
207.112930
11
160.417520
21
207.275980
0
LINE
8
Layer 1
10
193.678520
20
209.841820
11
197.371710
21
210.216550
0
LINE
8
Layer 1
10
171.505410
20
207.928180
11
175.201380
21
208.197060
0
LINE
8
Layer 1
10
141.945880
20
206.781110
11
145.639080
21
206.812510
0
LINE
8
Layer 1
10
261.680080
20
186.102510
11
252.352300
21
211.730910
0
LINE
8
Layer 1
10
175.201300
20
208.196940
11
178.897280
21
208.488710
0
LINE
8
Layer 1
10
212.144380
20
211.841190
11
215.834810
21
212.267400
0
LINE
8
Layer 1
10
164.445810
20
118.864400
11
166.202360
21
118.443910
0
LINE
8
Layer 1
10
141.477560
20
130.706810
11
142.394630
21
129.725670
0
LINE
8
Layer 1
10
171.455430
20
117.448470
11
173.184290
21
117.211050
0
LINE
8
Layer 1
10
138.330190
20
137.091350
11
138.543540
21
135.972900
0
LINE
8
Layer 1
10
155.909640
20
121.587600
11
157.563700
21
120.964010
0
LINE
8
Layer 1
10
149.722920
20
124.450930
11
151.191330
21
123.684320
0
LINE
8
Layer 1
10
138.543530
20
135.972920
11
138.889850
21
134.874510
0
LINE
8
Layer 1
10
174.893750
20
117.019410
11
176.572750
21
116.879250
0
LINE
8
Layer 1
10
166.202450
20
118.443920
11
167.959010
21
118.066350
0
LINE
8
Layer 1
10
138.255410
20
138.232650
11
138.330210
21
137.091320
0
LINE
8
Layer 1
10
146.971730
20
126.087120
11
148.312690
21
125.254720
0
LINE
8
Layer 1
10
151.191340
20
123.684320
11
152.717930
21
122.949180
0
LINE
8
Layer 1
10
148.312690
20
125.254720
11
149.722930
21
124.450930
0
LINE
8
Layer 1
10
159.253770
20
120.377610
11
160.966000
21
119.831260
0
LINE
8
Layer 1
10
154.291630
20
122.251230
11
155.909660
21
121.587600
0
LINE
8
Layer 1
10
144.514160
20
127.849170
11
145.702750
21
126.953840
0
LINE
8
Layer 1
10
167.958950
20
118.066360
11
169.712740
21
117.734540
0
LINE
8
Layer 1
10
152.717940
20
122.949180
11
154.291640
21
122.251230
0
LINE
8
Layer 1
10
139.953840
20
132.743430
11
140.660350
21
131.710800
0
LINE
8
Layer 1
10
157.563750
20
120.964000
11
159.253810
21
120.377600
0
LINE
8
Layer 1
10
156.013970
20
116.750520
11
242.581570
21
116.750520
0
LINE
8
Layer 1
10
242.581570
20
116.750520
11
156.013970
21
116.750520
0
LINE
8
Layer 1
10
252.678270
20
216.509420
11
256.352090
21
216.895580
0
LINE
8
Layer 1
10
142.395090
20
129.725580
11
143.409130
21
128.773040
0
LINE
8
Layer 1
10
162.698030
20
119.327760
11
164.446290
21
118.864360
0
LINE
8
Layer 1
10
176.573190
20
116.879200
11
178.218910
21
116.787700
0
LINE
8
Layer 1
10
138.890310
20
134.874500
11
139.364080
21
133.796100
0
LINE
8
Layer 1
10
178.218880
20
116.787700
11
179.825830
21
116.750600
0
LINE
8
Layer 1
10
256.352430
20
216.895600
11
266.426230
21
188.319500
0
LINE
8
Layer 1
10
143.409230
20
128.773000
11
144.514690
21
127.849070
0
LINE
8
Layer 1
10
169.713290
20
117.734470
11
171.455990
21
117.448430
0
LINE
8
Layer 1
10
173.184840
20
117.211010
11
174.894300
21
117.019360
0
LINE
8
Layer 1
10
140.660800
20
131.710760
11
141.478120
21
130.706730
0
LINE
8
Layer 1
10
160.966520
20
119.831230
11
162.698130
21
119.327790
0
LINE
8
Layer 1
10
145.703330
20
126.953810
11
146.972260
21
126.087080
0
LINE
8
Layer 1
10
139.364210
20
133.796050
11
139.954340
21
132.743410
0
LINE
8
Layer 1
10
138.255960
20
138.232650
11
138.255960
21
206.786650
0
LINE
8
Layer 1
10
248.998960
20
216.108940
11
252.678320
21
216.509400
0
LINE
8
Layer 1
10
204.582120
20
206.453500
11
208.001800
21
206.822920
0
LINE
8
Layer 1
10
242.137000
20
210.658190
11
245.543850
21
211.025040
0
LINE
8
Layer 1
10
235.320750
20
209.903960
11
238.730170
21
210.283640
0
LINE
8
Layer 1
10
221.670270
20
208.351900
11
225.084810
21
208.741840
0
LINE
8
Layer 1
10
156.681010
20
202.838850
11
160.100690
21
202.956860
0
LINE
8
Layer 1
10
238.730190
20
210.283640
11
242.137040
21
210.658190
0
LINE
8
Layer 1
10
214.836040
20
207.579710
11
218.253150
21
207.964520
0
LINE
8
Layer 1
10
231.908750
20
209.519150
11
235.320730
21
209.903960
0
LINE
8
Layer 1
10
225.084730
20
208.741840
11
228.496720
21
209.131780
0
LINE
8
Layer 1
10
184.056320
20
204.467880
11
187.476000
21
204.765470
0
LINE
8
Layer 1
10
180.634080
20
204.190820
11
184.056320
21
204.467880
0
LINE
8
Layer 1
10
153.258720
20
202.749060
11
156.680970
21
202.838860
0
LINE
8
Layer 1
10
201.159870
20
206.094350
11
204.582120
21
206.453510
0
LINE
8
Layer 1
10
228.496820
20
209.131790
11
231.908800
21
209.519160
0
LINE
8
Layer 1
10
149.839100
20
202.687500
11
153.258780
21
202.749100
0
LINE
8
Layer 1
10
208.001880
20
206.822960
11
211.418990
21
207.197510
0
LINE
8
Layer 1
10
218.253210
20
207.964560
11
221.670330
21
208.351940
0
LINE
8
Layer 1
10
197.740230
20
205.740360
11
201.159900
21
206.094380
0
LINE
8
Layer 1
10
166.945200
20
203.275010
11
170.367450
21
203.469980
0
LINE
8
Layer 1
10
163.522960
20
203.103130
11
166.945200
21
203.275010
0
LINE
8
Layer 1
10
143.002300
20
202.664440
11
146.419420
21
202.659440
0
LINE
8
Layer 1
10
170.367420
20
203.470110
11
173.789660
21
203.688170
0
LINE
8
Layer 1
10
187.476060
20
204.765640
11
190.898300
21
205.078620
0
LINE
8
Layer 1
10
190.898300
20
205.078620
11
194.320550
21
205.404420
0
LINE
8
Layer 1
10
160.100650
20
202.957030
11
163.522890
21
203.103260
0
LINE
8
Layer 1
10
194.320490
20
205.404420
11
197.740170
21
205.740490
0
LINE
8
Layer 1
10
173.789570
20
203.688170
11
177.211810
21
203.929320
0
LINE
8
Layer 1
10
146.419310
20
202.659440
11
149.838990
21
202.687640
0
LINE
8
Layer 1
10
177.211690
20
203.929300
11
180.633940
21
204.190970
0
LINE
8
Layer 1
10
211.418740
20
207.197620
11
214.835850
21
207.579860
0
LINE
8
Layer 1
10
167.252850
20
123.811860
11
168.879310
21
123.434750
0
LINE
8
Layer 1
10
145.985610
20
134.432650
11
146.834760
21
133.552720
0
LINE
8
Layer 1
10
173.743260
20
122.542020
11
175.344070
21
122.329090
0
LINE
8
Layer 1
10
143.071270
20
140.158590
11
143.268820
21
139.155520
0
LINE
8
Layer 1
10
159.348720
20
126.254120
11
160.880270
21
125.694860
0
LINE
8
Layer 1
10
153.620190
20
128.822080
11
154.979850
21
128.134550
0
LINE
8
Layer 1
10
143.268750
20
139.155550
11
143.589420
21
138.170440
0
LINE
8
Layer 1
10
176.926820
20
122.157240
11
178.481460
21
122.031540
0
LINE
8
Layer 1
10
168.879160
20
123.434810
11
170.505630
21
123.096180
0
LINE
8
Layer 1
10
143.001930
20
141.182280
11
143.071230
21
140.158680
0
LINE
8
Layer 1
10
151.072750
20
130.289590
11
152.314400
21
129.543060
0
LINE
8
Layer 1
10
154.979850
20
128.134650
11
156.393380
21
127.475350
0
LINE
8
Layer 1
10
152.314400
20
129.543060
11
153.620190
21
128.822180
0
LINE
8
Layer 1
10
162.445160
20
125.169050
11
164.030580
21
124.679060
0
LINE
8
Layer 1
10
157.850530
20
126.849390
11
159.348720
21
126.254220
0
LINE
8
Layer 1
10
148.797220
20
131.869880
11
149.897780
21
131.066910
0
LINE
8
Layer 1
10
170.505580
20
123.096210
11
172.129480
21
122.798620
0
LINE
8
Layer 1
10
156.393280
20
127.475350
11
157.850430
21
126.849390
0
LINE
8
Layer 1
10
144.574430
20
136.259280
11
145.228610
21
135.333170
0
LINE
8
Layer 1
10
160.880110
20
125.694960
11
162.445000
21
125.169050
0
LINE
8
Layer 1
10
248.950300
20
211.384450
11
252.352030
21
211.730780
0
LINE
8
Layer 1
10
146.835000
20
133.553000
11
147.774000
21
132.699000
0
LINE
8
Layer 1
10
165.634300
20
124.228050
11
167.253070
21
123.812450
0
LINE
8
Layer 1
10
178.481870
20
122.032070
11
180.005710
21
121.949970
0
LINE
8
Layer 1
10
143.589810
20
138.170970
11
144.028490
21
137.203810
0
LINE
8
Layer 1
10
180.005690
20
121.949910
11
181.493630
21
121.916610
0
LINE
8
Layer 1
10
147.774030
20
132.699010
11
148.797620
21
131.870390
0
LINE
8
Layer 1
10
172.129920
20
122.799130
11
173.743550
21
122.542590
0
LINE
8
Layer 1
10
175.344360
20
122.329660
11
176.927210
21
122.157780
0
LINE
8
Layer 1
10
145.229110
20
135.333680
11
145.985900
21
134.433220
0
LINE
8
Layer 1
10
164.030900
20
124.679570
11
165.634270
21
124.228060
0
LINE
8
Layer 1
10
149.898070
20
131.067420
11
151.073020
21
130.290100
0
LINE
8
Layer 1
10
144.028430
20
137.203850
11
144.574860
21
136.259790
0
LINE
8
Layer 1
10
143.002260
20
141.182790
11
143.002260
21
202.665090
0
LINE
8
Layer 1
10
245.544260
20
211.025730
11
248.951110
21
211.384890
0
LINE
8
Layer 1
10
181.494000
20
121.916000
11
242.624000
21
121.916000
0
LINE
8
Layer 1
10
242.624000
20
121.916000
11
242.582100
21
116.750330
0
LINE
8
Layer 1
10
266.437500
20
116.750350
11
256.156300
21
116.785050
0
LINE
8
Layer 1
10
256.156300
20
116.785050
11
256.155820
21
121.898600
0
LINE
8
Layer 1
10
256.155820
20
121.898600
11
261.690860
21
121.916000
0
LINE
8
Layer 1
10
261.690860
20
121.916000
11
261.568860
21
160.193700
0
LINE
8
Layer 1
10
261.568860
20
160.193700
11
266.489310
21
160.237600
0
LINE
8
Layer 1
10
266.489310
20
160.237600
11
266.437500
21
116.750350
0
LINE
8
Layer 1
10
261.680650
20
186.102350
11
261.690850
21
171.603850
0
LINE
8
Layer 1
10
261.690850
20
171.603850
11
266.489310
21
171.603850
0
LINE
8
Layer 1
10
266.489310
20
171.603850
11
266.426410
21
188.319550
0
LINE
8
Layer 1
10
253.532000
20
213.945000
11
253.589200
21
213.759840
0
LINE
8
Layer 1
10
255.205000
20
213.437000
11
255.330730
21
213.590150
0
LINE
8
Layer 1
10
255.420000
20
213.760000
11
255.477200
21
213.945160
0
LINE
8
Layer 1
10
253.589000
20
213.760000
11
253.680400
21
213.590830
0
LINE
8
Layer 1
10
253.680000
20
213.591000
11
253.803430
21
213.437850
0
LINE
8
Layer 1
10
255.477000
20
213.945000
11
255.495300
21
214.139310
0
LINE
8
Layer 1
10
253.513000
20
214.139000
11
253.531300
21
213.944690
0
LINE
8
Layer 1
10
255.331000
20
213.591000
11
255.420200
21
213.760170
0
LINE
8
Layer 1
10
253.680000
20
214.690000
11
253.588600
21
214.518550
0
LINE
8
Layer 1
10
253.589000
20
214.519000
11
253.531800
21
214.333840
0
LINE
8
Layer 1
10
255.054000
20
214.965000
11
254.884840
21
215.056400
0
LINE
8
Layer 1
10
253.804000
20
214.841000
11
253.680560
21
214.690110
0
LINE
8
Layer 1
10
255.205000
20
214.841000
11
255.054110
21
214.964440
0
LINE
8
Layer 1
10
254.700000
20
215.113000
11
254.505700
21
215.131300
0
LINE
8
Layer 1
10
254.885000
20
215.056000
11
254.699830
21
215.113200
0
LINE
8
Layer 1
10
253.532000
20
214.334000
11
253.513700
21
214.139690
0
LINE
8
Layer 1
10
254.126000
20
215.056000
11
253.954550
21
214.964600
0
LINE
8
Layer 1
10
253.804000
20
213.438000
11
253.954870
21
213.314570
0
LINE
8
Layer 1
10
255.477000
20
214.334000
11
255.419800
21
214.519170
0
LINE
8
Layer 1
10
255.054000
20
213.314000
11
255.204870
21
213.437430
0
LINE
8
Layer 1
10
254.311000
20
213.168000
11
254.505310
21
213.147400
0
LINE
8
Layer 1
10
253.954000
20
214.965000
11
253.803120
21
214.841570
0
LINE
8
Layer 1
10
254.311000
20
215.113000
11
254.125830
21
215.055900
0
LINE
8
Layer 1
10
254.700000
20
213.168000
11
254.885170
21
213.222900
0
LINE
8
Layer 1
10
255.420000
20
214.519000
11
255.330800
21
214.690450
0
LINE
8
Layer 1
10
254.885000
20
213.223000
11
255.054160
21
213.314400
0
LINE
8
Layer 1
10
254.505000
20
215.131000
11
254.310690
21
215.112700
0
LINE
8
Layer 1
10
254.505000
20
213.147000
11
254.699300
21
213.167600
0
LINE
8
Layer 1
10
253.954000
20
213.314000
11
254.125450
21
213.222600
0
LINE
8
Layer 1
10
255.495000
20
214.139000
11
255.476700
21
214.333310
0
LINE
8
Layer 1
10
254.126000
20
213.223000
11
254.311160
21
213.168100
0
LINE
8
Layer 1
10
255.331000
20
214.690000
11
255.205270
21
214.840870
0
LINE
8
Layer 1
10
234.648000
20
118.986000
11
234.705200
21
118.800830
0
LINE
8
Layer 1
10
236.321000
20
118.479000
11
236.446730
21
118.632160
0
LINE
8
Layer 1
10
236.536000
20
118.801000
11
236.593100
21
118.986170
0
LINE
8
Layer 1
10
234.705000
20
118.801000
11
234.796400
21
118.631840
0
LINE
8
Layer 1
10
234.796000
20
118.632000
11
234.919430
21
118.478840
0
LINE
8
Layer 1
10
236.593000
20
118.986000
11
236.611300
21
119.180310
0
LINE
8
Layer 1
10
234.629000
20
119.180000
11
234.647300
21
118.985690
0
LINE
8
Layer 1
10
236.447000
20
118.632000
11
236.536200
21
118.801160
0
LINE
8
Layer 1
10
234.796000
20
119.732000
11
234.704600
21
119.560550
0
LINE
8
Layer 1
10
234.705000
20
119.560000
11
234.647800
21
119.374840
0
LINE
8
Layer 1
10
236.170000
20
120.006000
11
236.000840
21
120.097400
0
LINE
8
Layer 1
10
234.920000
20
119.882000
11
234.796560
21
119.731120
0
LINE
8
Layer 1
10
236.321000
20
119.882000
11
236.170110
21
120.005440
0
LINE
8
Layer 1
10
235.816000
20
120.154000
11
235.621700
21
120.172300
0
LINE
8
Layer 1
10
236.001000
20
120.097000
11
235.815830
21
120.154200
0
LINE
8
Layer 1
10
234.648000
20
119.375000
11
234.629700
21
119.180690
0
LINE
8
Layer 1
10
235.242000
20
120.097000
11
235.070550
21
120.005600
0
LINE
8
Layer 1
10
234.920000
20
118.479000
11
235.070870
21
118.355550
0
LINE
8
Layer 1
10
236.593000
20
119.375000
11
236.535800
21
119.560160
0
LINE
8
Layer 1
10
236.170000
20
118.355000
11
236.320870
21
118.478450
0
LINE
8
Layer 1
10
235.427000
20
118.209000
11
235.621310
21
118.188400
0
LINE
8
Layer 1
10
235.071000
20
120.006000
11
234.920120
21
119.882560
0
LINE
8
Layer 1
10
235.427000
20
120.154000
11
235.241820
21
120.096900
0
LINE
8
Layer 1
10
235.816000
20
118.209000
11
236.001170
21
118.263900
0
LINE
8
Layer 1
10
236.536000
20
119.560000
11
236.446800
21
119.731450
0
LINE
8
Layer 1
10
236.001000
20
118.264000
11
236.170160
21
118.355400
0
LINE
8
Layer 1
10
235.621000
20
120.173000
11
235.426690
21
120.154700
0
LINE
8
Layer 1
10
235.621000
20
118.188000
11
235.815300
21
118.208600
0
LINE
8
Layer 1
10
235.071000
20
118.355000
11
235.242450
21
118.263600
0
LINE
8
Layer 1
10
236.611000
20
119.180000
11
236.592700
21
119.374310
0
LINE
8
Layer 1
10
235.242000
20
118.264000
11
235.427160
21
118.209100
0
LINE
8
Layer 1
10
236.447000
20
119.731000
11
236.321270
21
119.881880
0
LINE
8
Layer 1
10
139.688000
20
204.015000
11
139.745200
21
203.829840
0
LINE
8
Layer 1
10
141.361000
20
203.507000
11
141.486730
21
203.660150
0
LINE
8
Layer 1
10
141.576000
20
203.830000
11
141.633100
21
204.015160
0
LINE
8
Layer 1
10
139.745000
20
203.830000
11
139.836400
21
203.660830
0
LINE
8
Layer 1
10
139.836000
20
203.660000
11
139.959430
21
203.506850
0
LINE
8
Layer 1
10
141.633000
20
204.015000
11
141.651300
21
204.209310
0
LINE
8
Layer 1
10
139.669000
20
204.209000
11
139.687300
21
204.014690
0
LINE
8
Layer 1
10
141.487000
20
203.660000
11
141.576200
21
203.829170
0
LINE
8
Layer 1
10
139.836000
20
204.760000
11
139.744600
21
204.588550
0
LINE
8
Layer 1
10
139.745000
20
204.589000
11
139.687800
21
204.403840
0
LINE
8
Layer 1
10
141.210000
20
205.034000
11
141.040830
21
205.125400
0
LINE
8
Layer 1
10
139.960000
20
204.911000
11
139.836560
21
204.760110
0
LINE
8
Layer 1
10
141.361000
20
204.911000
11
141.210120
21
205.034430
0
LINE
8
Layer 1
10
140.856000
20
205.183000
11
140.661690
21
205.201300
0
LINE
8
Layer 1
10
141.041000
20
205.126000
11
140.855840
21
205.183200
0
LINE
8
Layer 1
10
139.688000
20
204.404000
11
139.669700
21
204.209690
0
LINE
8
Layer 1
10
140.282000
20
205.126000
11
140.110550
21
205.034600
0
LINE
8
Layer 1
10
139.960000
20
203.507000
11
140.110870
21
203.383570
0
LINE
8
Layer 1
10
141.633000
20
204.403000
11
141.575900
21
204.588170
0
LINE
8
Layer 1
10
141.210000
20
203.384000
11
141.360870
21
203.507430
0
LINE
8
Layer 1
10
140.467000
20
203.238000
11
140.661310
21
203.217400
0
LINE
8
Layer 1
10
140.111000
20
205.034000
11
139.960120
21
204.910560
0
LINE
8
Layer 1
10
140.467000
20
205.183000
11
140.281820
21
205.125800
0
LINE
8
Layer 1
10
140.856000
20
203.238000
11
141.041170
21
203.292900
0
LINE
8
Layer 1
10
141.576000
20
204.589000
11
141.486800
21
204.760450
0
LINE
8
Layer 1
10
141.041000
20
203.292000
11
141.210160
21
203.383400
0
LINE
8
Layer 1
10
140.662000
20
205.201000
11
140.467690
21
205.182700
0
LINE
8
Layer 1
10
140.662000
20
203.217000
11
140.856300
21
203.237600
0
LINE
8
Layer 1
10
140.111000
20
203.384000
11
140.282440
21
203.292600
0
LINE
8
Layer 1
10
141.651000
20
204.209000
11
141.632700
21
204.403310
0
LINE
8
Layer 1
10
140.282000
20
203.292000
11
140.467160
21
203.237100
0
LINE
8
Layer 1
10
141.487000
20
204.760000
11
141.361270
21
204.910870
0
LINE
8
Layer 1
10
139.688000
20
137.869000
11
139.745200
21
137.683840
0
LINE
8
Layer 1
10
141.361000
20
137.361000
11
141.486730
21
137.514160
0
LINE
8
Layer 1
10
141.576000
20
137.684000
11
141.633100
21
137.869160
0
LINE
8
Layer 1
10
139.745000
20
137.684000
11
139.836400
21
137.514830
0
LINE
8
Layer 1
10
139.836000
20
137.514000
11
139.959430
21
137.360840
0
LINE
8
Layer 1
10
141.633000
20
137.869000
11
141.651300
21
138.063310
0
LINE
8
Layer 1
10
139.669000
20
138.063000
11
139.687300
21
137.868690
0
LINE
8
Layer 1
10
141.487000
20
137.514000
11
141.576200
21
137.683170
0
LINE
8
Layer 1
10
139.836000
20
138.614000
11
139.744600
21
138.442550
0
LINE
8
Layer 1
10
139.745000
20
138.443000
11
139.687800
21
138.257840
0
LINE
8
Layer 1
10
141.210000
20
138.888000
11
141.040830
21
138.979400
0
LINE
8
Layer 1
10
139.960000
20
138.765000
11
139.836000
21
138.614000
0
LINE
8
Layer 1
10
141.361000
20
138.765000
11
141.210120
21
138.888450
0
LINE
8
Layer 1
10
140.856000
20
139.037000
11
140.661690
21
139.055300
0
LINE
8
Layer 1
10
141.041000
20
138.980000
11
140.855840
21
139.037200
0
LINE
8
Layer 1
10
139.688000
20
138.257000
11
139.669700
21
138.062690
0
LINE
8
Layer 1
10
140.282000
20
138.980000
11
140.110550
21
138.888600
0
LINE
8
Layer 1
10
139.960000
20
137.361000
11
140.110870
21
137.237560
0
LINE
8
Layer 1
10
141.633000
20
138.257000
11
141.575900
21
138.442160
0
LINE
8
Layer 1
10
141.210000
20
137.238000
11
141.360870
21
137.361440
0
LINE
8
Layer 1
10
140.467000
20
137.091000
11
140.661310
21
137.070400
0
LINE
8
Layer 1
10
140.111000
20
138.888000
11
139.960120
21
138.764550
0
LINE
8
Layer 1
10
140.467000
20
139.037000
11
140.281820
21
138.979900
0
LINE
8
Layer 1
10
140.856000
20
137.091000
11
141.041170
21
137.145900
0
LINE
8
Layer 1
10
141.576000
20
138.442000
11
141.486800
21
138.613450
0
LINE
8
Layer 1
10
141.041000
20
137.146000
11
141.210160
21
137.237400
0
LINE
8
Layer 1
10
140.662000
20
139.055000
11
140.467690
21
139.036700
0
LINE
8
Layer 1
10
140.662000
20
137.071000
11
140.856300
21
137.091600
0
LINE
8
Layer 1
10
140.111000
20
137.238000
11
140.282440
21
137.146600
0
LINE
8
Layer 1
10
141.651000
20
138.063000
11
141.632700
21
138.257310
0
LINE
8
Layer 1
10
140.282000
20
137.146000
11
140.467170
21
137.091100
0
LINE
8
Layer 1
10
141.487000
20
138.614000
11
141.361270
21
138.764870
0
LINE
8
Layer 1
10
262.363000
20
189.571000
11
262.420200
21
189.385840
0
LINE
8
Layer 1
10
264.036000
20
189.064000
11
264.161730
21
189.217160
0
LINE
8
Layer 1
10
264.251000
20
189.386000
11
264.308200
21
189.571160
0
LINE
8
Layer 1
10
262.420000
20
189.386000
11
262.511400
21
189.216830
0
LINE
8
Layer 1
10
262.512000
20
189.217000
11
262.635430
21
189.063840
0
LINE
8
Layer 1
10
264.309000
20
189.571000
11
264.327300
21
189.765310
0
LINE
8
Layer 1
10
262.345000
20
189.766000
11
262.363300
21
189.571690
0
LINE
8
Layer 1
10
264.162000
20
189.217000
11
264.251200
21
189.386170
0
LINE
8
Layer 1
10
262.512000
20
190.317000
11
262.420600
21
190.145550
0
LINE
8
Layer 1
10
262.420000
20
190.145000
11
262.362800
21
189.959830
0
LINE
8
Layer 1
10
263.886000
20
190.591000
11
263.716840
21
190.682400
0
LINE
8
Layer 1
10
262.635000
20
190.468000
11
262.511560
21
190.317120
0
LINE
8
Layer 1
10
264.036000
20
190.468000
11
263.885110
21
190.591440
0
LINE
8
Layer 1
10
263.531000
20
190.740000
11
263.336700
21
190.758300
0
LINE
8
Layer 1
10
263.716000
20
190.682000
11
263.530830
21
190.739200
0
LINE
8
Layer 1
10
262.363000
20
189.960000
11
262.344700
21
189.765690
0
LINE
8
Layer 1
10
262.957000
20
190.682000
11
262.785550
21
190.590600
0
LINE
8
Layer 1
10
262.635000
20
189.064000
11
262.785870
21
188.940560
0
LINE
8
Layer 1
10
264.308000
20
189.960000
11
264.250800
21
190.145170
0
LINE
8
Layer 1
10
263.886000
20
188.940000
11
264.036870
21
189.063440
0
LINE
8
Layer 1
10
263.143000
20
188.794000
11
263.337310
21
188.773400
0
LINE
8
Layer 1
10
262.786000
20
190.591000
11
262.635120
21
190.467560
0
LINE
8
Layer 1
10
263.143000
20
190.740000
11
262.957830
21
190.682900
0
LINE
8
Layer 1
10
263.531000
20
188.794000
11
263.716170
21
188.848900
0
LINE
8
Layer 1
10
264.251000
20
190.145000
11
264.161800
21
190.316450
0
LINE
8
Layer 1
10
263.716000
20
188.849000
11
263.885160
21
188.940400
0
LINE
8
Layer 1
10
263.337000
20
190.758000
11
263.142690
21
190.739700
0
LINE
8
Layer 1
10
263.337000
20
188.773000
11
263.531300
21
188.793600
0
LINE
8
Layer 1
10
262.786000
20
188.940000
11
262.957450
21
188.848600
0
LINE
8
Layer 1
10
264.327000
20
189.766000
11
264.308700
21
189.960310
0
LINE
8
Layer 1
10
262.957000
20
188.849000
11
263.142160
21
188.794100
0
LINE
8
Layer 1
10
264.162000
20
190.317000
11
264.036270
21
190.467870
 0 
ENDSEC
 0 
EOF