<?xml version="1.0" encoding="UTF-8" standalone="no"?>
<svg
   xmlns:dc="http://purl.org/dc/elements/1.1/"
   xmlns:cc="http://creativecommons.org/ns#"
   xmlns:rdf="http://www.w3.org/1999/02/22-rdf-syntax-ns#"
   xmlns:svg="http://www.w3.org/2000/svg"
   xmlns="http://www.w3.org/2000/svg"
   xmlns:sodipodi="http://sodipodi.sourceforge.net/DTD/sodipodi-0.dtd"
   xmlns:inkscape="http://www.inkscape.org/namespaces/inkscape"
   width="297mm"
   height="210mm"
   viewBox="0 0 297 210"
   version="1.1"
   id="svg859"
   inkscape:version="1.0 (4035a4fb49, 2020-05-01)"
   sodipodi:docname="pcb-outline.svg">
  <defs
     id="defs853" />
  <sodipodi:namedview
     id="base"
     pagecolor="#ffffff"
     bordercolor="#666666"
     borderopacity="1.0"
     inkscape:pageopacity="0.0"
     inkscape:pageshadow="2"
     inkscape:zoom="0.7"
     inkscape:cx="341.29322"
     inkscape:cy="582.427"
     inkscape:document-units="mm"
     inkscape:current-layer="layer1"
     inkscape:document-rotation="0"
     showgrid="false"
     inkscape:window-width="1920"
     inkscape:window-height="1017"
     inkscape:window-x="1016"
     inkscape:window-y="-8"
     inkscape:window-maximized="1" />
  <metadata
     id="metadata856">
    <rdf:RDF>
      <cc:Work
         rdf:about="">
        <dc:format>image/svg+xml</dc:format>
        <dc:type
           rdf:resource="http://purl.org/dc/dcmitype/StillImage" />
        <dc:title />
      </cc:Work>
    </rdf:RDF>
  </metadata>
  <g
     inkscape:label="レイヤー 1"
     inkscape:groupmode="layer"
     id="layer1">
    <path
       id="path1274-5-2"
       style="display:inline;fill:none;stroke:#0000ff;stroke-width:0.1;stroke-linecap:butt;stroke-linejoin:miter;stroke-miterlimit:4;stroke-dasharray:none;stroke-opacity:1"
       d="m 61.020231,83.75053 3.38582,0.36576 m 33.79724,3.7973 3.373119,0.36322 m -10.121899,-1.10998 3.37566,0.37592 m -16.891,-1.91262 3.38074,0.38608 m -67.726561,-5.84454 3.385821,0.11684 m 77.851,7.25424 3.37312,0.37084 m -27.03068,-3.048 3.38328,0.381 m 13.52042,1.53924 3.3782,0.381 m -10.1346,-1.15062 3.3782,0.38608 m -44.00042,-4.61772 3.38582,0.29464 m -6.77418,-0.56896 3.38836,0.27432 m -30.492701,-1.7018 3.38836,0.0889 m 44.038521,3.22326 3.38836,0.3556 m 23.67788,2.65176 3.3782,0.38354 M 6.81916,80.02181 l 3.38583,0.061 m 54.201061,4.03352 3.38328,0.37084 m 6.76656,0.75946 3.38328,0.38354 m -23.69312,-2.58572 3.38582,0.35052 m -33.87598,-2.79146 3.38836,0.19304 m -6.77672,-0.36322 3.38836,0.17018 M 0.05005,79.99899 l 3.38329,-0.005 m 23.710911,0.80264 3.38836,0.2159 m 13.5509,1.0668 3.38836,0.30988 m 0,0 3.38836,0.32258 m -33.88106,-2.42316 3.38836,0.14478 m 30.4927,2.27838 3.38582,0.33274 m -23.71344,-2.032 3.38836,0.23876 M 3.43334,79.99399 6.81916,80.02189 M 117.55299,63.6008 117.56309,0.05 m -83.642179,81.20125 3.38836,0.25908 m 30.48,2.97688 3.38328,0.37846 M 24.060631,1.92706 25.670991,1.55368 M 3.00401,12.44266 3.84475,11.57144 M 30.486831,0.66976 32.071791,0.45894 M 0.11856,18.11194 0.31415,17.1188 M 16.23489,4.34514 17.751271,3.79142 M 10.56307,6.88768 11.90927,6.20696 M 0.31415,17.1188 0.63165,16.14344 M 33.638971,0.28876 35.178211,0.1643 m -9.50722,1.38938 1.61036,-0.33528 M 0.04998,19.1254 0.11858,18.11194 M 8.04088,8.34056 9.2702295,7.60142 M 11.90929,6.20696 13.30883,5.55418 M 9.2702295,7.60142 10.56309,6.88768 m 8.737601,-3.61696 1.56972,-0.48514 M 14.75155,4.93442 16.23491,4.34514 M 5.7879,9.9052005 6.87756,9.11018 M 27.281371,1.2184 28.889191,0.92375998 M 13.30883,5.55418 14.75155,4.93442 M 1.60703,14.25114 2.254729,13.3342 m 15.496562,-9.54278 1.5494,-0.5207 M 38.160191,0.05 h 79.402919 m -12.61362,88.58249 3.36805,0.3429 M 3.8448,11.57144 4.77444,10.72562 M 22.457911,2.33854 24.060651,1.92706 M 35.178231,0.1643 36.686991,0.083 M 0.63167,16.14342 1.06601,15.18584 M 36.686991,0.083 38.160191,0.05 M 108.31754,88.97539 117.55295,63.6008 M 4.77444,10.72562 5.7879,9.9052005 M 28.889191,0.92375998 30.486851,0.66976 m 1.58496,-0.21082 1.56718,-0.17018 M 2.25473,13.3342 3.00403,12.44266 m 17.866381,-9.65708 1.5875,-0.44704 M 6.87753,9.11018 8.04085,8.34056 m -6.97484,6.8453 0.54102,-0.93472 M 0.05,19.1254 v 60.87361 m 101.52637,8.27786 3.37312,0.3556" />
  </g>
</svg>
