<?xml version="1.0" encoding="UTF-8" standalone="no"?>
<svg
   xmlns:dc="http://purl.org/dc/elements/1.1/"
   xmlns:cc="http://creativecommons.org/ns#"
   xmlns:rdf="http://www.w3.org/1999/02/22-rdf-syntax-ns#"
   xmlns:svg="http://www.w3.org/2000/svg"
   xmlns="http://www.w3.org/2000/svg"
   xmlns:sodipodi="http://sodipodi.sourceforge.net/DTD/sodipodi-0.dtd"
   xmlns:inkscape="http://www.inkscape.org/namespaces/inkscape"
   version="1.1"
   width="41.998900cm"
   height="29.700220cm"
   viewBox="0 0 165350 116930"
   id="svg2656"
   sodipodi:docname="atom-gasket-plate.svg"
   inkscape:version="1.0 (4035a4fb49, 2020-05-01)">
  <metadata
     id="metadata2662">
    <rdf:RDF>
      <cc:Work
         rdf:about="">
        <dc:format>image/svg+xml</dc:format>
        <dc:type
           rdf:resource="http://purl.org/dc/dcmitype/StillImage" />
        <dc:title>SVG Picture created as atom-brd.svg date 2021/01/07 13:43:48 </dc:title>
      </cc:Work>
    </rdf:RDF>
  </metadata>
  <defs
     id="defs2660" />
  <sodipodi:namedview
     inkscape:document-rotation="0"
     pagecolor="#ffffff"
     bordercolor="#666666"
     borderopacity="1"
     objecttolerance="10"
     gridtolerance="10"
     guidetolerance="10"
     inkscape:pageopacity="0"
     inkscape:pageshadow="2"
     inkscape:window-width="1618"
     inkscape:window-height="1040"
     id="namedview2658"
     showgrid="false"
     inkscape:zoom="0.54677361"
     inkscape:cx="635.74146"
     inkscape:cy="169.64621"
     inkscape:window-x="1310"
     inkscape:window-y="0"
     inkscape:window-maximized="0"
     inkscape:current-layer="svg2656" />
  <title
     id="title2">SVG Picture created as atom-brd.svg date 2021/01/07 13:43:48 </title>
  <desc
     id="desc4">Picture generated by PCBNEW </desc>
  <g
     style="fill:#000000; fill-opacity:1;stroke:#000000; stroke-opacity:1; stroke-linecap:round; stroke-linejoin:round;"
     transform="translate(0 0) scale(1 1)"
     id="g6" />
  <g
     style="fill:#000000; fill-opacity:0.0;  stroke:#000000; stroke-width:-0.000393701; stroke-opacity:1;  stroke-linecap:round; stroke-linejoin:round;"
     id="g8" />
  <g
     style="fill:#000000; fill-opacity:0.0;  stroke:#000000; stroke-width:39.3701; stroke-opacity:1;  stroke-linecap:round; stroke-linejoin:round;"
     id="g10" />
  <g
     style="fill:#000000; fill-opacity:0.0;  stroke:#000000; stroke-width:39.3701; stroke-opacity:1;  stroke-linecap:round; stroke-linejoin:round;"
     id="g16" />
  <g
     style="fill:#000000; fill-opacity:0.0;  stroke:#000000; stroke-width:39.3701; stroke-opacity:1;  stroke-linecap:round; stroke-linejoin:round;"
     id="g22" />
  <g
     style="fill:#000000; fill-opacity:0.0;  stroke:#000000; stroke-width:39.3701; stroke-opacity:1;  stroke-linecap:round; stroke-linejoin:round;"
     id="g28" />
  <g
     style="fill:#000000; fill-opacity:0.0;  stroke:#000000; stroke-width:39.3701; stroke-opacity:1;  stroke-linecap:round; stroke-linejoin:round;"
     id="g34" />
  <g
     style="fill:#000000; fill-opacity:0.0;  stroke:#000000; stroke-width:39.3701; stroke-opacity:1;  stroke-linecap:round; stroke-linejoin:round;"
     id="g40" />
  <g
     style="fill:#000000; fill-opacity:0.0;  stroke:#000000; stroke-width:39.3701; stroke-opacity:1;  stroke-linecap:round; stroke-linejoin:round;"
     id="g46" />
  <g
     style="fill:#000000; fill-opacity:0.0;  stroke:#000000; stroke-width:39.3701; stroke-opacity:1;  stroke-linecap:round; stroke-linejoin:round;"
     id="g52" />
  <g
     style="fill:#000000; fill-opacity:0.0;  stroke:#000000; stroke-width:39.3701; stroke-opacity:1;  stroke-linecap:round; stroke-linejoin:round;"
     id="g58" />
  <g
     style="fill:#000000; fill-opacity:0.0;  stroke:#000000; stroke-width:39.3701; stroke-opacity:1;  stroke-linecap:round; stroke-linejoin:round;"
     id="g64" />
  <g
     style="fill:#000000; fill-opacity:0.0;  stroke:#000000; stroke-width:39.3701; stroke-opacity:1;  stroke-linecap:round; stroke-linejoin:round;"
     id="g70" />
  <g
     style="fill:#000000; fill-opacity:0.0;  stroke:#000000; stroke-width:39.3701; stroke-opacity:1;  stroke-linecap:round; stroke-linejoin:round;"
     id="g80" />
  <g
     style="fill:#000000; fill-opacity:0.0;  stroke:#000000; stroke-width:39.3701; stroke-opacity:1;  stroke-linecap:round; stroke-linejoin:round;"
     id="g88" />
  <g
     style="fill:#000000; fill-opacity:0.0;  stroke:#000000; stroke-width:39.3701; stroke-opacity:1;  stroke-linecap:round; stroke-linejoin:round;"
     id="g96" />
  <g
     style="fill:#000000; fill-opacity:0.0;  stroke:#000000; stroke-width:39.3701; stroke-opacity:1;  stroke-linecap:round; stroke-linejoin:round;"
     id="g106" />
  <g
     style="fill:#000000; fill-opacity:0.0;  stroke:#000000; stroke-width:39.3701; stroke-opacity:1;  stroke-linecap:round; stroke-linejoin:round;"
     id="g114" />
  <g
     style="fill:#000000; fill-opacity:0.0;  stroke:#000000; stroke-width:39.3701; stroke-opacity:1;  stroke-linecap:round; stroke-linejoin:round;"
     id="g122" />
  <g
     style="fill:#000000; fill-opacity:0.0;  stroke:#000000; stroke-width:39.3701; stroke-opacity:1;  stroke-linecap:round; stroke-linejoin:round;"
     id="g130" />
  <g
     style="fill:#000000; fill-opacity:0.0;  stroke:#000000; stroke-width:39.3701; stroke-opacity:1;  stroke-linecap:round; stroke-linejoin:round;"
     id="g138" />
  <g
     style="fill:#000000; fill-opacity:0.0;  stroke:#000000; stroke-width:39.3701; stroke-opacity:1;  stroke-linecap:round; stroke-linejoin:round;"
     id="g144" />
  <g
     style="fill:#000000; fill-opacity:0.0;  stroke:#000000; stroke-width:39.3701; stroke-opacity:1;  stroke-linecap:round; stroke-linejoin:round;"
     id="g150" />
  <g
     style="fill:#000000; fill-opacity:0.0;  stroke:#000000; stroke-width:39.3701; stroke-opacity:1;  stroke-linecap:round; stroke-linejoin:round;"
     id="g156" />
  <g
     style="fill:#000000; fill-opacity:0.0;  stroke:#000000; stroke-width:39.3701; stroke-opacity:1;  stroke-linecap:round; stroke-linejoin:round;"
     id="g162" />
  <g
     style="fill:#000000; fill-opacity:0.0;  stroke:#000000; stroke-width:39.3701; stroke-opacity:1;  stroke-linecap:round; stroke-linejoin:round;"
     id="g168" />
  <g
     style="fill:#000000; fill-opacity:0.0;  stroke:#000000; stroke-width:39.3701; stroke-opacity:1;  stroke-linecap:round; stroke-linejoin:round;"
     id="g174" />
  <g
     style="fill:#000000; fill-opacity:0.0;  stroke:#000000; stroke-width:39.3701; stroke-opacity:1;  stroke-linecap:round; stroke-linejoin:round;"
     id="g180" />
  <g
     style="fill:#000000; fill-opacity:0.0;  stroke:#000000; stroke-width:39.3701; stroke-opacity:1;  stroke-linecap:round; stroke-linejoin:round;"
     id="g190" />
  <g
     style="fill:#000000; fill-opacity:0.0;  stroke:#000000; stroke-width:39.3701; stroke-opacity:1;  stroke-linecap:round; stroke-linejoin:round;"
     id="g198" />
  <g
     style="fill:#000000; fill-opacity:0.0;  stroke:#000000; stroke-width:39.3701; stroke-opacity:1;  stroke-linecap:round; stroke-linejoin:round;"
     id="g206" />
  <g
     style="fill:#000000; fill-opacity:0.0;  stroke:#000000; stroke-width:39.3701; stroke-opacity:1;  stroke-linecap:round; stroke-linejoin:round;"
     id="g216" />
  <g
     style="fill:#000000; fill-opacity:0.0;  stroke:#000000; stroke-width:39.3701; stroke-opacity:1;  stroke-linecap:round; stroke-linejoin:round;"
     id="g224" />
  <g
     style="fill:#000000; fill-opacity:0.0;  stroke:#000000; stroke-width:39.3701; stroke-opacity:1;  stroke-linecap:round; stroke-linejoin:round;"
     id="g232" />
  <g
     style="fill:#000000; fill-opacity:0.0;  stroke:#000000; stroke-width:39.3701; stroke-opacity:1;  stroke-linecap:round; stroke-linejoin:round;"
     id="g240" />
  <g
     style="fill:#000000; fill-opacity:0.0;  stroke:#000000; stroke-width:39.3701; stroke-opacity:1;  stroke-linecap:round; stroke-linejoin:round;"
     id="g248" />
  <g
     style="fill:#000000; fill-opacity:0.0;  stroke:#000000; stroke-width:39.3701; stroke-opacity:1;  stroke-linecap:round; stroke-linejoin:round;"
     id="g254" />
  <g
     style="fill:#000000; fill-opacity:0.0;  stroke:#000000; stroke-width:39.3701; stroke-opacity:1;  stroke-linecap:round; stroke-linejoin:round;"
     id="g260" />
  <g
     style="fill:#000000; fill-opacity:0.0;  stroke:#000000; stroke-width:39.3701; stroke-opacity:1;  stroke-linecap:round; stroke-linejoin:round;"
     id="g266" />
  <g
     style="fill:#000000; fill-opacity:0.0;  stroke:#000000; stroke-width:39.3701; stroke-opacity:1;  stroke-linecap:round; stroke-linejoin:round;"
     id="g272" />
  <g
     style="fill:#000000; fill-opacity:0.0;  stroke:#000000; stroke-width:39.3701; stroke-opacity:1;  stroke-linecap:round; stroke-linejoin:round;"
     id="g278" />
  <g
     style="fill:#000000; fill-opacity:0.0;  stroke:#000000; stroke-width:39.3701; stroke-opacity:1;  stroke-linecap:round; stroke-linejoin:round;"
     id="g288" />
  <g
     style="fill:#000000; fill-opacity:0.0;  stroke:#000000; stroke-width:39.3701; stroke-opacity:1;  stroke-linecap:round; stroke-linejoin:round;"
     id="g296" />
  <g
     style="fill:#000000; fill-opacity:0.0;  stroke:#000000; stroke-width:39.3701; stroke-opacity:1;  stroke-linecap:round; stroke-linejoin:round;"
     id="g304" />
  <g
     style="fill:#000000; fill-opacity:0.0;  stroke:#000000; stroke-width:39.3701; stroke-opacity:1;  stroke-linecap:round; stroke-linejoin:round;"
     id="g312" />
  <g
     style="fill:#000000; fill-opacity:0.0;  stroke:#000000; stroke-width:39.3701; stroke-opacity:1;  stroke-linecap:round; stroke-linejoin:round;"
     id="g322" />
  <g
     style="fill:#000000; fill-opacity:0.0;  stroke:#000000; stroke-width:39.3701; stroke-opacity:1;  stroke-linecap:round; stroke-linejoin:round;"
     id="g332" />
  <g
     style="fill:#000000; fill-opacity:0.0;  stroke:#000000; stroke-width:39.3701; stroke-opacity:1;  stroke-linecap:round; stroke-linejoin:round;"
     id="g338" />
  <g
     style="fill:#000000; fill-opacity:0.0;  stroke:#000000; stroke-width:39.3701; stroke-opacity:1;  stroke-linecap:round; stroke-linejoin:round;"
     id="g344" />
  <g
     style="fill:#000000; fill-opacity:0.0;  stroke:#000000; stroke-width:39.3701; stroke-opacity:1;  stroke-linecap:round; stroke-linejoin:round;"
     id="g350" />
  <g
     style="fill:#000000; fill-opacity:0.0;  stroke:#000000; stroke-width:39.3701; stroke-opacity:1;  stroke-linecap:round; stroke-linejoin:round;"
     id="g356" />
  <g
     style="fill:#000000; fill-opacity:0.0;  stroke:#000000; stroke-width:39.3701; stroke-opacity:1;  stroke-linecap:round; stroke-linejoin:round;"
     id="g362" />
  <g
     style="fill:#000000; fill-opacity:0.0;  stroke:#000000; stroke-width:39.3701; stroke-opacity:1;  stroke-linecap:round; stroke-linejoin:round;"
     id="g372" />
  <g
     style="fill:#000000; fill-opacity:0.0;  stroke:#000000; stroke-width:39.3701; stroke-opacity:1;  stroke-linecap:round; stroke-linejoin:round;"
     id="g380" />
  <g
     style="fill:#000000; fill-opacity:0.0;  stroke:#000000; stroke-width:39.3701; stroke-opacity:1;  stroke-linecap:round; stroke-linejoin:round;"
     id="g388" />
  <g
     style="fill:#000000; fill-opacity:0.0;  stroke:#000000; stroke-width:39.3701; stroke-opacity:1;  stroke-linecap:round; stroke-linejoin:round;"
     id="g396" />
  <g
     style="fill:#000000; fill-opacity:0.0;  stroke:#000000; stroke-width:39.3701; stroke-opacity:1;  stroke-linecap:round; stroke-linejoin:round;"
     id="g406" />
  <g
     style="fill:#000000; fill-opacity:0.0;  stroke:#000000; stroke-width:39.3701; stroke-opacity:1;  stroke-linecap:round; stroke-linejoin:round;"
     id="g416" />
  <g
     style="fill:#000000; fill-opacity:0.0;  stroke:#000000; stroke-width:39.3701; stroke-opacity:1;  stroke-linecap:round; stroke-linejoin:round;"
     id="g462" />
  <g
     style="fill:#000000; fill-opacity:0.0;  stroke:#000000; stroke-width:39.3701; stroke-opacity:1;  stroke-linecap:round; stroke-linejoin:round;"
     id="g468" />
  <g
     style="fill:#000000; fill-opacity:0.0;  stroke:#000000; stroke-width:39.3701; stroke-opacity:1;  stroke-linecap:round; stroke-linejoin:round;"
     id="g552" />
  <g
     style="fill:#000000; fill-opacity:0.0;  stroke:#000000; stroke-width:39.3701; stroke-opacity:1;  stroke-linecap:round; stroke-linejoin:round;"
     id="g558" />
  <g
     style="fill:#000000; fill-opacity:0.0;  stroke:#000000; stroke-width:39.3701; stroke-opacity:1;  stroke-linecap:round; stroke-linejoin:round;"
     id="g590" />
  <g
     style="fill:#000000; fill-opacity:0.0;  stroke:#000000; stroke-width:39.3701; stroke-opacity:1;  stroke-linecap:round; stroke-linejoin:round;"
     id="g616" />
  <g
     style="fill:#000000; fill-opacity:0.0;  stroke:#000000; stroke-width:39.3701; stroke-opacity:1;  stroke-linecap:round; stroke-linejoin:round;"
     id="g642" />
  <g
     style="fill:#000000; fill-opacity:0.0;  stroke:#000000; stroke-width:39.3701; stroke-opacity:1;  stroke-linecap:round; stroke-linejoin:round;"
     id="g648" />
  <g
     style="fill:#000000; fill-opacity:0.0;  stroke:#000000; stroke-width:39.3701; stroke-opacity:1;  stroke-linecap:round; stroke-linejoin:round;"
     id="g690" />
  <g
     style="fill:#000000; fill-opacity:0.0;  stroke:#000000; stroke-width:39.3701; stroke-opacity:1;  stroke-linecap:round; stroke-linejoin:round;"
     id="g762" />
  <g
     style="fill:#000000; fill-opacity:0.0;  stroke:#000000; stroke-width:39.3701; stroke-opacity:1;  stroke-linecap:round; stroke-linejoin:round;"
     id="g768" />
  <g
     style="fill:#000000; fill-opacity:0.0;  stroke:#000000; stroke-width:39.3701; stroke-opacity:1;  stroke-linecap:round; stroke-linejoin:round;"
     id="g792" />
  <g
     style="fill:#000000; fill-opacity:0.0;  stroke:#000000; stroke-width:39.3701; stroke-opacity:1;  stroke-linecap:round; stroke-linejoin:round;"
     id="g798" />
  <g
     style="fill:#008400; fill-opacity:0.0;  stroke:#008400; stroke-width:59.0551; stroke-opacity:1;  stroke-linecap:round; stroke-linejoin:round;"
     id="g804" />
  <g
     style="fill:#000000; fill-opacity:0.0;  stroke:#000000; stroke-width:78.7402; stroke-opacity:1;  stroke-linecap:round; stroke-linejoin:round;"
     id="g2050" />
  <g
     style="fill:#008400;fill-opacity:0;stroke:#008400;stroke-width:78.7402;stroke-linecap:round;stroke-linejoin:round;stroke-opacity:1"
     id="g2048"
     transform="translate(24517.579,33677.995)">
    <g
       id="g1846" />
    <g
       id="g1848" />
    <g
       id="g1850" />
    <g
       id="g1852" />
    <g
       id="g1854" />
    <g
       id="g1856" />
    <g
       id="g1858" />
    <g
       id="g1860" />
    <g
       id="g1862" />
    <g
       id="g1864" />
    <g
       id="g1866" />
    <g
       id="g1868" />
    <g
       id="g1870" />
    <g
       id="g1872" />
    <g
       id="g1874" />
    <g
       id="g1876" />
    <g
       id="g1878" />
    <g
       id="g1880" />
    <g
       id="g1882" />
    <g
       id="g1884" />
    <g
       id="g1886" />
    <g
       id="g1888" />
    <g
       id="g1890" />
    <g
       id="g1892" />
    <g
       id="g1894" />
    <g
       id="g1896" />
    <g
       id="g1898" />
    <g
       id="g1900" />
    <g
       id="g1902" />
    <g
       id="g1904" />
    <g
       id="g1906" />
    <g
       id="g1908" />
    <g
       id="g1910" />
    <g
       id="g1912" />
    <g
       id="g1914" />
    <g
       id="g1916" />
    <g
       id="g1918" />
    <g
       id="g1920" />
    <g
       id="g1922" />
    <g
       id="g1924" />
    <g
       id="g1926" />
    <g
       id="g1928" />
    <g
       id="g1930" />
    <g
       id="g1932" />
    <g
       id="g1934" />
    <g
       id="g1936" />
    <g
       id="g1938" />
    <g
       id="g1940" />
    <g
       id="g1942" />
    <g
       id="g1944" />
    <g
       id="g1946" />
    <g
       id="g1948" />
    <g
       id="g1950" />
    <g
       id="g1952" />
    <g
       id="g1954" />
    <g
       id="g1956" />
    <g
       id="g1958" />
    <g
       id="g1960" />
    <g
       id="g1962" />
    <g
       id="g1964" />
    <g
       id="g1966" />
    <g
       id="g1968" />
    <g
       id="g1970" />
    <g
       id="g1972" />
    <g
       id="g1974" />
    <g
       id="g1976" />
    <g
       id="g1978" />
    <g
       id="g1980" />
    <g
       id="g1982" />
    <g
       id="g1984" />
    <g
       id="g1986" />
    <g
       id="g1988" />
    <g
       id="g1990" />
    <g
       id="g1992" />
    <g
       id="g1994" />
    <g
       id="g1996" />
    <g
       id="g1998" />
    <g
       id="g2000" />
    <g
       id="g2002" />
    <g
       id="g2004" />
    <g
       id="g2006" />
    <g
       id="g2008" />
    <g
       id="g2010" />
    <g
       id="g2012" />
    <g
       id="g2014" />
    <g
       id="g2016" />
    <g
       id="g2018" />
    <g
       id="g2020" />
    <g
       id="g2022" />
    <g
       id="g2024" />
    <g
       id="g2026" />
    <g
       id="g2028" />
    <g
       id="g2030" />
    <g
       id="g2032" />
    <g
       id="g2034" />
    <g
       id="g2036" />
    <g
       id="g2038" />
    <g
       id="g2040" />
    <g
       id="g2042" />
    <g
       id="g2044" />
    <g
       id="g2046" />
    <g
       style="fill:#c2c200;fill-opacity:0;stroke:#c2c200;stroke-width:78.7402;stroke-linecap:round;stroke-linejoin:round;stroke-opacity:1"
       id="g2654-1-2"
       transform="matrix(1.1127667,0,0,1.1813364,-24091.778,-35886.012)">
      <path
         d="m 21907,7116 618,4 m -1245,2 627,-6 m -1261,21 634,-15 m -1274,41 640,-26 m -1283,64 643,-38 m -1288,87 645,-49 m -1290,110 645,-61 m -1288,136 643,-75 m -1282,163 639,-88 m -1272,190 633,-102 m -1259,219 626,-117 m -1241,249 615,-132 m -1220,280 605,-148 m -1196,313 591,-165 m -1167,347 576,-182 m -1135,381 559,-199 m -1099,417 540,-218 m -1059,455 519,-237 m -1015,494 496,-257 m -968,534 472,-277 m -917,575 445,-298 m -862,617 417,-319 m -803,660 386,-341 m -741,704 355,-363 m -675,750 320,-387 m -605,798 285,-411 m -531,846 246,-435 m -453,895 207,-460 m -373,946 166,-486 m -288,998 122,-512 m -198,1050 76,-538 m -105,1105 29,-567 m 3,24526 h -42 m 165,0 h -123 m 324,0 h -201 m 475,1 -274,-1 m 616,2 -342,-1 m 750,3 -408,-2 m 876,4 -468,-2 m 993,5 -525,-3 m 1103,6 -578,-3 m 1204,8 -626,-5 m 1295,11 -669,-6 m 1379,12 -710,-6 m 1456,14 -746,-8 m 1524,17 -778,-9 m 1583,20 -805,-11 m 1633,23 -828,-12 m 1676,25 -848,-13 m 1711,28 -863,-15 m 1738,32 -875,-17 m 1756,36 -881,-19 m 1765,40 -884,-21 m 1766,44 -882,-23 m 1759,48 -877,-25 m 1745,52 -868,-27 m 1722,57 -854,-30 m 1690,62 -836,-32 m 1650,67 -814,-35 m 1601,72 -787,-37 m 1545,77 -758,-40 m 1481,83 -723,-43 m 1407,89 -684,-46 m 1326,95 -642,-49 M 54654.251,7105 22525,7119 m 7013,32079 -844,-73 m 1664,150 -820,-77 m 1616,159 -796,-82 m 1566,169 -770,-87 m 1516,176 -746,-89 m 1466,182 -720,-93 m 1415,189 -695,-96 m 1364,193 -669,-97 m 1313,197 -644,-100 m 1262,200 -618,-100 m 1210,201 -592,-101 m 1158,203 -566,-102 m 1106,203 -540,-101 m 1054,201 -514,-100 m 1001,199 -487,-99 m 947,197 -460,-98 m 894,193 -434,-95 m 841,188 -407,-93 m 786,182 -379,-89 m 732,175 -353,-86 m 678,168 -325,-82 m 622,159 -297,-77 m 567,149 -270,-72 m 513,139 -243,-67 m 457,127 -214,-60 m 400,114 -186,-54 m 344,101 -158,-47 m 287,87 -129,-40 m 230,71 -101,-31 m 231,73 -130,-42 M 7505,14625 7495,38584 m 47158.251,-11210.907 7128.612,2554.429 m -7128.612,-2554.429 1,-20268.093 m 7127.612,22822.522 -5943.226,16258.377 M 42802,41556 55838.637,46185.899 M 10712.539,16632.601 h 4952.521 m 0,0 v 4665.056 m 8545.367,-6352.975 v -4665.055 m -6757.93,6252.241 v -4665.056 m 4952.52,4665.056 h -4952.52 m 11710.451,-6252.241 v 4665.055 m 1769.463,-1486.452 h 4952.521 M 22405.017,11866.812 v 4665.056 m -4952.52,-4665.056 h 4952.52 m -11692.478,9430.845 v -4665.056 m 18450.409,-1687.919 h -4952.521 m 0,-4665.055 h 4952.521 M 15665.06,21297.657 h -4952.521 m 31916.843,-1591.418 h -4952.52 m 4952.52,-4665.056 v 4665.056 m 4000.839,8314.312 4655.064,1595.65 m -6349.04,2789.214 1693.976,-4384.864 M 37676.862,15041.183 h 4952.52 M 30932.411,18123.286 V 13458.23 m 6744.451,6248.009 v -4665.056 m -1791.93,3082.103 h -4952.521 m 4952.521,-4665.056 v 4665.056 m 15400.353,11492.915 -1693.976,4384.865 m 0,0 -4655.064,-1595.651 M 30936.904,24467.795 V 19802.74 m -6739.957,-3174.371 h 4952.521 m -6744.451,1604.115 v 4665.055 m -4952.52,0 v -4665.055 m 18436.928,6235.311 h -4952.521 m -20215.378,3178.603 v -4665.055 m 18427.942,-1688.765 h -4952.521 m 0,0 v -4664.209 m -1791.93,6269.17 h -4952.52 m -1778.45,4748.859 H 10721.526 M 29149.468,16628.369 v 4664.209 m -13475.421,1688.765 v 4665.055 M 35889.425,19802.74 v 4665.055 M 17452.497,18232.484 h 4952.52 m -11683.491,4748.859 h 4952.521 m 1778.45,12600.983 V 30917.27 m 18450.408,-104.966 h -4952.521 m -1796.423,3178.604 H 24201.44 m -1796.423,1591.418 h -4952.52 m 34358.504,-2406.597 4655.064,1595.651 m -1693.976,4384.865 -4655.064,-1595.651 M 37676.862,27738.667 h 4952.52 M 24201.44,33990.908 v -4665.056 m 4952.521,-1675.221 H 24201.44 m 4952.521,-4665.056 v 4665.056 m -6748.944,3266.639 v 4665.056 M 24201.44,27650.631 V 22985.575 M 56466.065,34771.38 54772.089,39156.245 M 42629.382,27738.667 v 4665.055 M 24201.44,22985.575 h 4952.521 m 1796.423,7826.729 v -4665.055 m 11678.998,6256.473 h -4952.52 m -1773.957,-6256.473 v 4665.055 m -4952.521,-4665.055 h 4952.521 m -6748.944,3178.603 v 4665.056 m 20963.064,3569.686 1693.976,-4384.865 M 17452.497,30917.27 h 4952.52 m 15271.845,1486.452 V 27738.667 M 24201.44,29325.852 h 4952.521 m -13497.888,16.93 v 4665.056 m 0,0 h -4952.52 M 22396.031,29237.816 H 17443.51 m 4952.521,-4665.055 v 4665.055 M 42620.396,26067.678 H 37667.875 M 17443.51,24572.761 h 4952.521 M 47286.243,39960.419 42631.18,38364.768 m 0,0 1693.975,-4384.865 M 10703.553,29342.782 h 4952.52 m 33324.146,6232.772 -1693.976,4384.865 m -36582.69,-5952.581 v -4665.056 m 33621.602,4637.121 4655.064,1595.651 M 37667.875,26067.678 V 21402.622 M 17443.51,29237.816 V 24572.761 M 30936.904,19802.74 h 4952.521 m 1778.45,1599.882 h 4952.521 m 0,0 v 4665.056"
         id="path2450-1-5" />
      <g
         id="g2452-5-9" />
      <g
         id="g2454-7-6" />
      <g
         id="g2456-4-3" />
      <g
         id="g2458-7-1" />
      <g
         id="g2460-8-3" />
      <g
         id="g2462-0-6" />
      <g
         id="g2464-9-7" />
      <g
         id="g2466-8-3" />
      <g
         id="g2468-7-9" />
      <g
         id="g2470-3-6" />
      <g
         id="g2472-7-5" />
      <g
         id="g2474-7-9" />
      <g
         id="g2476-9-5" />
      <g
         id="g2478-3-3" />
      <g
         id="g2480-8-8" />
      <g
         id="g2482-5-9" />
      <g
         id="g2484-6-8" />
      <g
         id="g2486-4-6" />
      <g
         id="g2488-4-9" />
      <g
         id="g2490-0-7" />
      <g
         id="g2492-8-8" />
      <g
         id="g2494-0-4" />
      <g
         id="g2496-5-4" />
      <g
         id="g2498-5-2" />
      <g
         id="g2500-1-0" />
      <g
         id="g2502-2-7" />
      <g
         id="g2504-5-3" />
      <g
         id="g2506-0-0" />
      <g
         id="g2508-7-2" />
      <g
         id="g2510-6-2" />
      <g
         id="g2512-9-8" />
      <g
         id="g2514-6-5" />
      <g
         id="g2516-2-4" />
      <g
         id="g2518-3-1" />
      <g
         id="g2520-2-5" />
      <g
         id="g2522-3-6" />
      <g
         id="g2524-4-5" />
      <g
         id="g2526-2-5" />
      <g
         id="g2528-1-1" />
      <g
         id="g2530-4-3" />
      <g
         id="g2532-3-9" />
      <g
         id="g2534-0-0" />
      <g
         id="g2536-5-0" />
      <g
         id="g2538-4-7" />
      <g
         id="g2540-9-3" />
      <g
         id="g2542-3-9" />
      <g
         id="g2544-3-5" />
      <g
         id="g2546-0-5" />
      <g
         id="g2548-2-2" />
      <g
         id="g2550-4-0" />
      <g
         id="g2552-6-9" />
      <g
         id="g2554-6-1" />
      <g
         id="g2556-7-3" />
      <g
         id="g2558-6-3" />
      <g
         id="g2560-6-7" />
      <g
         id="g2562-7-4" />
      <g
         id="g2564-7-7" />
      <g
         id="g2566-7-3" />
      <g
         id="g2568-9-5" />
      <g
         id="g2570-4-0" />
      <g
         id="g2572-4-5" />
      <g
         id="g2574-3-5" />
      <g
         id="g2576-0-9" />
      <g
         id="g2578-3-7" />
      <g
         id="g2580-9-6" />
      <g
         id="g2582-1-7" />
      <g
         id="g2584-9-4" />
      <g
         id="g2586-3-1" />
      <g
         id="g2588-3-4" />
      <g
         id="g2590-2-0" />
      <g
         id="g2592-1-8" />
      <g
         id="g2594-5-9" />
      <g
         id="g2596-6-1" />
      <g
         id="g2598-8-6" />
      <g
         id="g2600-2-9" />
      <g
         id="g2602-6-0" />
      <g
         id="g2604-0-7" />
      <g
         id="g2606-6-4" />
      <g
         id="g2608-8-6" />
      <g
         id="g2610-6-2" />
      <g
         id="g2612-2-0" />
      <g
         id="g2614-9-6" />
      <g
         id="g2616-1-8" />
      <g
         id="g2618-8-1" />
      <g
         id="g2620-4-6" />
      <g
         id="g2622-3-1" />
      <g
         id="g2624-9-8" />
      <g
         id="g2626-2-2" />
      <g
         id="g2628-3-3" />
      <g
         id="g2630-2-9" />
      <g
         id="g2632-7-2" />
      <g
         id="g2634-6-1" />
      <g
         id="g2636-2-1" />
      <g
         id="g2638-2-6" />
      <g
         id="g2640-6-1" />
      <g
         id="g2642-9-6" />
      <g
         id="g2644-3-9" />
      <g
         id="g2646-9-8" />
      <g
         id="g2648-6-4" />
      <g
         id="g2650-3-7" />
      <g
         id="g2652-3-1" />
    </g>
  </g>
</svg>
