<?xml version="1.0" encoding="UTF-8" standalone="no"?>
<svg
   xmlns:dc="http://purl.org/dc/elements/1.1/"
   xmlns:cc="http://creativecommons.org/ns#"
   xmlns:rdf="http://www.w3.org/1999/02/22-rdf-syntax-ns#"
   xmlns:svg="http://www.w3.org/2000/svg"
   xmlns="http://www.w3.org/2000/svg"
   xmlns:sodipodi="http://sodipodi.sourceforge.net/DTD/sodipodi-0.dtd"
   xmlns:inkscape="http://www.inkscape.org/namespaces/inkscape"
   inkscape:version="1.0 (4035a4fb49, 2020-05-01)"
   sodipodi:docname="atom-brd.svg"
   id="svg2656"
   viewBox="0 0 165350 116930"
   height="29.700220cm"
   width="41.998900cm"
   version="1.1">
  <metadata
     id="metadata2662">
    <rdf:RDF>
      <cc:Work
         rdf:about="">
        <dc:format>image/svg+xml</dc:format>
        <dc:type
           rdf:resource="http://purl.org/dc/dcmitype/StillImage" />
      </cc:Work>
    </rdf:RDF>
  </metadata>
  <defs
     id="defs2660" />
  <sodipodi:namedview
     inkscape:current-layer="g2048"
     inkscape:window-maximized="1"
     inkscape:window-y="-8"
     inkscape:window-x="1016"
     inkscape:cy="310.39564"
     inkscape:cx="793.68003"
     inkscape:zoom="0.77325465"
     showgrid="false"
     id="namedview2658"
     inkscape:window-height="1017"
     inkscape:window-width="1920"
     inkscape:pageshadow="2"
     inkscape:pageopacity="0"
     guidetolerance="10"
     gridtolerance="10"
     objecttolerance="10"
     borderopacity="1"
     bordercolor="#666666"
     pagecolor="#ffffff" />
  <title
     id="title2">SVG Picture created as atom-brd.svg date 2021/01/07 13:43:48 </title>
  <desc
     id="desc4">Picture generated by PCBNEW </desc>
  <g
     id="g6"
     transform="translate(0 0) scale(1 1)"
     style="fill:#000000; fill-opacity:1;stroke:#000000; stroke-opacity:1; stroke-linecap:round; stroke-linejoin:round;" />
  <g
     id="g8"
     style="fill:#000000; fill-opacity:0.0;  stroke:#000000; stroke-width:-0.000393701; stroke-opacity:1;  stroke-linecap:round; stroke-linejoin:round;" />
  <g
     id="g10"
     style="fill:#000000; fill-opacity:0.0;  stroke:#000000; stroke-width:39.3701; stroke-opacity:1;  stroke-linecap:round; stroke-linejoin:round;" />
  <g
     id="g16"
     style="fill:#000000; fill-opacity:0.0;  stroke:#000000; stroke-width:39.3701; stroke-opacity:1;  stroke-linecap:round; stroke-linejoin:round;" />
  <g
     id="g22"
     style="fill:#000000; fill-opacity:0.0;  stroke:#000000; stroke-width:39.3701; stroke-opacity:1;  stroke-linecap:round; stroke-linejoin:round;" />
  <g
     id="g28"
     style="fill:#000000; fill-opacity:0.0;  stroke:#000000; stroke-width:39.3701; stroke-opacity:1;  stroke-linecap:round; stroke-linejoin:round;" />
  <g
     id="g34"
     style="fill:#000000; fill-opacity:0.0;  stroke:#000000; stroke-width:39.3701; stroke-opacity:1;  stroke-linecap:round; stroke-linejoin:round;" />
  <g
     id="g40"
     style="fill:#000000; fill-opacity:0.0;  stroke:#000000; stroke-width:39.3701; stroke-opacity:1;  stroke-linecap:round; stroke-linejoin:round;" />
  <g
     id="g46"
     style="fill:#000000; fill-opacity:0.0;  stroke:#000000; stroke-width:39.3701; stroke-opacity:1;  stroke-linecap:round; stroke-linejoin:round;" />
  <g
     id="g52"
     style="fill:#000000; fill-opacity:0.0;  stroke:#000000; stroke-width:39.3701; stroke-opacity:1;  stroke-linecap:round; stroke-linejoin:round;" />
  <g
     id="g58"
     style="fill:#000000; fill-opacity:0.0;  stroke:#000000; stroke-width:39.3701; stroke-opacity:1;  stroke-linecap:round; stroke-linejoin:round;" />
  <g
     id="g64"
     style="fill:#000000; fill-opacity:0.0;  stroke:#000000; stroke-width:39.3701; stroke-opacity:1;  stroke-linecap:round; stroke-linejoin:round;" />
  <g
     id="g70"
     style="fill:#000000; fill-opacity:0.0;  stroke:#000000; stroke-width:39.3701; stroke-opacity:1;  stroke-linecap:round; stroke-linejoin:round;" />
  <g
     id="g80"
     style="fill:#000000; fill-opacity:0.0;  stroke:#000000; stroke-width:39.3701; stroke-opacity:1;  stroke-linecap:round; stroke-linejoin:round;" />
  <g
     id="g88"
     style="fill:#000000; fill-opacity:0.0;  stroke:#000000; stroke-width:39.3701; stroke-opacity:1;  stroke-linecap:round; stroke-linejoin:round;" />
  <g
     id="g96"
     style="fill:#000000; fill-opacity:0.0;  stroke:#000000; stroke-width:39.3701; stroke-opacity:1;  stroke-linecap:round; stroke-linejoin:round;" />
  <g
     id="g106"
     style="fill:#000000; fill-opacity:0.0;  stroke:#000000; stroke-width:39.3701; stroke-opacity:1;  stroke-linecap:round; stroke-linejoin:round;" />
  <g
     id="g114"
     style="fill:#000000; fill-opacity:0.0;  stroke:#000000; stroke-width:39.3701; stroke-opacity:1;  stroke-linecap:round; stroke-linejoin:round;" />
  <g
     id="g122"
     style="fill:#000000; fill-opacity:0.0;  stroke:#000000; stroke-width:39.3701; stroke-opacity:1;  stroke-linecap:round; stroke-linejoin:round;" />
  <g
     id="g130"
     style="fill:#000000; fill-opacity:0.0;  stroke:#000000; stroke-width:39.3701; stroke-opacity:1;  stroke-linecap:round; stroke-linejoin:round;" />
  <g
     id="g138"
     style="fill:#000000; fill-opacity:0.0;  stroke:#000000; stroke-width:39.3701; stroke-opacity:1;  stroke-linecap:round; stroke-linejoin:round;" />
  <g
     id="g144"
     style="fill:#000000; fill-opacity:0.0;  stroke:#000000; stroke-width:39.3701; stroke-opacity:1;  stroke-linecap:round; stroke-linejoin:round;" />
  <g
     id="g150"
     style="fill:#000000; fill-opacity:0.0;  stroke:#000000; stroke-width:39.3701; stroke-opacity:1;  stroke-linecap:round; stroke-linejoin:round;" />
  <g
     id="g156"
     style="fill:#000000; fill-opacity:0.0;  stroke:#000000; stroke-width:39.3701; stroke-opacity:1;  stroke-linecap:round; stroke-linejoin:round;" />
  <g
     id="g162"
     style="fill:#000000; fill-opacity:0.0;  stroke:#000000; stroke-width:39.3701; stroke-opacity:1;  stroke-linecap:round; stroke-linejoin:round;" />
  <g
     id="g168"
     style="fill:#000000; fill-opacity:0.0;  stroke:#000000; stroke-width:39.3701; stroke-opacity:1;  stroke-linecap:round; stroke-linejoin:round;" />
  <g
     id="g174"
     style="fill:#000000; fill-opacity:0.0;  stroke:#000000; stroke-width:39.3701; stroke-opacity:1;  stroke-linecap:round; stroke-linejoin:round;" />
  <g
     id="g180"
     style="fill:#000000; fill-opacity:0.0;  stroke:#000000; stroke-width:39.3701; stroke-opacity:1;  stroke-linecap:round; stroke-linejoin:round;" />
  <g
     id="g190"
     style="fill:#000000; fill-opacity:0.0;  stroke:#000000; stroke-width:39.3701; stroke-opacity:1;  stroke-linecap:round; stroke-linejoin:round;" />
  <g
     id="g198"
     style="fill:#000000; fill-opacity:0.0;  stroke:#000000; stroke-width:39.3701; stroke-opacity:1;  stroke-linecap:round; stroke-linejoin:round;" />
  <g
     id="g206"
     style="fill:#000000; fill-opacity:0.0;  stroke:#000000; stroke-width:39.3701; stroke-opacity:1;  stroke-linecap:round; stroke-linejoin:round;" />
  <g
     id="g216"
     style="fill:#000000; fill-opacity:0.0;  stroke:#000000; stroke-width:39.3701; stroke-opacity:1;  stroke-linecap:round; stroke-linejoin:round;" />
  <g
     id="g224"
     style="fill:#000000; fill-opacity:0.0;  stroke:#000000; stroke-width:39.3701; stroke-opacity:1;  stroke-linecap:round; stroke-linejoin:round;" />
  <g
     id="g232"
     style="fill:#000000; fill-opacity:0.0;  stroke:#000000; stroke-width:39.3701; stroke-opacity:1;  stroke-linecap:round; stroke-linejoin:round;" />
  <g
     id="g240"
     style="fill:#000000; fill-opacity:0.0;  stroke:#000000; stroke-width:39.3701; stroke-opacity:1;  stroke-linecap:round; stroke-linejoin:round;" />
  <g
     id="g248"
     style="fill:#000000; fill-opacity:0.0;  stroke:#000000; stroke-width:39.3701; stroke-opacity:1;  stroke-linecap:round; stroke-linejoin:round;" />
  <g
     id="g254"
     style="fill:#000000; fill-opacity:0.0;  stroke:#000000; stroke-width:39.3701; stroke-opacity:1;  stroke-linecap:round; stroke-linejoin:round;" />
  <g
     id="g260"
     style="fill:#000000; fill-opacity:0.0;  stroke:#000000; stroke-width:39.3701; stroke-opacity:1;  stroke-linecap:round; stroke-linejoin:round;" />
  <g
     id="g266"
     style="fill:#000000; fill-opacity:0.0;  stroke:#000000; stroke-width:39.3701; stroke-opacity:1;  stroke-linecap:round; stroke-linejoin:round;" />
  <g
     id="g272"
     style="fill:#000000; fill-opacity:0.0;  stroke:#000000; stroke-width:39.3701; stroke-opacity:1;  stroke-linecap:round; stroke-linejoin:round;" />
  <g
     id="g278"
     style="fill:#000000; fill-opacity:0.0;  stroke:#000000; stroke-width:39.3701; stroke-opacity:1;  stroke-linecap:round; stroke-linejoin:round;" />
  <g
     id="g288"
     style="fill:#000000; fill-opacity:0.0;  stroke:#000000; stroke-width:39.3701; stroke-opacity:1;  stroke-linecap:round; stroke-linejoin:round;" />
  <g
     id="g296"
     style="fill:#000000; fill-opacity:0.0;  stroke:#000000; stroke-width:39.3701; stroke-opacity:1;  stroke-linecap:round; stroke-linejoin:round;" />
  <g
     id="g304"
     style="fill:#000000; fill-opacity:0.0;  stroke:#000000; stroke-width:39.3701; stroke-opacity:1;  stroke-linecap:round; stroke-linejoin:round;" />
  <g
     id="g312"
     style="fill:#000000; fill-opacity:0.0;  stroke:#000000; stroke-width:39.3701; stroke-opacity:1;  stroke-linecap:round; stroke-linejoin:round;" />
  <g
     id="g322"
     style="fill:#000000; fill-opacity:0.0;  stroke:#000000; stroke-width:39.3701; stroke-opacity:1;  stroke-linecap:round; stroke-linejoin:round;" />
  <g
     id="g332"
     style="fill:#000000; fill-opacity:0.0;  stroke:#000000; stroke-width:39.3701; stroke-opacity:1;  stroke-linecap:round; stroke-linejoin:round;" />
  <g
     id="g338"
     style="fill:#000000; fill-opacity:0.0;  stroke:#000000; stroke-width:39.3701; stroke-opacity:1;  stroke-linecap:round; stroke-linejoin:round;" />
  <g
     id="g344"
     style="fill:#000000; fill-opacity:0.0;  stroke:#000000; stroke-width:39.3701; stroke-opacity:1;  stroke-linecap:round; stroke-linejoin:round;" />
  <g
     id="g350"
     style="fill:#000000; fill-opacity:0.0;  stroke:#000000; stroke-width:39.3701; stroke-opacity:1;  stroke-linecap:round; stroke-linejoin:round;" />
  <g
     id="g356"
     style="fill:#000000; fill-opacity:0.0;  stroke:#000000; stroke-width:39.3701; stroke-opacity:1;  stroke-linecap:round; stroke-linejoin:round;" />
  <g
     id="g362"
     style="fill:#000000; fill-opacity:0.0;  stroke:#000000; stroke-width:39.3701; stroke-opacity:1;  stroke-linecap:round; stroke-linejoin:round;" />
  <g
     id="g372"
     style="fill:#000000; fill-opacity:0.0;  stroke:#000000; stroke-width:39.3701; stroke-opacity:1;  stroke-linecap:round; stroke-linejoin:round;" />
  <g
     id="g380"
     style="fill:#000000; fill-opacity:0.0;  stroke:#000000; stroke-width:39.3701; stroke-opacity:1;  stroke-linecap:round; stroke-linejoin:round;" />
  <g
     id="g388"
     style="fill:#000000; fill-opacity:0.0;  stroke:#000000; stroke-width:39.3701; stroke-opacity:1;  stroke-linecap:round; stroke-linejoin:round;" />
  <g
     id="g396"
     style="fill:#000000; fill-opacity:0.0;  stroke:#000000; stroke-width:39.3701; stroke-opacity:1;  stroke-linecap:round; stroke-linejoin:round;" />
  <g
     id="g406"
     style="fill:#000000; fill-opacity:0.0;  stroke:#000000; stroke-width:39.3701; stroke-opacity:1;  stroke-linecap:round; stroke-linejoin:round;" />
  <g
     id="g416"
     style="fill:#000000; fill-opacity:0.0;  stroke:#000000; stroke-width:39.3701; stroke-opacity:1;  stroke-linecap:round; stroke-linejoin:round;" />
  <g
     id="g462"
     style="fill:#000000; fill-opacity:0.0;  stroke:#000000; stroke-width:39.3701; stroke-opacity:1;  stroke-linecap:round; stroke-linejoin:round;" />
  <g
     id="g468"
     style="fill:#000000; fill-opacity:0.0;  stroke:#000000; stroke-width:39.3701; stroke-opacity:1;  stroke-linecap:round; stroke-linejoin:round;" />
  <g
     id="g552"
     style="fill:#000000; fill-opacity:0.0;  stroke:#000000; stroke-width:39.3701; stroke-opacity:1;  stroke-linecap:round; stroke-linejoin:round;" />
  <g
     id="g558"
     style="fill:#000000; fill-opacity:0.0;  stroke:#000000; stroke-width:39.3701; stroke-opacity:1;  stroke-linecap:round; stroke-linejoin:round;" />
  <g
     id="g590"
     style="fill:#000000; fill-opacity:0.0;  stroke:#000000; stroke-width:39.3701; stroke-opacity:1;  stroke-linecap:round; stroke-linejoin:round;" />
  <g
     id="g616"
     style="fill:#000000; fill-opacity:0.0;  stroke:#000000; stroke-width:39.3701; stroke-opacity:1;  stroke-linecap:round; stroke-linejoin:round;" />
  <g
     id="g642"
     style="fill:#000000; fill-opacity:0.0;  stroke:#000000; stroke-width:39.3701; stroke-opacity:1;  stroke-linecap:round; stroke-linejoin:round;" />
  <g
     id="g648"
     style="fill:#000000; fill-opacity:0.0;  stroke:#000000; stroke-width:39.3701; stroke-opacity:1;  stroke-linecap:round; stroke-linejoin:round;" />
  <g
     id="g690"
     style="fill:#000000; fill-opacity:0.0;  stroke:#000000; stroke-width:39.3701; stroke-opacity:1;  stroke-linecap:round; stroke-linejoin:round;" />
  <g
     id="g762"
     style="fill:#000000; fill-opacity:0.0;  stroke:#000000; stroke-width:39.3701; stroke-opacity:1;  stroke-linecap:round; stroke-linejoin:round;" />
  <g
     id="g768"
     style="fill:#000000; fill-opacity:0.0;  stroke:#000000; stroke-width:39.3701; stroke-opacity:1;  stroke-linecap:round; stroke-linejoin:round;" />
  <g
     id="g792"
     style="fill:#000000; fill-opacity:0.0;  stroke:#000000; stroke-width:39.3701; stroke-opacity:1;  stroke-linecap:round; stroke-linejoin:round;" />
  <g
     id="g798"
     style="fill:#000000; fill-opacity:0.0;  stroke:#000000; stroke-width:39.3701; stroke-opacity:1;  stroke-linecap:round; stroke-linejoin:round;" />
  <g
     id="g804"
     style="fill:#008400; fill-opacity:0.0;  stroke:#008400; stroke-width:59.0551; stroke-opacity:1;  stroke-linecap:round; stroke-linejoin:round;" />
  <g
     transform="translate(24517.58,33677.995)"
     id="g2048"
     style="fill:#008400;fill-opacity:0;stroke:#008400;stroke-width:78.7402;stroke-linecap:round;stroke-linejoin:round;stroke-opacity:1">
    <path
       id="path1326"
       d="M 9545.779,-6193.3154 V -13280.315" />
    <path
       id="path1328"
       d="m 16632.779,-13280.315 v 7086.9996" />
    <path
       id="path1330"
       d="m 9545.779,-13280.315 h 7087" />
    <path
       id="path1332"
       d="m 23334.779,-10602.315 v 5510.9996" />
    <path
       id="path1334"
       d="m 17035.779,-11390.315 h 7087" />
    <path
       id="path1336"
       d="m 17823.779,-10602.315 h 5511" />
    <path
       id="path1338"
       d="m 10333.779,-12492.315 h 5511" />
    <path
       id="path1340"
       d="m 24122.779,-4303.3154 h -7087" />
    <path
       id="path1342"
       d="M 17035.779,-4303.3154 V -11390.315" />
    <path
       id="path1344"
       d="m 16632.779,-6193.3154 h -7087" />
    <path
       id="path1346"
       d="m 24122.779,-11390.315 v 7086.9996" />
    <path
       id="path1348"
       d="m 1617.779,-558.31536 h -7087" />
    <path
       id="path1350"
       d="m -12969.221,-2010.3154 h 7087" />
    <path
       id="path1352"
       d="M 1617.779,-7645.3154 V -558.31536" />
    <path
       id="path1354"
       d="m -5882.221,-2010.3154 v 7087" />
    <path
       id="path1356"
       d="m -4681.221,-1346.3154 v -5511" />
    <path
       id="path1358"
       d="M 17823.779,-5091.3154 V -10602.315" />
    <path
       id="path1360"
       d="m 25231.779,4255.6846 5180,1885" />
    <path
       id="path1362"
       d="m -12181.221,4288.6846 v -5511" />
    <path
       id="path1364"
       d="m -5882.221,5076.6846 h -7087" />
    <path
       id="path1366"
       d="m 30411.779,6140.6846 -1885,5180.0004" />
    <path
       id="path1368"
       d="m -12181.221,-1222.3154 h 5511" />
    <path
       id="path1370"
       d="m 23346.779,9435.6846 1885,-5180" />
    <path
       id="path1372"
       d="m -5469.221,-7645.3154 h 7087" />
    <path
       id="path1374"
       d="m 28526.779,11320.685 -5180,-1885.0004" />
    <path
       id="path1376"
       d="m 2050.779,-9520.3154 h 7087" />
    <path
       id="path1378"
       d="m -4681.221,-6857.3154 h 5511" />
    <path
       id="path1380"
       d="m 23334.779,-5091.3154 h -5511" />
    <path
       id="path1382"
       d="m 24761.779,3246.6846 6659,2424" />
    <path
       id="path1384"
       d="m 31420.779,5670.6846 -2424,6659.0004" />
    <path
       id="path1386"
       d="m 28996.779,12329.685 -6659,-2424.0004" />
    <path
       id="path1388"
       d="m 829.779,-6857.3154 v 5511" />
    <path
       id="path1390"
       d="m 22337.779,9905.6846 2424,-6659" />
    <path
       id="path1392"
       d="m 829.779,-1346.3154 h -5511" />
    <path
       id="path1394"
       d="m 9137.779,-9520.3154 v 7087" />
    <path
       id="path1396"
       d="m -6670.221,4288.6846 h -5511" />
    <path
       id="path1398"
       d="m -6670.221,-1222.3154 v 5511" />
    <path
       id="path1400"
       d="m -12969.221,5076.6846 v -7087" />
    <path
       id="path1402"
       d="M -5469.221,-558.31536 V -7645.3154" />
    <path
       id="path1404"
       d="m 2838.779,-1242.3154 h 5511" />
    <path
       id="path1406"
       d="m 33985.779,-1369.3154 7005,2593" />
    <path
       id="path1408"
       d="m 17833.779,2393.6846 v -5511" />
    <path
       id="path1410"
       d="m -4671.221,637.68464 h 5511" />
    <path
       id="path1412"
       d="m 31676.779,8485.6846 1885,-5180" />
    <path
       id="path1414"
       d="m 2050.779,-2030.3154 h 7087" />
    <path
       id="path1416"
       d="m 36720.779,13044.685 -6659,-2424" />
    <path
       id="path1418"
       d="M 1627.779,-150.31536 V 6936.6846" />
    <path
       id="path1420"
       d="m -12959.221,-17025.315 -10,23958.9996" />
    <path
       id="path1422"
       d="m 8349.779,-1242.3154 v 5511" />
    <path
       id="path1424"
       d="m 10348.779,-4997.3154 h 5511" />
    <path
       id="path1426"
       d="M 33985.779,-1369.3154 V -24545.315" />
    <path
       id="path1428"
       d="m -12959.221,-17025.315 29,-567" />
    <path
       id="path1430"
       d="m -12930.221,-17592.315 76,-538" />
    <path
       id="path1432"
       d="m -12854.221,-18130.315 122,-512" />
    <path
       id="path1434"
       d="m -12732.221,-18642.315 166,-486" />
    <path
       id="path1436"
       d="m -12566.221,-19128.315 207,-460" />
    <path
       id="path1438"
       d="m -12359.221,-19588.315 246,-435" />
    <path
       id="path1440"
       d="m -12113.221,-20023.315 285,-411" />
    <path
       id="path1442"
       d="m -11828.221,-20434.315 320,-387" />
    <path
       id="path1444"
       d="m -11508.221,-20821.315 355,-363" />
    <path
       id="path1446"
       d="m -11153.221,-21184.315 386,-341" />
    <path
       id="path1448"
       d="m -10767.221,-21525.315 417,-319" />
    <path
       id="path1450"
       d="m -10350.221,-21844.315 445,-298" />
    <path
       id="path1452"
       d="m -9905.221,-22142.315 472,-277" />
    <path
       id="path1454"
       d="m -9433.221,-22419.315 496,-257" />
    <path
       id="path1456"
       d="m -8937.221,-22676.315 519,-237" />
    <path
       id="path1458"
       d="m -8418.221,-22913.315 540,-218" />
    <path
       id="path1460"
       d="m -7878.221,-23131.315 559,-199" />
    <path
       id="path1462"
       d="m -7319.221,-23330.315 576,-182" />
    <path
       id="path1464"
       d="m -6743.221,-23512.315 591,-165" />
    <path
       id="path1466"
       d="m -6152.221,-23677.315 605,-148" />
    <path
       id="path1468"
       d="m -5547.221,-23825.315 615,-132" />
    <path
       id="path1470"
       d="m -4932.221,-23957.315 626,-117" />
    <path
       id="path1472"
       d="m -4306.221,-24074.315 633,-102" />
    <path
       id="path1474"
       d="m -3673.221,-24176.315 639,-88" />
    <path
       id="path1476"
       d="m -3034.221,-24264.315 643,-75" />
    <path
       id="path1478"
       d="m -2391.221,-24339.315 645,-61" />
    <path
       id="path1480"
       d="m -1746.221,-24400.315 645,-49" />
    <path
       id="path1482"
       d="m -1101.221,-24449.315 643,-38" />
    <path
       id="path1484"
       d="m -458.221,-24487.315 640,-26" />
    <path
       id="path1486"
       d="m 181.779,-24513.315 634,-15" />
    <path
       id="path1488"
       d="m 815.779,-24528.315 627,-6" />
    <path
       id="path1490"
       d="m 1442.779,-24534.315 618,4" />
    <path
       id="path1492"
       d="m 1627.779,6936.6846 h -7087" />
    <path
       id="path1494"
       d="m 33985.779,-24545.315 -31925,15" />
    <path
       id="path1496"
       d="M 15859.779,-4997.3154 V 513.68464" />
    <path
       id="path1498"
       d="m 23344.779,2393.6846 h -5511" />
    <path
       id="path1500"
       d="M 10348.779,513.68464 V -4997.3154" />
    <path
       id="path1502"
       d="m 2838.779,-8732.3154 h 5511" />
    <path
       id="path1504"
       d="m 24132.779,3181.6846 h -7087" />
    <path
       id="path1506"
       d="m 23344.779,-3117.3154 v 5511" />
    <path
       id="path1508"
       d="m 38741.779,5190.6846 -1885,5180.0004" />
    <path
       id="path1510"
       d="m 22337.779,9905.6846 13763,4972.0004" />
    <path
       id="path1512"
       d="m 2838.779,-3221.3154 v -5511" />
    <path
       id="path1514"
       d="m 40356.779,3055.6846 -3636,9989.0004" />
    <path
       id="path1516"
       d="M 839.779,637.68464 V 6148.6846" />
    <path
       id="path1518"
       d="m 24132.779,-3905.3154 v 7087" />
    <path
       id="path1520"
       d="m 9137.779,-2433.3154 h -7087" />
    <path
       id="path1522"
       d="m 2050.779,-2433.3154 v -7087" />
    <path
       id="path1524"
       d="m 8349.779,-8732.3154 v 5511" />
    <path
       id="path1526"
       d="m 9137.779,5056.6846 h -7087" />
    <path
       id="path1528"
       d="m 8349.779,-3221.3154 h -5511" />
    <path
       id="path1530"
       d="m 9560.779,-5785.3154 h 7087" />
    <path
       id="path1532"
       d="m 33697.779,631.68464 6659,2423.99996" />
    <path
       id="path1534"
       d="m 30061.779,10620.685 3636,-9989.00036" />
    <path
       id="path1536"
       d="M -5459.221,6936.6846 V -150.31536" />
    <path
       id="path1538"
       d="m 2838.779,4268.6846 v -5511" />
    <path
       id="path1540"
       d="m 2050.779,5056.6846 v -7087" />
    <path
       id="path1542"
       d="m 16647.779,-5785.3154 v 7087" />
    <path
       id="path1544"
       d="m 17045.779,-3905.3154 h 7087" />
    <path
       id="path1546"
       d="m 17833.779,-3117.3154 h 5511" />
    <path
       id="path1548"
       d="m 36856.779,10370.685 -5180,-1885.0004" />
    <path
       id="path1550"
       d="m 33561.779,3305.6846 5180,1885" />
    <path
       id="path1552"
       d="m 22337.779,9905.6846 -131,-43" />
    <path
       id="path1554"
       d="m 22206.779,9862.6846 -101,-31" />
    <path
       id="path1556"
       d="m 22105.779,9831.6846 -129,-40" />
    <path
       id="path1558"
       d="m 21976.779,9791.6846 -158,-47" />
    <path
       id="path1560"
       d="m 21818.779,9744.6846 -186,-54" />
    <path
       id="path1562"
       d="m 21632.779,9690.6846 -214,-60" />
    <path
       id="path1564"
       d="m 21418.779,9630.6846 -243,-67" />
    <path
       id="path1566"
       d="m 21175.779,9563.6846 -270,-72" />
    <path
       id="path1568"
       d="m 20905.779,9491.6846 -297,-77" />
    <path
       id="path1570"
       d="m 20608.779,9414.6846 -325,-82" />
    <path
       id="path1572"
       d="m 20283.779,9332.6846 -353,-86" />
    <path
       id="path1574"
       d="m 19930.779,9246.6846 -379,-89" />
    <path
       id="path1576"
       d="m 19551.779,9157.6846 -407,-93" />
    <path
       id="path1578"
       d="m 19144.779,9064.6846 -434,-95" />
    <path
       id="path1580"
       d="m 18710.779,8969.6846 -460,-98" />
    <path
       id="path1582"
       d="m 18250.779,8871.6846 -487,-99" />
    <path
       id="path1584"
       d="m 17763.779,8772.6846 -514,-100" />
    <path
       id="path1586"
       d="m 17249.779,8672.6846 -540,-101" />
    <path
       id="path1588"
       d="m 16709.779,8571.6846 -566,-102" />
    <path
       id="path1590"
       d="m 16143.779,8469.6846 -592,-101" />
    <path
       id="path1592"
       d="m 15551.779,8368.6846 -618,-100" />
    <path
       id="path1594"
       d="m 14933.779,8268.6846 -644,-100" />
    <path
       id="path1596"
       d="m 14289.779,8168.6846 -669,-97" />
    <path
       id="path1598"
       d="m 13620.779,8071.6846 -695,-96" />
    <path
       id="path1600"
       d="m 12925.779,7975.6846 -720,-93" />
    <path
       id="path1602"
       d="m 12205.779,7882.6846 -746,-89" />
    <path
       id="path1604"
       d="m 11459.779,7793.6846 -770,-87" />
    <path
       id="path1606"
       d="m 10689.779,7706.6846 -796,-82" />
    <path
       id="path1608"
       d="m 9893.779,7624.6846 -820,-77" />
    <path
       id="path1610"
       d="m 9073.779,7547.6846 -844,-73" />
    <path
       id="path1612"
       d="m 839.779,6148.6846 h -5511" />
    <path
       id="path1614"
       d="m -5459.221,-150.31536 h 7087" />
    <path
       id="path1616"
       d="m 8349.779,4268.6846 h -5511" />
    <path
       id="path1618"
       d="m 8229.779,7474.6846 -642,-49" />
    <path
       id="path1620"
       d="m 7587.779,7425.6846 -684,-46" />
    <path
       id="path1622"
       d="m 6903.779,7379.6846 -723,-43" />
    <path
       id="path1624"
       d="m 6180.779,7336.6846 -758,-40" />
    <path
       id="path1626"
       d="m 5422.779,7296.6846 -787,-37" />
    <path
       id="path1628"
       d="m 4635.779,7259.6846 -814,-35" />
    <path
       id="path1630"
       d="m 3821.779,7224.6846 -836,-32" />
    <path
       id="path1632"
       d="m 2985.779,7192.6846 -854,-30" />
    <path
       id="path1634"
       d="m 2131.779,7162.6846 -868,-27" />
    <path
       id="path1636"
       d="m 1263.779,7135.6846 -877,-25" />
    <path
       id="path1638"
       d="m 386.779,7110.6846 -882,-23" />
    <path
       id="path1640"
       d="m -495.221,7087.6846 -884,-21" />
    <path
       id="path1642"
       d="m -1379.221,7066.6846 -881,-19" />
    <path
       id="path1644"
       d="m -2260.221,7047.6846 -875,-17" />
    <path
       id="path1646"
       d="m -3135.221,7030.6846 -863,-15" />
    <path
       id="path1648"
       d="m -3998.221,7015.6846 -848,-13" />
    <path
       id="path1650"
       d="m -4846.221,7002.6846 -828,-12" />
    <path
       id="path1652"
       d="m -5674.221,6990.6846 -805,-11" />
    <path
       id="path1654"
       d="m -6479.221,6979.6846 -778,-9" />
    <path
       id="path1656"
       d="m -7257.221,6970.6846 -746,-8" />
    <path
       id="path1658"
       d="m -8003.221,6962.6846 -710,-6" />
    <path
       id="path1660"
       d="m -8713.221,6956.6846 -669,-6" />
    <path
       id="path1662"
       d="m -9382.221,6950.6846 -626,-5" />
    <path
       id="path1664"
       d="m -10008.221,6945.6846 -578,-3" />
    <path
       id="path1666"
       d="m -10586.221,6942.6846 -525,-3" />
    <path
       id="path1668"
       d="m -11111.221,6939.6846 -468,-2" />
    <path
       id="path1670"
       d="m -11579.221,6937.6846 -408,-2" />
    <path
       id="path1672"
       d="m -11987.221,6935.6846 -342,-1" />
    <path
       id="path1674"
       d="m -12329.221,6934.6846 -274,-1" />
    <path
       id="path1676"
       d="m -12603.221,6933.6846 h -201" />
    <path
       id="path1678"
       d="m -12804.221,6933.6846 h -123" />
    <path
       id="path1680"
       d="m -12927.221,6933.6846 h -42" />
    <path
       id="path1682"
       d="m 40990.779,1223.6846 -4890,13654.0004" />
    <path
       id="path1684"
       d="m 9137.779,-2030.3154 v 7087" />
    <path
       id="path1686"
       d="m 16647.779,1301.6846 h -7087" />
    <path
       id="path1688"
       d="m 9560.779,1301.6846 v -7087" />
    <path
       id="path1690"
       d="m 15859.779,513.68464 h -5511" />
    <path
       id="path1692"
       d="m 17045.779,3181.6846 v -7087" />
    <path
       id="path1694"
       d="M -4671.221,6148.6846 V 637.68464" />
    <path
       id="path1696"
       d="m 1627.779,-8048.3154 h -7087" />
    <path
       id="path1698"
       d="m -5459.221,-15135.315 h 7087" />
    <path
       id="path1700"
       d="m -12161.221,-8737.3154 h 5511" />
    <path
       id="path1702"
       d="m 9132.779,-17030.315 v 7086.9996" />
    <path
       id="path1704"
       d="M 2045.779,-9943.3154 V -17030.315" />
    <path
       id="path1706"
       d="m -4671.221,-14347.315 h 5511" />
    <path
       id="path1708"
       d="m 15844.779,-12492.315 v 5510.9996" />
    <path
       id="path1710"
       d="m -6650.221,-8737.3154 v 5511" />
    <path
       id="path1712"
       d="m 8344.779,-16242.315 v 5510" />
    <path
       id="path1714"
       d="m -6650.221,-3226.3154 h -5511" />
    <path
       id="path1716"
       d="m 839.779,-8836.3154 h -5511" />
    <path
       id="path1718"
       d="m 2833.779,-10732.315 v -5510" />
    <path
       id="path1720"
       d="m 8344.779,-10732.315 h -5511" />
    <path
       id="path1722"
       d="m -12161.221,-3226.3154 v -5511" />
    <path
       id="path1724"
       d="m 15844.779,-6981.3154 h -5511" />
    <path
       id="path1726"
       d="M -4671.221,-8836.3154 V -14347.315" />
    <path
       id="path1728"
       d="m 1627.779,-15135.315 v 7086.9996" />
    <path
       id="path1730"
       d="m 9132.779,-9943.3154 h -7087" />
    <path
       id="path1732"
       d="m 839.779,-14347.315 v 5510.9996" />
    <path
       id="path1734"
       d="m 2833.779,-16242.315 h 5511" />
    <path
       id="path1736"
       d="M 10333.779,-6981.3154 V -12492.315" />
    <path
       id="path1738"
       d="m 2045.779,-17030.315 h 7087" />
    <path
       id="path1740"
       d="M -5459.221,-8048.3154 V -15135.315" />
    <path
       id="path1742"
       d="m 27326.779,-3793.3154 6659,2424" />
    <path
       id="path1744"
       d="m 24902.779,2865.6846 2424,-6659" />
    <path
       id="path1746"
       d="m 31561.779,5289.6846 -6659,-2424" />
    <path
       id="path1748"
       d="m 31091.779,4280.6846 -5180,-1885" />
    <path
       id="path1750"
       d="m 32976.779,-899.31536 -1885,5179.99996" />
    <path
       id="path1752"
       d="m -12949.221,-9525.3154 h 7087" />
    <path
       id="path1754"
       d="m 15839.779,-19987.315 v 5511" />
    <path
       id="path1756"
       d="m 15839.779,-14476.315 h -5511" />
    <path
       id="path1758"
       d="m 17045.779,-18905.315 h 7087" />
    <path
       id="path1760"
       d="m 17833.779,-12606.315 v -5511" />
    <path
       id="path1762"
       d="m 17045.779,-11818.315 v -7087" />
    <path
       id="path1764"
       d="m -12949.221,-2438.3154 v -7087" />
    <path
       id="path1766"
       d="m 10328.779,-14476.315 v -5511" />
    <path
       id="path1768"
       d="m 24132.779,-18905.315 v 7087" />
    <path
       id="path1770"
       d="m 24132.779,-11818.315 h -7087" />
    <path
       id="path1772"
       d="m 17833.779,-18117.315 h 5511" />
    <path
       id="path1774"
       d="m 25911.779,2395.6846 1885,-5180" />
    <path
       id="path1776"
       d="m 27796.779,-2784.3154 5180,1885.00004" />
    <path
       id="path1778"
       d="m -5862.221,-9525.3154 v 7087" />
    <path
       id="path1780"
       d="m -5862.221,-2438.3154 h -7087" />
    <path
       id="path1782"
       d="m 23344.779,-18117.315 v 5511" />
    <path
       id="path1784"
       d="m 23344.779,-12606.315 h -5511" />
    <path
       id="path1786"
       d="m 33985.779,-1369.3154 -2424,6659" />
    <path
       id="path1788"
       d="m 16627.779,-20775.315 v 7087" />
    <path
       id="path1790"
       d="m 2060.779,-24530.315 h 7087" />
    <path
       id="path1792"
       d="m -6660.221,-10726.315 h -5511" />
    <path
       id="path1794"
       d="m 2848.779,-23742.315 h 5511" />
    <path
       id="path1796"
       d="m 8359.779,-18231.315 h -5511" />
    <path
       id="path1798"
       d="m 9540.779,-20775.315 h 7087" />
    <path
       id="path1800"
       d="m -12171.221,-10726.315 v -5511" />
    <path
       id="path1802"
       d="m 9147.779,-24530.315 v 7087" />
    <path
       id="path1804"
       d="m -5459.221,-22655.315 h 7087" />
    <path
       id="path1806"
       d="m -5459.221,-15568.315 v -7087" />
    <path
       id="path1808"
       d="m 1627.779,-22655.315 v 7087" />
    <path
       id="path1810"
       d="m 16627.779,-13688.315 h -7087" />
    <path
       id="path1812"
       d="m 9147.779,-17443.315 h -7087" />
    <path
       id="path1814"
       d="m 2060.779,-17443.315 v -7087" />
    <path
       id="path1816"
       d="m 1627.779,-15568.315 h -7087" />
    <path
       id="path1818"
       d="m -4671.221,-21867.315 h 5511" />
    <path
       id="path1820"
       d="m 839.779,-21867.315 v 5511" />
    <path
       id="path1822"
       d="m 10328.779,-19987.315 h 5511" />
    <path
       id="path1824"
       d="m 8359.779,-23742.315 v 5511" />
    <path
       id="path1826"
       d="m 839.779,-16356.315 h -5511" />
    <path
       id="path1828"
       d="m -4671.221,-16356.315 v -5511" />
    <path
       id="path1830"
       d="m 2848.779,-18231.315 v -5511" />
    <path
       id="path1832"
       d="m 9540.779,-13688.315 v -7087" />
    <path
       id="path1834"
       d="M -12959.221,-9938.3154 V -17025.315" />
    <path
       id="path1836"
       d="m -12959.221,-17025.315 h 7087" />
    <path
       id="path1838"
       d="m -5872.221,-9938.3154 h -7087" />
    <path
       id="path1840"
       d="m -5872.221,-17025.315 v 7086.9996" />
    <path
       id="path1842"
       d="m -6660.221,-16237.315 v 5511" />
    <path
       id="path1844"
       d="m -12171.221,-16237.315 h 5511" />
    <g
       id="g1846" />
    <g
       id="g1848" />
    <g
       id="g1850" />
    <g
       id="g1852" />
    <g
       id="g1854" />
    <g
       id="g1856" />
    <g
       id="g1858" />
    <g
       id="g1860" />
    <g
       id="g1862" />
    <g
       id="g1864" />
    <g
       id="g1866" />
    <g
       id="g1868" />
    <g
       id="g1870" />
    <g
       id="g1872" />
    <g
       id="g1874" />
    <g
       id="g1876" />
    <g
       id="g1878" />
    <g
       id="g1880" />
    <g
       id="g1882" />
    <g
       id="g1884" />
    <g
       id="g1886" />
    <g
       id="g1888" />
    <g
       id="g1890" />
    <g
       id="g1892" />
    <g
       id="g1894" />
    <g
       id="g1896" />
    <g
       id="g1898" />
    <g
       id="g1900" />
    <g
       id="g1902" />
    <g
       id="g1904" />
    <g
       id="g1906" />
    <g
       id="g1908" />
    <g
       id="g1910" />
    <g
       id="g1912" />
    <g
       id="g1914" />
    <g
       id="g1916" />
    <g
       id="g1918" />
    <g
       id="g1920" />
    <g
       id="g1922" />
    <g
       id="g1924" />
    <g
       id="g1926" />
    <g
       id="g1928" />
    <g
       id="g1930" />
    <g
       id="g1932" />
    <g
       id="g1934" />
    <g
       id="g1936" />
    <g
       id="g1938" />
    <g
       id="g1940" />
    <g
       id="g1942" />
    <g
       id="g1944" />
    <g
       id="g1946" />
    <g
       id="g1948" />
    <g
       id="g1950" />
    <g
       id="g1952" />
    <g
       id="g1954" />
    <g
       id="g1956" />
    <g
       id="g1958" />
    <g
       id="g1960" />
    <g
       id="g1962" />
    <g
       id="g1964" />
    <g
       id="g1966" />
    <g
       id="g1968" />
    <g
       id="g1970" />
    <g
       id="g1972" />
    <g
       id="g1974" />
    <g
       id="g1976" />
    <g
       id="g1978" />
    <g
       id="g1980" />
    <g
       id="g1982" />
    <g
       id="g1984" />
    <g
       id="g1986" />
    <g
       id="g1988" />
    <g
       id="g1990" />
    <g
       id="g1992" />
    <g
       id="g1994" />
    <g
       id="g1996" />
    <g
       id="g1998" />
    <g
       id="g2000" />
    <g
       id="g2002" />
    <g
       id="g2004" />
    <g
       id="g2006" />
    <g
       id="g2008" />
    <g
       id="g2010" />
    <g
       id="g2012" />
    <g
       id="g2014" />
    <g
       id="g2016" />
    <g
       id="g2018" />
    <g
       id="g2020" />
    <g
       id="g2022" />
    <g
       id="g2024" />
    <g
       id="g2026" />
    <g
       id="g2028" />
    <g
       id="g2030" />
    <g
       id="g2032" />
    <g
       id="g2034" />
    <g
       id="g2036" />
    <g
       id="g2038" />
    <g
       id="g2040" />
    <g
       id="g2042" />
    <g
       id="g2044" />
    <g
       id="g2046" />
  </g>
  <g
     id="g2050"
     style="fill:#000000; fill-opacity:0.0;  stroke:#000000; stroke-width:78.7402; stroke-opacity:1;  stroke-linecap:round; stroke-linejoin:round;" />
  <g
     transform="translate(4041.359,2020.6796)"
     id="g2654"
     style="fill:#c2c200;fill-opacity:0;stroke:#c2c200;stroke-width:78.7402;stroke-linecap:round;stroke-linejoin:round;stroke-opacity:1">
    <path
       id="path2252"
       d="m 42802,41556 13763,4972" />
    <path
       id="path2254"
       d="M 61455,32874 56565,46528" />
    <path
       id="path2256"
       d="M 54450,30281 V 7105" />
    <path
       id="path2258"
       d="m 54449,30280 7006,2594" />
    <path
       id="path2260"
       d="m 7505,14625 -10,23959" />
    <path
       id="path2262"
       d="m 42801,41555 -130,-42" />
    <path
       id="path2264"
       d="m 42671,41513 -101,-31" />
    <path
       id="path2266"
       d="m 42570,41482 -129,-40" />
    <path
       id="path2268"
       d="m 42441,41442 -158,-47" />
    <path
       id="path2270"
       d="m 42283,41395 -186,-54" />
    <path
       id="path2272"
       d="m 42097,41341 -214,-60" />
    <path
       id="path2274"
       d="m 41883,41281 -243,-67" />
    <path
       id="path2276"
       d="m 41640,41214 -270,-72" />
    <path
       id="path2278"
       d="m 41370,41142 -297,-77" />
    <path
       id="path2280"
       d="m 41073,41065 -325,-82" />
    <path
       id="path2282"
       d="m 40748,40983 -353,-86" />
    <path
       id="path2284"
       d="m 40395,40897 -379,-89" />
    <path
       id="path2286"
       d="m 40016,40808 -407,-93" />
    <path
       id="path2288"
       d="m 39609,40715 -434,-95" />
    <path
       id="path2290"
       d="m 39175,40620 -460,-98" />
    <path
       id="path2292"
       d="m 38715,40522 -487,-99" />
    <path
       id="path2294"
       d="m 38228,40423 -514,-100" />
    <path
       id="path2296"
       d="m 37714,40323 -540,-101" />
    <path
       id="path2298"
       d="m 37174,40222 -566,-102" />
    <path
       id="path2300"
       d="m 36608,40120 -592,-101" />
    <path
       id="path2302"
       d="m 36016,40019 -618,-100" />
    <path
       id="path2304"
       d="m 35398,39919 -644,-100" />
    <path
       id="path2306"
       d="m 34754,39819 -669,-97" />
    <path
       id="path2308"
       d="m 34085,39722 -695,-96" />
    <path
       id="path2310"
       d="m 33390,39626 -720,-93" />
    <path
       id="path2312"
       d="m 32670,39533 -746,-89" />
    <path
       id="path2314"
       d="m 31924,39444 -770,-87" />
    <path
       id="path2316"
       d="m 31154,39357 -796,-82" />
    <path
       id="path2318"
       d="m 30358,39275 -820,-77" />
    <path
       id="path2320"
       d="m 29538,39198 -844,-73" />
    <path
       id="path2322"
       d="m 54450,7105 -31925,14" />
    <path
       id="path2324"
       d="m 28694,39125 -642,-49" />
    <path
       id="path2326"
       d="m 28052,39076 -684,-46" />
    <path
       id="path2328"
       d="m 27368,39030 -723,-43" />
    <path
       id="path2330"
       d="m 26645,38987 -758,-40" />
    <path
       id="path2332"
       d="m 25887,38947 -787,-37" />
    <path
       id="path2334"
       d="m 25100,38910 -814,-35" />
    <path
       id="path2336"
       d="m 24286,38875 -836,-32" />
    <path
       id="path2338"
       d="m 23450,38843 -854,-30" />
    <path
       id="path2340"
       d="m 22596,38813 -868,-27" />
    <path
       id="path2342"
       d="m 21728,38786 -877,-25" />
    <path
       id="path2344"
       d="m 20851,38761 -882,-23" />
    <path
       id="path2346"
       d="m 19969,38738 -884,-21" />
    <path
       id="path2348"
       d="m 19085,38717 -881,-19" />
    <path
       id="path2350"
       d="m 18204,38698 -875,-17" />
    <path
       id="path2352"
       d="m 17329,38681 -863,-15" />
    <path
       id="path2354"
       d="m 16466,38666 -848,-13" />
    <path
       id="path2356"
       d="m 15618,38653 -828,-12" />
    <path
       id="path2358"
       d="m 14790,38641 -805,-11" />
    <path
       id="path2360"
       d="m 13985,38630 -778,-9" />
    <path
       id="path2362"
       d="m 13207,38621 -746,-8" />
    <path
       id="path2364"
       d="m 12461,38613 -710,-6" />
    <path
       id="path2366"
       d="m 11751,38607 -669,-6" />
    <path
       id="path2368"
       d="m 11082,38601 -626,-5" />
    <path
       id="path2370"
       d="m 10456,38596 -578,-3" />
    <path
       id="path2372"
       d="m 9878,38593 -525,-3" />
    <path
       id="path2374"
       d="m 9353,38590 -468,-2" />
    <path
       id="path2376"
       d="m 8885,38588 -408,-2" />
    <path
       id="path2378"
       d="m 8477,38586 -342,-1" />
    <path
       id="path2380"
       d="m 8135,38585 -274,-1" />
    <path
       id="path2382"
       d="M 7861,38584 H 7660" />
    <path
       id="path2384"
       d="M 7660,38584 H 7537" />
    <path
       id="path2386"
       d="m 7537,38584 h -42" />
    <path
       id="path2388"
       d="m 7505,14625 29,-567" />
    <path
       id="path2390"
       d="m 7534,14058 76,-538" />
    <path
       id="path2392"
       d="m 7610,13520 122,-512" />
    <path
       id="path2394"
       d="m 7732,13008 166,-486" />
    <path
       id="path2396"
       d="m 7898,12522 207,-460" />
    <path
       id="path2398"
       d="m 8105,12062 246,-435" />
    <path
       id="path2400"
       d="m 8351,11627 285,-411" />
    <path
       id="path2402"
       d="m 8636,11216 320,-387" />
    <path
       id="path2404"
       d="m 8956,10829 355,-363" />
    <path
       id="path2406"
       d="m 9311,10466 386,-341" />
    <path
       id="path2408"
       d="m 9697,10125 417,-319" />
    <path
       id="path2410"
       d="m 10114,9806 445,-298" />
    <path
       id="path2412"
       d="m 10559,9508 472,-277" />
    <path
       id="path2414"
       d="m 11031,9231 496,-257" />
    <path
       id="path2416"
       d="m 11527,8974 519,-237" />
    <path
       id="path2418"
       d="m 12046,8737 540,-218" />
    <path
       id="path2420"
       d="m 12586,8519 559,-199" />
    <path
       id="path2422"
       d="m 13145,8320 576,-182" />
    <path
       id="path2424"
       d="m 13721,8138 591,-165" />
    <path
       id="path2426"
       d="m 14312,7973 605,-148" />
    <path
       id="path2428"
       d="m 14917,7825 615,-132" />
    <path
       id="path2430"
       d="m 15532,7693 626,-117" />
    <path
       id="path2432"
       d="m 16158,7576 633,-102" />
    <path
       id="path2434"
       d="m 16791,7474 639,-88" />
    <path
       id="path2436"
       d="m 17430,7386 643,-75" />
    <path
       id="path2438"
       d="m 18073,7311 645,-61" />
    <path
       id="path2440"
       d="m 18718,7250 645,-49" />
    <path
       id="path2442"
       d="m 19363,7201 643,-38" />
    <path
       id="path2444"
       d="m 20006,7163 640,-26" />
    <path
       id="path2446"
       d="m 20646,7137 634,-15" />
    <path
       id="path2448"
       d="m 21280,7122 627,-6" />
    <path
       id="path2450"
       d="m 21907,7116 618,4" />
    <g
       id="g2452" />
    <g
       id="g2454" />
    <g
       id="g2456" />
    <g
       id="g2458" />
    <g
       id="g2460" />
    <g
       id="g2462" />
    <g
       id="g2464" />
    <g
       id="g2466" />
    <g
       id="g2468" />
    <g
       id="g2470" />
    <g
       id="g2472" />
    <g
       id="g2474" />
    <g
       id="g2476" />
    <g
       id="g2478" />
    <g
       id="g2480" />
    <g
       id="g2482" />
    <g
       id="g2484" />
    <g
       id="g2486" />
    <g
       id="g2488" />
    <g
       id="g2490" />
    <g
       id="g2492" />
    <g
       id="g2494" />
    <g
       id="g2496" />
    <g
       id="g2498" />
    <g
       id="g2500" />
    <g
       id="g2502" />
    <g
       id="g2504" />
    <g
       id="g2506" />
    <g
       id="g2508" />
    <g
       id="g2510" />
    <g
       id="g2512" />
    <g
       id="g2514" />
    <g
       id="g2516" />
    <g
       id="g2518" />
    <g
       id="g2520" />
    <g
       id="g2522" />
    <g
       id="g2524" />
    <g
       id="g2526" />
    <g
       id="g2528" />
    <g
       id="g2530" />
    <g
       id="g2532" />
    <g
       id="g2534" />
    <g
       id="g2536" />
    <g
       id="g2538" />
    <g
       id="g2540" />
    <g
       id="g2542" />
    <g
       id="g2544" />
    <g
       id="g2546" />
    <g
       id="g2548" />
    <g
       id="g2550" />
    <g
       id="g2552" />
    <g
       id="g2554" />
    <g
       id="g2556" />
    <g
       id="g2558" />
    <g
       id="g2560" />
    <g
       id="g2562" />
    <g
       id="g2564" />
    <g
       id="g2566" />
    <g
       id="g2568" />
    <g
       id="g2570" />
    <g
       id="g2572" />
    <g
       id="g2574" />
    <g
       id="g2576" />
    <g
       id="g2578" />
    <g
       id="g2580" />
    <g
       id="g2582" />
    <g
       id="g2584" />
    <g
       id="g2586" />
    <g
       id="g2588" />
    <g
       id="g2590" />
    <g
       id="g2592" />
    <g
       id="g2594" />
    <g
       id="g2596" />
    <g
       id="g2598" />
    <g
       id="g2600" />
    <g
       id="g2602" />
    <g
       id="g2604" />
    <g
       id="g2606" />
    <g
       id="g2608" />
    <g
       id="g2610" />
    <g
       id="g2612" />
    <g
       id="g2614" />
    <g
       id="g2616" />
    <g
       id="g2618" />
    <g
       id="g2620" />
    <g
       id="g2622" />
    <g
       id="g2624" />
    <g
       id="g2626" />
    <g
       id="g2628" />
    <g
       id="g2630" />
    <g
       id="g2632" />
    <g
       id="g2634" />
    <g
       id="g2636" />
    <g
       id="g2638" />
    <g
       id="g2640" />
    <g
       id="g2642" />
    <g
       id="g2644" />
    <g
       id="g2646" />
    <g
       id="g2648" />
    <g
       id="g2650" />
    <g
       id="g2652" />
  </g>
</svg>
