  0
SECTION
  2
HEADER
  9
$ACADVER
  1
AC1014
  9
$HANDSEED
  5
FFFF
  9
$MEASUREMENT
 70
     1
  0
ENDSEC
  0
SECTION
  2
TABLES
  0
TABLE
  2
VPORT
  5
8
330
0
100
AcDbSymbolTable
 70
     4
  0
VPORT
  5
2E
330
8
100
AcDbSymbolTableRecord
100
AcDbViewportTableRecord
  2
*ACTIVE
 70
     0
 10
0.0
 20
0.0
 11
1.0
 21
1.0
 12
210.0
 22
148.5
 13
0.0
 23
0.0
 14
10.0
 24
10.0
 15
10.0
 25
10.0
 16
0.0
 26
0.0
 36
1.0
 17
0.0
 27
0.0
 37
0.0
 40
341.0
 41
1.24
 42
50.0
 43
0.0
 44
0.0
 50
0.0
 51
0.0
 71
     0
 72
   100
 73
     1
 74
     3
 75
     0
 76
     0
 77
     0
 78
     0
  0
ENDTAB
  0
TABLE
  2
LTYPE
  5
5
330
0
100
AcDbSymbolTable
 70
     1
  0
LTYPE
  5
14
330
5
100
AcDbSymbolTableRecord
100
AcDbLinetypeTableRecord
  2
BYBLOCK
 70
     0
  3

 72
    65
 73
     0
 40
0.0
  0
LTYPE
  5
15
330
5
100
AcDbSymbolTableRecord
100
AcDbLinetypeTableRecord
  2
BYLAYER
 70
     0
  3

 72
    65
 73
     0
 40
0.0
  0
LTYPE
  5
16
330
5
100
AcDbSymbolTableRecord
100
AcDbLinetypeTableRecord
  2
CONTINUOUS
 70
     0
  3
Solid line
 72
    65
 73
     0
 40
0.0
  0
ENDTAB
  0
TABLE
  2
LAYER
  5
2
100
AcDbSymbolTable
 70
1
  0
LAYER
  5
50
100
AcDbSymbolTableRecord
100
AcDbLayerTableRecord
  2
0
 70
0
  6
CONTINUOUS
  0
ENDTAB
  0
TABLE
  2
STYLE
  5
3
330
0
100
AcDbSymbolTable
 70
     1
  0
STYLE
  5
11
330
3
100
AcDbSymbolTableRecord
100
AcDbTextStyleTableRecord
  2
STANDARD
 70
     0
 40
0.0
 41
1.0
 50
0.0
 71
     0
 42
2.5
  3
txt
  4

  0
ENDTAB
  0
TABLE
  2
VIEW
  5
6
330
0
100
AcDbSymbolTable
 70
     0
  0
ENDTAB
  0
TABLE
  2
UCS
  5
7
330
0
100
AcDbSymbolTable
 70
     0
  0
ENDTAB
  0
TABLE
  2
APPID
  5
9
330
0
100
AcDbSymbolTable
 70
     2
  0
APPID
  5
12
330
9
100
AcDbSymbolTableRecord
100
AcDbRegAppTableRecord
  2
ACAD
 70
     0
  0
ENDTAB
  0
TABLE
  2
DIMSTYLE
  5
A
330
0
100
AcDbSymbolTable
 70
     1
  0
DIMSTYLE
105
27
330
A
100
AcDbSymbolTableRecord
100
AcDbDimStyleTableRecord
  2
ISO-25
 70
     0
  3

  4

  5

  6

  7

 40
1.0
 41
2.5
 42
0.625
 43
3.75
 44
1.25
 45
0.0
 46
0.0
 47
0.0
 48
0.0
140
2.5
141
2.5
142
0.0
143
0.03937007874016
144
1.0
145
0.0
146
1.0
147
0.625
 71
     0
 72
     0
 73
     0
 74
     0
 75
     0
 76
     0
 77
     1
 78
     8
170
     0
171
     3
172
     1
173
     0
174
     0
175
     0
176
     0
177
     0
178
     0
270
     2
271
     2
272
     2
273
     2
274
     3
340
11
275
     0
280
     0
281
     0
282
     0
283
     0
284
     8
285
     0
286
     0
287
     3
288
     0
  0
ENDTAB
  0
TABLE
  2
BLOCK_RECORD
  5
1
330
0
100
AcDbSymbolTable
 70
     1
  0
BLOCK_RECORD
  5
1F
330
1
100
AcDbSymbolTableRecord
100
AcDbBlockTableRecord
  2
*MODEL_SPACE
  0
BLOCK_RECORD
  5
1B
330
1
100
AcDbSymbolTableRecord
100
AcDbBlockTableRecord
  2
*PAPER_SPACE
  0
ENDTAB
  0
ENDSEC
  0
SECTION
  2
BLOCKS
  0
BLOCK
  5
20
330
1F
100
AcDbEntity
  8
0
100
AcDbBlockBegin
  2
*MODEL_SPACE
 70
     0
 10
0.0
 20
0.0
 30
0.0
  3
*MODEL_SPACE
  1

  0
ENDBLK
  5
21
330
1F
100
AcDbEntity
  8
0
100
AcDbBlockEnd
  0
BLOCK
  5
1C
330
1B
100
AcDbEntity
 67
     1
  8
0
100
AcDbBlockBegin
  2
*PAPER_SPACE
  1

  0
ENDBLK
  5
1D
330
1B
100
AcDbEntity
 67
     1
  8
0
100
AcDbBlockEnd
  0
ENDSEC
  0
SECTION
  2
ENTITIES
  0
SPLINE
  5
100
100
AcDbEntity
  8
0
 62
7
100
AcDbSpline
 70
8
 71
3
 72
8
 73
4
 74
0
 40
0
 40
0
 40
0
 40
0
 40
1
 40
1
 40
1
 40
1
 10
134.296156
 20
-85.850400
 30
0.0
 10
134.240929
 20
-85.850400
 30
0.0
 10
134.196157
 20
-85.805627
 30
0.0
 10
134.196157
 20
-85.750400
 30
0.0
  0
SPLINE
  5
101
100
AcDbEntity
  8
0
 62
7
100
AcDbSpline
 70
8
 71
3
 72
8
 73
4
 74
0
 40
0
 40
0
 40
0
 40
0
 40
1
 40
1
 40
1
 40
1
 10
134.196157
 20
-85.750400
 30
0.0
 10
134.196157
 20
-85.695173
 30
0.0
 10
134.240929
 20
-85.650400
 30
0.0
 10
134.296156
 20
-85.650400
 30
0.0
  0
SPLINE
  5
102
100
AcDbEntity
  8
0
 62
7
100
AcDbSpline
 70
8
 71
3
 72
8
 73
4
 74
0
 40
0
 40
0
 40
0
 40
0
 40
1
 40
1
 40
1
 40
1
 10
134.296156
 20
-85.650400
 30
0.0
 10
134.351384
 20
-85.650400
 30
0.0
 10
134.396156
 20
-85.695173
 30
0.0
 10
134.396156
 20
-85.750400
 30
0.0
  0
SPLINE
  5
103
100
AcDbEntity
  8
0
 62
7
100
AcDbSpline
 70
8
 71
3
 72
8
 73
4
 74
0
 40
0
 40
0
 40
0
 40
0
 40
1
 40
1
 40
1
 40
1
 10
134.396156
 20
-85.750400
 30
0.0
 10
134.396156
 20
-85.805627
 30
0.0
 10
134.351384
 20
-85.850400
 30
0.0
 10
134.296156
 20
-85.850400
 30
0.0
  0
SPLINE
  5
104
100
AcDbEntity
  8
0
 62
7
100
AcDbSpline
 70
8
 71
3
 72
8
 73
4
 74
0
 40
0
 40
0
 40
0
 40
0
 40
1
 40
1
 40
1
 40
1
 10
108.368818
 20
-41.816145
 30
0.0
 10
108.313590
 20
-41.816145
 30
0.0
 10
108.268818
 20
-41.771372
 30
0.0
 10
108.268818
 20
-41.716145
 30
0.0
  0
SPLINE
  5
105
100
AcDbEntity
  8
0
 62
7
100
AcDbSpline
 70
8
 71
3
 72
8
 73
4
 74
0
 40
0
 40
0
 40
0
 40
0
 40
1
 40
1
 40
1
 40
1
 10
108.268818
 20
-41.716145
 30
0.0
 10
108.268818
 20
-41.660918
 30
0.0
 10
108.313590
 20
-41.616145
 30
0.0
 10
108.368818
 20
-41.616145
 30
0.0
  0
SPLINE
  5
106
100
AcDbEntity
  8
0
 62
7
100
AcDbSpline
 70
8
 71
3
 72
8
 73
4
 74
0
 40
0
 40
0
 40
0
 40
0
 40
1
 40
1
 40
1
 40
1
 10
108.368818
 20
-41.616145
 30
0.0
 10
108.424045
 20
-41.616145
 30
0.0
 10
108.468818
 20
-41.660918
 30
0.0
 10
108.468818
 20
-41.716145
 30
0.0
  0
SPLINE
  5
107
100
AcDbEntity
  8
0
 62
7
100
AcDbSpline
 70
8
 71
3
 72
8
 73
4
 74
0
 40
0
 40
0
 40
0
 40
0
 40
1
 40
1
 40
1
 40
1
 10
108.468818
 20
-41.716145
 30
0.0
 10
108.468818
 20
-41.771372
 30
0.0
 10
108.424045
 20
-41.816145
 30
0.0
 10
108.368818
 20
-41.816145
 30
0.0
  0
LWPOLYLINE
  5
108
100
AcDbEntity
  8
0
 62
7
100
AcDbPolyline
 90
1
 70
1
 10
134.296156
 20
-85.850400
 30
0.0
  0
LWPOLYLINE
  5
109
100
AcDbEntity
  8
0
 62
7
100
AcDbPolyline
 90
1
 70
1
 10
108.368818
 20
-41.816145
 30
0.0
  0
LWPOLYLINE
  5
10a
100
AcDbEntity
  8
0
 62
7
100
AcDbPolyline
 90
16
 70
1
 10
133.059680
 20
-83.889083
 30
0.0
 10
133.346701
 20
-83.462363
 30
0.0
 10
133.773421
 20
-83.175342
 30
0.0
 10
134.294122
 20
-83.071202
 30
0.0
 10
134.814822
 20
-83.175342
 30
0.0
 10
135.241543
 20
-83.462363
 30
0.0
 10
135.528563
 20
-83.889083
 30
0.0
 10
135.632703
 20
-84.409784
 30
0.0
 10
135.528563
 20
-84.930484
 30
0.0
 10
135.241543
 20
-85.357205
 30
0.0
 10
134.814822
 20
-85.644225
 30
0.0
 10
134.294122
 20
-85.748365
 30
0.0
 10
133.773421
 20
-85.644225
 30
0.0
 10
133.346701
 20
-85.357205
 30
0.0
 10
133.059680
 20
-84.930484
 30
0.0
 10
132.955540
 20
-84.409784
 30
0.0
  0
LWPOLYLINE
  5
10b
100
AcDbEntity
  8
0
 62
7
100
AcDbPolyline
 90
16
 70
1
 10
109.313193
 20
-39.428872
 30
0.0
 10
109.600214
 20
-39.855593
 30
0.0
 10
109.706894
 20
-40.376293
 30
0.0
 10
109.600214
 20
-40.896994
 30
0.0
 10
109.313193
 20
-41.323715
 30
0.0
 10
108.889013
 20
-41.610735
 30
0.0
 10
108.368312
 20
-41.714875
 30
0.0
 10
107.847612
 20
-41.610735
 30
0.0
 10
107.420891
 20
-41.323715
 30
0.0
 10
107.133871
 20
-40.896994
 30
0.0
 10
107.029731
 20
-40.376293
 30
0.0
 10
107.133871
 20
-39.855593
 30
0.0
 10
107.420891
 20
-39.428872
 30
0.0
 10
107.847612
 20
-39.141852
 30
0.0
 10
108.368312
 20
-39.037712
 30
0.0
 10
108.889013
 20
-39.141852
 30
0.0
  0
LWPOLYLINE
  5
10c
100
AcDbEntity
  8
0
 62
7
100
AcDbPolyline
 90
4
 70
1
 10
69.155746
 20
-26.825378
 30
0.0
 10
73.481371
 20
-13.513223
 30
0.0
 10
86.793527
 20
-17.838848
 30
0.0
 10
82.467901
 20
-31.151003
 30
0.0
  0
LWPOLYLINE
  5
10d
100
AcDbEntity
  8
0
 62
7
100
AcDbPolyline
 90
4
 70
1
 10
28.492841
 20
-28.677040
 30
0.0
 10
32.818466
 20
-15.364885
 30
0.0
 10
46.130620
 20
-19.690510
 30
0.0
 10
41.804995
 20
-33.002665
 30
0.0
  0
LWPOLYLINE
  5
10e
100
AcDbEntity
  8
0
 62
7
100
AcDbPolyline
 90
4
 70
1
 10
5.996035
 20
-36.350389
 30
0.0
 10
10.321660
 20
-23.035694
 30
0.0
 10
23.633815
 20
-27.361319
 30
0.0
 10
19.308190
 20
-40.676014
 30
0.0
  0
LWPOLYLINE
  5
10f
100
AcDbEntity
  8
0
 62
7
100
AcDbPolyline
 90
4
 70
1
 10
61.423977
 20
-34.313306
 30
0.0
 10
48.111822
 20
-29.987682
 30
0.0
 10
52.434907
 20
-16.675526
 30
0.0
 10
65.749602
 20
-21.001151
 30
0.0
  0
LWPOLYLINE
  5
110
100
AcDbEntity
  8
0
 62
7
100
AcDbPolyline
 90
4
 70
1
 10
21.055712
 20
-51.562466
 30
0.0
 10
34.370407
 20
-55.888091
 30
0.0
 10
30.044783
 20
-69.200246
 30
0.0
 10
16.730087
 20
-64.874621
 30
0.0
  0
LWPOLYLINE
  5
111
100
AcDbEntity
  8
0
 62
7
100
AcDbPolyline
 90
4
 70
1
 10
58.358194
 20
1.429614
 30
0.0
 10
71.670349
 20
-2.896011
 30
0.0
 10
67.344724
 20
-16.208166
 30
0.0
 10
54.032569
 20
-11.882541
 30
0.0
  0
LWPOLYLINE
  5
112
100
AcDbEntity
  8
0
 62
7
100
AcDbPolyline
 90
4
 70
1
 10
264.037470
 20
-41.173854
 30
0.0
 10
250.725315
 20
-45.499479
 30
0.0
 10
255.050940
 20
-58.814175
 30
0.0
 10
268.363095
 20
-54.488550
 30
0.0
  0
LWPOLYLINE
  5
113
100
AcDbEntity
  8
0
 62
7
100
AcDbPolyline
 90
4
 70
1
 10
59.866956
 20
-39.146932
 30
0.0
 10
55.541330
 20
-52.461627
 30
0.0
 10
42.226635
 20
-48.136002
 30
0.0
 10
46.552260
 20
-34.821307
 30
0.0
  0
LWPOLYLINE
  5
114
100
AcDbEntity
  8
0
 62
7
100
AcDbPolyline
 90
4
 70
1
 10
177.959312
 20
-83.774783
 30
0.0
 10
166.925539
 20
-92.393013
 30
0.0
 10
175.543769
 20
-103.426786
 30
0.0
 10
186.577542
 20
-94.808556
 30
0.0
  0
LWPOLYLINE
  5
115
100
AcDbEntity
  8
0
 62
7
100
AcDbPolyline
 90
4
 70
1
 10
47.707961
 20
-14.836564
 30
0.0
 10
34.395808
 20
-10.510939
 30
0.0
 10
38.721431
 20
2.801215
 30
0.0
 10
52.033586
 20
-1.524409
 30
0.0
  0
LWPOLYLINE
  5
116
100
AcDbEntity
  8
0
 62
7
100
AcDbPolyline
 90
4
 70
1
 10
63.283259
 20
-44.935599
 30
0.0
 10
67.608884
 20
-31.623443
 30
0.0
 10
80.923580
 20
-35.949068
 30
0.0
 10
76.597955
 20
-49.261224
 30
0.0
  0
LWPOLYLINE
  5
117
100
AcDbEntity
  8
0
 62
7
100
AcDbPolyline
 90
4
 70
1
 10
175.205949
 20
-59.705716
 30
0.0
 10
188.518104
 20
-55.380091
 30
0.0
 10
184.192479
 20
-42.067935
 30
0.0
 10
170.880324
 20
-46.393560
 30
0.0
  0
LWPOLYLINE
  5
118
100
AcDbEntity
  8
0
 62
7
100
AcDbPolyline
 90
4
 70
1
 10
228.182789
 20
-37.775330
 30
0.0
 10
232.508414
 20
-51.087486
 30
0.0
 10
245.823110
 20
-46.761861
 30
0.0
 10
241.497485
 20
-33.449705
 30
0.0
  0
LWPOLYLINE
  5
119
100
AcDbEntity
  8
0
 62
7
100
AcDbPolyline
 90
4
 70
1
 10
103.455947
 20
-28.245240
 30
0.0
 10
99.130322
 20
-41.559935
 30
0.0
 10
85.818165
 20
-37.234310
 30
0.0
 10
90.143791
 20
-23.919615
 30
0.0
  0
LWPOLYLINE
  5
11a
100
AcDbEntity
  8
0
 62
7
100
AcDbPolyline
 90
4
 70
1
 10
104.588788
 20
-88.433148
 30
0.0
 10
93.555015
 20
-79.814919
 30
0.0
 10
102.175785
 20
-68.781146
 30
0.0
 10
113.209558
 20
-77.399376
 30
0.0
  0
LWPOLYLINE
  5
11b
100
AcDbEntity
  8
0
 62
7
100
AcDbPolyline
 90
4
 70
1
 10
25.170517
 20
-22.550553
 30
0.0
 10
11.858362
 20
-18.224928
 30
0.0
 10
16.183987
 20
-4.910233
 30
0.0
 10
29.496142
 20
-9.235858
 30
0.0
  0
LWPOLYLINE
  5
11c
100
AcDbEntity
  8
0
 62
7
100
AcDbPolyline
 90
4
 70
1
 10
220.705021
 20
-14.836564
 30
0.0
 10
234.017176
 20
-10.510939
 30
0.0
 10
229.691551
 20
2.801215
 30
0.0
 10
216.379396
 20
-1.524409
 30
0.0
  0
LWPOLYLINE
  5
11d
100
AcDbEntity
  8
0
 62
7
100
AcDbPolyline
 90
4
 70
1
 10
196.740093
 20
-2.896011
 30
0.0
 10
201.065718
 20
-16.208166
 30
0.0
 10
214.380414
 20
-11.882541
 30
0.0
 10
210.054789
 20
1.429614
 30
0.0
  0
LWPOLYLINE
  5
11e
100
AcDbEntity
  8
0
 62
7
100
AcDbPolyline
 90
4
 70
1
 10
154.677645
 20
-107.671130
 30
0.0
 10
165.708878
 20
-99.050361
 30
0.0
 10
157.090648
 20
-88.016588
 30
0.0
 10
146.056875
 20
-96.637358
 30
0.0
  0
LWPOLYLINE
  5
11f
100
AcDbEntity
  8
0
 62
7
100
AcDbPolyline
 90
4
 70
1
 10
226.605448
 20
-33.002665
 30
0.0
 10
239.920143
 20
-28.677040
 30
0.0
 10
235.594518
 20
-15.364885
 30
0.0
 10
222.279823
 20
-19.690510
 30
0.0
  0
LWPOLYLINE
  5
120
100
AcDbEntity
  8
0
 62
7
100
AcDbPolyline
 90
4
 70
1
 10
194.367731
 20
-73.469991
 30
0.0
 10
190.042106
 20
-60.155296
 30
0.0
 10
176.729950
 20
-64.480921
 30
0.0
 10
181.055575
 20
-77.795616
 30
0.0
  0
LWPOLYLINE
  5
121
100
AcDbEntity
  8
0
 62
7
100
AcDbPolyline
 90
4
 70
1
 10
227.738289
 20
-52.916288
 30
0.0
 10
214.426134
 20
-57.241913
 30
0.0
 10
218.751759
 20
-70.554068
 30
0.0
 10
232.063914
 20
-66.228443
 30
0.0
  0
LWPOLYLINE
  5
122
100
AcDbEntity
  8
0
 62
7
100
AcDbPolyline
 90
4
 70
1
 10
193.336489
 20
-54.064369
 30
0.0
 10
197.662114
 20
-67.379064
 30
0.0
 10
210.974270
 20
-63.053439
 30
0.0
 10
206.648645
 20
-49.738744
 30
0.0
  0
LWPOLYLINE
  5
123
100
AcDbEntity
  8
0
 62
7
100
AcDbPolyline
 90
4
 70
1
 10
178.269192
 20
-23.919615
 30
0.0
 10
164.957037
 20
-28.245240
 30
0.0
 10
169.282662
 20
-41.559935
 30
0.0
 10
182.594817
 20
-37.234310
 30
0.0
  0
LWPOLYLINE
  5
124
100
AcDbEntity
  8
0
 62
7
100
AcDbPolyline
 90
4
 70
1
 10
163.821656
 20
-88.433148
 30
0.0
 10
174.855428
 20
-79.814919
 30
0.0
 10
166.237198
 20
-68.781146
 30
0.0
 10
155.203426
 20
-77.399376
 30
0.0
  0
LWPOLYLINE
  5
125
100
AcDbEntity
  8
0
 62
7
100
AcDbPolyline
 90
4
 70
1
 10
191.815028
 20
-49.261224
 30
0.0
 10
205.127183
 20
-44.935599
 30
0.0
 10
200.801558
 20
-31.623443
 30
0.0
 10
187.489403
 20
-35.949068
 30
0.0
  0
LWPOLYLINE
  5
126
100
AcDbEntity
  8
0
 62
7
100
AcDbPolyline
 90
4
 70
1
 10
206.989005
 20
-34.313306
 30
0.0
 10
220.301160
 20
-29.987682
 30
0.0
 10
215.975535
 20
-16.675526
 30
0.0
 10
202.663380
 20
-21.001151
 30
0.0
  0
LWPOLYLINE
  5
127
100
AcDbEntity
  8
0
 62
7
100
AcDbPolyline
 90
4
 70
1
 10
238.368201
 20
-69.200246
 30
0.0
 10
251.680356
 20
-64.874621
 30
0.0
 10
247.354731
 20
-51.562466
 30
0.0
 10
234.042576
 20
-55.888091
 30
0.0
  0
LWPOLYLINE
  5
128
100
AcDbEntity
  8
0
 62
7
100
AcDbPolyline
 90
4
 70
1
 10
249.102253
 20
-40.676014
 30
0.0
 10
262.416949
 20
-36.350389
 30
0.0
 10
258.091324
 20
-23.035694
 30
0.0
 10
244.776628
 20
-27.361319
 30
0.0
  0
LWPOLYLINE
  5
129
100
AcDbEntity
  8
0
 62
7
100
AcDbPolyline
 90
4
 70
1
 10
226.183807
 20
-48.136002
 30
0.0
 10
221.858182
 20
-34.821307
 30
0.0
 10
208.546027
 20
-39.146932
 30
0.0
 10
212.871652
 20
-52.461627
 30
0.0
  0
LWPOLYLINE
  5
12a
100
AcDbEntity
  8
0
 62
7
100
AcDbPolyline
 90
4
 70
1
 10
243.239927
 20
-22.550553
 30
0.0
 10
256.554622
 20
-18.224928
 30
0.0
 10
252.228997
 20
-4.910233
 30
0.0
 10
238.914302
 20
-9.235858
 30
0.0
  0
LWPOLYLINE
  5
12b
100
AcDbEntity
  8
0
 62
7
100
AcDbPolyline
 90
4
 70
1
 10
185.945081
 20
-31.151003
 30
0.0
 10
199.257236
 20
-26.825378
 30
0.0
 10
194.931611
 20
-13.513223
 30
0.0
 10
181.619456
 20
-17.838848
 30
0.0
  0
LWPOLYLINE
  5
12c
100
AcDbEntity
  8
0
 62
7
100
AcDbPolyline
 90
4
 70
1
 10
113.735338
 20
-107.671130
 30
0.0
 10
102.701566
 20
-99.050361
 30
0.0
 10
111.322336
 20
-88.016588
 30
0.0
 10
122.356108
 20
-96.637358
 30
0.0
  0
LWPOLYLINE
  5
12d
100
AcDbEntity
  8
0
 62
7
100
AcDbPolyline
 90
4
 70
1
 10
40.674693
 20
-52.916288
 30
0.0
 10
53.986849
 20
-57.241913
 30
0.0
 10
49.661224
 20
-70.554068
 30
0.0
 10
36.349068
 20
-66.228443
 30
0.0
  0
LWPOLYLINE
  5
12e
100
AcDbEntity
  8
0
 62
7
100
AcDbPolyline
 90
4
 70
1
 10
78.368337
 20
-60.155296
 30
0.0
 10
91.683033
 20
-64.480921
 30
0.0
 10
87.357408
 20
-77.795616
 30
0.0
 10
74.042712
 20
-73.469991
 30
0.0
  0
LWPOLYLINE
  5
12f
100
AcDbEntity
  8
0
 62
7
100
AcDbPolyline
 90
4
 70
1
 10
75.076493
 20
-54.064369
 30
0.0
 10
70.750868
 20
-67.379064
 30
0.0
 10
57.438713
 20
-63.053439
 30
0.0
 10
61.764338
 20
-49.738744
 30
0.0
  0
LWPOLYLINE
  5
130
100
AcDbEntity
  8
0
 62
7
100
AcDbPolyline
 90
4
 70
1
 10
90.453672
 20
-83.774783
 30
0.0
 10
101.487444
 20
-92.393013
 30
0.0
 10
92.866674
 20
-103.426786
 30
0.0
 10
81.832901
 20
-94.808556
 30
0.0
  0
LWPOLYLINE
  5
131
100
AcDbEntity
  8
0
 62
7
100
AcDbPolyline
 90
4
 70
1
 10
17.687668
 20
-45.499479
 30
0.0
 10
13.362043
 20
-58.814175
 30
0.0
 10
0.049888
 20
-54.488550
 30
0.0
 10
4.375513
 20
-41.173854
 30
0.0
  0
LWPOLYLINE
  5
132
100
AcDbEntity
  8
0
 62
7
100
AcDbPolyline
 90
4
 70
1
 10
40.227653
 20
-37.775330
 30
0.0
 10
35.902028
 20
-51.087486
 30
0.0
 10
22.589874
 20
-46.761861
 30
0.0
 10
26.915499
 20
-33.449705
 30
0.0
  0
SPLINE
  5
133
100
AcDbEntity
  8
0
 62
7
100
AcDbSpline
 70
8
 71
3
 72
8
 73
4
 74
0
 40
0
 40
0
 40
0
 40
0
 40
1
 40
1
 40
1
 40
1
 10
159.652241
 20
-41.833160
 30
0.0
 10
159.597014
 20
-41.833160
 30
0.0
 10
159.552241
 20
-41.788388
 30
0.0
 10
159.552241
 20
-41.733160
 30
0.0
  0
SPLINE
  5
134
100
AcDbEntity
  8
0
 62
7
100
AcDbSpline
 70
8
 71
3
 72
8
 73
4
 74
0
 40
0
 40
0
 40
0
 40
0
 40
1
 40
1
 40
1
 40
1
 10
159.552241
 20
-41.733160
 30
0.0
 10
159.552241
 20
-41.677933
 30
0.0
 10
159.597014
 20
-41.633161
 30
0.0
 10
159.652241
 20
-41.633161
 30
0.0
  0
SPLINE
  5
135
100
AcDbEntity
  8
0
 62
7
100
AcDbSpline
 70
8
 71
3
 72
8
 73
4
 74
0
 40
0
 40
0
 40
0
 40
0
 40
1
 40
1
 40
1
 40
1
 10
159.652241
 20
-41.633161
 30
0.0
 10
159.707468
 20
-41.633161
 30
0.0
 10
159.752241
 20
-41.677933
 30
0.0
 10
159.752241
 20
-41.733160
 30
0.0
  0
SPLINE
  5
136
100
AcDbEntity
  8
0
 62
7
100
AcDbSpline
 70
8
 71
3
 72
8
 73
4
 74
0
 40
0
 40
0
 40
0
 40
0
 40
1
 40
1
 40
1
 40
1
 10
159.752241
 20
-41.733160
 30
0.0
 10
159.752241
 20
-41.788388
 30
0.0
 10
159.707468
 20
-41.833160
 30
0.0
 10
159.652241
 20
-41.833160
 30
0.0
  0
LWPOLYLINE
  5
137
100
AcDbEntity
  8
0
 62
7
100
AcDbPolyline
 90
4
 70
1
 10
84.220503
 20
-42.067935
 30
0.0
 10
97.532660
 20
-46.393560
 30
0.0
 10
93.207035
 20
-59.705716
 30
0.0
 10
79.894878
 20
-55.380091
 30
0.0
  0
LWPOLYLINE
  5
138
100
AcDbEntity
  8
0
 62
7
100
AcDbPolyline
 90
1
 70
1
 10
159.652241
 20
-41.833160
 30
0.0
  0
LWPOLYLINE
  5
139
100
AcDbEntity
  8
0
 62
7
100
AcDbPolyline
 90
16
 70
1
 10
158.416529
 20
-40.914774
 30
0.0
 10
158.312389
 20
-40.394073
 30
0.0
 10
158.416529
 20
-39.870833
 30
0.0
 10
158.703550
 20
-39.446652
 30
0.0
 10
159.130270
 20
-39.159632
 30
0.0
 10
159.650971
 20
-39.055492
 30
0.0
 10
160.171672
 20
-39.159632
 30
0.0
 10
160.595852
 20
-39.446652
 30
0.0
 10
160.882872
 20
-39.870833
 30
0.0
 10
160.989552
 20
-40.394073
 30
0.0
 10
160.882872
 20
-40.914774
 30
0.0
 10
160.595852
 20
-41.338955
 30
0.0
 10
160.171672
 20
-41.625975
 30
0.0
 10
159.650971
 20
-41.732655
 30
0.0
 10
159.130270
 20
-41.625975
 30
0.0
 10
158.703550
 20
-41.338955
 30
0.0
  0
LWPOLYLINE
  5
13a
100
AcDbEntity
  8
0
 62
7
100
AcDbPolyline
 90
127
 70
1
 10
122.996189
 20
-78.585557
 30
0.0
 10
123.829310
 20
-78.953858
 30
0.0
 10
124.677671
 20
-79.291678
 30
0.0
 10
125.536192
 20
-79.601558
 30
0.0
 10
126.407413
 20
-79.878419
 30
0.0
 10
127.283714
 20
-80.127339
 30
0.0
 10
128.172715
 20
-80.345779
 30
0.0
 10
129.066796
 20
-80.533739
 30
0.0
 10
129.965957
 20
-80.688680
 30
0.0
 10
130.870198
 20
-80.815680
 30
0.0
 10
131.779519
 20
-80.907120
 30
0.0
 10
132.691380
 20
-80.970620
 30
0.0
 10
133.603241
 20
-80.998560
 30
0.0
 10
134.517642
 20
-80.998560
 30
0.0
 10
135.429503
 20
-80.965540
 30
0.0
 10
136.341364
 20
-80.899500
 30
0.0
 10
137.250685
 20
-80.802980
 30
0.0
 10
138.154926
 20
-80.675980
 30
0.0
 10
139.054087
 20
-80.515959
 30
0.0
 10
139.945628
 20
-80.325459
 30
0.0
 10
140.832089
 20
-80.104479
 30
0.0
 10
141.710930
 20
-79.850479
 30
0.0
 10
142.579611
 20
-79.568538
 30
0.0
 10
143.435592
 20
-79.256118
 30
0.0
 10
144.283953
 20
-78.915758
 30
0.0
 10
145.117074
 20
-78.544917
 30
0.0
 10
145.937495
 20
-78.143597
 30
0.0
 10
146.742676
 20
-77.716876
 30
0.0
 10
147.532617
 20
-77.262216
 30
0.0
 10
148.307318
 20
-76.779615
 30
0.0
 10
149.061699
 20
-76.269075
 30
0.0
 10
149.800840
 20
-75.733134
 30
0.0
 10
150.519660
 20
-75.174333
 30
0.0
 10
151.218161
 20
-74.587593
 30
0.0
 10
151.896342
 20
-73.980532
 30
0.0
 10
152.551663
 20
-73.348071
 30
0.0
 10
153.184124
 20
-72.692750
 30
0.0
 10
153.793724
 20
-72.017110
 30
0.0
 10
154.380465
 20
-71.321149
 30
0.0
 10
154.941806
 20
-70.602328
 30
0.0
 10
154.941806
 20
-39.406012
 30
0.0
 10
154.421105
 20
-38.740532
 30
0.0
 10
153.880084
 20
-38.090291
 30
0.0
 10
153.318744
 20
-37.460370
 30
0.0
 10
152.737083
 20
-36.848229
 30
0.0
 10
152.135102
 20
-36.253869
 30
0.0
 10
151.515342
 20
-35.682368
 30
0.0
 10
147.095737
 20
-32.492124
 30
0.0
 10
147.070337
 20
-32.476884
 30
0.0
 10
146.280396
 20
-32.042544
 30
0.0
 10
145.477755
 20
-31.636143
 30
0.0
 10
144.659874
 20
-31.257683
 30
0.0
 10
143.829293
 20
-30.907163
 30
0.0
 10
142.986012
 20
-30.584582
 30
0.0
 10
142.132571
 20
-30.289942
 30
0.0
 10
141.268970
 20
-30.025782
 30
0.0
 10
140.397749
 20
-29.792101
 30
0.0
 10
139.518908
 20
-29.588901
 30
0.0
 10
138.634987
 20
-29.416181
 30
0.0
 10
137.743446
 20
-29.271401
 30
0.0
 10
136.846825
 20
-29.159641
 30
0.0
 10
135.947664
 20
-29.078360
 30
0.0
 10
135.048503
 20
-29.027560
 30
0.0
 10
134.144262
 20
-29.007240
 30
0.0
 10
133.242561
 20
-29.017400
 30
0.0
 10
132.340860
 20
-29.060580
 30
0.0
 10
131.441699
 20
-29.131701
 30
0.0
 10
130.545078
 20
-29.235841
 30
0.0
 10
129.653537
 20
-29.370461
 30
0.0
 10
128.764536
 20
-29.535561
 30
0.0
 10
127.883155
 20
-29.731141
 30
0.0
 10
127.009394
 20
-29.954661
 30
0.0
 10
126.145793
 20
-30.211202
 30
0.0
 10
125.289812
 20
-30.495682
 30
0.0
 10
124.443991
 20
-30.808102
 30
0.0
 10
123.608330
 20
-31.151003
 30
0.0
 10
122.787909
 20
-31.521843
 30
0.0
 10
121.977648
 20
-31.920624
 30
0.0
 10
121.185167
 20
-32.347344
 30
0.0
 10
120.405386
 20
-32.799465
 30
0.0
 10
119.643385
 20
-33.279525
 30
0.0
 10
118.896624
 20
-33.784986
 30
0.0
 10
118.170183
 20
-34.315846
 30
0.0
 10
117.461523
 20
-34.872107
 30
0.0
 10
116.773182
 20
-35.451228
 30
0.0
 10
116.102621
 20
-36.053208
 30
0.0
 10
115.457460
 20
-36.678049
 30
0.0
 10
114.830080
 20
-37.325750
 30
0.0
 10
114.228099
 20
-37.993771
 30
0.0
 10
113.651518
 20
-38.682111
 30
0.0
 10
113.491498
 20
-38.880232
 30
0.0
 10
113.334018
 20
-39.078352
 30
0.0
 10
113.181618
 20
-39.279012
 30
0.0
 10
113.029218
 20
-39.479672
 30
0.0
 10
112.879357
 20
-39.685413
 30
0.0
 10
112.732037
 20
-39.891153
 30
0.0
 10
112.587257
 20
-40.096893
 30
0.0
 10
112.442477
 20
-40.305173
 30
0.0
 10
112.300237
 20
-40.513454
 30
0.0
 10
112.157997
 20
-40.721734
 30
0.0
 10
112.061476
 20
-40.861434
 30
0.0
 10
111.583956
 20
-41.620895
 30
0.0
 10
111.131835
 20
-42.398136
 30
0.0
 10
110.710195
 20
-43.190617
 30
0.0
 10
110.313954
 20
-43.995798
 30
0.0
 10
109.945654
 20
-44.816219
 30
0.0
 10
109.945654
 20
-65.194662
 30
0.0
 10
110.316494
 20
-66.022703
 30
0.0
 10
110.720355
 20
-66.838044
 30
0.0
 10
111.149615
 20
-67.638145
 30
0.0
 10
111.606816
 20
-68.425546
 30
0.0
 10
112.091956
 20
-69.195166
 30
0.0
 10
112.605037
 20
-69.947007
 30
0.0
 10
113.140978
 20
-70.681068
 30
0.0
 10
113.704858
 20
-71.394809
 30
0.0
 10
114.294139
 20
-72.088230
 30
0.0
 10
114.906280
 20
-72.763870
 30
0.0
 10
115.541280
 20
-73.414111
 30
0.0
 10
116.199141
 20
-74.044032
 30
0.0
 10
116.879862
 20
-74.651093
 30
0.0
 10
117.580903
 20
-75.232753
 30
0.0
 10
118.299724
 20
-75.791554
 30
0.0
 10
119.041404
 20
-76.324955
 30
0.0
 10
119.798325
 20
-76.830415
 30
0.0
 10
120.575566
 20
-77.310476
 30
0.0
 10
121.365507
 20
-77.762596
 30
0.0
 10
122.173228
 20
-78.189317
 30
0.0
  0
ENDSEC
  0
SECTION
  2
OBJECTS
  0
DICTIONARY
  5
C
330
0
100
AcDbDictionary
  3
ACAD_GROUP
350
D
  3
ACAD_MLINESTYLE
350
17
  0
DICTIONARY
  5
D
330
C
100
AcDbDictionary
  0
DICTIONARY
  5
1A
330
C
100
AcDbDictionary
  0
DICTIONARY
  5
17
330
C
100
AcDbDictionary
  3
STANDARD
350
18
  0
DICTIONARY
  5
19
330
C
100
AcDbDictionary
  0
ENDSEC
  0
EOF
