  0
SECTION
  2
HEADER
  9
$ACADVER
  1
AC1014
  9
$HANDSEED
  5
FFFF
  9
$MEASUREMENT
 70
     1
  0
ENDSEC
  0
SECTION
  2
TABLES
  0
TABLE
  2
VPORT
  5
8
330
0
100
AcDbSymbolTable
 70
     4
  0
VPORT
  5
2E
330
8
100
AcDbSymbolTableRecord
100
AcDbViewportTableRecord
  2
*ACTIVE
 70
     0
 10
0.0
 20
0.0
 11
1.0
 21
1.0
 12
210.0
 22
148.5
 13
0.0
 23
0.0
 14
10.0
 24
10.0
 15
10.0
 25
10.0
 16
0.0
 26
0.0
 36
1.0
 17
0.0
 27
0.0
 37
0.0
 40
341.0
 41
1.24
 42
50.0
 43
0.0
 44
0.0
 50
0.0
 51
0.0
 71
     0
 72
   100
 73
     1
 74
     3
 75
     0
 76
     0
 77
     0
 78
     0
  0
ENDTAB
  0
TABLE
  2
LTYPE
  5
5
330
0
100
AcDbSymbolTable
 70
     1
  0
LTYPE
  5
14
330
5
100
AcDbSymbolTableRecord
100
AcDbLinetypeTableRecord
  2
BYBLOCK
 70
     0
  3

 72
    65
 73
     0
 40
0.0
  0
LTYPE
  5
15
330
5
100
AcDbSymbolTableRecord
100
AcDbLinetypeTableRecord
  2
BYLAYER
 70
     0
  3

 72
    65
 73
     0
 40
0.0
  0
LTYPE
  5
16
330
5
100
AcDbSymbolTableRecord
100
AcDbLinetypeTableRecord
  2
CONTINUOUS
 70
     0
  3
Solid line
 72
    65
 73
     0
 40
0.0
  0
ENDTAB
  0
TABLE
  2
LAYER
  5
2
100
AcDbSymbolTable
 70
1
  0
LAYER
  5
50
100
AcDbSymbolTableRecord
100
AcDbLayerTableRecord
  2
0
 70
0
  6
CONTINUOUS
  0
ENDTAB
  0
TABLE
  2
STYLE
  5
3
330
0
100
AcDbSymbolTable
 70
     1
  0
STYLE
  5
11
330
3
100
AcDbSymbolTableRecord
100
AcDbTextStyleTableRecord
  2
STANDARD
 70
     0
 40
0.0
 41
1.0
 50
0.0
 71
     0
 42
2.5
  3
txt
  4

  0
ENDTAB
  0
TABLE
  2
VIEW
  5
6
330
0
100
AcDbSymbolTable
 70
     0
  0
ENDTAB
  0
TABLE
  2
UCS
  5
7
330
0
100
AcDbSymbolTable
 70
     0
  0
ENDTAB
  0
TABLE
  2
APPID
  5
9
330
0
100
AcDbSymbolTable
 70
     2
  0
APPID
  5
12
330
9
100
AcDbSymbolTableRecord
100
AcDbRegAppTableRecord
  2
ACAD
 70
     0
  0
ENDTAB
  0
TABLE
  2
DIMSTYLE
  5
A
330
0
100
AcDbSymbolTable
 70
     1
  0
DIMSTYLE
105
27
330
A
100
AcDbSymbolTableRecord
100
AcDbDimStyleTableRecord
  2
ISO-25
 70
     0
  3

  4

  5

  6

  7

 40
1.0
 41
2.5
 42
0.625
 43
3.75
 44
1.25
 45
0.0
 46
0.0
 47
0.0
 48
0.0
140
2.5
141
2.5
142
0.0
143
0.03937007874016
144
1.0
145
0.0
146
1.0
147
0.625
 71
     0
 72
     0
 73
     0
 74
     0
 75
     0
 76
     0
 77
     1
 78
     8
170
     0
171
     3
172
     1
173
     0
174
     0
175
     0
176
     0
177
     0
178
     0
270
     2
271
     2
272
     2
273
     2
274
     3
340
11
275
     0
280
     0
281
     0
282
     0
283
     0
284
     8
285
     0
286
     0
287
     3
288
     0
  0
ENDTAB
  0
TABLE
  2
BLOCK_RECORD
  5
1
330
0
100
AcDbSymbolTable
 70
     1
  0
BLOCK_RECORD
  5
1F
330
1
100
AcDbSymbolTableRecord
100
AcDbBlockTableRecord
  2
*MODEL_SPACE
  0
BLOCK_RECORD
  5
1B
330
1
100
AcDbSymbolTableRecord
100
AcDbBlockTableRecord
  2
*PAPER_SPACE
  0
ENDTAB
  0
ENDSEC
  0
SECTION
  2
BLOCKS
  0
BLOCK
  5
20
330
1F
100
AcDbEntity
  8
0
100
AcDbBlockBegin
  2
*MODEL_SPACE
 70
     0
 10
0.0
 20
0.0
 30
0.0
  3
*MODEL_SPACE
  1

  0
ENDBLK
  5
21
330
1F
100
AcDbEntity
  8
0
100
AcDbBlockEnd
  0
BLOCK
  5
1C
330
1B
100
AcDbEntity
 67
     1
  8
0
100
AcDbBlockBegin
  2
*PAPER_SPACE
  1

  0
ENDBLK
  5
1D
330
1B
100
AcDbEntity
 67
     1
  8
0
100
AcDbBlockEnd
  0
ENDSEC
  0
SECTION
  2
ENTITIES
  0
LWPOLYLINE
  5
100
100
AcDbEntity
  8
0
 62
7
100
AcDbPolyline
 90
4
 70
1
 10
299.989240
 20
-250.151067
 30
0.0
 10
407.989278
 20
-250.151067
 30
0.0
 10
407.989278
 20
-282.151003
 30
0.0
 10
299.989240
 20
-282.151003
 30
0.0
  0
LWPOLYLINE
  5
101
100
AcDbEntity
  8
0
 62
7
100
AcDbPolyline
 90
4
 70
1
 10
10.000005
 20
-7.148784
 30
0.0
 10
409.989045
 20
-7.148784
 30
0.0
 10
409.989045
 20
-284.151024
 30
0.0
 10
10.000005
 20
-284.151024
 30
0.0
  0
LWPOLYLINE
  5
102
100
AcDbEntity
  8
0
 62
7
100
AcDbPolyline
 90
4
 70
1
 10
12.000001
 20
-9.148780
 30
0.0
 10
407.988541
 20
-9.148780
 30
0.0
 10
407.988541
 20
-282.150520
 30
0.0
 10
12.000001
 20
-282.150520
 30
0.0
  0
LWPOLYLINE
  5
103
100
AcDbEntity
  8
0
 62
7
100
AcDbPolyline
 90
2
 70
0
 10
59.999880
 20
-9.147739
 30
0.0
 10
59.999880
 20
-7.148759
 30
0.0
  0
LWPOLYLINE
  5
104
100
AcDbEntity
  8
0
 62
7
100
AcDbPolyline
 90
2
 70
0
 10
109.999780
 20
-9.147739
 30
0.0
 10
109.999780
 20
-7.148759
 30
0.0
  0
LWPOLYLINE
  5
105
100
AcDbEntity
  8
0
 62
7
100
AcDbPolyline
 90
2
 70
0
 10
159.999680
 20
-9.147739
 30
0.0
 10
159.999680
 20
-7.148759
 30
0.0
  0
LWPOLYLINE
  5
106
100
AcDbEntity
  8
0
 62
7
100
AcDbPolyline
 90
2
 70
0
 10
209.999580
 20
-9.147739
 30
0.0
 10
209.999580
 20
-7.148759
 30
0.0
  0
LWPOLYLINE
  5
107
100
AcDbEntity
  8
0
 62
7
100
AcDbPolyline
 90
2
 70
0
 10
259.999480
 20
-9.147739
 30
0.0
 10
259.999480
 20
-7.148759
 30
0.0
  0
LWPOLYLINE
  5
108
100
AcDbEntity
  8
0
 62
7
100
AcDbPolyline
 90
2
 70
0
 10
309.999380
 20
-9.147739
 30
0.0
 10
309.999380
 20
-7.148759
 30
0.0
  0
LWPOLYLINE
  5
109
100
AcDbEntity
  8
0
 62
7
100
AcDbPolyline
 90
2
 70
0
 10
359.999280
 20
-9.147739
 30
0.0
 10
359.999280
 20
-7.148759
 30
0.0
  0
LWPOLYLINE
  5
10a
100
AcDbEntity
  8
0
 62
7
100
AcDbPolyline
 90
2
 70
0
 10
36.065460
 20
-8.736259
 30
0.0
 10
35.321240
 20
-8.736259
 30
0.0
  0
LWPOLYLINE
  5
10b
100
AcDbEntity
  8
0
 62
7
100
AcDbPolyline
 90
5
 70
0
 10
35.692080
 20
-8.736259
 30
0.0
 10
35.692080
 20
-7.435779
 30
0.0
 10
35.570160
 20
-7.621199
 30
0.0
 10
35.445700
 20
-7.745659
 30
0.0
 10
35.321240
 20
-7.806619
 30
0.0
  0
LWPOLYLINE
  5
10c
100
AcDbEntity
  8
0
 62
7
100
AcDbPolyline
 90
11
 70
0
 10
85.321140
 20
-7.560239
 30
0.0
 10
85.382100
 20
-7.496739
 30
0.0
 10
85.506560
 20
-7.435779
 30
0.0
 10
85.816440
 20
-7.435779
 30
0.0
 10
85.940900
 20
-7.496739
 30
0.0
 10
86.001860
 20
-7.560239
 30
0.0
 10
86.065360
 20
-7.682159
 30
0.0
 10
86.065360
 20
-7.806619
 30
0.0
 10
86.001860
 20
-7.992039
 30
0.0
 10
85.260180
 20
-8.736259
 30
0.0
 10
86.065360
 20
-8.736259
 30
0.0
  0
LWPOLYLINE
  5
10d
100
AcDbEntity
  8
0
 62
7
100
AcDbPolyline
 90
14
 70
0
 10
135.260080
 20
-7.435779
 30
0.0
 10
136.065260
 20
-7.435779
 30
0.0
 10
135.630920
 20
-7.931079
 30
0.0
 10
135.816340
 20
-7.931079
 30
0.0
 10
135.940800
 20
-7.992039
 30
0.0
 10
136.001760
 20
-8.055539
 30
0.0
 10
136.065260
 20
-8.177459
 30
0.0
 10
136.065260
 20
-8.487339
 30
0.0
 10
136.001760
 20
-8.611799
 30
0.0
 10
135.940800
 20
-8.672759
 30
0.0
 10
135.816340
 20
-8.736259
 30
0.0
 10
135.445500
 20
-8.736259
 30
0.0
 10
135.321040
 20
-8.672759
 30
0.0
 10
135.260080
 20
-8.611799
 30
0.0
  0
LWPOLYLINE
  5
10e
100
AcDbEntity
  8
0
 62
7
100
AcDbPolyline
 90
2
 70
0
 10
185.940700
 20
-7.870119
 30
0.0
 10
185.940700
 20
-8.736259
 30
0.0
  0
LWPOLYLINE
  5
10f
100
AcDbEntity
  8
0
 62
7
100
AcDbPolyline
 90
3
 70
0
 10
185.630820
 20
-7.374819
 30
0.0
 10
185.320940
 20
-8.301919
 30
0.0
 10
186.126120
 20
-8.301919
 30
0.0
  0
LWPOLYLINE
  5
110
100
AcDbEntity
  8
0
 62
7
100
AcDbPolyline
 90
16
 70
0
 10
236.001560
 20
-7.435779
 30
0.0
 10
235.384340
 20
-7.435779
 30
0.0
 10
235.320840
 20
-8.055539
 30
0.0
 10
235.384340
 20
-7.992039
 30
0.0
 10
235.506260
 20
-7.931079
 30
0.0
 10
235.816140
 20
-7.931079
 30
0.0
 10
235.940600
 20
-7.992039
 30
0.0
 10
236.001560
 20
-8.055539
 30
0.0
 10
236.065060
 20
-8.177459
 30
0.0
 10
236.065060
 20
-8.487339
 30
0.0
 10
236.001560
 20
-8.611799
 30
0.0
 10
235.940600
 20
-8.672759
 30
0.0
 10
235.816140
 20
-8.736259
 30
0.0
 10
235.506260
 20
-8.736259
 30
0.0
 10
235.384340
 20
-8.672759
 30
0.0
 10
235.320840
 20
-8.611799
 30
0.0
  0
LWPOLYLINE
  5
111
100
AcDbEntity
  8
0
 62
7
100
AcDbPolyline
 90
22
 70
0
 10
285.940500
 20
-7.435779
 30
0.0
 10
285.691580
 20
-7.435779
 30
0.0
 10
285.569660
 20
-7.496739
 30
0.0
 10
285.506160
 20
-7.560239
 30
0.0
 10
285.384240
 20
-7.745659
 30
0.0
 10
285.320740
 20
-7.992039
 30
0.0
 10
285.320740
 20
-8.487339
 30
0.0
 10
285.384240
 20
-8.611799
 30
0.0
 10
285.445200
 20
-8.672759
 30
0.0
 10
285.569660
 20
-8.736259
 30
0.0
 10
285.816040
 20
-8.736259
 30
0.0
 10
285.940500
 20
-8.672759
 30
0.0
 10
286.001460
 20
-8.611799
 30
0.0
 10
286.064960
 20
-8.487339
 30
0.0
 10
286.064960
 20
-8.177459
 30
0.0
 10
286.001460
 20
-8.055539
 30
0.0
 10
285.940500
 20
-7.992039
 30
0.0
 10
285.816040
 20
-7.931079
 30
0.0
 10
285.569660
 20
-7.931079
 30
0.0
 10
285.445200
 20
-7.992039
 30
0.0
 10
285.384240
 20
-8.055539
 30
0.0
 10
285.320740
 20
-8.177459
 30
0.0
  0
LWPOLYLINE
  5
112
100
AcDbEntity
  8
0
 62
7
100
AcDbPolyline
 90
3
 70
0
 10
335.259680
 20
-7.435779
 30
0.0
 10
336.125820
 20
-7.435779
 30
0.0
 10
335.569560
 20
-8.736259
 30
0.0
  0
LWPOLYLINE
  5
113
100
AcDbEntity
  8
0
 62
7
100
AcDbPolyline
 90
32
 70
0
 10
385.569460
 20
-7.992039
 30
0.0
 10
385.445000
 20
-7.931079
 30
0.0
 10
385.384040
 20
-7.870119
 30
0.0
 10
385.320540
 20
-7.745659
 30
0.0
 10
385.320540
 20
-7.682159
 30
0.0
 10
385.384040
 20
-7.560239
 30
0.0
 10
385.445000
 20
-7.496739
 30
0.0
 10
385.569460
 20
-7.435779
 30
0.0
 10
385.815840
 20
-7.435779
 30
0.0
 10
385.940300
 20
-7.496739
 30
0.0
 10
386.001260
 20
-7.560239
 30
0.0
 10
386.064760
 20
-7.682159
 30
0.0
 10
386.064760
 20
-7.745659
 30
0.0
 10
386.001260
 20
-7.870119
 30
0.0
 10
385.940300
 20
-7.931079
 30
0.0
 10
385.815840
 20
-7.992039
 30
0.0
 10
385.569460
 20
-7.992039
 30
0.0
 10
385.445000
 20
-8.055539
 30
0.0
 10
385.384040
 20
-8.116499
 30
0.0
 10
385.320540
 20
-8.240959
 30
0.0
 10
385.320540
 20
-8.487339
 30
0.0
 10
385.384040
 20
-8.611799
 30
0.0
 10
385.445000
 20
-8.672759
 30
0.0
 10
385.569460
 20
-8.736259
 30
0.0
 10
385.815840
 20
-8.736259
 30
0.0
 10
385.940300
 20
-8.672759
 30
0.0
 10
386.001260
 20
-8.611799
 30
0.0
 10
386.064760
 20
-8.487339
 30
0.0
 10
386.064760
 20
-8.240959
 30
0.0
 10
386.001260
 20
-8.116499
 30
0.0
 10
385.940300
 20
-8.055539
 30
0.0
 10
385.815840
 20
-7.992039
 30
0.0
  0
LWPOLYLINE
  5
114
100
AcDbEntity
  8
0
 62
7
100
AcDbPolyline
 90
2
 70
0
 10
59.999880
 20
-282.149479
 30
0.0
 10
59.999880
 20
-284.148459
 30
0.0
  0
LWPOLYLINE
  5
115
100
AcDbEntity
  8
0
 62
7
100
AcDbPolyline
 90
2
 70
0
 10
109.999780
 20
-282.149479
 30
0.0
 10
109.999780
 20
-284.148459
 30
0.0
  0
LWPOLYLINE
  5
116
100
AcDbEntity
  8
0
 62
7
100
AcDbPolyline
 90
2
 70
0
 10
159.999680
 20
-282.149479
 30
0.0
 10
159.999680
 20
-284.148459
 30
0.0
  0
LWPOLYLINE
  5
117
100
AcDbEntity
  8
0
 62
7
100
AcDbPolyline
 90
2
 70
0
 10
209.999580
 20
-282.149479
 30
0.0
 10
209.999580
 20
-284.148459
 30
0.0
  0
LWPOLYLINE
  5
118
100
AcDbEntity
  8
0
 62
7
100
AcDbPolyline
 90
2
 70
0
 10
259.999480
 20
-282.149479
 30
0.0
 10
259.999480
 20
-284.148459
 30
0.0
  0
LWPOLYLINE
  5
119
100
AcDbEntity
  8
0
 62
7
100
AcDbPolyline
 90
2
 70
0
 10
309.999380
 20
-282.149479
 30
0.0
 10
309.999380
 20
-284.148459
 30
0.0
  0
LWPOLYLINE
  5
11a
100
AcDbEntity
  8
0
 62
7
100
AcDbPolyline
 90
2
 70
0
 10
359.999280
 20
-282.149479
 30
0.0
 10
359.999280
 20
-284.148459
 30
0.0
  0
LWPOLYLINE
  5
11b
100
AcDbEntity
  8
0
 62
7
100
AcDbPolyline
 90
2
 70
0
 10
36.065460
 20
-283.736979
 30
0.0
 10
35.321240
 20
-283.736979
 30
0.0
  0
LWPOLYLINE
  5
11c
100
AcDbEntity
  8
0
 62
7
100
AcDbPolyline
 90
5
 70
0
 10
35.692080
 20
-283.736979
 30
0.0
 10
35.692080
 20
-282.439039
 30
0.0
 10
35.570160
 20
-282.624459
 30
0.0
 10
35.445700
 20
-282.746379
 30
0.0
 10
35.321240
 20
-282.809879
 30
0.0
  0
LWPOLYLINE
  5
11d
100
AcDbEntity
  8
0
 62
7
100
AcDbPolyline
 90
11
 70
0
 10
85.321140
 20
-282.560959
 30
0.0
 10
85.382100
 20
-282.499999
 30
0.0
 10
85.506560
 20
-282.439039
 30
0.0
 10
85.816440
 20
-282.439039
 30
0.0
 10
85.940900
 20
-282.499999
 30
0.0
 10
86.001860
 20
-282.560959
 30
0.0
 10
86.065360
 20
-282.685419
 30
0.0
 10
86.065360
 20
-282.809879
 30
0.0
 10
86.001860
 20
-282.995299
 30
0.0
 10
85.260180
 20
-283.736979
 30
0.0
 10
86.065360
 20
-283.736979
 30
0.0
  0
LWPOLYLINE
  5
11e
100
AcDbEntity
  8
0
 62
7
100
AcDbPolyline
 90
14
 70
0
 10
135.260080
 20
-282.439039
 30
0.0
 10
136.065260
 20
-282.439039
 30
0.0
 10
135.630920
 20
-282.931799
 30
0.0
 10
135.816340
 20
-282.931799
 30
0.0
 10
135.940800
 20
-282.995299
 30
0.0
 10
136.001760
 20
-283.056259
 30
0.0
 10
136.065260
 20
-283.180719
 30
0.0
 10
136.065260
 20
-283.490599
 30
0.0
 10
136.001760
 20
-283.615059
 30
0.0
 10
135.940800
 20
-283.676019
 30
0.0
 10
135.816340
 20
-283.736979
 30
0.0
 10
135.445500
 20
-283.736979
 30
0.0
 10
135.321040
 20
-283.676019
 30
0.0
 10
135.260080
 20
-283.615059
 30
0.0
  0
LWPOLYLINE
  5
11f
100
AcDbEntity
  8
0
 62
7
100
AcDbPolyline
 90
2
 70
0
 10
185.940700
 20
-282.870839
 30
0.0
 10
185.940700
 20
-283.736979
 30
0.0
  0
LWPOLYLINE
  5
120
100
AcDbEntity
  8
0
 62
7
100
AcDbPolyline
 90
3
 70
0
 10
185.630820
 20
-282.375539
 30
0.0
 10
185.320940
 20
-283.305179
 30
0.0
 10
186.126120
 20
-283.305179
 30
0.0
  0
LWPOLYLINE
  5
121
100
AcDbEntity
  8
0
 62
7
100
AcDbPolyline
 90
16
 70
0
 10
236.001560
 20
-282.439039
 30
0.0
 10
235.384340
 20
-282.439039
 30
0.0
 10
235.320840
 20
-283.056259
 30
0.0
 10
235.384340
 20
-282.995299
 30
0.0
 10
235.506260
 20
-282.931799
 30
0.0
 10
235.816140
 20
-282.931799
 30
0.0
 10
235.940600
 20
-282.995299
 30
0.0
 10
236.001560
 20
-283.056259
 30
0.0
 10
236.065060
 20
-283.180719
 30
0.0
 10
236.065060
 20
-283.490599
 30
0.0
 10
236.001560
 20
-283.615059
 30
0.0
 10
235.940600
 20
-283.676019
 30
0.0
 10
235.816140
 20
-283.736979
 30
0.0
 10
235.506260
 20
-283.736979
 30
0.0
 10
235.384340
 20
-283.676019
 30
0.0
 10
235.320840
 20
-283.615059
 30
0.0
  0
LWPOLYLINE
  5
122
100
AcDbEntity
  8
0
 62
7
100
AcDbPolyline
 90
22
 70
0
 10
285.940500
 20
-282.439039
 30
0.0
 10
285.691580
 20
-282.439039
 30
0.0
 10
285.569660
 20
-282.499999
 30
0.0
 10
285.506160
 20
-282.560959
 30
0.0
 10
285.384240
 20
-282.746379
 30
0.0
 10
285.320740
 20
-282.995299
 30
0.0
 10
285.320740
 20
-283.490599
 30
0.0
 10
285.384240
 20
-283.615059
 30
0.0
 10
285.445200
 20
-283.676019
 30
0.0
 10
285.569660
 20
-283.736979
 30
0.0
 10
285.816040
 20
-283.736979
 30
0.0
 10
285.940500
 20
-283.676019
 30
0.0
 10
286.001460
 20
-283.615059
 30
0.0
 10
286.064960
 20
-283.490599
 30
0.0
 10
286.064960
 20
-283.180719
 30
0.0
 10
286.001460
 20
-283.056259
 30
0.0
 10
285.940500
 20
-282.995299
 30
0.0
 10
285.816040
 20
-282.931799
 30
0.0
 10
285.569660
 20
-282.931799
 30
0.0
 10
285.445200
 20
-282.995299
 30
0.0
 10
285.384240
 20
-283.056259
 30
0.0
 10
285.320740
 20
-283.180719
 30
0.0
  0
LWPOLYLINE
  5
123
100
AcDbEntity
  8
0
 62
7
100
AcDbPolyline
 90
3
 70
0
 10
335.259680
 20
-282.439039
 30
0.0
 10
336.125820
 20
-282.439039
 30
0.0
 10
335.569560
 20
-283.736979
 30
0.0
  0
LWPOLYLINE
  5
124
100
AcDbEntity
  8
0
 62
7
100
AcDbPolyline
 90
32
 70
0
 10
385.569460
 20
-282.995299
 30
0.0
 10
385.445000
 20
-282.931799
 30
0.0
 10
385.384040
 20
-282.870839
 30
0.0
 10
385.320540
 20
-282.746379
 30
0.0
 10
385.320540
 20
-282.685419
 30
0.0
 10
385.384040
 20
-282.560959
 30
0.0
 10
385.445000
 20
-282.499999
 30
0.0
 10
385.569460
 20
-282.439039
 30
0.0
 10
385.815840
 20
-282.439039
 30
0.0
 10
385.940300
 20
-282.499999
 30
0.0
 10
386.001260
 20
-282.560959
 30
0.0
 10
386.064760
 20
-282.685419
 30
0.0
 10
386.064760
 20
-282.746379
 30
0.0
 10
386.001260
 20
-282.870839
 30
0.0
 10
385.940300
 20
-282.931799
 30
0.0
 10
385.815840
 20
-282.995299
 30
0.0
 10
385.569460
 20
-282.995299
 30
0.0
 10
385.445000
 20
-283.056259
 30
0.0
 10
385.384040
 20
-283.119759
 30
0.0
 10
385.320540
 20
-283.241679
 30
0.0
 10
385.320540
 20
-283.490599
 30
0.0
 10
385.384040
 20
-283.615059
 30
0.0
 10
385.445000
 20
-283.676019
 30
0.0
 10
385.569460
 20
-283.736979
 30
0.0
 10
385.815840
 20
-283.736979
 30
0.0
 10
385.940300
 20
-283.676019
 30
0.0
 10
386.001260
 20
-283.615059
 30
0.0
 10
386.064760
 20
-283.490599
 30
0.0
 10
386.064760
 20
-283.241679
 30
0.0
 10
386.001260
 20
-283.119759
 30
0.0
 10
385.940300
 20
-283.056259
 30
0.0
 10
385.815840
 20
-282.995299
 30
0.0
  0
LWPOLYLINE
  5
125
100
AcDbEntity
  8
0
 62
7
100
AcDbPolyline
 90
2
 70
0
 10
9.999980
 20
-57.148659
 30
0.0
 10
11.998960
 20
-57.148659
 30
0.0
  0
LWPOLYLINE
  5
126
100
AcDbEntity
  8
0
 62
7
100
AcDbPolyline
 90
2
 70
0
 10
9.999980
 20
-107.148559
 30
0.0
 10
11.998960
 20
-107.148559
 30
0.0
  0
LWPOLYLINE
  5
127
100
AcDbEntity
  8
0
 62
7
100
AcDbPolyline
 90
2
 70
0
 10
9.999980
 20
-157.148459
 30
0.0
 10
11.998960
 20
-157.148459
 30
0.0
  0
LWPOLYLINE
  5
128
100
AcDbEntity
  8
0
 62
7
100
AcDbPolyline
 90
2
 70
0
 10
9.999980
 20
-207.148359
 30
0.0
 10
11.998960
 20
-207.148359
 30
0.0
  0
LWPOLYLINE
  5
129
100
AcDbEntity
  8
0
 62
7
100
AcDbPolyline
 90
2
 70
0
 10
9.999980
 20
-257.148259
 30
0.0
 10
11.998960
 20
-257.148259
 30
0.0
  0
LWPOLYLINE
  5
12a
100
AcDbEntity
  8
0
 62
7
100
AcDbPolyline
 90
2
 70
0
 10
10.688320
 20
-32.363339
 30
0.0
 10
11.308080
 20
-32.363339
 30
0.0
  0
LWPOLYLINE
  5
12b
100
AcDbEntity
  8
0
 62
7
100
AcDbPolyline
 90
3
 70
0
 10
10.566400
 20
-32.736719
 30
0.0
 10
10.998200
 20
-31.436239
 30
0.0
 10
11.432540
 20
-32.736719
 30
0.0
  0
LWPOLYLINE
  5
12c
100
AcDbEntity
  8
0
 62
7
100
AcDbPolyline
 90
19
 70
0
 10
11.092180
 20
-82.055899
 30
0.0
 10
11.277600
 20
-82.116859
 30
0.0
 10
11.338560
 20
-82.177819
 30
0.0
 10
11.402060
 20
-82.302279
 30
0.0
 10
11.402060
 20
-82.487699
 30
0.0
 10
11.338560
 20
-82.612159
 30
0.0
 10
11.277600
 20
-82.673119
 30
0.0
 10
11.153140
 20
-82.736619
 30
0.0
 10
10.657840
 20
-82.736619
 30
0.0
 10
10.657840
 20
-81.436139
 30
0.0
 10
11.092180
 20
-81.436139
 30
0.0
 10
11.216640
 20
-81.497099
 30
0.0
 10
11.277600
 20
-81.560599
 30
0.0
 10
11.338560
 20
-81.682519
 30
0.0
 10
11.338560
 20
-81.806979
 30
0.0
 10
11.277600
 20
-81.931439
 30
0.0
 10
11.216640
 20
-81.992399
 30
0.0
 10
11.092180
 20
-82.055899
 30
0.0
 10
10.657840
 20
-82.055899
 30
0.0
  0
LWPOLYLINE
  5
12d
100
AcDbEntity
  8
0
 62
7
100
AcDbPolyline
 90
16
 70
0
 10
11.402060
 20
-132.612059
 30
0.0
 10
11.338560
 20
-132.673019
 30
0.0
 10
11.153140
 20
-132.736519
 30
0.0
 10
11.028680
 20
-132.736519
 30
0.0
 10
10.843260
 20
-132.673019
 30
0.0
 10
10.721340
 20
-132.551099
 30
0.0
 10
10.657840
 20
-132.426639
 30
0.0
 10
10.596880
 20
-132.177719
 30
0.0
 10
10.596880
 20
-131.992299
 30
0.0
 10
10.657840
 20
-131.745919
 30
0.0
 10
10.721340
 20
-131.621459
 30
0.0
 10
10.843260
 20
-131.496999
 30
0.0
 10
11.028680
 20
-131.436039
 30
0.0
 10
11.153140
 20
-131.436039
 30
0.0
 10
11.338560
 20
-131.496999
 30
0.0
 10
11.402060
 20
-131.560499
 30
0.0
  0
LWPOLYLINE
  5
12e
100
AcDbEntity
  8
0
 62
7
100
AcDbPolyline
 90
12
 70
1
 10
10.657840
 20
-182.736419
 30
0.0
 10
10.657840
 20
-181.435939
 30
0.0
 10
10.967720
 20
-181.435939
 30
0.0
 10
11.153140
 20
-181.496899
 30
0.0
 10
11.277600
 20
-181.621359
 30
0.0
 10
11.338560
 20
-181.745819
 30
0.0
 10
11.402060
 20
-181.992199
 30
0.0
 10
11.402060
 20
-182.177619
 30
0.0
 10
11.338560
 20
-182.426539
 30
0.0
 10
11.277600
 20
-182.550999
 30
0.0
 10
11.153140
 20
-182.672919
 30
0.0
 10
10.967720
 20
-182.736419
 30
0.0
  0
LWPOLYLINE
  5
12f
100
AcDbEntity
  8
0
 62
7
100
AcDbPolyline
 90
2
 70
0
 10
10.721340
 20
-232.055599
 30
0.0
 10
11.153140
 20
-232.055599
 30
0.0
  0
LWPOLYLINE
  5
130
100
AcDbEntity
  8
0
 62
7
100
AcDbPolyline
 90
4
 70
0
 10
11.338560
 20
-232.736319
 30
0.0
 10
10.721340
 20
-232.736319
 30
0.0
 10
10.721340
 20
-231.435839
 30
0.0
 10
11.338560
 20
-231.435839
 30
0.0
  0
LWPOLYLINE
  5
131
100
AcDbEntity
  8
0
 62
7
100
AcDbPolyline
 90
2
 70
0
 10
11.183620
 20
-282.055499
 30
0.0
 10
10.751820
 20
-282.055499
 30
0.0
  0
LWPOLYLINE
  5
132
100
AcDbEntity
  8
0
 62
7
100
AcDbPolyline
 90
3
 70
0
 10
10.751820
 20
-282.736219
 30
0.0
 10
10.751820
 20
-281.435739
 30
0.0
 10
11.369040
 20
-281.435739
 30
0.0
  0
LWPOLYLINE
  5
133
100
AcDbEntity
  8
0
 62
7
100
AcDbPolyline
 90
2
 70
0
 10
409.986480
 20
-57.148659
 30
0.0
 10
407.987500
 20
-57.148659
 30
0.0
  0
LWPOLYLINE
  5
134
100
AcDbEntity
  8
0
 62
7
100
AcDbPolyline
 90
2
 70
0
 10
409.986480
 20
-107.148559
 30
0.0
 10
407.987500
 20
-107.148559
 30
0.0
  0
LWPOLYLINE
  5
135
100
AcDbEntity
  8
0
 62
7
100
AcDbPolyline
 90
2
 70
0
 10
409.986480
 20
-157.148459
 30
0.0
 10
407.987500
 20
-157.148459
 30
0.0
  0
LWPOLYLINE
  5
136
100
AcDbEntity
  8
0
 62
7
100
AcDbPolyline
 90
2
 70
0
 10
409.986480
 20
-207.148359
 30
0.0
 10
407.987500
 20
-207.148359
 30
0.0
  0
LWPOLYLINE
  5
137
100
AcDbEntity
  8
0
 62
7
100
AcDbPolyline
 90
2
 70
0
 10
409.986480
 20
-257.148259
 30
0.0
 10
407.987500
 20
-257.148259
 30
0.0
  0
LWPOLYLINE
  5
138
100
AcDbEntity
  8
0
 62
7
100
AcDbPolyline
 90
2
 70
0
 10
408.678380
 20
-32.363339
 30
0.0
 10
409.298140
 20
-32.363339
 30
0.0
  0
LWPOLYLINE
  5
139
100
AcDbEntity
  8
0
 62
7
100
AcDbPolyline
 90
3
 70
0
 10
408.553920
 20
-32.736719
 30
0.0
 10
408.988260
 20
-31.436239
 30
0.0
 10
409.420060
 20
-32.736719
 30
0.0
  0
LWPOLYLINE
  5
13a
100
AcDbEntity
  8
0
 62
7
100
AcDbPolyline
 90
19
 70
0
 10
409.079700
 20
-82.055899
 30
0.0
 10
409.265120
 20
-82.116859
 30
0.0
 10
409.328620
 20
-82.177819
 30
0.0
 10
409.389580
 20
-82.302279
 30
0.0
 10
409.389580
 20
-82.487699
 30
0.0
 10
409.328620
 20
-82.612159
 30
0.0
 10
409.265120
 20
-82.673119
 30
0.0
 10
409.143200
 20
-82.736619
 30
0.0
 10
408.647900
 20
-82.736619
 30
0.0
 10
408.647900
 20
-81.436139
 30
0.0
 10
409.079700
 20
-81.436139
 30
0.0
 10
409.204160
 20
-81.497099
 30
0.0
 10
409.265120
 20
-81.560599
 30
0.0
 10
409.328620
 20
-81.682519
 30
0.0
 10
409.328620
 20
-81.806979
 30
0.0
 10
409.265120
 20
-81.931439
 30
0.0
 10
409.204160
 20
-81.992399
 30
0.0
 10
409.079700
 20
-82.055899
 30
0.0
 10
408.647900
 20
-82.055899
 30
0.0
  0
LWPOLYLINE
  5
13b
100
AcDbEntity
  8
0
 62
7
100
AcDbPolyline
 90
16
 70
0
 10
409.389580
 20
-132.612059
 30
0.0
 10
409.328620
 20
-132.673019
 30
0.0
 10
409.143200
 20
-132.736519
 30
0.0
 10
409.018740
 20
-132.736519
 30
0.0
 10
408.833320
 20
-132.673019
 30
0.0
 10
408.708860
 20
-132.551099
 30
0.0
 10
408.647900
 20
-132.426639
 30
0.0
 10
408.584400
 20
-132.177719
 30
0.0
 10
408.584400
 20
-131.992299
 30
0.0
 10
408.647900
 20
-131.745919
 30
0.0
 10
408.708860
 20
-131.621459
 30
0.0
 10
408.833320
 20
-131.496999
 30
0.0
 10
409.018740
 20
-131.436039
 30
0.0
 10
409.143200
 20
-131.436039
 30
0.0
 10
409.328620
 20
-131.496999
 30
0.0
 10
409.389580
 20
-131.560499
 30
0.0
  0
LWPOLYLINE
  5
13c
100
AcDbEntity
  8
0
 62
7
100
AcDbPolyline
 90
12
 70
1
 10
408.647900
 20
-182.736419
 30
0.0
 10
408.647900
 20
-181.435939
 30
0.0
 10
408.957780
 20
-181.435939
 30
0.0
 10
409.143200
 20
-181.496899
 30
0.0
 10
409.265120
 20
-181.621359
 30
0.0
 10
409.328620
 20
-181.745819
 30
0.0
 10
409.389580
 20
-181.992199
 30
0.0
 10
409.389580
 20
-182.177619
 30
0.0
 10
409.328620
 20
-182.426539
 30
0.0
 10
409.265120
 20
-182.550999
 30
0.0
 10
409.143200
 20
-182.672919
 30
0.0
 10
408.957780
 20
-182.736419
 30
0.0
  0
LWPOLYLINE
  5
13d
100
AcDbEntity
  8
0
 62
7
100
AcDbPolyline
 90
2
 70
0
 10
408.708860
 20
-232.055599
 30
0.0
 10
409.143200
 20
-232.055599
 30
0.0
  0
LWPOLYLINE
  5
13e
100
AcDbEntity
  8
0
 62
7
100
AcDbPolyline
 90
4
 70
0
 10
409.328620
 20
-232.736319
 30
0.0
 10
408.708860
 20
-232.736319
 30
0.0
 10
408.708860
 20
-231.435839
 30
0.0
 10
409.328620
 20
-231.435839
 30
0.0
  0
LWPOLYLINE
  5
13f
100
AcDbEntity
  8
0
 62
7
100
AcDbPolyline
 90
2
 70
0
 10
409.173680
 20
-282.055499
 30
0.0
 10
408.739340
 20
-282.055499
 30
0.0
  0
LWPOLYLINE
  5
140
100
AcDbEntity
  8
0
 62
7
100
AcDbPolyline
 90
3
 70
0
 10
408.739340
 20
-282.736219
 30
0.0
 10
408.739340
 20
-281.435739
 30
0.0
 10
409.359100
 20
-281.435739
 30
0.0
  0
LWPOLYLINE
  5
141
100
AcDbEntity
  8
0
 62
7
100
AcDbPolyline
 90
12
 70
1
 10
323.420740
 20
-277.927999
 30
0.0
 10
323.420740
 20
-276.429399
 30
0.0
 10
323.776340
 20
-276.429399
 30
0.0
 10
323.992240
 20
-276.500519
 30
0.0
 10
324.134480
 20
-276.642759
 30
0.0
 10
324.205600
 20
-276.784999
 30
0.0
 10
324.276720
 20
-277.072019
 30
0.0
 10
324.276720
 20
-277.285379
 30
0.0
 10
324.205600
 20
-277.572399
 30
0.0
 10
324.134480
 20
-277.714639
 30
0.0
 10
323.992240
 20
-277.856879
 30
0.0
 10
323.776340
 20
-277.927999
 30
0.0
  0
LWPOLYLINE
  5
142
100
AcDbEntity
  8
0
 62
7
100
AcDbPolyline
 90
6
 70
0
 10
325.561960
 20
-277.927999
 30
0.0
 10
325.561960
 20
-277.143139
 30
0.0
 10
325.490840
 20
-277.000899
 30
0.0
 10
325.348600
 20
-276.927239
 30
0.0
 10
325.061580
 20
-276.927239
 30
0.0
 10
324.919340
 20
-277.000899
 30
0.0
  0
LWPOLYLINE
  5
143
100
AcDbEntity
  8
0
 62
7
100
AcDbPolyline
 90
10
 70
0
 10
325.561960
 20
-277.856879
 30
0.0
 10
325.419720
 20
-277.927999
 30
0.0
 10
325.061580
 20
-277.927999
 30
0.0
 10
324.919340
 20
-277.856879
 30
0.0
 10
324.848220
 20
-277.714639
 30
0.0
 10
324.848220
 20
-277.572399
 30
0.0
 10
324.919340
 20
-277.427619
 30
0.0
 10
325.061580
 20
-277.356499
 30
0.0
 10
325.419720
 20
-277.356499
 30
0.0
 10
325.561960
 20
-277.285379
 30
0.0
  0
LWPOLYLINE
  5
144
100
AcDbEntity
  8
0
 62
7
100
AcDbPolyline
 90
2
 70
0
 10
326.062340
 20
-276.927239
 30
0.0
 10
326.633840
 20
-276.927239
 30
0.0
  0
LWPOLYLINE
  5
145
100
AcDbEntity
  8
0
 62
7
100
AcDbPolyline
 90
5
 70
0
 10
326.278240
 20
-276.429399
 30
0.0
 10
326.278240
 20
-277.714639
 30
0.0
 10
326.349360
 20
-277.856879
 30
0.0
 10
326.491600
 20
-277.927999
 30
0.0
 10
326.633840
 20
-277.927999
 30
0.0
  0
LWPOLYLINE
  5
146
100
AcDbEntity
  8
0
 62
7
100
AcDbPolyline
 90
13
 70
0
 10
327.705720
 20
-277.856879
 30
0.0
 10
327.563480
 20
-277.927999
 30
0.0
 10
327.276460
 20
-277.927999
 30
0.0
 10
327.134220
 20
-277.856879
 30
0.0
 10
327.063100
 20
-277.714639
 30
0.0
 10
327.063100
 20
-277.143139
 30
0.0
 10
327.134220
 20
-277.000899
 30
0.0
 10
327.276460
 20
-276.927239
 30
0.0
 10
327.563480
 20
-276.927239
 30
0.0
 10
327.705720
 20
-277.000899
 30
0.0
 10
327.776840
 20
-277.143139
 30
0.0
 10
327.776840
 20
-277.285379
 30
0.0
 10
327.063100
 20
-277.427619
 30
0.0
  0
LWPOLYLINE
  5
147
100
AcDbEntity
  8
0
 62
7
100
AcDbPolyline
 90
6
 70
0
 10
328.419460
 20
-277.785759
 30
0.0
 10
328.490580
 20
-277.856879
 30
0.0
 10
328.419460
 20
-277.927999
 30
0.0
 10
328.348340
 20
-277.856879
 30
0.0
 10
328.419460
 20
-277.785759
 30
0.0
 10
328.419460
 20
-277.927999
 30
0.0
  0
LWPOLYLINE
  5
148
100
AcDbEntity
  8
0
 62
7
100
AcDbPolyline
 90
6
 70
0
 10
328.419460
 20
-277.000899
 30
0.0
 10
328.490580
 20
-277.072019
 30
0.0
 10
328.419460
 20
-277.143139
 30
0.0
 10
328.348340
 20
-277.072019
 30
0.0
 10
328.419460
 20
-277.000899
 30
0.0
 10
328.419460
 20
-277.143139
 30
0.0
  0
LWPOLYLINE
  5
149
100
AcDbEntity
  8
0
 62
7
100
AcDbPolyline
 90
2
 70
0
 10
299.986700
 20
-278.649359
 30
0.0
 10
407.987500
 20
-278.649359
 30
0.0
  0
LWPOLYLINE
  5
14a
100
AcDbEntity
  8
0
 62
7
100
AcDbPolyline
 90
2
 70
0
 10
301.419260
 20
-280.727079
 30
0.0
 10
301.419260
 20
-279.228479
 30
0.0
  0
LWPOLYLINE
  5
14b
100
AcDbEntity
  8
0
 62
7
100
AcDbPolyline
 90
2
 70
0
 10
302.277780
 20
-280.727079
 30
0.0
 10
301.635160
 20
-279.871099
 30
0.0
  0
LWPOLYLINE
  5
14c
100
AcDbEntity
  8
0
 62
7
100
AcDbPolyline
 90
2
 70
0
 10
302.277780
 20
-279.228479
 30
0.0
 10
301.419260
 20
-280.084459
 30
0.0
  0
LWPOLYLINE
  5
14d
100
AcDbEntity
  8
0
 62
7
100
AcDbPolyline
 90
2
 70
0
 10
302.920400
 20
-280.727079
 30
0.0
 10
302.920400
 20
-279.728859
 30
0.0
  0
LWPOLYLINE
  5
14e
100
AcDbEntity
  8
0
 62
7
100
AcDbPolyline
 90
6
 70
0
 10
302.920400
 20
-279.228479
 30
0.0
 10
302.849280
 20
-279.299599
 30
0.0
 10
302.920400
 20
-279.370719
 30
0.0
 10
302.991520
 20
-279.299599
 30
0.0
 10
302.920400
 20
-279.228479
 30
0.0
 10
302.920400
 20
-279.370719
 30
0.0
  0
LWPOLYLINE
  5
14f
100
AcDbEntity
  8
0
 62
7
100
AcDbPolyline
 90
16
 70
0
 10
304.490120
 20
-280.584839
 30
0.0
 10
304.419000
 20
-280.655959
 30
0.0
 10
304.205640
 20
-280.727079
 30
0.0
 10
304.063400
 20
-280.727079
 30
0.0
 10
303.847500
 20
-280.655959
 30
0.0
 10
303.705260
 20
-280.513719
 30
0.0
 10
303.634140
 20
-280.371479
 30
0.0
 10
303.563020
 20
-280.084459
 30
0.0
 10
303.563020
 20
-279.871099
 30
0.0
 10
303.634140
 20
-279.586619
 30
0.0
 10
303.705260
 20
-279.441839
 30
0.0
 10
303.847500
 20
-279.299599
 30
0.0
 10
304.063400
 20
-279.228479
 30
0.0
 10
304.205640
 20
-279.228479
 30
0.0
 10
304.419000
 20
-279.299599
 30
0.0
 10
304.490120
 20
-279.370719
 30
0.0
  0
LWPOLYLINE
  5
150
100
AcDbEntity
  8
0
 62
7
100
AcDbPolyline
 90
6
 70
0
 10
305.777900
 20
-280.727079
 30
0.0
 10
305.777900
 20
-279.942219
 30
0.0
 10
305.706780
 20
-279.799979
 30
0.0
 10
305.562000
 20
-279.728859
 30
0.0
 10
305.277520
 20
-279.728859
 30
0.0
 10
305.135280
 20
-279.799979
 30
0.0
  0
LWPOLYLINE
  5
151
100
AcDbEntity
  8
0
 62
7
100
AcDbPolyline
 90
10
 70
0
 10
305.777900
 20
-280.655959
 30
0.0
 10
305.633120
 20
-280.727079
 30
0.0
 10
305.277520
 20
-280.727079
 30
0.0
 10
305.135280
 20
-280.655959
 30
0.0
 10
305.061620
 20
-280.513719
 30
0.0
 10
305.061620
 20
-280.371479
 30
0.0
 10
305.135280
 20
-280.229239
 30
0.0
 10
305.277520
 20
-280.158119
 30
0.0
 10
305.633120
 20
-280.158119
 30
0.0
 10
305.777900
 20
-280.084459
 30
0.0
  0
LWPOLYLINE
  5
152
100
AcDbEntity
  8
0
 62
7
100
AcDbPolyline
 90
2
 70
0
 10
307.134260
 20
-280.727079
 30
0.0
 10
307.134260
 20
-279.228479
 30
0.0
  0
LWPOLYLINE
  5
153
100
AcDbEntity
  8
0
 62
7
100
AcDbPolyline
 90
12
 70
0
 10
307.134260
 20
-280.655959
 30
0.0
 10
306.992020
 20
-280.727079
 30
0.0
 10
306.705000
 20
-280.727079
 30
0.0
 10
306.562760
 20
-280.655959
 30
0.0
 10
306.491640
 20
-280.584839
 30
0.0
 10
306.420520
 20
-280.442599
 30
0.0
 10
306.420520
 20
-280.013339
 30
0.0
 10
306.491640
 20
-279.871099
 30
0.0
 10
306.562760
 20
-279.799979
 30
0.0
 10
306.705000
 20
-279.728859
 30
0.0
 10
306.992020
 20
-279.728859
 30
0.0
 10
307.134260
 20
-279.799979
 30
0.0
  0
LWPOLYLINE
  5
154
100
AcDbEntity
  8
0
 62
7
100
AcDbPolyline
 90
2
 70
0
 10
308.991000
 20
-279.942219
 30
0.0
 10
309.491380
 20
-279.942219
 30
0.0
  0
LWPOLYLINE
  5
155
100
AcDbEntity
  8
0
 62
7
100
AcDbPolyline
 90
4
 70
0
 10
309.704740
 20
-280.727079
 30
0.0
 10
308.991000
 20
-280.727079
 30
0.0
 10
308.991000
 20
-279.228479
 30
0.0
 10
309.704740
 20
-279.228479
 30
0.0
  0
LWPOLYLINE
  5
156
100
AcDbEntity
  8
0
 62
7
100
AcDbPolyline
 90
6
 70
0
 10
310.347360
 20
-280.584839
 30
0.0
 10
310.421020
 20
-280.655959
 30
0.0
 10
310.347360
 20
-280.727079
 30
0.0
 10
310.276240
 20
-280.655959
 30
0.0
 10
310.347360
 20
-280.584839
 30
0.0
 10
310.347360
 20
-280.727079
 30
0.0
  0
LWPOLYLINE
  5
157
100
AcDbEntity
  8
0
 62
7
100
AcDbPolyline
 90
12
 70
1
 10
311.063640
 20
-280.727079
 30
0.0
 10
311.063640
 20
-279.228479
 30
0.0
 10
311.419240
 20
-279.228479
 30
0.0
 10
311.635140
 20
-279.299599
 30
0.0
 10
311.777380
 20
-279.441839
 30
0.0
 10
311.848500
 20
-279.586619
 30
0.0
 10
311.919620
 20
-279.871099
 30
0.0
 10
311.919620
 20
-280.084459
 30
0.0
 10
311.848500
 20
-280.371479
 30
0.0
 10
311.777380
 20
-280.513719
 30
0.0
 10
311.635140
 20
-280.655959
 30
0.0
 10
311.419240
 20
-280.727079
 30
0.0
  0
LWPOLYLINE
  5
158
100
AcDbEntity
  8
0
 62
7
100
AcDbPolyline
 90
6
 70
0
 10
312.562240
 20
-280.584839
 30
0.0
 10
312.633360
 20
-280.655959
 30
0.0
 10
312.562240
 20
-280.727079
 30
0.0
 10
312.491120
 20
-280.655959
 30
0.0
 10
312.562240
 20
-280.584839
 30
0.0
 10
312.562240
 20
-280.727079
 30
0.0
  0
LWPOLYLINE
  5
159
100
AcDbEntity
  8
0
 62
7
100
AcDbPolyline
 90
2
 70
0
 10
313.204860
 20
-280.300359
 30
0.0
 10
313.921140
 20
-280.300359
 30
0.0
  0
LWPOLYLINE
  5
15a
100
AcDbEntity
  8
0
 62
7
100
AcDbPolyline
 90
3
 70
0
 10
313.062620
 20
-280.727079
 30
0.0
 10
313.563000
 20
-279.228479
 30
0.0
 10
314.063380
 20
-280.727079
 30
0.0
  0
LWPOLYLINE
  5
15b
100
AcDbEntity
  8
0
 62
7
100
AcDbPolyline
 90
6
 70
0
 10
314.563760
 20
-280.584839
 30
0.0
 10
314.634880
 20
-280.655959
 30
0.0
 10
314.563760
 20
-280.727079
 30
0.0
 10
314.490100
 20
-280.655959
 30
0.0
 10
314.563760
 20
-280.584839
 30
0.0
 10
314.563760
 20
-280.727079
 30
0.0
  0
LWPOLYLINE
  5
15c
100
AcDbEntity
  8
0
 62
7
100
AcDbPolyline
 90
2
 70
0
 10
317.563500
 20
-280.727079
 30
0.0
 10
317.563500
 20
-279.228479
 30
0.0
  0
LWPOLYLINE
  5
15d
100
AcDbEntity
  8
0
 62
7
100
AcDbPolyline
 90
2
 70
0
 10
317.705740
 20
-280.158119
 30
0.0
 10
318.135000
 20
-280.727079
 30
0.0
  0
LWPOLYLINE
  5
15e
100
AcDbEntity
  8
0
 62
7
100
AcDbPolyline
 90
2
 70
0
 10
318.135000
 20
-279.728859
 30
0.0
 10
317.563500
 20
-280.300359
 30
0.0
  0
LWPOLYLINE
  5
15f
100
AcDbEntity
  8
0
 62
7
100
AcDbPolyline
 90
2
 70
0
 10
318.777620
 20
-280.727079
 30
0.0
 10
318.777620
 20
-279.728859
 30
0.0
  0
LWPOLYLINE
  5
160
100
AcDbEntity
  8
0
 62
7
100
AcDbPolyline
 90
6
 70
0
 10
318.777620
 20
-279.228479
 30
0.0
 10
318.706500
 20
-279.299599
 30
0.0
 10
318.777620
 20
-279.370719
 30
0.0
 10
318.848740
 20
-279.299599
 30
0.0
 10
318.777620
 20
-279.228479
 30
0.0
 10
318.777620
 20
-279.370719
 30
0.0
  0
LWPOLYLINE
  5
161
100
AcDbEntity
  8
0
 62
7
100
AcDbPolyline
 90
12
 70
0
 10
320.133980
 20
-280.655959
 30
0.0
 10
319.991740
 20
-280.727079
 30
0.0
 10
319.704720
 20
-280.727079
 30
0.0
 10
319.562480
 20
-280.655959
 30
0.0
 10
319.491360
 20
-280.584839
 30
0.0
 10
319.420240
 20
-280.442599
 30
0.0
 10
319.420240
 20
-280.013339
 30
0.0
 10
319.491360
 20
-279.871099
 30
0.0
 10
319.562480
 20
-279.799979
 30
0.0
 10
319.704720
 20
-279.728859
 30
0.0
 10
319.991740
 20
-279.728859
 30
0.0
 10
320.133980
 20
-279.799979
 30
0.0
  0
LWPOLYLINE
  5
162
100
AcDbEntity
  8
0
 62
7
100
AcDbPolyline
 90
6
 70
0
 10
321.419220
 20
-280.727079
 30
0.0
 10
321.419220
 20
-279.942219
 30
0.0
 10
321.348100
 20
-279.799979
 30
0.0
 10
321.205860
 20
-279.728859
 30
0.0
 10
320.918840
 20
-279.728859
 30
0.0
 10
320.776600
 20
-279.799979
 30
0.0
  0
LWPOLYLINE
  5
163
100
AcDbEntity
  8
0
 62
7
100
AcDbPolyline
 90
10
 70
0
 10
321.419220
 20
-280.655959
 30
0.0
 10
321.276980
 20
-280.727079
 30
0.0
 10
320.918840
 20
-280.727079
 30
0.0
 10
320.776600
 20
-280.655959
 30
0.0
 10
320.705480
 20
-280.513719
 30
0.0
 10
320.705480
 20
-280.371479
 30
0.0
 10
320.776600
 20
-280.229239
 30
0.0
 10
320.918840
 20
-280.158119
 30
0.0
 10
321.276980
 20
-280.158119
 30
0.0
 10
321.419220
 20
-280.084459
 30
0.0
  0
LWPOLYLINE
  5
164
100
AcDbEntity
  8
0
 62
7
100
AcDbPolyline
 90
2
 70
0
 10
322.778120
 20
-280.727079
 30
0.0
 10
322.778120
 20
-279.228479
 30
0.0
  0
LWPOLYLINE
  5
165
100
AcDbEntity
  8
0
 62
7
100
AcDbPolyline
 90
12
 70
0
 10
322.778120
 20
-280.655959
 30
0.0
 10
322.633340
 20
-280.727079
 30
0.0
 10
322.348860
 20
-280.727079
 30
0.0
 10
322.206620
 20
-280.655959
 30
0.0
 10
322.132960
 20
-280.584839
 30
0.0
 10
322.061840
 20
-280.442599
 30
0.0
 10
322.061840
 20
-280.013339
 30
0.0
 10
322.132960
 20
-279.871099
 30
0.0
 10
322.206620
 20
-279.799979
 30
0.0
 10
322.348860
 20
-279.728859
 30
0.0
 10
322.633340
 20
-279.728859
 30
0.0
 10
322.778120
 20
-279.799979
 30
0.0
  0
LWPOLYLINE
  5
166
100
AcDbEntity
  8
0
 62
7
100
AcDbPolyline
 90
12
 70
0
 10
325.061580
 20
-281.298579
 30
0.0
 10
324.990460
 20
-281.227459
 30
0.0
 10
324.848220
 20
-281.014099
 30
0.0
 10
324.777100
 20
-280.871859
 30
0.0
 10
324.705980
 20
-280.655959
 30
0.0
 10
324.634860
 20
-280.300359
 30
0.0
 10
324.634860
 20
-280.013339
 30
0.0
 10
324.705980
 20
-279.657739
 30
0.0
 10
324.777100
 20
-279.441839
 30
0.0
 10
324.848220
 20
-279.299599
 30
0.0
 10
324.990460
 20
-279.086239
 30
0.0
 10
325.061580
 20
-279.015119
 30
0.0
  0
LWPOLYLINE
  5
167
100
AcDbEntity
  8
0
 62
7
100
AcDbPolyline
 90
16
 70
0
 10
326.349360
 20
-279.228479
 30
0.0
 10
325.633080
 20
-279.228479
 30
0.0
 10
325.561960
 20
-279.942219
 30
0.0
 10
325.633080
 20
-279.871099
 30
0.0
 10
325.777860
 20
-279.799979
 30
0.0
 10
326.133460
 20
-279.799979
 30
0.0
 10
326.278240
 20
-279.871099
 30
0.0
 10
326.349360
 20
-279.942219
 30
0.0
 10
326.420480
 20
-280.084459
 30
0.0
 10
326.420480
 20
-280.442599
 30
0.0
 10
326.349360
 20
-280.584839
 30
0.0
 10
326.278240
 20
-280.655959
 30
0.0
 10
326.133460
 20
-280.727079
 30
0.0
 10
325.777860
 20
-280.727079
 30
0.0
 10
325.633080
 20
-280.655959
 30
0.0
 10
325.561960
 20
-280.584839
 30
0.0
  0
LWPOLYLINE
  5
168
100
AcDbEntity
  8
0
 62
7
100
AcDbPolyline
 90
6
 70
0
 10
327.063100
 20
-280.584839
 30
0.0
 10
327.134220
 20
-280.655959
 30
0.0
 10
327.063100
 20
-280.727079
 30
0.0
 10
326.991980
 20
-280.655959
 30
0.0
 10
327.063100
 20
-280.584839
 30
0.0
 10
327.063100
 20
-280.727079
 30
0.0
  0
LWPOLYLINE
  5
169
100
AcDbEntity
  8
0
 62
7
100
AcDbPolyline
 90
2
 70
0
 10
328.561700
 20
-280.727079
 30
0.0
 10
327.705720
 20
-280.727079
 30
0.0
  0
LWPOLYLINE
  5
16a
100
AcDbEntity
  8
0
 62
7
100
AcDbPolyline
 90
5
 70
0
 10
328.134980
 20
-280.727079
 30
0.0
 10
328.134980
 20
-279.228479
 30
0.0
 10
327.990200
 20
-279.441839
 30
0.0
 10
327.847960
 20
-279.586619
 30
0.0
 10
327.705720
 20
-279.657739
 30
0.0
  0
LWPOLYLINE
  5
16b
100
AcDbEntity
  8
0
 62
7
100
AcDbPolyline
 90
6
 70
0
 10
329.204320
 20
-280.584839
 30
0.0
 10
329.277980
 20
-280.655959
 30
0.0
 10
329.204320
 20
-280.727079
 30
0.0
 10
329.133200
 20
-280.655959
 30
0.0
 10
329.204320
 20
-280.584839
 30
0.0
 10
329.204320
 20
-280.727079
 30
0.0
  0
LWPOLYLINE
  5
16c
100
AcDbEntity
  8
0
 62
7
100
AcDbPolyline
 90
3
 70
0
 10
329.775820
 20
-279.228479
 30
0.0
 10
330.776580
 20
-279.228479
 30
0.0
 10
330.133960
 20
-280.727079
 30
0.0
  0
LWPOLYLINE
  5
16d
100
AcDbEntity
  8
0
 62
7
100
AcDbPolyline
 90
12
 70
0
 10
331.205840
 20
-281.298579
 30
0.0
 10
331.276960
 20
-281.227459
 30
0.0
 10
331.419200
 20
-281.014099
 30
0.0
 10
331.490320
 20
-280.871859
 30
0.0
 10
331.563980
 20
-280.655959
 30
0.0
 10
331.635100
 20
-280.300359
 30
0.0
 10
331.635100
 20
-280.013339
 30
0.0
 10
331.563980
 20
-279.657739
 30
0.0
 10
331.490320
 20
-279.441839
 30
0.0
 10
331.419200
 20
-279.299599
 30
0.0
 10
331.276960
 20
-279.086239
 30
0.0
 10
331.205840
 20
-279.015119
 30
0.0
  0
LWPOLYLINE
  5
16e
100
AcDbEntity
  8
0
 62
7
100
AcDbPolyline
 90
2
 70
0
 10
332.348840
 20
-280.158119
 30
0.0
 10
333.491840
 20
-280.158119
 30
0.0
  0
LWPOLYLINE
  5
16f
100
AcDbEntity
  8
0
 62
7
100
AcDbPolyline
 90
2
 70
0
 10
334.990440
 20
-280.727079
 30
0.0
 10
334.134460
 20
-280.727079
 30
0.0
  0
LWPOLYLINE
  5
170
100
AcDbEntity
  8
0
 62
7
100
AcDbPolyline
 90
5
 70
0
 10
334.563720
 20
-280.727079
 30
0.0
 10
334.563720
 20
-279.228479
 30
0.0
 10
334.418940
 20
-279.441839
 30
0.0
 10
334.276700
 20
-279.586619
 30
0.0
 10
334.134460
 20
-279.657739
 30
0.0
  0
LWPOLYLINE
  5
171
100
AcDbEntity
  8
0
 62
7
100
AcDbPolyline
 90
2
 70
0
 10
299.986700
 20
-275.649619
 30
0.0
 10
407.987500
 20
-275.649619
 30
0.0
  0
LWPOLYLINE
  5
172
100
AcDbEntity
  8
0
 62
7
100
AcDbPolyline
 90
2
 70
0
 10
387.398260
 20
-277.927999
 30
0.0
 10
386.897880
 20
-277.214259
 30
0.0
  0
LWPOLYLINE
  5
173
100
AcDbEntity
  8
0
 62
7
100
AcDbPolyline
 90
11
 70
0
 10
386.539740
 20
-277.927999
 30
0.0
 10
386.539740
 20
-276.429399
 30
0.0
 10
387.111240
 20
-276.429399
 30
0.0
 10
387.253480
 20
-276.500519
 30
0.0
 10
387.324600
 20
-276.571639
 30
0.0
 10
387.398260
 20
-276.713879
 30
0.0
 10
387.398260
 20
-276.927239
 30
0.0
 10
387.324600
 20
-277.072019
 30
0.0
 10
387.253480
 20
-277.143139
 30
0.0
 10
387.111240
 20
-277.214259
 30
0.0
 10
386.539740
 20
-277.214259
 30
0.0
  0
LWPOLYLINE
  5
174
100
AcDbEntity
  8
0
 62
7
100
AcDbPolyline
 90
13
 70
0
 10
388.612380
 20
-277.856879
 30
0.0
 10
388.467600
 20
-277.927999
 30
0.0
 10
388.183120
 20
-277.927999
 30
0.0
 10
388.040880
 20
-277.856879
 30
0.0
 10
387.967220
 20
-277.714639
 30
0.0
 10
387.967220
 20
-277.143139
 30
0.0
 10
388.040880
 20
-277.000899
 30
0.0
 10
388.183120
 20
-276.927239
 30
0.0
 10
388.467600
 20
-276.927239
 30
0.0
 10
388.612380
 20
-277.000899
 30
0.0
 10
388.683500
 20
-277.143139
 30
0.0
 10
388.683500
 20
-277.285379
 30
0.0
 10
387.967220
 20
-277.427619
 30
0.0
  0
LWPOLYLINE
  5
175
100
AcDbEntity
  8
0
 62
7
100
AcDbPolyline
 90
3
 70
0
 10
389.183880
 20
-276.927239
 30
0.0
 10
389.539480
 20
-277.927999
 30
0.0
 10
389.897620
 20
-276.927239
 30
0.0
  0
LWPOLYLINE
  5
176
100
AcDbEntity
  8
0
 62
7
100
AcDbPolyline
 90
6
 70
0
 10
390.469120
 20
-277.785759
 30
0.0
 10
390.540240
 20
-277.856879
 30
0.0
 10
390.469120
 20
-277.927999
 30
0.0
 10
390.398000
 20
-277.856879
 30
0.0
 10
390.469120
 20
-277.785759
 30
0.0
 10
390.469120
 20
-277.927999
 30
0.0
  0
LWPOLYLINE
  5
177
100
AcDbEntity
  8
0
 62
7
100
AcDbPolyline
 90
6
 70
0
 10
390.469120
 20
-277.000899
 30
0.0
 10
390.540240
 20
-277.072019
 30
0.0
 10
390.469120
 20
-277.143139
 30
0.0
 10
390.398000
 20
-277.072019
 30
0.0
 10
390.469120
 20
-277.000899
 30
0.0
 10
390.469120
 20
-277.143139
 30
0.0
  0
LWPOLYLINE
  5
178
100
AcDbEntity
  8
0
 62
7
100
AcDbPolyline
 90
20
 70
0
 10
301.348140
 20
-277.856879
 30
0.0
 10
301.561500
 20
-277.927999
 30
0.0
 10
301.919640
 20
-277.927999
 30
0.0
 10
302.061880
 20
-277.856879
 30
0.0
 10
302.133000
 20
-277.785759
 30
0.0
 10
302.206660
 20
-277.643519
 30
0.0
 10
302.206660
 20
-277.498739
 30
0.0
 10
302.133000
 20
-277.356499
 30
0.0
 10
302.061880
 20
-277.285379
 30
0.0
 10
301.919640
 20
-277.214259
 30
0.0
 10
301.635160
 20
-277.143139
 30
0.0
 10
301.490380
 20
-277.072019
 30
0.0
 10
301.419260
 20
-277.000899
 30
0.0
 10
301.348140
 20
-276.856119
 30
0.0
 10
301.348140
 20
-276.713879
 30
0.0
 10
301.419260
 20
-276.571639
 30
0.0
 10
301.490380
 20
-276.500519
 30
0.0
 10
301.635160
 20
-276.429399
 30
0.0
 10
301.990760
 20
-276.429399
 30
0.0
 10
302.206660
 20
-276.500519
 30
0.0
  0
LWPOLYLINE
  5
179
100
AcDbEntity
  8
0
 62
7
100
AcDbPolyline
 90
2
 70
0
 10
302.849280
 20
-277.927999
 30
0.0
 10
302.849280
 20
-276.927239
 30
0.0
  0
LWPOLYLINE
  5
17a
100
AcDbEntity
  8
0
 62
7
100
AcDbPolyline
 90
6
 70
0
 10
302.849280
 20
-276.429399
 30
0.0
 10
302.778160
 20
-276.500519
 30
0.0
 10
302.849280
 20
-276.571639
 30
0.0
 10
302.920400
 20
-276.500519
 30
0.0
 10
302.849280
 20
-276.429399
 30
0.0
 10
302.849280
 20
-276.571639
 30
0.0
  0
LWPOLYLINE
  5
17b
100
AcDbEntity
  8
0
 62
7
100
AcDbPolyline
 90
4
 70
0
 10
303.420780
 20
-276.927239
 30
0.0
 10
304.205640
 20
-276.927239
 30
0.0
 10
303.420780
 20
-277.927999
 30
0.0
 10
304.205640
 20
-277.927999
 30
0.0
  0
LWPOLYLINE
  5
17c
100
AcDbEntity
  8
0
 62
7
100
AcDbPolyline
 90
13
 70
0
 10
305.348640
 20
-277.856879
 30
0.0
 10
305.206400
 20
-277.927999
 30
0.0
 10
304.919380
 20
-277.927999
 30
0.0
 10
304.777140
 20
-277.856879
 30
0.0
 10
304.706020
 20
-277.714639
 30
0.0
 10
304.706020
 20
-277.143139
 30
0.0
 10
304.777140
 20
-277.000899
 30
0.0
 10
304.919380
 20
-276.927239
 30
0.0
 10
305.206400
 20
-276.927239
 30
0.0
 10
305.348640
 20
-277.000899
 30
0.0
 10
305.419760
 20
-277.143139
 30
0.0
 10
305.419760
 20
-277.285379
 30
0.0
 10
304.706020
 20
-277.427619
 30
0.0
  0
LWPOLYLINE
  5
17d
100
AcDbEntity
  8
0
 62
7
100
AcDbPolyline
 90
6
 70
0
 10
306.062380
 20
-277.785759
 30
0.0
 10
306.133500
 20
-277.856879
 30
0.0
 10
306.062380
 20
-277.927999
 30
0.0
 10
305.991260
 20
-277.856879
 30
0.0
 10
306.062380
 20
-277.785759
 30
0.0
 10
306.062380
 20
-277.927999
 30
0.0
  0
LWPOLYLINE
  5
17e
100
AcDbEntity
  8
0
 62
7
100
AcDbPolyline
 90
6
 70
0
 10
306.062380
 20
-277.000899
 30
0.0
 10
306.133500
 20
-277.072019
 30
0.0
 10
306.062380
 20
-277.143139
 30
0.0
 10
305.991260
 20
-277.072019
 30
0.0
 10
306.062380
 20
-277.000899
 30
0.0
 10
306.062380
 20
-277.143139
 30
0.0
  0
LWPOLYLINE
  5
17f
100
AcDbEntity
  8
0
 62
7
100
AcDbPolyline
 90
2
 70
0
 10
307.848000
 20
-277.498739
 30
0.0
 10
308.561740
 20
-277.498739
 30
0.0
  0
LWPOLYLINE
  5
180
100
AcDbEntity
  8
0
 62
7
100
AcDbPolyline
 90
3
 70
0
 10
307.705760
 20
-277.927999
 30
0.0
 10
308.206140
 20
-276.429399
 30
0.0
 10
308.706520
 20
-277.927999
 30
0.0
  0
LWPOLYLINE
  5
181
100
AcDbEntity
  8
0
 62
7
100
AcDbPolyline
 90
14
 70
0
 10
309.062120
 20
-276.429399
 30
0.0
 10
309.991760
 20
-276.429399
 30
0.0
 10
309.491380
 20
-277.000899
 30
0.0
 10
309.704740
 20
-277.000899
 30
0.0
 10
309.849520
 20
-277.072019
 30
0.0
 10
309.920640
 20
-277.143139
 30
0.0
 10
309.991760
 20
-277.285379
 30
0.0
 10
309.991760
 20
-277.643519
 30
0.0
 10
309.920640
 20
-277.785759
 30
0.0
 10
309.849520
 20
-277.856879
 30
0.0
 10
309.704740
 20
-277.927999
 30
0.0
 10
309.278020
 20
-277.927999
 30
0.0
 10
309.133240
 20
-277.856879
 30
0.0
 10
309.062120
 20
-277.785759
 30
0.0
  0
LWPOLYLINE
  5
182
100
AcDbEntity
  8
0
 62
7
100
AcDbPolyline
 90
2
 70
0
 10
386.420360
 20
-280.727079
 30
0.0
 10
386.420360
 20
-279.228479
 30
0.0
  0
LWPOLYLINE
  5
183
100
AcDbEntity
  8
0
 62
7
100
AcDbPolyline
 90
2
 70
0
 10
387.776720
 20
-280.727079
 30
0.0
 10
387.776720
 20
-279.228479
 30
0.0
  0
LWPOLYLINE
  5
184
100
AcDbEntity
  8
0
 62
7
100
AcDbPolyline
 90
12
 70
0
 10
387.776720
 20
-280.655959
 30
0.0
 10
387.634480
 20
-280.727079
 30
0.0
 10
387.347460
 20
-280.727079
 30
0.0
 10
387.205220
 20
-280.655959
 30
0.0
 10
387.134100
 20
-280.584839
 30
0.0
 10
387.062980
 20
-280.442599
 30
0.0
 10
387.062980
 20
-280.013339
 30
0.0
 10
387.134100
 20
-279.871099
 30
0.0
 10
387.205220
 20
-279.799979
 30
0.0
 10
387.347460
 20
-279.728859
 30
0.0
 10
387.634480
 20
-279.728859
 30
0.0
 10
387.776720
 20
-279.799979
 30
0.0
  0
LWPOLYLINE
  5
185
100
AcDbEntity
  8
0
 62
7
100
AcDbPolyline
 90
6
 70
0
 10
388.490460
 20
-280.584839
 30
0.0
 10
388.561580
 20
-280.655959
 30
0.0
 10
388.490460
 20
-280.727079
 30
0.0
 10
388.419340
 20
-280.655959
 30
0.0
 10
388.490460
 20
-280.584839
 30
0.0
 10
388.490460
 20
-280.727079
 30
0.0
  0
LWPOLYLINE
  5
186
100
AcDbEntity
  8
0
 62
7
100
AcDbPolyline
 90
6
 70
0
 10
388.490460
 20
-279.799979
 30
0.0
 10
388.561580
 20
-279.871099
 30
0.0
 10
388.490460
 20
-279.942219
 30
0.0
 10
388.419340
 20
-279.871099
 30
0.0
 10
388.490460
 20
-279.799979
 30
0.0
 10
388.490460
 20
-279.942219
 30
0.0
  0
LWPOLYLINE
  5
187
100
AcDbEntity
  8
0
 62
7
100
AcDbPolyline
 90
2
 70
0
 10
391.134600
 20
-280.727079
 30
0.0
 10
390.276080
 20
-280.727079
 30
0.0
  0
LWPOLYLINE
  5
188
100
AcDbEntity
  8
0
 62
7
100
AcDbPolyline
 90
5
 70
0
 10
390.705340
 20
-280.727079
 30
0.0
 10
390.705340
 20
-279.228479
 30
0.0
 10
390.563100
 20
-279.441839
 30
0.0
 10
390.420860
 20
-279.586619
 30
0.0
 10
390.276080
 20
-279.657739
 30
0.0
  0
LWPOLYLINE
  5
189
100
AcDbEntity
  8
0
 62
7
100
AcDbPolyline
 90
2
 70
0
 10
392.849100
 20
-279.157359
 30
0.0
 10
391.563860
 20
-281.085219
 30
0.0
  0
LWPOLYLINE
  5
18a
100
AcDbEntity
  8
0
 62
7
100
AcDbPolyline
 90
2
 70
0
 10
394.134340
 20
-280.727079
 30
0.0
 10
393.275820
 20
-280.727079
 30
0.0
  0
LWPOLYLINE
  5
18b
100
AcDbEntity
  8
0
 62
7
100
AcDbPolyline
 90
5
 70
0
 10
393.705080
 20
-280.727079
 30
0.0
 10
393.705080
 20
-279.228479
 30
0.0
 10
393.562840
 20
-279.441839
 30
0.0
 10
393.420600
 20
-279.586619
 30
0.0
 10
393.275820
 20
-279.657739
 30
0.0
  0
LWPOLYLINE
  5
18c
100
AcDbEntity
  8
0
 62
7
100
AcDbPolyline
 90
2
 70
0
 10
299.986700
 20
-271.649119
 30
0.0
 10
407.987500
 20
-271.649119
 30
0.0
  0
LWPOLYLINE
  5
18d
100
AcDbEntity
  8
0
 62
7
100
AcDbPolyline
 90
2
 70
0
 10
301.701200
 20
-272.355239
 30
0.0
 10
302.844200
 20
-272.355239
 30
0.0
  0
LWPOLYLINE
  5
18e
100
AcDbEntity
  8
0
 62
7
100
AcDbPolyline
 90
2
 70
0
 10
302.021240
 20
-274.354219
 30
0.0
 10
302.272700
 20
-272.355239
 30
0.0
  0
LWPOLYLINE
  5
18f
100
AcDbEntity
  8
0
 62
7
100
AcDbPolyline
 90
2
 70
0
 10
303.260760
 20
-274.354219
 30
0.0
 10
303.425860
 20
-273.020719
 30
0.0
  0
LWPOLYLINE
  5
190
100
AcDbEntity
  8
0
 62
7
100
AcDbPolyline
 90
6
 70
0
 10
303.509680
 20
-272.355239
 30
0.0
 10
303.403000
 20
-272.449219
 30
0.0
 10
303.486820
 20
-272.545739
 30
0.0
 10
303.593500
 20
-272.449219
 30
0.0
 10
303.509680
 20
-272.355239
 30
0.0
 10
303.486820
 20
-272.545739
 30
0.0
  0
LWPOLYLINE
  5
191
100
AcDbEntity
  8
0
 62
7
100
AcDbPolyline
 90
2
 70
0
 10
304.093880
 20
-273.020719
 30
0.0
 10
304.855880
 20
-273.020719
 30
0.0
  0
LWPOLYLINE
  5
192
100
AcDbEntity
  8
0
 62
7
100
AcDbPolyline
 90
5
 70
0
 10
304.462180
 20
-272.355239
 30
0.0
 10
304.248820
 20
-274.069739
 30
0.0
 10
304.319940
 20
-274.260239
 30
0.0
 10
304.497740
 20
-274.354219
 30
0.0
 10
304.688240
 20
-274.354219
 30
0.0
  0
LWPOLYLINE
  5
193
100
AcDbEntity
  8
0
 62
7
100
AcDbPolyline
 90
4
 70
0
 10
305.640740
 20
-274.354219
 30
0.0
 10
305.462940
 20
-274.260239
 30
0.0
 10
305.391820
 20
-274.069739
 30
0.0
 10
305.605180
 20
-272.355239
 30
0.0
  0
LWPOLYLINE
  5
194
100
AcDbEntity
  8
0
 62
7
100
AcDbPolyline
 90
13
 70
0
 10
307.177440
 20
-274.260239
 30
0.0
 10
306.974240
 20
-274.354219
 30
0.0
 10
306.593240
 20
-274.354219
 30
0.0
 10
306.415440
 20
-274.260239
 30
0.0
 10
306.341780
 20
-274.069739
 30
0.0
 10
306.438300
 20
-273.307739
 30
0.0
 10
306.557680
 20
-273.117239
 30
0.0
 10
306.760880
 20
-273.020719
 30
0.0
 10
307.139340
 20
-273.020719
 30
0.0
 10
307.319680
 20
-273.117239
 30
0.0
 10
307.390800
 20
-273.307739
 30
0.0
 10
307.367940
 20
-273.498239
 30
0.0
 10
306.390040
 20
-273.688739
 30
0.0
  0
LWPOLYLINE
  5
195
100
AcDbEntity
  8
0
 62
7
100
AcDbPolyline
 90
6
 70
0
 10
308.140100
 20
-274.163719
 30
0.0
 10
308.223920
 20
-274.260239
 30
0.0
 10
308.117240
 20
-274.354219
 30
0.0
 10
308.033420
 20
-274.260239
 30
0.0
 10
308.140100
 20
-274.163719
 30
0.0
 10
308.117240
 20
-274.354219
 30
0.0
  0
LWPOLYLINE
  5
196
100
AcDbEntity
  8
0
 62
7
100
AcDbPolyline
 90
6
 70
0
 10
308.272180
 20
-273.117239
 30
0.0
 10
308.356000
 20
-273.211219
 30
0.0
 10
308.246780
 20
-273.307739
 30
0.0
 10
308.165500
 20
-273.211219
 30
0.0
 10
308.272180
 20
-273.117239
 30
0.0
 10
308.246780
 20
-273.307739
 30
0.0
  0
LWPOLYLINE
  5
197
100
AcDbEntity
  8
0
 62
7
100
AcDbPolyline
 90
2
 70
0
 10
301.919640
 20
-269.741579
 30
0.0
 10
301.419260
 20
-269.741579
 30
0.0
  0
LWPOLYLINE
  5
198
100
AcDbEntity
  8
0
 62
7
100
AcDbPolyline
 90
3
 70
0
 10
301.419260
 20
-270.528979
 30
0.0
 10
301.419260
 20
-269.027839
 30
0.0
 10
302.133000
 20
-269.027839
 30
0.0
  0
LWPOLYLINE
  5
199
100
AcDbEntity
  8
0
 62
7
100
AcDbPolyline
 90
2
 70
0
 10
302.704500
 20
-270.528979
 30
0.0
 10
302.704500
 20
-269.528219
 30
0.0
  0
LWPOLYLINE
  5
19a
100
AcDbEntity
  8
0
 62
7
100
AcDbPolyline
 90
6
 70
0
 10
302.704500
 20
-269.027839
 30
0.0
 10
302.633380
 20
-269.098959
 30
0.0
 10
302.704500
 20
-269.170079
 30
0.0
 10
302.778160
 20
-269.098959
 30
0.0
 10
302.704500
 20
-269.027839
 30
0.0
 10
302.704500
 20
-269.170079
 30
0.0
  0
LWPOLYLINE
  5
19b
100
AcDbEntity
  8
0
 62
7
100
AcDbPolyline
 90
4
 70
0
 10
303.634140
 20
-270.528979
 30
0.0
 10
303.491900
 20
-270.457859
 30
0.0
 10
303.420780
 20
-270.313079
 30
0.0
 10
303.420780
 20
-269.027839
 30
0.0
  0
LWPOLYLINE
  5
19c
100
AcDbEntity
  8
0
 62
7
100
AcDbPolyline
 90
13
 70
0
 10
304.777140
 20
-270.457859
 30
0.0
 10
304.634900
 20
-270.528979
 30
0.0
 10
304.347880
 20
-270.528979
 30
0.0
 10
304.205640
 20
-270.457859
 30
0.0
 10
304.134520
 20
-270.313079
 30
0.0
 10
304.134520
 20
-269.741579
 30
0.0
 10
304.205640
 20
-269.599339
 30
0.0
 10
304.347880
 20
-269.528219
 30
0.0
 10
304.634900
 20
-269.528219
 30
0.0
 10
304.777140
 20
-269.599339
 30
0.0
 10
304.848260
 20
-269.741579
 30
0.0
 10
304.848260
 20
-269.886359
 30
0.0
 10
304.134520
 20
-270.028599
 30
0.0
  0
LWPOLYLINE
  5
19d
100
AcDbEntity
  8
0
 62
7
100
AcDbPolyline
 90
6
 70
0
 10
305.490880
 20
-270.384199
 30
0.0
 10
305.562000
 20
-270.457859
 30
0.0
 10
305.490880
 20
-270.528979
 30
0.0
 10
305.419760
 20
-270.457859
 30
0.0
 10
305.490880
 20
-270.384199
 30
0.0
 10
305.490880
 20
-270.528979
 30
0.0
  0
LWPOLYLINE
  5
19e
100
AcDbEntity
  8
0
 62
7
100
AcDbPolyline
 90
6
 70
0
 10
305.490880
 20
-269.599339
 30
0.0
 10
305.562000
 20
-269.670459
 30
0.0
 10
305.490880
 20
-269.741579
 30
0.0
 10
305.419760
 20
-269.670459
 30
0.0
 10
305.490880
 20
-269.599339
 30
0.0
 10
305.490880
 20
-269.741579
 30
0.0
  0
LWPOLYLINE
  5
19f
100
AcDbEntity
  8
0
 62
7
100
AcDbPolyline
 90
2
 70
0
 10
307.347620
 20
-270.528979
 30
0.0
 10
307.347620
 20
-269.528219
 30
0.0
  0
LWPOLYLINE
  5
1a0
100
AcDbEntity
  8
0
 62
7
100
AcDbPolyline
 90
7
 70
0
 10
307.347620
 20
-269.670459
 30
0.0
 10
307.418740
 20
-269.599339
 30
0.0
 10
307.563520
 20
-269.528219
 30
0.0
 10
307.776880
 20
-269.528219
 30
0.0
 10
307.919120
 20
-269.599339
 30
0.0
 10
307.990240
 20
-269.741579
 30
0.0
 10
307.990240
 20
-270.528979
 30
0.0
  0
LWPOLYLINE
  5
1a1
100
AcDbEntity
  8
0
 62
7
100
AcDbPolyline
 90
7
 70
0
 10
307.990240
 20
-269.741579
 30
0.0
 10
308.063900
 20
-269.599339
 30
0.0
 10
308.206140
 20
-269.528219
 30
0.0
 10
308.419500
 20
-269.528219
 30
0.0
 10
308.561740
 20
-269.599339
 30
0.0
 10
308.635400
 20
-269.741579
 30
0.0
 10
308.635400
 20
-270.528979
 30
0.0
  0
LWPOLYLINE
  5
1a2
100
AcDbEntity
  8
0
 62
7
100
AcDbPolyline
 90
16
 70
1
 10
309.562500
 20
-270.528979
 30
0.0
 10
309.420260
 20
-270.457859
 30
0.0
 10
309.349140
 20
-270.384199
 30
0.0
 10
309.278020
 20
-270.241959
 30
0.0
 10
309.278020
 20
-269.815239
 30
0.0
 10
309.349140
 20
-269.670459
 30
0.0
 10
309.420260
 20
-269.599339
 30
0.0
 10
309.562500
 20
-269.528219
 30
0.0
 10
309.775860
 20
-269.528219
 30
0.0
 10
309.920640
 20
-269.599339
 30
0.0
 10
309.991760
 20
-269.670459
 30
0.0
 10
310.062880
 20
-269.815239
 30
0.0
 10
310.062880
 20
-270.241959
 30
0.0
 10
309.991760
 20
-270.384199
 30
0.0
 10
309.920640
 20
-270.457859
 30
0.0
 10
309.775860
 20
-270.528979
 30
0.0
  0
LWPOLYLINE
  5
1a3
100
AcDbEntity
  8
0
 62
7
100
AcDbPolyline
 90
4
 70
0
 10
310.918860
 20
-270.528979
 30
0.0
 10
310.776620
 20
-270.457859
 30
0.0
 10
310.705500
 20
-270.313079
 30
0.0
 10
310.705500
 20
-269.027839
 30
0.0
  0
LWPOLYLINE
  5
1a4
100
AcDbEntity
  8
0
 62
7
100
AcDbPolyline
 90
13
 70
0
 10
312.061860
 20
-270.457859
 30
0.0
 10
311.919620
 20
-270.528979
 30
0.0
 10
311.635140
 20
-270.528979
 30
0.0
 10
311.490360
 20
-270.457859
 30
0.0
 10
311.419240
 20
-270.313079
 30
0.0
 10
311.419240
 20
-269.741579
 30
0.0
 10
311.490360
 20
-269.599339
 30
0.0
 10
311.635140
 20
-269.528219
 30
0.0
 10
311.919620
 20
-269.528219
 30
0.0
 10
312.061860
 20
-269.599339
 30
0.0
 10
312.132980
 20
-269.741579
 30
0.0
 10
312.132980
 20
-269.886359
 30
0.0
 10
311.419240
 20
-270.028599
 30
0.0
  0
LWPOLYLINE
  5
1a5
100
AcDbEntity
  8
0
 62
7
100
AcDbPolyline
 90
12
 70
0
 10
313.420760
 20
-270.457859
 30
0.0
 10
313.275980
 20
-270.528979
 30
0.0
 10
312.991500
 20
-270.528979
 30
0.0
 10
312.849260
 20
-270.457859
 30
0.0
 10
312.778140
 20
-270.384199
 30
0.0
 10
312.704480
 20
-270.241959
 30
0.0
 10
312.704480
 20
-269.815239
 30
0.0
 10
312.778140
 20
-269.670459
 30
0.0
 10
312.849260
 20
-269.599339
 30
0.0
 10
312.991500
 20
-269.528219
 30
0.0
 10
313.275980
 20
-269.528219
 30
0.0
 10
313.420760
 20
-269.599339
 30
0.0
  0
LWPOLYLINE
  5
1a6
100
AcDbEntity
  8
0
 62
7
100
AcDbPolyline
 90
2
 70
0
 10
314.706000
 20
-269.528219
 30
0.0
 10
314.706000
 20
-270.528979
 30
0.0
  0
LWPOLYLINE
  5
1a7
100
AcDbEntity
  8
0
 62
7
100
AcDbPolyline
 90
7
 70
0
 10
314.063380
 20
-269.528219
 30
0.0
 10
314.063380
 20
-270.313079
 30
0.0
 10
314.134500
 20
-270.457859
 30
0.0
 10
314.276740
 20
-270.528979
 30
0.0
 10
314.490100
 20
-270.528979
 30
0.0
 10
314.634880
 20
-270.457859
 30
0.0
 10
314.706000
 20
-270.384199
 30
0.0
  0
LWPOLYLINE
  5
1a8
100
AcDbEntity
  8
0
 62
7
100
AcDbPolyline
 90
4
 70
0
 10
315.633100
 20
-270.528979
 30
0.0
 10
315.490860
 20
-270.457859
 30
0.0
 10
315.419740
 20
-270.313079
 30
0.0
 10
315.419740
 20
-269.027839
 30
0.0
  0
LWPOLYLINE
  5
1a9
100
AcDbEntity
  8
0
 62
7
100
AcDbPolyline
 90
13
 70
0
 10
316.776100
 20
-270.457859
 30
0.0
 10
316.633860
 20
-270.528979
 30
0.0
 10
316.349380
 20
-270.528979
 30
0.0
 10
316.204600
 20
-270.457859
 30
0.0
 10
316.133480
 20
-270.313079
 30
0.0
 10
316.133480
 20
-269.741579
 30
0.0
 10
316.204600
 20
-269.599339
 30
0.0
 10
316.349380
 20
-269.528219
 30
0.0
 10
316.633860
 20
-269.528219
 30
0.0
 10
316.776100
 20
-269.599339
 30
0.0
 10
316.847220
 20
-269.741579
 30
0.0
 10
316.847220
 20
-269.886359
 30
0.0
 10
316.133480
 20
-270.028599
 30
0.0
  0
LWPOLYLINE
  5
1aa
100
AcDbEntity
  8
0
 62
7
100
AcDbPolyline
 90
2
 70
0
 10
317.134240
 20
-270.671219
 30
0.0
 10
318.277240
 20
-270.671219
 30
0.0
  0
LWPOLYLINE
  5
1ab
100
AcDbEntity
  8
0
 62
7
100
AcDbPolyline
 90
3
 70
0
 10
318.490600
 20
-269.528219
 30
0.0
 10
318.848740
 20
-270.528979
 30
0.0
 10
319.204340
 20
-269.528219
 30
0.0
  0
LWPOLYLINE
  5
1ac
100
AcDbEntity
  8
0
 62
7
100
AcDbPolyline
 90
11
 70
0
 10
319.704720
 20
-269.170079
 30
0.0
 10
319.775840
 20
-269.098959
 30
0.0
 10
319.920620
 20
-269.027839
 30
0.0
 10
320.276220
 20
-269.027839
 30
0.0
 10
320.421000
 20
-269.098959
 30
0.0
 10
320.492120
 20
-269.170079
 30
0.0
 10
320.563240
 20
-269.314859
 30
0.0
 10
320.563240
 20
-269.457099
 30
0.0
 10
320.492120
 20
-269.670459
 30
0.0
 10
319.633600
 20
-270.528979
 30
0.0
 10
320.563240
 20
-270.528979
 30
0.0
  0
LWPOLYLINE
  5
1ad
100
AcDbEntity
  8
0
 62
7
100
AcDbPolyline
 90
6
 70
0
 10
321.205860
 20
-270.384199
 30
0.0
 10
321.276980
 20
-270.457859
 30
0.0
 10
321.205860
 20
-270.528979
 30
0.0
 10
321.134740
 20
-270.457859
 30
0.0
 10
321.205860
 20
-270.384199
 30
0.0
 10
321.205860
 20
-270.528979
 30
0.0
  0
LWPOLYLINE
  5
1ae
100
AcDbEntity
  8
0
 62
7
100
AcDbPolyline
 90
2
 70
0
 10
321.919600
 20
-270.528979
 30
0.0
 10
321.919600
 20
-269.027839
 30
0.0
  0
LWPOLYLINE
  5
1af
100
AcDbEntity
  8
0
 62
7
100
AcDbPolyline
 90
2
 70
0
 10
322.061840
 20
-269.957479
 30
0.0
 10
322.491100
 20
-270.528979
 30
0.0
  0
LWPOLYLINE
  5
1b0
100
AcDbEntity
  8
0
 62
7
100
AcDbPolyline
 90
2
 70
0
 10
322.491100
 20
-269.528219
 30
0.0
 10
321.919600
 20
-270.099719
 30
0.0
  0
LWPOLYLINE
  5
1b1
100
AcDbEntity
  8
0
 62
7
100
AcDbPolyline
 90
2
 70
0
 10
323.133720
 20
-270.528979
 30
0.0
 10
323.133720
 20
-269.528219
 30
0.0
  0
LWPOLYLINE
  5
1b2
100
AcDbEntity
  8
0
 62
7
100
AcDbPolyline
 90
6
 70
0
 10
323.133720
 20
-269.027839
 30
0.0
 10
323.062600
 20
-269.098959
 30
0.0
 10
323.133720
 20
-269.170079
 30
0.0
 10
323.204840
 20
-269.098959
 30
0.0
 10
323.133720
 20
-269.027839
 30
0.0
 10
323.133720
 20
-269.170079
 30
0.0
  0
LWPOLYLINE
  5
1b3
100
AcDbEntity
  8
0
 62
7
100
AcDbPolyline
 90
12
 70
0
 10
324.490080
 20
-270.457859
 30
0.0
 10
324.347840
 20
-270.528979
 30
0.0
 10
324.063360
 20
-270.528979
 30
0.0
 10
323.921120
 20
-270.457859
 30
0.0
 10
323.847460
 20
-270.384199
 30
0.0
 10
323.776340
 20
-270.241959
 30
0.0
 10
323.776340
 20
-269.815239
 30
0.0
 10
323.847460
 20
-269.670459
 30
0.0
 10
323.921120
 20
-269.599339
 30
0.0
 10
324.063360
 20
-269.528219
 30
0.0
 10
324.347840
 20
-269.528219
 30
0.0
 10
324.490080
 20
-269.599339
 30
0.0
  0
LWPOLYLINE
  5
1b4
100
AcDbEntity
  8
0
 62
7
100
AcDbPolyline
 90
6
 70
0
 10
325.777860
 20
-270.528979
 30
0.0
 10
325.777860
 20
-269.741579
 30
0.0
 10
325.706740
 20
-269.599339
 30
0.0
 10
325.561960
 20
-269.528219
 30
0.0
 10
325.277480
 20
-269.528219
 30
0.0
 10
325.135240
 20
-269.599339
 30
0.0
  0
LWPOLYLINE
  5
1b5
100
AcDbEntity
  8
0
 62
7
100
AcDbPolyline
 90
10
 70
0
 10
325.777860
 20
-270.457859
 30
0.0
 10
325.633080
 20
-270.528979
 30
0.0
 10
325.277480
 20
-270.528979
 30
0.0
 10
325.135240
 20
-270.457859
 30
0.0
 10
325.061580
 20
-270.313079
 30
0.0
 10
325.061580
 20
-270.170839
 30
0.0
 10
325.135240
 20
-270.028599
 30
0.0
 10
325.277480
 20
-269.957479
 30
0.0
 10
325.633080
 20
-269.957479
 30
0.0
 10
325.777860
 20
-269.886359
 30
0.0
  0
LWPOLYLINE
  5
1b6
100
AcDbEntity
  8
0
 62
7
100
AcDbPolyline
 90
2
 70
0
 10
327.134220
 20
-270.528979
 30
0.0
 10
327.134220
 20
-269.027839
 30
0.0
  0
LWPOLYLINE
  5
1b7
100
AcDbEntity
  8
0
 62
7
100
AcDbPolyline
 90
12
 70
0
 10
327.134220
 20
-270.457859
 30
0.0
 10
326.991980
 20
-270.528979
 30
0.0
 10
326.704960
 20
-270.528979
 30
0.0
 10
326.562720
 20
-270.457859
 30
0.0
 10
326.491600
 20
-270.384199
 30
0.0
 10
326.420480
 20
-270.241959
 30
0.0
 10
326.420480
 20
-269.815239
 30
0.0
 10
326.491600
 20
-269.670459
 30
0.0
 10
326.562720
 20
-269.599339
 30
0.0
 10
326.704960
 20
-269.528219
 30
0.0
 10
326.991980
 20
-269.528219
 30
0.0
 10
327.134220
 20
-269.599339
 30
0.0
  0
LWPOLYLINE
  5
1b8
100
AcDbEntity
  8
0
 62
7
100
AcDbPolyline
 90
2
 70
0
 10
327.492360
 20
-270.671219
 30
0.0
 10
328.635360
 20
-270.671219
 30
0.0
  0
LWPOLYLINE
  5
1b9
100
AcDbEntity
  8
0
 62
7
100
AcDbPolyline
 90
2
 70
0
 10
328.990960
 20
-269.528219
 30
0.0
 10
328.990960
 20
-271.029359
 30
0.0
  0
LWPOLYLINE
  5
1ba
100
AcDbEntity
  8
0
 62
7
100
AcDbPolyline
 90
12
 70
0
 10
328.990960
 20
-269.599339
 30
0.0
 10
329.133200
 20
-269.528219
 30
0.0
 10
329.420220
 20
-269.528219
 30
0.0
 10
329.562460
 20
-269.599339
 30
0.0
 10
329.633580
 20
-269.670459
 30
0.0
 10
329.704700
 20
-269.815239
 30
0.0
 10
329.704700
 20
-270.241959
 30
0.0
 10
329.633580
 20
-270.384199
 30
0.0
 10
329.562460
 20
-270.457859
 30
0.0
 10
329.420220
 20
-270.528979
 30
0.0
 10
329.133200
 20
-270.528979
 30
0.0
 10
328.990960
 20
-270.457859
 30
0.0
  0
LWPOLYLINE
  5
1bb
100
AcDbEntity
  8
0
 62
7
100
AcDbPolyline
 90
12
 70
0
 10
330.992480
 20
-270.457859
 30
0.0
 10
330.847700
 20
-270.528979
 30
0.0
 10
330.563220
 20
-270.528979
 30
0.0
 10
330.420980
 20
-270.457859
 30
0.0
 10
330.347320
 20
-270.384199
 30
0.0
 10
330.276200
 20
-270.241959
 30
0.0
 10
330.276200
 20
-269.815239
 30
0.0
 10
330.347320
 20
-269.670459
 30
0.0
 10
330.420980
 20
-269.599339
 30
0.0
 10
330.563220
 20
-269.528219
 30
0.0
 10
330.847700
 20
-269.528219
 30
0.0
 10
330.992480
 20
-269.599339
 30
0.0
  0
LWPOLYLINE
  5
1bc
100
AcDbEntity
  8
0
 62
7
100
AcDbPolyline
 90
2
 70
0
 10
331.635100
 20
-270.528979
 30
0.0
 10
331.635100
 20
-269.027839
 30
0.0
  0
LWPOLYLINE
  5
1bd
100
AcDbEntity
  8
0
 62
7
100
AcDbPolyline
 90
12
 70
0
 10
331.635100
 20
-269.599339
 30
0.0
 10
331.777340
 20
-269.528219
 30
0.0
 10
332.061820
 20
-269.528219
 30
0.0
 10
332.206600
 20
-269.599339
 30
0.0
 10
332.277720
 20
-269.670459
 30
0.0
 10
332.348840
 20
-269.815239
 30
0.0
 10
332.348840
 20
-270.241959
 30
0.0
 10
332.277720
 20
-270.384199
 30
0.0
 10
332.206600
 20
-270.457859
 30
0.0
 10
332.061820
 20
-270.528979
 30
0.0
 10
331.777340
 20
-270.528979
 30
0.0
 10
331.635100
 20
-270.457859
 30
0.0
  0
LWPOLYLINE
  5
1be
100
AcDbEntity
  8
0
 62
7
100
AcDbPolyline
 90
2
 70
0
 10
299.986700
 20
-265.649639
 30
0.0
 10
407.987500
 20
-265.649639
 30
0.0
  0
LWPOLYLINE
  5
1bf
100
AcDbEntity
  8
0
 62
7
100
AcDbPolyline
 90
20
 70
0
 10
301.348140
 20
-267.757839
 30
0.0
 10
301.561500
 20
-267.828959
 30
0.0
 10
301.919640
 20
-267.828959
 30
0.0
 10
302.061880
 20
-267.757839
 30
0.0
 10
302.133000
 20
-267.684179
 30
0.0
 10
302.206660
 20
-267.541939
 30
0.0
 10
302.206660
 20
-267.399699
 30
0.0
 10
302.133000
 20
-267.257459
 30
0.0
 10
302.061880
 20
-267.186339
 30
0.0
 10
301.919640
 20
-267.115219
 30
0.0
 10
301.635160
 20
-267.041559
 30
0.0
 10
301.490380
 20
-266.970439
 30
0.0
 10
301.419260
 20
-266.899319
 30
0.0
 10
301.348140
 20
-266.757079
 30
0.0
 10
301.348140
 20
-266.614839
 30
0.0
 10
301.419260
 20
-266.470059
 30
0.0
 10
301.490380
 20
-266.398939
 30
0.0
 10
301.635160
 20
-266.327819
 30
0.0
 10
301.990760
 20
-266.327819
 30
0.0
 10
302.206660
 20
-266.398939
 30
0.0
  0
LWPOLYLINE
  5
1c0
100
AcDbEntity
  8
0
 62
7
100
AcDbPolyline
 90
2
 70
0
 10
302.849280
 20
-267.828959
 30
0.0
 10
302.849280
 20
-266.327819
 30
0.0
  0
LWPOLYLINE
  5
1c1
100
AcDbEntity
  8
0
 62
7
100
AcDbPolyline
 90
7
 70
0
 10
303.491900
 20
-267.828959
 30
0.0
 10
303.491900
 20
-267.041559
 30
0.0
 10
303.420780
 20
-266.899319
 30
0.0
 10
303.276000
 20
-266.828199
 30
0.0
 10
303.062640
 20
-266.828199
 30
0.0
 10
302.920400
 20
-266.899319
 30
0.0
 10
302.849280
 20
-266.970439
 30
0.0
  0
LWPOLYLINE
  5
1c2
100
AcDbEntity
  8
0
 62
7
100
AcDbPolyline
 90
13
 70
0
 10
304.777140
 20
-267.757839
 30
0.0
 10
304.634900
 20
-267.828959
 30
0.0
 10
304.347880
 20
-267.828959
 30
0.0
 10
304.205640
 20
-267.757839
 30
0.0
 10
304.134520
 20
-267.613059
 30
0.0
 10
304.134520
 20
-267.041559
 30
0.0
 10
304.205640
 20
-266.899319
 30
0.0
 10
304.347880
 20
-266.828199
 30
0.0
 10
304.634900
 20
-266.828199
 30
0.0
 10
304.777140
 20
-266.899319
 30
0.0
 10
304.848260
 20
-267.041559
 30
0.0
 10
304.848260
 20
-267.186339
 30
0.0
 10
304.134520
 20
-267.328579
 30
0.0
  0
LWPOLYLINE
  5
1c3
100
AcDbEntity
  8
0
 62
7
100
AcDbPolyline
 90
13
 70
0
 10
306.062380
 20
-267.757839
 30
0.0
 10
305.920140
 20
-267.828959
 30
0.0
 10
305.633120
 20
-267.828959
 30
0.0
 10
305.490880
 20
-267.757839
 30
0.0
 10
305.419760
 20
-267.613059
 30
0.0
 10
305.419760
 20
-267.041559
 30
0.0
 10
305.490880
 20
-266.899319
 30
0.0
 10
305.633120
 20
-266.828199
 30
0.0
 10
305.920140
 20
-266.828199
 30
0.0
 10
306.062380
 20
-266.899319
 30
0.0
 10
306.133500
 20
-267.041559
 30
0.0
 10
306.133500
 20
-267.186339
 30
0.0
 10
305.419760
 20
-267.328579
 30
0.0
  0
LWPOLYLINE
  5
1c4
100
AcDbEntity
  8
0
 62
7
100
AcDbPolyline
 90
2
 70
0
 10
306.562760
 20
-266.828199
 30
0.0
 10
307.134260
 20
-266.828199
 30
0.0
  0
LWPOLYLINE
  5
1c5
100
AcDbEntity
  8
0
 62
7
100
AcDbPolyline
 90
5
 70
0
 10
306.776120
 20
-266.327819
 30
0.0
 10
306.776120
 20
-267.613059
 30
0.0
 10
306.847240
 20
-267.757839
 30
0.0
 10
306.992020
 20
-267.828959
 30
0.0
 10
307.134260
 20
-267.828959
 30
0.0
  0
LWPOLYLINE
  5
1c6
100
AcDbEntity
  8
0
 62
7
100
AcDbPolyline
 90
6
 70
0
 10
307.634640
 20
-267.684179
 30
0.0
 10
307.705760
 20
-267.757839
 30
0.0
 10
307.634640
 20
-267.828959
 30
0.0
 10
307.563520
 20
-267.757839
 30
0.0
 10
307.634640
 20
-267.684179
 30
0.0
 10
307.634640
 20
-267.828959
 30
0.0
  0
LWPOLYLINE
  5
1c7
100
AcDbEntity
  8
0
 62
7
100
AcDbPolyline
 90
6
 70
0
 10
307.634640
 20
-266.899319
 30
0.0
 10
307.705760
 20
-266.970439
 30
0.0
 10
307.634640
 20
-267.041559
 30
0.0
 10
307.563520
 20
-266.970439
 30
0.0
 10
307.634640
 20
-266.899319
 30
0.0
 10
307.634640
 20
-267.041559
 30
0.0
  0
LWPOLYLINE
  5
1c8
100
AcDbEntity
  8
0
 62
7
100
AcDbPolyline
 90
2
 70
0
 10
319.986660
 20
-275.649619
 30
0.0
 10
319.986660
 20
-278.649359
 30
0.0
  0
LWPOLYLINE
  5
1c9
100
AcDbEntity
  8
0
 62
7
100
AcDbPolyline
 90
2
 70
0
 10
383.987040
 20
-275.649619
 30
0.0
 10
383.987040
 20
-282.149479
 30
0.0
  0
LWPOLYLINE
  5
1ca
100
AcDbEntity
  8
0
 62
7
100
AcDbPolyline
 90
84
 70
1
 10
320.786760
 20
-77.179099
 30
0.0
 10
283.464000
 20
-77.191799
 30
0.0
 10
278.457660
 20
-77.222279
 30
0.0
 10
235.915200
 20
-77.234979
 30
0.0
 10
235.915200
 20
-71.824779
 30
0.0
 10
226.364800
 20
-71.824779
 30
0.0
 10
226.377500
 20
-77.247679
 30
0.0
 10
222.275400
 20
-77.247679
 30
0.0
 10
222.275400
 20
-70.796079
 30
0.0
 10
211.632800
 20
-70.796079
 30
0.0
 10
211.632800
 20
-77.209579
 30
0.0
 10
192.659000
 20
-77.194339
 30
0.0
 10
155.338780
 20
-77.201959
 30
0.0
 10
150.324820
 20
-77.191799
 30
0.0
 10
113.004600
 20
-77.201959
 30
0.0
 10
111.503460
 20
-77.234979
 30
0.0
 10
110.027720
 20
-77.339119
 30
0.0
 10
108.590080
 20
-77.504219
 30
0.0
 10
107.188000
 20
-77.732819
 30
0.0
 10
105.831640
 20
-78.035079
 30
0.0
 10
104.523540
 20
-78.405919
 30
0.0
 10
103.263700
 20
-78.845339
 30
0.0
 10
102.064820
 20
-79.368579
 30
0.0
 10
100.921820
 20
-79.965479
 30
0.0
 10
99.847400
 20
-80.651279
 30
0.0
 10
98.833940
 20
-81.420899
 30
0.0
 10
97.899220
 20
-82.276879
 30
0.0
 10
97.040700
 20
-83.226839
 30
0.0
 10
96.255840
 20
-84.268239
 30
0.0
 10
95.559880
 20
-85.408699
 30
0.0
 10
94.955360
 20
-86.650759
 30
0.0
 10
94.437200
 20
-87.994419
 30
0.0
 10
75.966320
 20
-144.839619
 30
0.0
 10
75.890120
 20
-145.116479
 30
0.0
 10
75.897740
 20
-145.357779
 30
0.0
 10
75.963780
 20
-145.558439
 30
0.0
 10
76.067920
 20
-145.720999
 30
0.0
 10
76.301600
 20
-145.934359
 30
0.0
 10
76.418440
 20
-146.005479
 30
0.0
 10
77.802740
 20
-146.719219
 30
0.0
 10
110.980220
 20
-163.800719
 30
0.0
 10
115.430300
 20
-166.107039
 30
0.0
 10
148.597620
 20
-183.216479
 30
0.0
 10
153.037540
 20
-185.525339
 30
0.0
 10
186.204860
 20
-202.637319
 30
0.0
 10
187.388500
 20
-203.297719
 30
0.0
 10
187.987940
 20
-203.498379
 30
0.0
 10
188.424820
 20
-203.574579
 30
0.0
 10
188.785500
 20
-203.572039
 30
0.0
 10
216.900760
 20
-203.582199
 30
0.0
 10
245.092220
 20
-203.556799
 30
0.0
 10
245.572280
 20
-203.511079
 30
0.0
 10
246.087900
 20
-203.384079
 30
0.0
 10
246.710200
 20
-203.132619
 30
0.0
 10
247.977660
 20
-202.489999
 30
0.0
 10
281.144980
 20
-185.378019
 30
0.0
 10
285.597600
 20
-183.071699
 30
0.0
 10
318.762380
 20
-165.962259
 30
0.0
 10
323.215000
 20
-163.655939
 30
0.0
 10
356.367080
 20
-146.516019
 30
0.0
 10
357.525320
 20
-145.916579
 30
0.0
 10
357.609140
 20
-145.853079
 30
0.0
 10
357.779320
 20
-145.670199
 30
0.0
 10
357.855520
 20
-145.533039
 30
0.0
 10
357.908860
 20
-145.370479
 30
0.0
 10
357.921560
 20
-145.179979
 30
0.0
 10
357.880920
 20
-144.958999
 30
0.0
 10
339.361780
 20
-87.981719
 30
0.0
 10
338.846160
 20
-86.635519
 30
0.0
 10
338.239100
 20
-85.395999
 30
0.0
 10
337.543140
 20
-84.255539
 30
0.0
 10
336.760820
 20
-83.211599
 30
0.0
 10
335.899760
 20
-82.259099
 30
0.0
 10
334.965040
 20
-81.405659
 30
0.0
 10
333.954120
 20
-80.636039
 30
0.0
 10
332.877160
 20
-79.952779
 30
0.0
 10
331.734160
 20
-79.353339
 30
0.0
 10
330.535280
 20
-78.832639
 30
0.0
 10
329.275440
 20
-78.388139
 30
0.0
 10
327.967340
 20
-78.019839
 30
0.0
 10
326.610980
 20
-77.720119
 30
0.0
 10
325.208900
 20
-77.488979
 30
0.0
 10
323.771260
 20
-77.323879
 30
0.0
 10
322.295520
 20
-77.219739
 30
0.0
  0
ENDSEC
  0
SECTION
  2
OBJECTS
  0
DICTIONARY
  5
C
330
0
100
AcDbDictionary
  3
ACAD_GROUP
350
D
  3
ACAD_MLINESTYLE
350
17
  0
DICTIONARY
  5
D
330
C
100
AcDbDictionary
  0
DICTIONARY
  5
1A
330
C
100
AcDbDictionary
  0
DICTIONARY
  5
17
330
C
100
AcDbDictionary
  3
STANDARD
350
18
  0
DICTIONARY
  5
19
330
C
100
AcDbDictionary
  0
ENDSEC
  0
EOF
