  0
SECTION
  2
HEADER
  9
$ACADVER
  1
AC1014
  9
$HANDSEED
  5
FFFF
  9
$MEASUREMENT
 70
     1
  0
ENDSEC
  0
SECTION
  2
TABLES
  0
TABLE
  2
VPORT
  5
8
330
0
100
AcDbSymbolTable
 70
     4
  0
VPORT
  5
2E
330
8
100
AcDbSymbolTableRecord
100
AcDbViewportTableRecord
  2
*ACTIVE
 70
     0
 10
0.0
 20
0.0
 11
1.0
 21
1.0
 12
210.0
 22
148.5
 13
0.0
 23
0.0
 14
10.0
 24
10.0
 15
10.0
 25
10.0
 16
0.0
 26
0.0
 36
1.0
 17
0.0
 27
0.0
 37
0.0
 40
341.0
 41
1.24
 42
50.0
 43
0.0
 44
0.0
 50
0.0
 51
0.0
 71
     0
 72
   100
 73
     1
 74
     3
 75
     0
 76
     0
 77
     0
 78
     0
  0
ENDTAB
  0
TABLE
  2
LTYPE
  5
5
330
0
100
AcDbSymbolTable
 70
     1
  0
LTYPE
  5
14
330
5
100
AcDbSymbolTableRecord
100
AcDbLinetypeTableRecord
  2
BYBLOCK
 70
     0
  3

 72
    65
 73
     0
 40
0.0
  0
LTYPE
  5
15
330
5
100
AcDbSymbolTableRecord
100
AcDbLinetypeTableRecord
  2
BYLAYER
 70
     0
  3

 72
    65
 73
     0
 40
0.0
  0
LTYPE
  5
16
330
5
100
AcDbSymbolTableRecord
100
AcDbLinetypeTableRecord
  2
CONTINUOUS
 70
     0
  3
Solid line
 72
    65
 73
     0
 40
0.0
  0
ENDTAB
  0
TABLE
  2
LAYER
  5
2
100
AcDbSymbolTable
 70
1
  0
LAYER
  5
50
100
AcDbSymbolTableRecord
100
AcDbLayerTableRecord
  2
0
 70
0
  6
CONTINUOUS
  0
ENDTAB
  0
TABLE
  2
STYLE
  5
3
330
0
100
AcDbSymbolTable
 70
     1
  0
STYLE
  5
11
330
3
100
AcDbSymbolTableRecord
100
AcDbTextStyleTableRecord
  2
STANDARD
 70
     0
 40
0.0
 41
1.0
 50
0.0
 71
     0
 42
2.5
  3
txt
  4

  0
ENDTAB
  0
TABLE
  2
VIEW
  5
6
330
0
100
AcDbSymbolTable
 70
     0
  0
ENDTAB
  0
TABLE
  2
UCS
  5
7
330
0
100
AcDbSymbolTable
 70
     0
  0
ENDTAB
  0
TABLE
  2
APPID
  5
9
330
0
100
AcDbSymbolTable
 70
     2
  0
APPID
  5
12
330
9
100
AcDbSymbolTableRecord
100
AcDbRegAppTableRecord
  2
ACAD
 70
     0
  0
ENDTAB
  0
TABLE
  2
DIMSTYLE
  5
A
330
0
100
AcDbSymbolTable
 70
     1
  0
DIMSTYLE
105
27
330
A
100
AcDbSymbolTableRecord
100
AcDbDimStyleTableRecord
  2
ISO-25
 70
     0
  3

  4

  5

  6

  7

 40
1.0
 41
2.5
 42
0.625
 43
3.75
 44
1.25
 45
0.0
 46
0.0
 47
0.0
 48
0.0
140
2.5
141
2.5
142
0.0
143
0.03937007874016
144
1.0
145
0.0
146
1.0
147
0.625
 71
     0
 72
     0
 73
     0
 74
     0
 75
     0
 76
     0
 77
     1
 78
     8
170
     0
171
     3
172
     1
173
     0
174
     0
175
     0
176
     0
177
     0
178
     0
270
     2
271
     2
272
     2
273
     2
274
     3
340
11
275
     0
280
     0
281
     0
282
     0
283
     0
284
     8
285
     0
286
     0
287
     3
288
     0
  0
ENDTAB
  0
TABLE
  2
BLOCK_RECORD
  5
1
330
0
100
AcDbSymbolTable
 70
     1
  0
BLOCK_RECORD
  5
1F
330
1
100
AcDbSymbolTableRecord
100
AcDbBlockTableRecord
  2
*MODEL_SPACE
  0
BLOCK_RECORD
  5
1B
330
1
100
AcDbSymbolTableRecord
100
AcDbBlockTableRecord
  2
*PAPER_SPACE
  0
ENDTAB
  0
ENDSEC
  0
SECTION
  2
BLOCKS
  0
BLOCK
  5
20
330
1F
100
AcDbEntity
  8
0
100
AcDbBlockBegin
  2
*MODEL_SPACE
 70
     0
 10
0.0
 20
0.0
 30
0.0
  3
*MODEL_SPACE
  1

  0
ENDBLK
  5
21
330
1F
100
AcDbEntity
  8
0
100
AcDbBlockEnd
  0
BLOCK
  5
1C
330
1B
100
AcDbEntity
 67
     1
  8
0
100
AcDbBlockBegin
  2
*PAPER_SPACE
  1

  0
ENDBLK
  5
1D
330
1B
100
AcDbEntity
 67
     1
  8
0
100
AcDbBlockEnd
  0
ENDSEC
  0
SECTION
  2
ENTITIES
  0
LWPOLYLINE
  5
100
100
AcDbEntity
  8
0
 62
7
100
AcDbPolyline
 90
217
 70
1
 10
113.721645
 20
-178.990417
 30
0.0
 10
113.626649
 20
-179.253815
 30
0.0
 10
113.612176
 20
-179.480129
 30
0.0
 10
113.657642
 20
-179.669867
 30
0.0
 10
113.742224
 20
-179.823791
 30
0.0
 10
113.943392
 20
-180.026737
 30
0.0
 10
114.048040
 20
-180.093539
 30
0.0
 10
145.785086
 20
-196.500415
 30
0.0
 10
145.899894
 20
-196.547151
 30
0.0
 10
146.181834
 20
-196.594141
 30
0.0
 10
146.356332
 20
-196.574085
 30
0.0
 10
146.537434
 20
-196.501441
 30
0.0
 10
146.713964
 20
-196.359201
 30
0.0
 10
146.873984
 20
-196.129077
 30
0.0
 10
148.776952
 20
-192.451157
 30
0.0
 10
153.224238
 20
-194.746555
 30
0.0
 10
151.328890
 20
-198.409997
 30
0.0
 10
151.233640
 20
-198.673395
 30
0.0
 10
151.219167
 20
-198.899709
 30
0.0
 10
151.264887
 20
-199.089447
 30
0.0
 10
151.349215
 20
-199.243371
 30
0.0
 10
151.550383
 20
-199.446317
 30
0.0
 10
151.655031
 20
-199.512865
 30
0.0
 10
183.392328
 20
-215.919738
 30
0.0
 10
183.506882
 20
-215.966728
 30
0.0
 10
183.789076
 20
-216.013718
 30
0.0
 10
183.963574
 20
-215.993398
 30
0.0
 10
184.144676
 20
-215.921008
 30
0.0
 10
184.320952
 20
-215.778768
 30
0.0
 10
184.480972
 20
-215.548644
 30
0.0
 10
186.384194
 20
-211.870978
 30
0.0
 10
187.574184
 20
-212.519186
 30
0.0
 10
188.173624
 20
-212.719846
 30
0.0
 10
188.611774
 20
-212.796046
 30
0.0
 10
188.971946
 20
-212.791970
 30
0.0
 10
217.087204
 20
-212.803400
 30
0.0
 10
245.278410
 20
-212.776996
 30
0.0
 10
245.758713
 20
-212.730514
 30
0.0
 10
246.274079
 20
-212.605292
 30
0.0
 10
246.897141
 20
-212.353324
 30
0.0
 10
248.165109
 20
-211.709434
 30
0.0
 10
250.060711
 20
-215.372622
 30
0.0
 10
250.220731
 20
-215.602746
 30
0.0
 10
250.397261
 20
-215.744986
 30
0.0
 10
250.578363
 20
-215.817630
 30
0.0
 10
250.752861
 20
-215.837684
 30
0.0
 10
251.034801
 20
-215.790694
 30
0.0
 10
251.149609
 20
-215.743958
 30
0.0
 10
282.886150
 20
-199.337082
 30
0.0
 10
282.990290
 20
-199.270280
 30
0.0
 10
283.193490
 20
-199.067588
 30
0.0
 10
283.277310
 20
-198.913410
 30
0.0
 10
283.323030
 20
-198.723672
 30
0.0
 10
283.307790
 20
-198.497358
 30
0.0
 10
283.213810
 20
-198.234214
 30
0.0
 10
281.324050
 20
-194.584996
 30
0.0
 10
285.789370
 20
-192.307632
 30
0.0
 10
287.694370
 20
-195.985298
 30
0.0
 10
287.854390
 20
-196.215422
 30
0.0
 10
288.029650
 20
-196.357662
 30
0.0
 10
288.209990
 20
-196.430052
 30
0.0
 10
288.385250
 20
-196.450372
 30
0.0
 10
288.667190
 20
-196.403382
 30
0.0
 10
288.781490
 20
-196.356392
 30
0.0
 10
320.518790
 20
-179.949518
 30
0.0
 10
320.622930
 20
-179.882970
 30
0.0
 10
320.826130
 20
-179.680024
 30
0.0
 10
320.909950
 20
-179.526100
 30
0.0
 10
320.955670
 20
-179.336362
 30
0.0
 10
320.940430
 20
-179.110048
 30
0.0
 10
320.846450
 20
-178.846650
 30
0.0
 10
318.949070
 20
-175.183211
 30
0.0
 10
323.401690
 20
-172.877145
 30
0.0
 10
325.296530
 20
-176.540584
 30
0.0
 10
325.456550
 20
-176.770454
 30
0.0
 10
325.634350
 20
-176.912948
 30
0.0
 10
325.814690
 20
-176.985338
 30
0.0
 10
325.989950
 20
-177.005391
 30
0.0
 10
326.271890
 20
-176.958401
 30
0.0
 10
326.386190
 20
-176.911665
 30
0.0
 10
358.123465
 20
-160.504789
 30
0.0
 10
358.227605
 20
-160.438241
 30
0.0
 10
358.428265
 20
-160.235298
 30
0.0
 10
358.512085
 20
-160.081374
 30
0.0
 10
358.557805
 20
-159.891382
 30
0.0
 10
358.545105
 20
-159.665322
 30
0.0
 10
358.448585
 20
-159.401924
 30
0.0
 10
356.553745
 20
-155.736958
 30
0.0
 10
357.711985
 20
-155.136248
 30
0.0
 10
357.795805
 20
-155.074018
 30
0.0
 10
357.963445
 20
-154.890122
 30
0.0
 10
358.042185
 20
-154.754486
 30
0.0
 10
358.095525
 20
-154.590656
 30
0.0
 10
358.108225
 20
-154.399140
 30
0.0
 10
358.067585
 20
-154.180192
 30
0.0
 10
339.548470
 20
-97.200880
 30
0.0
 10
339.032850
 20
-95.854680
 30
0.0
 10
338.425790
 20
-94.614906
 30
0.0
 10
337.729830
 20
-93.474700
 30
0.0
 10
336.947510
 20
-92.430760
 30
0.0
 10
336.086450
 20
-91.480546
 30
0.0
 10
335.151730
 20
-90.624566
 30
0.0
 10
334.140810
 20
-89.854946
 30
0.0
 10
333.063850
 20
-89.171686
 30
0.0
 10
331.920850
 20
-88.572503
 30
0.0
 10
330.721970
 20
-88.051549
 30
0.0
 10
329.462130
 20
-87.609589
 30
0.0
 10
328.154030
 20
-87.239003
 30
0.0
 10
326.797670
 20
-86.939283
 30
0.0
 10
325.395590
 20
-86.708143
 30
0.0
 10
323.957950
 20
-86.542789
 30
0.0
 10
322.482210
 20
-86.438903
 30
0.0
 10
320.973450
 20
-86.400803
 30
0.0
 10
320.970808
 20
-82.275589
 30
0.0
 10
320.935248
 20
-81.997967
 30
0.0
 10
320.843808
 20
-81.790195
 30
0.0
 10
320.716808
 20
-81.642621
 30
0.0
 10
320.569488
 20
-81.544577
 30
0.0
 10
320.297708
 20
-81.456947
 30
0.0
 10
320.175788
 20
-81.445771
 30
0.0
 10
284.448148
 20
-81.453899
 30
0.0
 10
284.323688
 20
-81.464821
 30
0.0
 10
284.051908
 20
-81.552705
 30
0.0
 10
283.907128
 20
-81.650749
 30
0.0
 10
283.780128
 20
-81.798323
 30
0.0
 10
283.688688
 20
-82.005841
 30
0.0
 10
283.650588
 20
-82.283717
 30
0.0
 10
283.650588
 20
-86.411725
 30
0.0
 10
278.644248
 20
-86.443475
 30
0.0
 10
278.641607
 20
-82.315467
 30
0.0
 10
278.606047
 20
-82.037845
 30
0.0
 10
278.514607
 20
-81.830327
 30
0.0
 10
278.387607
 20
-81.682753
 30
0.0
 10
278.242827
 20
-81.584709
 30
0.0
 10
277.968507
 20
-81.496825
 30
0.0
 10
277.846587
 20
-81.485903
 30
0.0
 10
242.118947
 20
-81.493777
 30
0.0
 10
241.995503
 20
-81.504953
 30
0.0
 10
241.723469
 20
-81.592837
 30
0.0
 10
241.577927
 20
-81.690881
 30
0.0
 10
241.450165
 20
-81.838455
 30
0.0
 10
241.358979
 20
-82.045973
 30
0.0
 10
241.322403
 20
-82.323595
 30
0.0
 10
241.322403
 20
-86.451613
 30
0.0
 10
192.845436
 20
-86.413259
 30
0.0
 10
192.845182
 20
-82.285251
 30
0.0
 10
192.808860
 20
-82.007629
 30
0.0
 10
192.717674
 20
-81.800111
 30
0.0
 10
192.590166
 20
-81.652537
 30
0.0
 10
192.444370
 20
-81.554493
 30
0.0
 10
192.172336
 20
-81.466609
 30
0.0
 10
192.048892
 20
-81.455687
 30
0.0
 10
156.321498
 20
-81.463561
 30
0.0
 10
156.198054
 20
-81.474737
 30
0.0
 10
155.926020
 20
-81.562367
 30
0.0
 10
155.780478
 20
-81.660665
 30
0.0
 10
155.652716
 20
-81.808239
 30
0.0
 10
155.561530
 20
-82.015757
 30
0.0
 10
155.524954
 20
-82.293379
 30
0.0
 10
155.524954
 20
-86.421389
 30
0.0
 10
150.512264
 20
-86.413261
 30
0.0
 10
150.512264
 20
-82.285253
 30
0.0
 10
150.475688
 20
-82.007631
 30
0.0
 10
150.384502
 20
-81.800113
 30
0.0
 10
150.256994
 20
-81.652539
 30
0.0
 10
150.111198
 20
-81.554495
 30
0.0
 10
149.839164
 20
-81.466865
 30
0.0
 10
149.715720
 20
-81.455689
 30
0.0
 10
113.988337
 20
-81.463563
 30
0.0
 10
113.864893
 20
-81.474739
 30
0.0
 10
113.593113
 20
-81.562623
 30
0.0
 10
113.447317
 20
-81.660667
 30
0.0
 10
113.319555
 20
-81.808241
 30
0.0
 10
113.228369
 20
-82.015759
 30
0.0
 10
113.192047
 20
-82.293381
 30
0.0
 10
113.191793
 20
-86.421389
 30
0.0
 10
111.691161
 20
-86.453901
 30
0.0
 10
110.215421
 20
-86.558295
 30
0.0
 10
108.777781
 20
-86.723141
 30
0.0
 10
107.375701
 20
-86.954281
 30
0.0
 10
106.019341
 20
-87.254255
 30
0.0
 10
104.711241
 20
-87.625095
 30
0.0
 10
103.451401
 20
-88.066801
 30
0.0
 10
102.252521
 20
-88.587755
 30
0.0
 10
101.109518
 20
-89.186941
 30
0.0
 10
100.032558
 20
-89.870201
 30
0.0
 10
99.021638
 20
-90.640075
 30
0.0
 10
98.086918
 20
-91.496055
 30
0.0
 10
97.226112
 20
-92.446015
 30
0.0
 10
96.443538
 20
-93.489701
 30
0.0
 10
95.747578
 20
-94.630161
 30
0.0
 10
95.140772
 20
-95.869935
 30
0.0
 10
94.624898
 20
-97.215881
 30
0.0
 10
76.152497
 20
-154.058795
 30
0.0
 10
76.077313
 20
-154.337941
 30
0.0
 10
76.084171
 20
-154.577717
 30
0.0
 10
76.150973
 20
-154.778631
 30
0.0
 10
76.255367
 20
-154.941699
 30
0.0
 10
76.488539
 20
-155.155821
 30
0.0
 10
76.605887
 20
-155.226179
 30
0.0
 10
77.988152
 20
-155.939919
 30
0.0
 10
76.092807
 20
-159.603361
 30
0.0
 10
75.997557
 20
-159.866759
 30
0.0
 10
75.983079
 20
-160.093073
 30
0.0
 10
76.028545
 20
-160.282811
 30
0.0
 10
76.113127
 20
-160.436735
 30
0.0
 10
76.314295
 20
-160.639681
 30
0.0
 10
76.418943
 20
-160.706229
 30
0.0
 10
108.156243
 20
-177.113103
 30
0.0
 10
108.270797
 20
-177.160093
 30
0.0
 10
108.552737
 20
-177.207083
 30
0.0
 10
108.727235
 20
-177.186763
 30
0.0
 10
108.908591
 20
-177.114373
 30
0.0
 10
109.084867
 20
-176.971879
 30
0.0
 10
109.244887
 20
-176.742009
 30
0.0
 10
111.153443
 20
-173.049613
 30
0.0
 10
115.617241
 20
-175.326977
 30
0.0
  0
LWPOLYLINE
  5
101
100
AcDbEntity
  8
0
 62
7
100
AcDbPolyline
 90
128
 70
1
 10
243.184934
 20
-151.088019
 30
0.0
 10
242.960652
 20
-152.373259
 30
0.0
 10
242.674394
 20
-153.642751
 30
0.0
 10
242.326922
 20
-154.894717
 30
0.0
 10
241.919252
 20
-156.126871
 30
0.0
 10
241.452400
 20
-157.336673
 30
0.0
 10
240.926874
 20
-158.522599
 30
0.0
 10
240.343944
 20
-159.682109
 30
0.0
 10
239.704372
 20
-160.812917
 30
0.0
 10
239.009174
 20
-161.913245
 30
0.0
 10
238.258858
 20
-162.980299
 30
0.0
 10
237.454948
 20
-164.012555
 30
0.0
 10
236.597952
 20
-165.007473
 30
0.0
 10
235.688632
 20
-165.962767
 30
0.0
 10
234.733338
 20
-166.871833
 30
0.0
 10
233.738420
 20
-167.729083
 30
0.0
 10
232.706418
 20
-168.532993
 30
0.0
 10
231.639110
 20
-169.283055
 30
0.0
 10
230.539036
 20
-169.978507
 30
0.0
 10
229.407974
 20
-170.618079
 30
0.0
 10
228.248718
 20
-171.201009
 30
0.0
 10
227.062792
 20
-171.726281
 30
0.0
 10
225.852736
 20
-172.193387
 30
0.0
 10
224.620582
 20
-172.601057
 30
0.0
 10
223.368616
 20
-172.948529
 30
0.0
 10
222.099124
 20
-173.234787
 30
0.0
 10
220.814138
 20
-173.459069
 30
0.0
 10
219.515690
 20
-173.620105
 30
0.0
 10
218.206320
 20
-173.717641
 30
0.0
 10
216.887806
 20
-173.750407
 30
0.0
 10
215.569292
 20
-173.717641
 30
0.0
 10
214.259922
 20
-173.620105
 30
0.0
 10
212.961474
 20
-173.459069
 30
0.0
 10
211.676488
 20
-173.234787
 30
0.0
 10
210.406742
 20
-172.948529
 30
0.0
 10
209.154776
 20
-172.601057
 30
0.0
 10
207.922876
 20
-172.193387
 30
0.0
 10
206.712820
 20
-171.726281
 30
0.0
 10
205.526894
 20
-171.201009
 30
0.0
 10
204.367384
 20
-170.618079
 30
0.0
 10
203.236576
 20
-169.978507
 30
0.0
 10
202.136502
 20
-169.283055
 30
0.0
 10
201.069194
 20
-168.532993
 30
0.0
 10
200.037192
 20
-167.729083
 30
0.0
 10
199.042274
 20
-166.871833
 30
0.0
 10
198.086726
 20
-165.962767
 30
0.0
 10
197.177660
 20
-165.007473
 30
0.0
 10
196.320664
 20
-164.012555
 30
0.0
 10
195.516500
 20
-162.980299
 30
0.0
 10
194.766438
 20
-161.913245
 30
0.0
 10
194.070986
 20
-160.812917
 30
0.0
 10
193.431414
 20
-159.682109
 30
0.0
 10
192.848484
 20
-158.522599
 30
0.0
 10
192.323212
 20
-157.336673
 30
0.0
 10
191.856106
 20
-156.126871
 30
0.0
 10
191.448436
 20
-154.894717
 30
0.0
 10
191.101218
 20
-153.642751
 30
0.0
 10
190.814960
 20
-152.373259
 30
0.0
 10
190.590678
 20
-151.088019
 30
0.0
 10
190.429388
 20
-149.789825
 30
0.0
 10
190.331852
 20
-148.480201
 30
0.0
 10
190.299340
 20
-147.161687
 30
0.0
 10
190.331852
 20
-145.843427
 30
0.0
 10
190.429388
 20
-144.533803
 30
0.0
 10
190.590678
 20
-143.235355
 30
0.0
 10
190.814960
 20
-141.950369
 30
0.0
 10
191.101218
 20
-140.680877
 30
0.0
 10
191.448436
 20
-139.428911
 30
0.0
 10
191.856106
 20
-138.196757
 30
0.0
 10
192.323212
 20
-136.986701
 30
0.0
 10
192.848484
 20
-135.801029
 30
0.0
 10
193.431414
 20
-134.641519
 30
0.0
 10
194.070986
 20
-133.510711
 30
0.0
 10
194.766438
 20
-132.410383
 30
0.0
 10
195.516500
 20
-131.343329
 30
0.0
 10
196.320664
 20
-130.311073
 30
0.0
 10
197.177660
 20
-129.316155
 30
0.0
 10
198.086726
 20
-128.360861
 30
0.0
 10
199.042274
 20
-127.451795
 30
0.0
 10
200.037192
 20
-126.594545
 30
0.0
 10
201.069194
 20
-125.790635
 30
0.0
 10
202.136502
 20
-125.040573
 30
0.0
 10
203.236576
 20
-124.345121
 30
0.0
 10
204.367384
 20
-123.705549
 30
0.0
 10
205.526894
 20
-123.122619
 30
0.0
 10
206.712820
 20
-122.597093
 30
0.0
 10
207.922876
 20
-122.130241
 30
0.0
 10
209.154776
 20
-121.722571
 30
0.0
 10
210.406742
 20
-121.375099
 30
0.0
 10
211.676488
 20
-121.088841
 30
0.0
 10
212.961474
 20
-120.864559
 30
0.0
 10
214.259922
 20
-120.703269
 30
0.0
 10
215.569292
 20
-120.605987
 30
0.0
 10
216.887806
 20
-120.573221
 30
0.0
 10
218.206320
 20
-120.605987
 30
0.0
 10
219.515690
 20
-120.703269
 30
0.0
 10
220.814138
 20
-120.864559
 30
0.0
 10
222.099124
 20
-121.088841
 30
0.0
 10
223.368616
 20
-121.375099
 30
0.0
 10
224.620582
 20
-121.722571
 30
0.0
 10
225.852736
 20
-122.130241
 30
0.0
 10
227.062792
 20
-122.597093
 30
0.0
 10
228.248718
 20
-123.122619
 30
0.0
 10
229.407974
 20
-123.705549
 30
0.0
 10
230.539036
 20
-124.345121
 30
0.0
 10
231.639110
 20
-125.040573
 30
0.0
 10
232.706418
 20
-125.790635
 30
0.0
 10
233.738420
 20
-126.594545
 30
0.0
 10
234.733338
 20
-127.451795
 30
0.0
 10
235.688632
 20
-128.360861
 30
0.0
 10
236.597952
 20
-129.316155
 30
0.0
 10
237.454948
 20
-130.311073
 30
0.0
 10
238.258858
 20
-131.343329
 30
0.0
 10
239.009174
 20
-132.410383
 30
0.0
 10
239.704372
 20
-133.510711
 30
0.0
 10
240.343944
 20
-134.641519
 30
0.0
 10
240.926874
 20
-135.801029
 30
0.0
 10
241.452400
 20
-136.986701
 30
0.0
 10
241.919252
 20
-138.196757
 30
0.0
 10
242.326922
 20
-139.428911
 30
0.0
 10
242.674394
 20
-140.680877
 30
0.0
 10
242.960652
 20
-141.950369
 30
0.0
 10
243.184934
 20
-143.235355
 30
0.0
 10
243.346224
 20
-144.533803
 30
0.0
 10
243.443506
 20
-145.843427
 30
0.0
 10
243.476272
 20
-147.161687
 30
0.0
 10
243.443506
 20
-148.480201
 30
0.0
 10
243.346224
 20
-149.789825
 30
0.0
  0
LWPOLYLINE
  5
102
100
AcDbEntity
  8
0
 62
7
100
AcDbPolyline
 90
32
 70
1
 10
193.036190
 20
-156.942719
 30
0.0
 10
195.415662
 20
-161.394577
 30
0.0
 10
198.618094
 20
-165.296525
 30
0.0
 10
202.520042
 20
-168.498957
 30
0.0
 10
206.971900
 20
-170.878429
 30
0.0
 10
211.802472
 20
-172.343755
 30
0.0
 10
216.826084
 20
-172.838547
 30
0.0
 10
221.849696
 20
-172.343755
 30
0.0
 10
226.680014
 20
-170.878429
 30
0.0
 10
231.131872
 20
-168.498957
 30
0.0
 10
235.034074
 20
-165.296525
 30
0.0
 10
238.236252
 20
-161.394577
 30
0.0
 10
240.615978
 20
-156.942719
 30
0.0
 10
242.081304
 20
-152.112147
 30
0.0
 10
242.576096
 20
-147.088535
 30
0.0
 10
242.081304
 20
-142.064923
 30
0.0
 10
240.615978
 20
-137.234605
 30
0.0
 10
238.236252
 20
-132.782747
 30
0.0
 10
235.034074
 20
-128.880545
 30
0.0
 10
231.131872
 20
-125.678367
 30
0.0
 10
226.680014
 20
-123.298641
 30
0.0
 10
221.849696
 20
-121.833315
 30
0.0
 10
216.826084
 20
-121.338523
 30
0.0
 10
211.802472
 20
-121.833315
 30
0.0
 10
206.971900
 20
-123.298641
 30
0.0
 10
202.520042
 20
-125.678367
 30
0.0
 10
198.618094
 20
-128.880545
 30
0.0
 10
195.415662
 20
-132.782747
 30
0.0
 10
193.036190
 20
-137.234605
 30
0.0
 10
191.570864
 20
-142.064923
 30
0.0
 10
191.076072
 20
-147.088535
 30
0.0
 10
191.570864
 20
-152.112147
 30
0.0
  0
LWPOLYLINE
  5
103
100
AcDbEntity
  8
0
 62
7
100
AcDbPolyline
 90
32
 70
1
 10
197.232524
 20
-136.114211
 30
0.0
 10
197.353936
 20
-135.846495
 30
0.0
 10
197.525132
 20
-135.607481
 30
0.0
 10
197.740016
 20
-135.406313
 30
0.0
 10
197.989698
 20
-135.251119
 30
0.0
 10
198.264780
 20
-135.147487
 30
0.0
 10
198.554848
 20
-135.099735
 30
0.0
 10
198.848726
 20
-135.109133
 30
0.0
 10
199.135238
 20
-135.175935
 30
0.0
 10
199.402954
 20
-135.297347
 30
0.0
 10
199.641968
 20
-135.468797
 30
0.0
 10
199.843136
 20
-135.683427
 30
0.0
 10
199.998330
 20
-135.933109
 30
0.0
 10
200.101962
 20
-136.208191
 30
0.0
 10
200.149714
 20
-136.498259
 30
0.0
 10
200.140316
 20
-136.792137
 30
0.0
 10
200.073514
 20
-137.078649
 30
0.0
 10
199.952102
 20
-137.346365
 30
0.0
 10
199.780906
 20
-137.585379
 30
0.0
 10
199.566022
 20
-137.786547
 30
0.0
 10
199.316340
 20
-137.941741
 30
0.0
 10
199.041258
 20
-138.045373
 30
0.0
 10
198.751190
 20
-138.093125
 30
0.0
 10
198.457312
 20
-138.083473
 30
0.0
 10
198.170800
 20
-138.016925
 30
0.0
 10
197.903084
 20
-137.895513
 30
0.0
 10
197.664070
 20
-137.724063
 30
0.0
 10
197.463156
 20
-137.509687
 30
0.0
 10
197.307708
 20
-137.259751
 30
0.0
 10
197.204076
 20
-136.984669
 30
0.0
 10
197.156324
 20
-136.694601
 30
0.0
 10
197.165722
 20
-136.400723
 30
0.0
  0
LWPOLYLINE
  5
104
100
AcDbEntity
  8
0
 62
7
100
AcDbPolyline
 90
4
 70
1
 10
232.028746
 20
-148.149239
 30
0.0
 10
217.886788
 20
-162.291451
 30
0.0
 10
201.623168
 20
-146.027831
 30
0.0
 10
215.765380
 20
-131.885873
 30
0.0
  0
LWPOLYLINE
  5
105
100
AcDbEntity
  8
0
 62
7
100
AcDbPolyline
 90
32
 70
1
 10
215.440260
 20
-167.498959
 30
0.0
 10
215.578944
 20
-167.239625
 30
0.0
 10
215.765380
 20
-167.012295
 30
0.0
 10
215.992710
 20
-166.825859
 30
0.0
 10
216.252044
 20
-166.687175
 30
0.0
 10
216.533476
 20
-166.601831
 30
0.0
 10
216.826084
 20
-166.573129
 30
0.0
 10
217.118692
 20
-166.601831
 30
0.0
 10
217.400124
 20
-166.687175
 30
0.0
 10
217.659458
 20
-166.825859
 30
0.0
 10
217.886788
 20
-167.012295
 30
0.0
 10
218.073224
 20
-167.239625
 30
0.0
 10
218.211908
 20
-167.498959
 30
0.0
 10
218.297252
 20
-167.780391
 30
0.0
 10
218.325954
 20
-168.072999
 30
0.0
 10
218.297252
 20
-168.365607
 30
0.0
 10
218.211908
 20
-168.647039
 30
0.0
 10
218.073224
 20
-168.906373
 30
0.0
 10
217.886788
 20
-169.133703
 30
0.0
 10
217.659458
 20
-169.320139
 30
0.0
 10
217.400124
 20
-169.458823
 30
0.0
 10
217.118692
 20
-169.544167
 30
0.0
 10
216.826084
 20
-169.573123
 30
0.0
 10
216.533476
 20
-169.544167
 30
0.0
 10
216.252044
 20
-169.458823
 30
0.0
 10
215.992710
 20
-169.320139
 30
0.0
 10
215.765380
 20
-169.133703
 30
0.0
 10
215.578944
 20
-168.906373
 30
0.0
 10
215.440260
 20
-168.647039
 30
0.0
 10
215.354916
 20
-168.365607
 30
0.0
 10
215.325960
 20
-168.072999
 30
0.0
 10
215.354916
 20
-167.780391
 30
0.0
  0
LWPOLYLINE
  5
106
100
AcDbEntity
  8
0
 62
7
100
AcDbPolyline
 90
32
 70
1
 10
233.653838
 20
-135.933109
 30
0.0
 10
233.809032
 20
-135.683427
 30
0.0
 10
234.009946
 20
-135.468797
 30
0.0
 10
234.248960
 20
-135.297347
 30
0.0
 10
234.516930
 20
-135.175935
 30
0.0
 10
234.803188
 20
-135.109133
 30
0.0
 10
235.097066
 20
-135.099735
 30
0.0
 10
235.387134
 20
-135.147487
 30
0.0
 10
235.662470
 20
-135.251119
 30
0.0
 10
235.912152
 20
-135.406313
 30
0.0
 10
236.126782
 20
-135.607481
 30
0.0
 10
236.297978
 20
-135.846495
 30
0.0
 10
236.419390
 20
-136.114211
 30
0.0
 10
236.486192
 20
-136.400723
 30
0.0
 10
236.495844
 20
-136.694601
 30
0.0
 10
236.447838
 20
-136.984669
 30
0.0
 10
236.344206
 20
-137.259751
 30
0.0
 10
236.189012
 20
-137.509687
 30
0.0
 10
235.988098
 20
-137.724063
 30
0.0
 10
235.749084
 20
-137.895513
 30
0.0
 10
235.481114
 20
-138.016925
 30
0.0
 10
235.194856
 20
-138.083473
 30
0.0
 10
234.900978
 20
-138.093125
 30
0.0
 10
234.610910
 20
-138.045373
 30
0.0
 10
234.335574
 20
-137.941741
 30
0.0
 10
234.085892
 20
-137.786547
 30
0.0
 10
233.871262
 20
-137.585379
 30
0.0
 10
233.700066
 20
-137.346365
 30
0.0
 10
233.578654
 20
-137.078649
 30
0.0
 10
233.511852
 20
-136.792137
 30
0.0
 10
233.502200
 20
-136.498259
 30
0.0
 10
233.550206
 20
-136.208191
 30
0.0
  0
LWPOLYLINE
  5
107
100
AcDbEntity
  8
0
 62
7
100
AcDbPolyline
 90
4
 70
1
 10
282.153360
 20
-121.650689
 30
0.0
 10
277.827740
 20
-108.338549
 30
0.0
 10
264.515600
 20
-112.664169
 30
0.0
 10
268.841220
 20
-125.976309
 30
0.0
  0
LWPOLYLINE
  5
108
100
AcDbEntity
  8
0
 62
7
100
AcDbPolyline
 90
4
 70
1
 10
309.504080
 20
-127.827969
 30
0.0
 10
322.816220
 20
-123.502349
 30
0.0
 10
318.490600
 20
-110.190209
 30
0.0
 10
305.178460
 20
-114.515829
 30
0.0
  0
LWPOLYLINE
  5
109
100
AcDbEntity
  8
0
 62
7
100
AcDbPolyline
 90
4
 70
1
 10
332.000860
 20
-135.501309
 30
0.0
 10
345.313000
 20
-131.175689
 30
0.0
 10
340.987380
 20
-117.861009
 30
0.0
 10
327.675240
 20
-122.186629
 30
0.0
  0
LWPOLYLINE
  5
10a
100
AcDbEntity
  8
0
 62
7
100
AcDbPolyline
 90
4
 70
1
 10
285.559500
 20
-115.826469
 30
0.0
 10
289.885120
 20
-129.138609
 30
0.0
 10
303.197260
 20
-124.812989
 30
0.0
 10
298.874180
 20
-111.500849
 30
0.0
  0
LWPOLYLINE
  5
10b
100
AcDbEntity
  8
0
 62
7
100
AcDbPolyline
 90
4
 70
1
 10
334.578960
 20
-159.699889
 30
0.0
 10
330.253340
 20
-146.387749
 30
0.0
 10
316.938660
 20
-150.713623
 30
0.0
 10
321.264280
 20
-164.025763
 30
0.0
  0
LWPOLYLINE
  5
10c
100
AcDbEntity
  8
0
 62
7
100
AcDbPolyline
 90
4
 70
1
 10
297.276520
 20
-106.708123
 30
0.0
 10
292.950900
 20
-93.395729
 30
0.0
 10
279.638760
 20
-97.721349
 30
0.0
 10
283.964380
 20
-111.033489
 30
0.0
  0
LWPOLYLINE
  5
10d
100
AcDbEntity
  8
0
 62
7
100
AcDbPolyline
 90
4
 70
1
 10
304.756820
 20
-129.646609
 30
0.0
 10
291.442140
 20
-133.972483
 30
0.0
 10
295.767760
 20
-147.286909
 30
0.0
 10
309.082440
 20
-142.961289
 30
0.0
  0
LWPOLYLINE
  5
10e
100
AcDbEntity
  8
0
 62
7
100
AcDbPolyline
 90
4
 70
1
 10
299.275500
 20
-96.349749
 30
0.0
 10
303.601120
 20
-109.661889
 30
0.0
 10
316.913260
 20
-105.336269
 30
0.0
 10
312.587640
 20
-92.024129
 30
0.0
  0
LWPOLYLINE
  5
10f
100
AcDbEntity
  8
0
 62
7
100
AcDbPolyline
 90
4
 70
1
 10
274.711160
 20
-144.086509
 30
0.0
 10
288.025840
 20
-139.760889
 30
0.0
 10
283.700220
 20
-126.448749
 30
0.0
 10
270.385540
 20
-130.774369
 30
0.0
  0
LWPOLYLINE
  5
110
100
AcDbEntity
  8
0
 62
7
100
AcDbPolyline
 90
4
 70
1
 10
261.165340
 20
-118.744929
 30
0.0
 10
247.854216
 20
-123.070549
 30
0.0
 10
252.179836
 20
-136.385229
 30
0.0
 10
265.490960
 20
-132.059609
 30
0.0
  0
LWPOLYLINE
  5
111
100
AcDbEntity
  8
0
 62
7
100
AcDbPolyline
 90
4
 70
1
 10
238.100616
 20
-172.224629
 30
0.0
 10
246.721376
 20
-183.258389
 30
0.0
 10
257.754120
 20
-174.640169
 30
0.0
 10
249.134376
 20
-163.606409
 30
0.0
  0
LWPOLYLINE
  5
112
100
AcDbEntity
  8
0
 62
7
100
AcDbPolyline
 90
4
 70
1
 10
321.812920
 20
-104.061189
 30
0.0
 10
326.138540
 20
-117.375869
 30
0.0
 10
339.450680
 20
-113.050249
 30
0.0
 10
335.125060
 20
-99.735569
 30
0.0
  0
LWPOLYLINE
  5
113
100
AcDbEntity
  8
0
 62
7
100
AcDbPolyline
 90
4
 70
1
 10
228.954076
 20
-191.462589
 30
0.0
 10
237.574836
 20
-202.496349
 30
0.0
 10
248.608596
 20
-193.875589
 30
0.0
 10
239.987836
 20
-182.841829
 30
0.0
  0
LWPOLYLINE
  5
114
100
AcDbEntity
  8
0
 62
7
100
AcDbPolyline
 90
4
 70
1
 10
314.960000
 20
-161.053709
 30
0.0
 10
310.634380
 20
-147.741569
 30
0.0
 10
297.322240
 20
-152.067189
 30
0.0
 10
301.647860
 20
-165.379329
 30
0.0
  0
LWPOLYLINE
  5
115
100
AcDbEntity
  8
0
 62
7
100
AcDbPolyline
 90
4
 70
1
 10
277.266400
 20
-168.295249
 30
0.0
 10
272.940780
 20
-154.980569
 30
0.0
 10
259.626100
 20
-159.306189
 30
0.0
 10
263.951720
 20
-172.620869
 30
0.0
  0
LWPOLYLINE
  5
116
100
AcDbEntity
  8
0
 62
7
100
AcDbPolyline
 90
4
 70
1
 10
289.544760
 20
-144.564029
 30
0.0
 10
276.232620
 20
-148.889649
 30
0.0
 10
280.558240
 20
-162.204329
 30
0.0
 10
293.870380
 20
-157.878709
 30
0.0
  0
LWPOLYLINE
  5
117
100
AcDbEntity
  8
0
 62
7
100
AcDbPolyline
 90
4
 70
1
 10
269.476220
 20
-189.633789
 30
0.0
 10
260.855460
 20
-178.600029
 30
0.0
 10
249.822716
 20
-187.218249
 30
0.0
 10
258.442460
 20
-198.252009
 30
0.0
  0
LWPOLYLINE
  5
118
100
AcDbEntity
  8
0
 62
7
100
AcDbPolyline
 90
4
 70
1
 10
346.933520
 20
-135.999149
 30
0.0
 10
333.621380
 20
-140.324769
 30
0.0
 10
337.947000
 20
-153.639449
 30
0.0
 10
351.259140
 20
-149.313829
 30
0.0
  0
LWPOLYLINE
  5
119
100
AcDbEntity
  8
0
 62
7
100
AcDbPolyline
 90
4
 70
1
 10
324.393560
 20
-128.275009
 30
0.0
 10
311.081420
 20
-132.600629
 30
0.0
 10
315.407040
 20
-145.912769
 30
0.0
 10
328.719180
 20
-141.587403
 30
0.0
  0
LWPOLYLINE
  5
11a
100
AcDbEntity
  8
0
 62
7
100
AcDbPolyline
 90
4
 70
1
 10
271.414240
 20
-150.205369
 30
0.0
 10
267.088620
 20
-136.893229
 30
0.0
 10
253.777496
 20
-141.218849
 30
0.0
 10
258.102100
 20
-154.530989
 30
0.0
  0
LWPOLYLINE
  5
11b
100
AcDbEntity
  8
0
 62
7
100
AcDbPolyline
 90
4
 70
1
 10
165.332156
 20
-125.991549
 30
0.0
 10
152.019762
 20
-121.665929
 30
0.0
 10
156.345382
 20
-108.353789
 30
0.0
 10
169.657776
 20
-112.679409
 30
0.0
  0
LWPOLYLINE
  5
11c
100
AcDbEntity
  8
0
 62
7
100
AcDbPolyline
 90
4
 70
1
 10
124.669296
 20
-127.843209
 30
0.0
 10
111.357156
 20
-123.517589
 30
0.0
 10
115.682776
 20
-110.205449
 30
0.0
 10
128.994916
 20
-114.531069
 30
0.0
  0
LWPOLYLINE
  5
11d
100
AcDbEntity
  8
0
 62
7
100
AcDbPolyline
 90
4
 70
1
 10
102.172516
 20
-135.516549
 30
0.0
 10
88.860376
 20
-131.190929
 30
0.0
 10
93.185996
 20
-117.876249
 30
0.0
 10
106.498136
 20
-122.201869
 30
0.0
  0
LWPOLYLINE
  5
11e
100
AcDbEntity
  8
0
 62
7
100
AcDbPolyline
 90
4
 70
1
 10
148.613876
 20
-115.841709
 30
0.0
 10
144.288256
 20
-129.153849
 30
0.0
 10
130.976116
 20
-124.828229
 30
0.0
 10
135.299196
 20
-111.516089
 30
0.0
  0
LWPOLYLINE
  5
11f
100
AcDbEntity
  8
0
 62
7
100
AcDbPolyline
 90
4
 70
1
 10
99.594416
 20
-159.715129
 30
0.0
 10
103.920036
 20
-146.402989
 30
0.0
 10
117.234716
 20
-150.728609
 30
0.0
 10
112.909096
 20
-164.040749
 30
0.0
  0
LWPOLYLINE
  5
120
100
AcDbEntity
  8
0
 62
7
100
AcDbPolyline
 90
4
 70
1
 10
136.896856
 20
-106.723363
 30
0.0
 10
141.222222
 20
-93.410969
 30
0.0
 10
154.534616
 20
-97.736589
 30
0.0
 10
150.208996
 20
-111.048729
 30
0.0
  0
LWPOLYLINE
  5
121
100
AcDbEntity
  8
0
 62
7
100
AcDbPolyline
 90
4
 70
1
 10
129.416556
 20
-129.661849
 30
0.0
 10
142.731236
 20
-133.987469
 30
0.0
 10
138.405616
 20
-147.302149
 30
0.0
 10
125.090682
 20
-142.976529
 30
0.0
  0
LWPOLYLINE
  5
122
100
AcDbEntity
  8
0
 62
7
100
AcDbPolyline
 90
4
 70
1
 10
134.897876
 20
-96.364989
 30
0.0
 10
130.572256
 20
-109.677129
 30
0.0
 10
117.260116
 20
-105.351509
 30
0.0
 10
121.585736
 20
-92.039369
 30
0.0
  0
LWPOLYLINE
  5
123
100
AcDbEntity
  8
0
 62
7
100
AcDbPolyline
 90
4
 70
1
 10
159.462216
 20
-144.101749
 30
0.0
 10
146.147536
 20
-139.776129
 30
0.0
 10
150.473156
 20
-126.463989
 30
0.0
 10
163.787836
 20
-130.789609
 30
0.0
  0
LWPOLYLINE
  5
124
100
AcDbEntity
  8
0
 62
7
100
AcDbPolyline
 90
4
 70
1
 10
173.008036
 20
-118.760169
 30
0.0
 10
186.320176
 20
-123.085789
 30
0.0
 10
181.994556
 20
-136.400469
 30
0.0
 10
168.682416
 20
-132.074849
 30
0.0
  0
LWPOLYLINE
  5
125
100
AcDbEntity
  8
0
 62
7
100
AcDbPolyline
 90
4
 70
1
 10
196.073522
 20
-172.239869
 30
0.0
 10
187.453016
 20
-183.273629
 30
0.0
 10
176.419002
 20
-174.655409
 30
0.0
 10
185.040016
 20
-163.621649
 30
0.0
  0
LWPOLYLINE
  5
126
100
AcDbEntity
  8
0
 62
7
100
AcDbPolyline
 90
4
 70
1
 10
112.360456
 20
-104.076683
 30
0.0
 10
108.034836
 20
-117.391109
 30
0.0
 10
94.722696
 20
-113.065489
 30
0.0
 10
99.048316
 20
-99.750809
 30
0.0
  0
LWPOLYLINE
  5
127
100
AcDbEntity
  8
0
 62
7
100
AcDbPolyline
 90
4
 70
1
 10
205.220062
 20
-191.477829
 30
0.0
 10
196.599556
 20
-202.511589
 30
0.0
 10
185.565796
 20
-193.890829
 30
0.0
 10
194.186556
 20
-182.857069
 30
0.0
  0
LWPOLYLINE
  5
128
100
AcDbEntity
  8
0
 62
7
100
AcDbPolyline
 90
4
 70
1
 10
119.213376
 20
-161.068949
 30
0.0
 10
123.538996
 20
-147.756809
 30
0.0
 10
136.851136
 20
-152.082429
 30
0.0
 10
132.525516
 20
-165.394569
 30
0.0
  0
LWPOLYLINE
  5
129
100
AcDbEntity
  8
0
 62
7
100
AcDbPolyline
 90
4
 70
1
 10
156.906976
 20
-168.310489
 30
0.0
 10
161.232342
 20
-154.995809
 30
0.0
 10
174.547276
 20
-159.321429
 30
0.0
 10
170.221402
 20
-172.636109
 30
0.0
  0
LWPOLYLINE
  5
12a
100
AcDbEntity
  8
0
 62
7
100
AcDbPolyline
 90
4
 70
1
 10
144.628616
 20
-144.579269
 30
0.0
 10
157.940502
 20
-148.904889
 30
0.0
 10
153.615136
 20
-162.219569
 30
0.0
 10
140.302996
 20
-157.893949
 30
0.0
  0
LWPOLYLINE
  5
12b
100
AcDbEntity
  8
0
 62
7
100
AcDbPolyline
 90
4
 70
1
 10
164.697156
 20
-189.649029
 30
0.0
 10
173.317916
 20
-178.615269
 30
0.0
 10
184.351676
 20
-187.233489
 30
0.0
 10
175.730916
 20
-198.267249
 30
0.0
  0
LWPOLYLINE
  5
12c
100
AcDbEntity
  8
0
 62
7
100
AcDbPolyline
 90
4
 70
1
 10
87.239602
 20
-136.014389
 30
0.0
 10
100.551996
 20
-140.340009
 30
0.0
 10
96.226122
 20
-153.654689
 30
0.0
 10
82.914236
 20
-149.329069
 30
0.0
  0
LWPOLYLINE
  5
12d
100
AcDbEntity
  8
0
 62
7
100
AcDbPolyline
 90
4
 70
1
 10
109.779816
 20
-128.290249
 30
0.0
 10
123.091956
 20
-132.616123
 30
0.0
 10
118.766082
 20
-145.928009
 30
0.0
 10
105.454196
 20
-141.602389
 30
0.0
  0
LWPOLYLINE
  5
12e
100
AcDbEntity
  8
0
 62
7
100
AcDbPolyline
 90
4
 70
1
 10
162.759136
 20
-150.220609
 30
0.0
 10
167.084756
 20
-136.908469
 30
0.0
 10
180.396896
 20
-141.234089
 30
0.0
 10
176.071276
 20
-154.546229
 30
0.0
  0
LWPOLYLINE
  5
12f
100
AcDbEntity
  8
0
 62
7
100
AcDbPolyline
 90
4
 70
1
 10
207.498696
 20
-144.229003
 30
0.0
 10
218.954096
 20
-155.684403
 30
0.0
 10
225.387916
 20
-149.250583
 30
0.0
 10
213.932516
 20
-137.795183
 30
0.0
  0
LWPOLYLINE
  5
130
100
AcDbEntity
  8
0
 62
7
100
AcDbPolyline
 90
17
 70
1
 10
217.128598
 20
-155.843407
 30
0.0
 10
216.921842
 20
-155.704215
 30
0.0
 10
216.782650
 20
-155.497459
 30
0.0
 10
216.731596
 20
-155.244475
 30
0.0
 10
216.782650
 20
-154.991491
 30
0.0
 10
216.921842
 20
-154.784989
 30
0.0
 10
217.128598
 20
-154.645543
 30
0.0
 10
217.381582
 20
-154.594489
 30
0.0
 10
217.634566
 20
-154.645543
 30
0.0
 10
217.841068
 20
-154.784989
 30
0.0
 10
217.980514
 20
-154.991491
 30
0.0
 10
218.031568
 20
-155.244475
 30
0.0
 10
217.980514
 20
-155.497459
 30
0.0
 10
217.841068
 20
-155.704215
 30
0.0
 10
217.634566
 20
-155.843407
 30
0.0
 10
217.381582
 20
-155.894461
 30
0.0
 10
217.381582
 20
-155.894461
 30
0.0
  0
LWPOLYLINE
  5
131
100
AcDbEntity
  8
0
 62
7
100
AcDbPolyline
 90
17
 70
1
 10
215.869774
 20
-154.584837
 30
0.0
 10
215.663018
 20
-154.445645
 30
0.0
 10
215.523826
 20
-154.238889
 30
0.0
 10
215.472772
 20
-153.985905
 30
0.0
 10
215.523826
 20
-153.732921
 30
0.0
 10
215.663018
 20
-153.526419
 30
0.0
 10
215.869774
 20
-153.386973
 30
0.0
 10
216.122758
 20
-153.335919
 30
0.0
 10
216.375742
 20
-153.386973
 30
0.0
 10
216.582244
 20
-153.526419
 30
0.0
 10
216.721690
 20
-153.732921
 30
0.0
 10
216.772744
 20
-153.985905
 30
0.0
 10
216.721690
 20
-154.238889
 30
0.0
 10
216.582244
 20
-154.445645
 30
0.0
 10
216.375742
 20
-154.584837
 30
0.0
 10
216.122758
 20
-154.635891
 30
0.0
 10
216.122758
 20
-154.635891
 30
0.0
  0
LWPOLYLINE
  5
132
100
AcDbEntity
  8
0
 62
7
100
AcDbPolyline
 90
17
 70
1
 10
214.611204
 20
-153.326267
 30
0.0
 10
214.404448
 20
-153.187075
 30
0.0
 10
214.265256
 20
-152.980319
 30
0.0
 10
214.214202
 20
-152.727335
 30
0.0
 10
214.265256
 20
-152.474351
 30
0.0
 10
214.404448
 20
-152.267849
 30
0.0
 10
214.611204
 20
-152.128403
 30
0.0
 10
214.864188
 20
-152.077349
 30
0.0
 10
215.117172
 20
-152.128403
 30
0.0
 10
215.323674
 20
-152.267849
 30
0.0
 10
215.463120
 20
-152.474351
 30
0.0
 10
215.514174
 20
-152.727335
 30
0.0
 10
215.463120
 20
-152.980319
 30
0.0
 10
215.323674
 20
-153.187075
 30
0.0
 10
215.117172
 20
-153.326267
 30
0.0
 10
214.864188
 20
-153.377321
 30
0.0
 10
214.864188
 20
-153.377321
 30
0.0
  0
LWPOLYLINE
  5
133
100
AcDbEntity
  8
0
 62
7
100
AcDbPolyline
 90
17
 70
1
 10
213.352634
 20
-152.067443
 30
0.0
 10
213.145878
 20
-151.928251
 30
0.0
 10
213.006686
 20
-151.721495
 30
0.0
 10
212.955632
 20
-151.468511
 30
0.0
 10
213.006686
 20
-151.215527
 30
0.0
 10
213.145878
 20
-151.009025
 30
0.0
 10
213.352634
 20
-150.869579
 30
0.0
 10
213.605618
 20
-150.818525
 30
0.0
 10
213.858602
 20
-150.869579
 30
0.0
 10
214.065104
 20
-151.009025
 30
0.0
 10
214.204550
 20
-151.215527
 30
0.0
 10
214.255604
 20
-151.468511
 30
0.0
 10
214.204550
 20
-151.721495
 30
0.0
 10
214.065104
 20
-151.928251
 30
0.0
 10
213.858602
 20
-152.067443
 30
0.0
 10
213.605618
 20
-152.118497
 30
0.0
 10
213.605618
 20
-152.118497
 30
0.0
  0
LWPOLYLINE
  5
134
100
AcDbEntity
  8
0
 62
7
100
AcDbPolyline
 90
17
 70
1
 10
212.093810
 20
-150.808873
 30
0.0
 10
211.887054
 20
-150.669681
 30
0.0
 10
211.747862
 20
-150.462925
 30
0.0
 10
211.696808
 20
-150.209941
 30
0.0
 10
211.747862
 20
-149.956957
 30
0.0
 10
211.887054
 20
-149.750455
 30
0.0
 10
212.093810
 20
-149.611009
 30
0.0
 10
212.346794
 20
-149.559955
 30
0.0
 10
212.599778
 20
-149.611009
 30
0.0
 10
212.806280
 20
-149.750455
 30
0.0
 10
212.945726
 20
-149.956957
 30
0.0
 10
212.996780
 20
-150.209941
 30
0.0
 10
212.945726
 20
-150.462925
 30
0.0
 10
212.806280
 20
-150.669681
 30
0.0
 10
212.599778
 20
-150.808873
 30
0.0
 10
212.346794
 20
-150.859927
 30
0.0
 10
212.346794
 20
-150.859927
 30
0.0
  0
LWPOLYLINE
  5
135
100
AcDbEntity
  8
0
 62
7
100
AcDbPolyline
 90
17
 70
1
 10
210.835240
 20
-149.550303
 30
0.0
 10
210.628484
 20
-149.411111
 30
0.0
 10
210.489292
 20
-149.204355
 30
0.0
 10
210.438238
 20
-148.951371
 30
0.0
 10
210.489292
 20
-148.698387
 30
0.0
 10
210.628484
 20
-148.491885
 30
0.0
 10
210.835240
 20
-148.352439
 30
0.0
 10
211.088224
 20
-148.301385
 30
0.0
 10
211.341208
 20
-148.352439
 30
0.0
 10
211.547710
 20
-148.491885
 30
0.0
 10
211.687156
 20
-148.698387
 30
0.0
 10
211.738210
 20
-148.951371
 30
0.0
 10
211.687156
 20
-149.204355
 30
0.0
 10
211.547710
 20
-149.411111
 30
0.0
 10
211.341208
 20
-149.550303
 30
0.0
 10
211.088224
 20
-149.601357
 30
0.0
 10
211.088224
 20
-149.601357
 30
0.0
  0
LWPOLYLINE
  5
136
100
AcDbEntity
  8
0
 62
7
100
AcDbPolyline
 90
17
 70
1
 10
209.576670
 20
-148.291479
 30
0.0
 10
209.369914
 20
-148.152287
 30
0.0
 10
209.230722
 20
-147.945531
 30
0.0
 10
209.179668
 20
-147.692547
 30
0.0
 10
209.230722
 20
-147.439563
 30
0.0
 10
209.369914
 20
-147.233061
 30
0.0
 10
209.576670
 20
-147.093615
 30
0.0
 10
209.829654
 20
-147.042561
 30
0.0
 10
210.082638
 20
-147.093615
 30
0.0
 10
210.289140
 20
-147.233061
 30
0.0
 10
210.428586
 20
-147.439563
 30
0.0
 10
210.479640
 20
-147.692547
 30
0.0
 10
210.428586
 20
-147.945531
 30
0.0
 10
210.289140
 20
-148.152287
 30
0.0
 10
210.082638
 20
-148.291479
 30
0.0
 10
209.829654
 20
-148.342533
 30
0.0
 10
209.829654
 20
-148.342533
 30
0.0
  0
LWPOLYLINE
  5
137
100
AcDbEntity
  8
0
 62
7
100
AcDbPolyline
 90
17
 70
1
 10
208.317846
 20
-147.032909
 30
0.0
 10
208.111090
 20
-146.893717
 30
0.0
 10
207.971898
 20
-146.686961
 30
0.0
 10
207.920844
 20
-146.433977
 30
0.0
 10
207.971898
 20
-146.180993
 30
0.0
 10
208.111090
 20
-145.974491
 30
0.0
 10
208.317846
 20
-145.835045
 30
0.0
 10
208.570830
 20
-145.783991
 30
0.0
 10
208.823814
 20
-145.835045
 30
0.0
 10
209.030316
 20
-145.974491
 30
0.0
 10
209.169762
 20
-146.180993
 30
0.0
 10
209.220816
 20
-146.433977
 30
0.0
 10
209.169762
 20
-146.686961
 30
0.0
 10
209.030316
 20
-146.893717
 30
0.0
 10
208.823814
 20
-147.032909
 30
0.0
 10
208.570830
 20
-147.083963
 30
0.0
 10
208.570830
 20
-147.083963
 30
0.0
  0
LWPOLYLINE
  5
138
100
AcDbEntity
  8
0
 62
7
100
AcDbPolyline
 90
17
 70
1
 10
215.254586
 20
-138.837599
 30
0.0
 10
215.047830
 20
-138.698407
 30
0.0
 10
214.908638
 20
-138.491651
 30
0.0
 10
214.857584
 20
-138.238667
 30
0.0
 10
214.908638
 20
-137.985683
 30
0.0
 10
215.047830
 20
-137.779181
 30
0.0
 10
215.254586
 20
-137.639735
 30
0.0
 10
215.507570
 20
-137.588681
 30
0.0
 10
215.760554
 20
-137.639735
 30
0.0
 10
215.967056
 20
-137.779181
 30
0.0
 10
216.106502
 20
-137.985683
 30
0.0
 10
216.157556
 20
-138.238667
 30
0.0
 10
216.106502
 20
-138.491651
 30
0.0
 10
215.967056
 20
-138.698407
 30
0.0
 10
215.760554
 20
-138.837599
 30
0.0
 10
215.507570
 20
-138.888653
 30
0.0
 10
215.507570
 20
-138.888653
 30
0.0
  0
LWPOLYLINE
  5
139
100
AcDbEntity
  8
0
 62
7
100
AcDbPolyline
 90
17
 70
1
 10
216.513410
 20
-140.096169
 30
0.0
 10
216.306654
 20
-139.956977
 30
0.0
 10
216.167462
 20
-139.750221
 30
0.0
 10
216.116408
 20
-139.497237
 30
0.0
 10
216.167462
 20
-139.244253
 30
0.0
 10
216.306654
 20
-139.037751
 30
0.0
 10
216.513410
 20
-138.898305
 30
0.0
 10
216.766394
 20
-138.847251
 30
0.0
 10
217.019378
 20
-138.898305
 30
0.0
 10
217.225880
 20
-139.037751
 30
0.0
 10
217.365326
 20
-139.244253
 30
0.0
 10
217.416380
 20
-139.497237
 30
0.0
 10
217.365326
 20
-139.750221
 30
0.0
 10
217.225880
 20
-139.956977
 30
0.0
 10
217.019378
 20
-140.096169
 30
0.0
 10
216.766394
 20
-140.147223
 30
0.0
 10
216.766394
 20
-140.147223
 30
0.0
  0
LWPOLYLINE
  5
13a
100
AcDbEntity
  8
0
 62
7
100
AcDbPolyline
 90
17
 70
1
 10
217.771980
 20
-141.354993
 30
0.0
 10
217.565224
 20
-141.215801
 30
0.0
 10
217.426032
 20
-141.009045
 30
0.0
 10
217.374978
 20
-140.756061
 30
0.0
 10
217.426032
 20
-140.503077
 30
0.0
 10
217.565224
 20
-140.296575
 30
0.0
 10
217.771980
 20
-140.157129
 30
0.0
 10
218.024964
 20
-140.106075
 30
0.0
 10
218.277948
 20
-140.157129
 30
0.0
 10
218.484450
 20
-140.296575
 30
0.0
 10
218.623896
 20
-140.503077
 30
0.0
 10
218.674950
 20
-140.756061
 30
0.0
 10
218.623896
 20
-141.009045
 30
0.0
 10
218.484450
 20
-141.215801
 30
0.0
 10
218.277948
 20
-141.354993
 30
0.0
 10
218.024964
 20
-141.406047
 30
0.0
 10
218.024964
 20
-141.406047
 30
0.0
  0
LWPOLYLINE
  5
13b
100
AcDbEntity
  8
0
 62
7
100
AcDbPolyline
 90
17
 70
1
 10
219.030550
 20
-142.613563
 30
0.0
 10
218.823794
 20
-142.474371
 30
0.0
 10
218.684602
 20
-142.267615
 30
0.0
 10
218.633548
 20
-142.014631
 30
0.0
 10
218.684602
 20
-141.761647
 30
0.0
 10
218.823794
 20
-141.555145
 30
0.0
 10
219.030550
 20
-141.415699
 30
0.0
 10
219.283534
 20
-141.364645
 30
0.0
 10
219.536518
 20
-141.415699
 30
0.0
 10
219.743020
 20
-141.555145
 30
0.0
 10
219.882466
 20
-141.761647
 30
0.0
 10
219.933520
 20
-142.014631
 30
0.0
 10
219.882466
 20
-142.267615
 30
0.0
 10
219.743020
 20
-142.474371
 30
0.0
 10
219.536518
 20
-142.613563
 30
0.0
 10
219.283534
 20
-142.664617
 30
0.0
 10
219.283534
 20
-142.664617
 30
0.0
  0
LWPOLYLINE
  5
13c
100
AcDbEntity
  8
0
 62
7
100
AcDbPolyline
 90
17
 70
1
 10
220.289374
 20
-143.872133
 30
0.0
 10
220.082618
 20
-143.732941
 30
0.0
 10
219.943426
 20
-143.526185
 30
0.0
 10
219.892372
 20
-143.273201
 30
0.0
 10
219.943426
 20
-143.020217
 30
0.0
 10
220.082618
 20
-142.813715
 30
0.0
 10
220.289374
 20
-142.674269
 30
0.0
 10
220.542358
 20
-142.623215
 30
0.0
 10
220.795342
 20
-142.674269
 30
0.0
 10
221.001844
 20
-142.813715
 30
0.0
 10
221.141290
 20
-143.020217
 30
0.0
 10
221.192344
 20
-143.273201
 30
0.0
 10
221.141290
 20
-143.526185
 30
0.0
 10
221.001844
 20
-143.732941
 30
0.0
 10
220.795342
 20
-143.872133
 30
0.0
 10
220.542358
 20
-143.923187
 30
0.0
 10
220.542358
 20
-143.923187
 30
0.0
  0
LWPOLYLINE
  5
13d
100
AcDbEntity
  8
0
 62
7
100
AcDbPolyline
 90
17
 70
1
 10
221.547944
 20
-145.130703
 30
0.0
 10
221.341188
 20
-144.991511
 30
0.0
 10
221.201996
 20
-144.784755
 30
0.0
 10
221.150942
 20
-144.531771
 30
0.0
 10
221.201996
 20
-144.278787
 30
0.0
 10
221.341188
 20
-144.072285
 30
0.0
 10
221.547944
 20
-143.932839
 30
0.0
 10
221.800928
 20
-143.881785
 30
0.0
 10
222.053912
 20
-143.932839
 30
0.0
 10
222.260414
 20
-144.072285
 30
0.0
 10
222.399860
 20
-144.278787
 30
0.0
 10
222.450914
 20
-144.531771
 30
0.0
 10
222.399860
 20
-144.784755
 30
0.0
 10
222.260414
 20
-144.991511
 30
0.0
 10
222.053912
 20
-145.130703
 30
0.0
 10
221.800928
 20
-145.181757
 30
0.0
 10
221.800928
 20
-145.181757
 30
0.0
  0
LWPOLYLINE
  5
13e
100
AcDbEntity
  8
0
 62
7
100
AcDbPolyline
 90
17
 70
1
 10
222.806514
 20
-146.389527
 30
0.0
 10
222.599758
 20
-146.250335
 30
0.0
 10
222.460566
 20
-146.043579
 30
0.0
 10
222.409512
 20
-145.790595
 30
0.0
 10
222.460566
 20
-145.537611
 30
0.0
 10
222.599758
 20
-145.331109
 30
0.0
 10
222.806514
 20
-145.191663
 30
0.0
 10
223.059498
 20
-145.140609
 30
0.0
 10
223.312482
 20
-145.191663
 30
0.0
 10
223.518984
 20
-145.331109
 30
0.0
 10
223.658430
 20
-145.537611
 30
0.0
 10
223.709484
 20
-145.790595
 30
0.0
 10
223.658430
 20
-146.043579
 30
0.0
 10
223.518984
 20
-146.250335
 30
0.0
 10
223.312482
 20
-146.389527
 30
0.0
 10
223.059498
 20
-146.440581
 30
0.0
 10
223.059498
 20
-146.440581
 30
0.0
  0
LWPOLYLINE
  5
13f
100
AcDbEntity
  8
0
 62
7
100
AcDbPolyline
 90
17
 70
1
 10
224.065338
 20
-147.648097
 30
0.0
 10
223.858582
 20
-147.508905
 30
0.0
 10
223.719390
 20
-147.302149
 30
0.0
 10
223.668336
 20
-147.049165
 30
0.0
 10
223.719390
 20
-146.796181
 30
0.0
 10
223.858582
 20
-146.589679
 30
0.0
 10
224.065338
 20
-146.450233
 30
0.0
 10
224.318322
 20
-146.399179
 30
0.0
 10
224.571306
 20
-146.450233
 30
0.0
 10
224.777808
 20
-146.589679
 30
0.0
 10
224.917254
 20
-146.796181
 30
0.0
 10
224.968308
 20
-147.049165
 30
0.0
 10
224.917254
 20
-147.302149
 30
0.0
 10
224.777808
 20
-147.508905
 30
0.0
 10
224.571306
 20
-147.648097
 30
0.0
 10
224.318322
 20
-147.699151
 30
0.0
 10
224.318322
 20
-147.699151
 30
0.0
  0
ENDSEC
  0
SECTION
  2
OBJECTS
  0
DICTIONARY
  5
C
330
0
100
AcDbDictionary
  3
ACAD_GROUP
350
D
  3
ACAD_MLINESTYLE
350
17
  0
DICTIONARY
  5
D
330
C
100
AcDbDictionary
  0
DICTIONARY
  5
1A
330
C
100
AcDbDictionary
  0
DICTIONARY
  5
17
330
C
100
AcDbDictionary
  3
STANDARD
350
18
  0
DICTIONARY
  5
19
330
C
100
AcDbDictionary
  0
ENDSEC
  0
EOF
