<?xml version="1.0" encoding="UTF-8" standalone="no"?>
<svg
   xmlns:dc="http://purl.org/dc/elements/1.1/"
   xmlns:cc="http://creativecommons.org/ns#"
   xmlns:rdf="http://www.w3.org/1999/02/22-rdf-syntax-ns#"
   xmlns:svg="http://www.w3.org/2000/svg"
   xmlns="http://www.w3.org/2000/svg"
   xmlns:sodipodi="http://sodipodi.sourceforge.net/DTD/sodipodi-0.dtd"
   xmlns:inkscape="http://www.inkscape.org/namespaces/inkscape"
   inkscape:version="1.0 (4035a4fb49, 2020-05-01)"
   sodipodi:docname="trackball-cup.svg"
   id="svg6"
   version="1.1"
   viewBox="-27 -27 54 54"
   height="54mm"
   width="54mm">
  <metadata
     id="metadata12">
    <rdf:RDF>
      <cc:Work
         rdf:about="">
        <dc:format>image/svg+xml</dc:format>
        <dc:type
           rdf:resource="http://purl.org/dc/dcmitype/StillImage" />
      </cc:Work>
    </rdf:RDF>
  </metadata>
  <defs
     id="defs10" />
  <sodipodi:namedview
     inkscape:current-layer="svg6"
     inkscape:window-maximized="1"
     inkscape:window-y="-8"
     inkscape:window-x="-8"
     inkscape:cy="102.04724"
     inkscape:cx="102.04724"
     inkscape:zoom="4.2529321"
     showgrid="false"
     id="namedview8"
     inkscape:window-height="1017"
     inkscape:window-width="1920"
     inkscape:pageshadow="2"
     inkscape:pageopacity="0"
     guidetolerance="10"
     gridtolerance="10"
     objecttolerance="10"
     borderopacity="1"
     bordercolor="#666666"
     pagecolor="#ffffff" />
  <title
     id="title2">OpenSCAD Model</title>
  <path
     style="fill:none;stroke-width:0.1;stroke-miterlimit:4;stroke-dasharray:none"
     id="path4"
     stroke-width="0.5"
     fill="lightgray"
     stroke="black"
     d=" M -26.25,-0 L -26.1236,2.57295 L -25.7456,5.12112 L -25.1197,7.61997 L -24.2518,10.0454 L -23.1504,12.3742  L -21.8261,14.5837 L -20.2915,16.6528 L -18.5616,18.5616 L -16.6528,20.2915 L -14.5837,21.8261 L -12.3742,23.1504  L -10.0454,24.2518 L -7.61997,25.1197 L -5.12112,25.7456 L -2.57295,26.1236 L 0,26.25 L 2.57295,26.1236  L 5.12112,25.7456 L 7.61997,25.1197 L 10.0454,24.2518 L 12.3742,23.1504 L 14.5837,21.8261 L 16.6528,20.2915  L 18.5616,18.5616 L 20.2915,16.6528 L 21.8261,14.5837 L 23.1504,12.3742 L 24.2518,10.0454 L 25.1197,7.61997  L 25.7456,5.12112 L 26.1236,2.57295 L 26.25,-0 L 26.1236,-2.57295 L 25.7456,-5.12112 L 25.1197,-7.61997  L 24.2518,-10.0454 L 23.1504,-12.3742 L 21.8261,-14.5837 L 20.2915,-16.6528 L 18.5616,-18.5616 L 16.6528,-20.2915  L 14.5837,-21.8261 L 12.3742,-23.1504 L 10.0454,-24.2518 L 7.61997,-25.1197 L 5.12112,-25.7456 L 2.57295,-26.1236  L 0,-26.25 L -2.57295,-26.1236 L -5.12112,-25.7456 L -7.61997,-25.1197 L -10.0454,-24.2518 L -12.3742,-23.1504  L -14.5837,-21.8261 L -16.6528,-20.2915 L -18.5616,-18.5616 L -20.2915,-16.6528 L -21.8261,-14.5837 L -23.1504,-12.3742  L -24.2518,-10.0454 L -25.1197,-7.61997 L -25.7456,-5.12112 L -26.1236,-2.57295 z M -19.6722,-10.5413 L -19.6602,-10.688 L -19.6338,-10.8328 L -19.5934,-10.9743 L -19.5393,-11.1112 L -19.472,-11.2422  L -19.3923,-11.3659 L -19.3008,-11.4812 L -19.1984,-11.587 L -19.0861,-11.6822 L -18.9651,-11.766 L -18.8364,-11.8375  L -18.7014,-11.896 L -18.5612,-11.9411 L -18.4173,-11.9722 L -18.2711,-11.989 L -18.1239,-11.9914 L -17.9772,-11.9794  L -17.8324,-11.953 L -17.6908,-11.9126 L -17.5539,-11.8585 L -17.423,-11.7912 L -17.2993,-11.7115 L -17.184,-11.6199  L -17.0782,-11.5176 L -16.983,-11.4053 L -16.8992,-11.2843 L -16.8277,-11.1556 L -16.7691,-11.0206 L -16.7241,-10.8804  L -16.693,-10.7365 L -16.6762,-10.5903 L -16.6738,-10.4431 L -16.6858,-10.2964 L -16.7122,-10.1516 L -16.7526,-10.01  L -16.8067,-9.87313 L -16.874,-9.74219 L -16.9537,-9.61847 L -17.0452,-9.50317 L -17.1476,-9.39739 L -17.2599,-9.30216  L -17.3809,-9.21838 L -17.5096,-9.14688 L -17.6446,-9.08833 L -17.7848,-9.0433 L -17.9287,-9.01222 L -18.0749,-8.9954  L -18.2221,-8.99299 L -18.3688,-9.00502 L -18.5136,-9.03137 L -18.6552,-9.07179 L -18.7921,-9.12589 L -18.923,-9.19315  L -19.0467,-9.27292 L -19.162,-9.36443 L -19.2678,-9.4668 L -19.363,-9.57905 L -19.4468,-9.70009 L -19.5183,-9.82875  L -19.5769,-9.96381 L -19.6219,-10.104 L -19.653,-10.2478 L -19.6698,-10.3941 z M -14.7078,-0.919238 L -0.919238,-14.7078 L 14.7078,0.919238 L 0.919238,14.7078 z M -1.5,20.9844 L -1.49278,20.8373 L -1.47118,20.6917 L -1.43541,20.5489 L -1.38582,20.4103 L -1.32288,20.2773  L -1.2472,20.151 L -1.15952,20.0328 L -1.06066,19.9237 L -0.95159,19.8249 L -0.833355,19.7372 L -0.707094,19.6615  L -0.574024,19.5986 L -0.435427,19.549 L -0.292635,19.5132 L -0.147025,19.4916 L 0,19.4844 L 0.147025,19.4916  L 0.292635,19.5132 L 0.435427,19.549 L 0.574024,19.5986 L 0.707094,19.6615 L 0.833355,19.7372 L 0.95159,19.8249  L 1.06066,19.9237 L 1.15952,20.0328 L 1.2472,20.151 L 1.32288,20.2773 L 1.38582,20.4103 L 1.43541,20.5489  L 1.47118,20.6917 L 1.49278,20.8373 L 1.5,20.9844 L 1.49278,21.1314 L 1.47118,21.277 L 1.43541,21.4198  L 1.38582,21.5584 L 1.32288,21.6915 L 1.2472,21.8177 L 1.15952,21.936 L 1.06066,22.045 L 0.95159,22.1439  L 0.833355,22.2316 L 0.707094,22.3073 L 0.574024,22.3702 L 0.435427,22.4198 L 0.292635,22.4556 L 0.147025,22.4772  L 0,22.4844 L -0.147025,22.4772 L -0.292635,22.4556 L -0.435427,22.4198 L -0.574024,22.3702 L -0.707094,22.3073  L -0.833355,22.2316 L -0.95159,22.1439 L -1.06066,22.045 L -1.15952,21.936 L -1.2472,21.8177 L -1.32288,21.6915  L -1.38582,21.5584 L -1.43541,21.4198 L -1.47118,21.277 L -1.49278,21.1314 z M 16.6738,-10.4431 L 16.6762,-10.5903 L 16.693,-10.7365 L 16.7241,-10.8804 L 16.7691,-11.0206 L 16.8277,-11.1556  L 16.8992,-11.2843 L 16.983,-11.4053 L 17.0782,-11.5176 L 17.184,-11.6199 L 17.2993,-11.7115 L 17.423,-11.7912  L 17.5539,-11.8585 L 17.6908,-11.9126 L 17.8324,-11.953 L 17.9772,-11.9794 L 18.1239,-11.9914 L 18.2711,-11.989  L 18.4173,-11.9722 L 18.5612,-11.9411 L 18.7014,-11.896 L 18.8364,-11.8375 L 18.9651,-11.766 L 19.0861,-11.6822  L 19.1984,-11.587 L 19.3008,-11.4812 L 19.3923,-11.3659 L 19.472,-11.2422 L 19.5393,-11.1112 L 19.5934,-10.9743  L 19.6338,-10.8328 L 19.6602,-10.688 L 19.6722,-10.5413 L 19.6698,-10.3941 L 19.653,-10.2478 L 19.6219,-10.104  L 19.5769,-9.96381 L 19.5183,-9.82875 L 19.4468,-9.70009 L 19.363,-9.57905 L 19.2678,-9.4668 L 19.162,-9.36443  L 19.0467,-9.27292 L 18.923,-9.19315 L 18.7921,-9.12589 L 18.6552,-9.07179 L 18.5136,-9.03137 L 18.3688,-9.00502  L 18.2221,-8.99299 L 18.0749,-8.9954 L 17.9287,-9.01222 L 17.7848,-9.0433 L 17.6446,-9.08833 L 17.5096,-9.14688  L 17.3809,-9.21838 L 17.2599,-9.30216 L 17.1476,-9.39739 L 17.0452,-9.50317 L 16.9537,-9.61847 L 16.874,-9.74219  L 16.8067,-9.87313 L 16.7526,-10.01 L 16.7122,-10.1516 L 16.6858,-10.2964 z " />
</svg>
