  0
SECTION
  2
HEADER
  9
$ACADVER
  1
AC1014
  9
$HANDSEED
  5
FFFF
  9
$MEASUREMENT
 70
     1
  0
ENDSEC
  0
SECTION
  2
TABLES
  0
TABLE
  2
VPORT
  5
8
330
0
100
AcDbSymbolTable
 70
     4
  0
VPORT
  5
2E
330
8
100
AcDbSymbolTableRecord
100
AcDbViewportTableRecord
  2
*ACTIVE
 70
     0
 10
0.0
 20
0.0
 11
1.0
 21
1.0
 12
210.0
 22
148.5
 13
0.0
 23
0.0
 14
10.0
 24
10.0
 15
10.0
 25
10.0
 16
0.0
 26
0.0
 36
1.0
 17
0.0
 27
0.0
 37
0.0
 40
341.0
 41
1.24
 42
50.0
 43
0.0
 44
0.0
 50
0.0
 51
0.0
 71
     0
 72
   100
 73
     1
 74
     3
 75
     0
 76
     0
 77
     0
 78
     0
  0
ENDTAB
  0
TABLE
  2
LTYPE
  5
5
330
0
100
AcDbSymbolTable
 70
     1
  0
LTYPE
  5
14
330
5
100
AcDbSymbolTableRecord
100
AcDbLinetypeTableRecord
  2
BYBLOCK
 70
     0
  3

 72
    65
 73
     0
 40
0.0
  0
LTYPE
  5
15
330
5
100
AcDbSymbolTableRecord
100
AcDbLinetypeTableRecord
  2
BYLAYER
 70
     0
  3

 72
    65
 73
     0
 40
0.0
  0
LTYPE
  5
16
330
5
100
AcDbSymbolTableRecord
100
AcDbLinetypeTableRecord
  2
CONTINUOUS
 70
     0
  3
Solid line
 72
    65
 73
     0
 40
0.0
  0
ENDTAB
  0
TABLE
  2
LAYER
  5
2
100
AcDbSymbolTable
 70
1
  0
LAYER
  5
50
100
AcDbSymbolTableRecord
100
AcDbLayerTableRecord
  2
0
 70
0
  6
CONTINUOUS
  0
ENDTAB
  0
TABLE
  2
STYLE
  5
3
330
0
100
AcDbSymbolTable
 70
     1
  0
STYLE
  5
11
330
3
100
AcDbSymbolTableRecord
100
AcDbTextStyleTableRecord
  2
STANDARD
 70
     0
 40
0.0
 41
1.0
 50
0.0
 71
     0
 42
2.5
  3
txt
  4

  0
ENDTAB
  0
TABLE
  2
VIEW
  5
6
330
0
100
AcDbSymbolTable
 70
     0
  0
ENDTAB
  0
TABLE
  2
UCS
  5
7
330
0
100
AcDbSymbolTable
 70
     0
  0
ENDTAB
  0
TABLE
  2
APPID
  5
9
330
0
100
AcDbSymbolTable
 70
     2
  0
APPID
  5
12
330
9
100
AcDbSymbolTableRecord
100
AcDbRegAppTableRecord
  2
ACAD
 70
     0
  0
ENDTAB
  0
TABLE
  2
DIMSTYLE
  5
A
330
0
100
AcDbSymbolTable
 70
     1
  0
DIMSTYLE
105
27
330
A
100
AcDbSymbolTableRecord
100
AcDbDimStyleTableRecord
  2
ISO-25
 70
     0
  3

  4

  5

  6

  7

 40
1.0
 41
2.5
 42
0.625
 43
3.75
 44
1.25
 45
0.0
 46
0.0
 47
0.0
 48
0.0
140
2.5
141
2.5
142
0.0
143
0.03937007874016
144
1.0
145
0.0
146
1.0
147
0.625
 71
     0
 72
     0
 73
     0
 74
     0
 75
     0
 76
     0
 77
     1
 78
     8
170
     0
171
     3
172
     1
173
     0
174
     0
175
     0
176
     0
177
     0
178
     0
270
     2
271
     2
272
     2
273
     2
274
     3
340
11
275
     0
280
     0
281
     0
282
     0
283
     0
284
     8
285
     0
286
     0
287
     3
288
     0
  0
ENDTAB
  0
TABLE
  2
BLOCK_RECORD
  5
1
330
0
100
AcDbSymbolTable
 70
     1
  0
BLOCK_RECORD
  5
1F
330
1
100
AcDbSymbolTableRecord
100
AcDbBlockTableRecord
  2
*MODEL_SPACE
  0
BLOCK_RECORD
  5
1B
330
1
100
AcDbSymbolTableRecord
100
AcDbBlockTableRecord
  2
*PAPER_SPACE
  0
ENDTAB
  0
ENDSEC
  0
SECTION
  2
BLOCKS
  0
BLOCK
  5
20
330
1F
100
AcDbEntity
  8
0
100
AcDbBlockBegin
  2
*MODEL_SPACE
 70
     0
 10
0.0
 20
0.0
 30
0.0
  3
*MODEL_SPACE
  1

  0
ENDBLK
  5
21
330
1F
100
AcDbEntity
  8
0
100
AcDbBlockEnd
  0
BLOCK
  5
1C
330
1B
100
AcDbEntity
 67
     1
  8
0
100
AcDbBlockBegin
  2
*PAPER_SPACE
  1

  0
ENDBLK
  5
1D
330
1B
100
AcDbEntity
 67
     1
  8
0
100
AcDbBlockEnd
  0
ENDSEC
  0
SECTION
  2
ENTITIES
  0
LWPOLYLINE
  5
100
100
AcDbEntity
  8
0
 62
7
100
AcDbPolyline
 90
32
 70
1
 10
-25.750000
 20
52.000000
 30
0.0
 10
-25.255200
 20
46.976420
 30
0.0
 10
-23.789900
 20
42.145900
 30
0.0
 10
-21.410300
 20
37.694100
 30
0.0
 10
-18.208000
 20
33.792000
 30
0.0
 10
-14.305900
 20
30.589700
 30
0.0
 10
-9.854100
 20
28.210100
 30
0.0
 10
-5.023580
 20
26.744800
 30
0.0
 10
0.000000
 20
26.250000
 30
0.0
 10
5.023580
 20
26.744800
 30
0.0
 10
9.854100
 20
28.210100
 30
0.0
 10
14.305900
 20
30.589700
 30
0.0
 10
18.208000
 20
33.792000
 30
0.0
 10
21.410300
 20
37.694100
 30
0.0
 10
23.789900
 20
42.145900
 30
0.0
 10
25.255200
 20
46.976420
 30
0.0
 10
25.750000
 20
52.000000
 30
0.0
 10
25.255200
 20
57.023580
 30
0.0
 10
23.789900
 20
61.854100
 30
0.0
 10
21.410300
 20
66.305900
 30
0.0
 10
18.208000
 20
70.208000
 30
0.0
 10
14.305900
 20
73.410300
 30
0.0
 10
9.854100
 20
75.789900
 30
0.0
 10
5.023580
 20
77.255200
 30
0.0
 10
0.000000
 20
77.750000
 30
0.0
 10
-5.023580
 20
77.255200
 30
0.0
 10
-9.854100
 20
75.789900
 30
0.0
 10
-14.305900
 20
73.410300
 30
0.0
 10
-18.208000
 20
70.208000
 30
0.0
 10
-21.410300
 20
66.305900
 30
0.0
 10
-23.789900
 20
61.854100
 30
0.0
 10
-25.255200
 20
57.023580
 30
0.0
  0
LWPOLYLINE
  5
101
100
AcDbEntity
  8
0
 62
7
100
AcDbPolyline
 90
32
 70
1
 10
-19.669800
 20
62.394100
 30
0.0
 10
-19.660200
 20
62.688000
 30
0.0
 10
-19.593400
 20
62.974300
 30
0.0
 10
-19.472000
 20
63.242200
 30
0.0
 10
-19.300800
 20
63.481200
 30
0.0
 10
-19.086100
 20
63.682200
 30
0.0
 10
-18.836400
 20
63.837500
 30
0.0
 10
-18.561200
 20
63.941100
 30
0.0
 10
-18.271100
 20
63.989000
 30
0.0
 10
-17.977200
 20
63.979400
 30
0.0
 10
-17.690800
 20
63.912600
 30
0.0
 10
-17.423000
 20
63.791200
 30
0.0
 10
-17.184000
 20
63.619900
 30
0.0
 10
-16.983000
 20
63.405300
 30
0.0
 10
-16.827700
 20
63.155600
 30
0.0
 10
-16.724100
 20
62.880400
 30
0.0
 10
-16.676200
 20
62.590300
 30
0.0
 10
-16.685800
 20
62.296400
 30
0.0
 10
-16.752600
 20
62.010000
 30
0.0
 10
-16.874000
 20
61.742190
 30
0.0
 10
-17.045200
 20
61.503170
 30
0.0
 10
-17.259900
 20
61.302160
 30
0.0
 10
-17.509600
 20
61.146880
 30
0.0
 10
-17.784800
 20
61.043300
 30
0.0
 10
-18.074900
 20
60.995400
 30
0.0
 10
-18.368800
 20
61.005020
 30
0.0
 10
-18.655200
 20
61.071790
 30
0.0
 10
-18.923000
 20
61.193150
 30
0.0
 10
-19.162000
 20
61.364430
 30
0.0
 10
-19.363000
 20
61.579050
 30
0.0
 10
-19.518300
 20
61.828750
 30
0.0
 10
-19.621900
 20
62.104000
 30
0.0
  0
LWPOLYLINE
  5
102
100
AcDbEntity
  8
0
 62
7
100
AcDbPolyline
 90
4
 70
1
 10
-15.202800
 20
53.060660
 30
0.0
 10
-1.060660
 20
67.202800
 30
0.0
 10
15.202800
 20
50.939340
 30
0.0
 10
1.060660
 20
36.797200
 30
0.0
  0
LWPOLYLINE
  5
103
100
AcDbEntity
  8
0
 62
7
100
AcDbPolyline
 90
32
 70
1
 10
-1.500000
 20
31.015600
 30
0.0
 10
-1.471180
 20
31.308300
 30
0.0
 10
-1.385820
 20
31.589700
 30
0.0
 10
-1.247200
 20
31.849000
 30
0.0
 10
-1.060660
 20
32.076300
 30
0.0
 10
-0.833355
 20
32.262800
 30
0.0
 10
-0.574024
 20
32.401400
 30
0.0
 10
-0.292635
 20
32.486800
 30
0.0
 10
0.000000
 20
32.515600
 30
0.0
 10
0.292635
 20
32.486800
 30
0.0
 10
0.574024
 20
32.401400
 30
0.0
 10
0.833355
 20
32.262800
 30
0.0
 10
1.060660
 20
32.076300
 30
0.0
 10
1.247200
 20
31.849000
 30
0.0
 10
1.385820
 20
31.589700
 30
0.0
 10
1.471180
 20
31.308300
 30
0.0
 10
1.500000
 20
31.015600
 30
0.0
 10
1.471180
 20
30.723000
 30
0.0
 10
1.385820
 20
30.441600
 30
0.0
 10
1.247200
 20
30.182300
 30
0.0
 10
1.060660
 20
29.955000
 30
0.0
 10
0.833355
 20
29.768400
 30
0.0
 10
0.574024
 20
29.629800
 30
0.0
 10
0.292635
 20
29.544400
 30
0.0
 10
0.000000
 20
29.515600
 30
0.0
 10
-0.292635
 20
29.544400
 30
0.0
 10
-0.574024
 20
29.629800
 30
0.0
 10
-0.833355
 20
29.768400
 30
0.0
 10
-1.060660
 20
29.955000
 30
0.0
 10
-1.247200
 20
30.182300
 30
0.0
 10
-1.385820
 20
30.441600
 30
0.0
 10
-1.471180
 20
30.723000
 30
0.0
  0
LWPOLYLINE
  5
104
100
AcDbEntity
  8
0
 62
7
100
AcDbPolyline
 90
32
 70
1
 10
16.676200
 20
62.590300
 30
0.0
 10
16.724100
 20
62.880400
 30
0.0
 10
16.827700
 20
63.155600
 30
0.0
 10
16.983000
 20
63.405300
 30
0.0
 10
17.184000
 20
63.619900
 30
0.0
 10
17.423000
 20
63.791200
 30
0.0
 10
17.690800
 20
63.912600
 30
0.0
 10
17.977200
 20
63.979400
 30
0.0
 10
18.271100
 20
63.989000
 30
0.0
 10
18.561200
 20
63.941100
 30
0.0
 10
18.836400
 20
63.837500
 30
0.0
 10
19.086100
 20
63.682200
 30
0.0
 10
19.300800
 20
63.481200
 30
0.0
 10
19.472000
 20
63.242200
 30
0.0
 10
19.593400
 20
62.974300
 30
0.0
 10
19.660200
 20
62.688000
 30
0.0
 10
19.669800
 20
62.394100
 30
0.0
 10
19.621900
 20
62.104000
 30
0.0
 10
19.518300
 20
61.828750
 30
0.0
 10
19.363000
 20
61.579050
 30
0.0
 10
19.162000
 20
61.364430
 30
0.0
 10
18.923000
 20
61.193150
 30
0.0
 10
18.655200
 20
61.071790
 30
0.0
 10
18.368800
 20
61.005020
 30
0.0
 10
18.074900
 20
60.995400
 30
0.0
 10
17.784800
 20
61.043300
 30
0.0
 10
17.509600
 20
61.146880
 30
0.0
 10
17.259900
 20
61.302160
 30
0.0
 10
17.045200
 20
61.503170
 30
0.0
 10
16.874000
 20
61.742190
 30
0.0
 10
16.752600
 20
62.010000
 30
0.0
 10
16.685800
 20
62.296400
 30
0.0
  0
ENDSEC
  0
SECTION
  2
OBJECTS
  0
DICTIONARY
  5
C
330
0
100
AcDbDictionary
  3
ACAD_GROUP
350
D
  3
ACAD_MLINESTYLE
350
17
  0
DICTIONARY
  5
D
330
C
100
AcDbDictionary
  0
DICTIONARY
  5
1A
330
C
100
AcDbDictionary
  0
DICTIONARY
  5
17
330
C
100
AcDbDictionary
  3
STANDARD
350
18
  0
DICTIONARY
  5
19
330
C
100
AcDbDictionary
  0
ENDSEC
  0
EOF
