<?xml version="1.0" encoding="UTF-8" standalone="no"?>
<svg
   xmlns:dc="http://purl.org/dc/elements/1.1/"
   xmlns:cc="http://creativecommons.org/ns#"
   xmlns:rdf="http://www.w3.org/1999/02/22-rdf-syntax-ns#"
   xmlns:svg="http://www.w3.org/2000/svg"
   xmlns="http://www.w3.org/2000/svg"
   xmlns:sodipodi="http://sodipodi.sourceforge.net/DTD/sodipodi-0.dtd"
   xmlns:inkscape="http://www.inkscape.org/namespaces/inkscape"
   inkscape:version="1.0 (4035a4fb49, 2020-05-01)"
   sodipodi:docname="plate.svg"
   id="svg136"
   version="1.1"
   viewBox="0 0 420 297"
   height="297mm"
   width="420mm">
  <metadata
     id="metadata142">
    <rdf:RDF>
      <cc:Work
         rdf:about="">
        <dc:format>image/svg+xml</dc:format>
        <dc:type
           rdf:resource="http://purl.org/dc/dcmitype/StillImage" />
        <dc:title />
      </cc:Work>
    </rdf:RDF>
  </metadata>
  <defs
     id="defs140">
    <inkscape:path-effect
       hide_knots="false"
       only_selected="false"
       apply_with_radius="true"
       apply_no_radius="true"
       use_knot_distance="true"
       flexible="false"
       chamfer_steps="10"
       radius="1"
       mode="F"
       method="auto"
       unit="mm"
       satellites_param="F,0,0,1,0,3.7795276,0,10 @ F,0,0,1,0,3.7795276,0,10 @ F,0,0,1,0,3.7795276,0,10 @ F,0,0,1,0,3.7795276,0,10"
       lpeversion="1"
       is_visible="true"
       id="path-effect7140"
       effect="fillet_chamfer" />
    <inkscape:path-effect
       hide_knots="false"
       only_selected="false"
       apply_with_radius="true"
       apply_no_radius="true"
       use_knot_distance="true"
       flexible="false"
       chamfer_steps="10"
       radius="1"
       mode="F"
       method="auto"
       unit="mm"
       satellites_param="F,0,0,1,0,3.7795276,0,10 @ F,0,0,1,0,3.7795276,0,10 @ F,0,0,1,0,3.7795276,0,10 @ F,0,0,1,0,3.7795276,0,10"
       lpeversion="1"
       is_visible="true"
       id="path-effect6021"
       effect="fillet_chamfer" />
    <inkscape:path-effect
       effect="fillet_chamfer"
       id="path-effect5962"
       is_visible="true"
       lpeversion="1"
       satellites_param="F,0,0,1,0,3.7795276,0,10 @ F,0,0,1,0,3.7795276,0,10 @ F,0,0,1,0,3.7795276,0,10 @ F,0,0,1,0,3.7795276,0,10"
       unit="mm"
       method="auto"
       mode="F"
       radius="1"
       chamfer_steps="10"
       flexible="false"
       use_knot_distance="true"
       apply_no_radius="true"
       apply_with_radius="true"
       only_selected="false"
       hide_knots="false" />
    <inkscape:path-effect
       effect="fillet_chamfer"
       id="path-effect5903"
       is_visible="true"
       lpeversion="1"
       satellites_param="F,0,0,1,0,0,0,10 @ F,0,0,1,0,0,0,10 @ F,0,0,1,0,0,0,10 @ F,0,0,1,0,0,0,10"
       unit="cm"
       method="auto"
       mode="F"
       radius="10"
       chamfer_steps="100"
       flexible="false"
       use_knot_distance="true"
       apply_no_radius="false"
       apply_with_radius="false"
       only_selected="false"
       hide_knots="false" />
    <inkscape:path-effect
       effect="fillet_chamfer"
       id="path-effect5901"
       is_visible="true"
       lpeversion="1"
       satellites_param="F,0,1,1,0,2.0670573,0,10 @ F,0,1,1,0,2.0670573,0,10 @ F,0,0,1,0,0,0,10 @ F,0,0,1,0,0,0,10"
       unit="mm"
       method="auto"
       mode="C"
       radius="10"
       chamfer_steps="10"
       flexible="false"
       use_knot_distance="true"
       apply_no_radius="true"
       apply_with_radius="true"
       only_selected="true"
       hide_knots="false" />
    <inkscape:path-effect
       effect="fillet_chamfer"
       id="path-effect5885"
       is_visible="true"
       lpeversion="1"
       satellites_param="F,0,0,1,0,0,0,10 @ F,0,0,1,0,0,0,10 @ F,0,0,1,0,0,0,10 @ F,0,0,1,0,0,0,10"
       unit="mm"
       method="auto"
       mode="F"
       radius="0"
       chamfer_steps="2"
       flexible="false"
       use_knot_distance="true"
       apply_no_radius="true"
       apply_with_radius="true"
       only_selected="true"
       hide_knots="false" />
    <inkscape:path-effect
       effect="fillet_chamfer"
       id="path-effect5883"
       is_visible="true"
       lpeversion="1"
       satellites_param="F,0,0,1,0,0,0,10 @ F,0,0,1,0,0,0,10 @ F,0,0,1,0,0,0,10 @ F,0,0,1,0,0,0,10"
       unit="cm"
       method="auto"
       mode="F"
       radius="42"
       chamfer_steps="10"
       flexible="false"
       use_knot_distance="true"
       apply_no_radius="true"
       apply_with_radius="true"
       only_selected="true"
       hide_knots="false" />
    <inkscape:path-effect
       effect="fillet_chamfer"
       id="path-effect5881"
       is_visible="true"
       lpeversion="1"
       satellites_param="F,0,0,1,0,0,0,10 @ F,0,0,1,0,0,0,10 @ F,0,0,1,0,0,0,10 @ F,0,0,1,0,0,0,10"
       unit="mm"
       method="auto"
       mode="F"
       radius="6"
       chamfer_steps="32"
       flexible="false"
       use_knot_distance="true"
       apply_no_radius="true"
       apply_with_radius="true"
       only_selected="true"
       hide_knots="false" />
    <inkscape:path-effect
       effect="fillet_chamfer"
       id="path-effect5879"
       is_visible="true"
       lpeversion="1"
       satellites_param="F,0,0,1,0,0,0,10 @ F,0,0,1,0,0,0,10 @ F,0,0,1,0,0,0,10 @ F,0,0,1,0,0,0,10"
       unit="mm"
       method="auto"
       mode="F"
       radius="1.6"
       chamfer_steps="100"
       flexible="false"
       use_knot_distance="true"
       apply_no_radius="true"
       apply_with_radius="true"
       only_selected="true"
       hide_knots="false" />
  </defs>
  <sodipodi:namedview
     inkscape:current-layer="layer2"
     inkscape:window-maximized="1"
     inkscape:window-y="-8"
     inkscape:window-x="-8"
     inkscape:cy="347.03304"
     inkscape:cx="265.52656"
     inkscape:zoom="0.97386364"
     showgrid="false"
     id="namedview138"
     inkscape:window-height="1009"
     inkscape:window-width="1920"
     inkscape:pageshadow="2"
     inkscape:pageopacity="0"
     guidetolerance="10"
     gridtolerance="10"
     objecttolerance="10"
     borderopacity="1"
     bordercolor="#666666"
     pagecolor="#ffffff"
     inkscape:document-rotation="0" />
  <g
     inkscape:groupmode="layer"
     id="layer1"
     inkscape:label="original"
     style="display:none">
    <polygon
       points="184.582,85.196 182.857,85.196 182.857,84.275 179.557,84.275 179.557,85.196 177.832,85.196 177.832,88.426 176.307,88.426 176.307,83.726 162.307,83.726 162.307,88.426 160.782,88.426 160.782,85.196 159.057,85.196 159.057,84.275 155.757,84.275 155.757,85.196 154.032,85.196 154.032,88.426 153.207,88.426 153.207,91.226 154.032,91.226 154.032,97.495 155.757,97.495 155.757,98.476 159.057,98.476 159.057,97.495 160.782,97.495 160.782,93.025 162.307,93.025 162.307,97.726 176.307,97.726 176.307,93.025 177.832,93.025 177.832,97.495 179.557,97.495 179.557,98.476 182.857,98.476 182.857,97.495 184.582,97.495 184.582,91.226 185.407,91.226 185.407,88.426 184.582,88.426 "
       style="fill:none;stroke:#0000ff;stroke-width:0.05mm;stroke-opacity:1"
       id="polygon4" />
    <polygon
       points="113.144,85.196 111.419,85.196 111.419,84.275 108.119,84.275 108.119,85.196 106.394,85.196 106.394,88.426 104.869,88.426 104.869,83.726 90.869,83.726 90.869,88.426 89.344,88.426 89.344,85.196 87.619,85.196 87.619,84.275 84.319,84.275 84.319,85.196 82.594,85.196 82.594,88.426 81.769,88.426 81.769,91.226 82.594,91.226 82.594,97.495 84.319,97.495 84.319,98.476 87.619,98.476 87.619,97.495 89.344,97.495 89.344,93.025 90.869,93.025 90.869,97.726 104.869,97.726 104.869,93.025 106.394,93.025 106.394,97.495 108.119,97.495 108.119,98.476 111.419,98.476 111.419,97.495 113.144,97.495 113.144,91.226 113.969,91.226 113.969,88.426 113.144,88.426 "
       style="fill:none;stroke:#0000ff;stroke-width:0.05mm;stroke-opacity:1"
       id="polygon6" />
    <polygon
       points="331.088,83.726 317.088,83.726 317.088,97.726 331.088,97.726 "
       style="fill:none;stroke:#0000ff;stroke-width:0.05mm;stroke-opacity:1"
       id="polygon8" />
    <polygon
       points="312.038,83.726 298.038,83.726 298.038,97.726 312.038,97.726 "
       style="fill:none;stroke:#0000ff;stroke-width:0.05mm;stroke-opacity:1"
       id="polygon10" />
    <polygon
       points="292.988,83.726 278.988,83.726 278.988,97.726 292.988,97.726 "
       style="fill:none;stroke:#0000ff;stroke-width:0.05mm;stroke-opacity:1"
       id="polygon12" />
    <polygon
       points="262.032,83.726 248.032,83.726 248.032,97.726 262.032,97.726 "
       style="fill:none;stroke:#0000ff;stroke-width:0.05mm;stroke-opacity:1"
       id="polygon14" />
    <polygon
       points="238.219,83.726 224.219,83.726 224.219,97.726 238.219,97.726 "
       style="fill:none;stroke:#0000ff;stroke-width:0.05mm;stroke-opacity:1"
       id="polygon16" />
    <polygon
       points="214.407,83.726 200.407,83.726 200.407,97.726 214.407,97.726 "
       style="fill:none;stroke:#0000ff;stroke-width:0.05mm;stroke-opacity:1"
       id="polygon18" />
    <polygon
       points="138.207,83.726 124.207,83.726 124.207,97.726 138.207,97.726 "
       style="fill:none;stroke:#0000ff;stroke-width:0.05mm;stroke-opacity:1"
       id="polygon20" />
    <polygon
       points="71.532,83.726 57.532,83.726 57.532,97.726 71.532,97.726 "
       style="fill:none;stroke:#0000ff;stroke-width:0.05mm;stroke-opacity:1"
       id="polygon22" />
    <polygon
       points="47.719,83.726 33.719,83.726 33.719,97.726 47.719,97.726 "
       style="fill:none;stroke:#0000ff;stroke-width:0.05mm;stroke-opacity:1"
       id="polygon24" />
    <polygon
       points="23.907,83.726 9.907,83.726 9.907,97.726 23.907,97.726 "
       style="fill:none;stroke:#0000ff;stroke-width:0.05mm;stroke-opacity:1"
       id="polygon26" />
    <polygon
       points="279.832,66.146 278.107,66.146 278.107,65.225 274.807,65.225 274.807,66.146 273.082,66.146 273.082,69.376 271.557,69.376 271.557,64.676 257.556,64.676 257.556,69.376 256.032,69.376 256.032,66.146 254.307,66.146 254.307,65.225 251.007,65.225 251.007,66.146 249.282,66.146 249.282,69.376 248.457,69.376 248.457,72.176 249.282,72.176 249.282,78.446 251.007,78.446 251.007,79.426 254.307,79.426 254.307,78.446 256.032,78.446 256.032,73.976 257.556,73.976 257.556,78.676 271.557,78.676 271.557,73.976 273.082,73.976 273.082,78.446 274.807,78.446 274.807,79.426 278.107,79.426 278.107,78.446 279.832,78.446 279.832,72.176 280.657,72.176 280.657,69.376 279.832,69.376 "
       style="fill:none;stroke:#0000ff;stroke-width:0.05mm;stroke-opacity:1"
       id="polygon28" />
    <polygon
       points="41.707,66.146 39.982,66.146 39.982,65.225 36.682,65.225 36.682,66.146 34.957,66.146 34.957,69.376 33.432,69.376 33.432,64.676 19.432,64.676 19.432,69.376 17.907,69.376 17.907,66.146 16.182,66.146 16.182,65.225 12.882,65.225 12.882,66.146 11.157,66.146 11.157,69.376 10.332,69.376 10.332,72.176 11.157,72.176 11.157,78.446 12.882,78.446 12.882,79.426 16.182,79.426 16.182,78.446 17.907,78.446 17.907,73.976 19.432,73.976 19.432,78.676 33.432,78.676 33.432,73.976 34.957,73.976 34.957,78.446 36.682,78.446 36.682,79.426 39.982,79.426 39.982,78.446 41.707,78.446 41.707,72.176 42.532,72.176 42.532,69.376 41.707,69.376 "
       style="fill:none;stroke:#0000ff;stroke-width:0.05mm;stroke-opacity:1"
       id="polygon30" />
    <polygon
       points="312.038,64.676 298.038,64.676 298.038,78.676 312.038,78.676 "
       style="fill:none;stroke:#0000ff;stroke-width:0.05mm;stroke-opacity:1"
       id="polygon32" />
    <polygon
       points="235.838,64.676 221.838,64.676 221.838,78.676 235.838,78.676 "
       style="fill:none;stroke:#0000ff;stroke-width:0.05mm;stroke-opacity:1"
       id="polygon34" />
    <polygon
       points="216.788,64.676 202.788,64.676 202.788,78.676 216.788,78.676 "
       style="fill:none;stroke:#0000ff;stroke-width:0.05mm;stroke-opacity:1"
       id="polygon36" />
    <polygon
       points="197.738,64.676 183.738,64.676 183.738,78.676 197.738,78.676 "
       style="fill:none;stroke:#0000ff;stroke-width:0.05mm;stroke-opacity:1"
       id="polygon38" />
    <polygon
       points="178.688,64.676 164.688,64.676 164.688,78.676 178.688,78.676 "
       style="fill:none;stroke:#0000ff;stroke-width:0.05mm;stroke-opacity:1"
       id="polygon40" />
    <polygon
       points="159.638,64.676 145.638,64.676 145.638,78.676 159.638,78.676 "
       style="fill:none;stroke:#0000ff;stroke-width:0.05mm;stroke-opacity:1"
       id="polygon42" />
    <polygon
       points="140.588,64.676 126.588,64.676 126.588,78.676 140.588,78.676 "
       style="fill:none;stroke:#0000ff;stroke-width:0.05mm;stroke-opacity:1"
       id="polygon44" />
    <polygon
       points="121.538,64.676 107.538,64.676 107.538,78.676 121.538,78.676 "
       style="fill:none;stroke:#0000ff;stroke-width:0.05mm;stroke-opacity:1"
       id="polygon46" />
    <polygon
       points="102.488,64.676 88.488,64.676 88.488,78.676 102.488,78.676 "
       style="fill:none;stroke:#0000ff;stroke-width:0.05mm;stroke-opacity:1"
       id="polygon48" />
    <polygon
       points="83.438,64.676 69.438,64.676 69.438,78.676 83.438,78.676 "
       style="fill:none;stroke:#0000ff;stroke-width:0.05mm;stroke-opacity:1"
       id="polygon50" />
    <polygon
       points="64.388,64.676 50.388,64.676 50.388,78.676 64.388,78.676 "
       style="fill:none;stroke:#0000ff;stroke-width:0.05mm;stroke-opacity:1"
       id="polygon52" />
    <polygon
       points="284.594,47.096 282.869,47.096 282.869,46.176 279.569,46.176 279.569,47.096 277.844,47.096 277.844,50.326 276.319,50.326 276.319,45.626 262.319,45.626 262.319,50.326 260.794,50.326 260.794,47.096 259.068,47.096 259.068,46.176 255.769,46.176 255.769,47.096 254.044,47.096 254.044,50.326 253.219,50.326 253.219,53.126 254.044,53.126 254.044,59.395 255.769,59.395 255.769,60.376 259.068,60.376 259.068,59.395 260.794,59.395 260.794,54.926 262.319,54.926 262.319,59.626 276.319,59.626 276.319,54.926 277.844,54.926 277.844,59.395 279.569,59.395 279.569,60.376 282.869,60.376 282.869,59.395 284.594,59.395 284.594,53.126 285.419,53.126 285.419,50.326 284.594,50.326 "
       style="fill:none;stroke:#0000ff;stroke-width:0.05mm;stroke-opacity:1"
       id="polygon54" />
    <polygon
       points="245.363,45.626 231.363,45.626 231.363,59.626 245.363,59.626 "
       style="fill:none;stroke:#0000ff;stroke-width:0.05mm;stroke-opacity:1"
       id="polygon56" />
    <polygon
       points="226.313,45.626 212.313,45.626 212.313,59.626 226.313,59.626 "
       style="fill:none;stroke:#0000ff;stroke-width:0.05mm;stroke-opacity:1"
       id="polygon58" />
    <polygon
       points="207.263,45.626 193.263,45.626 193.263,59.626 207.263,59.626 "
       style="fill:none;stroke:#0000ff;stroke-width:0.05mm;stroke-opacity:1"
       id="polygon60" />
    <polygon
       points="188.213,45.626 174.213,45.626 174.213,59.626 188.213,59.626 "
       style="fill:none;stroke:#0000ff;stroke-width:0.05mm;stroke-opacity:1"
       id="polygon62" />
    <polygon
       points="169.163,45.626 155.163,45.626 155.163,59.626 169.163,59.626 "
       style="fill:none;stroke:#0000ff;stroke-width:0.05mm;stroke-opacity:1"
       id="polygon64" />
    <polygon
       points="150.113,45.626 136.113,45.626 136.113,59.626 150.113,59.626 "
       style="fill:none;stroke:#0000ff;stroke-width:0.05mm;stroke-opacity:1"
       id="polygon66" />
    <polygon
       points="131.063,45.626 117.063,45.626 117.063,59.626 131.063,59.626 "
       style="fill:none;stroke:#0000ff;stroke-width:0.05mm;stroke-opacity:1"
       id="polygon68" />
    <polygon
       points="112.013,45.626 98.013,45.626 98.013,59.626 112.013,59.626 "
       style="fill:none;stroke:#0000ff;stroke-width:0.05mm;stroke-opacity:1"
       id="polygon70" />
    <polygon
       points="92.963,45.626 78.963,45.626 78.963,59.626 92.963,59.626 "
       style="fill:none;stroke:#0000ff;stroke-width:0.05mm;stroke-opacity:1"
       id="polygon72" />
    <polygon
       points="73.913,45.626 59.913,45.626 59.913,59.626 73.913,59.626 "
       style="fill:none;stroke:#0000ff;stroke-width:0.05mm;stroke-opacity:1"
       id="polygon74" />
    <polygon
       points="54.863,45.626 40.863,45.626 40.863,59.626 54.863,59.626 "
       style="fill:none;stroke:#0000ff;stroke-width:0.05mm;stroke-opacity:1"
       id="polygon76" />
    <polygon
       points="28.669,45.626 14.669,45.626 14.669,59.626 28.669,59.626 "
       style="fill:none;stroke:#0000ff;stroke-width:0.05mm;stroke-opacity:1"
       id="polygon78" />
    <polygon
       points="283.463,26.576 269.463,26.576 269.463,40.576 283.463,40.576 "
       style="fill:none;stroke:#0000ff;stroke-width:0.05mm;stroke-opacity:1"
       id="polygon80" />
    <polygon
       points="259.65,26.576 245.651,26.576 245.651,40.576 259.65,40.576 "
       style="fill:none;stroke:#0000ff;stroke-width:0.05mm;stroke-opacity:1"
       id="polygon82" />
    <polygon
       points="240.601,26.576 226.601,26.576 226.601,40.576 240.601,40.576 "
       style="fill:none;stroke:#0000ff;stroke-width:0.05mm;stroke-opacity:1"
       id="polygon84" />
    <polygon
       points="221.551,26.576 207.551,26.576 207.551,40.576 221.551,40.576 "
       style="fill:none;stroke:#0000ff;stroke-width:0.05mm;stroke-opacity:1"
       id="polygon86" />
    <polygon
       points="202.501,26.576 188.501,26.576 188.501,40.576 202.501,40.576 "
       style="fill:none;stroke:#0000ff;stroke-width:0.05mm;stroke-opacity:1"
       id="polygon88" />
    <polygon
       points="183.451,26.576 169.451,26.576 169.451,40.576 183.451,40.576 "
       style="fill:none;stroke:#0000ff;stroke-width:0.05mm;stroke-opacity:1"
       id="polygon90" />
    <polygon
       points="164.401,26.576 150.401,26.576 150.401,40.576 164.401,40.576 "
       style="fill:none;stroke:#0000ff;stroke-width:0.05mm;stroke-opacity:1"
       id="polygon92" />
    <polygon
       points="145.351,26.576 131.351,26.576 131.351,40.576 145.351,40.576 "
       style="fill:none;stroke:#0000ff;stroke-width:0.05mm;stroke-opacity:1"
       id="polygon94" />
    <polygon
       points="126.301,26.576 112.301,26.576 112.301,40.576 126.301,40.576 "
       style="fill:none;stroke:#0000ff;stroke-width:0.05mm;stroke-opacity:1"
       id="polygon96" />
    <polygon
       points="107.251,26.576 93.251,26.576 93.251,40.576 107.251,40.576 "
       style="fill:none;stroke:#0000ff;stroke-width:0.05mm;stroke-opacity:1"
       id="polygon98" />
    <polygon
       points="88.201,26.576 74.201,26.576 74.201,40.576 88.201,40.576 "
       style="fill:none;stroke:#0000ff;stroke-width:0.05mm;stroke-opacity:1"
       id="polygon100" />
    <polygon
       points="69.151,26.576 55.151,26.576 55.151,40.576 69.151,40.576 "
       style="fill:none;stroke:#0000ff;stroke-width:0.05mm;stroke-opacity:1"
       id="polygon102" />
    <polygon
       points="50.101,26.576 36.101,26.576 36.101,40.576 50.101,40.576 "
       style="fill:none;stroke:#0000ff;stroke-width:0.05mm;stroke-opacity:1"
       id="polygon104" />
    <polygon
       points="26.288,26.576 12.288,26.576 12.288,40.576 26.288,40.576 "
       style="fill:none;stroke:#0000ff;stroke-width:0.05mm;stroke-opacity:1"
       id="polygon106" />
    <polygon
       points="286.976,8.996 285.251,8.996 285.251,8.075 281.951,8.075 281.951,8.996 280.226,8.996 280.226,12.226 278.701,12.226 278.701,7.526 264.701,7.526 264.701,12.226 263.176,12.226 263.176,8.996 261.451,8.996 261.451,8.075 258.15,8.075 258.15,8.996 256.426,8.996 256.426,12.226 255.601,12.226 255.601,15.026 256.426,15.026 256.426,21.296 258.15,21.296 258.15,22.276 261.451,22.276 261.451,21.296 263.176,21.296 263.176,16.826 264.701,16.826 264.701,21.526 278.701,21.526 278.701,16.826 280.226,16.826 280.226,21.296 281.951,21.296 281.951,22.276 285.251,22.276 285.251,21.296 286.976,21.296 286.976,15.026 287.801,15.026 287.801,12.226 286.976,12.226 "
       style="fill:none;stroke:#0000ff;stroke-width:0.05mm;stroke-opacity:1"
       id="polygon108" />
    <polygon
       points="250.126,7.526 236.126,7.526 236.126,21.526 250.126,21.526 "
       style="fill:none;stroke:#0000ff;stroke-width:0.05mm;stroke-opacity:1"
       id="polygon110" />
    <polygon
       points="231.076,7.526 217.076,7.526 217.076,21.526 231.076,21.526 "
       style="fill:none;stroke:#0000ff;stroke-width:0.05mm;stroke-opacity:1"
       id="polygon112" />
    <polygon
       points="212.026,7.526 198.026,7.526 198.026,21.526 212.026,21.526 "
       style="fill:none;stroke:#0000ff;stroke-width:0.05mm;stroke-opacity:1"
       id="polygon114" />
    <polygon
       points="192.976,7.526 178.976,7.526 178.976,21.526 192.976,21.526 "
       style="fill:none;stroke:#0000ff;stroke-width:0.05mm;stroke-opacity:1"
       id="polygon116" />
    <polygon
       points="173.926,7.526 159.926,7.526 159.926,21.526 173.926,21.526 "
       style="fill:none;stroke:#0000ff;stroke-width:0.05mm;stroke-opacity:1"
       id="polygon118" />
    <polygon
       points="154.876,7.526 140.876,7.526 140.876,21.526 154.876,21.526 "
       style="fill:none;stroke:#0000ff;stroke-width:0.05mm;stroke-opacity:1"
       id="polygon120" />
    <polygon
       points="135.826,7.526 121.825,7.526 121.825,21.526 135.826,21.526 "
       style="fill:none;stroke:#0000ff;stroke-width:0.05mm;stroke-opacity:1"
       id="polygon122" />
    <polygon
       points="116.775,7.526 102.775,7.526 102.775,21.526 116.775,21.526 "
       style="fill:none;stroke:#0000ff;stroke-width:0.05mm;stroke-opacity:1"
       id="polygon124" />
    <polygon
       points="97.726,7.526 83.726,7.526 83.726,21.526 97.726,21.526 "
       style="fill:none;stroke:#0000ff;stroke-width:0.05mm;stroke-opacity:1"
       id="polygon126" />
    <polygon
       points="78.676,7.526 64.676,7.526 64.676,21.526 78.676,21.526 "
       style="fill:none;stroke:#0000ff;stroke-width:0.05mm;stroke-opacity:1"
       id="polygon128" />
    <polygon
       points="59.626,7.526 45.626,7.526 45.626,21.526 59.626,21.526 "
       style="fill:none;stroke:#0000ff;stroke-width:0.05mm;stroke-opacity:1"
       id="polygon130" />
    <polygon
       points="40.576,7.526 26.576,7.526 26.576,21.526 40.576,21.526 "
       style="fill:none;stroke:#0000ff;stroke-width:0.05mm;stroke-opacity:1"
       id="polygon132" />
    <polygon
       points="21.526,7.526 7.526,7.526 7.526,21.526 21.526,21.526 "
       style="fill:none;stroke:#0000ff;stroke-width:0.05mm;stroke-opacity:1"
       id="polygon134" />
    <polygon
       id="polygon4-0"
       style="fill:none;stroke:#0000ff;stroke-width:0.05mm;stroke-opacity:1"
       points="184.319,85.196 182.594,85.196 182.594,88.426 142.969,88.426 142.969,83.726 128.968,83.726 128.968,88.426 89.344,88.426 89.344,85.196 87.619,85.196 87.619,84.275 84.319,84.275 84.319,85.196 82.594,85.196 82.594,88.426 81.769,88.426 81.769,91.226 82.594,91.226 82.594,97.495 84.319,97.495 84.319,98.476 87.619,98.476 87.619,97.495 89.344,97.495 89.344,93.025 128.968,93.025 128.968,97.726 142.969,97.726 142.969,93.025 182.594,93.025 182.594,97.495 184.319,97.495 184.319,98.476 187.619,98.476 187.619,97.495 189.344,97.495 189.344,91.226 190.169,91.226 190.169,88.426 189.344,88.426 189.344,85.196 187.619,85.196 187.619,84.275 184.319,84.275 " />
    <polygon
       id="polygon50-5"
       style="fill:none;stroke:#0000ff;stroke-width:0.05mm;stroke-opacity:1"
       points="45.338,64.676 31.338,64.676 31.338,78.676 45.338,78.676 " />
    <polygon
       id="polygon52-9"
       style="fill:none;stroke:#0000ff;stroke-width:0.05mm;stroke-opacity:1"
       points="23.907,64.676 9.907,64.676 9.907,78.676 23.907,78.676 " />
    <polygon
       id="polygon78-2"
       style="fill:none;stroke:#0000ff;stroke-width:0.05mm;stroke-opacity:1"
       points="23.907,45.626 9.907,45.626 9.907,59.626 23.907,59.626 " />
    <polygon
       id="polygon54-4"
       style="fill:none;stroke:#0000ff;stroke-width:0.05mm;stroke-opacity:1"
       points="264.413,45.626 250.413,45.626 250.413,59.626 264.413,59.626 " />
    <polygon
       id="polygon80-8"
       style="fill:none;stroke:#0000ff;stroke-width:0.05mm;stroke-opacity:1"
       points="285.294,29.551 284.374,29.551 284.374,27.826 281.144,27.826 281.144,27.001 278.344,27.001 278.344,27.826 272.074,27.826 272.074,29.551 271.094,29.551 271.094,32.851 272.074,32.851 272.074,34.576 276.544,34.576 276.544,36.101 271.844,36.101 271.844,50.101 276.544,50.101 276.544,51.626 272.074,51.626 272.074,53.351 271.094,53.351 271.094,56.651 272.074,56.651 272.074,58.376 278.344,58.376 278.344,59.201 281.144,59.201 281.144,58.376 284.374,58.376 284.374,56.651 285.294,56.651 285.294,53.351 284.374,53.351 284.374,51.626 281.144,51.626 281.144,50.101 285.844,50.101 285.844,36.101 281.144,36.101 281.144,34.576 284.374,34.576 284.374,32.851 285.294,32.851 " />
    <polygon
       id="polygon26-0"
       style="fill:none;stroke:#0000ff;stroke-width:0.05mm;stroke-opacity:1"
       points="288.226,64.676 274.226,64.676 274.226,78.676 288.226,78.676 " />
    <polygon
       id="polygon28-5"
       style="fill:none;stroke:#0000ff;stroke-width:0.05mm;stroke-opacity:1"
       points="262.032,64.676 248.032,64.676 248.032,78.676 262.032,78.676 " />
    <polygon
       id="polygon108-97"
       style="fill:none;stroke:#0000ff;stroke-width:0.05mm;stroke-opacity:1"
       points="288.226,7.526 274.226,7.526 274.226,21.526 288.226,21.526 " />
    <polygon
       id="polygon110-8"
       style="fill:none;stroke:#0000ff;stroke-width:0.05mm;stroke-opacity:1"
       points="269.176,7.526 255.176,7.526 255.176,21.526 269.176,21.526 " />
    <polygon
       id="polygon32-5"
       style="fill:none;stroke:#0000ff;stroke-width:0.05mm;stroke-opacity:1"
       points="331.088,78.676 331.088,64.676 317.088,64.676 317.088,78.676 " />
    <path
       d="m 295.60067,61.340776 0.002,0.100298 0.1003,0.0024 h 37.8994 l 0.1003,-0.0024 0.002,-0.100298 V 23.441373 l -0.002,-0.1003 -0.1003,-0.0024 h -37.8994 l -0.1003,0.0024 -0.002,0.1003 z m 1.5524,-2.949702 0.002,-0.0736 0.005,-0.0734 0.009,-0.0731 0.0126,-0.0725 0.0162,-0.0719 0.0196,-0.0709 0.0231,-0.0699 0.0265,-0.0687 0.0298,-0.0673 0.0331,-0.0658 0.0363,-0.0641 0.0394,-0.0622 0.0424,-0.0601 0.0453,-0.0581 0.0481,-0.0557 0.0507,-0.0534 0.0534,-0.0507 0.0557,-0.0481 0.0581,-0.0453 0.0601,-0.0424 0.0622,-0.0394 0.0641,-0.0363 0.0658,-0.0331 0.0673,-0.0298 0.0687,-0.0265 0.0699,-0.0231 0.0709,-0.01961 0.0719,-0.01619 0.0725,-0.01259 0.0731,-0.009 0.0734,-0.0054 0.0736,-0.0019 0.0736,0.0019 0.0734,0.0054 0.0731,0.009 0.0725,0.01259 0.0719,0.01619 0.0709,0.01961 0.0699,0.0231 0.0687,0.0265 0.0673,0.0298 0.0658,0.0331 0.0641,0.0363 0.0622,0.0394 0.0601,0.0424 0.0581,0.0453 0.0557,0.0481 0.0534,0.0507 0.0507,0.0534 0.0481,0.0557 0.0453,0.0581 0.0424,0.0601 0.0394,0.0622 0.0363,0.0641 0.0331,0.0658 0.0298,0.0673 0.0265,0.0687 0.0231,0.0699 0.0196,0.0709 0.0162,0.0719 0.0126,0.0725 0.009,0.0731 0.005,0.0734 0.002,0.0736 -0.002,0.0736 -0.005,0.0734 -0.009,0.0731 -0.0126,0.0725 -0.0162,0.0719 -0.0196,0.0709 -0.0231,0.0699 -0.0265,0.0687 -0.0298,0.0673 -0.0331,0.0658 -0.0363,0.0641 -0.0394,0.0622 -0.0424,0.0601 -0.0453,0.0581 -0.0481,0.0557 -0.0507,0.0534 -0.0534,0.0507 -0.0557,0.0481 -0.0581,0.0453 -0.0601,0.0424 -0.0622,0.0394 -0.0641,0.0363 -0.0658,0.0331 -0.0673,0.0298 -0.0687,0.0265 -0.0699,0.0231 -0.0709,0.01961 -0.0719,0.01619 -0.0725,0.01259 -0.0731,0.009 -0.0734,0.0054 -0.0736,0.0019 -0.0736,-0.0019 -0.0734,-0.0054 -0.0731,-0.009 -0.0725,-0.01259 -0.0719,-0.01619 -0.0709,-0.01961 -0.0699,-0.0231 -0.0687,-0.0265 -0.0673,-0.0298 -0.0658,-0.0331 -0.0641,-0.0363 -0.0622,-0.0394 -0.0601,-0.0424 -0.0581,-0.0453 -0.0557,-0.0481 -0.0534,-0.0507 -0.0507,-0.0534 -0.0481,-0.0557 -0.0453,-0.0581 -0.0424,-0.0601 -0.0394,-0.0622 -0.0363,-0.0641 -0.0331,-0.0658 -0.0298,-0.0673 -0.0265,-0.0687 -0.0231,-0.0699 -0.0196,-0.0709 -0.0162,-0.0719 -0.0126,-0.0725 -0.009,-0.0731 -0.005,-0.0734 z m 0,-32.000001 0.002,-0.0736 0.005,-0.0734 0.009,-0.0731 0.0126,-0.0725 0.0162,-0.0719 0.0196,-0.0709 0.0231,-0.0699 0.0265,-0.0687 0.0298,-0.0673 0.0331,-0.0658 0.0363,-0.0641 0.0394,-0.0622 0.0424,-0.0601 0.0453,-0.0581 0.0481,-0.0557 0.0507,-0.0534 0.0534,-0.0507 0.0557,-0.0481 0.0581,-0.0453 0.0601,-0.0424 0.0622,-0.0394 0.0641,-0.0363 0.0658,-0.0331 0.0673,-0.0298 0.0687,-0.0265 0.0699,-0.0231 0.0709,-0.0196 0.0719,-0.0162 0.0725,-0.0126 0.0731,-0.009 0.0734,-0.0054 0.0736,-0.0018 0.0736,0.0018 0.0734,0.0054 0.0731,0.009 0.0725,0.0126 0.0719,0.0162 0.0709,0.0196 0.0699,0.0231 0.0687,0.0265 0.0673,0.0298 0.0658,0.0331 0.0641,0.0363 0.0622,0.0394 0.0601,0.0424 0.0581,0.0453 0.0557,0.0481 0.0534,0.0507 0.0507,0.0534 0.0481,0.0557 0.0453,0.0581 0.0424,0.0601 0.0394,0.0622 0.0363,0.0641 0.0331,0.0658 0.0298,0.0673 0.0265,0.0687 0.0231,0.0699 0.0196,0.0709 0.0162,0.0719 0.0126,0.0725 0.009,0.0731 0.005,0.0734 0.002,0.0736 -0.002,0.0736 -0.005,0.0734 -0.009,0.0731 -0.0126,0.0725 -0.0162,0.0719 -0.0196,0.0709 -0.0231,0.0699 -0.0265,0.0687 -0.0298,0.0673 -0.0331,0.0658 -0.0363,0.0641 -0.0394,0.0622 -0.0424,0.0601 -0.0453,0.0581 -0.0481,0.0557 -0.0507,0.0534 -0.0534,0.0507 -0.0557,0.0481 -0.0581,0.0453 -0.0601,0.0424 -0.0622,0.0394 -0.0641,0.0363 -0.0658,0.0331 -0.0673,0.0298 -0.0687,0.0265 -0.0699,0.0231 -0.0709,0.0196 -0.0719,0.0162 -0.0725,0.0126 -0.0731,0.009 -0.0734,0.0054 -0.0736,0.0018 -0.0736,-0.0018 -0.0734,-0.0054 -0.0731,-0.009 -0.0725,-0.0126 -0.0719,-0.0162 -0.0709,-0.0196 -0.0699,-0.0231 -0.0687,-0.0265 -0.0673,-0.0298 -0.0658,-0.0331 -0.0641,-0.0363 -0.0622,-0.0394 -0.0601,-0.0424 -0.0581,-0.0453 -0.0557,-0.0481 -0.0534,-0.0507 -0.0507,-0.0534 -0.0481,-0.0557 -0.0453,-0.0581 -0.0424,-0.0601 -0.0394,-0.0622 -0.0363,-0.0641 -0.0331,-0.0658 -0.0298,-0.0673 -0.0265,-0.0687 -0.0231,-0.0699 -0.0196,-0.0709 -0.0162,-0.0719 -0.0126,-0.0725 -0.009,-0.0731 -0.005,-0.0734 z m 7.75,27.050001 V 31.341073 h 19.5 v 22.100001 z m 24.25,4.95 0.002,-0.0736 0.005,-0.0734 0.009,-0.0731 0.0126,-0.0725 0.0162,-0.0719 0.0196,-0.0709 0.0231,-0.0699 0.0265,-0.0687 0.0298,-0.0673 0.0331,-0.0658 0.0363,-0.0641 0.0394,-0.0622 0.0424,-0.0601 0.0453,-0.0581 0.0481,-0.0557 0.0507,-0.0534 0.0534,-0.0507 0.0557,-0.0481 0.0581,-0.0453 0.0601,-0.0424 0.0622,-0.0394 0.0641,-0.0363 0.0658,-0.0331 0.0673,-0.0298 0.0687,-0.0265 0.0699,-0.0231 0.0709,-0.01961 0.0719,-0.01619 0.0725,-0.01259 0.0731,-0.009 0.0734,-0.0054 0.0736,-0.0019 0.0736,0.0019 0.0734,0.0054 0.0731,0.009 0.0725,0.01259 0.0719,0.01619 0.0709,0.01961 0.0699,0.0231 0.0687,0.0265 0.0673,0.0298 0.0658,0.0331 0.0641,0.0363 0.0622,0.0394 0.0601,0.0424 0.0581,0.0453 0.0557,0.0481 0.0534,0.0507 0.0507,0.0534 0.0481,0.0557 0.0453,0.0581 0.0424,0.0601 0.0394,0.0622 0.0363,0.0641 0.0331,0.0658 0.0298,0.0673 0.0265,0.0687 0.0231,0.0699 0.0196,0.0709 0.0162,0.0719 0.0126,0.0725 0.009,0.0731 0.005,0.0734 0.002,0.0736 -0.002,0.0736 -0.005,0.0734 -0.009,0.0731 -0.0126,0.0725 -0.0162,0.0719 -0.0196,0.0709 -0.0231,0.0699 -0.0265,0.0687 -0.0298,0.0673 -0.0331,0.0658 -0.0363,0.0641 -0.0394,0.0622 -0.0424,0.0601 -0.0453,0.0581 -0.0481,0.0557 -0.0507,0.0534 -0.0534,0.0507 -0.0557,0.0481 -0.0581,0.0453 -0.0601,0.0424 -0.0622,0.0394 -0.0641,0.0363 -0.0658,0.0331 -0.0673,0.0298 -0.0687,0.0265 -0.0699,0.0231 -0.0709,0.01961 -0.0719,0.01619 -0.0725,0.01259 -0.0731,0.009 -0.0734,0.0054 -0.0736,0.0019 -0.0736,-0.0019 -0.0734,-0.0054 -0.0731,-0.009 -0.0725,-0.01259 -0.0719,-0.01619 -0.0709,-0.01961 -0.0699,-0.0231 -0.0687,-0.0265 -0.0673,-0.0298 -0.0658,-0.0331 -0.0641,-0.0363 -0.0622,-0.0394 -0.0601,-0.0424 -0.0581,-0.0453 -0.0557,-0.0481 -0.0534,-0.0507 -0.0507,-0.0534 -0.0481,-0.0557 -0.0453,-0.0581 -0.0424,-0.0601 -0.0394,-0.0622 -0.0363,-0.0641 -0.0331,-0.0658 -0.0298,-0.0673 -0.0265,-0.0687 -0.0231,-0.0699 -0.0196,-0.0709 -0.0162,-0.0719 -0.0126,-0.0725 -0.009,-0.0731 -0.005,-0.0734 z m 0,-32.000001 0.002,-0.0736 0.005,-0.0734 0.009,-0.0731 0.0126,-0.0725 0.0162,-0.0719 0.0196,-0.0709 0.0231,-0.0699 0.0265,-0.0687 0.0298,-0.0673 0.0331,-0.0658 0.0363,-0.0641 0.0394,-0.0622 0.0424,-0.0601 0.0453,-0.0581 0.0481,-0.0557 0.0507,-0.0534 0.0534,-0.0507 0.0557,-0.0481 0.0581,-0.0453 0.0601,-0.0424 0.0622,-0.0394 0.0641,-0.0363 0.0658,-0.0331 0.0673,-0.0298 0.0687,-0.0265 0.0699,-0.0231 0.0709,-0.0196 0.0719,-0.0162 0.0725,-0.0126 0.0731,-0.009 0.0734,-0.0054 0.0736,-0.0018 0.0736,0.0018 0.0734,0.0054 0.0731,0.009 0.0725,0.0126 0.0719,0.0162 0.0709,0.0196 0.0699,0.0231 0.0687,0.0265 0.0673,0.0298 0.0658,0.0331 0.0641,0.0363 0.0622,0.0394 0.0601,0.0424 0.0581,0.0453 0.0557,0.0481 0.0534,0.0507 0.0507,0.0534 0.0481,0.0557 0.0453,0.0581 0.0424,0.0601 0.0394,0.0622 0.0363,0.0641 0.0331,0.0658 0.0298,0.0673 0.0265,0.0687 0.0231,0.0699 0.0196,0.0709 0.0162,0.0719 0.0126,0.0725 0.009,0.0731 0.005,0.0734 0.002,0.0736 -0.002,0.0736 -0.005,0.0734 -0.009,0.0731 -0.0126,0.0725 -0.0162,0.0719 -0.0196,0.0709 -0.0231,0.0699 -0.0265,0.0687 -0.0298,0.0673 -0.0331,0.0658 -0.0363,0.0641 -0.0394,0.0622 -0.0424,0.0601 -0.0453,0.0581 -0.0481,0.0557 -0.0507,0.0534 -0.0534,0.0507 -0.0557,0.0481 -0.0581,0.0453 -0.0601,0.0424 -0.0622,0.0394 -0.0641,0.0363 -0.0658,0.0331 -0.0673,0.0298 -0.0687,0.0265 -0.0699,0.0231 -0.0709,0.0196 -0.0719,0.0162 -0.0725,0.0126 -0.0731,0.009 -0.0734,0.0054 -0.0736,0.0018 -0.0736,-0.0018 -0.0734,-0.0054 -0.0731,-0.009 -0.0725,-0.0126 -0.0719,-0.0162 -0.0709,-0.0196 -0.0699,-0.0231 -0.0687,-0.0265 -0.0673,-0.0298 -0.0658,-0.0331 -0.0641,-0.0363 -0.0622,-0.0394 -0.0601,-0.0424 -0.0581,-0.0453 -0.0557,-0.0481 -0.0534,-0.0507 -0.0507,-0.0534 -0.0481,-0.0557 -0.0453,-0.0581 -0.0424,-0.0601 -0.0394,-0.0622 -0.0363,-0.0641 -0.0331,-0.0658 -0.0298,-0.0673 -0.0265,-0.0687 -0.0231,-0.0699 -0.0196,-0.0709 -0.0162,-0.0719 -0.0126,-0.0725 -0.009,-0.0731 -0.005,-0.0734 z"
       stroke="#000000"
       fill="lightgray"
       stroke-width="0.5"
       id="path4"
       style="display:inline;fill:none;stroke:#0000ff;stroke-width:0.1;stroke-miterlimit:4;stroke-dasharray:none;stroke-opacity:1" />
  </g>
  <g
     inkscape:groupmode="layer"
     id="layer2"
     inkscape:label="top plate"
     style="display:inline">
    <path
       d="m 330.646,59.4403 -0.408,-0.0825 -0.334,-0.2251 -0.225,-0.3337 -0.083,-0.4087 0.083,-0.4087 0.225,-0.3338 0.334,-0.225 0.408,-0.0825 0.409,0.0825 0.334,0.225 0.225,0.3338 0.082,0.4087 -0.082,0.4087 -0.225,0.3337 -0.334,0.2251 -0.409,0.0825 v 0 m -31.994,-0.0075 -0.409,-0.0825 -0.334,-0.2251 -0.225,-0.3337 -0.082,-0.4087 0.082,-0.4087 0.225,-0.3338 0.334,-0.225 0.409,-0.0825 0.408,0.0825 0.334,0.225 0.225,0.3338 0.083,0.4087 -0.083,0.4087 -0.225,0.3337 -0.334,0.2251 -0.408,0.0825 v 0 m 31.994,-31.9906 -0.408,-0.0825 -0.334,-0.2251 -0.225,-0.3337 -0.083,-0.4087 0.083,-0.4087 0.225,-0.3338 0.334,-0.225 0.408,-0.0825 0.409,0.0825 0.334,0.225 0.225,0.3338 0.082,0.4087 -0.082,0.4087 -0.225,0.3337 -0.334,0.2251 -0.409,0.0825 v 0 m -31.994,-0.0075 -0.409,-0.0825 -0.334,-0.2251 -0.225,-0.3337 -0.082,-0.4087 0.082,-0.4087 0.225,-0.3338 0.334,-0.225 0.409,-0.0825 0.408,0.0825 0.334,0.225 0.225,0.3338 0.083,0.4087 -0.083,0.4087 -0.225,0.3337 -0.334,0.2251 -0.408,0.0825 v 0 m -3.25,-4.2981 H 333.9 v 38.509 h -38.498 v -38.509 m 21.686,41.5394 v 14 h 14 v -14 h -14 m -150.253,38.184 -0.409,-0.082 -0.334,-0.225 -0.225,-0.334 -0.082,-0.409 0.082,-0.409 0.225,-0.333 0.334,-0.225 0.409,-0.083 0.409,0.083 0.333,0.225 0.225,0.333 0.083,0.409 -0.083,0.409 -0.225,0.334 -0.333,0.225 -0.409,0.082 v 0 m 0,-98.37539 -0.409,-0.08251 -0.334,-0.22502 -0.225,-0.33376 -0.082,-0.40871 0.082,-0.4087 0.225,-0.33376 0.334,-0.22502 0.409,-0.08252 0.409,0.08252 0.333,0.22502 0.225,0.33376 0.083,0.4087 -0.083,0.40871 -0.225,0.33376 -0.333,0.22502 -0.409,0.08251 v 0 M 3.11189,-0.656938 H 335.494 l 0.761,0.076786 0.71,0.220227 1.201,0.809984 0.81,1.201371 0.22,0.70945 0.077,0.76171 V 102.122 l -0.077,0.762 -0.22,0.709 -0.81,1.202 -1.201,0.81 -0.71,0.22 -0.761,0.077 H 3.11189 l -0.76171,-0.077 -0.70945,-0.22 -1.201372,-0.81 -0.809984,-1.202 -0.220227,-0.709 -0.076786,-0.762 V 3.12259 L -0.590853,2.36088 -0.370625,1.65143 0.439359,0.45006 1.64073,-0.359924 2.35018,-0.580151 3.11189,-0.656938 v 0 M 285.651,63.2271 l -0.409,-0.0825 -0.334,-0.225 -0.225,-0.3338 -0.082,-0.4087 0.082,-0.4087 0.225,-0.3338 0.334,-0.225 0.409,-0.0825 0.408,0.0825 0.334,0.225 0.225,0.3338 0.083,0.4087 -0.083,0.4087 -0.225,0.3338 -0.334,0.225 -0.408,0.0825 v 0 m -75.871,-19.017 -0.408,-0.0825 -0.334,-0.225 -0.225,-0.3337 -0.083,-0.4088 0.083,-0.4087 0.225,-0.3337 0.334,-0.225 0.408,-0.0826 0.409,0.0826 0.334,0.225 0.225,0.3337 0.082,0.4087 -0.082,0.4088 -0.225,0.3337 -0.334,0.225 -0.409,0.0825 v 0 m -76.199,19.017 -0.408,-0.0825 -0.334,-0.225 -0.225,-0.3338 -0.083,-0.4087 0.083,-0.4087 0.225,-0.3337 0.334,-0.2251 0.408,-0.0825 0.409,0.0825 0.334,0.2251 0.225,0.3337 0.082,0.4087 -0.082,0.4087 -0.225,0.3338 -0.334,0.225 -0.409,0.0825 v 0 M 52.6267,44.0918 52.218,44.0092 l -0.3338,-0.225 -0.225,-0.3337 -0.0825,-0.4087 0.0825,-0.4088 0.225,-0.3337 0.3338,-0.225 0.4087,-0.0825 0.4087,0.0825 0.3337,0.225 0.225,0.3337 0.0826,0.4088 -0.0826,0.4087 -0.225,0.3337 -0.3337,0.225 -0.4087,0.0826 v 0 m 200.0073,58.7682 -0.409,-0.082 -0.334,-0.225 -0.225,-0.334 -0.082,-0.409 0.082,-0.409 0.225,-0.333 0.334,-0.225 0.409,-0.083 0.409,0.083 0.333,0.225 0.225,0.333 0.083,0.409 -0.083,0.409 -0.225,0.334 -0.333,0.225 -0.409,0.082 v 0 m 0,-98.37539 -0.409,-0.08251 -0.334,-0.22503 -0.225,-0.33375 -0.082,-0.40871 0.082,-0.40871 0.225,-0.33375 0.334,-0.22502 0.409,-0.08252 0.409,0.08252 0.333,0.22502 0.225,0.33375 0.083,0.40871 -0.083,0.40871 -0.225,0.33375 -0.333,0.22503 -0.409,0.08251 v 0 M 81.2724,102.86 l -0.4087,-0.082 -0.3338,-0.225 -0.225,-0.334 -0.0825,-0.409 0.0825,-0.409 0.225,-0.333 0.3338,-0.225 0.4087,-0.083 0.4087,0.083 0.3338,0.225 0.225,0.333 0.0825,0.409 -0.0825,0.409 -0.225,0.334 -0.3338,0.225 -0.4087,0.082 v 0 m 0,-98.37539 L 80.8637,4.4021 80.5299,4.17707 80.3049,3.84332 80.2224,3.43461 80.3049,3.0259 l 0.225,-0.33375 0.3338,-0.22502 0.4087,-0.08252 0.4087,0.08252 0.3338,0.22502 0.225,0.33375 0.0825,0.40871 -0.0825,0.40871 -0.225,0.33375 -0.3338,0.22503 -0.4087,0.08251 v 0 M 335.185,102.86 l -0.409,-0.082 -0.333,-0.225 -0.225,-0.334 -0.083,-0.409 0.083,-0.409 0.225,-0.333 0.333,-0.225 0.409,-0.083 0.409,0.083 0.333,0.225 0.226,0.333 0.082,0.409 -0.082,0.409 -0.226,0.334 -0.333,0.225 -0.409,0.082 v 0 m 0,-98.37539 -0.409,-0.08251 -0.333,-0.22503 -0.225,-0.33375 -0.083,-0.40871 0.083,-0.40871 0.225,-0.33375 0.333,-0.22502 0.409,-0.08252 0.409,0.08252 0.333,0.22502 0.226,0.33375 0.082,0.40871 -0.082,0.40871 -0.226,0.33375 -0.333,0.22503 -0.409,0.08251 v 0 M 3.43002,102.86 l -0.4087,-0.082 -0.33376,-0.225 -0.22502,-0.334 -0.08252,-0.409 0.08252,-0.409 0.22502,-0.333 0.33376,-0.225 0.4087,-0.083 0.40871,0.083 0.33376,0.225 0.22502,0.333 0.08251,0.409 -0.08251,0.409 -0.22502,0.334 -0.33376,0.225 -0.40871,0.082 v 0 m 0,-98.37539 L 3.02132,4.40209 2.68756,4.17707 2.46254,3.84331 2.38002,3.43461 2.46254,3.0259 2.68756,2.69214 3.02132,2.46712 3.43002,2.38461 3.83873,2.46712 4.17249,2.69214 4.39751,3.0259 4.48002,3.43461 4.39751,3.84331 4.17249,4.17707 3.83873,4.40209 3.43002,4.48461 v 0 M 255.176,7.526 h 33.05 v 14 h -2.968 l -0.007,0.75 h -3.3 v -0.7497 h -20.496 l -0.004,0.7497 h -3.301 v -0.7455 l -2.974,-0.0045 v -14 m 29.198,27.05 v -6.75 l -0.911,0.0116 V 26.576 h -14 v 14 h 2.389 v 5.0481 l -21.439,0.0019 v 14 h 5.348 l 0.008,0.75 h 3.299 v -0.7497 l 20.496,-2e-4 0.005,0.7499 h 3.3 l 0.004,-0.7499 h 2.978 L 285.844,36.101 283.466,36.0964 V 34.576 h 0.908 m -6.264,44.1 h 10.116 v -14 h -16.669 -23.525 v 14 h 2.977 l -0.002,0.75 h 3.3 l 0.002,-0.75 h 20.498 v 0.75 h 3.3 l 0.003,-0.75 M 177.832,93.025 v 4.47 h 1.725 v 0.981 h 3.3 l 0.001,-0.981 h 1.455 l 0.006,0.981 h 3.3 v -0.981 h 1.725 v -6.269 h 0.825 v -2.8 h -0.825 v -3.23 h -11.512 v 3.23 h -1.525 v -4.7 h -14 v 4.7 h -1.525 v -3.23 h -6.75 v 3.23 h -0.825 v 2.8 h 0.825 v 6.269 h 1.725 v 0.981 h 3.3 v -0.981 h 1.725 v -4.47 h 1.525 v 4.701 h 14 v -4.701 h 1.525 m -53.625,-9.299 h 18.762 v 14 h -18.762 v -14 m -84.2247,-5.05 h 5.3557 v -14 H 9.907 v 14 h 2.974 l 10e-4,0.75 h 3.3 l 0.0066,-0.75 h 20.4939 l -5e-4,0.75 h 3.3 l 3e-4,-0.75 M 9.907,45.626 h 18.762 v 14 H 9.907 v -14 m -2.381,-24.1 h 14 v -14 h -14 v 14 m 19.05,0 h 14 v -14 h -14 v 14 m 19.05,0 h 14 v -14 h -14 v 14 m 19.05,0 h 14 v -14 h -14 v 14 m 19.05,0 h 14 v -14 h -14 v 14 m 19.049,0 h 14 v -14 h -14 v 14 m 19.05,0 h 14.001 v -14 h -14.001 v 14 m 19.051,0 h 14 v -14 h -14 v 14 m 19.05,0 h 14 v -14 h -14 v 14 m 19.05,0 h 14 v -14 h -14 v 14 m 19.05,0 h 14 v -14 h -14 v 14 m 19.05,0 h 14 v -14 h -14 v 14 m 19.05,0 h 14 v -14 h -14 v 14 M 12.288,40.576 h 14 v -14 h -14 v 14 m 23.813,0 h 14 v -14 h -14 v 14 m 19.05,0 h 14 v -14 h -14 v 14 m 19.05,0 h 14 v -14 h -14 v 14 m 19.05,0 h 14 v -14 h -14 v 14 m 19.05,0 h 14 v -14 h -14 v 14 m 19.05,0 h 14 v -14 h -14 v 14 m 19.05,0 h 14 v -14 h -14 v 14 m 19.05,0 h 14 v -14 h -14 v 14 m 19.05,0 h 14 v -14 h -14 v 14 m 19.05,0 h 14 v -14 h -14 v 14 m 19.05,0 h 14 v -14 h -14 v 14 m 19.05,0 h 13.999 v -14 h -13.999 v 14 M 40.863,59.626 h 14 v -14 h -14 v 14 m 19.05,0 h 14 v -14 h -14 v 14 m 19.05,0 h 14 v -14 h -14 v 14 m 19.05,0 h 14 v -14 h -14 v 14 m 19.05,0 h 14 v -14 h -14 v 14 m 19.05,0 h 14 v -14 h -14 v 14 m 19.05,0 h 14 v -14 h -14 v 14 m 19.05,0 h 14 v -14 h -14 v 14 m 19.05,0 h 14 v -14 h -14 v 14 m 19.05,0 h 14 v -14 h -14 v 14 m 19.05,0 h 14 v -14 h -14 v 14 M 50.388,78.676 h 14 v -14 h -14 v 14 m 19.05,0 h 14 v -14 h -14 v 14 m 19.05,0 h 14 v -14 h -14 v 14 m 19.05,0 h 14 v -14 h -14 v 14 m 19.05,0 h 14 v -14 h -14 v 14 m 19.05,0 h 14 v -14 h -14 v 14 m 19.05,0 h 14 v -14 h -14 v 14 m 19.05,0 h 14 v -14 h -14 v 14 m 19.05,0 h 14 v -14 h -14 v 14 m 19.05,0 h 14 v -14 h -14 v 14 m 76.2,0 h 14 v -14 h -14 v 14 M 9.907,97.726 h 14 v -14 h -14 v 14 m 23.812,0 h 14 v -14 h -14 v 14 m 23.813,0 h 14 v -14 h -14 v 14 m 142.875,0 h 14 v -14 h -14 v 14 m 23.812,0 h 14 v -14 h -14 v 14 m 23.813,0 h 14 v -14 h -14 v 14 m 30.956,0 h 14 v -14 h -14 v 14 m 19.05,0 h 14 v -14 h -14 v 14 m 19.05,0 h 14 v -14 h -14 v 14 M 87.619,97.495 h 1.725 v -4.47 h 1.525 v 4.701 h 14 v -4.701 h 1.525 v 4.47 h 1.725 v 0.981 h 3.3 v -0.981 h 1.725 v -6.269 h 0.825 v -2.8 h -0.825 v -3.23 h -6.75 v 3.23 h -1.525 v -4.7 h -14 v 4.7 h -1.525 v -3.23 h -6.75 v 3.23 h -0.825 v 2.8 h 0.825 v 6.269 h 1.725 v 0.981 h 3.3 v -0.981"
       style="display:inline;fill:none;fill-opacity:0;stroke:#000000;stroke-width:0.0941917;stroke-linecap:round;stroke-linejoin:round;stroke-miterlimit:4;stroke-dasharray:none;stroke-opacity:1"
       id="path7177-7-1" />
  </g>
  <g
     inkscape:groupmode="layer"
     id="layer5"
     inkscape:label="bottom plate"
     style="display:none">
    <circle
       r="1.0500001"
       style="display:inline;fill:none;fill-opacity:0;stroke:#00fb00;stroke-width:0.1;stroke-linecap:round;stroke-linejoin:round;stroke-opacity:1"
       id="path5374-3-7"
       cx="3.4300244"
       cy="3.4346061" />
    <circle
       r="1.0500001"
       cy="101.81006"
       cx="3.4300244"
       id="path5374-8-2-2"
       style="display:inline;fill:none;fill-opacity:0;stroke:#00fb00;stroke-width:0.1;stroke-linecap:round;stroke-linejoin:round;stroke-opacity:1" />
    <circle
       r="1.0500001"
       cy="3.4346113"
       cx="335.18503"
       id="path5374-6-4-9"
       style="display:inline;fill:none;fill-opacity:0;stroke:#00fb00;stroke-width:0.1;stroke-linecap:round;stroke-linejoin:round;stroke-opacity:1" />
    <circle
       r="1.0500001"
       style="display:inline;fill:none;fill-opacity:0;stroke:#00fb00;stroke-width:0.1;stroke-linecap:round;stroke-linejoin:round;stroke-opacity:1"
       id="path5374-8-7-2-1"
       cx="335.18503"
       cy="101.81006" />
    <circle
       r="1.0500001"
       style="display:inline;fill:none;fill-opacity:0;stroke:#00fb00;stroke-width:0.1;stroke-linecap:round;stroke-linejoin:round;stroke-opacity:1"
       id="path5374-6-3-0-4"
       cx="81.272408"
       cy="3.4346118" />
    <circle
       r="1.0500001"
       cy="101.81006"
       cx="81.272408"
       id="path5374-8-7-4-9-5"
       style="display:inline;fill:none;fill-opacity:0;stroke:#00fb00;stroke-width:0.1;stroke-linecap:round;stroke-linejoin:round;stroke-opacity:1" />
    <circle
       r="1.0500001"
       cy="3.4346123"
       cx="252.6338"
       id="path5374-6-3-4-8-3"
       style="display:inline;fill:none;fill-opacity:0;stroke:#00fb00;stroke-width:0.1;stroke-linecap:round;stroke-linejoin:round;stroke-opacity:1" />
    <circle
       r="1.0500001"
       style="display:inline;fill:none;fill-opacity:0;stroke:#00fb00;stroke-width:0.1;stroke-linecap:round;stroke-linejoin:round;stroke-opacity:1"
       id="path5374-8-7-4-0-1-0"
       cx="252.6338"
       cy="101.81006" />
    <circle
       r="1.0500001"
       cy="43.041748"
       cx="52.626659"
       id="path5374-6-3-6-2-8"
       style="display:inline;fill:none;fill-opacity:0;stroke:#00fb00;stroke-width:0.1;stroke-linecap:round;stroke-linejoin:round;stroke-opacity:1" />
    <circle
       r="1.0500001"
       style="display:inline;fill:none;fill-opacity:0;stroke:#00fb00;stroke-width:0.1;stroke-linecap:round;stroke-linejoin:round;stroke-opacity:1"
       id="path5374-6-3-6-9-4-4"
       cx="133.58144"
       cy="62.177113" />
    <circle
       r="1.0500001"
       cy="43.160141"
       cx="209.78035"
       id="path5374-6-3-6-9-8-0-2"
       style="display:inline;fill:none;fill-opacity:0;stroke:#00fb00;stroke-width:0.1;stroke-linecap:round;stroke-linejoin:round;stroke-opacity:1" />
    <circle
       r="1.0500001"
       style="display:inline;fill:none;fill-opacity:0;stroke:#00fb00;stroke-width:0.1;stroke-linecap:round;stroke-linejoin:round;stroke-opacity:1"
       id="path5374-6-3-6-9-8-3-3-4"
       cx="285.65076"
       cy="62.177101" />
    <path
       inkscape:original-d="M -0.66763916,-0.65693787 H 339.27308 V 105.90178 H -0.66763916 Z"
       inkscape:path-effect="#path-effect7140"
       id="rect5875-0"
       d="M 3.1118884,-0.65693787 H 335.49355 a 3.7795276,3.7795276 45 0 1 3.77953,3.77952757 V 102.12225 a 3.7795276,3.7795276 135 0 1 -3.77953,3.77953 H 3.1118884 a 3.7795276,3.7795276 45 0 1 -3.77952756,-3.77953 l 0,-98.9996603 A 3.7795276,3.7795276 135 0 1 3.1118884,-0.65693787 Z"
       style="display:inline;fill:none;fill-opacity:0;stroke:#00fb00;stroke-width:0.0942856;stroke-linecap:round;stroke-linejoin:round;stroke-miterlimit:4;stroke-dasharray:none;stroke-opacity:1" />
    <circle
       cy="3.4346147"
       cx="166.83484"
       id="path5374-6-3-0-7-8"
       style="display:inline;fill:none;fill-opacity:0;stroke:#00fb00;stroke-width:0.1;stroke-linecap:round;stroke-linejoin:round;stroke-opacity:1"
       r="1.0500001" />
    <circle
       style="display:inline;fill:none;fill-opacity:0;stroke:#00fb00;stroke-width:0.1;stroke-linecap:round;stroke-linejoin:round;stroke-opacity:1"
       id="path5374-8-7-4-9-4-3"
       cx="166.83484"
       cy="101.81006"
       r="1.0500001" />
  </g>
  <g
     inkscape:groupmode="layer"
     id="layer4"
     inkscape:label="pcb"
     style="display:none">
    <circle
       cy="3.4346061"
       cx="3.4300241"
       id="path5374"
       style="display:inline;fill:none;fill-opacity:0;stroke:#ff0000;stroke-width:0.1;stroke-linecap:round;stroke-linejoin:round;stroke-opacity:1"
       r="2.5000002" />
    <circle
       style="display:inline;fill:none;fill-opacity:0;stroke:#ff0000;stroke-width:0.1;stroke-linecap:round;stroke-linejoin:round;stroke-opacity:1"
       id="path5374-8"
       cx="3.4300244"
       cy="101.81007"
       r="2.5000005" />
    <circle
       style="display:inline;fill:none;fill-opacity:0;stroke:#ff0000;stroke-width:0.1;stroke-linecap:round;stroke-linejoin:round;stroke-opacity:1"
       id="path5374-6"
       cx="335.18503"
       cy="3.4346113"
       r="2.5000005" />
    <circle
       cy="101.81007"
       cx="335.18503"
       id="path5374-8-7"
       style="display:inline;fill:none;fill-opacity:0;stroke:#ff0000;stroke-width:0.1;stroke-linecap:round;stroke-linejoin:round;stroke-opacity:1"
       r="2.5000005" />
    <circle
       cy="3.4346116"
       cx="81.272408"
       id="path5374-6-3"
       style="display:inline;fill:none;fill-opacity:0;stroke:#ff0000;stroke-width:0.1;stroke-linecap:round;stroke-linejoin:round;stroke-opacity:1"
       r="2.5000005" />
    <circle
       style="display:inline;fill:none;fill-opacity:0;stroke:#ff0000;stroke-width:0.1;stroke-linecap:round;stroke-linejoin:round;stroke-opacity:1"
       id="path5374-8-7-4"
       cx="81.272408"
       cy="101.81007"
       r="2.5000005" />
    <circle
       style="display:inline;fill:none;fill-opacity:0;stroke:#ff0000;stroke-width:0.1;stroke-linecap:round;stroke-linejoin:round;stroke-opacity:1"
       id="path5374-6-3-4"
       cx="252.6338"
       cy="3.4346118"
       r="2.5000005" />
    <circle
       cy="101.81007"
       cx="252.6338"
       id="path5374-8-7-4-0"
       style="display:inline;fill:none;fill-opacity:0;stroke:#ff0000;stroke-width:0.1;stroke-linecap:round;stroke-linejoin:round;stroke-opacity:1"
       r="2.5000005" />
    <circle
       style="display:inline;fill:none;fill-opacity:0;stroke:#ff0000;stroke-width:0.1;stroke-linecap:round;stroke-linejoin:round;stroke-opacity:1"
       id="path5374-6-3-6"
       cx="52.626663"
       cy="43.041752"
       r="2.5000005" />
    <circle
       cy="62.177116"
       cx="133.58144"
       id="path5374-6-3-6-9"
       style="display:inline;fill:none;fill-opacity:0;stroke:#ff0000;stroke-width:0.1;stroke-linecap:round;stroke-linejoin:round;stroke-opacity:1"
       r="2.5000005" />
    <circle
       style="display:inline;fill:none;fill-opacity:0;stroke:#ff0000;stroke-width:0.1;stroke-linecap:round;stroke-linejoin:round;stroke-opacity:1"
       id="path5374-6-3-6-9-8"
       cx="209.78035"
       cy="43.160145"
       r="2.5000005" />
    <circle
       r="2.5000005"
       cy="62.177101"
       cx="285.65076"
       id="path5374-6-3-6-9-8-3-8"
       style="display:inline;fill:none;fill-opacity:0;stroke:#ff0000;stroke-width:0.1;stroke-linecap:round;stroke-linejoin:round;stroke-opacity:1" />
    <circle
       cy="3.4346142"
       cx="166.83484"
       id="path5374-6-3-3"
       style="display:inline;fill:none;fill-opacity:0;stroke:#ff0000;stroke-width:0.1;stroke-linecap:round;stroke-linejoin:round;stroke-opacity:1"
       r="2.5000002" />
    <circle
       style="display:inline;fill:none;fill-opacity:0;stroke:#ff0000;stroke-width:0.1;stroke-linecap:round;stroke-linejoin:round;stroke-opacity:1"
       id="path5374-8-7-4-96"
       cx="166.83484"
       cy="101.81007"
       r="2.5000002" />
    <path
       inkscape:original-d="M -0.66763916,-0.65693787 H 339.27308 V 105.90178 H -0.66763916 Z"
       inkscape:path-effect="#path-effect6021"
       id="rect5875-2"
       d="M 3.1118884,-0.65693787 H 335.49355 a 3.7795276,3.7795276 45 0 1 3.77953,3.77952757 V 102.12225 a 3.7795276,3.7795276 135 0 1 -3.77953,3.77953 H 3.1118884 a 3.7795276,3.7795276 45 0 1 -3.77952756,-3.77953 l 0,-98.9996603 A 3.7795276,3.7795276 135 0 1 3.1118884,-0.65693787 Z"
       style="display:inline;fill:none;fill-opacity:0;stroke:#ff0000;stroke-width:0.0941917;stroke-linecap:round;stroke-linejoin:round;stroke-miterlimit:4;stroke-dasharray:none;stroke-opacity:1" />
  </g>
</svg>
