  0
SECTION
  2
HEADER
  9
$ACADVER
  1
AC1014
  9
$HANDSEED
  5
FFFF
  9
$MEASUREMENT
 70
     1
  0
ENDSEC
  0
SECTION
  2
TABLES
  0
TABLE
  2
VPORT
  5
8
330
0
100
AcDbSymbolTable
 70
     4
  0
VPORT
  5
2E
330
8
100
AcDbSymbolTableRecord
100
AcDbViewportTableRecord
  2
*ACTIVE
 70
     0
 10
0.0
 20
0.0
 11
1.0
 21
1.0
 12
210.0
 22
148.5
 13
0.0
 23
0.0
 14
10.0
 24
10.0
 15
10.0
 25
10.0
 16
0.0
 26
0.0
 36
1.0
 17
0.0
 27
0.0
 37
0.0
 40
341.0
 41
1.24
 42
50.0
 43
0.0
 44
0.0
 50
0.0
 51
0.0
 71
     0
 72
   100
 73
     1
 74
     3
 75
     0
 76
     0
 77
     0
 78
     0
  0
ENDTAB
  0
TABLE
  2
LTYPE
  5
5
330
0
100
AcDbSymbolTable
 70
     1
  0
LTYPE
  5
14
330
5
100
AcDbSymbolTableRecord
100
AcDbLinetypeTableRecord
  2
BYBLOCK
 70
     0
  3

 72
    65
 73
     0
 40
0.0
  0
LTYPE
  5
15
330
5
100
AcDbSymbolTableRecord
100
AcDbLinetypeTableRecord
  2
BYLAYER
 70
     0
  3

 72
    65
 73
     0
 40
0.0
  0
LTYPE
  5
16
330
5
100
AcDbSymbolTableRecord
100
AcDbLinetypeTableRecord
  2
CONTINUOUS
 70
     0
  3
Solid line
 72
    65
 73
     0
 40
0.0
  0
ENDTAB
  0
TABLE
  2
LAYER
  5
2
100
AcDbSymbolTable
 70
5
  0
LAYER
  5
50
100
AcDbSymbolTableRecord
100
AcDbLayerTableRecord
  2
0
 70
0
  6
CONTINUOUS
  0
LAYER
  5
51
100
AcDbSymbolTableRecord
100
AcDbLayerTableRecord
  2
original
 70
0
  6
CONTINUOUS
  0
LAYER
  5
52
100
AcDbSymbolTableRecord
100
AcDbLayerTableRecord
  2
top_plate
 70
0
  6
CONTINUOUS
  0
LAYER
  5
53
100
AcDbSymbolTableRecord
100
AcDbLayerTableRecord
  2
bottom_plate
 70
0
  6
CONTINUOUS
  0
LAYER
  5
54
100
AcDbSymbolTableRecord
100
AcDbLayerTableRecord
  2
pcb
 70
0
  6
CONTINUOUS
  0
ENDTAB
  0
TABLE
  2
STYLE
  5
3
330
0
100
AcDbSymbolTable
 70
     1
  0
STYLE
  5
11
330
3
100
AcDbSymbolTableRecord
100
AcDbTextStyleTableRecord
  2
STANDARD
 70
     0
 40
0.0
 41
1.0
 50
0.0
 71
     0
 42
2.5
  3
txt
  4

  0
ENDTAB
  0
TABLE
  2
VIEW
  5
6
330
0
100
AcDbSymbolTable
 70
     0
  0
ENDTAB
  0
TABLE
  2
UCS
  5
7
330
0
100
AcDbSymbolTable
 70
     0
  0
ENDTAB
  0
TABLE
  2
APPID
  5
9
330
0
100
AcDbSymbolTable
 70
     2
  0
APPID
  5
12
330
9
100
AcDbSymbolTableRecord
100
AcDbRegAppTableRecord
  2
ACAD
 70
     0
  0
ENDTAB
  0
TABLE
  2
DIMSTYLE
  5
A
330
0
100
AcDbSymbolTable
 70
     1
  0
DIMSTYLE
105
27
330
A
100
AcDbSymbolTableRecord
100
AcDbDimStyleTableRecord
  2
ISO-25
 70
     0
  3

  4

  5

  6

  7

 40
1.0
 41
2.5
 42
0.625
 43
3.75
 44
1.25
 45
0.0
 46
0.0
 47
0.0
 48
0.0
140
2.5
141
2.5
142
0.0
143
0.03937007874016
144
1.0
145
0.0
146
1.0
147
0.625
 71
     0
 72
     0
 73
     0
 74
     0
 75
     0
 76
     0
 77
     1
 78
     8
170
     0
171
     3
172
     1
173
     0
174
     0
175
     0
176
     0
177
     0
178
     0
270
     2
271
     2
272
     2
273
     2
274
     3
340
11
275
     0
280
     0
281
     0
282
     0
283
     0
284
     8
285
     0
286
     0
287
     3
288
     0
  0
ENDTAB
  0
TABLE
  2
BLOCK_RECORD
  5
1
330
0
100
AcDbSymbolTable
 70
     1
  0
BLOCK_RECORD
  5
1F
330
1
100
AcDbSymbolTableRecord
100
AcDbBlockTableRecord
  2
*MODEL_SPACE
  0
BLOCK_RECORD
  5
1B
330
1
100
AcDbSymbolTableRecord
100
AcDbBlockTableRecord
  2
*PAPER_SPACE
  0
ENDTAB
  0
ENDSEC
  0
SECTION
  2
BLOCKS
  0
BLOCK
  5
20
330
1F
100
AcDbEntity
  8
0
100
AcDbBlockBegin
  2
*MODEL_SPACE
 70
     0
 10
0.0
 20
0.0
 30
0.0
  3
*MODEL_SPACE
  1

  0
ENDBLK
  5
21
330
1F
100
AcDbEntity
  8
0
100
AcDbBlockEnd
  0
BLOCK
  5
1C
330
1B
100
AcDbEntity
 67
     1
  8
0
100
AcDbBlockBegin
  2
*PAPER_SPACE
  1

  0
ENDBLK
  5
1D
330
1B
100
AcDbEntity
 67
     1
  8
0
100
AcDbBlockEnd
  0
ENDSEC
  0
SECTION
  2
ENTITIES
  0
LWPOLYLINE
  5
100
100
AcDbEntity
  8
original
 62
5
100
AcDbPolyline
 90
12
 70
1
 10
295.600670
 20
235.659224
 30
0.0
 10
295.602670
 20
235.558926
 30
0.0
 10
295.702970
 20
235.556526
 30
0.0
 10
333.602370
 20
235.556526
 30
0.0
 10
333.702670
 20
235.558926
 30
0.0
 10
333.704670
 20
235.659224
 30
0.0
 10
333.704670
 20
273.558627
 30
0.0
 10
333.702670
 20
273.658927
 30
0.0
 10
333.602370
 20
273.661327
 30
0.0
 10
295.702970
 20
273.661327
 30
0.0
 10
295.602670
 20
273.658927
 30
0.0
 10
295.600670
 20
273.558627
 30
0.0
  0
LWPOLYLINE
  5
101
100
AcDbEntity
  8
original
 62
5
100
AcDbPolyline
 90
128
 70
1
 10
297.153070
 20
238.608926
 30
0.0
 10
297.155070
 20
238.682526
 30
0.0
 10
297.160070
 20
238.755926
 30
0.0
 10
297.169070
 20
238.829026
 30
0.0
 10
297.181670
 20
238.901526
 30
0.0
 10
297.197870
 20
238.973426
 30
0.0
 10
297.217470
 20
239.044326
 30
0.0
 10
297.240570
 20
239.114226
 30
0.0
 10
297.267070
 20
239.182926
 30
0.0
 10
297.296870
 20
239.250226
 30
0.0
 10
297.329970
 20
239.316026
 30
0.0
 10
297.366270
 20
239.380126
 30
0.0
 10
297.405670
 20
239.442326
 30
0.0
 10
297.448070
 20
239.502426
 30
0.0
 10
297.493370
 20
239.560526
 30
0.0
 10
297.541470
 20
239.616226
 30
0.0
 10
297.592170
 20
239.669626
 30
0.0
 10
297.645570
 20
239.720326
 30
0.0
 10
297.701270
 20
239.768426
 30
0.0
 10
297.759370
 20
239.813726
 30
0.0
 10
297.819470
 20
239.856126
 30
0.0
 10
297.881670
 20
239.895526
 30
0.0
 10
297.945770
 20
239.931826
 30
0.0
 10
298.011570
 20
239.964926
 30
0.0
 10
298.078870
 20
239.994726
 30
0.0
 10
298.147570
 20
240.021226
 30
0.0
 10
298.217470
 20
240.044326
 30
0.0
 10
298.288370
 20
240.063936
 30
0.0
 10
298.360270
 20
240.080126
 30
0.0
 10
298.432770
 20
240.092716
 30
0.0
 10
298.505870
 20
240.101716
 30
0.0
 10
298.579270
 20
240.107116
 30
0.0
 10
298.652870
 20
240.109016
 30
0.0
 10
298.726470
 20
240.107116
 30
0.0
 10
298.799870
 20
240.101716
 30
0.0
 10
298.872970
 20
240.092716
 30
0.0
 10
298.945470
 20
240.080126
 30
0.0
 10
299.017370
 20
240.063936
 30
0.0
 10
299.088270
 20
240.044326
 30
0.0
 10
299.158170
 20
240.021226
 30
0.0
 10
299.226870
 20
239.994726
 30
0.0
 10
299.294170
 20
239.964926
 30
0.0
 10
299.359970
 20
239.931826
 30
0.0
 10
299.424070
 20
239.895526
 30
0.0
 10
299.486270
 20
239.856126
 30
0.0
 10
299.546370
 20
239.813726
 30
0.0
 10
299.604470
 20
239.768426
 30
0.0
 10
299.660170
 20
239.720326
 30
0.0
 10
299.713570
 20
239.669626
 30
0.0
 10
299.764270
 20
239.616226
 30
0.0
 10
299.812370
 20
239.560526
 30
0.0
 10
299.857670
 20
239.502426
 30
0.0
 10
299.900070
 20
239.442326
 30
0.0
 10
299.939470
 20
239.380126
 30
0.0
 10
299.975770
 20
239.316026
 30
0.0
 10
300.008870
 20
239.250226
 30
0.0
 10
300.038670
 20
239.182926
 30
0.0
 10
300.065170
 20
239.114226
 30
0.0
 10
300.088270
 20
239.044326
 30
0.0
 10
300.107870
 20
238.973426
 30
0.0
 10
300.124070
 20
238.901526
 30
0.0
 10
300.136670
 20
238.829026
 30
0.0
 10
300.145670
 20
238.755926
 30
0.0
 10
300.150670
 20
238.682526
 30
0.0
 10
300.152670
 20
238.608926
 30
0.0
 10
300.150670
 20
238.535326
 30
0.0
 10
300.145670
 20
238.461926
 30
0.0
 10
300.136670
 20
238.388826
 30
0.0
 10
300.124070
 20
238.316326
 30
0.0
 10
300.107870
 20
238.244426
 30
0.0
 10
300.088270
 20
238.173526
 30
0.0
 10
300.065170
 20
238.103626
 30
0.0
 10
300.038670
 20
238.034926
 30
0.0
 10
300.008870
 20
237.967626
 30
0.0
 10
299.975770
 20
237.901826
 30
0.0
 10
299.939470
 20
237.837726
 30
0.0
 10
299.900070
 20
237.775526
 30
0.0
 10
299.857670
 20
237.715426
 30
0.0
 10
299.812370
 20
237.657326
 30
0.0
 10
299.764270
 20
237.601626
 30
0.0
 10
299.713570
 20
237.548226
 30
0.0
 10
299.660170
 20
237.497526
 30
0.0
 10
299.604470
 20
237.449426
 30
0.0
 10
299.546370
 20
237.404126
 30
0.0
 10
299.486270
 20
237.361726
 30
0.0
 10
299.424070
 20
237.322326
 30
0.0
 10
299.359970
 20
237.286026
 30
0.0
 10
299.294170
 20
237.252926
 30
0.0
 10
299.226870
 20
237.223126
 30
0.0
 10
299.158170
 20
237.196626
 30
0.0
 10
299.088270
 20
237.173526
 30
0.0
 10
299.017370
 20
237.153916
 30
0.0
 10
298.945470
 20
237.137726
 30
0.0
 10
298.872970
 20
237.125136
 30
0.0
 10
298.799870
 20
237.116136
 30
0.0
 10
298.726470
 20
237.110736
 30
0.0
 10
298.652870
 20
237.108836
 30
0.0
 10
298.579270
 20
237.110736
 30
0.0
 10
298.505870
 20
237.116136
 30
0.0
 10
298.432770
 20
237.125136
 30
0.0
 10
298.360270
 20
237.137726
 30
0.0
 10
298.288370
 20
237.153916
 30
0.0
 10
298.217470
 20
237.173526
 30
0.0
 10
298.147570
 20
237.196626
 30
0.0
 10
298.078870
 20
237.223126
 30
0.0
 10
298.011570
 20
237.252926
 30
0.0
 10
297.945770
 20
237.286026
 30
0.0
 10
297.881670
 20
237.322326
 30
0.0
 10
297.819470
 20
237.361726
 30
0.0
 10
297.759370
 20
237.404126
 30
0.0
 10
297.701270
 20
237.449426
 30
0.0
 10
297.645570
 20
237.497526
 30
0.0
 10
297.592170
 20
237.548226
 30
0.0
 10
297.541470
 20
237.601626
 30
0.0
 10
297.493370
 20
237.657326
 30
0.0
 10
297.448070
 20
237.715426
 30
0.0
 10
297.405670
 20
237.775526
 30
0.0
 10
297.366270
 20
237.837726
 30
0.0
 10
297.329970
 20
237.901826
 30
0.0
 10
297.296870
 20
237.967626
 30
0.0
 10
297.267070
 20
238.034926
 30
0.0
 10
297.240570
 20
238.103626
 30
0.0
 10
297.217470
 20
238.173526
 30
0.0
 10
297.197870
 20
238.244426
 30
0.0
 10
297.181670
 20
238.316326
 30
0.0
 10
297.169070
 20
238.388826
 30
0.0
 10
297.160070
 20
238.461926
 30
0.0
 10
297.155070
 20
238.535326
 30
0.0
  0
LWPOLYLINE
  5
102
100
AcDbEntity
  8
original
 62
5
100
AcDbPolyline
 90
128
 70
1
 10
297.153070
 20
270.608927
 30
0.0
 10
297.155070
 20
270.682527
 30
0.0
 10
297.160070
 20
270.755927
 30
0.0
 10
297.169070
 20
270.829027
 30
0.0
 10
297.181670
 20
270.901527
 30
0.0
 10
297.197870
 20
270.973427
 30
0.0
 10
297.217470
 20
271.044327
 30
0.0
 10
297.240570
 20
271.114227
 30
0.0
 10
297.267070
 20
271.182927
 30
0.0
 10
297.296870
 20
271.250227
 30
0.0
 10
297.329970
 20
271.316027
 30
0.0
 10
297.366270
 20
271.380127
 30
0.0
 10
297.405670
 20
271.442327
 30
0.0
 10
297.448070
 20
271.502427
 30
0.0
 10
297.493370
 20
271.560527
 30
0.0
 10
297.541470
 20
271.616227
 30
0.0
 10
297.592170
 20
271.669627
 30
0.0
 10
297.645570
 20
271.720327
 30
0.0
 10
297.701270
 20
271.768427
 30
0.0
 10
297.759370
 20
271.813727
 30
0.0
 10
297.819470
 20
271.856127
 30
0.0
 10
297.881670
 20
271.895527
 30
0.0
 10
297.945770
 20
271.931827
 30
0.0
 10
298.011570
 20
271.964927
 30
0.0
 10
298.078870
 20
271.994727
 30
0.0
 10
298.147570
 20
272.021227
 30
0.0
 10
298.217470
 20
272.044327
 30
0.0
 10
298.288370
 20
272.063927
 30
0.0
 10
298.360270
 20
272.080127
 30
0.0
 10
298.432770
 20
272.092727
 30
0.0
 10
298.505870
 20
272.101727
 30
0.0
 10
298.579270
 20
272.107127
 30
0.0
 10
298.652870
 20
272.108927
 30
0.0
 10
298.726470
 20
272.107127
 30
0.0
 10
298.799870
 20
272.101727
 30
0.0
 10
298.872970
 20
272.092727
 30
0.0
 10
298.945470
 20
272.080127
 30
0.0
 10
299.017370
 20
272.063927
 30
0.0
 10
299.088270
 20
272.044327
 30
0.0
 10
299.158170
 20
272.021227
 30
0.0
 10
299.226870
 20
271.994727
 30
0.0
 10
299.294170
 20
271.964927
 30
0.0
 10
299.359970
 20
271.931827
 30
0.0
 10
299.424070
 20
271.895527
 30
0.0
 10
299.486270
 20
271.856127
 30
0.0
 10
299.546370
 20
271.813727
 30
0.0
 10
299.604470
 20
271.768427
 30
0.0
 10
299.660170
 20
271.720327
 30
0.0
 10
299.713570
 20
271.669627
 30
0.0
 10
299.764270
 20
271.616227
 30
0.0
 10
299.812370
 20
271.560527
 30
0.0
 10
299.857670
 20
271.502427
 30
0.0
 10
299.900070
 20
271.442327
 30
0.0
 10
299.939470
 20
271.380127
 30
0.0
 10
299.975770
 20
271.316027
 30
0.0
 10
300.008870
 20
271.250227
 30
0.0
 10
300.038670
 20
271.182927
 30
0.0
 10
300.065170
 20
271.114227
 30
0.0
 10
300.088270
 20
271.044327
 30
0.0
 10
300.107870
 20
270.973427
 30
0.0
 10
300.124070
 20
270.901527
 30
0.0
 10
300.136670
 20
270.829027
 30
0.0
 10
300.145670
 20
270.755927
 30
0.0
 10
300.150670
 20
270.682527
 30
0.0
 10
300.152670
 20
270.608927
 30
0.0
 10
300.150670
 20
270.535327
 30
0.0
 10
300.145670
 20
270.461927
 30
0.0
 10
300.136670
 20
270.388827
 30
0.0
 10
300.124070
 20
270.316327
 30
0.0
 10
300.107870
 20
270.244427
 30
0.0
 10
300.088270
 20
270.173527
 30
0.0
 10
300.065170
 20
270.103627
 30
0.0
 10
300.038670
 20
270.034927
 30
0.0
 10
300.008870
 20
269.967627
 30
0.0
 10
299.975770
 20
269.901827
 30
0.0
 10
299.939470
 20
269.837727
 30
0.0
 10
299.900070
 20
269.775527
 30
0.0
 10
299.857670
 20
269.715427
 30
0.0
 10
299.812370
 20
269.657327
 30
0.0
 10
299.764270
 20
269.601627
 30
0.0
 10
299.713570
 20
269.548227
 30
0.0
 10
299.660170
 20
269.497527
 30
0.0
 10
299.604470
 20
269.449427
 30
0.0
 10
299.546370
 20
269.404127
 30
0.0
 10
299.486270
 20
269.361727
 30
0.0
 10
299.424070
 20
269.322327
 30
0.0
 10
299.359970
 20
269.286027
 30
0.0
 10
299.294170
 20
269.252927
 30
0.0
 10
299.226870
 20
269.223127
 30
0.0
 10
299.158170
 20
269.196627
 30
0.0
 10
299.088270
 20
269.173527
 30
0.0
 10
299.017370
 20
269.153927
 30
0.0
 10
298.945470
 20
269.137727
 30
0.0
 10
298.872970
 20
269.125127
 30
0.0
 10
298.799870
 20
269.116127
 30
0.0
 10
298.726470
 20
269.110727
 30
0.0
 10
298.652870
 20
269.108927
 30
0.0
 10
298.579270
 20
269.110727
 30
0.0
 10
298.505870
 20
269.116127
 30
0.0
 10
298.432770
 20
269.125127
 30
0.0
 10
298.360270
 20
269.137727
 30
0.0
 10
298.288370
 20
269.153927
 30
0.0
 10
298.217470
 20
269.173527
 30
0.0
 10
298.147570
 20
269.196627
 30
0.0
 10
298.078870
 20
269.223127
 30
0.0
 10
298.011570
 20
269.252927
 30
0.0
 10
297.945770
 20
269.286027
 30
0.0
 10
297.881670
 20
269.322327
 30
0.0
 10
297.819470
 20
269.361727
 30
0.0
 10
297.759370
 20
269.404127
 30
0.0
 10
297.701270
 20
269.449427
 30
0.0
 10
297.645570
 20
269.497527
 30
0.0
 10
297.592170
 20
269.548227
 30
0.0
 10
297.541470
 20
269.601627
 30
0.0
 10
297.493370
 20
269.657327
 30
0.0
 10
297.448070
 20
269.715427
 30
0.0
 10
297.405670
 20
269.775527
 30
0.0
 10
297.366270
 20
269.837727
 30
0.0
 10
297.329970
 20
269.901827
 30
0.0
 10
297.296870
 20
269.967627
 30
0.0
 10
297.267070
 20
270.034927
 30
0.0
 10
297.240570
 20
270.103627
 30
0.0
 10
297.217470
 20
270.173527
 30
0.0
 10
297.197870
 20
270.244427
 30
0.0
 10
297.181670
 20
270.316327
 30
0.0
 10
297.169070
 20
270.388827
 30
0.0
 10
297.160070
 20
270.461927
 30
0.0
 10
297.155070
 20
270.535327
 30
0.0
  0
LWPOLYLINE
  5
103
100
AcDbEntity
  8
original
 62
5
100
AcDbPolyline
 90
4
 70
1
 10
304.903070
 20
243.558926
 30
0.0
 10
304.903070
 20
265.658927
 30
0.0
 10
324.403070
 20
265.658927
 30
0.0
 10
324.403070
 20
243.558926
 30
0.0
  0
LWPOLYLINE
  5
104
100
AcDbEntity
  8
original
 62
5
100
AcDbPolyline
 90
128
 70
1
 10
329.153070
 20
238.608926
 30
0.0
 10
329.155070
 20
238.682526
 30
0.0
 10
329.160070
 20
238.755926
 30
0.0
 10
329.169070
 20
238.829026
 30
0.0
 10
329.181670
 20
238.901526
 30
0.0
 10
329.197870
 20
238.973426
 30
0.0
 10
329.217470
 20
239.044326
 30
0.0
 10
329.240570
 20
239.114226
 30
0.0
 10
329.267070
 20
239.182926
 30
0.0
 10
329.296870
 20
239.250226
 30
0.0
 10
329.329970
 20
239.316026
 30
0.0
 10
329.366270
 20
239.380126
 30
0.0
 10
329.405670
 20
239.442326
 30
0.0
 10
329.448070
 20
239.502426
 30
0.0
 10
329.493370
 20
239.560526
 30
0.0
 10
329.541470
 20
239.616226
 30
0.0
 10
329.592170
 20
239.669626
 30
0.0
 10
329.645570
 20
239.720326
 30
0.0
 10
329.701270
 20
239.768426
 30
0.0
 10
329.759370
 20
239.813726
 30
0.0
 10
329.819470
 20
239.856126
 30
0.0
 10
329.881670
 20
239.895526
 30
0.0
 10
329.945770
 20
239.931826
 30
0.0
 10
330.011570
 20
239.964926
 30
0.0
 10
330.078870
 20
239.994726
 30
0.0
 10
330.147570
 20
240.021226
 30
0.0
 10
330.217470
 20
240.044326
 30
0.0
 10
330.288370
 20
240.063936
 30
0.0
 10
330.360270
 20
240.080126
 30
0.0
 10
330.432770
 20
240.092716
 30
0.0
 10
330.505870
 20
240.101716
 30
0.0
 10
330.579270
 20
240.107116
 30
0.0
 10
330.652870
 20
240.109016
 30
0.0
 10
330.726470
 20
240.107116
 30
0.0
 10
330.799870
 20
240.101716
 30
0.0
 10
330.872970
 20
240.092716
 30
0.0
 10
330.945470
 20
240.080126
 30
0.0
 10
331.017370
 20
240.063936
 30
0.0
 10
331.088270
 20
240.044326
 30
0.0
 10
331.158170
 20
240.021226
 30
0.0
 10
331.226870
 20
239.994726
 30
0.0
 10
331.294170
 20
239.964926
 30
0.0
 10
331.359970
 20
239.931826
 30
0.0
 10
331.424070
 20
239.895526
 30
0.0
 10
331.486270
 20
239.856126
 30
0.0
 10
331.546370
 20
239.813726
 30
0.0
 10
331.604470
 20
239.768426
 30
0.0
 10
331.660170
 20
239.720326
 30
0.0
 10
331.713570
 20
239.669626
 30
0.0
 10
331.764270
 20
239.616226
 30
0.0
 10
331.812370
 20
239.560526
 30
0.0
 10
331.857670
 20
239.502426
 30
0.0
 10
331.900070
 20
239.442326
 30
0.0
 10
331.939470
 20
239.380126
 30
0.0
 10
331.975770
 20
239.316026
 30
0.0
 10
332.008870
 20
239.250226
 30
0.0
 10
332.038670
 20
239.182926
 30
0.0
 10
332.065170
 20
239.114226
 30
0.0
 10
332.088270
 20
239.044326
 30
0.0
 10
332.107870
 20
238.973426
 30
0.0
 10
332.124070
 20
238.901526
 30
0.0
 10
332.136670
 20
238.829026
 30
0.0
 10
332.145670
 20
238.755926
 30
0.0
 10
332.150670
 20
238.682526
 30
0.0
 10
332.152670
 20
238.608926
 30
0.0
 10
332.150670
 20
238.535326
 30
0.0
 10
332.145670
 20
238.461926
 30
0.0
 10
332.136670
 20
238.388826
 30
0.0
 10
332.124070
 20
238.316326
 30
0.0
 10
332.107870
 20
238.244426
 30
0.0
 10
332.088270
 20
238.173526
 30
0.0
 10
332.065170
 20
238.103626
 30
0.0
 10
332.038670
 20
238.034926
 30
0.0
 10
332.008870
 20
237.967626
 30
0.0
 10
331.975770
 20
237.901826
 30
0.0
 10
331.939470
 20
237.837726
 30
0.0
 10
331.900070
 20
237.775526
 30
0.0
 10
331.857670
 20
237.715426
 30
0.0
 10
331.812370
 20
237.657326
 30
0.0
 10
331.764270
 20
237.601626
 30
0.0
 10
331.713570
 20
237.548226
 30
0.0
 10
331.660170
 20
237.497526
 30
0.0
 10
331.604470
 20
237.449426
 30
0.0
 10
331.546370
 20
237.404126
 30
0.0
 10
331.486270
 20
237.361726
 30
0.0
 10
331.424070
 20
237.322326
 30
0.0
 10
331.359970
 20
237.286026
 30
0.0
 10
331.294170
 20
237.252926
 30
0.0
 10
331.226870
 20
237.223126
 30
0.0
 10
331.158170
 20
237.196626
 30
0.0
 10
331.088270
 20
237.173526
 30
0.0
 10
331.017370
 20
237.153916
 30
0.0
 10
330.945470
 20
237.137726
 30
0.0
 10
330.872970
 20
237.125136
 30
0.0
 10
330.799870
 20
237.116136
 30
0.0
 10
330.726470
 20
237.110736
 30
0.0
 10
330.652870
 20
237.108836
 30
0.0
 10
330.579270
 20
237.110736
 30
0.0
 10
330.505870
 20
237.116136
 30
0.0
 10
330.432770
 20
237.125136
 30
0.0
 10
330.360270
 20
237.137726
 30
0.0
 10
330.288370
 20
237.153916
 30
0.0
 10
330.217470
 20
237.173526
 30
0.0
 10
330.147570
 20
237.196626
 30
0.0
 10
330.078870
 20
237.223126
 30
0.0
 10
330.011570
 20
237.252926
 30
0.0
 10
329.945770
 20
237.286026
 30
0.0
 10
329.881670
 20
237.322326
 30
0.0
 10
329.819470
 20
237.361726
 30
0.0
 10
329.759370
 20
237.404126
 30
0.0
 10
329.701270
 20
237.449426
 30
0.0
 10
329.645570
 20
237.497526
 30
0.0
 10
329.592170
 20
237.548226
 30
0.0
 10
329.541470
 20
237.601626
 30
0.0
 10
329.493370
 20
237.657326
 30
0.0
 10
329.448070
 20
237.715426
 30
0.0
 10
329.405670
 20
237.775526
 30
0.0
 10
329.366270
 20
237.837726
 30
0.0
 10
329.329970
 20
237.901826
 30
0.0
 10
329.296870
 20
237.967626
 30
0.0
 10
329.267070
 20
238.034926
 30
0.0
 10
329.240570
 20
238.103626
 30
0.0
 10
329.217470
 20
238.173526
 30
0.0
 10
329.197870
 20
238.244426
 30
0.0
 10
329.181670
 20
238.316326
 30
0.0
 10
329.169070
 20
238.388826
 30
0.0
 10
329.160070
 20
238.461926
 30
0.0
 10
329.155070
 20
238.535326
 30
0.0
  0
LWPOLYLINE
  5
105
100
AcDbEntity
  8
original
 62
5
100
AcDbPolyline
 90
128
 70
1
 10
329.153070
 20
270.608927
 30
0.0
 10
329.155070
 20
270.682527
 30
0.0
 10
329.160070
 20
270.755927
 30
0.0
 10
329.169070
 20
270.829027
 30
0.0
 10
329.181670
 20
270.901527
 30
0.0
 10
329.197870
 20
270.973427
 30
0.0
 10
329.217470
 20
271.044327
 30
0.0
 10
329.240570
 20
271.114227
 30
0.0
 10
329.267070
 20
271.182927
 30
0.0
 10
329.296870
 20
271.250227
 30
0.0
 10
329.329970
 20
271.316027
 30
0.0
 10
329.366270
 20
271.380127
 30
0.0
 10
329.405670
 20
271.442327
 30
0.0
 10
329.448070
 20
271.502427
 30
0.0
 10
329.493370
 20
271.560527
 30
0.0
 10
329.541470
 20
271.616227
 30
0.0
 10
329.592170
 20
271.669627
 30
0.0
 10
329.645570
 20
271.720327
 30
0.0
 10
329.701270
 20
271.768427
 30
0.0
 10
329.759370
 20
271.813727
 30
0.0
 10
329.819470
 20
271.856127
 30
0.0
 10
329.881670
 20
271.895527
 30
0.0
 10
329.945770
 20
271.931827
 30
0.0
 10
330.011570
 20
271.964927
 30
0.0
 10
330.078870
 20
271.994727
 30
0.0
 10
330.147570
 20
272.021227
 30
0.0
 10
330.217470
 20
272.044327
 30
0.0
 10
330.288370
 20
272.063927
 30
0.0
 10
330.360270
 20
272.080127
 30
0.0
 10
330.432770
 20
272.092727
 30
0.0
 10
330.505870
 20
272.101727
 30
0.0
 10
330.579270
 20
272.107127
 30
0.0
 10
330.652870
 20
272.108927
 30
0.0
 10
330.726470
 20
272.107127
 30
0.0
 10
330.799870
 20
272.101727
 30
0.0
 10
330.872970
 20
272.092727
 30
0.0
 10
330.945470
 20
272.080127
 30
0.0
 10
331.017370
 20
272.063927
 30
0.0
 10
331.088270
 20
272.044327
 30
0.0
 10
331.158170
 20
272.021227
 30
0.0
 10
331.226870
 20
271.994727
 30
0.0
 10
331.294170
 20
271.964927
 30
0.0
 10
331.359970
 20
271.931827
 30
0.0
 10
331.424070
 20
271.895527
 30
0.0
 10
331.486270
 20
271.856127
 30
0.0
 10
331.546370
 20
271.813727
 30
0.0
 10
331.604470
 20
271.768427
 30
0.0
 10
331.660170
 20
271.720327
 30
0.0
 10
331.713570
 20
271.669627
 30
0.0
 10
331.764270
 20
271.616227
 30
0.0
 10
331.812370
 20
271.560527
 30
0.0
 10
331.857670
 20
271.502427
 30
0.0
 10
331.900070
 20
271.442327
 30
0.0
 10
331.939470
 20
271.380127
 30
0.0
 10
331.975770
 20
271.316027
 30
0.0
 10
332.008870
 20
271.250227
 30
0.0
 10
332.038670
 20
271.182927
 30
0.0
 10
332.065170
 20
271.114227
 30
0.0
 10
332.088270
 20
271.044327
 30
0.0
 10
332.107870
 20
270.973427
 30
0.0
 10
332.124070
 20
270.901527
 30
0.0
 10
332.136670
 20
270.829027
 30
0.0
 10
332.145670
 20
270.755927
 30
0.0
 10
332.150670
 20
270.682527
 30
0.0
 10
332.152670
 20
270.608927
 30
0.0
 10
332.150670
 20
270.535327
 30
0.0
 10
332.145670
 20
270.461927
 30
0.0
 10
332.136670
 20
270.388827
 30
0.0
 10
332.124070
 20
270.316327
 30
0.0
 10
332.107870
 20
270.244427
 30
0.0
 10
332.088270
 20
270.173527
 30
0.0
 10
332.065170
 20
270.103627
 30
0.0
 10
332.038670
 20
270.034927
 30
0.0
 10
332.008870
 20
269.967627
 30
0.0
 10
331.975770
 20
269.901827
 30
0.0
 10
331.939470
 20
269.837727
 30
0.0
 10
331.900070
 20
269.775527
 30
0.0
 10
331.857670
 20
269.715427
 30
0.0
 10
331.812370
 20
269.657327
 30
0.0
 10
331.764270
 20
269.601627
 30
0.0
 10
331.713570
 20
269.548227
 30
0.0
 10
331.660170
 20
269.497527
 30
0.0
 10
331.604470
 20
269.449427
 30
0.0
 10
331.546370
 20
269.404127
 30
0.0
 10
331.486270
 20
269.361727
 30
0.0
 10
331.424070
 20
269.322327
 30
0.0
 10
331.359970
 20
269.286027
 30
0.0
 10
331.294170
 20
269.252927
 30
0.0
 10
331.226870
 20
269.223127
 30
0.0
 10
331.158170
 20
269.196627
 30
0.0
 10
331.088270
 20
269.173527
 30
0.0
 10
331.017370
 20
269.153927
 30
0.0
 10
330.945470
 20
269.137727
 30
0.0
 10
330.872970
 20
269.125127
 30
0.0
 10
330.799870
 20
269.116127
 30
0.0
 10
330.726470
 20
269.110727
 30
0.0
 10
330.652870
 20
269.108927
 30
0.0
 10
330.579270
 20
269.110727
 30
0.0
 10
330.505870
 20
269.116127
 30
0.0
 10
330.432770
 20
269.125127
 30
0.0
 10
330.360270
 20
269.137727
 30
0.0
 10
330.288370
 20
269.153927
 30
0.0
 10
330.217470
 20
269.173527
 30
0.0
 10
330.147570
 20
269.196627
 30
0.0
 10
330.078870
 20
269.223127
 30
0.0
 10
330.011570
 20
269.252927
 30
0.0
 10
329.945770
 20
269.286027
 30
0.0
 10
329.881670
 20
269.322327
 30
0.0
 10
329.819470
 20
269.361727
 30
0.0
 10
329.759370
 20
269.404127
 30
0.0
 10
329.701270
 20
269.449427
 30
0.0
 10
329.645570
 20
269.497527
 30
0.0
 10
329.592170
 20
269.548227
 30
0.0
 10
329.541470
 20
269.601627
 30
0.0
 10
329.493370
 20
269.657327
 30
0.0
 10
329.448070
 20
269.715427
 30
0.0
 10
329.405670
 20
269.775527
 30
0.0
 10
329.366270
 20
269.837727
 30
0.0
 10
329.329970
 20
269.901827
 30
0.0
 10
329.296870
 20
269.967627
 30
0.0
 10
329.267070
 20
270.034927
 30
0.0
 10
329.240570
 20
270.103627
 30
0.0
 10
329.217470
 20
270.173527
 30
0.0
 10
329.197870
 20
270.244427
 30
0.0
 10
329.181670
 20
270.316327
 30
0.0
 10
329.169070
 20
270.388827
 30
0.0
 10
329.160070
 20
270.461927
 30
0.0
 10
329.155070
 20
270.535327
 30
0.0
  0
LWPOLYLINE
  5
106
100
AcDbEntity
  8
top_plate
 62
7
100
AcDbPolyline
 90
17
 70
1
 10
330.646000
 20
237.559700
 30
0.0
 10
330.238000
 20
237.642200
 30
0.0
 10
329.904000
 20
237.867300
 30
0.0
 10
329.679000
 20
238.201000
 30
0.0
 10
329.596000
 20
238.609700
 30
0.0
 10
329.679000
 20
239.018400
 30
0.0
 10
329.904000
 20
239.352200
 30
0.0
 10
330.238000
 20
239.577200
 30
0.0
 10
330.646000
 20
239.659700
 30
0.0
 10
331.055000
 20
239.577200
 30
0.0
 10
331.389000
 20
239.352200
 30
0.0
 10
331.614000
 20
239.018400
 30
0.0
 10
331.696000
 20
238.609700
 30
0.0
 10
331.614000
 20
238.201000
 30
0.0
 10
331.389000
 20
237.867300
 30
0.0
 10
331.055000
 20
237.642200
 30
0.0
 10
330.646000
 20
237.559700
 30
0.0
  0
LWPOLYLINE
  5
107
100
AcDbEntity
  8
top_plate
 62
7
100
AcDbPolyline
 90
17
 70
1
 10
298.652000
 20
237.567200
 30
0.0
 10
298.243000
 20
237.649700
 30
0.0
 10
297.909000
 20
237.874800
 30
0.0
 10
297.684000
 20
238.208500
 30
0.0
 10
297.602000
 20
238.617200
 30
0.0
 10
297.684000
 20
239.025900
 30
0.0
 10
297.909000
 20
239.359700
 30
0.0
 10
298.243000
 20
239.584700
 30
0.0
 10
298.652000
 20
239.667200
 30
0.0
 10
299.060000
 20
239.584700
 30
0.0
 10
299.394000
 20
239.359700
 30
0.0
 10
299.619000
 20
239.025900
 30
0.0
 10
299.702000
 20
238.617200
 30
0.0
 10
299.619000
 20
238.208500
 30
0.0
 10
299.394000
 20
237.874800
 30
0.0
 10
299.060000
 20
237.649700
 30
0.0
 10
298.652000
 20
237.567200
 30
0.0
  0
LWPOLYLINE
  5
108
100
AcDbEntity
  8
top_plate
 62
7
100
AcDbPolyline
 90
17
 70
1
 10
330.646000
 20
269.557800
 30
0.0
 10
330.238000
 20
269.640300
 30
0.0
 10
329.904000
 20
269.865400
 30
0.0
 10
329.679000
 20
270.199100
 30
0.0
 10
329.596000
 20
270.607800
 30
0.0
 10
329.679000
 20
271.016500
 30
0.0
 10
329.904000
 20
271.350300
 30
0.0
 10
330.238000
 20
271.575300
 30
0.0
 10
330.646000
 20
271.657800
 30
0.0
 10
331.055000
 20
271.575300
 30
0.0
 10
331.389000
 20
271.350300
 30
0.0
 10
331.614000
 20
271.016500
 30
0.0
 10
331.696000
 20
270.607800
 30
0.0
 10
331.614000
 20
270.199100
 30
0.0
 10
331.389000
 20
269.865400
 30
0.0
 10
331.055000
 20
269.640300
 30
0.0
 10
330.646000
 20
269.557800
 30
0.0
  0
LWPOLYLINE
  5
109
100
AcDbEntity
  8
top_plate
 62
7
100
AcDbPolyline
 90
17
 70
1
 10
298.652000
 20
269.565300
 30
0.0
 10
298.243000
 20
269.647800
 30
0.0
 10
297.909000
 20
269.872900
 30
0.0
 10
297.684000
 20
270.206600
 30
0.0
 10
297.602000
 20
270.615300
 30
0.0
 10
297.684000
 20
271.024000
 30
0.0
 10
297.909000
 20
271.357800
 30
0.0
 10
298.243000
 20
271.582800
 30
0.0
 10
298.652000
 20
271.665300
 30
0.0
 10
299.060000
 20
271.582800
 30
0.0
 10
299.394000
 20
271.357800
 30
0.0
 10
299.619000
 20
271.024000
 30
0.0
 10
299.702000
 20
270.615300
 30
0.0
 10
299.619000
 20
270.206600
 30
0.0
 10
299.394000
 20
269.872900
 30
0.0
 10
299.060000
 20
269.647800
 30
0.0
 10
298.652000
 20
269.565300
 30
0.0
  0
LWPOLYLINE
  5
10a
100
AcDbEntity
  8
top_plate
 62
7
100
AcDbPolyline
 90
4
 70
1
 10
295.402000
 20
273.863400
 30
0.0
 10
333.900000
 20
273.863400
 30
0.0
 10
333.900000
 20
235.354400
 30
0.0
 10
295.402000
 20
235.354400
 30
0.0
  0
LWPOLYLINE
  5
10b
100
AcDbEntity
  8
top_plate
 62
7
100
AcDbPolyline
 90
4
 70
1
 10
317.088000
 20
232.324000
 30
0.0
 10
317.088000
 20
218.324000
 30
0.0
 10
331.088000
 20
218.324000
 30
0.0
 10
331.088000
 20
232.324000
 30
0.0
  0
LWPOLYLINE
  5
10c
100
AcDbEntity
  8
top_plate
 62
7
100
AcDbPolyline
 90
17
 70
1
 10
166.835000
 20
194.140000
 30
0.0
 10
166.426000
 20
194.222000
 30
0.0
 10
166.092000
 20
194.447000
 30
0.0
 10
165.867000
 20
194.781000
 30
0.0
 10
165.785000
 20
195.190000
 30
0.0
 10
165.867000
 20
195.599000
 30
0.0
 10
166.092000
 20
195.932000
 30
0.0
 10
166.426000
 20
196.157000
 30
0.0
 10
166.835000
 20
196.240000
 30
0.0
 10
167.244000
 20
196.157000
 30
0.0
 10
167.577000
 20
195.932000
 30
0.0
 10
167.802000
 20
195.599000
 30
0.0
 10
167.885000
 20
195.190000
 30
0.0
 10
167.802000
 20
194.781000
 30
0.0
 10
167.577000
 20
194.447000
 30
0.0
 10
167.244000
 20
194.222000
 30
0.0
 10
166.835000
 20
194.140000
 30
0.0
  0
LWPOLYLINE
  5
10d
100
AcDbEntity
  8
top_plate
 62
7
100
AcDbPolyline
 90
17
 70
1
 10
166.835000
 20
292.515390
 30
0.0
 10
166.426000
 20
292.597900
 30
0.0
 10
166.092000
 20
292.822920
 30
0.0
 10
165.867000
 20
293.156680
 30
0.0
 10
165.785000
 20
293.565390
 30
0.0
 10
165.867000
 20
293.974090
 30
0.0
 10
166.092000
 20
294.307850
 30
0.0
 10
166.426000
 20
294.532870
 30
0.0
 10
166.835000
 20
294.615390
 30
0.0
 10
167.244000
 20
294.532870
 30
0.0
 10
167.577000
 20
294.307850
 30
0.0
 10
167.802000
 20
293.974090
 30
0.0
 10
167.885000
 20
293.565390
 30
0.0
 10
167.802000
 20
293.156680
 30
0.0
 10
167.577000
 20
292.822920
 30
0.0
 10
167.244000
 20
292.597900
 30
0.0
 10
166.835000
 20
292.515390
 30
0.0
  0
LWPOLYLINE
  5
10e
100
AcDbEntity
  8
top_plate
 62
7
100
AcDbPolyline
 90
29
 70
1
 10
3.111890
 20
297.656938
 30
0.0
 10
335.494000
 20
297.656938
 30
0.0
 10
336.255000
 20
297.580152
 30
0.0
 10
336.965000
 20
297.359925
 30
0.0
 10
338.166000
 20
296.549941
 30
0.0
 10
338.976000
 20
295.348570
 30
0.0
 10
339.196000
 20
294.639120
 30
0.0
 10
339.273000
 20
293.877410
 30
0.0
 10
339.273000
 20
194.878000
 30
0.0
 10
339.196000
 20
194.116000
 30
0.0
 10
338.976000
 20
193.407000
 30
0.0
 10
338.166000
 20
192.205000
 30
0.0
 10
336.965000
 20
191.395000
 30
0.0
 10
336.255000
 20
191.175000
 30
0.0
 10
335.494000
 20
191.098000
 30
0.0
 10
3.111890
 20
191.098000
 30
0.0
 10
2.350180
 20
191.175000
 30
0.0
 10
1.640730
 20
191.395000
 30
0.0
 10
0.439358
 20
192.205000
 30
0.0
 10
-0.370626
 20
193.407000
 30
0.0
 10
-0.590853
 20
194.116000
 30
0.0
 10
-0.667639
 20
194.878000
 30
0.0
 10
-0.667639
 20
293.877410
 30
0.0
 10
-0.590853
 20
294.639120
 30
0.0
 10
-0.370625
 20
295.348570
 30
0.0
 10
0.439359
 20
296.549940
 30
0.0
 10
1.640730
 20
297.359924
 30
0.0
 10
2.350180
 20
297.580151
 30
0.0
 10
3.111890
 20
297.656938
 30
0.0
  0
LWPOLYLINE
  5
10f
100
AcDbEntity
  8
top_plate
 62
7
100
AcDbPolyline
 90
17
 70
1
 10
285.651000
 20
233.772900
 30
0.0
 10
285.242000
 20
233.855400
 30
0.0
 10
284.908000
 20
234.080400
 30
0.0
 10
284.683000
 20
234.414200
 30
0.0
 10
284.601000
 20
234.822900
 30
0.0
 10
284.683000
 20
235.231600
 30
0.0
 10
284.908000
 20
235.565400
 30
0.0
 10
285.242000
 20
235.790400
 30
0.0
 10
285.651000
 20
235.872900
 30
0.0
 10
286.059000
 20
235.790400
 30
0.0
 10
286.393000
 20
235.565400
 30
0.0
 10
286.618000
 20
235.231600
 30
0.0
 10
286.701000
 20
234.822900
 30
0.0
 10
286.618000
 20
234.414200
 30
0.0
 10
286.393000
 20
234.080400
 30
0.0
 10
286.059000
 20
233.855400
 30
0.0
 10
285.651000
 20
233.772900
 30
0.0
  0
LWPOLYLINE
  5
110
100
AcDbEntity
  8
top_plate
 62
7
100
AcDbPolyline
 90
17
 70
1
 10
209.780000
 20
252.789900
 30
0.0
 10
209.372000
 20
252.872400
 30
0.0
 10
209.038000
 20
253.097400
 30
0.0
 10
208.813000
 20
253.431100
 30
0.0
 10
208.730000
 20
253.839900
 30
0.0
 10
208.813000
 20
254.248600
 30
0.0
 10
209.038000
 20
254.582300
 30
0.0
 10
209.372000
 20
254.807300
 30
0.0
 10
209.780000
 20
254.889900
 30
0.0
 10
210.189000
 20
254.807300
 30
0.0
 10
210.523000
 20
254.582300
 30
0.0
 10
210.748000
 20
254.248600
 30
0.0
 10
210.830000
 20
253.839900
 30
0.0
 10
210.748000
 20
253.431100
 30
0.0
 10
210.523000
 20
253.097400
 30
0.0
 10
210.189000
 20
252.872400
 30
0.0
 10
209.780000
 20
252.789900
 30
0.0
  0
LWPOLYLINE
  5
111
100
AcDbEntity
  8
top_plate
 62
7
100
AcDbPolyline
 90
17
 70
1
 10
133.581000
 20
233.772900
 30
0.0
 10
133.173000
 20
233.855400
 30
0.0
 10
132.839000
 20
234.080400
 30
0.0
 10
132.614000
 20
234.414200
 30
0.0
 10
132.531000
 20
234.822900
 30
0.0
 10
132.614000
 20
235.231600
 30
0.0
 10
132.839000
 20
235.565300
 30
0.0
 10
133.173000
 20
235.790400
 30
0.0
 10
133.581000
 20
235.872900
 30
0.0
 10
133.990000
 20
235.790400
 30
0.0
 10
134.324000
 20
235.565300
 30
0.0
 10
134.549000
 20
235.231600
 30
0.0
 10
134.631000
 20
234.822900
 30
0.0
 10
134.549000
 20
234.414200
 30
0.0
 10
134.324000
 20
234.080400
 30
0.0
 10
133.990000
 20
233.855400
 30
0.0
 10
133.581000
 20
233.772900
 30
0.0
  0
LWPOLYLINE
  5
112
100
AcDbEntity
  8
top_plate
 62
7
100
AcDbPolyline
 90
17
 70
1
 10
52.626700
 20
252.908200
 30
0.0
 10
52.218000
 20
252.990800
 30
0.0
 10
51.884200
 20
253.215800
 30
0.0
 10
51.659200
 20
253.549500
 30
0.0
 10
51.576700
 20
253.958200
 30
0.0
 10
51.659200
 20
254.367000
 30
0.0
 10
51.884200
 20
254.700700
 30
0.0
 10
52.218000
 20
254.925700
 30
0.0
 10
52.626700
 20
255.008200
 30
0.0
 10
53.035400
 20
254.925700
 30
0.0
 10
53.369100
 20
254.700700
 30
0.0
 10
53.594100
 20
254.367000
 30
0.0
 10
53.676700
 20
253.958200
 30
0.0
 10
53.594100
 20
253.549500
 30
0.0
 10
53.369100
 20
253.215800
 30
0.0
 10
53.035400
 20
252.990800
 30
0.0
 10
52.626700
 20
252.908200
 30
0.0
  0
LWPOLYLINE
  5
113
100
AcDbEntity
  8
top_plate
 62
7
100
AcDbPolyline
 90
17
 70
1
 10
252.634000
 20
194.140000
 30
0.0
 10
252.225000
 20
194.222000
 30
0.0
 10
251.891000
 20
194.447000
 30
0.0
 10
251.666000
 20
194.781000
 30
0.0
 10
251.584000
 20
195.190000
 30
0.0
 10
251.666000
 20
195.599000
 30
0.0
 10
251.891000
 20
195.932000
 30
0.0
 10
252.225000
 20
196.157000
 30
0.0
 10
252.634000
 20
196.240000
 30
0.0
 10
253.043000
 20
196.157000
 30
0.0
 10
253.376000
 20
195.932000
 30
0.0
 10
253.601000
 20
195.599000
 30
0.0
 10
253.684000
 20
195.190000
 30
0.0
 10
253.601000
 20
194.781000
 30
0.0
 10
253.376000
 20
194.447000
 30
0.0
 10
253.043000
 20
194.222000
 30
0.0
 10
252.634000
 20
194.140000
 30
0.0
  0
LWPOLYLINE
  5
114
100
AcDbEntity
  8
top_plate
 62
7
100
AcDbPolyline
 90
17
 70
1
 10
252.634000
 20
292.515390
 30
0.0
 10
252.225000
 20
292.597900
 30
0.0
 10
251.891000
 20
292.822930
 30
0.0
 10
251.666000
 20
293.156680
 30
0.0
 10
251.584000
 20
293.565390
 30
0.0
 10
251.666000
 20
293.974100
 30
0.0
 10
251.891000
 20
294.307850
 30
0.0
 10
252.225000
 20
294.532870
 30
0.0
 10
252.634000
 20
294.615390
 30
0.0
 10
253.043000
 20
294.532870
 30
0.0
 10
253.376000
 20
294.307850
 30
0.0
 10
253.601000
 20
293.974100
 30
0.0
 10
253.684000
 20
293.565390
 30
0.0
 10
253.601000
 20
293.156680
 30
0.0
 10
253.376000
 20
292.822930
 30
0.0
 10
253.043000
 20
292.597900
 30
0.0
 10
252.634000
 20
292.515390
 30
0.0
  0
LWPOLYLINE
  5
115
100
AcDbEntity
  8
top_plate
 62
7
100
AcDbPolyline
 90
17
 70
1
 10
81.272400
 20
194.140000
 30
0.0
 10
80.863700
 20
194.222000
 30
0.0
 10
80.529900
 20
194.447000
 30
0.0
 10
80.304900
 20
194.781000
 30
0.0
 10
80.222400
 20
195.190000
 30
0.0
 10
80.304900
 20
195.599000
 30
0.0
 10
80.529900
 20
195.932000
 30
0.0
 10
80.863700
 20
196.157000
 30
0.0
 10
81.272400
 20
196.240000
 30
0.0
 10
81.681100
 20
196.157000
 30
0.0
 10
82.014900
 20
195.932000
 30
0.0
 10
82.239900
 20
195.599000
 30
0.0
 10
82.322400
 20
195.190000
 30
0.0
 10
82.239900
 20
194.781000
 30
0.0
 10
82.014900
 20
194.447000
 30
0.0
 10
81.681100
 20
194.222000
 30
0.0
 10
81.272400
 20
194.140000
 30
0.0
  0
LWPOLYLINE
  5
116
100
AcDbEntity
  8
top_plate
 62
7
100
AcDbPolyline
 90
17
 70
1
 10
81.272400
 20
292.515390
 30
0.0
 10
80.863700
 20
292.597900
 30
0.0
 10
80.529900
 20
292.822930
 30
0.0
 10
80.304900
 20
293.156680
 30
0.0
 10
80.222400
 20
293.565390
 30
0.0
 10
80.304900
 20
293.974100
 30
0.0
 10
80.529900
 20
294.307850
 30
0.0
 10
80.863700
 20
294.532870
 30
0.0
 10
81.272400
 20
294.615390
 30
0.0
 10
81.681100
 20
294.532870
 30
0.0
 10
82.014900
 20
294.307850
 30
0.0
 10
82.239900
 20
293.974100
 30
0.0
 10
82.322400
 20
293.565390
 30
0.0
 10
82.239900
 20
293.156680
 30
0.0
 10
82.014900
 20
292.822930
 30
0.0
 10
81.681100
 20
292.597900
 30
0.0
 10
81.272400
 20
292.515390
 30
0.0
  0
LWPOLYLINE
  5
117
100
AcDbEntity
  8
top_plate
 62
7
100
AcDbPolyline
 90
17
 70
1
 10
335.185000
 20
194.140000
 30
0.0
 10
334.776000
 20
194.222000
 30
0.0
 10
334.443000
 20
194.447000
 30
0.0
 10
334.218000
 20
194.781000
 30
0.0
 10
334.135000
 20
195.190000
 30
0.0
 10
334.218000
 20
195.599000
 30
0.0
 10
334.443000
 20
195.932000
 30
0.0
 10
334.776000
 20
196.157000
 30
0.0
 10
335.185000
 20
196.240000
 30
0.0
 10
335.594000
 20
196.157000
 30
0.0
 10
335.927000
 20
195.932000
 30
0.0
 10
336.153000
 20
195.599000
 30
0.0
 10
336.235000
 20
195.190000
 30
0.0
 10
336.153000
 20
194.781000
 30
0.0
 10
335.927000
 20
194.447000
 30
0.0
 10
335.594000
 20
194.222000
 30
0.0
 10
335.185000
 20
194.140000
 30
0.0
  0
LWPOLYLINE
  5
118
100
AcDbEntity
  8
top_plate
 62
7
100
AcDbPolyline
 90
17
 70
1
 10
335.185000
 20
292.515390
 30
0.0
 10
334.776000
 20
292.597900
 30
0.0
 10
334.443000
 20
292.822930
 30
0.0
 10
334.218000
 20
293.156680
 30
0.0
 10
334.135000
 20
293.565390
 30
0.0
 10
334.218000
 20
293.974100
 30
0.0
 10
334.443000
 20
294.307850
 30
0.0
 10
334.776000
 20
294.532870
 30
0.0
 10
335.185000
 20
294.615390
 30
0.0
 10
335.594000
 20
294.532870
 30
0.0
 10
335.927000
 20
294.307850
 30
0.0
 10
336.153000
 20
293.974100
 30
0.0
 10
336.235000
 20
293.565390
 30
0.0
 10
336.153000
 20
293.156680
 30
0.0
 10
335.927000
 20
292.822930
 30
0.0
 10
335.594000
 20
292.597900
 30
0.0
 10
335.185000
 20
292.515390
 30
0.0
  0
LWPOLYLINE
  5
119
100
AcDbEntity
  8
top_plate
 62
7
100
AcDbPolyline
 90
17
 70
1
 10
3.430020
 20
194.140000
 30
0.0
 10
3.021320
 20
194.222000
 30
0.0
 10
2.687560
 20
194.447000
 30
0.0
 10
2.462540
 20
194.781000
 30
0.0
 10
2.380020
 20
195.190000
 30
0.0
 10
2.462540
 20
195.599000
 30
0.0
 10
2.687560
 20
195.932000
 30
0.0
 10
3.021320
 20
196.157000
 30
0.0
 10
3.430020
 20
196.240000
 30
0.0
 10
3.838730
 20
196.157000
 30
0.0
 10
4.172490
 20
195.932000
 30
0.0
 10
4.397510
 20
195.599000
 30
0.0
 10
4.480020
 20
195.190000
 30
0.0
 10
4.397510
 20
194.781000
 30
0.0
 10
4.172490
 20
194.447000
 30
0.0
 10
3.838730
 20
194.222000
 30
0.0
 10
3.430020
 20
194.140000
 30
0.0
  0
LWPOLYLINE
  5
11a
100
AcDbEntity
  8
top_plate
 62
7
100
AcDbPolyline
 90
17
 70
1
 10
3.430020
 20
292.515390
 30
0.0
 10
3.021320
 20
292.597910
 30
0.0
 10
2.687560
 20
292.822930
 30
0.0
 10
2.462540
 20
293.156690
 30
0.0
 10
2.380020
 20
293.565390
 30
0.0
 10
2.462540
 20
293.974100
 30
0.0
 10
2.687560
 20
294.307860
 30
0.0
 10
3.021320
 20
294.532880
 30
0.0
 10
3.430020
 20
294.615390
 30
0.0
 10
3.838730
 20
294.532880
 30
0.0
 10
4.172490
 20
294.307860
 30
0.0
 10
4.397510
 20
293.974100
 30
0.0
 10
4.480020
 20
293.565390
 30
0.0
 10
4.397510
 20
293.156690
 30
0.0
 10
4.172490
 20
292.822930
 30
0.0
 10
3.838730
 20
292.597910
 30
0.0
 10
3.430020
 20
292.515390
 30
0.0
  0
LWPOLYLINE
  5
11b
100
AcDbEntity
  8
top_plate
 62
7
100
AcDbPolyline
 90
12
 70
1
 10
255.176000
 20
289.474000
 30
0.0
 10
288.226000
 20
289.474000
 30
0.0
 10
288.226000
 20
275.474000
 30
0.0
 10
285.258000
 20
275.474000
 30
0.0
 10
285.251000
 20
274.724000
 30
0.0
 10
281.951000
 20
274.724000
 30
0.0
 10
281.951000
 20
275.473700
 30
0.0
 10
261.455000
 20
275.473700
 30
0.0
 10
261.451000
 20
274.724000
 30
0.0
 10
258.150000
 20
274.724000
 30
0.0
 10
258.150000
 20
275.469500
 30
0.0
 10
255.176000
 20
275.474000
 30
0.0
  0
LWPOLYLINE
  5
11c
100
AcDbEntity
  8
top_plate
 62
7
100
AcDbPolyline
 90
22
 70
1
 10
284.374000
 20
262.424000
 30
0.0
 10
284.374000
 20
269.174000
 30
0.0
 10
283.463000
 20
269.162400
 30
0.0
 10
283.463000
 20
270.424000
 30
0.0
 10
269.463000
 20
270.424000
 30
0.0
 10
269.463000
 20
256.424000
 30
0.0
 10
271.852000
 20
256.424000
 30
0.0
 10
271.852000
 20
251.375900
 30
0.0
 10
250.413000
 20
251.374000
 30
0.0
 10
250.413000
 20
237.374000
 30
0.0
 10
255.761000
 20
237.374000
 30
0.0
 10
255.769000
 20
236.624000
 30
0.0
 10
259.068000
 20
236.624000
 30
0.0
 10
259.068000
 20
237.373700
 30
0.0
 10
279.564000
 20
237.373900
 30
0.0
 10
279.569000
 20
236.624000
 30
0.0
 10
282.869000
 20
236.624000
 30
0.0
 10
282.873000
 20
237.373900
 30
0.0
 10
285.851000
 20
237.373900
 30
0.0
 10
285.844000
 20
260.899000
 30
0.0
 10
283.466000
 20
260.903600
 30
0.0
 10
283.466000
 20
262.424000
 30
0.0
  0
LWPOLYLINE
  5
11d
100
AcDbEntity
  8
top_plate
 62
7
100
AcDbPolyline
 90
13
 70
1
 10
278.110000
 20
218.324000
 30
0.0
 10
288.226000
 20
218.324000
 30
0.0
 10
288.226000
 20
232.324000
 30
0.0
 10
271.557000
 20
232.324000
 30
0.0
 10
248.032000
 20
232.324000
 30
0.0
 10
248.032000
 20
218.324000
 30
0.0
 10
251.009000
 20
218.324000
 30
0.0
 10
251.007000
 20
217.574000
 30
0.0
 10
254.307000
 20
217.574000
 30
0.0
 10
254.309000
 20
218.324000
 30
0.0
 10
274.807000
 20
218.324000
 30
0.0
 10
274.807000
 20
217.574000
 30
0.0
 10
278.107000
 20
217.574000
 30
0.0
  0
LWPOLYLINE
  5
11e
100
AcDbEntity
  8
top_plate
 62
7
100
AcDbPolyline
 90
40
 70
1
 10
177.832000
 20
203.975000
 30
0.0
 10
177.832000
 20
199.505000
 30
0.0
 10
179.557000
 20
199.505000
 30
0.0
 10
179.557000
 20
198.524000
 30
0.0
 10
182.857000
 20
198.524000
 30
0.0
 10
182.858000
 20
199.505000
 30
0.0
 10
184.313000
 20
199.505000
 30
0.0
 10
184.319000
 20
198.524000
 30
0.0
 10
187.619000
 20
198.524000
 30
0.0
 10
187.619000
 20
199.505000
 30
0.0
 10
189.344000
 20
199.505000
 30
0.0
 10
189.344000
 20
205.774000
 30
0.0
 10
190.169000
 20
205.774000
 30
0.0
 10
190.169000
 20
208.574000
 30
0.0
 10
189.344000
 20
208.574000
 30
0.0
 10
189.344000
 20
211.804000
 30
0.0
 10
177.832000
 20
211.804000
 30
0.0
 10
177.832000
 20
208.574000
 30
0.0
 10
176.307000
 20
208.574000
 30
0.0
 10
176.307000
 20
213.274000
 30
0.0
 10
162.307000
 20
213.274000
 30
0.0
 10
162.307000
 20
208.574000
 30
0.0
 10
160.782000
 20
208.574000
 30
0.0
 10
160.782000
 20
211.804000
 30
0.0
 10
154.032000
 20
211.804000
 30
0.0
 10
154.032000
 20
208.574000
 30
0.0
 10
153.207000
 20
208.574000
 30
0.0
 10
153.207000
 20
205.774000
 30
0.0
 10
154.032000
 20
205.774000
 30
0.0
 10
154.032000
 20
199.505000
 30
0.0
 10
155.757000
 20
199.505000
 30
0.0
 10
155.757000
 20
198.524000
 30
0.0
 10
159.057000
 20
198.524000
 30
0.0
 10
159.057000
 20
199.505000
 30
0.0
 10
160.782000
 20
199.505000
 30
0.0
 10
160.782000
 20
203.975000
 30
0.0
 10
162.307000
 20
203.975000
 30
0.0
 10
162.307000
 20
199.274000
 30
0.0
 10
176.307000
 20
199.274000
 30
0.0
 10
176.307000
 20
203.975000
 30
0.0
  0
LWPOLYLINE
  5
11f
100
AcDbEntity
  8
top_plate
 62
7
100
AcDbPolyline
 90
4
 70
1
 10
124.207000
 20
213.274000
 30
0.0
 10
142.969000
 20
213.274000
 30
0.0
 10
142.969000
 20
199.274000
 30
0.0
 10
124.207000
 20
199.274000
 30
0.0
  0
LWPOLYLINE
  5
120
100
AcDbEntity
  8
top_plate
 62
7
100
AcDbPolyline
 90
12
 70
1
 10
39.982300
 20
218.324000
 30
0.0
 10
45.338000
 20
218.324000
 30
0.0
 10
45.338000
 20
232.324000
 30
0.0
 10
9.907000
 20
232.324000
 30
0.0
 10
9.907000
 20
218.324000
 30
0.0
 10
12.881000
 20
218.324000
 30
0.0
 10
12.882000
 20
217.574000
 30
0.0
 10
16.182000
 20
217.574000
 30
0.0
 10
16.188600
 20
218.324000
 30
0.0
 10
36.682500
 20
218.324000
 30
0.0
 10
36.682000
 20
217.574000
 30
0.0
 10
39.982000
 20
217.574000
 30
0.0
  0
LWPOLYLINE
  5
121
100
AcDbEntity
  8
top_plate
 62
7
100
AcDbPolyline
 90
4
 70
1
 10
9.907000
 20
251.374000
 30
0.0
 10
28.669000
 20
251.374000
 30
0.0
 10
28.669000
 20
237.374000
 30
0.0
 10
9.907000
 20
237.374000
 30
0.0
  0
LWPOLYLINE
  5
122
100
AcDbEntity
  8
top_plate
 62
7
100
AcDbPolyline
 90
4
 70
1
 10
7.526000
 20
275.474000
 30
0.0
 10
21.526000
 20
275.474000
 30
0.0
 10
21.526000
 20
289.474000
 30
0.0
 10
7.526000
 20
289.474000
 30
0.0
  0
LWPOLYLINE
  5
123
100
AcDbEntity
  8
top_plate
 62
7
100
AcDbPolyline
 90
4
 70
1
 10
26.576000
 20
275.474000
 30
0.0
 10
40.576000
 20
275.474000
 30
0.0
 10
40.576000
 20
289.474000
 30
0.0
 10
26.576000
 20
289.474000
 30
0.0
  0
LWPOLYLINE
  5
124
100
AcDbEntity
  8
top_plate
 62
7
100
AcDbPolyline
 90
4
 70
1
 10
45.626000
 20
275.474000
 30
0.0
 10
59.626000
 20
275.474000
 30
0.0
 10
59.626000
 20
289.474000
 30
0.0
 10
45.626000
 20
289.474000
 30
0.0
  0
LWPOLYLINE
  5
125
100
AcDbEntity
  8
top_plate
 62
7
100
AcDbPolyline
 90
4
 70
1
 10
64.676000
 20
275.474000
 30
0.0
 10
78.676000
 20
275.474000
 30
0.0
 10
78.676000
 20
289.474000
 30
0.0
 10
64.676000
 20
289.474000
 30
0.0
  0
LWPOLYLINE
  5
126
100
AcDbEntity
  8
top_plate
 62
7
100
AcDbPolyline
 90
4
 70
1
 10
83.726000
 20
275.474000
 30
0.0
 10
97.726000
 20
275.474000
 30
0.0
 10
97.726000
 20
289.474000
 30
0.0
 10
83.726000
 20
289.474000
 30
0.0
  0
LWPOLYLINE
  5
127
100
AcDbEntity
  8
top_plate
 62
7
100
AcDbPolyline
 90
4
 70
1
 10
102.775000
 20
275.474000
 30
0.0
 10
116.775000
 20
275.474000
 30
0.0
 10
116.775000
 20
289.474000
 30
0.0
 10
102.775000
 20
289.474000
 30
0.0
  0
LWPOLYLINE
  5
128
100
AcDbEntity
  8
top_plate
 62
7
100
AcDbPolyline
 90
4
 70
1
 10
121.825000
 20
275.474000
 30
0.0
 10
135.826000
 20
275.474000
 30
0.0
 10
135.826000
 20
289.474000
 30
0.0
 10
121.825000
 20
289.474000
 30
0.0
  0
LWPOLYLINE
  5
129
100
AcDbEntity
  8
top_plate
 62
7
100
AcDbPolyline
 90
4
 70
1
 10
140.876000
 20
275.474000
 30
0.0
 10
154.876000
 20
275.474000
 30
0.0
 10
154.876000
 20
289.474000
 30
0.0
 10
140.876000
 20
289.474000
 30
0.0
  0
LWPOLYLINE
  5
12a
100
AcDbEntity
  8
top_plate
 62
7
100
AcDbPolyline
 90
4
 70
1
 10
159.926000
 20
275.474000
 30
0.0
 10
173.926000
 20
275.474000
 30
0.0
 10
173.926000
 20
289.474000
 30
0.0
 10
159.926000
 20
289.474000
 30
0.0
  0
LWPOLYLINE
  5
12b
100
AcDbEntity
  8
top_plate
 62
7
100
AcDbPolyline
 90
4
 70
1
 10
178.976000
 20
275.474000
 30
0.0
 10
192.976000
 20
275.474000
 30
0.0
 10
192.976000
 20
289.474000
 30
0.0
 10
178.976000
 20
289.474000
 30
0.0
  0
LWPOLYLINE
  5
12c
100
AcDbEntity
  8
top_plate
 62
7
100
AcDbPolyline
 90
4
 70
1
 10
198.026000
 20
275.474000
 30
0.0
 10
212.026000
 20
275.474000
 30
0.0
 10
212.026000
 20
289.474000
 30
0.0
 10
198.026000
 20
289.474000
 30
0.0
  0
LWPOLYLINE
  5
12d
100
AcDbEntity
  8
top_plate
 62
7
100
AcDbPolyline
 90
4
 70
1
 10
217.076000
 20
275.474000
 30
0.0
 10
231.076000
 20
275.474000
 30
0.0
 10
231.076000
 20
289.474000
 30
0.0
 10
217.076000
 20
289.474000
 30
0.0
  0
LWPOLYLINE
  5
12e
100
AcDbEntity
  8
top_plate
 62
7
100
AcDbPolyline
 90
4
 70
1
 10
236.126000
 20
275.474000
 30
0.0
 10
250.126000
 20
275.474000
 30
0.0
 10
250.126000
 20
289.474000
 30
0.0
 10
236.126000
 20
289.474000
 30
0.0
  0
LWPOLYLINE
  5
12f
100
AcDbEntity
  8
top_plate
 62
7
100
AcDbPolyline
 90
4
 70
1
 10
12.288000
 20
256.424000
 30
0.0
 10
26.288000
 20
256.424000
 30
0.0
 10
26.288000
 20
270.424000
 30
0.0
 10
12.288000
 20
270.424000
 30
0.0
  0
LWPOLYLINE
  5
130
100
AcDbEntity
  8
top_plate
 62
7
100
AcDbPolyline
 90
4
 70
1
 10
36.101000
 20
256.424000
 30
0.0
 10
50.101000
 20
256.424000
 30
0.0
 10
50.101000
 20
270.424000
 30
0.0
 10
36.101000
 20
270.424000
 30
0.0
  0
LWPOLYLINE
  5
131
100
AcDbEntity
  8
top_plate
 62
7
100
AcDbPolyline
 90
4
 70
1
 10
55.151000
 20
256.424000
 30
0.0
 10
69.151000
 20
256.424000
 30
0.0
 10
69.151000
 20
270.424000
 30
0.0
 10
55.151000
 20
270.424000
 30
0.0
  0
LWPOLYLINE
  5
132
100
AcDbEntity
  8
top_plate
 62
7
100
AcDbPolyline
 90
4
 70
1
 10
74.201000
 20
256.424000
 30
0.0
 10
88.201000
 20
256.424000
 30
0.0
 10
88.201000
 20
270.424000
 30
0.0
 10
74.201000
 20
270.424000
 30
0.0
  0
LWPOLYLINE
  5
133
100
AcDbEntity
  8
top_plate
 62
7
100
AcDbPolyline
 90
4
 70
1
 10
93.251000
 20
256.424000
 30
0.0
 10
107.251000
 20
256.424000
 30
0.0
 10
107.251000
 20
270.424000
 30
0.0
 10
93.251000
 20
270.424000
 30
0.0
  0
LWPOLYLINE
  5
134
100
AcDbEntity
  8
top_plate
 62
7
100
AcDbPolyline
 90
4
 70
1
 10
112.301000
 20
256.424000
 30
0.0
 10
126.301000
 20
256.424000
 30
0.0
 10
126.301000
 20
270.424000
 30
0.0
 10
112.301000
 20
270.424000
 30
0.0
  0
LWPOLYLINE
  5
135
100
AcDbEntity
  8
top_plate
 62
7
100
AcDbPolyline
 90
4
 70
1
 10
131.351000
 20
256.424000
 30
0.0
 10
145.351000
 20
256.424000
 30
0.0
 10
145.351000
 20
270.424000
 30
0.0
 10
131.351000
 20
270.424000
 30
0.0
  0
LWPOLYLINE
  5
136
100
AcDbEntity
  8
top_plate
 62
7
100
AcDbPolyline
 90
4
 70
1
 10
150.401000
 20
256.424000
 30
0.0
 10
164.401000
 20
256.424000
 30
0.0
 10
164.401000
 20
270.424000
 30
0.0
 10
150.401000
 20
270.424000
 30
0.0
  0
LWPOLYLINE
  5
137
100
AcDbEntity
  8
top_plate
 62
7
100
AcDbPolyline
 90
4
 70
1
 10
169.451000
 20
256.424000
 30
0.0
 10
183.451000
 20
256.424000
 30
0.0
 10
183.451000
 20
270.424000
 30
0.0
 10
169.451000
 20
270.424000
 30
0.0
  0
LWPOLYLINE
  5
138
100
AcDbEntity
  8
top_plate
 62
7
100
AcDbPolyline
 90
4
 70
1
 10
188.501000
 20
256.424000
 30
0.0
 10
202.501000
 20
256.424000
 30
0.0
 10
202.501000
 20
270.424000
 30
0.0
 10
188.501000
 20
270.424000
 30
0.0
  0
LWPOLYLINE
  5
139
100
AcDbEntity
  8
top_plate
 62
7
100
AcDbPolyline
 90
4
 70
1
 10
207.551000
 20
256.424000
 30
0.0
 10
221.551000
 20
256.424000
 30
0.0
 10
221.551000
 20
270.424000
 30
0.0
 10
207.551000
 20
270.424000
 30
0.0
  0
LWPOLYLINE
  5
13a
100
AcDbEntity
  8
top_plate
 62
7
100
AcDbPolyline
 90
4
 70
1
 10
226.601000
 20
256.424000
 30
0.0
 10
240.601000
 20
256.424000
 30
0.0
 10
240.601000
 20
270.424000
 30
0.0
 10
226.601000
 20
270.424000
 30
0.0
  0
LWPOLYLINE
  5
13b
100
AcDbEntity
  8
top_plate
 62
7
100
AcDbPolyline
 90
4
 70
1
 10
245.651000
 20
256.424000
 30
0.0
 10
259.650000
 20
256.424000
 30
0.0
 10
259.650000
 20
270.424000
 30
0.0
 10
245.651000
 20
270.424000
 30
0.0
  0
LWPOLYLINE
  5
13c
100
AcDbEntity
  8
top_plate
 62
7
100
AcDbPolyline
 90
4
 70
1
 10
40.863000
 20
237.374000
 30
0.0
 10
54.863000
 20
237.374000
 30
0.0
 10
54.863000
 20
251.374000
 30
0.0
 10
40.863000
 20
251.374000
 30
0.0
  0
LWPOLYLINE
  5
13d
100
AcDbEntity
  8
top_plate
 62
7
100
AcDbPolyline
 90
4
 70
1
 10
59.913000
 20
237.374000
 30
0.0
 10
73.913000
 20
237.374000
 30
0.0
 10
73.913000
 20
251.374000
 30
0.0
 10
59.913000
 20
251.374000
 30
0.0
  0
LWPOLYLINE
  5
13e
100
AcDbEntity
  8
top_plate
 62
7
100
AcDbPolyline
 90
4
 70
1
 10
78.963000
 20
237.374000
 30
0.0
 10
92.963000
 20
237.374000
 30
0.0
 10
92.963000
 20
251.374000
 30
0.0
 10
78.963000
 20
251.374000
 30
0.0
  0
LWPOLYLINE
  5
13f
100
AcDbEntity
  8
top_plate
 62
7
100
AcDbPolyline
 90
4
 70
1
 10
98.013000
 20
237.374000
 30
0.0
 10
112.013000
 20
237.374000
 30
0.0
 10
112.013000
 20
251.374000
 30
0.0
 10
98.013000
 20
251.374000
 30
0.0
  0
LWPOLYLINE
  5
140
100
AcDbEntity
  8
top_plate
 62
7
100
AcDbPolyline
 90
4
 70
1
 10
117.063000
 20
237.374000
 30
0.0
 10
131.063000
 20
237.374000
 30
0.0
 10
131.063000
 20
251.374000
 30
0.0
 10
117.063000
 20
251.374000
 30
0.0
  0
LWPOLYLINE
  5
141
100
AcDbEntity
  8
top_plate
 62
7
100
AcDbPolyline
 90
4
 70
1
 10
136.113000
 20
237.374000
 30
0.0
 10
150.113000
 20
237.374000
 30
0.0
 10
150.113000
 20
251.374000
 30
0.0
 10
136.113000
 20
251.374000
 30
0.0
  0
LWPOLYLINE
  5
142
100
AcDbEntity
  8
top_plate
 62
7
100
AcDbPolyline
 90
4
 70
1
 10
155.163000
 20
237.374000
 30
0.0
 10
169.163000
 20
237.374000
 30
0.0
 10
169.163000
 20
251.374000
 30
0.0
 10
155.163000
 20
251.374000
 30
0.0
  0
LWPOLYLINE
  5
143
100
AcDbEntity
  8
top_plate
 62
7
100
AcDbPolyline
 90
4
 70
1
 10
174.213000
 20
237.374000
 30
0.0
 10
188.213000
 20
237.374000
 30
0.0
 10
188.213000
 20
251.374000
 30
0.0
 10
174.213000
 20
251.374000
 30
0.0
  0
LWPOLYLINE
  5
144
100
AcDbEntity
  8
top_plate
 62
7
100
AcDbPolyline
 90
4
 70
1
 10
193.263000
 20
237.374000
 30
0.0
 10
207.263000
 20
237.374000
 30
0.0
 10
207.263000
 20
251.374000
 30
0.0
 10
193.263000
 20
251.374000
 30
0.0
  0
LWPOLYLINE
  5
145
100
AcDbEntity
  8
top_plate
 62
7
100
AcDbPolyline
 90
4
 70
1
 10
212.313000
 20
237.374000
 30
0.0
 10
226.313000
 20
237.374000
 30
0.0
 10
226.313000
 20
251.374000
 30
0.0
 10
212.313000
 20
251.374000
 30
0.0
  0
LWPOLYLINE
  5
146
100
AcDbEntity
  8
top_plate
 62
7
100
AcDbPolyline
 90
4
 70
1
 10
231.363000
 20
237.374000
 30
0.0
 10
245.363000
 20
237.374000
 30
0.0
 10
245.363000
 20
251.374000
 30
0.0
 10
231.363000
 20
251.374000
 30
0.0
  0
LWPOLYLINE
  5
147
100
AcDbEntity
  8
top_plate
 62
7
100
AcDbPolyline
 90
4
 70
1
 10
50.388000
 20
218.324000
 30
0.0
 10
64.388000
 20
218.324000
 30
0.0
 10
64.388000
 20
232.324000
 30
0.0
 10
50.388000
 20
232.324000
 30
0.0
  0
LWPOLYLINE
  5
148
100
AcDbEntity
  8
top_plate
 62
7
100
AcDbPolyline
 90
4
 70
1
 10
69.438000
 20
218.324000
 30
0.0
 10
83.438000
 20
218.324000
 30
0.0
 10
83.438000
 20
232.324000
 30
0.0
 10
69.438000
 20
232.324000
 30
0.0
  0
LWPOLYLINE
  5
149
100
AcDbEntity
  8
top_plate
 62
7
100
AcDbPolyline
 90
4
 70
1
 10
88.488000
 20
218.324000
 30
0.0
 10
102.488000
 20
218.324000
 30
0.0
 10
102.488000
 20
232.324000
 30
0.0
 10
88.488000
 20
232.324000
 30
0.0
  0
LWPOLYLINE
  5
14a
100
AcDbEntity
  8
top_plate
 62
7
100
AcDbPolyline
 90
4
 70
1
 10
107.538000
 20
218.324000
 30
0.0
 10
121.538000
 20
218.324000
 30
0.0
 10
121.538000
 20
232.324000
 30
0.0
 10
107.538000
 20
232.324000
 30
0.0
  0
LWPOLYLINE
  5
14b
100
AcDbEntity
  8
top_plate
 62
7
100
AcDbPolyline
 90
4
 70
1
 10
126.588000
 20
218.324000
 30
0.0
 10
140.588000
 20
218.324000
 30
0.0
 10
140.588000
 20
232.324000
 30
0.0
 10
126.588000
 20
232.324000
 30
0.0
  0
LWPOLYLINE
  5
14c
100
AcDbEntity
  8
top_plate
 62
7
100
AcDbPolyline
 90
4
 70
1
 10
145.638000
 20
218.324000
 30
0.0
 10
159.638000
 20
218.324000
 30
0.0
 10
159.638000
 20
232.324000
 30
0.0
 10
145.638000
 20
232.324000
 30
0.0
  0
LWPOLYLINE
  5
14d
100
AcDbEntity
  8
top_plate
 62
7
100
AcDbPolyline
 90
4
 70
1
 10
164.688000
 20
218.324000
 30
0.0
 10
178.688000
 20
218.324000
 30
0.0
 10
178.688000
 20
232.324000
 30
0.0
 10
164.688000
 20
232.324000
 30
0.0
  0
LWPOLYLINE
  5
14e
100
AcDbEntity
  8
top_plate
 62
7
100
AcDbPolyline
 90
4
 70
1
 10
183.738000
 20
218.324000
 30
0.0
 10
197.738000
 20
218.324000
 30
0.0
 10
197.738000
 20
232.324000
 30
0.0
 10
183.738000
 20
232.324000
 30
0.0
  0
LWPOLYLINE
  5
14f
100
AcDbEntity
  8
top_plate
 62
7
100
AcDbPolyline
 90
4
 70
1
 10
202.788000
 20
218.324000
 30
0.0
 10
216.788000
 20
218.324000
 30
0.0
 10
216.788000
 20
232.324000
 30
0.0
 10
202.788000
 20
232.324000
 30
0.0
  0
LWPOLYLINE
  5
150
100
AcDbEntity
  8
top_plate
 62
7
100
AcDbPolyline
 90
4
 70
1
 10
221.838000
 20
218.324000
 30
0.0
 10
235.838000
 20
218.324000
 30
0.0
 10
235.838000
 20
232.324000
 30
0.0
 10
221.838000
 20
232.324000
 30
0.0
  0
LWPOLYLINE
  5
151
100
AcDbEntity
  8
top_plate
 62
7
100
AcDbPolyline
 90
4
 70
1
 10
298.038000
 20
218.324000
 30
0.0
 10
312.038000
 20
218.324000
 30
0.0
 10
312.038000
 20
232.324000
 30
0.0
 10
298.038000
 20
232.324000
 30
0.0
  0
LWPOLYLINE
  5
152
100
AcDbEntity
  8
top_plate
 62
7
100
AcDbPolyline
 90
4
 70
1
 10
9.907000
 20
199.274000
 30
0.0
 10
23.907000
 20
199.274000
 30
0.0
 10
23.907000
 20
213.274000
 30
0.0
 10
9.907000
 20
213.274000
 30
0.0
  0
LWPOLYLINE
  5
153
100
AcDbEntity
  8
top_plate
 62
7
100
AcDbPolyline
 90
4
 70
1
 10
33.719000
 20
199.274000
 30
0.0
 10
47.719000
 20
199.274000
 30
0.0
 10
47.719000
 20
213.274000
 30
0.0
 10
33.719000
 20
213.274000
 30
0.0
  0
LWPOLYLINE
  5
154
100
AcDbEntity
  8
top_plate
 62
7
100
AcDbPolyline
 90
4
 70
1
 10
57.532000
 20
199.274000
 30
0.0
 10
71.532000
 20
199.274000
 30
0.0
 10
71.532000
 20
213.274000
 30
0.0
 10
57.532000
 20
213.274000
 30
0.0
  0
LWPOLYLINE
  5
155
100
AcDbEntity
  8
top_plate
 62
7
100
AcDbPolyline
 90
4
 70
1
 10
200.407000
 20
199.274000
 30
0.0
 10
214.407000
 20
199.274000
 30
0.0
 10
214.407000
 20
213.274000
 30
0.0
 10
200.407000
 20
213.274000
 30
0.0
  0
LWPOLYLINE
  5
156
100
AcDbEntity
  8
top_plate
 62
7
100
AcDbPolyline
 90
4
 70
1
 10
224.219000
 20
199.274000
 30
0.0
 10
238.219000
 20
199.274000
 30
0.0
 10
238.219000
 20
213.274000
 30
0.0
 10
224.219000
 20
213.274000
 30
0.0
  0
LWPOLYLINE
  5
157
100
AcDbEntity
  8
top_plate
 62
7
100
AcDbPolyline
 90
4
 70
1
 10
248.032000
 20
199.274000
 30
0.0
 10
262.032000
 20
199.274000
 30
0.0
 10
262.032000
 20
213.274000
 30
0.0
 10
248.032000
 20
213.274000
 30
0.0
  0
LWPOLYLINE
  5
158
100
AcDbEntity
  8
top_plate
 62
7
100
AcDbPolyline
 90
4
 70
1
 10
278.988000
 20
199.274000
 30
0.0
 10
292.988000
 20
199.274000
 30
0.0
 10
292.988000
 20
213.274000
 30
0.0
 10
278.988000
 20
213.274000
 30
0.0
  0
LWPOLYLINE
  5
159
100
AcDbEntity
  8
top_plate
 62
7
100
AcDbPolyline
 90
4
 70
1
 10
298.038000
 20
199.274000
 30
0.0
 10
312.038000
 20
199.274000
 30
0.0
 10
312.038000
 20
213.274000
 30
0.0
 10
298.038000
 20
213.274000
 30
0.0
  0
LWPOLYLINE
  5
15a
100
AcDbEntity
  8
top_plate
 62
7
100
AcDbPolyline
 90
4
 70
1
 10
317.088000
 20
199.274000
 30
0.0
 10
331.088000
 20
199.274000
 30
0.0
 10
331.088000
 20
213.274000
 30
0.0
 10
317.088000
 20
213.274000
 30
0.0
  0
SPLINE
  5
15b
100
AcDbEntity
  8
bottom_plate
 62
3
100
AcDbSpline
 70
8
 71
3
 72
8
 73
4
 74
0
 40
0
 40
0
 40
0
 40
0
 40
1
 40
1
 40
1
 40
1
 10
3.430024
 20
294.615394
 30
0.0
 10
2.850125
 20
294.615394
 30
0.0
 10
2.380024
 20
294.145293
 30
0.0
 10
2.380024
 20
293.565394
 30
0.0
  0
SPLINE
  5
15c
100
AcDbEntity
  8
bottom_plate
 62
3
100
AcDbSpline
 70
8
 71
3
 72
8
 73
4
 74
0
 40
0
 40
0
 40
0
 40
0
 40
1
 40
1
 40
1
 40
1
 10
2.380024
 20
293.565394
 30
0.0
 10
2.380024
 20
292.985495
 30
0.0
 10
2.850125
 20
292.515394
 30
0.0
 10
3.430024
 20
292.515394
 30
0.0
  0
SPLINE
  5
15d
100
AcDbEntity
  8
bottom_plate
 62
3
100
AcDbSpline
 70
8
 71
3
 72
8
 73
4
 74
0
 40
0
 40
0
 40
0
 40
0
 40
1
 40
1
 40
1
 40
1
 10
3.430024
 20
292.515394
 30
0.0
 10
4.009923
 20
292.515394
 30
0.0
 10
4.480025
 20
292.985495
 30
0.0
 10
4.480025
 20
293.565394
 30
0.0
  0
SPLINE
  5
15e
100
AcDbEntity
  8
bottom_plate
 62
3
100
AcDbSpline
 70
8
 71
3
 72
8
 73
4
 74
0
 40
0
 40
0
 40
0
 40
0
 40
1
 40
1
 40
1
 40
1
 10
4.480025
 20
293.565394
 30
0.0
 10
4.480025
 20
293.843871
 30
0.0
 10
4.369400
 20
294.110943
 30
0.0
 10
4.172487
 20
294.307856
 30
0.0
  0
SPLINE
  5
15f
100
AcDbEntity
  8
bottom_plate
 62
3
100
AcDbSpline
 70
8
 71
3
 72
8
 73
4
 74
0
 40
0
 40
0
 40
0
 40
0
 40
1
 40
1
 40
1
 40
1
 10
4.172487
 20
294.307856
 30
0.0
 10
3.975573
 20
294.504769
 30
0.0
 10
3.708502
 20
294.615394
 30
0.0
 10
3.430024
 20
294.615394
 30
0.0
  0
LWPOLYLINE
  5
160
100
AcDbEntity
  8
top_plate
 62
7
100
AcDbPolyline
 90
36
 70
1
 10
87.619000
 20
199.505000
 30
0.0
 10
89.344000
 20
199.505000
 30
0.0
 10
89.344000
 20
203.975000
 30
0.0
 10
90.869000
 20
203.975000
 30
0.0
 10
90.869000
 20
199.274000
 30
0.0
 10
104.869000
 20
199.274000
 30
0.0
 10
104.869000
 20
203.975000
 30
0.0
 10
106.394000
 20
203.975000
 30
0.0
 10
106.394000
 20
199.505000
 30
0.0
 10
108.119000
 20
199.505000
 30
0.0
 10
108.119000
 20
198.524000
 30
0.0
 10
111.419000
 20
198.524000
 30
0.0
 10
111.419000
 20
199.505000
 30
0.0
 10
113.144000
 20
199.505000
 30
0.0
 10
113.144000
 20
205.774000
 30
0.0
 10
113.969000
 20
205.774000
 30
0.0
 10
113.969000
 20
208.574000
 30
0.0
 10
113.144000
 20
208.574000
 30
0.0
 10
113.144000
 20
211.804000
 30
0.0
 10
106.394000
 20
211.804000
 30
0.0
 10
106.394000
 20
208.574000
 30
0.0
 10
104.869000
 20
208.574000
 30
0.0
 10
104.869000
 20
213.274000
 30
0.0
 10
90.869000
 20
213.274000
 30
0.0
 10
90.869000
 20
208.574000
 30
0.0
 10
89.344000
 20
208.574000
 30
0.0
 10
89.344000
 20
211.804000
 30
0.0
 10
82.594000
 20
211.804000
 30
0.0
 10
82.594000
 20
208.574000
 30
0.0
 10
81.769000
 20
208.574000
 30
0.0
 10
81.769000
 20
205.774000
 30
0.0
 10
82.594000
 20
205.774000
 30
0.0
 10
82.594000
 20
199.505000
 30
0.0
 10
84.319000
 20
199.505000
 30
0.0
 10
84.319000
 20
198.524000
 30
0.0
 10
87.619000
 20
198.524000
 30
0.0
  0
SPLINE
  5
161
100
AcDbEntity
  8
bottom_plate
 62
3
100
AcDbSpline
 70
8
 71
3
 72
8
 73
4
 74
0
 40
0
 40
0
 40
0
 40
0
 40
1
 40
1
 40
1
 40
1
 10
3.430024
 20
196.239940
 30
0.0
 10
2.850125
 20
196.239940
 30
0.0
 10
2.380024
 20
195.769839
 30
0.0
 10
2.380024
 20
195.189940
 30
0.0
  0
SPLINE
  5
162
100
AcDbEntity
  8
bottom_plate
 62
3
100
AcDbSpline
 70
8
 71
3
 72
8
 73
4
 74
0
 40
0
 40
0
 40
0
 40
0
 40
1
 40
1
 40
1
 40
1
 10
2.380024
 20
195.189940
 30
0.0
 10
2.380024
 20
194.610041
 30
0.0
 10
2.850125
 20
194.139940
 30
0.0
 10
3.430024
 20
194.139940
 30
0.0
  0
SPLINE
  5
163
100
AcDbEntity
  8
bottom_plate
 62
3
100
AcDbSpline
 70
8
 71
3
 72
8
 73
4
 74
0
 40
0
 40
0
 40
0
 40
0
 40
1
 40
1
 40
1
 40
1
 10
3.430024
 20
194.139940
 30
0.0
 10
4.009923
 20
194.139940
 30
0.0
 10
4.480025
 20
194.610041
 30
0.0
 10
4.480025
 20
195.189940
 30
0.0
  0
SPLINE
  5
164
100
AcDbEntity
  8
bottom_plate
 62
3
100
AcDbSpline
 70
8
 71
3
 72
8
 73
4
 74
0
 40
0
 40
0
 40
0
 40
0
 40
1
 40
1
 40
1
 40
1
 10
4.480025
 20
195.189940
 30
0.0
 10
4.480025
 20
195.468417
 30
0.0
 10
4.369400
 20
195.735489
 30
0.0
 10
4.172487
 20
195.932402
 30
0.0
  0
SPLINE
  5
165
100
AcDbEntity
  8
bottom_plate
 62
3
100
AcDbSpline
 70
8
 71
3
 72
8
 73
4
 74
0
 40
0
 40
0
 40
0
 40
0
 40
1
 40
1
 40
1
 40
1
 10
4.172487
 20
195.932402
 30
0.0
 10
3.975573
 20
196.129315
 30
0.0
 10
3.708502
 20
196.239940
 30
0.0
 10
3.430024
 20
196.239940
 30
0.0
  0
LWPOLYLINE
  5
166
100
AcDbEntity
  8
bottom_plate
 62
3
100
AcDbPolyline
 90
1
 70
1
 10
3.430024
 20
294.615394
 30
0.0
  0
SPLINE
  5
167
100
AcDbEntity
  8
bottom_plate
 62
3
100
AcDbSpline
 70
8
 71
3
 72
8
 73
4
 74
0
 40
0
 40
0
 40
0
 40
0
 40
1
 40
1
 40
1
 40
1
 10
335.185030
 20
294.615389
 30
0.0
 10
334.760345
 20
294.615389
 30
0.0
 10
334.377476
 20
294.359564
 30
0.0
 10
334.214956
 20
293.967206
 30
0.0
  0
SPLINE
  5
168
100
AcDbEntity
  8
bottom_plate
 62
3
100
AcDbSpline
 70
8
 71
3
 72
8
 73
4
 74
0
 40
0
 40
0
 40
0
 40
0
 40
1
 40
1
 40
1
 40
1
 10
334.214956
 20
293.967206
 30
0.0
 10
334.052436
 20
293.574848
 30
0.0
 10
334.142270
 20
293.123224
 30
0.0
 10
334.442568
 20
292.822927
 30
0.0
  0
SPLINE
  5
169
100
AcDbEntity
  8
bottom_plate
 62
3
100
AcDbSpline
 70
8
 71
3
 72
8
 73
4
 74
0
 40
0
 40
0
 40
0
 40
0
 40
1
 40
1
 40
1
 40
1
 10
334.442568
 20
292.822927
 30
0.0
 10
334.742866
 20
292.522629
 30
0.0
 10
335.194489
 20
292.432795
 30
0.0
 10
335.586848
 20
292.595315
 30
0.0
  0
SPLINE
  5
16a
100
AcDbEntity
  8
bottom_plate
 62
3
100
AcDbSpline
 70
8
 71
3
 72
8
 73
4
 74
0
 40
0
 40
0
 40
0
 40
0
 40
1
 40
1
 40
1
 40
1
 10
335.586848
 20
292.595315
 30
0.0
 10
335.979206
 20
292.757835
 30
0.0
 10
336.235030
 20
293.140703
 30
0.0
 10
336.235030
 20
293.565389
 30
0.0
  0
SPLINE
  5
16b
100
AcDbEntity
  8
bottom_plate
 62
3
100
AcDbSpline
 70
8
 71
3
 72
8
 73
4
 74
0
 40
0
 40
0
 40
0
 40
0
 40
1
 40
1
 40
1
 40
1
 10
336.235030
 20
293.565389
 30
0.0
 10
336.235030
 20
293.843866
 30
0.0
 10
336.124405
 20
294.110938
 30
0.0
 10
335.927492
 20
294.307851
 30
0.0
  0
SPLINE
  5
16c
100
AcDbEntity
  8
bottom_plate
 62
3
100
AcDbSpline
 70
8
 71
3
 72
8
 73
4
 74
0
 40
0
 40
0
 40
0
 40
0
 40
1
 40
1
 40
1
 40
1
 10
335.927492
 20
294.307851
 30
0.0
 10
335.730579
 20
294.504764
 30
0.0
 10
335.463507
 20
294.615389
 30
0.0
 10
335.185030
 20
294.615389
 30
0.0
  0
LWPOLYLINE
  5
16d
100
AcDbEntity
  8
bottom_plate
 62
3
100
AcDbPolyline
 90
1
 70
1
 10
3.430024
 20
196.239940
 30
0.0
  0
SPLINE
  5
16e
100
AcDbEntity
  8
bottom_plate
 62
3
100
AcDbSpline
 70
8
 71
3
 72
8
 73
4
 74
0
 40
0
 40
0
 40
0
 40
0
 40
1
 40
1
 40
1
 40
1
 10
335.185030
 20
196.239940
 30
0.0
 10
334.760345
 20
196.239940
 30
0.0
 10
334.377476
 20
195.984116
 30
0.0
 10
334.214956
 20
195.591758
 30
0.0
  0
SPLINE
  5
16f
100
AcDbEntity
  8
bottom_plate
 62
3
100
AcDbSpline
 70
8
 71
3
 72
8
 73
4
 74
0
 40
0
 40
0
 40
0
 40
0
 40
1
 40
1
 40
1
 40
1
 10
334.214956
 20
195.591758
 30
0.0
 10
334.052436
 20
195.199399
 30
0.0
 10
334.142270
 20
194.747776
 30
0.0
 10
334.442568
 20
194.447478
 30
0.0
  0
SPLINE
  5
170
100
AcDbEntity
  8
bottom_plate
 62
3
100
AcDbSpline
 70
8
 71
3
 72
8
 73
4
 74
0
 40
0
 40
0
 40
0
 40
0
 40
1
 40
1
 40
1
 40
1
 10
334.442568
 20
194.447478
 30
0.0
 10
334.742866
 20
194.147180
 30
0.0
 10
335.194489
 20
194.057346
 30
0.0
 10
335.586848
 20
194.219866
 30
0.0
  0
SPLINE
  5
171
100
AcDbEntity
  8
bottom_plate
 62
3
100
AcDbSpline
 70
8
 71
3
 72
8
 73
4
 74
0
 40
0
 40
0
 40
0
 40
0
 40
1
 40
1
 40
1
 40
1
 10
335.586848
 20
194.219866
 30
0.0
 10
335.979206
 20
194.382386
 30
0.0
 10
336.235030
 20
194.765255
 30
0.0
 10
336.235030
 20
195.189940
 30
0.0
  0
SPLINE
  5
172
100
AcDbEntity
  8
bottom_plate
 62
3
100
AcDbSpline
 70
8
 71
3
 72
8
 73
4
 74
0
 40
0
 40
0
 40
0
 40
0
 40
1
 40
1
 40
1
 40
1
 10
336.235030
 20
195.189940
 30
0.0
 10
336.235030
 20
195.468417
 30
0.0
 10
336.124405
 20
195.735489
 30
0.0
 10
335.927492
 20
195.932402
 30
0.0
  0
SPLINE
  5
173
100
AcDbEntity
  8
bottom_plate
 62
3
100
AcDbSpline
 70
8
 71
3
 72
8
 73
4
 74
0
 40
0
 40
0
 40
0
 40
0
 40
1
 40
1
 40
1
 40
1
 10
335.927492
 20
195.932402
 30
0.0
 10
335.730579
 20
196.129315
 30
0.0
 10
335.463507
 20
196.239940
 30
0.0
 10
335.185030
 20
196.239940
 30
0.0
  0
LWPOLYLINE
  5
174
100
AcDbEntity
  8
bottom_plate
 62
3
100
AcDbPolyline
 90
1
 70
1
 10
335.185030
 20
294.615389
 30
0.0
  0
SPLINE
  5
175
100
AcDbEntity
  8
bottom_plate
 62
3
100
AcDbSpline
 70
8
 71
3
 72
8
 73
4
 74
0
 40
0
 40
0
 40
0
 40
0
 40
1
 40
1
 40
1
 40
1
 10
81.272408
 20
294.615388
 30
0.0
 10
80.847723
 20
294.615388
 30
0.0
 10
80.464854
 20
294.359564
 30
0.0
 10
80.302334
 20
293.967206
 30
0.0
  0
SPLINE
  5
176
100
AcDbEntity
  8
bottom_plate
 62
3
100
AcDbSpline
 70
8
 71
3
 72
8
 73
4
 74
0
 40
0
 40
0
 40
0
 40
0
 40
1
 40
1
 40
1
 40
1
 10
80.302334
 20
293.967206
 30
0.0
 10
80.139814
 20
293.574848
 30
0.0
 10
80.229648
 20
293.123224
 30
0.0
 10
80.529946
 20
292.822926
 30
0.0
  0
SPLINE
  5
177
100
AcDbEntity
  8
bottom_plate
 62
3
100
AcDbSpline
 70
8
 71
3
 72
8
 73
4
 74
0
 40
0
 40
0
 40
0
 40
0
 40
1
 40
1
 40
1
 40
1
 10
80.529946
 20
292.822926
 30
0.0
 10
80.830244
 20
292.522628
 30
0.0
 10
81.281867
 20
292.432795
 30
0.0
 10
81.674226
 20
292.595315
 30
0.0
  0
SPLINE
  5
178
100
AcDbEntity
  8
bottom_plate
 62
3
100
AcDbSpline
 70
8
 71
3
 72
8
 73
4
 74
0
 40
0
 40
0
 40
0
 40
0
 40
1
 40
1
 40
1
 40
1
 10
81.674226
 20
292.595315
 30
0.0
 10
82.066584
 20
292.757835
 30
0.0
 10
82.322408
 20
293.140703
 30
0.0
 10
82.322408
 20
293.565388
 30
0.0
  0
SPLINE
  5
179
100
AcDbEntity
  8
bottom_plate
 62
3
100
AcDbSpline
 70
8
 71
3
 72
8
 73
4
 74
0
 40
0
 40
0
 40
0
 40
0
 40
1
 40
1
 40
1
 40
1
 10
82.322408
 20
293.565388
 30
0.0
 10
82.322408
 20
293.843866
 30
0.0
 10
82.211783
 20
294.110937
 30
0.0
 10
82.014870
 20
294.307850
 30
0.0
  0
SPLINE
  5
17a
100
AcDbEntity
  8
bottom_plate
 62
3
100
AcDbSpline
 70
8
 71
3
 72
8
 73
4
 74
0
 40
0
 40
0
 40
0
 40
0
 40
1
 40
1
 40
1
 40
1
 10
82.014870
 20
294.307850
 30
0.0
 10
81.817957
 20
294.504764
 30
0.0
 10
81.550885
 20
294.615388
 30
0.0
 10
81.272408
 20
294.615388
 30
0.0
  0
LWPOLYLINE
  5
17b
100
AcDbEntity
  8
bottom_plate
 62
3
100
AcDbPolyline
 90
1
 70
1
 10
335.185030
 20
196.239940
 30
0.0
  0
SPLINE
  5
17c
100
AcDbEntity
  8
bottom_plate
 62
3
100
AcDbSpline
 70
8
 71
3
 72
8
 73
4
 74
0
 40
0
 40
0
 40
0
 40
0
 40
1
 40
1
 40
1
 40
1
 10
81.272408
 20
196.239940
 30
0.0
 10
80.847723
 20
196.239940
 30
0.0
 10
80.464854
 20
195.984116
 30
0.0
 10
80.302334
 20
195.591758
 30
0.0
  0
SPLINE
  5
17d
100
AcDbEntity
  8
bottom_plate
 62
3
100
AcDbSpline
 70
8
 71
3
 72
8
 73
4
 74
0
 40
0
 40
0
 40
0
 40
0
 40
1
 40
1
 40
1
 40
1
 10
80.302334
 20
195.591758
 30
0.0
 10
80.139814
 20
195.199399
 30
0.0
 10
80.229648
 20
194.747776
 30
0.0
 10
80.529946
 20
194.447478
 30
0.0
  0
SPLINE
  5
17e
100
AcDbEntity
  8
bottom_plate
 62
3
100
AcDbSpline
 70
8
 71
3
 72
8
 73
4
 74
0
 40
0
 40
0
 40
0
 40
0
 40
1
 40
1
 40
1
 40
1
 10
80.529946
 20
194.447478
 30
0.0
 10
80.830244
 20
194.147180
 30
0.0
 10
81.281867
 20
194.057346
 30
0.0
 10
81.674226
 20
194.219866
 30
0.0
  0
SPLINE
  5
17f
100
AcDbEntity
  8
bottom_plate
 62
3
100
AcDbSpline
 70
8
 71
3
 72
8
 73
4
 74
0
 40
0
 40
0
 40
0
 40
0
 40
1
 40
1
 40
1
 40
1
 10
81.674226
 20
194.219866
 30
0.0
 10
82.066584
 20
194.382386
 30
0.0
 10
82.322408
 20
194.765255
 30
0.0
 10
82.322408
 20
195.189940
 30
0.0
  0
SPLINE
  5
180
100
AcDbEntity
  8
bottom_plate
 62
3
100
AcDbSpline
 70
8
 71
3
 72
8
 73
4
 74
0
 40
0
 40
0
 40
0
 40
0
 40
1
 40
1
 40
1
 40
1
 10
82.322408
 20
195.189940
 30
0.0
 10
82.322408
 20
195.468417
 30
0.0
 10
82.211783
 20
195.735489
 30
0.0
 10
82.014870
 20
195.932402
 30
0.0
  0
SPLINE
  5
181
100
AcDbEntity
  8
bottom_plate
 62
3
100
AcDbSpline
 70
8
 71
3
 72
8
 73
4
 74
0
 40
0
 40
0
 40
0
 40
0
 40
1
 40
1
 40
1
 40
1
 10
82.014870
 20
195.932402
 30
0.0
 10
81.817957
 20
196.129315
 30
0.0
 10
81.550885
 20
196.239940
 30
0.0
 10
81.272408
 20
196.239940
 30
0.0
  0
LWPOLYLINE
  5
182
100
AcDbEntity
  8
bottom_plate
 62
3
100
AcDbPolyline
 90
1
 70
1
 10
81.272408
 20
294.615388
 30
0.0
  0
SPLINE
  5
183
100
AcDbEntity
  8
bottom_plate
 62
3
100
AcDbSpline
 70
8
 71
3
 72
8
 73
4
 74
0
 40
0
 40
0
 40
0
 40
0
 40
1
 40
1
 40
1
 40
1
 10
252.633800
 20
294.615388
 30
0.0
 10
252.209115
 20
294.615388
 30
0.0
 10
251.826246
 20
294.359563
 30
0.0
 10
251.663726
 20
293.967205
 30
0.0
  0
SPLINE
  5
184
100
AcDbEntity
  8
bottom_plate
 62
3
100
AcDbSpline
 70
8
 71
3
 72
8
 73
4
 74
0
 40
0
 40
0
 40
0
 40
0
 40
1
 40
1
 40
1
 40
1
 10
251.663726
 20
293.967205
 30
0.0
 10
251.501206
 20
293.574847
 30
0.0
 10
251.591040
 20
293.123223
 30
0.0
 10
251.891338
 20
292.822926
 30
0.0
  0
SPLINE
  5
185
100
AcDbEntity
  8
bottom_plate
 62
3
100
AcDbSpline
 70
8
 71
3
 72
8
 73
4
 74
0
 40
0
 40
0
 40
0
 40
0
 40
1
 40
1
 40
1
 40
1
 10
251.891338
 20
292.822926
 30
0.0
 10
252.191636
 20
292.522628
 30
0.0
 10
252.643259
 20
292.432794
 30
0.0
 10
253.035618
 20
292.595314
 30
0.0
  0
SPLINE
  5
186
100
AcDbEntity
  8
bottom_plate
 62
3
100
AcDbSpline
 70
8
 71
3
 72
8
 73
4
 74
0
 40
0
 40
0
 40
0
 40
0
 40
1
 40
1
 40
1
 40
1
 10
253.035618
 20
292.595314
 30
0.0
 10
253.427976
 20
292.757834
 30
0.0
 10
253.683800
 20
293.140702
 30
0.0
 10
253.683800
 20
293.565388
 30
0.0
  0
SPLINE
  5
187
100
AcDbEntity
  8
bottom_plate
 62
3
100
AcDbSpline
 70
8
 71
3
 72
8
 73
4
 74
0
 40
0
 40
0
 40
0
 40
0
 40
1
 40
1
 40
1
 40
1
 10
253.683800
 20
293.565388
 30
0.0
 10
253.683800
 20
294.145287
 30
0.0
 10
253.213699
 20
294.615388
 30
0.0
 10
252.633800
 20
294.615388
 30
0.0
  0
LWPOLYLINE
  5
188
100
AcDbEntity
  8
bottom_plate
 62
3
100
AcDbPolyline
 90
1
 70
1
 10
81.272408
 20
196.239940
 30
0.0
  0
SPLINE
  5
189
100
AcDbEntity
  8
bottom_plate
 62
3
100
AcDbSpline
 70
8
 71
3
 72
8
 73
4
 74
0
 40
0
 40
0
 40
0
 40
0
 40
1
 40
1
 40
1
 40
1
 10
252.633800
 20
196.239940
 30
0.0
 10
252.209115
 20
196.239940
 30
0.0
 10
251.826246
 20
195.984116
 30
0.0
 10
251.663726
 20
195.591758
 30
0.0
  0
SPLINE
  5
18a
100
AcDbEntity
  8
bottom_plate
 62
3
100
AcDbSpline
 70
8
 71
3
 72
8
 73
4
 74
0
 40
0
 40
0
 40
0
 40
0
 40
1
 40
1
 40
1
 40
1
 10
251.663726
 20
195.591758
 30
0.0
 10
251.501206
 20
195.199399
 30
0.0
 10
251.591040
 20
194.747776
 30
0.0
 10
251.891338
 20
194.447478
 30
0.0
  0
SPLINE
  5
18b
100
AcDbEntity
  8
bottom_plate
 62
3
100
AcDbSpline
 70
8
 71
3
 72
8
 73
4
 74
0
 40
0
 40
0
 40
0
 40
0
 40
1
 40
1
 40
1
 40
1
 10
251.891338
 20
194.447478
 30
0.0
 10
252.191636
 20
194.147180
 30
0.0
 10
252.643259
 20
194.057346
 30
0.0
 10
253.035618
 20
194.219866
 30
0.0
  0
SPLINE
  5
18c
100
AcDbEntity
  8
bottom_plate
 62
3
100
AcDbSpline
 70
8
 71
3
 72
8
 73
4
 74
0
 40
0
 40
0
 40
0
 40
0
 40
1
 40
1
 40
1
 40
1
 10
253.035618
 20
194.219866
 30
0.0
 10
253.427976
 20
194.382386
 30
0.0
 10
253.683800
 20
194.765255
 30
0.0
 10
253.683800
 20
195.189940
 30
0.0
  0
SPLINE
  5
18d
100
AcDbEntity
  8
bottom_plate
 62
3
100
AcDbSpline
 70
8
 71
3
 72
8
 73
4
 74
0
 40
0
 40
0
 40
0
 40
0
 40
1
 40
1
 40
1
 40
1
 10
253.683800
 20
195.189940
 30
0.0
 10
253.683800
 20
195.769839
 30
0.0
 10
253.213699
 20
196.239940
 30
0.0
 10
252.633800
 20
196.239940
 30
0.0
  0
LWPOLYLINE
  5
18e
100
AcDbEntity
  8
bottom_plate
 62
3
100
AcDbPolyline
 90
1
 70
1
 10
252.633800
 20
294.615388
 30
0.0
  0
SPLINE
  5
18f
100
AcDbEntity
  8
bottom_plate
 62
3
100
AcDbSpline
 70
8
 71
3
 72
8
 73
4
 74
0
 40
0
 40
0
 40
0
 40
0
 40
1
 40
1
 40
1
 40
1
 10
52.626659
 20
255.008252
 30
0.0
 10
52.201974
 20
255.008252
 30
0.0
 10
51.819105
 20
254.752428
 30
0.0
 10
51.656585
 20
254.360070
 30
0.0
  0
SPLINE
  5
190
100
AcDbEntity
  8
bottom_plate
 62
3
100
AcDbSpline
 70
8
 71
3
 72
8
 73
4
 74
0
 40
0
 40
0
 40
0
 40
0
 40
1
 40
1
 40
1
 40
1
 10
51.656585
 20
254.360070
 30
0.0
 10
51.494065
 20
253.967711
 30
0.0
 10
51.583899
 20
253.516088
 30
0.0
 10
51.884197
 20
253.215790
 30
0.0
  0
SPLINE
  5
191
100
AcDbEntity
  8
bottom_plate
 62
3
100
AcDbSpline
 70
8
 71
3
 72
8
 73
4
 74
0
 40
0
 40
0
 40
0
 40
0
 40
1
 40
1
 40
1
 40
1
 10
51.884197
 20
253.215790
 30
0.0
 10
52.184495
 20
252.915492
 30
0.0
 10
52.636118
 20
252.825658
 30
0.0
 10
53.028477
 20
252.988178
 30
0.0
  0
SPLINE
  5
192
100
AcDbEntity
  8
bottom_plate
 62
3
100
AcDbSpline
 70
8
 71
3
 72
8
 73
4
 74
0
 40
0
 40
0
 40
0
 40
0
 40
1
 40
1
 40
1
 40
1
 10
53.028477
 20
252.988178
 30
0.0
 10
53.420835
 20
253.150698
 30
0.0
 10
53.676659
 20
253.533567
 30
0.0
 10
53.676659
 20
253.958252
 30
0.0
  0
SPLINE
  5
193
100
AcDbEntity
  8
bottom_plate
 62
3
100
AcDbSpline
 70
8
 71
3
 72
8
 73
4
 74
0
 40
0
 40
0
 40
0
 40
0
 40
1
 40
1
 40
1
 40
1
 10
53.676659
 20
253.958252
 30
0.0
 10
53.676659
 20
254.236729
 30
0.0
 10
53.566034
 20
254.503801
 30
0.0
 10
53.369121
 20
254.700714
 30
0.0
  0
SPLINE
  5
194
100
AcDbEntity
  8
bottom_plate
 62
3
100
AcDbSpline
 70
8
 71
3
 72
8
 73
4
 74
0
 40
0
 40
0
 40
0
 40
0
 40
1
 40
1
 40
1
 40
1
 10
53.369121
 20
254.700714
 30
0.0
 10
53.172208
 20
254.897627
 30
0.0
 10
52.905136
 20
255.008252
 30
0.0
 10
52.626659
 20
255.008252
 30
0.0
  0
LWPOLYLINE
  5
195
100
AcDbEntity
  8
bottom_plate
 62
3
100
AcDbPolyline
 90
1
 70
1
 10
252.633800
 20
196.239940
 30
0.0
  0
SPLINE
  5
196
100
AcDbEntity
  8
bottom_plate
 62
3
100
AcDbSpline
 70
8
 71
3
 72
8
 73
4
 74
0
 40
0
 40
0
 40
0
 40
0
 40
1
 40
1
 40
1
 40
1
 10
133.581440
 20
235.872887
 30
0.0
 10
133.156755
 20
235.872887
 30
0.0
 10
132.773886
 20
235.617063
 30
0.0
 10
132.611366
 20
235.224705
 30
0.0
  0
SPLINE
  5
197
100
AcDbEntity
  8
bottom_plate
 62
3
100
AcDbSpline
 70
8
 71
3
 72
8
 73
4
 74
0
 40
0
 40
0
 40
0
 40
0
 40
1
 40
1
 40
1
 40
1
 10
132.611366
 20
235.224705
 30
0.0
 10
132.448846
 20
234.832346
 30
0.0
 10
132.538680
 20
234.380723
 30
0.0
 10
132.838978
 20
234.080425
 30
0.0
  0
SPLINE
  5
198
100
AcDbEntity
  8
bottom_plate
 62
3
100
AcDbSpline
 70
8
 71
3
 72
8
 73
4
 74
0
 40
0
 40
0
 40
0
 40
0
 40
1
 40
1
 40
1
 40
1
 10
132.838978
 20
234.080425
 30
0.0
 10
133.139276
 20
233.780127
 30
0.0
 10
133.590899
 20
233.690293
 30
0.0
 10
133.983258
 20
233.852813
 30
0.0
  0
SPLINE
  5
199
100
AcDbEntity
  8
bottom_plate
 62
3
100
AcDbSpline
 70
8
 71
3
 72
8
 73
4
 74
0
 40
0
 40
0
 40
0
 40
0
 40
1
 40
1
 40
1
 40
1
 10
133.983258
 20
233.852813
 30
0.0
 10
134.375616
 20
234.015333
 30
0.0
 10
134.631440
 20
234.398202
 30
0.0
 10
134.631440
 20
234.822887
 30
0.0
  0
SPLINE
  5
19a
100
AcDbEntity
  8
bottom_plate
 62
3
100
AcDbSpline
 70
8
 71
3
 72
8
 73
4
 74
0
 40
0
 40
0
 40
0
 40
0
 40
1
 40
1
 40
1
 40
1
 10
134.631440
 20
234.822887
 30
0.0
 10
134.631440
 20
235.101364
 30
0.0
 10
134.520815
 20
235.368436
 30
0.0
 10
134.323902
 20
235.565349
 30
0.0
  0
SPLINE
  5
19b
100
AcDbEntity
  8
bottom_plate
 62
3
100
AcDbSpline
 70
8
 71
3
 72
8
 73
4
 74
0
 40
0
 40
0
 40
0
 40
0
 40
1
 40
1
 40
1
 40
1
 10
134.323902
 20
235.565349
 30
0.0
 10
134.126989
 20
235.762262
 30
0.0
 10
133.859917
 20
235.872887
 30
0.0
 10
133.581440
 20
235.872887
 30
0.0
  0
LWPOLYLINE
  5
19c
100
AcDbEntity
  8
bottom_plate
 62
3
100
AcDbPolyline
 90
1
 70
1
 10
52.626659
 20
255.008252
 30
0.0
  0
SPLINE
  5
19d
100
AcDbEntity
  8
bottom_plate
 62
3
100
AcDbSpline
 70
8
 71
3
 72
8
 73
4
 74
0
 40
0
 40
0
 40
0
 40
0
 40
1
 40
1
 40
1
 40
1
 10
209.780350
 20
254.889859
 30
0.0
 10
209.355665
 20
254.889859
 30
0.0
 10
208.972796
 20
254.634035
 30
0.0
 10
208.810276
 20
254.241677
 30
0.0
  0
SPLINE
  5
19e
100
AcDbEntity
  8
bottom_plate
 62
3
100
AcDbSpline
 70
8
 71
3
 72
8
 73
4
 74
0
 40
0
 40
0
 40
0
 40
0
 40
1
 40
1
 40
1
 40
1
 10
208.810276
 20
254.241677
 30
0.0
 10
208.647756
 20
253.849318
 30
0.0
 10
208.737590
 20
253.397695
 30
0.0
 10
209.037888
 20
253.097397
 30
0.0
  0
SPLINE
  5
19f
100
AcDbEntity
  8
bottom_plate
 62
3
100
AcDbSpline
 70
8
 71
3
 72
8
 73
4
 74
0
 40
0
 40
0
 40
0
 40
0
 40
1
 40
1
 40
1
 40
1
 10
209.037888
 20
253.097397
 30
0.0
 10
209.338186
 20
252.797099
 30
0.0
 10
209.789809
 20
252.707265
 30
0.0
 10
210.182168
 20
252.869785
 30
0.0
  0
SPLINE
  5
1a0
100
AcDbEntity
  8
bottom_plate
 62
3
100
AcDbSpline
 70
8
 71
3
 72
8
 73
4
 74
0
 40
0
 40
0
 40
0
 40
0
 40
1
 40
1
 40
1
 40
1
 10
210.182168
 20
252.869785
 30
0.0
 10
210.574526
 20
253.032305
 30
0.0
 10
210.830350
 20
253.415174
 30
0.0
 10
210.830350
 20
253.839859
 30
0.0
  0
SPLINE
  5
1a1
100
AcDbEntity
  8
bottom_plate
 62
3
100
AcDbSpline
 70
8
 71
3
 72
8
 73
4
 74
0
 40
0
 40
0
 40
0
 40
0
 40
1
 40
1
 40
1
 40
1
 10
210.830350
 20
253.839859
 30
0.0
 10
210.830350
 20
254.118336
 30
0.0
 10
210.719725
 20
254.385408
 30
0.0
 10
210.522812
 20
254.582321
 30
0.0
  0
SPLINE
  5
1a2
100
AcDbEntity
  8
bottom_plate
 62
3
100
AcDbSpline
 70
8
 71
3
 72
8
 73
4
 74
0
 40
0
 40
0
 40
0
 40
0
 40
1
 40
1
 40
1
 40
1
 10
210.522812
 20
254.582321
 30
0.0
 10
210.325899
 20
254.779234
 30
0.0
 10
210.058827
 20
254.889859
 30
0.0
 10
209.780350
 20
254.889859
 30
0.0
  0
LWPOLYLINE
  5
1a3
100
AcDbEntity
  8
bottom_plate
 62
3
100
AcDbPolyline
 90
1
 70
1
 10
133.581440
 20
235.872887
 30
0.0
  0
SPLINE
  5
1a4
100
AcDbEntity
  8
bottom_plate
 62
3
100
AcDbSpline
 70
8
 71
3
 72
8
 73
4
 74
0
 40
0
 40
0
 40
0
 40
0
 40
1
 40
1
 40
1
 40
1
 10
285.650760
 20
235.872899
 30
0.0
 10
285.226075
 20
235.872899
 30
0.0
 10
284.843206
 20
235.617075
 30
0.0
 10
284.680686
 20
235.224717
 30
0.0
  0
SPLINE
  5
1a5
100
AcDbEntity
  8
bottom_plate
 62
3
100
AcDbSpline
 70
8
 71
3
 72
8
 73
4
 74
0
 40
0
 40
0
 40
0
 40
0
 40
1
 40
1
 40
1
 40
1
 10
284.680686
 20
235.224717
 30
0.0
 10
284.518166
 20
234.832358
 30
0.0
 10
284.608000
 20
234.380735
 30
0.0
 10
284.908298
 20
234.080437
 30
0.0
  0
SPLINE
  5
1a6
100
AcDbEntity
  8
bottom_plate
 62
3
100
AcDbSpline
 70
8
 71
3
 72
8
 73
4
 74
0
 40
0
 40
0
 40
0
 40
0
 40
1
 40
1
 40
1
 40
1
 10
284.908298
 20
234.080437
 30
0.0
 10
285.208596
 20
233.780139
 30
0.0
 10
285.660219
 20
233.690305
 30
0.0
 10
286.052578
 20
233.852825
 30
0.0
  0
SPLINE
  5
1a7
100
AcDbEntity
  8
bottom_plate
 62
3
100
AcDbSpline
 70
8
 71
3
 72
8
 73
4
 74
0
 40
0
 40
0
 40
0
 40
0
 40
1
 40
1
 40
1
 40
1
 10
286.052578
 20
233.852825
 30
0.0
 10
286.444936
 20
234.015345
 30
0.0
 10
286.700760
 20
234.398214
 30
0.0
 10
286.700760
 20
234.822899
 30
0.0
  0
SPLINE
  5
1a8
100
AcDbEntity
  8
bottom_plate
 62
3
100
AcDbSpline
 70
8
 71
3
 72
8
 73
4
 74
0
 40
0
 40
0
 40
0
 40
0
 40
1
 40
1
 40
1
 40
1
 10
286.700760
 20
234.822899
 30
0.0
 10
286.700760
 20
235.101376
 30
0.0
 10
286.590135
 20
235.368448
 30
0.0
 10
286.393222
 20
235.565361
 30
0.0
  0
SPLINE
  5
1a9
100
AcDbEntity
  8
bottom_plate
 62
3
100
AcDbSpline
 70
8
 71
3
 72
8
 73
4
 74
0
 40
0
 40
0
 40
0
 40
0
 40
1
 40
1
 40
1
 40
1
 10
286.393222
 20
235.565361
 30
0.0
 10
286.196309
 20
235.762274
 30
0.0
 10
285.929237
 20
235.872899
 30
0.0
 10
285.650760
 20
235.872899
 30
0.0
  0
LWPOLYLINE
  5
1aa
100
AcDbEntity
  8
bottom_plate
 62
3
100
AcDbPolyline
 90
1
 70
1
 10
209.780350
 20
254.889859
 30
0.0
  0
LWPOLYLINE
  5
1ab
100
AcDbEntity
  8
bottom_plate
 62
3
100
AcDbPolyline
 90
1
 70
1
 10
285.650760
 20
235.872899
 30
0.0
  0
SPLINE
  5
1ac
100
AcDbEntity
  8
bottom_plate
 62
3
100
AcDbSpline
 70
8
 71
3
 72
8
 73
4
 74
0
 40
0
 40
0
 40
0
 40
0
 40
1
 40
1
 40
1
 40
1
 10
335.493550
 20
297.656938
 30
0.0
 10
336.495943
 20
297.656939
 30
0.0
 10
337.457282
 20
297.258740
 30
0.0
 10
338.166081
 20
296.549941
 30
0.0
  0
SPLINE
  5
1ad
100
AcDbEntity
  8
bottom_plate
 62
3
100
AcDbSpline
 70
8
 71
3
 72
8
 73
4
 74
0
 40
0
 40
0
 40
0
 40
0
 40
1
 40
1
 40
1
 40
1
 10
338.166081
 20
296.549941
 30
0.0
 10
338.874881
 20
295.841142
 30
0.0
 10
339.273080
 20
294.879804
 30
0.0
 10
339.273080
 20
293.877410
 30
0.0
  0
LWPOLYLINE
  5
1ae
100
AcDbEntity
  8
bottom_plate
 62
3
100
AcDbPolyline
 90
2
 70
0
 10
3.111888
 20
297.656938
 30
0.0
 10
335.493550
 20
297.656938
 30
0.0
  0
SPLINE
  5
1af
100
AcDbEntity
  8
bottom_plate
 62
3
100
AcDbSpline
 70
8
 71
3
 72
8
 73
4
 74
0
 40
0
 40
0
 40
0
 40
0
 40
1
 40
1
 40
1
 40
1
 10
339.273080
 20
194.877750
 30
0.0
 10
339.273081
 20
193.875356
 30
0.0
 10
338.874882
 20
192.914018
 30
0.0
 10
338.166082
 20
192.205218
 30
0.0
  0
SPLINE
  5
1b0
100
AcDbEntity
  8
bottom_plate
 62
3
100
AcDbSpline
 70
8
 71
3
 72
8
 73
4
 74
0
 40
0
 40
0
 40
0
 40
0
 40
1
 40
1
 40
1
 40
1
 10
338.166082
 20
192.205218
 30
0.0
 10
337.457282
 20
191.496418
 30
0.0
 10
336.495944
 20
191.098219
 30
0.0
 10
335.493550
 20
191.098220
 30
0.0
  0
LWPOLYLINE
  5
1b1
100
AcDbEntity
  8
bottom_plate
 62
3
100
AcDbPolyline
 90
2
 70
0
 10
339.273080
 20
293.877410
 30
0.0
 10
339.273080
 20
194.877750
 30
0.0
  0
SPLINE
  5
1b2
100
AcDbEntity
  8
bottom_plate
 62
3
100
AcDbSpline
 70
8
 71
3
 72
8
 73
4
 74
0
 40
0
 40
0
 40
0
 40
0
 40
1
 40
1
 40
1
 40
1
 10
3.111888
 20
191.098220
 30
0.0
 10
2.109495
 20
191.098220
 30
0.0
 10
1.148157
 20
191.496419
 30
0.0
 10
0.439358
 20
192.205219
 30
0.0
  0
SPLINE
  5
1b3
100
AcDbEntity
  8
bottom_plate
 62
3
100
AcDbSpline
 70
8
 71
3
 72
8
 73
4
 74
0
 40
0
 40
0
 40
0
 40
0
 40
1
 40
1
 40
1
 40
1
 10
0.439358
 20
192.205219
 30
0.0
 10
-0.269441
 20
192.914018
 30
0.0
 10
-0.667640
 20
193.875357
 30
0.0
 10
-0.667639
 20
194.877750
 30
0.0
  0
LWPOLYLINE
  5
1b4
100
AcDbEntity
  8
bottom_plate
 62
3
100
AcDbPolyline
 90
2
 70
0
 10
335.493550
 20
191.098220
 30
0.0
 10
3.111888
 20
191.098220
 30
0.0
  0
SPLINE
  5
1b5
100
AcDbEntity
  8
bottom_plate
 62
3
100
AcDbSpline
 70
8
 71
3
 72
8
 73
4
 74
0
 40
0
 40
0
 40
0
 40
0
 40
1
 40
1
 40
1
 40
1
 10
-0.667639
 20
293.877410
 30
0.0
 10
-0.667639
 20
295.964786
 30
0.0
 10
1.024513
 20
297.656938
 30
0.0
 10
3.111888
 20
297.656938
 30
0.0
  0
LWPOLYLINE
  5
1b6
100
AcDbEntity
  8
bottom_plate
 62
3
100
AcDbPolyline
 90
2
 70
0
 10
-0.667639
 20
194.877750
 30
0.0
 10
-0.667639
 20
293.877410
 30
0.0
  0
SPLINE
  5
1b7
100
AcDbEntity
  8
bottom_plate
 62
3
100
AcDbSpline
 70
8
 71
3
 72
8
 73
4
 74
0
 40
0
 40
0
 40
0
 40
0
 40
1
 40
1
 40
1
 40
1
 10
166.834840
 20
294.615385
 30
0.0
 10
166.410155
 20
294.615385
 30
0.0
 10
166.027286
 20
294.359561
 30
0.0
 10
165.864766
 20
293.967203
 30
0.0
  0
SPLINE
  5
1b8
100
AcDbEntity
  8
bottom_plate
 62
3
100
AcDbSpline
 70
8
 71
3
 72
8
 73
4
 74
0
 40
0
 40
0
 40
0
 40
0
 40
1
 40
1
 40
1
 40
1
 10
165.864766
 20
293.967203
 30
0.0
 10
165.702246
 20
293.574845
 30
0.0
 10
165.792080
 20
293.123221
 30
0.0
 10
166.092378
 20
292.822923
 30
0.0
  0
SPLINE
  5
1b9
100
AcDbEntity
  8
bottom_plate
 62
3
100
AcDbSpline
 70
8
 71
3
 72
8
 73
4
 74
0
 40
0
 40
0
 40
0
 40
0
 40
1
 40
1
 40
1
 40
1
 10
166.092378
 20
292.822923
 30
0.0
 10
166.392676
 20
292.522625
 30
0.0
 10
166.844299
 20
292.432792
 30
0.0
 10
167.236658
 20
292.595312
 30
0.0
  0
SPLINE
  5
1ba
100
AcDbEntity
  8
bottom_plate
 62
3
100
AcDbSpline
 70
8
 71
3
 72
8
 73
4
 74
0
 40
0
 40
0
 40
0
 40
0
 40
1
 40
1
 40
1
 40
1
 10
167.236658
 20
292.595312
 30
0.0
 10
167.629016
 20
292.757832
 30
0.0
 10
167.884840
 20
293.140700
 30
0.0
 10
167.884840
 20
293.565385
 30
0.0
  0
SPLINE
  5
1bb
100
AcDbEntity
  8
bottom_plate
 62
3
100
AcDbSpline
 70
8
 71
3
 72
8
 73
4
 74
0
 40
0
 40
0
 40
0
 40
0
 40
1
 40
1
 40
1
 40
1
 10
167.884840
 20
293.565385
 30
0.0
 10
167.884840
 20
293.843863
 30
0.0
 10
167.774215
 20
294.110934
 30
0.0
 10
167.577302
 20
294.307847
 30
0.0
  0
SPLINE
  5
1bc
100
AcDbEntity
  8
bottom_plate
 62
3
100
AcDbSpline
 70
8
 71
3
 72
8
 73
4
 74
0
 40
0
 40
0
 40
0
 40
0
 40
1
 40
1
 40
1
 40
1
 10
167.577302
 20
294.307847
 30
0.0
 10
167.380389
 20
294.504761
 30
0.0
 10
167.113317
 20
294.615385
 30
0.0
 10
166.834840
 20
294.615385
 30
0.0
  0
LWPOLYLINE
  5
1bd
100
AcDbEntity
  8
bottom_plate
 62
3
100
AcDbPolyline
 90
1
 70
1
 10
3.111888
 20
297.656938
 30
0.0
  0
SPLINE
  5
1be
100
AcDbEntity
  8
bottom_plate
 62
3
100
AcDbSpline
 70
8
 71
3
 72
8
 73
4
 74
0
 40
0
 40
0
 40
0
 40
0
 40
1
 40
1
 40
1
 40
1
 10
166.834840
 20
196.239940
 30
0.0
 10
166.410155
 20
196.239940
 30
0.0
 10
166.027286
 20
195.984116
 30
0.0
 10
165.864766
 20
195.591758
 30
0.0
  0
SPLINE
  5
1bf
100
AcDbEntity
  8
bottom_plate
 62
3
100
AcDbSpline
 70
8
 71
3
 72
8
 73
4
 74
0
 40
0
 40
0
 40
0
 40
0
 40
1
 40
1
 40
1
 40
1
 10
165.864766
 20
195.591758
 30
0.0
 10
165.702246
 20
195.199399
 30
0.0
 10
165.792080
 20
194.747776
 30
0.0
 10
166.092378
 20
194.447478
 30
0.0
  0
SPLINE
  5
1c0
100
AcDbEntity
  8
bottom_plate
 62
3
100
AcDbSpline
 70
8
 71
3
 72
8
 73
4
 74
0
 40
0
 40
0
 40
0
 40
0
 40
1
 40
1
 40
1
 40
1
 10
166.092378
 20
194.447478
 30
0.0
 10
166.392676
 20
194.147180
 30
0.0
 10
166.844299
 20
194.057346
 30
0.0
 10
167.236658
 20
194.219866
 30
0.0
  0
SPLINE
  5
1c1
100
AcDbEntity
  8
bottom_plate
 62
3
100
AcDbSpline
 70
8
 71
3
 72
8
 73
4
 74
0
 40
0
 40
0
 40
0
 40
0
 40
1
 40
1
 40
1
 40
1
 10
167.236658
 20
194.219866
 30
0.0
 10
167.629016
 20
194.382386
 30
0.0
 10
167.884840
 20
194.765255
 30
0.0
 10
167.884840
 20
195.189940
 30
0.0
  0
SPLINE
  5
1c2
100
AcDbEntity
  8
bottom_plate
 62
3
100
AcDbSpline
 70
8
 71
3
 72
8
 73
4
 74
0
 40
0
 40
0
 40
0
 40
0
 40
1
 40
1
 40
1
 40
1
 10
167.884840
 20
195.189940
 30
0.0
 10
167.884840
 20
195.468417
 30
0.0
 10
167.774215
 20
195.735489
 30
0.0
 10
167.577302
 20
195.932402
 30
0.0
  0
SPLINE
  5
1c3
100
AcDbEntity
  8
bottom_plate
 62
3
100
AcDbSpline
 70
8
 71
3
 72
8
 73
4
 74
0
 40
0
 40
0
 40
0
 40
0
 40
1
 40
1
 40
1
 40
1
 10
167.577302
 20
195.932402
 30
0.0
 10
167.380389
 20
196.129315
 30
0.0
 10
167.113317
 20
196.239940
 30
0.0
 10
166.834840
 20
196.239940
 30
0.0
  0
LWPOLYLINE
  5
1c4
100
AcDbEntity
  8
bottom_plate
 62
3
100
AcDbPolyline
 90
1
 70
1
 10
166.834840
 20
294.615385
 30
0.0
  0
SPLINE
  5
1c5
100
AcDbEntity
  8
pcb
 62
1
100
AcDbSpline
 70
8
 71
3
 72
8
 73
4
 74
0
 40
0
 40
0
 40
0
 40
0
 40
1
 40
1
 40
1
 40
1
 10
3.430024
 20
296.065394
 30
0.0
 10
2.418868
 20
296.065394
 30
0.0
 10
1.507278
 20
295.456289
 30
0.0
 10
1.120325
 20
294.522103
 30
0.0
  0
SPLINE
  5
1c6
100
AcDbEntity
  8
pcb
 62
1
100
AcDbSpline
 70
8
 71
3
 72
8
 73
4
 74
0
 40
0
 40
0
 40
0
 40
0
 40
1
 40
1
 40
1
 40
1
 10
1.120325
 20
294.522103
 30
0.0
 10
0.733373
 20
293.587917
 30
0.0
 10
0.947262
 20
292.512622
 30
0.0
 10
1.662257
 20
291.797627
 30
0.0
  0
SPLINE
  5
1c7
100
AcDbEntity
  8
pcb
 62
1
100
AcDbSpline
 70
8
 71
3
 72
8
 73
4
 74
0
 40
0
 40
0
 40
0
 40
0
 40
1
 40
1
 40
1
 40
1
 10
1.662257
 20
291.797627
 30
0.0
 10
2.377252
 20
291.082632
 30
0.0
 10
3.452547
 20
290.868742
 30
0.0
 10
4.386733
 20
291.255695
 30
0.0
  0
SPLINE
  5
1c8
100
AcDbEntity
  8
pcb
 62
1
100
AcDbSpline
 70
8
 71
3
 72
8
 73
4
 74
0
 40
0
 40
0
 40
0
 40
0
 40
1
 40
1
 40
1
 40
1
 10
4.386733
 20
291.255695
 30
0.0
 10
5.320919
 20
291.642647
 30
0.0
 10
5.930024
 20
292.554238
 30
0.0
 10
5.930024
 20
293.565394
 30
0.0
  0
SPLINE
  5
1c9
100
AcDbEntity
  8
pcb
 62
1
100
AcDbSpline
 70
8
 71
3
 72
8
 73
4
 74
0
 40
0
 40
0
 40
0
 40
0
 40
1
 40
1
 40
1
 40
1
 10
5.930024
 20
293.565394
 30
0.0
 10
5.930024
 20
294.228435
 30
0.0
 10
5.666632
 20
294.864320
 30
0.0
 10
5.197791
 20
295.333161
 30
0.0
  0
SPLINE
  5
1ca
100
AcDbEntity
  8
pcb
 62
1
100
AcDbSpline
 70
8
 71
3
 72
8
 73
4
 74
0
 40
0
 40
0
 40
0
 40
0
 40
1
 40
1
 40
1
 40
1
 10
5.197791
 20
295.333161
 30
0.0
 10
4.728950
 20
295.802002
 30
0.0
 10
4.093065
 20
296.065394
 30
0.0
 10
3.430024
 20
296.065394
 30
0.0
  0
LWPOLYLINE
  5
1cb
100
AcDbEntity
  8
bottom_plate
 62
3
100
AcDbPolyline
 90
1
 70
1
 10
166.834840
 20
196.239940
 30
0.0
  0
SPLINE
  5
1cc
100
AcDbEntity
  8
pcb
 62
1
100
AcDbSpline
 70
8
 71
3
 72
8
 73
4
 74
0
 40
0
 40
0
 40
0
 40
0
 40
1
 40
1
 40
1
 40
1
 10
3.430024
 20
197.689931
 30
0.0
 10
2.418869
 20
197.689931
 30
0.0
 10
1.507278
 20
197.080825
 30
0.0
 10
1.120325
 20
196.146639
 30
0.0
  0
SPLINE
  5
1cd
100
AcDbEntity
  8
pcb
 62
1
100
AcDbSpline
 70
8
 71
3
 72
8
 73
4
 74
0
 40
0
 40
0
 40
0
 40
0
 40
1
 40
1
 40
1
 40
1
 10
1.120325
 20
196.146639
 30
0.0
 10
0.733373
 20
195.212453
 30
0.0
 10
0.947262
 20
194.137158
 30
0.0
 10
1.662257
 20
193.422163
 30
0.0
  0
SPLINE
  5
1ce
100
AcDbEntity
  8
pcb
 62
1
100
AcDbSpline
 70
8
 71
3
 72
8
 73
4
 74
0
 40
0
 40
0
 40
0
 40
0
 40
1
 40
1
 40
1
 40
1
 10
1.662257
 20
193.422163
 30
0.0
 10
2.377252
 20
192.707168
 30
0.0
 10
3.452547
 20
192.493278
 30
0.0
 10
4.386733
 20
192.880231
 30
0.0
  0
SPLINE
  5
1cf
100
AcDbEntity
  8
pcb
 62
1
100
AcDbSpline
 70
8
 71
3
 72
8
 73
4
 74
0
 40
0
 40
0
 40
0
 40
0
 40
1
 40
1
 40
1
 40
1
 10
4.386733
 20
192.880231
 30
0.0
 10
5.320919
 20
193.267183
 30
0.0
 10
5.930025
 20
194.178774
 30
0.0
 10
5.930025
 20
195.189930
 30
0.0
  0
SPLINE
  5
1d0
100
AcDbEntity
  8
pcb
 62
1
100
AcDbSpline
 70
8
 71
3
 72
8
 73
4
 74
0
 40
0
 40
0
 40
0
 40
0
 40
1
 40
1
 40
1
 40
1
 10
5.930025
 20
195.189930
 30
0.0
 10
5.930025
 20
195.852971
 30
0.0
 10
5.666633
 20
196.488856
 30
0.0
 10
5.197792
 20
196.957697
 30
0.0
  0
SPLINE
  5
1d1
100
AcDbEntity
  8
pcb
 62
1
100
AcDbSpline
 70
8
 71
3
 72
8
 73
4
 74
0
 40
0
 40
0
 40
0
 40
0
 40
1
 40
1
 40
1
 40
1
 10
5.197792
 20
196.957697
 30
0.0
 10
4.728951
 20
197.426538
 30
0.0
 10
4.093066
 20
197.689931
 30
0.0
 10
3.430024
 20
197.689931
 30
0.0
  0
LWPOLYLINE
  5
1d2
100
AcDbEntity
  8
pcb
 62
1
100
AcDbPolyline
 90
1
 70
1
 10
3.430024
 20
296.065394
 30
0.0
  0
SPLINE
  5
1d3
100
AcDbEntity
  8
pcb
 62
1
100
AcDbSpline
 70
8
 71
3
 72
8
 73
4
 74
0
 40
0
 40
0
 40
0
 40
0
 40
1
 40
1
 40
1
 40
1
 10
335.185030
 20
296.065389
 30
0.0
 10
334.173874
 20
296.065389
 30
0.0
 10
333.262283
 20
295.456284
 30
0.0
 10
332.875331
 20
294.522097
 30
0.0
  0
SPLINE
  5
1d4
100
AcDbEntity
  8
pcb
 62
1
100
AcDbSpline
 70
8
 71
3
 72
8
 73
4
 74
0
 40
0
 40
0
 40
0
 40
0
 40
1
 40
1
 40
1
 40
1
 10
332.875331
 20
294.522097
 30
0.0
 10
332.488378
 20
293.587911
 30
0.0
 10
332.702268
 20
292.512617
 30
0.0
 10
333.417263
 20
291.797621
 30
0.0
  0
SPLINE
  5
1d5
100
AcDbEntity
  8
pcb
 62
1
100
AcDbSpline
 70
8
 71
3
 72
8
 73
4
 74
0
 40
0
 40
0
 40
0
 40
0
 40
1
 40
1
 40
1
 40
1
 10
333.417263
 20
291.797621
 30
0.0
 10
334.132258
 20
291.082626
 30
0.0
 10
335.207553
 20
290.868737
 30
0.0
 10
336.141739
 20
291.255689
 30
0.0
  0
SPLINE
  5
1d6
100
AcDbEntity
  8
pcb
 62
1
100
AcDbSpline
 70
8
 71
3
 72
8
 73
4
 74
0
 40
0
 40
0
 40
0
 40
0
 40
1
 40
1
 40
1
 40
1
 10
336.141739
 20
291.255689
 30
0.0
 10
337.075925
 20
291.642642
 30
0.0
 10
337.685030
 20
292.554233
 30
0.0
 10
337.685030
 20
293.565389
 30
0.0
  0
SPLINE
  5
1d7
100
AcDbEntity
  8
pcb
 62
1
100
AcDbSpline
 70
8
 71
3
 72
8
 73
4
 74
0
 40
0
 40
0
 40
0
 40
0
 40
1
 40
1
 40
1
 40
1
 10
337.685030
 20
293.565389
 30
0.0
 10
337.685030
 20
294.228430
 30
0.0
 10
337.421638
 20
294.864315
 30
0.0
 10
336.952797
 20
295.333156
 30
0.0
  0
SPLINE
  5
1d8
100
AcDbEntity
  8
pcb
 62
1
100
AcDbSpline
 70
8
 71
3
 72
8
 73
4
 74
0
 40
0
 40
0
 40
0
 40
0
 40
1
 40
1
 40
1
 40
1
 10
336.952797
 20
295.333156
 30
0.0
 10
336.483956
 20
295.801997
 30
0.0
 10
335.848071
 20
296.065389
 30
0.0
 10
335.185030
 20
296.065389
 30
0.0
  0
LWPOLYLINE
  5
1d9
100
AcDbEntity
  8
pcb
 62
1
100
AcDbPolyline
 90
1
 70
1
 10
3.430024
 20
197.689931
 30
0.0
  0
SPLINE
  5
1da
100
AcDbEntity
  8
pcb
 62
1
100
AcDbSpline
 70
8
 71
3
 72
8
 73
4
 74
0
 40
0
 40
0
 40
0
 40
0
 40
1
 40
1
 40
1
 40
1
 10
335.185030
 20
197.689931
 30
0.0
 10
334.173874
 20
197.689931
 30
0.0
 10
333.262283
 20
197.080825
 30
0.0
 10
332.875331
 20
196.146639
 30
0.0
  0
SPLINE
  5
1db
100
AcDbEntity
  8
pcb
 62
1
100
AcDbSpline
 70
8
 71
3
 72
8
 73
4
 74
0
 40
0
 40
0
 40
0
 40
0
 40
1
 40
1
 40
1
 40
1
 10
332.875331
 20
196.146639
 30
0.0
 10
332.488378
 20
195.212453
 30
0.0
 10
332.702268
 20
194.137158
 30
0.0
 10
333.417263
 20
193.422163
 30
0.0
  0
SPLINE
  5
1dc
100
AcDbEntity
  8
pcb
 62
1
100
AcDbSpline
 70
8
 71
3
 72
8
 73
4
 74
0
 40
0
 40
0
 40
0
 40
0
 40
1
 40
1
 40
1
 40
1
 10
333.417263
 20
193.422163
 30
0.0
 10
334.132258
 20
192.707168
 30
0.0
 10
335.207553
 20
192.493278
 30
0.0
 10
336.141739
 20
192.880231
 30
0.0
  0
SPLINE
  5
1dd
100
AcDbEntity
  8
pcb
 62
1
100
AcDbSpline
 70
8
 71
3
 72
8
 73
4
 74
0
 40
0
 40
0
 40
0
 40
0
 40
1
 40
1
 40
1
 40
1
 10
336.141739
 20
192.880231
 30
0.0
 10
337.075925
 20
193.267183
 30
0.0
 10
337.685030
 20
194.178774
 30
0.0
 10
337.685030
 20
195.189930
 30
0.0
  0
SPLINE
  5
1de
100
AcDbEntity
  8
pcb
 62
1
100
AcDbSpline
 70
8
 71
3
 72
8
 73
4
 74
0
 40
0
 40
0
 40
0
 40
0
 40
1
 40
1
 40
1
 40
1
 10
337.685030
 20
195.189930
 30
0.0
 10
337.685030
 20
195.852971
 30
0.0
 10
337.421638
 20
196.488856
 30
0.0
 10
336.952797
 20
196.957697
 30
0.0
  0
SPLINE
  5
1df
100
AcDbEntity
  8
pcb
 62
1
100
AcDbSpline
 70
8
 71
3
 72
8
 73
4
 74
0
 40
0
 40
0
 40
0
 40
0
 40
1
 40
1
 40
1
 40
1
 10
336.952797
 20
196.957697
 30
0.0
 10
336.483956
 20
197.426538
 30
0.0
 10
335.848071
 20
197.689931
 30
0.0
 10
335.185030
 20
197.689931
 30
0.0
  0
LWPOLYLINE
  5
1e0
100
AcDbEntity
  8
pcb
 62
1
100
AcDbPolyline
 90
1
 70
1
 10
335.185030
 20
296.065389
 30
0.0
  0
SPLINE
  5
1e1
100
AcDbEntity
  8
pcb
 62
1
100
AcDbSpline
 70
8
 71
3
 72
8
 73
4
 74
0
 40
0
 40
0
 40
0
 40
0
 40
1
 40
1
 40
1
 40
1
 10
81.272408
 20
296.065389
 30
0.0
 10
80.261252
 20
296.065389
 30
0.0
 10
79.349661
 20
295.456283
 30
0.0
 10
78.962709
 20
294.522097
 30
0.0
  0
SPLINE
  5
1e2
100
AcDbEntity
  8
pcb
 62
1
100
AcDbSpline
 70
8
 71
3
 72
8
 73
4
 74
0
 40
0
 40
0
 40
0
 40
0
 40
1
 40
1
 40
1
 40
1
 10
78.962709
 20
294.522097
 30
0.0
 10
78.575756
 20
293.587911
 30
0.0
 10
78.789646
 20
292.512616
 30
0.0
 10
79.504641
 20
291.797621
 30
0.0
  0
SPLINE
  5
1e3
100
AcDbEntity
  8
pcb
 62
1
100
AcDbSpline
 70
8
 71
3
 72
8
 73
4
 74
0
 40
0
 40
0
 40
0
 40
0
 40
1
 40
1
 40
1
 40
1
 10
79.504641
 20
291.797621
 30
0.0
 10
80.219636
 20
291.082626
 30
0.0
 10
81.294931
 20
290.868737
 30
0.0
 10
82.229117
 20
291.255689
 30
0.0
  0
SPLINE
  5
1e4
100
AcDbEntity
  8
pcb
 62
1
100
AcDbSpline
 70
8
 71
3
 72
8
 73
4
 74
0
 40
0
 40
0
 40
0
 40
0
 40
1
 40
1
 40
1
 40
1
 10
82.229117
 20
291.255689
 30
0.0
 10
83.163303
 20
291.642642
 30
0.0
 10
83.772408
 20
292.554233
 30
0.0
 10
83.772408
 20
293.565388
 30
0.0
  0
SPLINE
  5
1e5
100
AcDbEntity
  8
pcb
 62
1
100
AcDbSpline
 70
8
 71
3
 72
8
 73
4
 74
0
 40
0
 40
0
 40
0
 40
0
 40
1
 40
1
 40
1
 40
1
 10
83.772408
 20
293.565388
 30
0.0
 10
83.772408
 20
294.228430
 30
0.0
 10
83.509016
 20
294.864315
 30
0.0
 10
83.040175
 20
295.333156
 30
0.0
  0
SPLINE
  5
1e6
100
AcDbEntity
  8
pcb
 62
1
100
AcDbSpline
 70
8
 71
3
 72
8
 73
4
 74
0
 40
0
 40
0
 40
0
 40
0
 40
1
 40
1
 40
1
 40
1
 10
83.040175
 20
295.333156
 30
0.0
 10
82.571334
 20
295.801997
 30
0.0
 10
81.935449
 20
296.065389
 30
0.0
 10
81.272408
 20
296.065389
 30
0.0
  0
LWPOLYLINE
  5
1e7
100
AcDbEntity
  8
pcb
 62
1
100
AcDbPolyline
 90
1
 70
1
 10
335.185030
 20
197.689931
 30
0.0
  0
SPLINE
  5
1e8
100
AcDbEntity
  8
pcb
 62
1
100
AcDbSpline
 70
8
 71
3
 72
8
 73
4
 74
0
 40
0
 40
0
 40
0
 40
0
 40
1
 40
1
 40
1
 40
1
 10
81.272408
 20
197.689931
 30
0.0
 10
80.261252
 20
197.689931
 30
0.0
 10
79.349661
 20
197.080825
 30
0.0
 10
78.962709
 20
196.146639
 30
0.0
  0
SPLINE
  5
1e9
100
AcDbEntity
  8
pcb
 62
1
100
AcDbSpline
 70
8
 71
3
 72
8
 73
4
 74
0
 40
0
 40
0
 40
0
 40
0
 40
1
 40
1
 40
1
 40
1
 10
78.962709
 20
196.146639
 30
0.0
 10
78.575756
 20
195.212453
 30
0.0
 10
78.789646
 20
194.137158
 30
0.0
 10
79.504641
 20
193.422163
 30
0.0
  0
SPLINE
  5
1ea
100
AcDbEntity
  8
pcb
 62
1
100
AcDbSpline
 70
8
 71
3
 72
8
 73
4
 74
0
 40
0
 40
0
 40
0
 40
0
 40
1
 40
1
 40
1
 40
1
 10
79.504641
 20
193.422163
 30
0.0
 10
80.219636
 20
192.707168
 30
0.0
 10
81.294931
 20
192.493278
 30
0.0
 10
82.229117
 20
192.880231
 30
0.0
  0
SPLINE
  5
1eb
100
AcDbEntity
  8
pcb
 62
1
100
AcDbSpline
 70
8
 71
3
 72
8
 73
4
 74
0
 40
0
 40
0
 40
0
 40
0
 40
1
 40
1
 40
1
 40
1
 10
82.229117
 20
192.880231
 30
0.0
 10
83.163303
 20
193.267183
 30
0.0
 10
83.772408
 20
194.178774
 30
0.0
 10
83.772408
 20
195.189930
 30
0.0
  0
SPLINE
  5
1ec
100
AcDbEntity
  8
pcb
 62
1
100
AcDbSpline
 70
8
 71
3
 72
8
 73
4
 74
0
 40
0
 40
0
 40
0
 40
0
 40
1
 40
1
 40
1
 40
1
 10
83.772408
 20
195.189930
 30
0.0
 10
83.772408
 20
195.852971
 30
0.0
 10
83.509016
 20
196.488856
 30
0.0
 10
83.040175
 20
196.957697
 30
0.0
  0
SPLINE
  5
1ed
100
AcDbEntity
  8
pcb
 62
1
100
AcDbSpline
 70
8
 71
3
 72
8
 73
4
 74
0
 40
0
 40
0
 40
0
 40
0
 40
1
 40
1
 40
1
 40
1
 10
83.040175
 20
196.957697
 30
0.0
 10
82.571334
 20
197.426538
 30
0.0
 10
81.935449
 20
197.689931
 30
0.0
 10
81.272408
 20
197.689931
 30
0.0
  0
LWPOLYLINE
  5
1ee
100
AcDbEntity
  8
pcb
 62
1
100
AcDbPolyline
 90
1
 70
1
 10
81.272408
 20
296.065389
 30
0.0
  0
SPLINE
  5
1ef
100
AcDbEntity
  8
pcb
 62
1
100
AcDbSpline
 70
8
 71
3
 72
8
 73
4
 74
0
 40
0
 40
0
 40
0
 40
0
 40
1
 40
1
 40
1
 40
1
 10
252.633800
 20
296.065389
 30
0.0
 10
251.622644
 20
296.065389
 30
0.0
 10
250.711053
 20
295.456283
 30
0.0
 10
250.324101
 20
294.522097
 30
0.0
  0
SPLINE
  5
1f0
100
AcDbEntity
  8
pcb
 62
1
100
AcDbSpline
 70
8
 71
3
 72
8
 73
4
 74
0
 40
0
 40
0
 40
0
 40
0
 40
1
 40
1
 40
1
 40
1
 10
250.324101
 20
294.522097
 30
0.0
 10
249.937148
 20
293.587911
 30
0.0
 10
250.151038
 20
292.512616
 30
0.0
 10
250.866033
 20
291.797621
 30
0.0
  0
SPLINE
  5
1f1
100
AcDbEntity
  8
pcb
 62
1
100
AcDbSpline
 70
8
 71
3
 72
8
 73
4
 74
0
 40
0
 40
0
 40
0
 40
0
 40
1
 40
1
 40
1
 40
1
 10
250.866033
 20
291.797621
 30
0.0
 10
251.581028
 20
291.082626
 30
0.0
 10
252.656323
 20
290.868736
 30
0.0
 10
253.590509
 20
291.255689
 30
0.0
  0
SPLINE
  5
1f2
100
AcDbEntity
  8
pcb
 62
1
100
AcDbSpline
 70
8
 71
3
 72
8
 73
4
 74
0
 40
0
 40
0
 40
0
 40
0
 40
1
 40
1
 40
1
 40
1
 10
253.590509
 20
291.255689
 30
0.0
 10
254.524695
 20
291.642641
 30
0.0
 10
255.133801
 20
292.554232
 30
0.0
 10
255.133801
 20
293.565388
 30
0.0
  0
SPLINE
  5
1f3
100
AcDbEntity
  8
pcb
 62
1
100
AcDbSpline
 70
8
 71
3
 72
8
 73
4
 74
0
 40
0
 40
0
 40
0
 40
0
 40
1
 40
1
 40
1
 40
1
 10
255.133801
 20
293.565388
 30
0.0
 10
255.133801
 20
294.228430
 30
0.0
 10
254.870408
 20
294.864314
 30
0.0
 10
254.401567
 20
295.333156
 30
0.0
  0
SPLINE
  5
1f4
100
AcDbEntity
  8
pcb
 62
1
100
AcDbSpline
 70
8
 71
3
 72
8
 73
4
 74
0
 40
0
 40
0
 40
0
 40
0
 40
1
 40
1
 40
1
 40
1
 10
254.401567
 20
295.333156
 30
0.0
 10
253.932726
 20
295.801997
 30
0.0
 10
253.296841
 20
296.065389
 30
0.0
 10
252.633800
 20
296.065389
 30
0.0
  0
LWPOLYLINE
  5
1f5
100
AcDbEntity
  8
pcb
 62
1
100
AcDbPolyline
 90
1
 70
1
 10
81.272408
 20
197.689931
 30
0.0
  0
SPLINE
  5
1f6
100
AcDbEntity
  8
pcb
 62
1
100
AcDbSpline
 70
8
 71
3
 72
8
 73
4
 74
0
 40
0
 40
0
 40
0
 40
0
 40
1
 40
1
 40
1
 40
1
 10
252.633800
 20
197.689931
 30
0.0
 10
251.622644
 20
197.689931
 30
0.0
 10
250.711053
 20
197.080825
 30
0.0
 10
250.324101
 20
196.146639
 30
0.0
  0
SPLINE
  5
1f7
100
AcDbEntity
  8
pcb
 62
1
100
AcDbSpline
 70
8
 71
3
 72
8
 73
4
 74
0
 40
0
 40
0
 40
0
 40
0
 40
1
 40
1
 40
1
 40
1
 10
250.324101
 20
196.146639
 30
0.0
 10
249.937148
 20
195.212453
 30
0.0
 10
250.151038
 20
194.137158
 30
0.0
 10
250.866033
 20
193.422163
 30
0.0
  0
SPLINE
  5
1f8
100
AcDbEntity
  8
pcb
 62
1
100
AcDbSpline
 70
8
 71
3
 72
8
 73
4
 74
0
 40
0
 40
0
 40
0
 40
0
 40
1
 40
1
 40
1
 40
1
 10
250.866033
 20
193.422163
 30
0.0
 10
251.581028
 20
192.707168
 30
0.0
 10
252.656323
 20
192.493278
 30
0.0
 10
253.590509
 20
192.880231
 30
0.0
  0
SPLINE
  5
1f9
100
AcDbEntity
  8
pcb
 62
1
100
AcDbSpline
 70
8
 71
3
 72
8
 73
4
 74
0
 40
0
 40
0
 40
0
 40
0
 40
1
 40
1
 40
1
 40
1
 10
253.590509
 20
192.880231
 30
0.0
 10
254.524695
 20
193.267183
 30
0.0
 10
255.133801
 20
194.178774
 30
0.0
 10
255.133801
 20
195.189930
 30
0.0
  0
SPLINE
  5
1fa
100
AcDbEntity
  8
pcb
 62
1
100
AcDbSpline
 70
8
 71
3
 72
8
 73
4
 74
0
 40
0
 40
0
 40
0
 40
0
 40
1
 40
1
 40
1
 40
1
 10
255.133801
 20
195.189930
 30
0.0
 10
255.133801
 20
195.852971
 30
0.0
 10
254.870408
 20
196.488856
 30
0.0
 10
254.401567
 20
196.957697
 30
0.0
  0
SPLINE
  5
1fb
100
AcDbEntity
  8
pcb
 62
1
100
AcDbSpline
 70
8
 71
3
 72
8
 73
4
 74
0
 40
0
 40
0
 40
0
 40
0
 40
1
 40
1
 40
1
 40
1
 10
254.401567
 20
196.957697
 30
0.0
 10
253.932726
 20
197.426538
 30
0.0
 10
253.296841
 20
197.689931
 30
0.0
 10
252.633800
 20
197.689931
 30
0.0
  0
LWPOLYLINE
  5
1fc
100
AcDbEntity
  8
pcb
 62
1
100
AcDbPolyline
 90
1
 70
1
 10
252.633800
 20
296.065389
 30
0.0
  0
SPLINE
  5
1fd
100
AcDbEntity
  8
pcb
 62
1
100
AcDbSpline
 70
8
 71
3
 72
8
 73
4
 74
0
 40
0
 40
0
 40
0
 40
0
 40
1
 40
1
 40
1
 40
1
 10
52.626663
 20
256.458248
 30
0.0
 10
51.615507
 20
256.458248
 30
0.0
 10
50.703916
 20
255.849143
 30
0.0
 10
50.316964
 20
254.914957
 30
0.0
  0
SPLINE
  5
1fe
100
AcDbEntity
  8
pcb
 62
1
100
AcDbSpline
 70
8
 71
3
 72
8
 73
4
 74
0
 40
0
 40
0
 40
0
 40
0
 40
1
 40
1
 40
1
 40
1
 10
50.316964
 20
254.914957
 30
0.0
 10
49.930011
 20
253.980771
 30
0.0
 10
50.143901
 20
252.905476
 30
0.0
 10
50.858896
 20
252.190481
 30
0.0
  0
SPLINE
  5
1ff
100
AcDbEntity
  8
pcb
 62
1
100
AcDbSpline
 70
8
 71
3
 72
8
 73
4
 74
0
 40
0
 40
0
 40
0
 40
0
 40
1
 40
1
 40
1
 40
1
 10
50.858896
 20
252.190481
 30
0.0
 10
51.573891
 20
251.475486
 30
0.0
 10
52.649186
 20
251.261596
 30
0.0
 10
53.583372
 20
251.648549
 30
0.0
  0
SPLINE
  5
200
100
AcDbEntity
  8
pcb
 62
1
100
AcDbSpline
 70
8
 71
3
 72
8
 73
4
 74
0
 40
0
 40
0
 40
0
 40
0
 40
1
 40
1
 40
1
 40
1
 10
53.583372
 20
251.648549
 30
0.0
 10
54.517558
 20
252.035501
 30
0.0
 10
55.126663
 20
252.947092
 30
0.0
 10
55.126663
 20
253.958248
 30
0.0
  0
SPLINE
  5
201
100
AcDbEntity
  8
pcb
 62
1
100
AcDbSpline
 70
8
 71
3
 72
8
 73
4
 74
0
 40
0
 40
0
 40
0
 40
0
 40
1
 40
1
 40
1
 40
1
 10
55.126663
 20
253.958248
 30
0.0
 10
55.126663
 20
254.621289
 30
0.0
 10
54.863271
 20
255.257174
 30
0.0
 10
54.394430
 20
255.726015
 30
0.0
  0
SPLINE
  5
202
100
AcDbEntity
  8
pcb
 62
1
100
AcDbSpline
 70
8
 71
3
 72
8
 73
4
 74
0
 40
0
 40
0
 40
0
 40
0
 40
1
 40
1
 40
1
 40
1
 10
54.394430
 20
255.726015
 30
0.0
 10
53.925589
 20
256.194856
 30
0.0
 10
53.289704
 20
256.458248
 30
0.0
 10
52.626663
 20
256.458248
 30
0.0
  0
LWPOLYLINE
  5
203
100
AcDbEntity
  8
pcb
 62
1
100
AcDbPolyline
 90
1
 70
1
 10
252.633800
 20
197.689931
 30
0.0
  0
SPLINE
  5
204
100
AcDbEntity
  8
pcb
 62
1
100
AcDbSpline
 70
8
 71
3
 72
8
 73
4
 74
0
 40
0
 40
0
 40
0
 40
0
 40
1
 40
1
 40
1
 40
1
 10
133.581440
 20
237.322884
 30
0.0
 10
132.570284
 20
237.322884
 30
0.0
 10
131.658693
 20
236.713779
 30
0.0
 10
131.271741
 20
235.779593
 30
0.0
  0
SPLINE
  5
205
100
AcDbEntity
  8
pcb
 62
1
100
AcDbSpline
 70
8
 71
3
 72
8
 73
4
 74
0
 40
0
 40
0
 40
0
 40
0
 40
1
 40
1
 40
1
 40
1
 10
131.271741
 20
235.779593
 30
0.0
 10
130.884788
 20
234.845407
 30
0.0
 10
131.098678
 20
233.770112
 30
0.0
 10
131.813673
 20
233.055117
 30
0.0
  0
SPLINE
  5
206
100
AcDbEntity
  8
pcb
 62
1
100
AcDbSpline
 70
8
 71
3
 72
8
 73
4
 74
0
 40
0
 40
0
 40
0
 40
0
 40
1
 40
1
 40
1
 40
1
 10
131.813673
 20
233.055117
 30
0.0
 10
132.528668
 20
232.340122
 30
0.0
 10
133.603963
 20
232.126232
 30
0.0
 10
134.538149
 20
232.513185
 30
0.0
  0
SPLINE
  5
207
100
AcDbEntity
  8
pcb
 62
1
100
AcDbSpline
 70
8
 71
3
 72
8
 73
4
 74
0
 40
0
 40
0
 40
0
 40
0
 40
1
 40
1
 40
1
 40
1
 10
134.538149
 20
232.513185
 30
0.0
 10
135.472335
 20
232.900137
 30
0.0
 10
136.081440
 20
233.811728
 30
0.0
 10
136.081440
 20
234.822884
 30
0.0
  0
SPLINE
  5
208
100
AcDbEntity
  8
pcb
 62
1
100
AcDbSpline
 70
8
 71
3
 72
8
 73
4
 74
0
 40
0
 40
0
 40
0
 40
0
 40
1
 40
1
 40
1
 40
1
 10
136.081440
 20
234.822884
 30
0.0
 10
136.081440
 20
235.485925
 30
0.0
 10
135.818048
 20
236.121810
 30
0.0
 10
135.349207
 20
236.590651
 30
0.0
  0
SPLINE
  5
209
100
AcDbEntity
  8
pcb
 62
1
100
AcDbSpline
 70
8
 71
3
 72
8
 73
4
 74
0
 40
0
 40
0
 40
0
 40
0
 40
1
 40
1
 40
1
 40
1
 10
135.349207
 20
236.590651
 30
0.0
 10
134.880366
 20
237.059492
 30
0.0
 10
134.244481
 20
237.322884
 30
0.0
 10
133.581440
 20
237.322884
 30
0.0
  0
LWPOLYLINE
  5
20a
100
AcDbEntity
  8
pcb
 62
1
100
AcDbPolyline
 90
1
 70
1
 10
52.626663
 20
256.458248
 30
0.0
  0
SPLINE
  5
20b
100
AcDbEntity
  8
pcb
 62
1
100
AcDbSpline
 70
8
 71
3
 72
8
 73
4
 74
0
 40
0
 40
0
 40
0
 40
0
 40
1
 40
1
 40
1
 40
1
 10
209.780350
 20
256.339855
 30
0.0
 10
208.769194
 20
256.339855
 30
0.0
 10
207.857603
 20
255.730750
 30
0.0
 10
207.470651
 20
254.796564
 30
0.0
  0
SPLINE
  5
20c
100
AcDbEntity
  8
pcb
 62
1
100
AcDbSpline
 70
8
 71
3
 72
8
 73
4
 74
0
 40
0
 40
0
 40
0
 40
0
 40
1
 40
1
 40
1
 40
1
 10
207.470651
 20
254.796564
 30
0.0
 10
207.083698
 20
253.862378
 30
0.0
 10
207.297588
 20
252.787083
 30
0.0
 10
208.012583
 20
252.072088
 30
0.0
  0
SPLINE
  5
20d
100
AcDbEntity
  8
pcb
 62
1
100
AcDbSpline
 70
8
 71
3
 72
8
 73
4
 74
0
 40
0
 40
0
 40
0
 40
0
 40
1
 40
1
 40
1
 40
1
 10
208.012583
 20
252.072088
 30
0.0
 10
208.727578
 20
251.357093
 30
0.0
 10
209.802873
 20
251.143203
 30
0.0
 10
210.737059
 20
251.530156
 30
0.0
  0
SPLINE
  5
20e
100
AcDbEntity
  8
pcb
 62
1
100
AcDbSpline
 70
8
 71
3
 72
8
 73
4
 74
0
 40
0
 40
0
 40
0
 40
0
 40
1
 40
1
 40
1
 40
1
 10
210.737059
 20
251.530156
 30
0.0
 10
211.671245
 20
251.917108
 30
0.0
 10
212.280350
 20
252.828699
 30
0.0
 10
212.280350
 20
253.839855
 30
0.0
  0
SPLINE
  5
20f
100
AcDbEntity
  8
pcb
 62
1
100
AcDbSpline
 70
8
 71
3
 72
8
 73
4
 74
0
 40
0
 40
0
 40
0
 40
0
 40
1
 40
1
 40
1
 40
1
 10
212.280350
 20
253.839855
 30
0.0
 10
212.280350
 20
254.502896
 30
0.0
 10
212.016958
 20
255.138781
 30
0.0
 10
211.548117
 20
255.607622
 30
0.0
  0
SPLINE
  5
210
100
AcDbEntity
  8
pcb
 62
1
100
AcDbSpline
 70
8
 71
3
 72
8
 73
4
 74
0
 40
0
 40
0
 40
0
 40
0
 40
1
 40
1
 40
1
 40
1
 10
211.548117
 20
255.607622
 30
0.0
 10
211.079276
 20
256.076463
 30
0.0
 10
210.443391
 20
256.339855
 30
0.0
 10
209.780350
 20
256.339855
 30
0.0
  0
LWPOLYLINE
  5
211
100
AcDbEntity
  8
pcb
 62
1
100
AcDbPolyline
 90
1
 70
1
 10
133.581440
 20
237.322884
 30
0.0
  0
SPLINE
  5
212
100
AcDbEntity
  8
pcb
 62
1
100
AcDbSpline
 70
8
 71
3
 72
8
 73
4
 74
0
 40
0
 40
0
 40
0
 40
0
 40
1
 40
1
 40
1
 40
1
 10
285.650760
 20
237.322900
 30
0.0
 10
284.639604
 20
237.322900
 30
0.0
 10
283.728013
 20
236.713794
 30
0.0
 10
283.341061
 20
235.779608
 30
0.0
  0
SPLINE
  5
213
100
AcDbEntity
  8
pcb
 62
1
100
AcDbSpline
 70
8
 71
3
 72
8
 73
4
 74
0
 40
0
 40
0
 40
0
 40
0
 40
1
 40
1
 40
1
 40
1
 10
283.341061
 20
235.779608
 30
0.0
 10
282.954108
 20
234.845422
 30
0.0
 10
283.167998
 20
233.770127
 30
0.0
 10
283.882993
 20
233.055132
 30
0.0
  0
SPLINE
  5
214
100
AcDbEntity
  8
pcb
 62
1
100
AcDbSpline
 70
8
 71
3
 72
8
 73
4
 74
0
 40
0
 40
0
 40
0
 40
0
 40
1
 40
1
 40
1
 40
1
 10
283.882993
 20
233.055132
 30
0.0
 10
284.597988
 20
232.340137
 30
0.0
 10
285.673283
 20
232.126247
 30
0.0
 10
286.607469
 20
232.513200
 30
0.0
  0
SPLINE
  5
215
100
AcDbEntity
  8
pcb
 62
1
100
AcDbSpline
 70
8
 71
3
 72
8
 73
4
 74
0
 40
0
 40
0
 40
0
 40
0
 40
1
 40
1
 40
1
 40
1
 10
286.607469
 20
232.513200
 30
0.0
 10
287.541655
 20
232.900152
 30
0.0
 10
288.150760
 20
233.811743
 30
0.0
 10
288.150760
 20
234.822899
 30
0.0
  0
SPLINE
  5
216
100
AcDbEntity
  8
pcb
 62
1
100
AcDbSpline
 70
8
 71
3
 72
8
 73
4
 74
0
 40
0
 40
0
 40
0
 40
0
 40
1
 40
1
 40
1
 40
1
 10
288.150760
 20
234.822899
 30
0.0
 10
288.150760
 20
235.485940
 30
0.0
 10
287.887368
 20
236.121825
 30
0.0
 10
287.418527
 20
236.590666
 30
0.0
  0
SPLINE
  5
217
100
AcDbEntity
  8
pcb
 62
1
100
AcDbSpline
 70
8
 71
3
 72
8
 73
4
 74
0
 40
0
 40
0
 40
0
 40
0
 40
1
 40
1
 40
1
 40
1
 10
287.418527
 20
236.590666
 30
0.0
 10
286.949686
 20
237.059507
 30
0.0
 10
286.313801
 20
237.322900
 30
0.0
 10
285.650760
 20
237.322900
 30
0.0
  0
LWPOLYLINE
  5
218
100
AcDbEntity
  8
pcb
 62
1
100
AcDbPolyline
 90
1
 70
1
 10
209.780350
 20
256.339855
 30
0.0
  0
SPLINE
  5
219
100
AcDbEntity
  8
pcb
 62
1
100
AcDbSpline
 70
8
 71
3
 72
8
 73
4
 74
0
 40
0
 40
0
 40
0
 40
0
 40
1
 40
1
 40
1
 40
1
 10
166.834840
 20
296.065386
 30
0.0
 10
165.823684
 20
296.065386
 30
0.0
 10
164.912094
 20
295.456281
 30
0.0
 10
164.525141
 20
294.522094
 30
0.0
  0
SPLINE
  5
21a
100
AcDbEntity
  8
pcb
 62
1
100
AcDbSpline
 70
8
 71
3
 72
8
 73
4
 74
0
 40
0
 40
0
 40
0
 40
0
 40
1
 40
1
 40
1
 40
1
 10
164.525141
 20
294.522094
 30
0.0
 10
164.138188
 20
293.587908
 30
0.0
 10
164.352078
 20
292.512614
 30
0.0
 10
165.067073
 20
291.797619
 30
0.0
  0
SPLINE
  5
21b
100
AcDbEntity
  8
pcb
 62
1
100
AcDbSpline
 70
8
 71
3
 72
8
 73
4
 74
0
 40
0
 40
0
 40
0
 40
0
 40
1
 40
1
 40
1
 40
1
 10
165.067073
 20
291.797619
 30
0.0
 10
165.782068
 20
291.082624
 30
0.0
 10
166.857363
 20
290.868734
 30
0.0
 10
167.791549
 20
291.255687
 30
0.0
  0
SPLINE
  5
21c
100
AcDbEntity
  8
pcb
 62
1
100
AcDbSpline
 70
8
 71
3
 72
8
 73
4
 74
0
 40
0
 40
0
 40
0
 40
0
 40
1
 40
1
 40
1
 40
1
 10
167.791549
 20
291.255687
 30
0.0
 10
168.725735
 20
291.642639
 30
0.0
 10
169.334840
 20
292.554230
 30
0.0
 10
169.334840
 20
293.565386
 30
0.0
  0
SPLINE
  5
21d
100
AcDbEntity
  8
pcb
 62
1
100
AcDbSpline
 70
8
 71
3
 72
8
 73
4
 74
0
 40
0
 40
0
 40
0
 40
0
 40
1
 40
1
 40
1
 40
1
 10
169.334840
 20
293.565386
 30
0.0
 10
169.334840
 20
294.946098
 30
0.0
 10
168.215552
 20
296.065386
 30
0.0
 10
166.834840
 20
296.065386
 30
0.0
  0
LWPOLYLINE
  5
21e
100
AcDbEntity
  8
pcb
 62
1
100
AcDbPolyline
 90
1
 70
1
 10
285.650760
 20
237.322900
 30
0.0
  0
SPLINE
  5
21f
100
AcDbEntity
  8
pcb
 62
1
100
AcDbSpline
 70
8
 71
3
 72
8
 73
4
 74
0
 40
0
 40
0
 40
0
 40
0
 40
1
 40
1
 40
1
 40
1
 10
166.834840
 20
197.689930
 30
0.0
 10
165.823684
 20
197.689930
 30
0.0
 10
164.912094
 20
197.080825
 30
0.0
 10
164.525141
 20
196.146639
 30
0.0
  0
SPLINE
  5
220
100
AcDbEntity
  8
pcb
 62
1
100
AcDbSpline
 70
8
 71
3
 72
8
 73
4
 74
0
 40
0
 40
0
 40
0
 40
0
 40
1
 40
1
 40
1
 40
1
 10
164.525141
 20
196.146639
 30
0.0
 10
164.138188
 20
195.212453
 30
0.0
 10
164.352078
 20
194.137158
 30
0.0
 10
165.067073
 20
193.422163
 30
0.0
  0
SPLINE
  5
221
100
AcDbEntity
  8
pcb
 62
1
100
AcDbSpline
 70
8
 71
3
 72
8
 73
4
 74
0
 40
0
 40
0
 40
0
 40
0
 40
1
 40
1
 40
1
 40
1
 10
165.067073
 20
193.422163
 30
0.0
 10
165.782068
 20
192.707168
 30
0.0
 10
166.857363
 20
192.493278
 30
0.0
 10
167.791549
 20
192.880231
 30
0.0
  0
SPLINE
  5
222
100
AcDbEntity
  8
pcb
 62
1
100
AcDbSpline
 70
8
 71
3
 72
8
 73
4
 74
0
 40
0
 40
0
 40
0
 40
0
 40
1
 40
1
 40
1
 40
1
 10
167.791549
 20
192.880231
 30
0.0
 10
168.725735
 20
193.267184
 30
0.0
 10
169.334840
 20
194.178774
 30
0.0
 10
169.334840
 20
195.189930
 30
0.0
  0
SPLINE
  5
223
100
AcDbEntity
  8
pcb
 62
1
100
AcDbSpline
 70
8
 71
3
 72
8
 73
4
 74
0
 40
0
 40
0
 40
0
 40
0
 40
1
 40
1
 40
1
 40
1
 10
169.334840
 20
195.189930
 30
0.0
 10
169.334840
 20
196.570642
 30
0.0
 10
168.215552
 20
197.689930
 30
0.0
 10
166.834840
 20
197.689930
 30
0.0
  0
LWPOLYLINE
  5
224
100
AcDbEntity
  8
pcb
 62
1
100
AcDbPolyline
 90
1
 70
1
 10
166.834840
 20
296.065386
 30
0.0
  0
LWPOLYLINE
  5
225
100
AcDbEntity
  8
pcb
 62
1
100
AcDbPolyline
 90
1
 70
1
 10
166.834840
 20
197.689930
 30
0.0
  0
SPLINE
  5
226
100
AcDbEntity
  8
pcb
 62
1
100
AcDbSpline
 70
8
 71
3
 72
8
 73
4
 74
0
 40
0
 40
0
 40
0
 40
0
 40
1
 40
1
 40
1
 40
1
 10
335.493550
 20
297.656938
 30
0.0
 10
336.495943
 20
297.656939
 30
0.0
 10
337.457282
 20
297.258740
 30
0.0
 10
338.166081
 20
296.549941
 30
0.0
  0
SPLINE
  5
227
100
AcDbEntity
  8
pcb
 62
1
100
AcDbSpline
 70
8
 71
3
 72
8
 73
4
 74
0
 40
0
 40
0
 40
0
 40
0
 40
1
 40
1
 40
1
 40
1
 10
338.166081
 20
296.549941
 30
0.0
 10
338.874881
 20
295.841142
 30
0.0
 10
339.273080
 20
294.879804
 30
0.0
 10
339.273080
 20
293.877410
 30
0.0
  0
LWPOLYLINE
  5
228
100
AcDbEntity
  8
pcb
 62
1
100
AcDbPolyline
 90
2
 70
0
 10
3.111888
 20
297.656938
 30
0.0
 10
335.493550
 20
297.656938
 30
0.0
  0
SPLINE
  5
229
100
AcDbEntity
  8
pcb
 62
1
100
AcDbSpline
 70
8
 71
3
 72
8
 73
4
 74
0
 40
0
 40
0
 40
0
 40
0
 40
1
 40
1
 40
1
 40
1
 10
339.273080
 20
194.877750
 30
0.0
 10
339.273081
 20
193.875356
 30
0.0
 10
338.874882
 20
192.914018
 30
0.0
 10
338.166082
 20
192.205218
 30
0.0
  0
SPLINE
  5
22a
100
AcDbEntity
  8
pcb
 62
1
100
AcDbSpline
 70
8
 71
3
 72
8
 73
4
 74
0
 40
0
 40
0
 40
0
 40
0
 40
1
 40
1
 40
1
 40
1
 10
338.166082
 20
192.205218
 30
0.0
 10
337.457282
 20
191.496418
 30
0.0
 10
336.495944
 20
191.098219
 30
0.0
 10
335.493550
 20
191.098220
 30
0.0
  0
LWPOLYLINE
  5
22b
100
AcDbEntity
  8
pcb
 62
1
100
AcDbPolyline
 90
2
 70
0
 10
339.273080
 20
293.877410
 30
0.0
 10
339.273080
 20
194.877750
 30
0.0
  0
SPLINE
  5
22c
100
AcDbEntity
  8
pcb
 62
1
100
AcDbSpline
 70
8
 71
3
 72
8
 73
4
 74
0
 40
0
 40
0
 40
0
 40
0
 40
1
 40
1
 40
1
 40
1
 10
3.111888
 20
191.098220
 30
0.0
 10
2.109495
 20
191.098220
 30
0.0
 10
1.148157
 20
191.496419
 30
0.0
 10
0.439358
 20
192.205219
 30
0.0
  0
SPLINE
  5
22d
100
AcDbEntity
  8
pcb
 62
1
100
AcDbSpline
 70
8
 71
3
 72
8
 73
4
 74
0
 40
0
 40
0
 40
0
 40
0
 40
1
 40
1
 40
1
 40
1
 10
0.439358
 20
192.205219
 30
0.0
 10
-0.269441
 20
192.914018
 30
0.0
 10
-0.667640
 20
193.875357
 30
0.0
 10
-0.667639
 20
194.877750
 30
0.0
  0
LWPOLYLINE
  5
22e
100
AcDbEntity
  8
pcb
 62
1
100
AcDbPolyline
 90
2
 70
0
 10
335.493550
 20
191.098220
 30
0.0
 10
3.111888
 20
191.098220
 30
0.0
  0
SPLINE
  5
22f
100
AcDbEntity
  8
pcb
 62
1
100
AcDbSpline
 70
8
 71
3
 72
8
 73
4
 74
0
 40
0
 40
0
 40
0
 40
0
 40
1
 40
1
 40
1
 40
1
 10
-0.667639
 20
293.877410
 30
0.0
 10
-0.667639
 20
295.964786
 30
0.0
 10
1.024513
 20
297.656938
 30
0.0
 10
3.111888
 20
297.656938
 30
0.0
  0
LWPOLYLINE
  5
230
100
AcDbEntity
  8
pcb
 62
1
100
AcDbPolyline
 90
2
 70
0
 10
-0.667639
 20
194.877750
 30
0.0
 10
-0.667639
 20
293.877410
 30
0.0
  0
LWPOLYLINE
  5
231
100
AcDbEntity
  8
pcb
 62
1
100
AcDbPolyline
 90
1
 70
1
 10
3.111888
 20
297.656938
 30
0.0
  0
ENDSEC
  0
SECTION
  2
OBJECTS
  0
DICTIONARY
  5
C
330
0
100
AcDbDictionary
  3
ACAD_GROUP
350
D
  3
ACAD_MLINESTYLE
350
17
  0
DICTIONARY
  5
D
330
C
100
AcDbDictionary
  0
DICTIONARY
  5
1A
330
C
100
AcDbDictionary
  0
DICTIONARY
  5
17
330
C
100
AcDbDictionary
  3
STANDARD
350
18
  0
DICTIONARY
  5
19
330
C
100
AcDbDictionary
  0
ENDSEC
  0
EOF
