  0
SECTION
  2
HEADER
  9
$ACADVER
  1
AC1014
  9
$HANDSEED
  5
FFFF
  9
$MEASUREMENT
 70
     1
  0
ENDSEC
  0
SECTION
  2
TABLES
  0
TABLE
  2
VPORT
  5
8
330
0
100
AcDbSymbolTable
 70
     4
  0
VPORT
  5
2E
330
8
100
AcDbSymbolTableRecord
100
AcDbViewportTableRecord
  2
*ACTIVE
 70
     0
 10
0.0
 20
0.0
 11
1.0
 21
1.0
 12
210.0
 22
148.5
 13
0.0
 23
0.0
 14
10.0
 24
10.0
 15
10.0
 25
10.0
 16
0.0
 26
0.0
 36
1.0
 17
0.0
 27
0.0
 37
0.0
 40
341.0
 41
1.24
 42
50.0
 43
0.0
 44
0.0
 50
0.0
 51
0.0
 71
     0
 72
   100
 73
     1
 74
     3
 75
     0
 76
     0
 77
     0
 78
     0
  0
ENDTAB
  0
TABLE
  2
LTYPE
  5
5
330
0
100
AcDbSymbolTable
 70
     1
  0
LTYPE
  5
14
330
5
100
AcDbSymbolTableRecord
100
AcDbLinetypeTableRecord
  2
BYBLOCK
 70
     0
  3

 72
    65
 73
     0
 40
0.0
  0
LTYPE
  5
15
330
5
100
AcDbSymbolTableRecord
100
AcDbLinetypeTableRecord
  2
BYLAYER
 70
     0
  3

 72
    65
 73
     0
 40
0.0
  0
LTYPE
  5
16
330
5
100
AcDbSymbolTableRecord
100
AcDbLinetypeTableRecord
  2
CONTINUOUS
 70
     0
  3
Solid line
 72
    65
 73
     0
 40
0.0
  0
ENDTAB
  0
TABLE
  2
LAYER
  5
2
100
AcDbSymbolTable
 70
1
  0
LAYER
  5
50
100
AcDbSymbolTableRecord
100
AcDbLayerTableRecord
  2
0
 70
0
  6
CONTINUOUS
  0
ENDTAB
  0
TABLE
  2
STYLE
  5
3
330
0
100
AcDbSymbolTable
 70
     1
  0
STYLE
  5
11
330
3
100
AcDbSymbolTableRecord
100
AcDbTextStyleTableRecord
  2
STANDARD
 70
     0
 40
0.0
 41
1.0
 50
0.0
 71
     0
 42
2.5
  3
txt
  4

  0
ENDTAB
  0
TABLE
  2
VIEW
  5
6
330
0
100
AcDbSymbolTable
 70
     0
  0
ENDTAB
  0
TABLE
  2
UCS
  5
7
330
0
100
AcDbSymbolTable
 70
     0
  0
ENDTAB
  0
TABLE
  2
APPID
  5
9
330
0
100
AcDbSymbolTable
 70
     2
  0
APPID
  5
12
330
9
100
AcDbSymbolTableRecord
100
AcDbRegAppTableRecord
  2
ACAD
 70
     0
  0
ENDTAB
  0
TABLE
  2
DIMSTYLE
  5
A
330
0
100
AcDbSymbolTable
 70
     1
  0
DIMSTYLE
105
27
330
A
100
AcDbSymbolTableRecord
100
AcDbDimStyleTableRecord
  2
ISO-25
 70
     0
  3

  4

  5

  6

  7

 40
1.0
 41
2.5
 42
0.625
 43
3.75
 44
1.25
 45
0.0
 46
0.0
 47
0.0
 48
0.0
140
2.5
141
2.5
142
0.0
143
0.03937007874016
144
1.0
145
0.0
146
1.0
147
0.625
 71
     0
 72
     0
 73
     0
 74
     0
 75
     0
 76
     0
 77
     1
 78
     8
170
     0
171
     3
172
     1
173
     0
174
     0
175
     0
176
     0
177
     0
178
     0
270
     2
271
     2
272
     2
273
     2
274
     3
340
11
275
     0
280
     0
281
     0
282
     0
283
     0
284
     8
285
     0
286
     0
287
     3
288
     0
  0
ENDTAB
  0
TABLE
  2
BLOCK_RECORD
  5
1
330
0
100
AcDbSymbolTable
 70
     1
  0
BLOCK_RECORD
  5
1F
330
1
100
AcDbSymbolTableRecord
100
AcDbBlockTableRecord
  2
*MODEL_SPACE
  0
BLOCK_RECORD
  5
1B
330
1
100
AcDbSymbolTableRecord
100
AcDbBlockTableRecord
  2
*PAPER_SPACE
  0
ENDTAB
  0
ENDSEC
  0
SECTION
  2
BLOCKS
  0
BLOCK
  5
20
330
1F
100
AcDbEntity
  8
0
100
AcDbBlockBegin
  2
*MODEL_SPACE
 70
     0
 10
0.0
 20
0.0
 30
0.0
  3
*MODEL_SPACE
  1

  0
ENDBLK
  5
21
330
1F
100
AcDbEntity
  8
0
100
AcDbBlockEnd
  0
BLOCK
  5
1C
330
1B
100
AcDbEntity
 67
     1
  8
0
100
AcDbBlockBegin
  2
*PAPER_SPACE
  1

  0
ENDBLK
  5
1D
330
1B
100
AcDbEntity
 67
     1
  8
0
100
AcDbBlockEnd
  0
ENDSEC
  0
SECTION
  2
ENTITIES
  0
LWPOLYLINE
  5
100
100
AcDbEntity
  8
0
 62
7
100
AcDbPolyline
 90
178
 70
1
 10
18.097175
 20
80.770200
 30
0.0
 10
18.089175
 20
80.542100
 30
0.0
 10
17.706175
 20
70.712800
 30
0.0
 10
17.639175
 20
70.642000
 30
0.0
 10
17.637175
 20
70.640400
 30
0.0
 10
17.637175
 20
70.640400
 30
0.0
 10
17.637175
 20
70.640400
 30
0.0
 10
16.477175
 20
69.411400
 30
0.0
 10
-3.044425
 20
48.742000
 30
0.0
 10
-3.048225
 20
48.737900
 30
0.0
 10
-3.112825
 20
48.669600
 30
0.0
 10
-13.070625
 20
47.224900
 30
0.0
 10
-13.665825
 20
47.138500
 30
0.0
 10
-13.665825
 20
47.138500
 30
0.0
 10
-13.728125
 20
47.190900
 30
0.0
 10
-13.729325
 20
47.191800
 30
0.0
 10
-13.783725
 20
47.237500
 30
0.0
 10
-19.635725
 20
52.147900
 30
0.0
 10
-22.549525
 20
54.484400
 30
0.0
 10
-41.697225
 20
52.988000
 30
0.0
 10
-41.830425
 20
52.977600
 30
0.0
 10
-56.946125
 20
55.642900
 30
0.0
 10
-57.278625
 20
55.482800
 30
0.0
 10
-57.310025
 20
55.467700
 30
0.0
 10
-59.202825
 20
55.467700
 30
0.0
 10
-59.234225
 20
55.482800
 30
0.0
 10
-60.727525
 20
56.201900
 30
0.0
 10
-69.812325
 20
57.490400
 30
0.0
 10
-90.149505
 20
57.599000
 30
0.0
 10
-90.277215
 20
57.599600
 30
0.0
 10
-90.277215
 20
57.599600
 30
0.0
 10
-90.288445
 20
57.621200
 30
0.0
 10
-90.288565
 20
57.621400
 30
0.0
 10
-92.049615
 20
60.997900
 30
0.0
 10
-92.049615
 20
60.997900
 30
0.0
 10
-92.049525
 20
60.998500
 30
0.0
 10
-92.035005
 20
61.085400
 30
0.0
 10
-90.460985
 20
68.535900
 30
0.0
 10
-96.285065
 20
68.557500
 30
0.0
 10
-104.232090
 20
68.586900
 30
0.0
 10
-104.324590
 20
68.587300
 30
0.0
 10
-105.066270
 20
68.609800
 30
0.0
 10
-105.276430
 20
68.625300
 30
0.0
 10
-105.276440
 20
68.625300
 30
0.0
 10
-105.278440
 20
68.625400
 30
0.0
 10
-112.521800
 20
76.256600
 30
0.0
 10
-112.752700
 20
76.512000
 30
0.0
 10
-113.799200
 20
77.774600
 30
0.0
 10
-114.050200
 20
78.077400
 30
0.0
 10
-114.050200
 20
78.077400
 30
0.0
 10
-113.780100
 20
82.947200
 30
0.0
 10
-113.186000
 20
93.658100
 30
0.0
 10
-113.181000
 20
93.747700
 30
0.0
 10
-113.001200
 20
94.184000
 30
0.0
 10
-112.908400
 20
94.183700
 30
0.0
 10
-112.815100
 20
94.183300
 30
0.0
 10
-112.689400
 20
95.647600
 30
0.0
 10
-112.689400
 20
95.647600
 30
0.0
 10
-112.644300
 20
96.712900
 30
0.0
 10
-112.360600
 20
103.414800
 30
0.0
 10
-112.371800
 20
108.188400
 30
0.0
 10
-113.821300
 20
108.886400
 30
0.0
 10
-114.979700
 20
110.339000
 30
0.0
 10
-115.001400
 20
110.366300
 30
0.0
 10
-115.009400
 20
110.400200
 30
0.0
 10
-115.422900
 20
112.211600
 30
0.0
 10
-115.009400
 20
114.022900
 30
0.0
 10
-115.001400
 20
114.056900
 30
0.0
 10
-114.979700
 20
114.084100
 30
0.0
 10
-113.821300
 20
115.536730
 30
0.0
 10
-112.390700
 20
116.225660
 30
0.0
 10
-112.391100
 20
116.411410
 30
0.0
 10
-112.401200
 20
120.717410
 30
0.0
 10
-112.401200
 20
120.717410
 30
0.0
 10
-112.732200
 20
127.757220
 30
0.0
 10
-112.773300
 20
128.630840
 30
0.0
 10
-112.773300
 20
128.630840
 30
0.0
 10
-112.869900
 20
129.702650
 30
0.0
 10
-112.947300
 20
129.702940
 30
0.0
 10
-113.042000
 20
129.703290
 30
0.0
 10
-113.146200
 20
129.843140
 30
0.0
 10
-113.151200
 20
129.935420
 30
0.0
 10
-113.577300
 20
137.548600
 30
0.0
 10
-114.050000
 20
145.992700
 30
0.0
 10
-114.050000
 20
145.992700
 30
0.0
 10
-113.543400
 20
146.687100
 30
0.0
 10
-112.700500
 20
147.842400
 30
0.0
 10
-112.550000
 20
148.009800
 30
0.0
 10
-105.271590
 20
155.551200
 30
0.0
 10
-105.269590
 20
155.551200
 30
0.0
 10
-105.093110
 20
155.561600
 30
0.0
 10
-105.092460
 20
155.561600
 30
0.0
 10
-104.743240
 20
155.579600
 30
0.0
 10
-104.648340
 20
155.579200
 30
0.0
 10
-104.648100
 20
155.579200
 30
0.0
 10
-103.429110
 20
155.574700
 30
0.0
 10
-88.828275
 20
155.520600
 30
0.0
 10
-84.163625
 20
166.672900
 30
0.0
 10
-84.163625
 20
166.672900
 30
0.0
 10
-82.547925
 20
168.245700
 30
0.0
 10
-82.223325
 20
168.561700
 30
0.0
 10
-82.221325
 20
168.561800
 30
0.0
 10
-82.221325
 20
168.561800
 30
0.0
 10
-82.047725
 20
168.578100
 30
0.0
 10
-82.047225
 20
168.578200
 30
0.0
 10
-81.776625
 20
168.595000
 30
0.0
 10
-81.683325
 20
168.594500
 30
0.0
 10
-78.341625
 20
168.576700
 30
0.0
 10
-78.341625
 20
168.576700
 30
0.0
 10
-78.341625
 20
168.576700
 30
0.0
 10
-76.551925
 20
168.567200
 30
0.0
 10
-75.134725
 20
169.249700
 30
0.0
 10
-75.103325
 20
169.264800
 30
0.0
 10
-73.210525
 20
169.264800
 30
0.0
 10
-73.179125
 20
169.249700
 30
0.0
 10
-71.708225
 20
168.541300
 30
0.0
 10
-65.547025
 20
168.508400
 30
0.0
 10
-59.675125
 20
171.319100
 30
0.0
 10
-59.571325
 20
171.356200
 30
0.0
 10
-59.414825
 20
171.373600
 30
0.0
 10
-59.254425
 20
171.388300
 30
0.0
 10
-57.673725
 20
171.377100
 30
0.0
 10
-43.300725
 20
171.275800
 30
0.0
 10
-43.278625
 20
171.255100
 30
0.0
 10
-40.318425
 20
168.488500
 30
0.0
 10
-28.621625
 20
168.488500
 30
0.0
 10
-28.621625
 20
168.226800
 30
0.0
 10
-24.645025
 20
168.191500
 30
0.0
 10
-24.644625
 20
168.191500
 30
0.0
 10
-24.627425
 20
168.191300
 30
0.0
 10
-20.421725
 20
168.149800
 30
0.0
 10
-5.725825
 20
167.989500
 30
0.0
 10
-5.665525
 20
167.988900
 30
0.0
 10
-5.580925
 20
167.987900
 30
0.0
 10
-5.571425
 20
167.971300
 30
0.0
 10
-3.135325
 20
163.700100
 30
0.0
 10
4.864875
 20
155.700100
 30
0.0
 10
4.875875
 20
155.622300
 30
0.0
 10
5.480875
 20
151.379400
 30
0.0
 10
6.960875
 20
151.379400
 30
0.0
 10
6.992875
 20
151.364300
 30
0.0
 10
8.666875
 20
150.558200
 30
0.0
 10
9.824875
 20
149.105600
 30
0.0
 10
9.846875
 20
149.078300
 30
0.0
 10
9.853875
 20
149.044400
 30
0.0
 10
10.267875
 20
147.233000
 30
0.0
 10
9.853875
 20
145.421700
 30
0.0
 10
9.846875
 20
145.387700
 30
0.0
 10
9.824875
 20
145.360500
 30
0.0
 10
8.666875
 20
143.907900
 30
0.0
 10
6.992875
 20
143.101800
 30
0.0
 10
6.960875
 20
143.086600
 30
0.0
 10
6.662875
 20
143.086600
 30
0.0
 10
7.264875
 20
138.866000
 30
0.0
 10
7.266875
 20
138.838700
 30
0.0
 10
7.663875
 20
133.157010
 30
0.0
 10
7.663875
 20
133.072100
 30
0.0
 10
7.663875
 20
115.559690
 30
0.0
 10
7.661875
 20
115.532590
 30
0.0
 10
7.264875
 20
109.828400
 30
0.0
 10
6.026875
 20
101.076000
 30
0.0
 10
6.262875
 20
101.076000
 30
0.0
 10
6.294875
 20
101.060900
 30
0.0
 10
7.968875
 20
100.254800
 30
0.0
 10
9.126875
 20
98.802200
 30
0.0
 10
9.148875
 20
98.775000
 30
0.0
 10
9.156875
 20
98.741000
 30
0.0
 10
9.569875
 20
96.929700
 30
0.0
 10
9.156875
 20
95.118300
 30
0.0
 10
9.148875
 20
95.084300
 30
0.0
 10
9.126875
 20
95.057100
 30
0.0
 10
7.968875
 20
93.604500
 30
0.0
 10
6.294875
 20
92.798400
 30
0.0
 10
6.262875
 20
92.783300
 30
0.0
 10
5.050875
 20
92.783300
 30
0.0
 10
6.059875
 20
91.826500
 30
0.0
 10
15.586875
 20
83.833000
 30
0.0
 10
18.031875
 20
80.850600
 30
0.0
  0
LWPOLYLINE
  5
101
100
AcDbEntity
  8
0
 62
7
100
AcDbPolyline
 90
17
 70
1
 10
8.506175
 20
146.325900
 30
0.0
 10
8.506175
 20
148.140100
 30
0.0
 10
8.477175
 20
148.175300
 30
0.0
 10
7.340175
 20
149.529900
 30
0.0
 10
5.599175
 20
149.837000
 30
0.0
 10
5.553175
 20
149.845000
 30
0.0
 10
5.514175
 20
149.822000
 30
0.0
 10
3.982175
 20
148.937800
 30
0.0
 10
3.377175
 20
147.276200
 30
0.0
 10
3.362175
 20
147.233000
 30
0.0
 10
3.377175
 20
147.189900
 30
0.0
 10
3.982175
 20
145.528200
 30
0.0
 10
5.514175
 20
144.644000
 30
0.0
 10
5.553175
 20
144.621100
 30
0.0
 10
5.599175
 20
144.629000
 30
0.0
 10
7.340175
 20
144.936100
 30
0.0
 10
8.477175
 20
146.290700
 30
0.0
  0
LWPOLYLINE
  5
102
100
AcDbEntity
  8
0
 62
7
100
AcDbPolyline
 90
17
 70
1
 10
7.808175
 20
96.022500
 30
0.0
 10
7.808175
 20
97.836800
 30
0.0
 10
7.779175
 20
97.871900
 30
0.0
 10
6.642175
 20
99.226600
 30
0.0
 10
4.901175
 20
99.533600
 30
0.0
 10
4.855175
 20
99.541600
 30
0.0
 10
4.816175
 20
99.518600
 30
0.0
 10
3.284175
 20
98.634500
 30
0.0
 10
2.679175
 20
96.972800
 30
0.0
 10
2.663975
 20
96.929700
 30
0.0
 10
2.679175
 20
96.886500
 30
0.0
 10
3.284175
 20
95.224800
 30
0.0
 10
4.816175
 20
94.340700
 30
0.0
 10
4.855175
 20
94.317700
 30
0.0
 10
4.901175
 20
94.325700
 30
0.0
 10
6.642175
 20
94.632700
 30
0.0
 10
7.779175
 20
95.987400
 30
0.0
  0
LWPOLYLINE
  5
103
100
AcDbEntity
  8
0
 62
7
100
AcDbPolyline
 90
17
 70
1
 10
-55.764125
 20
58.706900
 30
0.0
 10
-55.764125
 20
60.521200
 30
0.0
 10
-55.793625
 20
60.556300
 30
0.0
 10
-56.930325
 20
61.911000
 30
0.0
 10
-58.671825
 20
62.218000
 30
0.0
 10
-58.717025
 20
62.226000
 30
0.0
 10
-58.756725
 20
62.203000
 30
0.0
 10
-60.288225
 20
61.318900
 30
0.0
 10
-60.893025
 20
59.657200
 30
0.0
 10
-60.908725
 20
59.614100
 30
0.0
 10
-60.893025
 20
59.570900
 30
0.0
 10
-60.288225
 20
57.909200
 30
0.0
 10
-58.756725
 20
57.025100
 30
0.0
 10
-58.717025
 20
57.002100
 30
0.0
 10
-58.671825
 20
57.010100
 30
0.0
 10
-56.930325
 20
57.317100
 30
0.0
 10
-55.793625
 20
58.671800
 30
0.0
  0
LWPOLYLINE
  5
104
100
AcDbEntity
  8
0
 62
7
100
AcDbPolyline
 90
17
 70
1
 10
-71.665325
 20
164.211300
 30
0.0
 10
-71.665325
 20
166.025500
 30
0.0
 10
-71.694825
 20
166.060700
 30
0.0
 10
-72.831525
 20
167.415300
 30
0.0
 10
-74.572925
 20
167.722400
 30
0.0
 10
-74.618125
 20
167.730300
 30
0.0
 10
-74.657925
 20
167.707400
 30
0.0
 10
-76.189325
 20
166.823200
 30
0.0
 10
-76.794125
 20
165.161500
 30
0.0
 10
-76.809825
 20
165.118400
 30
0.0
 10
-76.794125
 20
165.075300
 30
0.0
 10
-76.189325
 20
163.413600
 30
0.0
 10
-74.657925
 20
162.529400
 30
0.0
 10
-74.618125
 20
162.506500
 30
0.0
 10
-74.572925
 20
162.514400
 30
0.0
 10
-72.831525
 20
162.821500
 30
0.0
 10
-71.694825
 20
164.176100
 30
0.0
  0
LWPOLYLINE
  5
105
100
AcDbEntity
  8
0
 62
7
100
AcDbPolyline
 90
17
 70
1
 10
-108.677430
 20
111.304500
 30
0.0
 10
-108.677430
 20
113.118700
 30
0.0
 10
-108.706930
 20
113.153900
 30
0.0
 10
-109.843530
 20
114.508500
 30
0.0
 10
-111.585030
 20
114.815600
 30
0.0
 10
-111.630230
 20
114.823500
 30
0.0
 10
-111.670030
 20
114.800600
 30
0.0
 10
-113.201430
 20
113.916400
 30
0.0
 10
-113.806230
 20
112.254700
 30
0.0
 10
-113.821930
 20
112.211600
 30
0.0
 10
-113.806230
 20
112.168500
 30
0.0
 10
-113.201430
 20
110.506800
 30
0.0
 10
-111.670030
 20
109.622600
 30
0.0
 10
-111.630230
 20
109.599600
 30
0.0
 10
-111.585030
 20
109.607600
 30
0.0
 10
-109.843530
 20
109.914700
 30
0.0
 10
-108.706930
 20
111.269300
 30
0.0
  0
ENDSEC
  0
SECTION
  2
OBJECTS
  0
DICTIONARY
  5
C
330
0
100
AcDbDictionary
  3
ACAD_GROUP
350
D
  3
ACAD_MLINESTYLE
350
17
  0
DICTIONARY
  5
D
330
C
100
AcDbDictionary
  0
DICTIONARY
  5
1A
330
C
100
AcDbDictionary
  0
DICTIONARY
  5
17
330
C
100
AcDbDictionary
  3
STANDARD
350
18
  0
DICTIONARY
  5
19
330
C
100
AcDbDictionary
  0
ENDSEC
  0
EOF
