  0
SECTION
  2
HEADER
  9
$ACADVER
  1
AC1014
  9
$HANDSEED
  5
FFFF
  9
$MEASUREMENT
 70
     1
  0
ENDSEC
  0
SECTION
  2
TABLES
  0
TABLE
  2
VPORT
  5
8
330
0
100
AcDbSymbolTable
 70
     4
  0
VPORT
  5
2E
330
8
100
AcDbSymbolTableRecord
100
AcDbViewportTableRecord
  2
*ACTIVE
 70
     0
 10
0.0
 20
0.0
 11
1.0
 21
1.0
 12
210.0
 22
148.5
 13
0.0
 23
0.0
 14
10.0
 24
10.0
 15
10.0
 25
10.0
 16
0.0
 26
0.0
 36
1.0
 17
0.0
 27
0.0
 37
0.0
 40
341.0
 41
1.24
 42
50.0
 43
0.0
 44
0.0
 50
0.0
 51
0.0
 71
     0
 72
   100
 73
     1
 74
     3
 75
     0
 76
     0
 77
     0
 78
     0
  0
ENDTAB
  0
TABLE
  2
LTYPE
  5
5
330
0
100
AcDbSymbolTable
 70
     1
  0
LTYPE
  5
14
330
5
100
AcDbSymbolTableRecord
100
AcDbLinetypeTableRecord
  2
BYBLOCK
 70
     0
  3

 72
    65
 73
     0
 40
0.0
  0
LTYPE
  5
15
330
5
100
AcDbSymbolTableRecord
100
AcDbLinetypeTableRecord
  2
BYLAYER
 70
     0
  3

 72
    65
 73
     0
 40
0.0
  0
LTYPE
  5
16
330
5
100
AcDbSymbolTableRecord
100
AcDbLinetypeTableRecord
  2
CONTINUOUS
 70
     0
  3
Solid line
 72
    65
 73
     0
 40
0.0
  0
ENDTAB
  0
TABLE
  2
LAYER
  5
2
100
AcDbSymbolTable
 70
1
  0
LAYER
  5
50
100
AcDbSymbolTableRecord
100
AcDbLayerTableRecord
  2
0
 70
0
  6
CONTINUOUS
  0
ENDTAB
  0
TABLE
  2
STYLE
  5
3
330
0
100
AcDbSymbolTable
 70
     1
  0
STYLE
  5
11
330
3
100
AcDbSymbolTableRecord
100
AcDbTextStyleTableRecord
  2
STANDARD
 70
     0
 40
0.0
 41
1.0
 50
0.0
 71
     0
 42
2.5
  3
txt
  4

  0
ENDTAB
  0
TABLE
  2
VIEW
  5
6
330
0
100
AcDbSymbolTable
 70
     0
  0
ENDTAB
  0
TABLE
  2
UCS
  5
7
330
0
100
AcDbSymbolTable
 70
     0
  0
ENDTAB
  0
TABLE
  2
APPID
  5
9
330
0
100
AcDbSymbolTable
 70
     2
  0
APPID
  5
12
330
9
100
AcDbSymbolTableRecord
100
AcDbRegAppTableRecord
  2
ACAD
 70
     0
  0
ENDTAB
  0
TABLE
  2
DIMSTYLE
  5
A
330
0
100
AcDbSymbolTable
 70
     1
  0
DIMSTYLE
105
27
330
A
100
AcDbSymbolTableRecord
100
AcDbDimStyleTableRecord
  2
ISO-25
 70
     0
  3

  4

  5

  6

  7

 40
1.0
 41
2.5
 42
0.625
 43
3.75
 44
1.25
 45
0.0
 46
0.0
 47
0.0
 48
0.0
140
2.5
141
2.5
142
0.0
143
0.03937007874016
144
1.0
145
0.0
146
1.0
147
0.625
 71
     0
 72
     0
 73
     0
 74
     0
 75
     0
 76
     0
 77
     1
 78
     8
170
     0
171
     3
172
     1
173
     0
174
     0
175
     0
176
     0
177
     0
178
     0
270
     2
271
     2
272
     2
273
     2
274
     3
340
11
275
     0
280
     0
281
     0
282
     0
283
     0
284
     8
285
     0
286
     0
287
     3
288
     0
  0
ENDTAB
  0
TABLE
  2
BLOCK_RECORD
  5
1
330
0
100
AcDbSymbolTable
 70
     1
  0
BLOCK_RECORD
  5
1F
330
1
100
AcDbSymbolTableRecord
100
AcDbBlockTableRecord
  2
*MODEL_SPACE
  0
BLOCK_RECORD
  5
1B
330
1
100
AcDbSymbolTableRecord
100
AcDbBlockTableRecord
  2
*PAPER_SPACE
  0
ENDTAB
  0
ENDSEC
  0
SECTION
  2
BLOCKS
  0
BLOCK
  5
20
330
1F
100
AcDbEntity
  8
0
100
AcDbBlockBegin
  2
*MODEL_SPACE
 70
     0
 10
0.0
 20
0.0
 30
0.0
  3
*MODEL_SPACE
  1

  0
ENDBLK
  5
21
330
1F
100
AcDbEntity
  8
0
100
AcDbBlockEnd
  0
BLOCK
  5
1C
330
1B
100
AcDbEntity
 67
     1
  8
0
100
AcDbBlockBegin
  2
*PAPER_SPACE
  1

  0
ENDBLK
  5
1D
330
1B
100
AcDbEntity
 67
     1
  8
0
100
AcDbBlockEnd
  0
ENDSEC
  0
SECTION
  2
ENTITIES
  0
LWPOLYLINE
  5
100
100
AcDbEntity
  8
0
 62
7
100
AcDbPolyline
 90
178
 70
1
 10
-115.426000
 20
80.770200
 30
0.0
 10
-115.418000
 20
80.542100
 30
0.0
 10
-115.035000
 20
70.712800
 30
0.0
 10
-114.968000
 20
70.642000
 30
0.0
 10
-114.966000
 20
70.640400
 30
0.0
 10
-114.966000
 20
70.640400
 30
0.0
 10
-114.966000
 20
70.640400
 30
0.0
 10
-113.806000
 20
69.411400
 30
0.0
 10
-94.284400
 20
48.742000
 30
0.0
 10
-94.280600
 20
48.737900
 30
0.0
 10
-94.216000
 20
48.669600
 30
0.0
 10
-84.258200
 20
47.224900
 30
0.0
 10
-83.663000
 20
47.138500
 30
0.0
 10
-83.663000
 20
47.138500
 30
0.0
 10
-83.600700
 20
47.190900
 30
0.0
 10
-83.599500
 20
47.191800
 30
0.0
 10
-83.545100
 20
47.237500
 30
0.0
 10
-77.693100
 20
52.147900
 30
0.0
 10
-74.779300
 20
54.484400
 30
0.0
 10
-55.631600
 20
52.988000
 30
0.0
 10
-55.498400
 20
52.977600
 30
0.0
 10
-40.382700
 20
55.642900
 30
0.0
 10
-40.050200
 20
55.482800
 30
0.0
 10
-40.018800
 20
55.467700
 30
0.0
 10
-38.126000
 20
55.467700
 30
0.0
 10
-38.094600
 20
55.482800
 30
0.0
 10
-36.601300
 20
56.201900
 30
0.0
 10
-27.516500
 20
57.490400
 30
0.0
 10
-7.179320
 20
57.599000
 30
0.0
 10
-7.051610
 20
57.599600
 30
0.0
 10
-7.051610
 20
57.599600
 30
0.0
 10
-7.040380
 20
57.621200
 30
0.0
 10
-7.040260
 20
57.621400
 30
0.0
 10
-5.279210
 20
60.997900
 30
0.0
 10
-5.279210
 20
60.997900
 30
0.0
 10
-5.279300
 20
60.998500
 30
0.0
 10
-5.293820
 20
61.085400
 30
0.0
 10
-6.867840
 20
68.535900
 30
0.0
 10
-1.043760
 20
68.557500
 30
0.0
 10
6.903260
 20
68.586900
 30
0.0
 10
6.995780
 20
68.587300
 30
0.0
 10
7.737460
 20
68.609800
 30
0.0
 10
7.947620
 20
68.625300
 30
0.0
 10
7.947630
 20
68.625300
 30
0.0
 10
7.949740
 20
68.625400
 30
0.0
 10
15.193100
 20
76.256600
 30
0.0
 10
15.424000
 20
76.512000
 30
0.0
 10
16.470500
 20
77.774600
 30
0.0
 10
16.721500
 20
78.077400
 30
0.0
 10
16.721500
 20
78.077400
 30
0.0
 10
16.451400
 20
82.947200
 30
0.0
 10
15.857300
 20
93.658100
 30
0.0
 10
15.852300
 20
93.747700
 30
0.0
 10
15.672500
 20
94.184000
 30
0.0
 10
15.579700
 20
94.183700
 30
0.0
 10
15.486400
 20
94.183300
 30
0.0
 10
15.360700
 20
95.647600
 30
0.0
 10
15.360700
 20
95.647600
 30
0.0
 10
15.315600
 20
96.712900
 30
0.0
 10
15.031900
 20
103.414800
 30
0.0
 10
15.043100
 20
108.188400
 30
0.0
 10
16.492600
 20
108.886400
 30
0.0
 10
17.651000
 20
110.339000
 30
0.0
 10
17.672700
 20
110.366300
 30
0.0
 10
17.680400
 20
110.400200
 30
0.0
 10
18.093900
 20
112.211600
 30
0.0
 10
17.680400
 20
114.022900
 30
0.0
 10
17.672700
 20
114.056900
 30
0.0
 10
17.651000
 20
114.084100
 30
0.0
 10
16.492600
 20
115.536730
 30
0.0
 10
15.062000
 20
116.225660
 30
0.0
 10
15.062400
 20
116.411410
 30
0.0
 10
15.072500
 20
120.717410
 30
0.0
 10
15.072500
 20
120.717410
 30
0.0
 10
15.403500
 20
127.757220
 30
0.0
 10
15.444600
 20
128.630840
 30
0.0
 10
15.444600
 20
128.630840
 30
0.0
 10
15.541200
 20
129.702650
 30
0.0
 10
15.618600
 20
129.702940
 30
0.0
 10
15.713300
 20
129.703290
 30
0.0
 10
15.817500
 20
129.843140
 30
0.0
 10
15.822700
 20
129.935420
 30
0.0
 10
16.248800
 20
137.548600
 30
0.0
 10
16.721500
 20
145.992700
 30
0.0
 10
16.721500
 20
145.992700
 30
0.0
 10
16.214900
 20
146.687100
 30
0.0
 10
15.372000
 20
147.842400
 30
0.0
 10
15.221500
 20
148.009800
 30
0.0
 10
7.943090
 20
155.551200
 30
0.0
 10
7.941480
 20
155.551200
 30
0.0
 10
7.765000
 20
155.561600
 30
0.0
 10
7.764350
 20
155.561600
 30
0.0
 10
7.415130
 20
155.579600
 30
0.0
 10
7.320210
 20
155.579200
 30
0.0
 10
7.319970
 20
155.579200
 30
0.0
 10
6.100980
 20
155.574700
 30
0.0
 10
-8.499850
 20
155.520600
 30
0.0
 10
-13.164500
 20
166.672900
 30
0.0
 10
-13.164500
 20
166.672900
 30
0.0
 10
-14.780200
 20
168.245700
 30
0.0
 10
-15.104800
 20
168.561700
 30
0.0
 10
-15.106800
 20
168.561800
 30
0.0
 10
-15.106800
 20
168.561800
 30
0.0
 10
-15.280400
 20
168.578100
 30
0.0
 10
-15.280900
 20
168.578200
 30
0.0
 10
-15.551500
 20
168.595000
 30
0.0
 10
-15.644800
 20
168.594500
 30
0.0
 10
-18.986500
 20
168.576700
 30
0.0
 10
-18.986500
 20
168.576700
 30
0.0
 10
-18.986500
 20
168.576700
 30
0.0
 10
-20.776200
 20
168.567200
 30
0.0
 10
-22.193400
 20
169.249700
 30
0.0
 10
-22.224800
 20
169.264800
 30
0.0
 10
-24.117600
 20
169.264800
 30
0.0
 10
-24.149000
 20
169.249700
 30
0.0
 10
-25.619900
 20
168.541300
 30
0.0
 10
-31.781100
 20
168.508400
 30
0.0
 10
-37.653000
 20
171.319100
 30
0.0
 10
-37.756800
 20
171.356200
 30
0.0
 10
-37.913300
 20
171.373600
 30
0.0
 10
-38.073700
 20
171.388300
 30
0.0
 10
-39.654400
 20
171.377100
 30
0.0
 10
-54.027400
 20
171.275800
 30
0.0
 10
-54.049500
 20
171.255100
 30
0.0
 10
-57.009700
 20
168.488500
 30
0.0
 10
-68.706500
 20
168.488500
 30
0.0
 10
-68.706500
 20
168.226800
 30
0.0
 10
-72.683100
 20
168.191500
 30
0.0
 10
-72.683500
 20
168.191500
 30
0.0
 10
-72.700700
 20
168.191300
 30
0.0
 10
-76.906400
 20
168.149800
 30
0.0
 10
-91.602300
 20
167.989500
 30
0.0
 10
-91.662600
 20
167.988900
 30
0.0
 10
-91.747200
 20
167.987900
 30
0.0
 10
-91.756700
 20
167.971300
 30
0.0
 10
-94.192800
 20
163.700100
 30
0.0
 10
-102.193000
 20
155.700100
 30
0.0
 10
-102.204000
 20
155.622300
 30
0.0
 10
-102.809000
 20
151.379400
 30
0.0
 10
-104.289000
 20
151.379400
 30
0.0
 10
-104.321000
 20
151.364300
 30
0.0
 10
-105.995000
 20
150.558200
 30
0.0
 10
-107.153000
 20
149.105600
 30
0.0
 10
-107.175000
 20
149.078300
 30
0.0
 10
-107.182000
 20
149.044400
 30
0.0
 10
-107.596000
 20
147.233000
 30
0.0
 10
-107.182000
 20
145.421700
 30
0.0
 10
-107.175000
 20
145.387700
 30
0.0
 10
-107.153000
 20
145.360500
 30
0.0
 10
-105.995000
 20
143.907900
 30
0.0
 10
-104.321000
 20
143.101800
 30
0.0
 10
-104.289000
 20
143.086600
 30
0.0
 10
-103.991000
 20
143.086600
 30
0.0
 10
-104.593000
 20
138.866000
 30
0.0
 10
-104.595000
 20
138.838700
 30
0.0
 10
-104.992000
 20
133.157010
 30
0.0
 10
-104.992000
 20
133.072100
 30
0.0
 10
-104.992000
 20
115.559690
 30
0.0
 10
-104.990000
 20
115.532590
 30
0.0
 10
-104.593000
 20
109.828400
 30
0.0
 10
-103.355000
 20
101.076000
 30
0.0
 10
-103.591000
 20
101.076000
 30
0.0
 10
-103.623000
 20
101.060900
 30
0.0
 10
-105.297000
 20
100.254800
 30
0.0
 10
-106.455000
 20
98.802200
 30
0.0
 10
-106.477000
 20
98.775000
 30
0.0
 10
-106.485000
 20
98.741000
 30
0.0
 10
-106.898000
 20
96.929700
 30
0.0
 10
-106.485000
 20
95.118300
 30
0.0
 10
-106.477000
 20
95.084300
 30
0.0
 10
-106.455000
 20
95.057100
 30
0.0
 10
-105.297000
 20
93.604500
 30
0.0
 10
-103.623000
 20
92.798400
 30
0.0
 10
-103.591000
 20
92.783300
 30
0.0
 10
-102.379000
 20
92.783300
 30
0.0
 10
-103.388000
 20
91.826500
 30
0.0
 10
-112.915000
 20
83.833000
 30
0.0
 10
-115.360000
 20
80.850600
 30
0.0
  0
LWPOLYLINE
  5
101
100
AcDbEntity
  8
0
 62
7
100
AcDbPolyline
 90
17
 70
1
 10
-105.835000
 20
146.325900
 30
0.0
 10
-105.835000
 20
148.140100
 30
0.0
 10
-105.806000
 20
148.175300
 30
0.0
 10
-104.669000
 20
149.529900
 30
0.0
 10
-102.928000
 20
149.837000
 30
0.0
 10
-102.882000
 20
149.845000
 30
0.0
 10
-102.843000
 20
149.822000
 30
0.0
 10
-101.311000
 20
148.937800
 30
0.0
 10
-100.706000
 20
147.276200
 30
0.0
 10
-100.691000
 20
147.233000
 30
0.0
 10
-100.706000
 20
147.189900
 30
0.0
 10
-101.311000
 20
145.528200
 30
0.0
 10
-102.843000
 20
144.644000
 30
0.0
 10
-102.882000
 20
144.621100
 30
0.0
 10
-102.928000
 20
144.629000
 30
0.0
 10
-104.669000
 20
144.936100
 30
0.0
 10
-105.806000
 20
146.290700
 30
0.0
  0
LWPOLYLINE
  5
102
100
AcDbEntity
  8
0
 62
7
100
AcDbPolyline
 90
17
 70
1
 10
-105.137000
 20
96.022500
 30
0.0
 10
-105.137000
 20
97.836800
 30
0.0
 10
-105.108000
 20
97.871900
 30
0.0
 10
-103.971000
 20
99.226600
 30
0.0
 10
-102.230000
 20
99.533600
 30
0.0
 10
-102.184000
 20
99.541600
 30
0.0
 10
-102.145000
 20
99.518600
 30
0.0
 10
-100.613000
 20
98.634500
 30
0.0
 10
-100.008000
 20
96.972800
 30
0.0
 10
-99.992800
 20
96.929700
 30
0.0
 10
-100.008000
 20
96.886500
 30
0.0
 10
-100.613000
 20
95.224800
 30
0.0
 10
-102.145000
 20
94.340700
 30
0.0
 10
-102.184000
 20
94.317700
 30
0.0
 10
-102.230000
 20
94.325700
 30
0.0
 10
-103.971000
 20
94.632700
 30
0.0
 10
-105.108000
 20
95.987400
 30
0.0
  0
LWPOLYLINE
  5
103
100
AcDbEntity
  8
0
 62
7
100
AcDbPolyline
 90
17
 70
1
 10
-41.564700
 20
58.706900
 30
0.0
 10
-41.564700
 20
60.521200
 30
0.0
 10
-41.535200
 20
60.556300
 30
0.0
 10
-40.398500
 20
61.911000
 30
0.0
 10
-38.657000
 20
62.218000
 30
0.0
 10
-38.611800
 20
62.226000
 30
0.0
 10
-38.572100
 20
62.203000
 30
0.0
 10
-37.040600
 20
61.318900
 30
0.0
 10
-36.435800
 20
59.657200
 30
0.0
 10
-36.420100
 20
59.614100
 30
0.0
 10
-36.435800
 20
59.570900
 30
0.0
 10
-37.040600
 20
57.909200
 30
0.0
 10
-38.572100
 20
57.025100
 30
0.0
 10
-38.611800
 20
57.002100
 30
0.0
 10
-38.657000
 20
57.010100
 30
0.0
 10
-40.398500
 20
57.317100
 30
0.0
 10
-41.535200
 20
58.671800
 30
0.0
  0
LWPOLYLINE
  5
104
100
AcDbEntity
  8
0
 62
7
100
AcDbPolyline
 90
17
 70
1
 10
-25.663500
 20
164.211300
 30
0.0
 10
-25.663500
 20
166.025500
 30
0.0
 10
-25.634000
 20
166.060700
 30
0.0
 10
-24.497300
 20
167.415300
 30
0.0
 10
-22.755900
 20
167.722400
 30
0.0
 10
-22.710700
 20
167.730300
 30
0.0
 10
-22.670900
 20
167.707400
 30
0.0
 10
-21.139500
 20
166.823200
 30
0.0
 10
-20.534700
 20
165.161500
 30
0.0
 10
-20.519000
 20
165.118400
 30
0.0
 10
-20.534700
 20
165.075300
 30
0.0
 10
-21.139500
 20
163.413600
 30
0.0
 10
-22.670900
 20
162.529400
 30
0.0
 10
-22.710700
 20
162.506500
 30
0.0
 10
-22.755900
 20
162.514400
 30
0.0
 10
-24.497300
 20
162.821500
 30
0.0
 10
-25.634000
 20
164.176100
 30
0.0
  0
LWPOLYLINE
  5
105
100
AcDbEntity
  8
0
 62
7
100
AcDbPolyline
 90
17
 70
1
 10
11.348600
 20
111.304500
 30
0.0
 10
11.348600
 20
113.118700
 30
0.0
 10
11.378100
 20
113.153900
 30
0.0
 10
12.514700
 20
114.508500
 30
0.0
 10
14.256200
 20
114.815600
 30
0.0
 10
14.301400
 20
114.823500
 30
0.0
 10
14.341200
 20
114.800600
 30
0.0
 10
15.872600
 20
113.916400
 30
0.0
 10
16.477400
 20
112.254700
 30
0.0
 10
16.493100
 20
112.211600
 30
0.0
 10
16.477400
 20
112.168500
 30
0.0
 10
15.872600
 20
110.506800
 30
0.0
 10
14.341200
 20
109.622600
 30
0.0
 10
14.301400
 20
109.599600
 30
0.0
 10
14.256200
 20
109.607600
 30
0.0
 10
12.514700
 20
109.914700
 30
0.0
 10
11.378100
 20
111.269300
 30
0.0
  0
ENDSEC
  0
SECTION
  2
OBJECTS
  0
DICTIONARY
  5
C
330
0
100
AcDbDictionary
  3
ACAD_GROUP
350
D
  3
ACAD_MLINESTYLE
350
17
  0
DICTIONARY
  5
D
330
C
100
AcDbDictionary
  0
DICTIONARY
  5
1A
330
C
100
AcDbDictionary
  0
DICTIONARY
  5
17
330
C
100
AcDbDictionary
  3
STANDARD
350
18
  0
DICTIONARY
  5
19
330
C
100
AcDbDictionary
  0
ENDSEC
  0
EOF
