  0
SECTION
  2
HEADER
  9
$ACADVER
  1
AC1014
  9
$HANDSEED
  5
FFFF
  9
$MEASUREMENT
 70
     1
  0
ENDSEC
  0
SECTION
  2
TABLES
  0
TABLE
  2
VPORT
  5
8
330
0
100
AcDbSymbolTable
 70
     4
  0
VPORT
  5
2E
330
8
100
AcDbSymbolTableRecord
100
AcDbViewportTableRecord
  2
*ACTIVE
 70
     0
 10
0.0
 20
0.0
 11
1.0
 21
1.0
 12
210.0
 22
148.5
 13
0.0
 23
0.0
 14
10.0
 24
10.0
 15
10.0
 25
10.0
 16
0.0
 26
0.0
 36
1.0
 17
0.0
 27
0.0
 37
0.0
 40
341.0
 41
1.24
 42
50.0
 43
0.0
 44
0.0
 50
0.0
 51
0.0
 71
     0
 72
   100
 73
     1
 74
     3
 75
     0
 76
     0
 77
     0
 78
     0
  0
ENDTAB
  0
TABLE
  2
LTYPE
  5
5
330
0
100
AcDbSymbolTable
 70
     1
  0
LTYPE
  5
14
330
5
100
AcDbSymbolTableRecord
100
AcDbLinetypeTableRecord
  2
BYBLOCK
 70
     0
  3

 72
    65
 73
     0
 40
0.0
  0
LTYPE
  5
15
330
5
100
AcDbSymbolTableRecord
100
AcDbLinetypeTableRecord
  2
BYLAYER
 70
     0
  3

 72
    65
 73
     0
 40
0.0
  0
LTYPE
  5
16
330
5
100
AcDbSymbolTableRecord
100
AcDbLinetypeTableRecord
  2
CONTINUOUS
 70
     0
  3
Solid line
 72
    65
 73
     0
 40
0.0
  0
ENDTAB
  0
TABLE
  2
LAYER
  5
2
100
AcDbSymbolTable
 70
1
  0
LAYER
  5
50
100
AcDbSymbolTableRecord
100
AcDbLayerTableRecord
  2
0
 70
0
  6
CONTINUOUS
  0
ENDTAB
  0
TABLE
  2
STYLE
  5
3
330
0
100
AcDbSymbolTable
 70
     1
  0
STYLE
  5
11
330
3
100
AcDbSymbolTableRecord
100
AcDbTextStyleTableRecord
  2
STANDARD
 70
     0
 40
0.0
 41
1.0
 50
0.0
 71
     0
 42
2.5
  3
txt
  4

  0
ENDTAB
  0
TABLE
  2
VIEW
  5
6
330
0
100
AcDbSymbolTable
 70
     0
  0
ENDTAB
  0
TABLE
  2
UCS
  5
7
330
0
100
AcDbSymbolTable
 70
     0
  0
ENDTAB
  0
TABLE
  2
APPID
  5
9
330
0
100
AcDbSymbolTable
 70
     2
  0
APPID
  5
12
330
9
100
AcDbSymbolTableRecord
100
AcDbRegAppTableRecord
  2
ACAD
 70
     0
  0
ENDTAB
  0
TABLE
  2
DIMSTYLE
  5
A
330
0
100
AcDbSymbolTable
 70
     1
  0
DIMSTYLE
105
27
330
A
100
AcDbSymbolTableRecord
100
AcDbDimStyleTableRecord
  2
ISO-25
 70
     0
  3

  4

  5

  6

  7

 40
1.0
 41
2.5
 42
0.625
 43
3.75
 44
1.25
 45
0.0
 46
0.0
 47
0.0
 48
0.0
140
2.5
141
2.5
142
0.0
143
0.03937007874016
144
1.0
145
0.0
146
1.0
147
0.625
 71
     0
 72
     0
 73
     0
 74
     0
 75
     0
 76
     0
 77
     1
 78
     8
170
     0
171
     3
172
     1
173
     0
174
     0
175
     0
176
     0
177
     0
178
     0
270
     2
271
     2
272
     2
273
     2
274
     3
340
11
275
     0
280
     0
281
     0
282
     0
283
     0
284
     8
285
     0
286
     0
287
     3
288
     0
  0
ENDTAB
  0
TABLE
  2
BLOCK_RECORD
  5
1
330
0
100
AcDbSymbolTable
 70
     1
  0
BLOCK_RECORD
  5
1F
330
1
100
AcDbSymbolTableRecord
100
AcDbBlockTableRecord
  2
*MODEL_SPACE
  0
BLOCK_RECORD
  5
1B
330
1
100
AcDbSymbolTableRecord
100
AcDbBlockTableRecord
  2
*PAPER_SPACE
  0
ENDTAB
  0
ENDSEC
  0
SECTION
  2
BLOCKS
  0
BLOCK
  5
20
330
1F
100
AcDbEntity
  8
0
100
AcDbBlockBegin
  2
*MODEL_SPACE
 70
     0
 10
0.0
 20
0.0
 30
0.0
  3
*MODEL_SPACE
  1

  0
ENDBLK
  5
21
330
1F
100
AcDbEntity
  8
0
100
AcDbBlockEnd
  0
BLOCK
  5
1C
330
1B
100
AcDbEntity
 67
     1
  8
0
100
AcDbBlockBegin
  2
*PAPER_SPACE
  1

  0
ENDBLK
  5
1D
330
1B
100
AcDbEntity
 67
     1
  8
0
100
AcDbBlockEnd
  0
ENDSEC
  0
SECTION
  2
ENTITIES
  0
LWPOLYLINE
  5
100
100
AcDbEntity
  8
0
 62
3
100
AcDbPolyline
 90
4
 70
1
 10
143.235735
 20
-104.586284
 30
0.0
 10
148.119393
 20
-91.165940
 30
0.0
 10
161.539737
 20
-96.049598
 30
0.0
 10
156.656079
 20
-109.469941
 30
0.0
  0
LWPOLYLINE
  5
101
100
AcDbEntity
  8
0
 62
3
100
AcDbPolyline
 90
4
 70
1
 10
126.961192
 20
-93.578939
 30
0.0
 10
140.381536
 20
-98.462597
 30
0.0
 10
135.497878
 20
-111.882942
 30
0.0
 10
122.077534
 20
-106.999283
 30
0.0
  0
LWPOLYLINE
  5
102
100
AcDbEntity
  8
0
 62
3
100
AcDbPolyline
 90
4
 70
1
 10
146.896636
 20
-80.580995
 30
0.0
 10
142.012978
 20
-94.001339
 30
0.0
 10
128.592634
 20
-89.117681
 30
0.0
 10
133.476292
 20
-75.697337
 30
0.0
  0
LWPOLYLINE
  5
103
100
AcDbEntity
  8
0
 62
3
100
AcDbPolyline
 90
4
 70
1
 10
121.710423
 20
-88.910838
 30
0.0
 10
107.432524
 20
-88.910838
 30
0.0
 10
107.432524
 20
-74.632939
 30
0.0
 10
121.710423
 20
-74.632939
 30
0.0
  0
LWPOLYLINE
  5
104
100
AcDbEntity
  8
0
 62
3
100
AcDbPolyline
 90
4
 70
1
 10
107.407124
 20
-69.898938
 30
0.0
 10
107.407124
 20
-55.621041
 30
0.0
 10
121.685023
 20
-55.621041
 30
0.0
 10
121.685023
 20
-69.898938
 30
0.0
  0
LWPOLYLINE
  5
105
100
AcDbEntity
  8
0
 62
3
100
AcDbPolyline
 90
4
 70
1
 10
102.698521
 20
-69.857739
 30
0.0
 10
102.698521
 20
-84.135638
 30
0.0
 10
88.420622
 20
-84.135638
 30
0.0
 10
88.420622
 20
-69.857739
 30
0.0
  0
LWPOLYLINE
  5
106
100
AcDbEntity
  8
0
 62
3
100
AcDbPolyline
 90
4
 70
1
 10
88.382522
 20
-65.098338
 30
0.0
 10
88.382522
 20
-50.820441
 30
0.0
 10
102.660421
 20
-50.820441
 30
0.0
 10
102.660421
 20
-65.098338
 30
0.0
  0
LWPOLYLINE
  5
107
100
AcDbEntity
  8
0
 62
3
100
AcDbPolyline
 90
4
 70
1
 10
102.647723
 20
-46.061041
 30
0.0
 10
88.369824
 20
-46.061041
 30
0.0
 10
88.369824
 20
-31.783142
 30
0.0
 10
102.647723
 20
-31.783142
 30
0.0
  0
LWPOLYLINE
  5
108
100
AcDbEntity
  8
0
 62
3
100
AcDbPolyline
 90
4
 70
1
 10
83.623124
 20
-79.395439
 30
0.0
 10
83.623124
 20
-93.673338
 30
0.0
 10
69.345225
 20
-93.673338
 30
0.0
 10
69.345225
 20
-79.395439
 30
0.0
  0
LWPOLYLINE
  5
109
100
AcDbEntity
  8
0
 62
3
100
AcDbPolyline
 90
4
 70
1
 10
83.623124
 20
-74.648738
 30
0.0
 10
69.345225
 20
-74.648738
 30
0.0
 10
69.345225
 20
-60.370839
 30
0.0
 10
83.623124
 20
-60.370839
 30
0.0
  0
LWPOLYLINE
  5
10a
100
AcDbEntity
  8
0
 62
3
100
AcDbPolyline
 90
4
 70
1
 10
69.332525
 20
-41.295466
 30
0.0
 10
83.610424
 20
-41.295466
 30
0.0
 10
83.610424
 20
-55.570774
 30
0.0
 10
69.332525
 20
-55.570774
 30
0.0
  0
LWPOLYLINE
  5
10b
100
AcDbEntity
  8
0
 62
3
100
AcDbPolyline
 90
4
 70
1
 10
69.370625
 20
-22.245441
 30
0.0
 10
83.648524
 20
-22.245441
 30
0.0
 10
83.648524
 20
-36.523340
 30
0.0
 10
69.370625
 20
-36.523340
 30
0.0
  0
LWPOLYLINE
  5
10c
100
AcDbEntity
  8
0
 62
3
100
AcDbPolyline
 90
4
 70
1
 10
50.269825
 20
-84.170639
 30
0.0
 10
64.547724
 20
-84.170639
 30
0.0
 10
64.547724
 20
-98.448537
 30
0.0
 10
50.269825
 20
-98.448537
 30
0.0
  0
LWPOLYLINE
  5
10d
100
AcDbEntity
  8
0
 62
3
100
AcDbPolyline
 90
4
 70
1
 10
64.522324
 20
-65.133339
 30
0.0
 10
64.522324
 20
-79.411238
 30
0.0
 10
50.244425
 20
-79.411238
 30
0.0
 10
50.244425
 20
-65.133339
 30
0.0
  0
LWPOLYLINE
  5
10e
100
AcDbEntity
  8
0
 62
3
100
AcDbPolyline
 90
4
 70
1
 10
50.269825
 20
-46.108742
 30
0.0
 10
64.547724
 20
-46.108742
 30
0.0
 10
64.547724
 20
-60.386638
 30
0.0
 10
50.269825
 20
-60.386638
 30
0.0
  0
LWPOLYLINE
  5
10f
100
AcDbEntity
  8
0
 62
3
100
AcDbPolyline
 90
4
 70
1
 10
64.547724
 20
-27.007943
 30
0.0
 10
64.547724
 20
-41.285841
 30
0.0
 10
50.269825
 20
-41.285841
 30
0.0
 10
50.269825
 20
-27.007943
 30
0.0
  0
LWPOLYLINE
  5
110
100
AcDbEntity
  8
0
 62
3
100
AcDbPolyline
 90
4
 70
1
 10
45.472324
 20
-79.446239
 30
0.0
 10
45.472324
 20
-93.724137
 30
0.0
 10
31.194426
 20
-93.724137
 30
0.0
 10
31.194426
 20
-79.446239
 30
0.0
  0
LWPOLYLINE
  5
111
100
AcDbEntity
  8
0
 62
3
100
AcDbPolyline
 90
4
 70
1
 10
31.245226
 20
-60.358139
 30
0.0
 10
45.523124
 20
-60.358139
 30
0.0
 10
45.523124
 20
-74.636038
 30
0.0
 10
31.245226
 20
-74.636038
 30
0.0
  0
LWPOLYLINE
  5
112
100
AcDbEntity
  8
0
 62
3
100
AcDbPolyline
 90
4
 70
1
 10
31.219826
 20
-41.308140
 30
0.0
 10
45.497724
 20
-41.308140
 30
0.0
 10
45.497724
 20
-55.586039
 30
0.0
 10
31.219826
 20
-55.586039
 30
0.0
  0
LWPOLYLINE
  5
113
100
AcDbEntity
  8
0
 62
3
100
AcDbPolyline
 90
4
 70
1
 10
107.432524
 20
-50.810840
 30
0.0
 10
107.432524
 20
-36.532941
 30
0.0
 10
121.710423
 20
-36.532941
 30
0.0
 10
121.710423
 20
-50.810840
 30
0.0
  0
LWPOLYLINE
  5
114
100
AcDbEntity
  8
0
 62
3
100
AcDbPolyline
 90
100
 70
1
 10
121.688072
 20
-116.104106
 30
0.0
 10
121.402600
 20
-116.011089
 30
0.0
 10
121.037994
 20
-115.891065
 30
0.0
 10
120.591415
 20
-115.750037
 30
0.0
 10
120.065703
 20
-115.588003
 30
0.0
 10
119.460847
 20
-115.407969
 30
0.0
 10
118.774023
 20
-115.206928
 30
0.0
 10
118.010887
 20
-114.990886
 30
0.0
 10
117.171440
 20
-114.759841
 30
0.0
 10
116.252851
 20
-114.513793
 30
0.0
 10
115.255123
 20
-114.255741
 30
0.0
 10
114.183905
 20
-113.988690
 30
0.0
 10
113.033549
 20
-113.709635
 30
0.0
 10
111.806880
 20
-113.424577
 30
0.0
 10
110.506723
 20
-113.130518
 30
0.0
 10
109.130252
 20
-112.833460
 30
0.0
 10
107.677469
 20
-112.533401
 30
0.0
 10
106.151197
 20
-112.230340
 30
0.0
 10
104.551440
 20
-111.924278
 30
0.0
 10
102.878196
 20
-111.621219
 30
0.0
 10
101.131465
 20
-111.321160
 30
0.0
 10
99.311244
 20
-111.021099
 30
0.0
 10
97.420364
 20
-110.730041
 30
0.0
 10
95.455997
 20
-110.441985
 30
0.0
 10
93.420970
 20
-110.162930
 30
0.0
 10
91.312455
 20
-109.895878
 30
0.0
 10
89.136108
 20
-109.634827
 30
0.0
 10
86.886271
 20
-109.388776
 30
0.0
 10
84.568601
 20
-109.157731
 30
0.0
 10
82.183096
 20
-108.938689
 30
0.0
 10
80.368530
 20
-108.791659
 30
0.0
 10
78.435253
 20
-108.653631
 30
0.0
 10
76.391746
 20
-108.524604
 30
0.0
 10
74.249314
 20
-108.404582
 30
0.0
 10
72.024916
 20
-108.293558
 30
0.0
 10
69.724204
 20
-108.188539
 30
0.0
 10
67.361310
 20
-108.092519
 30
0.0
 10
64.947542
 20
-108.002501
 30
0.0
 10
62.494202
 20
-107.921485
 30
0.0
 10
60.015426
 20
-107.846470
 30
0.0
 10
57.522517
 20
-107.777457
 30
0.0
 10
55.023955
 20
-107.714444
 30
0.0
 10
52.533872
 20
-107.657433
 30
0.0
 10
50.060748
 20
-107.606423
 30
0.0
 10
47.621541
 20
-107.561414
 30
0.0
 10
45.224731
 20
-107.522406
 30
0.0
 10
42.884449
 20
-107.486399
 30
0.0
 10
40.609175
 20
-107.453392
 30
0.0
 10
38.410214
 20
-107.426387
 30
0.0
 10
36.301700
 20
-107.402382
 30
0.0
 10
34.294934
 20
-107.384379
 30
0.0
 10
32.404057
 20
-107.366375
 30
0.0
 10
30.634712
 20
-107.351372
 30
0.0
 10
29.001036
 20
-107.342370
 30
0.0
 10
27.517163
 20
-107.333368
 30
0.0
 10
26.194394
 20
-107.327367
 30
0.0
 10
25.041211
 20
-107.321366
 30
0.0
 10
24.074573
 20
-107.318366
 30
0.0
 10
23.300134
 20
-107.315365
 30
0.0
 10
22.732020
 20
-107.315365
 30
0.0
 10
22.384371
 20
-107.315365
 30
0.0
 10
22.265658
 20
-107.315365
 30
0.0
 10
22.293924
 20
-35.424123
 30
0.0
 10
22.375889
 20
-33.722786
 30
0.0
 10
22.590700
 20
-32.108466
 30
0.0
 10
22.935523
 20
-30.572163
 30
0.0
 10
23.404709
 20
-29.113872
 30
0.0
 10
23.989781
 20
-27.733600
 30
0.0
 10
24.685082
 20
-26.428339
 30
0.0
 10
25.490614
 20
-25.195098
 30
0.0
 10
26.395072
 20
-24.033867
 30
0.0
 10
27.398453
 20
-22.944651
 30
0.0
 10
28.489454
 20
-21.921448
 30
0.0
 10
29.668071
 20
-20.964259
 30
0.0
 10
30.925835
 20
-20.070081
 30
0.0
 10
32.259905
 20
-19.238916
 30
0.0
 10
33.661815
 20
-18.467764
 30
0.0
 10
35.128734
 20
-17.756623
 30
0.0
 10
36.655004
 20
-17.102495
 30
0.0
 10
38.234976
 20
-16.505376
 30
0.0
 10
39.862998
 20
-15.959269
 30
0.0
 10
41.533417
 20
-15.464169
 30
0.0
 10
43.243405
 20
-15.020080
 30
0.0
 10
44.981658
 20
-14.624004
 30
0.0
 10
46.751002
 20
-14.272935
 30
0.0
 10
48.540130
 20
-13.966871
 30
0.0
 10
50.346217
 20
-13.702822
 30
0.0
 10
52.163610
 20
-13.477775
 30
0.0
 10
53.986656
 20
-13.294740
 30
0.0
 10
55.809702
 20
-13.147709
 30
0.0
 10
57.627094
 20
-13.033688
 30
0.0
 10
59.436008
 20
-12.955671
 30
0.0
 10
61.227963
 20
-12.910664
 30
0.0
 10
63.000133
 20
-12.892660
 30
0.0
 10
64.746865
 20
-12.903164
 30
0.0
 10
155.557862
 20
-12.859654
 30
0.0
 10
155.555033
 20
-73.675979
 30
0.0
 10
175.703539
 20
-81.340785
 30
0.0
 10
158.905443
 20
-130.125583
 30
0.0
 10
122.056919
 20
-116.231631
 30
0.0
  0
ENDSEC
  0
SECTION
  2
OBJECTS
  0
DICTIONARY
  5
C
330
0
100
AcDbDictionary
  3
ACAD_GROUP
350
D
  3
ACAD_MLINESTYLE
350
17
  0
DICTIONARY
  5
D
330
C
100
AcDbDictionary
  0
DICTIONARY
  5
1A
330
C
100
AcDbDictionary
  0
DICTIONARY
  5
17
330
C
100
AcDbDictionary
  3
STANDARD
350
18
  0
DICTIONARY
  5
19
330
C
100
AcDbDictionary
  0
ENDSEC
  0
EOF
