  0
SECTION
  2
HEADER
  9
$ACADVER
  1
AC1014
  9
$HANDSEED
  5
FFFF
  9
$MEASUREMENT
 70
     1
  0
ENDSEC
  0
SECTION
  2
TABLES
  0
TABLE
  2
VPORT
  5
8
330
0
100
AcDbSymbolTable
 70
     4
  0
VPORT
  5
2E
330
8
100
AcDbSymbolTableRecord
100
AcDbViewportTableRecord
  2
*ACTIVE
 70
     0
 10
0.0
 20
0.0
 11
1.0
 21
1.0
 12
210.0
 22
148.5
 13
0.0
 23
0.0
 14
10.0
 24
10.0
 15
10.0
 25
10.0
 16
0.0
 26
0.0
 36
1.0
 17
0.0
 27
0.0
 37
0.0
 40
341.0
 41
1.24
 42
50.0
 43
0.0
 44
0.0
 50
0.0
 51
0.0
 71
     0
 72
   100
 73
     1
 74
     3
 75
     0
 76
     0
 77
     0
 78
     0
  0
ENDTAB
  0
TABLE
  2
LTYPE
  5
5
330
0
100
AcDbSymbolTable
 70
     1
  0
LTYPE
  5
14
330
5
100
AcDbSymbolTableRecord
100
AcDbLinetypeTableRecord
  2
BYBLOCK
 70
     0
  3

 72
    65
 73
     0
 40
0.0
  0
LTYPE
  5
15
330
5
100
AcDbSymbolTableRecord
100
AcDbLinetypeTableRecord
  2
BYLAYER
 70
     0
  3

 72
    65
 73
     0
 40
0.0
  0
LTYPE
  5
16
330
5
100
AcDbSymbolTableRecord
100
AcDbLinetypeTableRecord
  2
CONTINUOUS
 70
     0
  3
Solid line
 72
    65
 73
     0
 40
0.0
  0
ENDTAB
  0
TABLE
  2
LAYER
  5
2
100
AcDbSymbolTable
 70
1
  0
LAYER
  5
50
100
AcDbSymbolTableRecord
100
AcDbLayerTableRecord
  2
0
 70
0
  6
CONTINUOUS
  0
ENDTAB
  0
TABLE
  2
STYLE
  5
3
330
0
100
AcDbSymbolTable
 70
     1
  0
STYLE
  5
11
330
3
100
AcDbSymbolTableRecord
100
AcDbTextStyleTableRecord
  2
STANDARD
 70
     0
 40
0.0
 41
1.0
 50
0.0
 71
     0
 42
2.5
  3
txt
  4

  0
ENDTAB
  0
TABLE
  2
VIEW
  5
6
330
0
100
AcDbSymbolTable
 70
     0
  0
ENDTAB
  0
TABLE
  2
UCS
  5
7
330
0
100
AcDbSymbolTable
 70
     0
  0
ENDTAB
  0
TABLE
  2
APPID
  5
9
330
0
100
AcDbSymbolTable
 70
     2
  0
APPID
  5
12
330
9
100
AcDbSymbolTableRecord
100
AcDbRegAppTableRecord
  2
ACAD
 70
     0
  0
ENDTAB
  0
TABLE
  2
DIMSTYLE
  5
A
330
0
100
AcDbSymbolTable
 70
     1
  0
DIMSTYLE
105
27
330
A
100
AcDbSymbolTableRecord
100
AcDbDimStyleTableRecord
  2
ISO-25
 70
     0
  3

  4

  5

  6

  7

 40
1.0
 41
2.5
 42
0.625
 43
3.75
 44
1.25
 45
0.0
 46
0.0
 47
0.0
 48
0.0
140
2.5
141
2.5
142
0.0
143
0.03937007874016
144
1.0
145
0.0
146
1.0
147
0.625
 71
     0
 72
     0
 73
     0
 74
     0
 75
     0
 76
     0
 77
     1
 78
     8
170
     0
171
     3
172
     1
173
     0
174
     0
175
     0
176
     0
177
     0
178
     0
270
     2
271
     2
272
     2
273
     2
274
     3
340
11
275
     0
280
     0
281
     0
282
     0
283
     0
284
     8
285
     0
286
     0
287
     3
288
     0
  0
ENDTAB
  0
TABLE
  2
BLOCK_RECORD
  5
1
330
0
100
AcDbSymbolTable
 70
     1
  0
BLOCK_RECORD
  5
1F
330
1
100
AcDbSymbolTableRecord
100
AcDbBlockTableRecord
  2
*MODEL_SPACE
  0
BLOCK_RECORD
  5
1B
330
1
100
AcDbSymbolTableRecord
100
AcDbBlockTableRecord
  2
*PAPER_SPACE
  0
ENDTAB
  0
ENDSEC
  0
SECTION
  2
BLOCKS
  0
BLOCK
  5
20
330
1F
100
AcDbEntity
  8
0
100
AcDbBlockBegin
  2
*MODEL_SPACE
 70
     0
 10
0.0
 20
0.0
 30
0.0
  3
*MODEL_SPACE
  1

  0
ENDBLK
  5
21
330
1F
100
AcDbEntity
  8
0
100
AcDbBlockEnd
  0
BLOCK
  5
1C
330
1B
100
AcDbEntity
 67
     1
  8
0
100
AcDbBlockBegin
  2
*PAPER_SPACE
  1

  0
ENDBLK
  5
1D
330
1B
100
AcDbEntity
 67
     1
  8
0
100
AcDbBlockEnd
  0
ENDSEC
  0
SECTION
  2
ENTITIES
  0
LWPOLYLINE
  5
100
100
AcDbEntity
  8
0
 62
7
100
AcDbPolyline
 90
100
 70
1
 10
119.064526
 20
-108.284836
 30
0.0
 10
118.805421
 20
-108.204914
 30
0.0
 10
118.474485
 20
-108.101789
 30
0.0
 10
118.069152
 20
-107.980617
 30
0.0
 10
117.591988
 20
-107.841399
 30
0.0
 10
117.042993
 20
-107.686711
 30
0.0
 10
116.419602
 20
-107.513977
 30
0.0
 10
115.726944
 20
-107.328353
 30
0.0
 10
114.965021
 20
-107.129837
 30
0.0
 10
114.131267
 20
-106.918431
 30
0.0
 10
113.225682
 20
-106.696713
 30
0.0
 10
112.253396
 20
-106.467260
 30
0.0
 10
111.209279
 20
-106.227495
 30
0.0
 10
110.095897
 20
-105.982573
 30
0.0
 10
108.915814
 20
-105.729917
 30
0.0
 10
107.666465
 20
-105.474683
 30
0.0
 10
106.347851
 20
-105.216871
 30
0.0
 10
104.962536
 20
-104.956481
 30
0.0
 10
103.510521
 20
-104.693512
 30
0.0
 10
101.991806
 20
-104.433122
 30
0.0
 10
100.406390
 20
-104.175310
 30
0.0
 10
98.754275
 20
-103.917498
 30
0.0
 10
97.038024
 20
-103.667420
 30
0.0
 10
95.255072
 20
-103.419920
 30
0.0
 10
93.407986
 20
-103.180155
 30
0.0
 10
91.494200
 20
-102.950702
 30
0.0
 10
89.518844
 20
-102.726405
 30
0.0
 10
87.476787
 20
-102.515000
 30
0.0
 10
85.373161
 20
-102.316484
 30
0.0
 10
83.207966
 20
-102.128281
 30
0.0
 10
81.560980
 20
-102.001953
 30
0.0
 10
79.806249
 20
-101.883360
 30
0.0
 10
77.951466
 20
-101.772500
 30
0.0
 10
76.006895
 20
-101.669376
 30
0.0
 10
73.987927
 20
-101.573985
 30
0.0
 10
71.899694
 20
-101.483751
 30
0.0
 10
69.755021
 20
-101.401251
 30
0.0
 10
67.564172
 20
-101.323907
 30
0.0
 10
65.337407
 20
-101.254298
 30
0.0
 10
63.087553
 20
-101.189845
 30
0.0
 10
60.824873
 20
-101.130548
 30
0.0
 10
58.557061
 20
-101.076408
 30
0.0
 10
56.296946
 20
-101.027423
 30
0.0
 10
54.052223
 20
-100.983595
 30
0.0
 10
51.838285
 20
-100.944923
 30
0.0
 10
49.662828
 20
-100.911408
 30
0.0
 10
47.538679
 20
-100.880470
 30
0.0
 10
45.473534
 20
-100.852111
 30
0.0
 10
43.477655
 20
-100.828908
 30
0.0
 10
41.563868
 20
-100.808283
 30
0.0
 10
39.742436
 20
-100.792814
 30
0.0
 10
38.026185
 20
-100.777346
 30
0.0
 10
36.420246
 20
-100.764455
 30
0.0
 10
34.937446
 20
-100.756721
 30
0.0
 10
33.590613
 20
-100.748986
 30
0.0
 10
32.390007
 20
-100.743830
 30
0.0
 10
31.343325
 20
-100.738674
 30
0.0
 10
30.465959
 20
-100.736096
 30
0.0
 10
29.763040
 20
-100.733517
 30
0.0
 10
29.247395
 20
-100.733517
 30
0.0
 10
28.931851
 20
-100.733517
 30
0.0
 10
28.824104
 20
-100.733517
 30
0.0
 10
28.849758
 20
-38.964302
 30
0.0
 10
28.924155
 20
-37.502507
 30
0.0
 10
29.119125
 20
-36.115477
 30
0.0
 10
29.432103
 20
-34.795479
 30
0.0
 10
29.857959
 20
-33.542512
 30
0.0
 10
30.388997
 20
-32.356576
 30
0.0
 10
31.020084
 20
-31.235093
 30
0.0
 10
31.751223
 20
-30.175485
 30
0.0
 10
32.572150
 20
-29.177752
 30
0.0
 10
33.482866
 20
-28.241894
 30
0.0
 10
34.473109
 20
-27.362754
 30
0.0
 10
35.542880
 20
-26.540334
 30
0.0
 10
36.684482
 20
-25.772053
 30
0.0
 10
37.895350
 20
-25.057914
 30
0.0
 10
39.167787
 20
-24.395336
 30
0.0
 10
40.499228
 20
-23.784322
 30
0.0
 10
41.884543
 20
-23.222291
 30
0.0
 10
43.318600
 20
-22.709245
 30
0.0
 10
44.796269
 20
-22.240027
 30
0.0
 10
46.312419
 20
-21.814637
 30
0.0
 10
47.864484
 20
-21.433075
 30
0.0
 10
49.442204
 20
-21.092763
 30
0.0
 10
51.048143
 20
-20.791122
 30
0.0
 10
52.672039
 20
-20.528154
 30
0.0
 10
54.311328
 20
-20.301279
 30
0.0
 10
55.960879
 20
-20.107920
 30
0.0
 10
57.615560
 20
-19.950655
 30
0.0
 10
59.270242
 20
-19.824327
 30
0.0
 10
60.919792
 20
-19.726358
 30
0.0
 10
62.561647
 20
-19.659327
 30
0.0
 10
64.188109
 20
-19.620655
 30
0.0
 10
65.796613
 20
-19.605187
 30
0.0
 10
67.382029
 20
-19.614210
 30
0.0
 10
149.282344
 20
-19.576827
 30
0.0
 10
149.352859
 20
-78.374732
 30
0.0
 10
167.545280
 20
-85.208543
 30
0.0
 10
154.708159
 20
-121.214116
 30
0.0
 10
119.399311
 20
-108.394406
 30
0.0
  0
LWPOLYLINE
  5
101
100
AcDbEntity
  8
0
 62
7
100
AcDbPolyline
 90
100
 70
1
 10
47.621641
 20
-107.561789
 30
0.0
 10
45.224821
 20
-107.522782
 30
0.0
 10
42.884532
 20
-107.486773
 30
0.0
 10
40.609250
 20
-107.453768
 30
0.0
 10
38.410284
 20
-107.426762
 30
0.0
 10
36.301761
 20
-107.402757
 30
0.0
 10
34.294991
 20
-107.384754
 30
0.0
 10
32.404105
 20
-107.366749
 30
0.0
 10
30.634755
 20
-107.351746
 30
0.0
 10
29.001075
 20
-107.342744
 30
0.0
 10
27.517195
 20
-107.333743
 30
0.0
 10
26.194423
 20
-107.327742
 30
0.0
 10
25.041237
 20
-107.321740
 30
0.0
 10
24.074595
 20
-107.318739
 30
0.0
 10
23.300152
 20
-107.315738
 30
0.0
 10
22.732038
 20
-107.315738
 30
0.0
 10
22.384386
 20
-107.315738
 30
0.0
 10
22.265675
 20
-107.315738
 30
0.0
 10
22.293940
 20
-35.424255
 30
0.0
 10
22.375907
 20
-33.722913
 30
0.0
 10
22.590716
 20
-32.108587
 30
0.0
 10
22.935541
 20
-30.572279
 30
0.0
 10
23.404730
 20
-29.113985
 30
0.0
 10
23.989802
 20
-27.733707
 30
0.0
 10
24.685105
 20
-26.428443
 30
0.0
 10
25.490640
 20
-25.195195
 30
0.0
 10
26.395100
 20
-24.033961
 30
0.0
 10
27.398485
 20
-22.944741
 30
0.0
 10
28.489490
 20
-21.921535
 30
0.0
 10
29.668114
 20
-20.964343
 30
0.0
 10
30.925878
 20
-20.070162
 30
0.0
 10
32.259956
 20
-19.238995
 30
0.0
 10
33.661869
 20
-18.467840
 30
0.0
 10
35.128790
 20
-17.756696
 30
0.0
 10
36.655065
 20
-17.102564
 30
0.0
 10
38.235044
 20
-16.505444
 30
0.0
 10
39.863071
 20
-15.959334
 30
0.0
 10
41.533496
 20
-15.464234
 30
0.0
 10
43.243490
 20
-15.020145
 30
0.0
 10
44.981750
 20
-14.624065
 30
0.0
 10
46.751099
 20
-14.272994
 30
0.0
 10
48.540233
 20
-13.966933
 30
0.0
 10
50.346327
 20
-13.702880
 30
0.0
 10
52.163724
 20
-13.477834
 30
0.0
 10
53.986777
 20
-13.294797
 30
0.0
 10
55.809828
 20
-13.147768
 30
0.0
 10
57.627228
 20
-13.033745
 30
0.0
 10
59.436146
 20
-12.955729
 30
0.0
 10
61.228107
 20
-12.910720
 30
0.0
 10
63.000283
 20
-12.892716
 30
0.0
 10
64.747022
 20
-12.903219
 30
0.0
 10
155.558322
 20
-12.859710
 30
0.0
 10
155.555495
 20
-73.676242
 30
0.0
 10
175.704065
 20
-81.341072
 30
0.0
 10
158.905914
 20
-130.126032
 30
0.0
 10
122.057268
 20
-116.232035
 30
0.0
 10
121.688418
 20
-116.104511
 30
0.0
 10
121.402948
 20
-116.011492
 30
0.0
 10
121.038338
 20
-115.891467
 30
0.0
 10
120.591761
 20
-115.750439
 30
0.0
 10
120.066045
 20
-115.588407
 30
0.0
 10
119.461186
 20
-115.408369
 30
0.0
 10
118.774362
 20
-115.207329
 30
0.0
 10
118.011223
 20
-114.991285
 30
0.0
 10
117.171774
 20
-114.760239
 30
0.0
 10
116.253182
 20
-114.514189
 30
0.0
 10
115.255447
 20
-114.256137
 30
0.0
 10
114.184230
 20
-113.989084
 30
0.0
 10
113.033870
 20
-113.710029
 30
0.0
 10
111.807197
 20
-113.424971
 30
0.0
 10
110.507035
 20
-113.130910
 30
0.0
 10
109.130561
 20
-112.833851
 30
0.0
 10
107.677771
 20
-112.533791
 30
0.0
 10
106.151496
 20
-112.230728
 30
0.0
 10
104.551732
 20
-111.924666
 30
0.0
 10
102.878482
 20
-111.621606
 30
0.0
 10
101.131744
 20
-111.321546
 30
0.0
 10
99.311517
 20
-111.021486
 30
0.0
 10
97.420632
 20
-110.730426
 30
0.0
 10
95.456258
 20
-110.442370
 30
0.0
 10
93.421224
 20
-110.163312
 30
0.0
 10
91.312703
 20
-109.896260
 30
0.0
 10
89.136345
 20
-109.635207
 30
0.0
 10
86.886502
 20
-109.389156
 30
0.0
 10
84.568824
 20
-109.158110
 30
0.0
 10
82.183310
 20
-108.939065
 30
0.0
 10
80.368738
 20
-108.792037
 30
0.0
 10
78.435454
 20
-108.654010
 30
0.0
 10
76.391941
 20
-108.524983
 30
0.0
 10
74.249503
 20
-108.404958
 30
0.0
 10
72.025095
 20
-108.293936
 30
0.0
 10
69.724378
 20
-108.188914
 30
0.0
 10
67.361475
 20
-108.092895
 30
0.0
 10
64.947700
 20
-108.002877
 30
0.0
 10
62.494351
 20
-107.921862
 30
0.0
 10
60.015567
 20
-107.846846
 30
0.0
 10
57.522649
 20
-107.777833
 30
0.0
 10
55.024078
 20
-107.714821
 30
0.0
 10
52.533988
 20
-107.657808
 30
0.0
 10
50.060855
 20
-107.606797
 30
0.0
  0
ENDSEC
  0
SECTION
  2
OBJECTS
  0
DICTIONARY
  5
C
330
0
100
AcDbDictionary
  3
ACAD_GROUP
350
D
  3
ACAD_MLINESTYLE
350
17
  0
DICTIONARY
  5
D
330
C
100
AcDbDictionary
  0
DICTIONARY
  5
1A
330
C
100
AcDbDictionary
  0
DICTIONARY
  5
17
330
C
100
AcDbDictionary
  3
STANDARD
350
18
  0
DICTIONARY
  5
19
330
C
100
AcDbDictionary
  0
ENDSEC
  0
EOF
