  0
SECTION
  2
HEADER
  9
$ACADVER
  1
AC1014
  9
$HANDSEED
  5
FFFF
  9
$MEASUREMENT
 70
     1
  0
ENDSEC
  0
SECTION
  2
TABLES
  0
TABLE
  2
VPORT
  5
8
330
0
100
AcDbSymbolTable
 70
     4
  0
VPORT
  5
2E
330
8
100
AcDbSymbolTableRecord
100
AcDbViewportTableRecord
  2
*ACTIVE
 70
     0
 10
0.0
 20
0.0
 11
1.0
 21
1.0
 12
210.0
 22
148.5
 13
0.0
 23
0.0
 14
10.0
 24
10.0
 15
10.0
 25
10.0
 16
0.0
 26
0.0
 36
1.0
 17
0.0
 27
0.0
 37
0.0
 40
341.0
 41
1.24
 42
50.0
 43
0.0
 44
0.0
 50
0.0
 51
0.0
 71
     0
 72
   100
 73
     1
 74
     3
 75
     0
 76
     0
 77
     0
 78
     0
  0
ENDTAB
  0
TABLE
  2
LTYPE
  5
5
330
0
100
AcDbSymbolTable
 70
     1
  0
LTYPE
  5
14
330
5
100
AcDbSymbolTableRecord
100
AcDbLinetypeTableRecord
  2
BYBLOCK
 70
     0
  3

 72
    65
 73
     0
 40
0.0
  0
LTYPE
  5
15
330
5
100
AcDbSymbolTableRecord
100
AcDbLinetypeTableRecord
  2
BYLAYER
 70
     0
  3

 72
    65
 73
     0
 40
0.0
  0
LTYPE
  5
16
330
5
100
AcDbSymbolTableRecord
100
AcDbLinetypeTableRecord
  2
CONTINUOUS
 70
     0
  3
Solid line
 72
    65
 73
     0
 40
0.0
  0
ENDTAB
  0
TABLE
  2
LAYER
  5
2
100
AcDbSymbolTable
 70
1
  0
LAYER
  5
50
100
AcDbSymbolTableRecord
100
AcDbLayerTableRecord
  2
0
 70
0
  6
CONTINUOUS
  0
ENDTAB
  0
TABLE
  2
STYLE
  5
3
330
0
100
AcDbSymbolTable
 70
     1
  0
STYLE
  5
11
330
3
100
AcDbSymbolTableRecord
100
AcDbTextStyleTableRecord
  2
STANDARD
 70
     0
 40
0.0
 41
1.0
 50
0.0
 71
     0
 42
2.5
  3
txt
  4

  0
ENDTAB
  0
TABLE
  2
VIEW
  5
6
330
0
100
AcDbSymbolTable
 70
     0
  0
ENDTAB
  0
TABLE
  2
UCS
  5
7
330
0
100
AcDbSymbolTable
 70
     0
  0
ENDTAB
  0
TABLE
  2
APPID
  5
9
330
0
100
AcDbSymbolTable
 70
     2
  0
APPID
  5
12
330
9
100
AcDbSymbolTableRecord
100
AcDbRegAppTableRecord
  2
ACAD
 70
     0
  0
ENDTAB
  0
TABLE
  2
DIMSTYLE
  5
A
330
0
100
AcDbSymbolTable
 70
     1
  0
DIMSTYLE
105
27
330
A
100
AcDbSymbolTableRecord
100
AcDbDimStyleTableRecord
  2
ISO-25
 70
     0
  3

  4

  5

  6

  7

 40
1.0
 41
2.5
 42
0.625
 43
3.75
 44
1.25
 45
0.0
 46
0.0
 47
0.0
 48
0.0
140
2.5
141
2.5
142
0.0
143
0.03937007874016
144
1.0
145
0.0
146
1.0
147
0.625
 71
     0
 72
     0
 73
     0
 74
     0
 75
     0
 76
     0
 77
     1
 78
     8
170
     0
171
     3
172
     1
173
     0
174
     0
175
     0
176
     0
177
     0
178
     0
270
     2
271
     2
272
     2
273
     2
274
     3
340
11
275
     0
280
     0
281
     0
282
     0
283
     0
284
     8
285
     0
286
     0
287
     3
288
     0
  0
ENDTAB
  0
TABLE
  2
BLOCK_RECORD
  5
1
330
0
100
AcDbSymbolTable
 70
     1
  0
BLOCK_RECORD
  5
1F
330
1
100
AcDbSymbolTableRecord
100
AcDbBlockTableRecord
  2
*MODEL_SPACE
  0
BLOCK_RECORD
  5
1B
330
1
100
AcDbSymbolTableRecord
100
AcDbBlockTableRecord
  2
*PAPER_SPACE
  0
ENDTAB
  0
ENDSEC
  0
SECTION
  2
BLOCKS
  0
BLOCK
  5
20
330
1F
100
AcDbEntity
  8
0
100
AcDbBlockBegin
  2
*MODEL_SPACE
 70
     0
 10
0.0
 20
0.0
 30
0.0
  3
*MODEL_SPACE
  1

  0
ENDBLK
  5
21
330
1F
100
AcDbEntity
  8
0
100
AcDbBlockEnd
  0
BLOCK
  5
1C
330
1B
100
AcDbEntity
 67
     1
  8
0
100
AcDbBlockBegin
  2
*PAPER_SPACE
  1

  0
ENDBLK
  5
1D
330
1B
100
AcDbEntity
 67
     1
  8
0
100
AcDbBlockEnd
  0
ENDSEC
  0
SECTION
  2
ENTITIES
  0
LWPOLYLINE
  5
100
100
AcDbEntity
  8
0
 62
7
100
AcDbPolyline
 90
100
 70
1
 10
121.688234
 20
-116.104478
 30
0.0
 10
121.402766
 20
-116.011460
 30
0.0
 10
121.038154
 20
-115.891436
 30
0.0
 10
120.591577
 20
-115.750405
 30
0.0
 10
120.065861
 20
-115.588374
 30
0.0
 10
119.461003
 20
-115.408338
 30
0.0
 10
118.774180
 20
-115.207297
 30
0.0
 10
118.011042
 20
-114.991255
 30
0.0
 10
117.171590
 20
-114.760206
 30
0.0
 10
116.252998
 20
-114.514157
 30
0.0
 10
115.255268
 20
-114.256105
 30
0.0
 10
114.184047
 20
-113.989052
 30
0.0
 10
113.033690
 20
-113.709996
 30
0.0
 10
111.807015
 20
-113.424937
 30
0.0
 10
110.506855
 20
-113.130878
 30
0.0
 10
109.130382
 20
-112.833819
 30
0.0
 10
107.677592
 20
-112.533759
 30
0.0
 10
106.151317
 20
-112.230697
 30
0.0
 10
104.551556
 20
-111.924637
 30
0.0
 10
102.878306
 20
-111.621574
 30
0.0
 10
101.131568
 20
-111.321515
 30
0.0
 10
99.311342
 20
-111.021455
 30
0.0
 10
97.420457
 20
-110.730396
 30
0.0
 10
95.456084
 20
-110.442337
 30
0.0
 10
93.421052
 20
-110.163281
 30
0.0
 10
91.312531
 20
-109.896228
 30
0.0
 10
89.136175
 20
-109.635176
 30
0.0
 10
86.886332
 20
-109.389127
 30
0.0
 10
84.568654
 20
-109.158078
 30
0.0
 10
82.183142
 20
-108.939036
 30
0.0
 10
80.368571
 20
-108.792006
 30
0.0
 10
78.435289
 20
-108.653978
 30
0.0
 10
76.391775
 20
-108.524952
 30
0.0
 10
74.249337
 20
-108.404927
 30
0.0
 10
72.024932
 20
-108.293905
 30
0.0
 10
69.724214
 20
-108.188884
 30
0.0
 10
67.361313
 20
-108.092865
 30
0.0
 10
64.947537
 20
-108.002846
 30
0.0
 10
62.494191
 20
-107.921830
 30
0.0
 10
60.015407
 20
-107.846815
 30
0.0
 10
57.522490
 20
-107.777801
 30
0.0
 10
55.023921
 20
-107.714788
 30
0.0
 10
52.533831
 20
-107.657777
 30
0.0
 10
50.060700
 20
-107.606767
 30
0.0
 10
47.621486
 20
-107.561758
 30
0.0
 10
45.224668
 20
-107.522750
 30
0.0
 10
42.884379
 20
-107.486743
 30
0.0
 10
40.609099
 20
-107.453736
 30
0.0
 10
38.410132
 20
-107.426730
 30
0.0
 10
36.301611
 20
-107.402726
 30
0.0
 10
34.294840
 20
-107.384722
 30
0.0
 10
32.403955
 20
-107.366719
 30
0.0
 10
30.634607
 20
-107.351715
 30
0.0
 10
29.000927
 20
-107.342714
 30
0.0
 10
27.517048
 20
-107.333712
 30
0.0
 10
26.194277
 20
-107.327711
 30
0.0
 10
25.041091
 20
-107.321709
 30
0.0
 10
24.074450
 20
-107.318709
 30
0.0
 10
23.300006
 20
-107.315708
 30
0.0
 10
22.731891
 20
-107.315708
 30
0.0
 10
22.384241
 20
-107.315708
 30
0.0
 10
22.265531
 20
-107.315708
 30
0.0
 10
22.293794
 20
-35.424232
 30
0.0
 10
22.375762
 20
-33.722890
 30
0.0
 10
22.590571
 20
-32.108565
 30
0.0
 10
22.935397
 20
-30.572255
 30
0.0
 10
23.404584
 20
-29.113962
 30
0.0
 10
23.989656
 20
-27.733683
 30
0.0
 10
24.684958
 20
-26.428421
 30
0.0
 10
25.490495
 20
-25.195173
 30
0.0
 10
26.394953
 20
-24.033939
 30
0.0
 10
27.398337
 20
-22.944719
 30
0.0
 10
28.489341
 20
-21.921513
 30
0.0
 10
29.667967
 20
-20.964321
 30
0.0
 10
30.925731
 20
-20.070140
 30
0.0
 10
32.259808
 20
-19.238975
 30
0.0
 10
33.661719
 20
-18.467818
 30
0.0
 10
35.128639
 20
-17.756675
 30
0.0
 10
36.654915
 20
-17.102542
 30
0.0
 10
38.234893
 20
-16.505423
 30
0.0
 10
39.862920
 20
-15.959312
 30
0.0
 10
41.533343
 20
-15.464214
 30
0.0
 10
43.243337
 20
-15.020123
 30
0.0
 10
44.981595
 20
-14.624043
 30
0.0
 10
46.750944
 20
-14.272973
 30
0.0
 10
48.540078
 20
-13.966911
 30
0.0
 10
50.346170
 20
-13.702858
 30
0.0
 10
52.163568
 20
-13.477813
 30
0.0
 10
53.986619
 20
-13.294777
 30
0.0
 10
55.809670
 20
-13.147746
 30
0.0
 10
57.627069
 20
-13.033725
 30
0.0
 10
59.435987
 20
-12.955708
 30
0.0
 10
61.227948
 20
-12.910700
 30
0.0
 10
63.000123
 20
-12.892697
 30
0.0
 10
64.746860
 20
-12.903197
 30
0.0
 10
155.558123
 20
-12.859690
 30
0.0
 10
155.555299
 20
-73.676214
 30
0.0
 10
175.703861
 20
-81.341044
 30
0.0
 10
158.905715
 20
-130.125999
 30
0.0
 10
122.057085
 20
-116.232003
 30
0.0
  0
LWPOLYLINE
  5
101
100
AcDbEntity
  8
0
 62
7
100
AcDbPolyline
 90
31
 70
1
 10
123.753774
 20
-91.582717
 30
0.0
 10
104.761038
 20
-91.582719
 30
0.0
 10
104.762167
 20
-86.807504
 30
0.0
 10
86.298660
 20
-86.807504
 30
0.0
 10
86.294755
 20
-96.345234
 30
0.0
 10
67.219338
 20
-96.345234
 30
0.0
 10
67.219304
 20
-101.120449
 30
0.0
 10
47.598182
 20
-101.120449
 30
0.0
 10
47.607420
 20
-96.396031
 30
0.0
 10
28.524180
 20
-96.396031
 30
0.0
 10
28.548127
 20
-38.636682
 30
0.0
 10
47.591838
 20
-38.636682
 30
0.0
 10
47.598182
 20
-24.336441
 30
0.0
 10
66.706050
 20
-24.336441
 30
0.0
 10
66.699035
 20
-19.573925
 30
0.0
 10
86.320153
 20
-19.573925
 30
0.0
 10
86.339851
 20
-29.111656
 30
0.0
 10
105.319406
 20
-29.111656
 30
0.0
 10
105.317059
 20
-33.861470
 30
0.0
 10
124.382161
 20
-33.861470
 30
0.0
 10
124.382161
 20
-89.714092
 30
0.0
 10
124.737775
 20
-89.726479
 30
0.0
 10
131.700839
 20
-72.237294
 30
0.0
 10
150.136997
 20
-78.948401
 30
0.0
 10
148.558521
 20
-83.306682
 30
0.0
 10
166.776178
 20
-89.939604
 30
0.0
 10
156.709519
 20
-117.595237
 30
0.0
 10
138.491862
 20
-110.962317
 30
0.0
 10
136.910745
 20
-115.265129
 30
0.0
 10
118.474597
 20
-108.554020
 30
0.0
 10
123.974645
 20
-91.899406
 30
0.0
  0
ENDSEC
  0
SECTION
  2
OBJECTS
  0
DICTIONARY
  5
C
330
0
100
AcDbDictionary
  3
ACAD_GROUP
350
D
  3
ACAD_MLINESTYLE
350
17
  0
DICTIONARY
  5
D
330
C
100
AcDbDictionary
  0
DICTIONARY
  5
1A
330
C
100
AcDbDictionary
  0
DICTIONARY
  5
17
330
C
100
AcDbDictionary
  3
STANDARD
350
18
  0
DICTIONARY
  5
19
330
C
100
AcDbDictionary
  0
ENDSEC
  0
EOF
