<?xml version="1.0" encoding="UTF-8" standalone="no"?>
<svg
   xmlns:dc="http://purl.org/dc/elements/1.1/"
   xmlns:cc="http://creativecommons.org/ns#"
   xmlns:rdf="http://www.w3.org/1999/02/22-rdf-syntax-ns#"
   xmlns:svg="http://www.w3.org/2000/svg"
   xmlns="http://www.w3.org/2000/svg"
   xmlns:sodipodi="http://sodipodi.sourceforge.net/DTD/sodipodi-0.dtd"
   xmlns:inkscape="http://www.inkscape.org/namespaces/inkscape"
   version="1.1"
   id="svg10"
   xml:space="preserve"
   width="450mm"
   height="300mm"
   viewBox="0 0 1700.7875 1133.8583"
   sodipodi:docname="quantum-plates-2-pairs.svg"
   inkscape:version="1.0 (4035a4fb49, 2020-05-01)"><metadata
     id="metadata16"><rdf:RDF><cc:Work
         rdf:about=""><dc:format>image/svg+xml</dc:format><dc:type
           rdf:resource="http://purl.org/dc/dcmitype/StillImage" /><dc:title /></cc:Work></rdf:RDF></metadata><defs
     id="defs14"><clipPath
       clipPathUnits="userSpaceOnUse"
       id="clipPath26"><path
         d="M 0,867.401 H 1292.598 V 0 H 0 Z"
         id="path24"
         inkscape:connector-curvature="0" /></clipPath></defs><sodipodi:namedview
     pagecolor="#ffffff"
     bordercolor="#666666"
     borderopacity="1"
     objecttolerance="10"
     gridtolerance="10"
     guidetolerance="10"
     inkscape:pageopacity="0"
     inkscape:pageshadow="2"
     inkscape:window-width="1920"
     inkscape:window-height="1017"
     id="namedview12"
     showgrid="false"
     inkscape:zoom="0.86953914"
     inkscape:cx="489.71121"
     inkscape:cy="407.5324"
     inkscape:window-x="2936"
     inkscape:window-y="-8"
     inkscape:window-maximized="1"
     inkscape:current-layer="layer1"
     units="mm"
     inkscape:document-rotation="0" /><g
     inkscape:groupmode="layer"
     id="layer3"
     inkscape:label="カット2(R0G0B255)"
     style="display:inline"><path
       id="path1274-5-2"
       style="display:inline;fill:none;stroke:#0000ff;stroke-width:0.377953;stroke-linecap:butt;stroke-linejoin:miter;stroke-miterlimit:4;stroke-dasharray:none;stroke-opacity:1"
       d="m 501.05091,809.55858 -1.3824,12.7968 m -14.352,127.73761 -1.3728,12.7488 m 4.1952,-38.256 -1.4208,12.7584 m 7.2288,-63.84 -1.4592,12.7776 m 22.0896,-255.97441 -0.4416,12.7968 m -27.4176,294.24001 -1.4016,12.7488 m 11.52,-102.1632 -1.44,12.7872 m -5.8176,51.1008 -1.44,12.768 m 4.3488,-38.304 -1.4592,12.768 m 17.4528,-166.30081 -1.1136,12.7968 m 2.1504,-25.6032 -1.0368,12.8064 m 6.432,-115.248 -0.336,12.8064 m -12.1824,166.4448 -1.344,12.8064 m -10.0224,89.49121 -1.4496,12.768 m 25.5648,-307.11366 -0.2304,12.79685 m -15.2448,204.8544 -1.4016,12.7872 m -2.8704,25.57441 -1.4496,12.7872 m 9.7728,-89.54881 -1.3248,12.7968 m 10.5504,-128.0352 -0.7296,12.8064 m 1.3728,-25.6128 -0.6432,12.8064 m 2.2848,-89.59686 0.019,12.7872 m -3.0336,89.61606 -0.816,12.8064 m -4.032,51.216 -1.1712,12.8064 m 0,0 -1.2192,12.8064 m 9.1584,-128.0544 -0.5472,12.8064 m -8.6112,115.248 -1.2576,12.7968 m 7.68,-89.6256 -0.9024,12.8064 m 4.752,-115.22886 -0.1056,12.79681 m 62.064,418.52157 240.192,0.038 m -306.9024,-316.12792 -0.9792,12.8064 m -11.2512,115.2 -1.4304,12.78721 m 313.4688,-178.06081 1.4112,6.0864 m -41.1552,-85.67046 3.2928,3.1776 m 41.2032,100.69446 0.7968,5.9904 m -66.72,-120.76806 3.7536,0.7392 m 48.2784,60.17286 2.0928,5.7312 m -11.7024,-27.168 2.5728,5.088 m -41.2416,-43.82406 3.6864,1.2 m 59.9232,124.75206 0.4704,5.8176 m -5.2512,-35.9328 1.2672,6.0864 m -67.68,-102.92166 3.8304,0.2592 m 36.9312,29.94251 2.7936,4.64635 m 5.2704,9.9744 2.4672,5.2896 m -7.7376,-15.264 2.6976,4.8864 m 13.6704,33.024 1.8336,5.9328 m -8.1216,-23.1264 2.2272,5.6064 m -21.0144,-39.48475 3.0048,4.1184 m 29.8272,77.11675 1.1136,6.0768 m -17.5008,-58.8864 2.3424,5.4528 m -35.2128,-49.68006 3.4656,2.448 m 36.0672,58.56966 1.968,5.856 m 12.1728,71.28 v 300.10552 m -334.8,-47.67351 -1.296,12.72964 m 292.5504,-394.85761 3.1968,3.51361 m 31.6992,66.83515 1.5552,6.0576 m 6.6624,42.0192 0.3072,5.7024 m -60.7008,-136.27206 3.6192,1.6416 m 57.0816,134.63046 0.1248,5.568 m -336.096,265.16165 95.904,34.90547 m 199.8432,-426.24947 3.1008,3.8304 m 33.9456,87.31195 0.96,6.0384 m 0.7968,5.9904 0.6432,5.9232 m -49.3056,-118.61766 3.3696,2.832 m 36.4992,67.52646 1.6896,6 m -25.5936,-58.88645 2.9088,4.3968 m -25.872,-26.36161 3.5328,2.0448 m -18.4224,-5.8848 h -230.0736 m -31.2864,383.72167 -1.344,12.7488 m -86.0557,-395.4771 -32.3229,87.52736 H 156.33414 m 64.52022,355.57985 -3.6864,-1.2 m 7.44,1.9392 -3.7536,-0.7392 m -62.1696,-114.0384 -0.7968,-5.9904 m 70.55041,121.0272 -3.83041,-0.2592 m -67.3632,-126.6912 -0.4704,-5.8176 m 46.4064,121.6032 -3.2928,-3.1776 m -27.312,-46.8288 -2.0928,-5.7312 m 11.7024,27.168 -2.5824,-5.088 m 8.0736,14.62084 -2.7936,-4.6464 m -5.28,-9.97444 -2.4576,-5.2896 m -8.6304,-22.6464 -1.8336,-5.9328 m 8.1216,23.1264 -2.2272,-5.6064 m -9.1392,-29.5776 -1.4112,-6.0864 m -1.2672,-6.0864 -1.1136,-6.0768 m 25.2384,74.15044 -2.6976,-4.88644 m 11.4048,18.048 -3.0048,-4.11836 m -28.56,-71.03044 -1.2672,-6.0864 m 35.9328,85.0656 -3.1008,-3.8304 m 12.96,13.3536 -3.3696,-2.832 m -45.2928,-109.8624 -0.6432,-5.9232 m 56.304,123.1104 -3.5328,-2.0448 m -39.5328,-61.0176 -1.968,-5.856 m 31.3728,58.416 -3.1968,-3.5136 m 13.3248,11.9712 -3.4656,-2.448 m 21.88801,8.3328 h 230.07364 m -281.36645,-50.112 -2.3424,-5.4528 m -18.0288,-77.2032 -0.3072,-5.7024 m 8.5248,53.7792 -1.5552,-6.0576 m 329.00165,-318.45121 -95.904,-34.9056 m -179.36645,441.90721 -3.6192,-1.6416 m -46.8672,-74.8512 -1.6896,-6 m -8.5248,-53.7792 -0.1248,-5.568 m 334.80005,-252.43201 1.296,-12.7296 m -332.79365,300.20161 -0.96,-6.0384 m 31.9008,89.23204 -2.9088,-4.3968 m -31.3344,-113.83684 -0.008,-212.53985 m 333.46425,-27.14336 1.344,-12.7488 m -4.1182,38.2464 1.4016,-12.7488 m -4.2624,38.2752 1.44,-12.768 m -20.3428,191.83681 1.1136,-12.7968 m 19.2288,-179.04001 1.4208,-12.7584 m -5.7696,51.0624 1.4592,-12.768 m -18.4896,179.10721 1.0368,-12.8064 m -6.432,115.248 0.336,-12.8064 m 29.2608,-319.78561 1.3728,-12.7488 m -17.1072,153.28321 1.3824,-12.7968 m -14.9088,192.048 0.4416,-12.7968 m 17.2992,-204.82561 1.44,-12.7872 m -6.9984,63.96481 1.344,-12.8064 m 10.0224,-89.49121 1.4496,-12.768 m -4.368,38.3136 1.4592,-12.7776 m -20.4576,217.56481 0.7296,-12.8064 m -3.0144,102.4032 -0.019,-12.7872 m 7.8816,-153.6384 1.1712,-12.8064 m -5.2032,64.0224 0.9024,-12.8064 m -4.752,115.2288 0.1056,-12.79676 m 16.8768,-230.43844 1.4304,-12.78721 m -2.8322,25.57441 1.4016,-12.7872 m -6.7104,63.984 1.2576,-12.7968 m -9.8688,128.0448 0.6432,-12.8064 m 17.5488,-192.00001 1.4496,-12.7872 m -21.1968,268.80005 0.2304,-12.79684 m 8.7168,-140.8512 1.2192,-12.8064 m -7.2384,89.6352 0.816,-12.8064 m 7.68,-89.6256 1.3248,-12.7968 m -8.1024,89.616 0.9792,-12.8064 m -4.6176,76.8384 0.5472,-12.8064 M 340.08061,647.89609 H 146.31363 m 0,0 0.1152,-81.0912 m 193.68958,0.096 -193.68958,-0.096 m 202.53118,73.8144 0.1344,-0.8832 m -0.6528,2.5728 0.2976,-0.8352 m -2.9184,4.3776 0.6624,-0.6048 m -1.3824,1.1328 0.72,-0.528 m -5.7408,2.0448 0.8928,-0.0384 m 5.5104,-2.6112 0.6048,-0.6624 m 0,0 0.528,-0.72 m 1.4784,-4.128 0.038,-0.8928 m -0.3936,2.6304 0.2208,-0.8544 m -0.8928,2.4864 0.3744,-0.7968 m -4.0992,4.5216 0.7584,-0.4512 m -2.3904,1.1328 0.8352,-0.3072 m -1.6896,0.5184 0.8544,-0.2112 m 4.9056,-3.648 0.4512,-0.7584 m -4.5216,4.0992 0.7968,-0.3744 m -3.3696,1.0272 0.8832,-0.1344 m 6.2496,-76.032 0.3744,0.7968 m 0.6816,3.4656 -0.038,62.8896 m 0.01,-63.7824 0.038,0.8928 m -0.1728,-1.776 0.1344,0.8832 m -0.3552,-1.7376 0.2208,0.8544 m -0.5184,-1.6896 0.2976,0.8352 m -1.1232,-2.3904 0.4512,0.7584 m -0.9792,-1.4784 0.528,0.72 m -1.1328,-1.3824 0.6048,0.6624 m -1.2672,-1.2672 0.6624,0.6048 m -1.3824,-1.1328 0.72,0.528 m -1.4784,-0.9792 0.7584,0.4512 m -1.5552,-0.8256 0.7968,0.3744 m -2.4864,-0.8928 0.8544,0.2112 m -2e-4,0 0.8352,0.3072 m -2.5732,-0.6528 0.8832,0.1344 m -1.7754,-0.1728 0.8928,0.0384 m 160.0397,-261.58812 -1.3824,-12.7968 m -14.352,-127.73761 -1.3728,-12.7488 m 4.1952,38.256 -1.4208,-12.7584 m 7.2288,63.84 -1.4592,-12.7776 m 22.0896,255.97441 -0.4416,-12.7968 m -27.4176,-294.24001 -1.4016,-12.7488 m 11.52,102.1632 -1.44,-12.7872 m -5.8176,-51.1008 -1.44,-12.768 m 4.3488,38.304 -1.4592,-12.768 m 17.4528,166.30081 -1.1136,-12.7968 m 2.1504,25.6032 -1.0368,-12.8064 m 6.432,115.248 -0.336,-12.8064 m -12.1824,-166.4448 -1.344,-12.8064 m -10.0224,-89.49121 -1.4496,-12.768 m 25.5648,307.11366 -0.2304,-12.79685 m -15.2448,-204.8544 -1.4016,-12.7872 m -2.8704,-25.57441 -1.4496,-12.7872 m 9.7728,89.54881 -1.3248,-12.7968 m 10.5504,128.0352 -0.7296,-12.8064 m 1.3728,25.6128 -0.6432,-12.8064 m 2.2848,89.59686 0.019,-12.7872 m -3.0336,-89.61606 -0.816,-12.8064 m -4.032,-51.216 -1.1712,-12.8064 m 0,0 -1.2192,-12.8064 m 9.1584,128.0544 -0.5472,-12.8064 m -8.6112,-115.248 -1.2576,-12.7968 m 7.68,89.6256 -0.9024,-12.8064 m 4.752,115.22886 -0.1056,-12.79681 m 62.064,-418.521694 240.192,-0.0384 m -306.9024,316.128044 -0.9792,-12.8064 m -11.2512,-115.2 -1.4304,-12.78721 m 313.4688,178.06081 1.4112,-6.0864 m -41.1552,85.67046 3.2928,-3.1776 m 41.2032,-100.69446 0.7968,-5.9904 m -66.72,120.76806 3.7536,-0.7392 m 48.2784,-60.17286 2.0928,-5.7312 m -11.7024,27.168 2.5728,-5.088 m -41.2416,43.82406 3.6864,-1.2 m 59.9232,-124.75206 0.4704,-5.8176 m -5.2512,35.9328 1.2672,-6.0864 m -67.68,102.92166 3.8304,-0.2592 m 36.9312,-29.94251 2.7936,-4.64635 m 5.2704,-9.9744 2.4672,-5.2896 m -7.7376,15.264 2.6976,-4.8864 m 13.6704,-33.024 1.8336,-5.9328 m -8.1216,23.1264 2.2272,-5.6064 m -21.0144,39.48475 3.0048,-4.1184 m 29.8272,-77.11675 1.1136,-6.0768 m -17.5008,58.8864 2.3424,-5.4528 m -35.2128,49.68006 3.4656,-2.448 m 36.0672,-58.56966 1.968,-5.856 m 12.1728,-71.28 V 91.645526 m -334.8,47.673634 -1.296,-12.72964 m 292.5504,394.85761 3.1968,-3.51361 m 31.6992,-66.83515 1.5552,-6.0576 m 6.6624,-42.0192 0.3072,-5.7024 m -60.7008,136.27206 3.6192,-1.6416 m 57.0816,-134.63046 0.1248,-5.568 m -336.096,-265.16165 95.904,-34.905594 m 199.8432,426.249594 3.1008,-3.8304 m 33.9456,-87.31195 0.96,-6.0384 m 0.7968,-5.9904 0.6432,-5.9232 m -49.3056,118.61766 3.3696,-2.832 m 36.4992,-67.52646 1.6896,-6 m -25.5936,58.88645 2.9088,-4.3968 m -25.872,26.36161 3.5328,-2.0448 m -18.4224,5.8848 h -230.0736 m -31.2864,-383.72167 -1.344,-12.7488 m -86.0557,395.4771 -32.3229,-87.52736 H 156.33414 m 64.52022,-355.579886 -3.6864,1.2 m 7.44,-1.9392 -3.7536,0.7392 m -62.1696,114.038436 -0.7968,5.9904 m 70.55041,-121.027236 -3.83041,0.2592 m -67.3632,126.691236 -0.4704,5.8176 m 46.4064,-121.60324 -3.2928,3.1776 m -27.312,46.82884 -2.0928,5.7312 m 11.7024,-27.168 -2.5824,5.088 m 8.0736,-14.62084 -2.7936,4.6464 m -5.28,9.97444 -2.4576,5.2896 m -8.6304,22.6464 -1.8336,5.9328 m 8.1216,-23.1264 -2.2272,5.6064 m -9.1392,29.5776 -1.4112,6.0864 m -1.2672,6.0864 -1.1136,6.0768 m 25.2384,-74.15044 -2.6976,4.88644 m 11.4048,-18.04804 -3.0048,4.1184 m -28.56,71.03044 -1.2672,6.0864 m 35.9328,-85.06564 -3.1008,3.8304 m 12.96,-13.353596 -3.3696,2.831996 m -45.2928,109.86244 -0.6432,5.9232 m 56.304,-123.110436 -3.5328,2.0448 m -39.5328,61.017636 -1.968,5.856 m 31.3728,-58.41604 -3.1968,3.5136 m 13.3248,-11.971196 -3.4656,2.448 m 21.88801,-8.3328 h 230.07364 m -281.36645,50.112036 -2.3424,5.4528 m -18.0288,77.2032 -0.3072,5.7024 m 8.5248,-53.7792 -1.5552,6.0576 m 329.00165,318.45121 -95.904,34.9056 M 217.16796,92.889014 l -3.6192,1.6416 m -46.8672,74.851236 -1.6896,6 m -8.5248,53.7792 -0.1248,5.568 m 334.80005,252.43201 1.296,12.7296 m -332.79365,-300.20161 -0.96,6.0384 m 31.9008,-89.23204 -2.9088,4.3968 m -31.3344,113.83684 -0.008,212.53985 m 333.46425,27.14336 1.344,12.7488 m -4.1182,-38.2464 1.4016,12.7488 m -4.2624,-38.2752 1.44,12.768 m -20.3428,-191.83681 1.1136,12.7968 m 19.2288,179.04001 1.4208,12.7584 m -5.7696,-51.0624 1.4592,12.768 m -18.4896,-179.10721 1.0368,12.8064 m -6.432,-115.248 0.336,12.8064 m 29.2608,319.78561 1.3728,12.7488 m -17.1072,-153.28321 1.3824,12.7968 m -14.9088,-192.048 0.4416,12.7968 m 17.2992,204.82561 1.44,12.7872 m -6.9984,-63.96481 1.344,12.8064 m 10.0224,89.49121 1.4496,12.768 m -4.368,-38.3136 1.4592,12.7776 m -20.4576,-217.56481 0.7296,12.8064 m -3.0144,-102.403236 -0.019,12.787196 m 7.8816,153.63844 1.1712,12.8064 m -5.2032,-64.0224 0.9024,12.8064 m -4.752,-115.22884 0.1056,12.7968 m 16.8768,230.43844 1.4304,12.78721 m -2.8322,-25.57441 1.4016,12.7872 m -6.7104,-63.984 1.2576,12.7968 m -9.8688,-128.0448 0.6432,12.8064 m 17.5488,192.00001 1.4496,12.7872 m -21.1968,-268.80005 0.2304,12.79684 m 8.7168,140.8512 1.2192,12.8064 m -7.2384,-89.6352 0.816,12.8064 m 7.68,89.6256 1.3248,12.7968 m -8.1024,-89.616 0.9792,12.8064 m -4.6176,-76.8384 0.5472,12.8064 m -120.073,299.53261 H 146.31363 m 0,0 0.1152,81.0912 m 193.68958,-0.096 -193.68958,0.096 m 202.53118,-73.8144 0.1344,0.8832 m -0.6528,-2.5728 0.2976,0.8352 m -2.9184,-4.3776 0.6624,0.6048 m -1.3824,-1.1328 0.72,0.528 m -5.7408,-2.0448 0.8928,0.0384 m 5.5104,2.6112 0.6048,0.6624 m 0,0 0.528,0.72 m 1.4784,4.128 0.038,0.8928 m -0.3936,-2.6304 0.2208,0.8544 m -0.8928,-2.4864 0.3744,0.7968 m -4.0992,-4.5216 0.7584,0.4512 m -2.3904,-1.1328 0.8352,0.3072 m -1.6896,-0.5184 0.8544,0.2112 m 4.9056,3.648 0.4512,0.7584 m -4.5216,-4.0992 0.7968,0.3744 m -3.3696,-1.0272 0.8832,0.1344 m 6.2496,76.032 0.3744,-0.7968 m 0.6816,-3.4656 -0.038,-62.8896 m 0.01,63.7824 0.038,-0.8928 m -0.1728,1.776 0.1344,-0.8832 m -0.3552,1.7376 0.2208,-0.8544 m -0.5184,1.6896 0.2976,-0.8352 m -1.1232,2.3904 0.4512,-0.7584 m -0.9792,1.4784 0.528,-0.72 m -1.1328,1.3824 0.6048,-0.6624 m -1.2672,1.2672 0.6624,-0.6048 m -1.3824,1.1328 0.72,-0.528 m -1.4784,0.9792 0.7584,-0.4512 m -1.5552,0.8256 0.7968,-0.3744 m -2.4864,0.8928 0.8544,-0.2112 m -2e-4,0 0.8352,-0.3072 m -2.5732,0.6528 0.8832,-0.1344 m -1.7754,0.1728 0.8928,-0.0384 m 885.41159,261.58808 -1.3824,12.7968 m -14.352,127.73761 -1.3728,12.7488 m 4.1952,-38.256 -1.4208,12.7584 m 7.2288,-63.84 -1.4592,12.7776 m 22.0896,-255.97441 -0.4416,12.7968 m -27.4176,294.24001 -1.4016,12.7488 m 11.52,-102.1632 -1.44,12.7872 m -5.8176,51.1008 -1.44,12.768 m 4.3488,-38.304 -1.4592,12.768 m 17.4528,-166.30081 -1.1136,12.7968 m 2.1504,-25.6032 -1.0368,12.8064 m 6.432,-115.248 -0.336,12.8064 m -12.1824,166.4448 -1.344,12.8064 m -10.0224,89.49121 -1.4496,12.768 m 25.5648,-307.11366 -0.2304,12.79685 m -15.2448,204.8544 -1.4016,12.7872 m -2.8704,25.57441 -1.4496,12.7872 m 9.7728,-89.54881 -1.3248,12.7968 m 10.5504,-128.0352 -0.7296,12.8064 m 1.3728,-25.6128 -0.6432,12.8064 m 2.2848,-89.59686 0.019,12.7872 m -3.0336,89.61606 -0.816,12.8064 m -4.032,51.216 -1.1712,12.8064 m 0,0 -1.2192,12.8064 m 9.1584,-128.0544 -0.5472,12.8064 m -8.6112,115.248 -1.2576,12.7968 m 7.68,-89.6256 -0.9024,12.8064 m 4.752,-115.22886 -0.1056,12.79681 m 62.064,418.52161 240.192,0.038 m -306.9024,-316.12796 -0.9792,12.8064 m -11.2512,115.2 -1.4304,12.78721 m 313.4688,-178.06081 1.4112,6.0864 m -41.1552,-85.67046 3.2928,3.1776 m 41.2032,100.69446 0.7968,5.9904 m -66.72,-120.76806 3.7536,0.7392 m 48.2784,60.17286 2.0928,5.7312 m -11.7024,-27.168 2.5728,5.088 m -41.2416,-43.82406 3.6864,1.2 m 59.9232,124.75206 0.4704,5.8176 m -5.2512,-35.9328 1.2672,6.0864 m -67.68,-102.92166 3.8304,0.2592 m 36.9312,29.94251 2.7936,4.64635 m 5.2704,9.9744 2.4672,5.2896 m -7.7376,-15.264 2.6976,4.8864 m 13.6704,33.024 1.8336,5.9328 m -8.1216,-23.1264 2.2272,5.6064 m -21.0144,-39.48475 3.0048,4.1184 m 29.8272,77.11675 1.1136,6.0768 m -17.5008,-58.8864 2.3424,5.4528 m -35.2128,-49.68006 3.4656,2.448 m 36.0672,58.56966 1.968,5.856 m 12.1728,71.28 v 300.10556 m -334.8,-47.67355 -1.296,12.72964 m 292.5504,-394.85761 3.1968,3.51361 m 31.6992,66.83515 1.5552,6.0576 m 6.6624,42.0192 0.3072,5.7024 m -60.7008,-136.27206 3.6192,1.6416 m 57.0816,134.63046 0.1248,5.568 m -336.096,265.16165 95.904,34.90551 m 199.8432,-426.24951 3.1008,3.8304 m 33.9456,87.31195 0.96,6.0384 m 0.7968,5.9904 0.6432,5.9232 m -49.3056,-118.61766 3.3696,2.832 m 36.4992,67.52646 1.6896,6 m -25.5936,-58.88645 2.9088,4.3968 m -25.872,-26.36161 3.5328,2.0448 m -18.4224,-5.8848 h -230.0736 m -31.2864,383.72167 -1.344,12.7488 m -86.0557,-395.4771 -32.3229,87.52736 H 881.70603 m 64.52022,355.57989 -3.6864,-1.2 m 7.44,1.9392 -3.7536,-0.7392 m -62.1696,-114.03844 -0.7968,-5.9904 m 70.55041,121.02724 -3.83041,-0.2592 m -67.3632,-126.69124 -0.4704,-5.8176 m 46.4064,121.60324 -3.2928,-3.1776 m -27.312,-46.82884 -2.0928,-5.7312 m 11.7024,27.168 -2.5824,-5.088 m 8.0736,14.62084 -2.7936,-4.6464 m -5.28,-9.97444 -2.4576,-5.2896 m -8.6304,-22.6464 -1.8336,-5.9328 m 8.1216,23.1264 -2.2272,-5.6064 m -9.1392,-29.5776 -1.4112,-6.0864 m -1.2672,-6.0864 -1.1136,-6.0768 m 25.2384,74.15044 -2.6976,-4.88644 m 11.4048,18.04804 -3.0048,-4.1184 m -28.56,-71.03044 -1.2672,-6.0864 m 35.9328,85.06564 -3.1008,-3.8304 m 12.96,13.3536 -3.3696,-2.832 m -45.2928,-109.86244 -0.6432,-5.9232 m 56.304,123.11044 -3.5328,-2.0448 m -39.5328,-61.01764 -1.968,-5.856 m 31.3728,58.41604 -3.1968,-3.5136 m 13.3248,11.9712 -3.4656,-2.448 m 21.88801,8.3328 h 230.07364 m -281.36645,-50.11204 -2.3424,-5.4528 m -18.0288,-77.2032 -0.3072,-5.7024 m 8.5248,53.7792 -1.5552,-6.0576 m 329.00165,-318.45121 -95.904,-34.9056 m -179.36645,441.90725 -3.6192,-1.6416 m -46.8672,-74.85124 -1.6896,-6 m -8.5248,-53.7792 -0.1248,-5.568 m 334.80005,-252.43201 1.296,-12.7296 m -332.79365,300.20161 -0.96,-6.0384 m 31.9008,89.23204 -2.9088,-4.3968 m -31.3344,-113.83684 -0.008,-212.53985 m 333.46425,-27.14336 1.344,-12.7488 m -4.1182,38.2464 1.4016,-12.7488 m -4.2624,38.2752 1.44,-12.768 m -20.3428,191.83681 1.1136,-12.7968 m 19.2288,-179.04001 1.4208,-12.7584 m -5.7696,51.0624 1.4592,-12.768 m -18.4896,179.10721 1.0368,-12.8064 m -6.432,115.248 0.336,-12.8064 m 29.2608,-319.78561 1.3728,-12.7488 m -17.1072,153.28321 1.3824,-12.7968 m -14.9088,192.048 0.4416,-12.7968 m 17.2992,-204.82561 1.44,-12.7872 m -6.9984,63.96481 1.344,-12.8064 m 10.0224,-89.49121 1.4496,-12.768 m -4.368,38.3136 1.4592,-12.7776 m -20.4576,217.56481 0.7296,-12.8064 m -3.0144,102.40324 -0.019,-12.7872 m 7.8816,-153.63844 1.1712,-12.8064 m -5.2032,64.0224 0.9024,-12.8064 m -4.752,115.22884 0.1056,-12.7968 m 16.8768,-230.43844 1.4304,-12.78721 m -2.8322,25.57441 1.4016,-12.7872 m -6.7104,63.984 1.2576,-12.7968 m -9.8688,128.0448 0.6432,-12.8064 m 17.5488,-192.00001 1.4496,-12.7872 m -21.1968,268.80005 0.2304,-12.79684 m 8.7168,-140.8512 1.2192,-12.8064 m -7.2384,89.6352 0.816,-12.8064 m 7.68,-89.6256 1.3248,-12.7968 m -8.1024,89.616 0.9792,-12.8064 m -4.6176,76.8384 0.5472,-12.8064 M 1065.4525,647.89605 H 871.68552 m 0,0 0.1152,-81.0912 m 193.68958,0.096 -193.68958,-0.096 m 202.53118,73.8144 0.1344,-0.8832 m -0.6528,2.5728 0.2976,-0.8352 m -2.9184,4.3776 0.6624,-0.6048 m -1.3824,1.1328 0.72,-0.528 m -5.7408,2.0448 0.8928,-0.0384 m 5.5104,-2.6112 0.6048,-0.6624 m 0,0 0.528,-0.72 m 1.4784,-4.128 0.038,-0.8928 m -0.3936,2.6304 0.2208,-0.8544 m -0.8928,2.4864 0.3744,-0.7968 m -4.0992,4.5216 0.7584,-0.4512 m -2.3904,1.1328 0.8352,-0.3072 m -1.6896,0.5184 0.8544,-0.2112 m 4.9056,-3.648 0.4512,-0.7584 m -4.5216,4.0992 0.7968,-0.3744 m -3.3696,1.0272 0.8832,-0.1344 m 6.2496,-76.032 0.3744,0.7968 m 0.6816,3.4656 -0.038,62.8896 m 0.01,-63.7824 0.038,0.8928 m -0.1728,-1.776 0.1344,0.8832 m -0.3552,-1.7376 0.2208,0.8544 m -0.5184,-1.6896 0.2976,0.8352 m -1.1232,-2.3904 0.4512,0.7584 m -0.9792,-1.4784 0.528,0.72 m -1.1328,-1.3824 0.6048,0.6624 m -1.2672,-1.2672 0.6624,0.6048 m -1.3824,-1.1328 0.72,0.528 m -1.4784,-0.9792 0.7584,0.4512 m -1.5552,-0.8256 0.7968,0.3744 m -2.4864,-0.8928 0.8544,0.2112 m -2e-4,0 0.8352,0.3072 m -2.5732,-0.6528 0.8832,0.1344 m -1.7754,-0.1728 0.8928,0.0384 m 160.0397,-261.58812 -1.3824,-12.7968 m -14.352,-127.73761 -1.3728,-12.7488 m 4.1952,38.256 -1.4208,-12.7584 m 7.2288,63.84 -1.4592,-12.7776 m 22.0896,255.97441 -0.4416,-12.7968 m -27.4176,-294.24001 -1.4016,-12.7488 m 11.52,102.1632 -1.44,-12.7872 m -5.8176,-51.1008 -1.44,-12.768 m 4.3488,38.304 -1.4592,-12.768 m 17.4528,166.30081 -1.1136,-12.7968 m 2.1504,25.6032 -1.0368,-12.8064 m 6.432,115.248 -0.336,-12.8064 m -12.1824,-166.4448 -1.344,-12.8064 m -10.0224,-89.49121 -1.4496,-12.768 m 25.5648,307.11366 -0.2304,-12.79685 m -15.2448,-204.8544 -1.4016,-12.7872 m -2.8704,-25.57441 -1.4496,-12.7872 m 9.7728,89.54881 -1.3248,-12.7968 m 10.5504,128.0352 -0.7296,-12.8064 m 1.3728,25.6128 -0.6432,-12.8064 m 2.2848,89.59686 0.019,-12.7872 m -3.0336,-89.61606 -0.816,-12.8064 m -4.032,-51.216 -1.1712,-12.8064 m 0,0 -1.2192,-12.8064 m 9.1584,128.0544 -0.5472,-12.8064 m -8.6112,-115.248 -1.2576,-12.7968 m 7.68,89.6256 -0.9024,-12.8064 m 4.752,115.22886 -0.1056,-12.79681 m 62.064,-418.521694 240.192,-0.0384 m -306.9024,316.128044 -0.9792,-12.8064 m -11.2512,-115.2 -1.4304,-12.78721 m 313.4688,178.06081 1.4112,-6.0864 m -41.1552,85.67046 3.2928,-3.1776 m 41.2032,-100.69446 0.7968,-5.9904 m -66.72,120.76806 3.7536,-0.7392 m 48.2784,-60.17286 2.0928,-5.7312 m -11.7024,27.168 2.5728,-5.088 m -41.2416,43.82406 3.6864,-1.2 m 59.9232,-124.75206 0.4704,-5.8176 m -5.2512,35.9328 1.2672,-6.0864 m -67.68,102.92166 3.8304,-0.2592 m 36.9312,-29.94251 2.7936,-4.64635 m 5.2704,-9.9744 2.4672,-5.2896 m -7.7376,15.264 2.6976,-4.8864 m 13.6704,-33.024 1.8336,-5.9328 m -8.1216,23.1264 2.2272,-5.6064 m -21.0144,39.48475 3.0048,-4.1184 m 29.8272,-77.11675 1.1136,-6.0768 m -17.5008,58.8864 2.3424,-5.4528 m -35.2128,49.68006 3.4656,-2.448 m 36.0672,-58.56966 1.968,-5.856 m 12.1728,-71.28 V 91.645486 m -334.8,47.673634 -1.296,-12.72964 m 292.5504,394.85761 3.1968,-3.51361 m 31.6992,-66.83515 1.5552,-6.0576 m 6.6624,-42.0192 0.3072,-5.7024 m -60.7008,136.27206 3.6192,-1.6416 m 57.0816,-134.63046 0.1248,-5.568 m -336.096,-265.16165 95.904,-34.905594 m 199.8432,426.249594 3.1008,-3.8304 m 33.9456,-87.31195 0.96,-6.0384 m 0.7968,-5.9904 0.6432,-5.9232 m -49.3056,118.61766 3.3696,-2.832 m 36.4992,-67.52646 1.6896,-6 m -25.5936,58.88645 2.9088,-4.3968 m -25.872,26.36161 3.5328,-2.0448 m -18.4224,5.8848 h -230.0736 m -31.2864,-383.72167 -1.344,-12.7488 m -86.0557,395.4771 -32.3229,-87.52736 H 881.70603 m 64.52022,-355.579886 -3.6864,1.2 m 7.44,-1.9392 -3.7536,0.7392 m -62.1696,114.038436 -0.7968,5.9904 m 70.55041,-121.027236 -3.83041,0.2592 m -67.3632,126.691236 -0.4704,5.8176 m 46.4064,-121.60324 -3.2928,3.1776 m -27.312,46.82884 -2.0928,5.7312 m 11.7024,-27.168 -2.5824,5.088 m 8.0736,-14.62084 -2.7936,4.6464 m -5.28,9.97444 -2.4576,5.2896 m -8.6304,22.6464 -1.8336,5.9328 m 8.1216,-23.1264 -2.2272,5.6064 m -9.1392,29.5776 -1.4112,6.0864 m -1.2672,6.0864 -1.1136,6.0768 m 25.2384,-74.15044 -2.6976,4.88644 m 11.4048,-18.04804 -3.0048,4.1184 m -28.56,71.03044 -1.2672,6.0864 m 35.9328,-85.06564 -3.1008,3.8304 m 12.96,-13.353596 -3.3696,2.831996 m -45.2928,109.86244 -0.6432,5.9232 m 56.304,-123.110436 -3.5328,2.0448 m -39.5328,61.017636 -1.968,5.856 m 31.3728,-58.41604 -3.1968,3.5136 m 13.3248,-11.971196 -3.4656,2.448 m 21.88801,-8.3328 h 230.07364 m -281.36645,50.112036 -2.3424,5.4528 m -18.0288,77.2032 -0.3072,5.7024 m 8.5248,-53.7792 -1.5552,6.0576 m 329.00165,318.45121 -95.904,34.9056 M 942.53985,92.888974 l -3.6192,1.6416 m -46.8672,74.851236 -1.6896,6 m -8.5248,53.7792 -0.1248,5.568 m 334.80005,252.43201 1.296,12.7296 m -332.79365,-300.20161 -0.96,6.0384 m 31.9008,-89.23204 -2.9088,4.3968 m -31.3344,113.83684 -0.008,212.53985 m 333.46425,27.14336 1.344,12.7488 m -4.1182,-38.2464 1.4016,12.7488 m -4.2624,-38.2752 1.44,12.768 m -20.3428,-191.83681 1.1136,12.7968 m 19.2288,179.04001 1.4208,12.7584 m -5.7696,-51.0624 1.4592,12.768 m -18.4896,-179.10721 1.0368,12.8064 m -6.432,-115.248 0.336,12.8064 m 29.2608,319.78561 1.3728,12.7488 m -17.1072,-153.28321 1.3824,12.7968 m -14.9088,-192.048 0.4416,12.7968 m 17.2992,204.82561 1.44,12.7872 m -6.9984,-63.96481 1.344,12.8064 m 10.0224,89.49121 1.4496,12.768 m -4.368,-38.3136 1.4592,12.7776 m -20.4576,-217.56481 0.7296,12.8064 m -3.0144,-102.403236 -0.019,12.787196 m 7.8816,153.63844 1.1712,12.8064 m -5.2032,-64.0224 0.9024,12.8064 m -4.752,-115.22884 0.1056,12.7968 m 16.8768,230.43844 1.4304,12.78721 m -2.8322,-25.57441 1.4016,12.7872 m -6.7104,-63.984 1.2576,12.7968 m -9.8688,-128.0448 0.6432,12.8064 m 17.5488,192.00001 1.4496,12.7872 m -21.1968,-268.80005 0.2304,12.79684 m 8.7168,140.8512 1.2192,12.8064 m -7.2384,-89.6352 0.816,12.8064 m 7.68,89.6256 1.3248,12.7968 m -8.1024,-89.616 0.9792,12.8064 m -4.6176,-76.8384 0.5472,12.8064 m -120.073,299.53261 H 871.68552 m 0,0 0.1152,81.0912 m 193.68958,-0.096 -193.68958,0.096 m 202.53118,-73.8144 0.1344,0.8832 m -0.6528,-2.5728 0.2976,0.8352 m -2.9184,-4.3776 0.6624,0.6048 m -1.3824,-1.1328 0.72,0.528 m -5.7408,-2.0448 0.8928,0.0384 m 5.5104,2.6112 0.6048,0.6624 m 0,0 0.528,0.72 m 1.4784,4.128 0.038,0.8928 m -0.3936,-2.6304 0.2208,0.8544 m -0.8928,-2.4864 0.3744,0.7968 m -4.0992,-4.5216 0.7584,0.4512 m -2.3904,-1.1328 0.8352,0.3072 m -1.6896,-0.5184 0.8544,0.2112 m 4.9056,3.648 0.4512,0.7584 m -4.5216,-4.0992 0.7968,0.3744 m -3.3696,-1.0272 0.8832,0.1344 m 6.2496,76.032 0.3744,-0.7968 m 0.6816,-3.4656 -0.038,-62.8896 m 0.01,63.7824 0.038,-0.8928 m -0.1728,1.776 0.1344,-0.8832 m -0.3552,1.7376 0.2208,-0.8544 m -0.5184,1.6896 0.2976,-0.8352 m -1.1232,2.3904 0.4512,-0.7584 m -0.9792,1.4784 0.528,-0.72 m -1.1328,1.3824 0.6048,-0.6624 m -1.2672,1.2672 0.6624,-0.6048 m -1.3824,1.1328 0.72,-0.528 m -1.4784,0.9792 0.7584,-0.4512 m -1.5552,0.8256 0.7968,-0.3744 m -2.4864,0.8928 0.8544,-0.2112 m -2e-4,0 0.8352,-0.3072 m -2.5732,0.6528 0.8832,-0.1344 m -1.7754,0.1728 0.8928,-0.0384" /></g><g
     inkscape:groupmode="layer"
     id="layer2"
     inkscape:label="カット1(R255G0B0)"
     style="display:inline"><path
       id="path8936"
       style="display:inline;fill:none;stroke:#ff0000;stroke-width:0.378;stroke-linecap:butt;stroke-linejoin:miter;stroke-miterlimit:4;stroke-dasharray:none;stroke-opacity:1"
       d="m 384.95681,168.04743 0.5184,0.6336 m -0.9024,-1.344 0.384,0.7104 m -0.6144,-1.488 0.2304,0.7776 m -0.3168,-1.5936 0.086,0.816 m 7.0282,-3.7632 -0.6336,-0.51839 m -3.9072,-0.384 -0.7104,0.384 m 4.6176,6.93119 0.6336,-0.528 m -5.8944,0 0.6432,0.528 m 4.6176,-6.93119 -0.72,-0.384 m -0.7776,-0.24 -0.816,-0.0768 m 3.4656,1.85279 -0.5184,-0.6336 m 0.9024,4.5408 0.24,-0.7776 m -0.624,1.488 0.384,-0.7104 m -3.0336,2.4864 0.7776,-0.24 m 2.5728,-3.84 -0.077,-0.816 m -0.24,-0.7776 -0.384,-0.72 m -3.4656,6.4704 0.816,-0.0768 m 0.7776,-0.24 0.72,-0.3744 m -6.1632,-5.0592 -0.2304,0.7776 m 1.1328,-2.1312 -0.5184,0.6336 m 6.4128,5.2512 0.5184,-0.6336 m -3.4656,-6.47039 -0.816,0.0768 m 4.9056,4.90559 0.077,-0.816 m -2.5728,-3.84959 -0.7776,-0.24 m -1.632,0 -0.7776,0.24 m -2.4864,3.03359 -0.086,0.816 m 1.8624,-3.46559 -0.6432,0.51839 m -0.5184,0.6336 -0.384,0.72 m 7.9392,0.7776 -0.24,-0.7776 m -5.4442,5.4336 0.7776,0.24 m -1.488,-0.6144 0.7104,0.3744 m 0.7776,0.24 0.816,0.0768 m -143.95204,0.048 0.816,-0.0768 m -4.2816,-6.3936 -0.384,0.72 m 6.7968,4.5312 0.5184,-0.6336 m -6.4128,-5.2512 -0.5184,0.6336 m 7.5552,1.4976 -0.24,-0.7776 m -2.256,5.4336 0.72,-0.3744 m 1.536,-1.872 0.24,-0.7776 m 0,0 0.0768,-0.816 m -1.8528,3.4656 0.6336,-0.528 m -6.7968,-4.5312 -0.2304,0.7776 m 7.5456,-1.4976 -0.5184,-0.6336 m 0.5184,5.2512 0.384,-0.7104 m -3.0336,2.4864 0.7776,-0.24 m 2.5728,-3.84 -0.0768,-0.816 m -8.1696,0 -0.0864,0.816 m 8.016,-1.5936 -0.384,-0.72 m -5.76918,-1.15199 -0.6432,0.51839 m 1.3536,-0.90239 -0.7104,0.384 m 1.488,-0.624 -0.7776,0.24 m 1.5942,-0.3168 -0.816,0.0768 m 3.76218,1.14239 -0.6336,-0.51839 m -0.72,-0.384 -0.7776,-0.24 m -4.9824,4.08959 0.0864,0.816 m 3.264,3.264 0.816,0.0768 m -1.5936,-0.3168 0.7776,0.24 m -1.488,-0.6144 0.7104,0.3744 m -1.3536,-0.9024 0.6432,0.528 m -1.1616,-1.1616 0.5184,0.6336 m -1.1328,-2.1216 0.2304,0.7776 m 4.6656,-5.68319 -0.816,-0.0768 m -3.8496,5.75999 0.384,0.7104 m 5.7792,-5.76959 -0.72,-0.384 m 191.06884,276.5184 0.086,-0.8448 m -3.36,4.1088 0.7872,-0.24 m 4e-4,0 0.7104,-0.3936 m 0,0 0.624,-0.5088 m 0.5184,-0.624 0.3744,-0.7104 m -0.8928,1.3344 0.5184,-0.624 m -3.4848,1.8528 0.8448,-0.0864 m 3.0144,-2.4768 0.2592,-0.7872 m 0.0866,-0.8448 -0.086,-0.8544 m -6.4608,4.3296 0.7104,0.3936 m -2.2368,-2.2368 0.3936,0.7104 m 7.3344,-3.984 -0.3744,-0.7104 m -1.8528,-1.5168 -0.7872,-0.2496 m -4.7136,2.4768 -0.24,0.7872 m 1.7664,-2.6304 -0.624,0.5088 m 1.3344,-0.8928 -0.7104,0.384 m -0.624,6.4512 0.624,0.5088 m -1.8624,-3.4752 0.096,0.8448 m -2e-4,-1.6992 -0.096,0.8544 m 4.2048,-4.2048 -0.8544,0.0864 m 0,0 -0.7776,0.2496 m 5.1168,1.5168 -0.5184,-0.624 m -0.624,-0.5088 -0.7104,-0.384 m 1.3344,0.8928 -0.624,-0.5088 m -5.3088,0.5088 -0.5088,0.624 m 7.5936,1.4976 -0.2592,-0.7872 m -4.7134,5.7504 0.8544,0.0864 m -4.1088,-3.3504 0.24,0.7872 m 0.3936,-3.984 -0.3936,0.7104 m 0.3936,3.984 0.5088,0.624 m 3.8116,-7.0848 -0.8448,-0.0864 m -1.632,8.0736 0.7776,0.24 m -230.40105,-0.6432 0.6336,-0.528 m -6.7968,-4.5312 -0.2304,0.7776 m 4.08,4.9728 0.816,-0.0768 m -4.2816,-6.3936 -0.384,0.72 m -0.3172,1.5936 0.0864,0.816 m 8.2468,-0.816 -0.0768,-0.816 m -7.9392,2.4096 0.384,0.7104 m 5.0592,1.536 0.72,-0.3744 m -6.3936,-2.6496 0.2304,0.7776 m 7.9392,-2.4096 -0.24,-0.7776 m -0.384,-0.72 -0.5184,-0.6336 m -7.0272,2.1312 -0.0864,0.816 m 0.7008,2.304 0.5184,0.6336 m 3.7632,1.1424 0.7776,-0.24 m -4.5408,-6.7872 -0.5184,0.6336 m 7.3148,0.72 -0.384,-0.72 m -2.64858,-1.77599 -0.816,-0.0768 m 3.8496,5.75999 0.24,-0.7776 m 0,0 0.0768,-0.816 m -1.2192,2.9376 0.5184,-0.6336 m -0.5186,-5.2512 -0.6336,-0.51839 m 1.152,5.76959 0.384,-0.7104 m -2.256,-5.44319 -0.7776,-0.24 m 1.4982,0.624 -0.72,-0.384 m -3.89862,7.31519 0.7104,0.3744 m 1.5936,-8.00639 -0.816,0.0768 m 0,8.16959 0.816,0.0768 m -2.304,-7.62239 -0.6432,0.51839 m 1.3536,-0.90239 -0.7104,0.384 m 0.7104,7.30559 0.7776,0.24 m -2.1312,-1.1424 0.6432,0.528 m 1.488,-7.55519 -0.7776,0.24 m 146.58565,143.10944 0.1152,-0.8544 m -8.6976,0.7776 0.2592,0.8256 m 0.4032,63.9648 0.5376,0.6624 m -0.9408,-1.4112 0.4032,0.7488 m 4.4928,-6.672 -0.8832,-0.0864 m 3.216,-61.9392 -0.077,-0.0768 m -1.5264,7.1904 0.768,-0.384 m -6.3936,-1.9968 0.4032,0.7488 m 8.0352,-2.352 v -0.1056 m -4.3968,-4.3872 -0.8832,0.0864 m 4.5984,1.9584 -0.528,-0.6816 m -4.0704,7.3248 0.8832,0.0864 m -4.3872,-4.3872 0.086,0.8832 m 8.3136,0.8928 0.2688,-0.816 m -1.7568,-4.5504 -0.7392,-0.4224 m -3.4944,8.0544 0.8256,0.2592 m 3.9168,-1.1232 0.077,-0.0768 m 0,-6.2016 -0.5856,-0.4896 m -4.2336,-0.4512 -0.7392,0.4032 m -1.8528,2.7552 -0.086,0.8832 m 7.9776,2.5248 0.4224,-0.7488 m -3.8976,-6.1632 h -0.1152 m 4.0992,2.8032 -0.384,-0.7584 m -3.7152,6.7296 0.7584,-0.0672 m -5.04,59.7888 0.24,0.816 m -0.3264,-1.6608 0.086,0.8448 m 5.952,-4.8576 -0.816,-0.2496 m 1.5552,0.6528 -0.7392,-0.4032 m 1.44,-56.1504 0.48,-0.576 m -2.6208,-6.8064 -0.8544,-0.1056 m -4.1568,2.6784 -0.2592,0.8256 m 6.0864,-3.1296 -0.816,-0.2688 m -1.8528,-0.0192 -0.8256,0.2592 m -1.392,0.9408 -0.5376,0.6432 m 7.968,1.6992 -0.2304,-0.8256 m -7.7376,-0.8736 -0.4032,0.7488 m 1.5936,-1.9296 -0.6528,0.5376 m 7.4976,3.1008 -0.067,-0.7584 m -6.7776,4.3968 0.7392,0.4032 m -1.9296,-1.584 0.5376,0.6432 m 5.4528,0.6048 0.6816,-0.528 m -2.2752,1.1424 0.8256,-0.2304 m -4.6848,-0.9888 0.6528,0.5376 m -1.584,57.9264 -0.2496,0.816 m 6.6912,4.4832 0.6432,-0.528 m -4.7424,0.9408 0.816,0.24 m 2.544,-0.2496 0.7392,-0.4032 m 1.5744,-1.9104 0.2496,-0.816 m 0,0 0.086,-0.8736 m -4.3488,-4.3488 -0.8736,0.0864 m -1.5552,0.6528 -0.6432,0.528 m 3.072,7.4208 0.8832,-0.0864 m -3.2928,-0.6432 0.7488,0.4032 m 5.2704,-6.4512 -0.528,-0.6432 m 0.528,5.5104 0.4032,-0.7392 m 0.2496,-2.5728 -0.2496,-0.816 m -0.9312,4.7712 0.528,-0.6432 m -7.2096,-4.8672 -0.4032,0.7392 m 3.1296,-2.5632 -0.816,0.2496 m 0.8448,8.2656 0.8448,0.0864 m 4.0128,-6.0384 -0.4032,-0.7392 m -5.2992,-1.5744 -0.7392,0.4032 m -0.6432,0.528 -0.528,0.6432 m 4.4832,6.6912 0.816,-0.2496 m 1.3824,-7.0848 -0.6432,-0.528 m -5.5104,6.6816 0.6624,0.5376 m -1.8432,-4.4928 -0.086,0.8832 m 8.688,0 -0.086,-0.8832 m 0.0478,-100.26165 0.1152,0.8544 m -8.6976,-0.7776 0.2592,-0.8256 m 0.4032,-63.9648 0.5376,-0.6624 m -0.9408,1.4112 0.4032,-0.7488 m 4.4928,6.672 -0.8832,0.0864 m 3.216,61.9392 -0.077,0.0768 m -1.5264,-7.1904 0.768,0.384 m -6.3936,1.9968 0.4032,-0.7488 m 8.0352,2.352 v 0.1056 m -4.3968,4.3872 -0.8832,-0.0864 m 4.5984,-1.9584 -0.528,0.6816 m -4.0704,-7.3248 0.8832,-0.0864 m -4.3872,4.3872 0.086,-0.8832 m 8.3136,-0.8928 0.2688,0.816 m -1.7568,4.5504 -0.7392,0.4224 m -3.4944,-8.0544 0.8256,-0.2592 m 3.9168,1.1232 0.077,0.0768 m 0,6.2016 -0.5856,0.4896 m -4.2336,0.4512 -0.7392,-0.4032 m -1.8528,-2.7552 -0.086,-0.8832 m 7.9776,-2.5248 0.4224,0.7488 m -3.8976,6.1632 h -0.1152 m 4.0992,-2.8032 -0.384,0.7584 m -3.7152,-6.7296 0.7584,0.0672 m -5.04,-59.7888 0.24,-0.816 m -0.3264,1.6608 0.086,-0.8448 m 5.952,4.8576 -0.816,0.2496 m 1.5552,-0.6528 -0.7392,0.4032 m 1.44,56.1504 0.48,0.576 m -2.6208,6.8064 -0.8544,0.1056 m -4.1568,-2.6784 -0.2592,-0.8256 m 6.0864,3.1296 -0.816,0.2688 m -1.8528,0.0192 -0.8256,-0.2592 m -1.392,-0.9408 -0.5376,-0.6432 m 7.968,-1.6992 -0.2304,0.8256 m -7.7376,0.8736 -0.4032,-0.7488 m 1.5936,1.9296 -0.6528,-0.5376 m 7.4976,-3.1008 -0.067,0.7584 m -6.7776,-4.3968 0.7392,-0.4032 m -1.9296,1.584 0.5376,-0.6432 m 5.4528,-0.6048 0.6816,0.528 m -2.2752,-1.1424 0.8256,0.2304 m -4.6848,0.9888 0.6528,-0.5376 m -1.584,-57.9264 -0.2496,-0.816 m 6.6912,-4.4832 0.6432,0.528 m -4.7424,-0.9408 0.816,-0.24 m 2.544,0.2496 0.7392,0.4032 m 1.5744,1.9104 0.2496,0.816 m 0,0 0.086,0.8736 m -4.3488,4.3488 -0.8736,-0.0864 m -1.5552,-0.6528 -0.6432,-0.528 m 3.072,-7.4208 0.8832,0.0864 m -3.2928,0.6432 0.7488,-0.4032 m 5.2704,6.4512 -0.528,0.6432 m 0.528,-5.5104 0.4032,0.7392 m 0.2496,2.5728 -0.2496,0.816 m -0.9312,-4.7712 0.528,0.6432 m -7.2096,4.8672 -0.4032,-0.7392 m 3.1296,2.5632 -0.816,-0.2496 m 0.8448,-8.2656 0.8448,-0.0864 m 4.0128,6.0384 -0.4032,0.7392 m -5.2992,1.5744 -0.7392,-0.4032 m -0.6432,-0.528 -0.528,-0.6432 m 4.4832,-6.6912 0.816,0.2496 m 1.3824,7.0848 -0.6432,0.528 m -5.5104,-6.6816 0.6624,-0.5376 m -1.8432,4.4928 -0.086,-0.8832 m 8.688,0 -0.086,0.8832 m 92.7422,199.83585 0.086,0.8448 m -3.36,-4.1088 0.7872,0.24 m 4e-4,0 0.7104,0.3936 m 0,0 0.624,0.5088 m 0.5184,0.624 0.3744,0.7104 m -0.8928,-1.3344 0.5184,0.624 m -3.4848,-1.8528 0.8448,0.0864 m 3.0144,2.4768 0.2592,0.7872 m 0.0866,0.8448 -0.086,0.8544 m -6.4608,-4.3296 0.7104,-0.3936 m -2.2368,2.2368 0.3936,-0.7104 m 7.3344,3.984 -0.3744,0.7104 m -1.8528,1.5168 -0.7872,0.2496 m -4.7136,-2.4768 -0.24,-0.7872 m 1.7664,2.6304 -0.624,-0.5088 m 1.3344,0.8928 -0.7104,-0.384 m -0.624,-6.4512 0.624,-0.5088 m -1.8624,3.4752 0.096,-0.8448 m -2e-4,1.6992 -0.096,-0.8544 m 4.2048,4.2048 -0.8544,-0.0864 m 0,0 -0.7776,-0.2496 m 5.1168,-1.5168 -0.5184,0.624 m -0.624,0.5088 -0.7104,0.384 m 1.3344,-0.8928 -0.624,0.5088 m -5.3088,-0.5088 -0.5088,-0.624 m 7.5936,-1.4976 -0.2592,0.7872 m -4.7134,-5.7504 0.8544,-0.0864 m -4.1088,3.3504 0.24,-0.7872 m 0.3936,3.984 -0.3936,-0.7104 m 0.3936,-3.984 0.5088,-0.624 m 3.8116,7.0848 -0.8448,0.0864 m -1.632,-8.0736 0.7776,-0.24 m -230.40105,0.64321 0.6336,0.52799 m -6.7968,4.5312 -0.2304,-0.7776 m 4.08,-4.97279 0.816,0.0768 m -4.2816,6.39359 -0.384,-0.72 m -0.3172,-1.5936 0.0864,-0.816 m 8.2468,0.816 -0.0768,0.816 m -7.9392,-2.4096 0.384,-0.7104 m 5.0592,-1.53599 0.72,0.3744 m -6.3936,2.64959 0.2304,-0.7776 m 7.9392,2.4096 -0.24,0.7776 m -0.384,0.72 -0.5184,0.6336 m -7.0272,-2.1312 -0.0864,-0.816 m 0.7008,-2.304 0.5184,-0.6336 m 3.7632,-1.14239 0.7776,0.24 m -4.5408,6.78719 -0.5184,-0.6336 m 7.3148,-0.72 -0.384,0.72 m -2.64858,1.776 -0.816,0.0768 m 3.8496,-5.76 0.24,0.7776 m 0,0 0.0768,0.816 m -1.2192,-2.9376 0.5184,0.6336 m -0.5186,5.2512 -0.6336,0.5184 m 1.152,-5.7696 0.384,0.7104 m -2.256,5.4432 -0.7776,0.24 m 1.4982,-0.624 -0.72,0.384 m -3.89862,-7.31519 0.7104,-0.3744 m 1.5936,8.00639 -0.816,-0.0768 m 0,-8.16959 0.816,-0.0768 m -2.304,7.62239 -0.6432,-0.5184 m 1.3536,0.9024 -0.7104,-0.384 m 0.7104,-7.30559 0.7776,-0.24 m -2.1312,1.14239 0.6432,-0.52799 m 1.488,7.55519 -0.7776,-0.24 m 187.10405,265.71841 0.5184,-0.6336 m -0.9024,1.344 0.384,-0.7104 m -0.6144,1.488 0.2304,-0.7776 m -0.3168,1.5936 0.086,-0.816 m 7.0282,3.7632 -0.6336,0.5184 m -3.9072,0.384 -0.7104,-0.384 m 4.6176,-6.93119 0.6336,0.52799 m -5.8944,0 0.6432,-0.52799 m 4.6176,6.93119 -0.72,0.384 m -0.7776,0.24 -0.816,0.0768 m 3.4656,-1.8528 -0.5184,0.6336 m 0.9024,-4.5408 0.24,0.7776 m -0.624,-1.488 0.384,0.7104 m -3.0336,-2.48639 0.7776,0.24 m 2.5728,3.83999 -0.077,0.816 m -0.24,0.7776 -0.384,0.72 m -3.4656,-6.47039 0.816,0.0768 m 0.7776,0.24 0.72,0.3744 m -6.1632,5.05919 -0.2304,-0.7776 m 1.1328,2.1312 -0.5184,-0.6336 m 6.4128,-5.2512 0.5184,0.6336 m -3.4656,6.4704 -0.816,-0.0768 m 4.9056,-4.9056 0.077,0.816 m -2.5728,3.8496 -0.7776,0.24 m -1.632,0 -0.7776,-0.24 m -2.4864,-3.0336 -0.086,-0.816 m 1.8624,3.4656 -0.6432,-0.5184 m -0.5184,-0.6336 -0.384,-0.72 m 7.9392,-0.7776 -0.24,0.7776 m -5.4442,-5.43359 0.7776,-0.24 m -1.488,0.6144 0.7104,-0.3744 m 0.7776,-0.24 0.816,-0.0768 m -143.95204,-0.048 0.816,0.0768 m -4.2816,6.39359 -0.384,-0.72 m 6.7968,-4.5312 0.5184,0.6336 m -6.4128,5.2512 -0.5184,-0.6336 m 7.5552,-1.4976 -0.24,0.7776 m -2.256,-5.43359 0.72,0.3744 m 1.536,1.87199 0.24,0.7776 m 0,0 0.0768,0.816 m -1.8528,-3.46559 0.6336,0.52799 m -6.7968,4.5312 -0.2304,-0.7776 m 7.5456,1.4976 -0.5184,0.6336 m 0.5184,-5.2512 0.384,0.7104 m -3.0336,-2.48639 0.7776,0.24 m 2.5728,3.83999 -0.0768,0.816 m -8.1696,0 -0.0864,-0.816 m 8.016,1.5936 -0.384,0.72 m -5.76918,1.152 -0.6432,-0.5184 m 1.3536,0.9024 -0.7104,-0.384 m 1.488,0.624 -0.7776,-0.24 m 1.5942,0.3168 -0.816,-0.0768 m 3.76218,-1.1424 -0.6336,0.5184 m -0.72,0.384 -0.7776,0.24 m -4.9824,-4.0896 0.0864,-0.816 m 3.264,-3.26399 0.816,-0.0768 m -1.5936,0.3168 0.7776,-0.24 m -1.488,0.6144 0.7104,-0.3744 m -1.3536,0.90239 0.6432,-0.52799 m -1.1616,1.16159 0.5184,-0.6336 m -1.1328,2.1216 0.2304,-0.7776 m 4.6656,5.6832 -0.816,0.0768 m -3.8496,-5.76 0.384,-0.7104 m 5.7792,5.7696 -0.72,0.384 m 864.26473,-6.10562 0.5184,-0.6336 m -0.9024,1.344 0.384,-0.7104 m -0.6144,1.488 0.2304,-0.7776 m -0.3168,1.5936 0.086,-0.816 m 7.0282,3.7632 -0.6336,0.5184 m -3.9072,0.384 -0.7104,-0.384 m 4.6176,-6.93119 0.6336,0.52799 m -5.8944,0 0.6432,-0.52799 m 4.6176,6.93119 -0.72,0.384 m -0.7776,0.24 -0.816,0.0768 m 3.4656,-1.8528 -0.5184,0.6336 m 0.9024,-4.5408 0.24,0.7776 m -0.624,-1.488 0.384,0.7104 m -3.0336,-2.48639 0.7776,0.24 m 2.5728,3.83999 -0.077,0.816 m -0.24,0.7776 -0.384,0.72 m -3.4656,-6.47039 0.816,0.0768 m 0.7776,0.24 0.72,0.3744 m -6.1632,5.05919 -0.2304,-0.7776 m 1.1328,2.1312 -0.5184,-0.6336 m 6.4128,-5.2512 0.5184,0.6336 m -3.4656,6.4704 -0.816,-0.0768 m 4.9056,-4.9056 0.077,0.816 m -2.5728,3.8496 -0.7776,0.24 m -1.632,0 -0.7776,-0.24 m -2.4864,-3.0336 -0.086,-0.816 m 1.8624,3.4656 -0.6432,-0.5184 m -0.5184,-0.6336 -0.384,-0.72 m 7.9392,-0.7776 -0.24,0.7776 m -5.4442,-5.43359 0.7776,-0.24 m -1.488,0.6144 0.7104,-0.3744 m 0.7776,-0.24 0.816,-0.0768 m -143.95204,-0.048 0.816,0.0768 m -4.2816,6.39359 -0.384,-0.72 m 6.7968,-4.5312 0.5184,0.6336 m -6.4128,5.2512 -0.5184,-0.6336 m 7.5552,-1.4976 -0.24,0.7776 m -2.256,-5.43359 0.72,0.3744 m 1.536,1.87199 0.24,0.7776 m 0,0 0.0768,0.816 m -1.8528,-3.46559 0.6336,0.52799 m -6.7968,4.5312 -0.2304,-0.7776 m 7.5456,1.4976 -0.5184,0.6336 m 0.5184,-5.2512 0.384,0.7104 m -3.0336,-2.48639 0.7776,0.24 m 2.5728,3.83999 -0.0768,0.816 m -8.1696,0 -0.0864,-0.816 m 8.016,1.5936 -0.384,0.72 m -5.76918,1.152 -0.6432,-0.5184 m 1.3536,0.9024 -0.7104,-0.384 m 1.488,0.624 -0.7776,-0.24 m 1.5942,0.3168 -0.816,-0.0768 m 3.76218,-1.1424 -0.6336,0.5184 m -0.72,0.384 -0.7776,0.24 m -4.9824,-4.0896 0.0864,-0.816 m 3.264,-3.26399 0.816,-0.0768 m -1.5936,0.3168 0.7776,-0.24 m -1.488,0.6144 0.7104,-0.3744 m -1.3536,0.90239 0.6432,-0.52799 m -1.1616,1.16159 0.5184,-0.6336 m -1.1328,2.1216 0.2304,-0.7776 m 4.6656,5.6832 -0.816,0.0768 m -3.8496,-5.76 0.384,-0.7104 m 5.7792,5.7696 -0.72,0.384 m 138.89284,-784.92047 0.5184,0.6336 m -0.9024,-1.344 0.384,0.7104 m -0.6144,-1.488 0.2304,0.7776 m -0.3168,-1.5936 0.086,0.816 m 7.0282,-3.7632 -0.6336,-0.51839 m -3.9072,-0.384 -0.7104,0.384 m 4.6176,6.93119 0.6336,-0.528 m -5.8944,0 0.6432,0.528 m 4.6176,-6.93119 -0.72,-0.384 m -0.7776,-0.24 -0.816,-0.0768 m 3.4656,1.85279 -0.5184,-0.6336 m 0.9024,4.5408 0.24,-0.7776 m -0.624,1.488 0.384,-0.7104 m -3.0336,2.4864 0.7776,-0.24 m 2.5728,-3.84 -0.077,-0.816 m -0.24,-0.7776 -0.384,-0.72 m -3.4656,6.4704 0.816,-0.0768 m 0.7776,-0.24 0.72,-0.3744 m -6.1632,-5.0592 -0.2304,0.7776 m 1.1328,-2.1312 -0.5184,0.6336 m 6.4128,5.2512 0.5184,-0.6336 m -3.4656,-6.47039 -0.816,0.0768 m 4.9056,4.90559 0.077,-0.816 m -2.5728,-3.84959 -0.7776,-0.24 m -1.632,0 -0.7776,0.24 m -2.4864,3.03359 -0.086,0.816 m 1.8624,-3.46559 -0.6432,0.51839 m -0.5184,0.6336 -0.384,0.72 m 7.9392,0.7776 -0.24,-0.7776 m -5.4442,5.4336 0.7776,0.24 m -1.488,-0.6144 0.7104,0.3744 m 0.7776,0.24 0.816,0.0768 m -143.95204,0.048 0.816,-0.0768 m -4.2816,-6.3936 -0.384,0.72 m 6.7968,4.5312 0.5184,-0.6336 m -6.4128,-5.2512 -0.5184,0.6336 m 7.5552,1.4976 -0.24,-0.7776 m -2.256,5.4336 0.72,-0.3744 m 1.536,-1.872 0.24,-0.7776 m 0,0 0.0768,-0.816 m -1.8528,3.4656 0.6336,-0.528 m -6.7968,-4.5312 -0.2304,0.7776 m 7.5456,-1.4976 -0.5184,-0.6336 m 0.5184,5.2512 0.384,-0.7104 m -3.0336,2.4864 0.7776,-0.24 m 2.5728,-3.84 -0.0768,-0.816 m -8.1696,0 -0.0864,0.816 m 8.016,-1.5936 -0.384,-0.72 m -5.76918,-1.15199 -0.6432,0.51839 m 1.3536,-0.90239 -0.7104,0.384 m 1.488,-0.624 -0.7776,0.24 m 1.5942,-0.3168 -0.816,0.0768 m 3.76218,1.14239 -0.6336,-0.51839 m -0.72,-0.384 -0.7776,-0.24 m -4.9824,4.08959 0.0864,0.816 m 3.264,3.264 0.816,0.0768 m -1.5936,-0.3168 0.7776,0.24 m -1.488,-0.6144 0.7104,0.3744 m -1.3536,-0.9024 0.6432,0.528 m -1.1616,-1.1616 0.5184,0.6336 m -1.1328,-2.1216 0.2304,0.7776 m 4.6656,-5.68319 -0.816,-0.0768 m -3.8496,5.75999 0.384,0.7104 m 5.7792,-5.76959 -0.72,-0.384 m 191.06884,514.50765 0.086,0.8448 m -3.36,-4.1088 0.7872,0.24 m 4e-4,0 0.7104,0.3936 m 0,0 0.624,0.5088 m 0.5184,0.624 0.3744,0.7104 m -0.8928,-1.3344 0.5184,0.624 m -3.4848,-1.8528 0.8448,0.0864 m 3.0144,2.4768 0.2592,0.7872 m 0.087,0.8448 -0.086,0.8544 m -6.4608,-4.3296 0.7104,-0.3936 m -2.2368,2.2368 0.3936,-0.7104 m 7.3344,3.984 -0.3744,0.7104 m -1.8528,1.5168 -0.7872,0.2496 m -4.7136,-2.4768 -0.24,-0.7872 m 1.7664,2.6304 -0.624,-0.5088 m 1.3344,0.8928 -0.7104,-0.384 m -0.624,-6.4512 0.624,-0.5088 m -1.8624,3.4752 0.096,-0.8448 m -2e-4,1.6992 -0.096,-0.8544 m 4.2048,4.2048 -0.8544,-0.0864 m 0,0 -0.7776,-0.2496 m 5.1168,-1.5168 -0.5184,0.624 m -0.624,0.5088 -0.7104,0.384 m 1.3344,-0.8928 -0.624,0.5088 m -5.3088,-0.5088 -0.5088,-0.624 m 7.5936,-1.4976 -0.2592,0.7872 m -4.7134,-5.7504 0.8544,-0.0864 m -4.1088,3.3504 0.24,-0.7872 m 0.3936,3.984 -0.3936,-0.7104 m 0.3936,-3.984 0.5088,-0.624 m 3.8116,7.0848 -0.8448,0.0864 m -1.632,-8.0736 0.7776,-0.24 m 4.9718,-234.72525 0.086,-0.8448 m -3.36,4.1088 0.7872,-0.24 m 4e-4,0 0.7104,-0.3936 m 0,0 0.624,-0.5088 m 0.5184,-0.624 0.3744,-0.7104 m -0.8928,1.3344 0.5184,-0.624 m -3.4848,1.8528 0.8448,-0.0864 m 3.0144,-2.4768 0.2592,-0.7872 m 0.087,-0.8448 -0.086,-0.8544 m -6.4608,4.3296 0.7104,0.3936 m -2.2368,-2.2368 0.3936,0.7104 m 7.3344,-3.984 -0.3744,-0.7104 m -1.8528,-1.5168 -0.7872,-0.2496 m -4.7136,2.4768 -0.24,0.7872 m 1.7664,-2.6304 -0.624,0.5088 m 1.3344,-0.8928 -0.7104,0.384 m -0.624,6.4512 0.624,0.5088 m -1.8624,-3.4752 0.096,0.8448 m -2e-4,-1.6992 -0.096,0.8544 m 4.2048,-4.2048 -0.8544,0.0864 m 0,0 -0.7776,0.2496 m 5.1168,1.5168 -0.5184,-0.624 m -0.624,-0.5088 -0.7104,-0.384 m 1.3344,0.8928 -0.624,-0.5088 m -5.3088,0.5088 -0.5088,0.624 m 7.5936,1.4976 -0.2592,-0.7872 m -4.7134,5.7504 0.8544,0.0864 m -4.1088,-3.3504 0.24,0.7872 m 0.3936,-3.984 -0.3936,0.7104 m 0.3936,3.984 0.5088,0.624 m 3.8116,-7.0848 -0.8448,-0.0864 m -1.632,8.0736 0.7776,0.24 m -87.7226,135.15105 0.1152,-0.8544 m -8.6976,0.7776 0.2592,0.8256 m 0.4032,63.9648 0.5376,0.6624 m -0.9408,-1.4112 0.4032,0.7488 m 4.4928,-6.672 -0.8832,-0.0864 m 3.216,-61.9392 -0.077,-0.0768 m -1.5264,7.1904 0.768,-0.384 m -6.3936,-1.9968 0.4032,0.7488 m 8.0352,-2.352 v -0.1056 m -4.3968,-4.3872 -0.8832,0.0864 m 4.5984,1.9584 -0.528,-0.6816 m -4.0704,7.3248 0.8832,0.0864 m -4.3872,-4.3872 0.086,0.8832 m 8.3136,0.8928 0.2688,-0.816 m -1.7568,-4.5504 -0.7392,-0.4224 m -3.4944,8.0544 0.8256,0.2592 m 3.9168,-1.1232 0.077,-0.0768 m 0,-6.2016 -0.5856,-0.4896 m -4.2336,-0.4512 -0.7392,0.4032 m -1.8528,2.7552 -0.086,0.8832 m 7.9776,2.5248 0.4224,-0.7488 m -3.8976,-6.1632 h -0.1152 m 4.0992,2.8032 -0.384,-0.7584 m -3.7152,6.7296 0.7584,-0.0672 m -5.04,59.7888 0.24,0.816 m -0.3264,-1.6608 0.086,0.8448 m 5.952,-4.8576 -0.816,-0.2496 m 1.5552,0.6528 -0.7392,-0.4032 m 1.44,-56.1504 0.48,-0.576 m -2.6208,-6.8064 -0.8544,-0.1056 m -4.1568,2.6784 -0.2592,0.8256 m 6.0864,-3.1296 -0.816,-0.2688 m -1.8528,-0.0192 -0.8256,0.2592 m -1.392,0.9408 -0.5376,0.6432 m 7.968,1.6992 -0.2304,-0.8256 m -7.7376,-0.8736 -0.4032,0.7488 m 1.5936,-1.9296 -0.6528,0.5376 m 7.4976,3.1008 -0.067,-0.7584 m -6.7776,4.3968 0.7392,0.4032 m -1.9296,-1.584 0.5376,0.6432 m 5.4528,0.6048 0.6816,-0.528 m -2.2752,1.1424 0.8256,-0.2304 m -4.6848,-0.9888 0.6528,0.5376 m -1.584,57.9264 -0.2496,0.816 m 6.6912,4.4832 0.6432,-0.528 m -4.7424,0.9408 0.816,0.24 m 2.544,-0.2496 0.7392,-0.4032 m 1.5744,-1.9104 0.2496,-0.816 m 0,0 0.086,-0.8736 m -4.3488,-4.3488 -0.8736,0.0864 m -1.5552,0.6528 -0.6432,0.528 m 3.072,7.4208 0.8832,-0.0864 m -3.2928,-0.6432 0.7488,0.4032 m 5.2704,-6.4512 -0.528,-0.6432 m 0.528,5.5104 0.4032,-0.7392 m 0.2496,-2.5728 -0.2496,-0.816 m -0.9312,4.7712 0.528,-0.6432 m -7.2096,-4.8672 -0.4032,0.7392 m 3.1296,-2.5632 -0.816,0.2496 m 0.8448,8.2656 0.8448,0.0864 m 4.0128,-6.0384 -0.4032,-0.7392 m -5.2992,-1.5744 -0.7392,0.4032 m -0.6432,0.528 -0.528,0.6432 m 4.4832,6.6912 0.816,-0.2496 m 1.3824,-7.0848 -0.6432,-0.528 m -5.5104,6.6816 0.6624,0.5376 m -1.8432,-4.4928 -0.086,0.8832 m 8.688,0 -0.086,-0.8832 m 0.048,-100.26165 0.1152,0.8544 m -8.6976,-0.7776 0.2592,-0.8256 m 0.4032,-63.9648 0.5376,-0.6624 m -0.9408,1.4112 0.4032,-0.7488 m 4.4928,6.672 -0.8832,0.0864 m 3.216,61.9392 -0.077,0.0768 m -1.5264,-7.1904 0.768,0.384 m -6.3936,1.9968 0.4032,-0.7488 m 8.0352,2.352 v 0.1056 m -4.3968,4.3872 -0.8832,-0.0864 m 4.5984,-1.9584 -0.528,0.6816 m -4.0704,-7.3248 0.8832,-0.0864 m -4.3872,4.3872 0.086,-0.8832 m 8.3136,-0.8928 0.2688,0.816 m -1.7568,4.5504 -0.7392,0.4224 m -3.4944,-8.0544 0.8256,-0.2592 m 3.9168,1.1232 0.077,0.0768 m 0,6.2016 -0.5856,0.4896 m -4.2336,0.4512 -0.7392,-0.4032 m -1.8528,-2.7552 -0.086,-0.8832 m 7.9776,-2.5248 0.4224,0.7488 m -3.8976,6.1632 h -0.1152 m 4.0992,-2.8032 -0.384,0.7584 m -3.7152,-6.7296 0.7584,0.0672 m -5.04,-59.7888 0.24,-0.816 m -0.3264,1.6608 0.086,-0.8448 m 5.952,4.8576 -0.816,0.2496 m 1.5552,-0.6528 -0.7392,0.4032 m 1.44,56.1504 0.48,0.576 m -2.6208,6.8064 -0.8544,0.1056 m -4.1568,-2.6784 -0.2592,-0.8256 m 6.0864,3.1296 -0.816,0.2688 m -1.8528,0.0192 -0.8256,-0.2592 m -1.392,-0.9408 -0.5376,-0.6432 m 7.968,-1.6992 -0.2304,0.8256 m -7.7376,0.8736 -0.4032,-0.7488 m 1.5936,1.9296 -0.6528,-0.5376 m 7.4976,-3.1008 -0.067,0.7584 m -6.7776,-4.3968 0.7392,-0.4032 m -1.9296,1.584 0.5376,-0.6432 m 5.4528,-0.6048 0.6816,0.528 m -2.2752,-1.1424 0.8256,0.2304 m -4.6848,0.9888 0.6528,-0.5376 m -1.584,-57.9264 -0.2496,-0.816 m 6.6912,-4.4832 0.6432,0.528 m -4.7424,-0.9408 0.816,-0.24 m 2.544,0.2496 0.7392,0.4032 m 1.5744,1.9104 0.2496,0.816 m 0,0 0.086,0.8736 m -4.3488,4.3488 -0.8736,-0.0864 m -1.5552,-0.6528 -0.6432,-0.528 m 3.072,-7.4208 0.8832,0.0864 m -3.2928,0.6432 0.7488,-0.4032 m 5.2704,6.4512 -0.528,0.6432 m 0.528,-5.5104 0.4032,0.7392 m 0.2496,2.5728 -0.2496,0.816 m -0.9312,-4.7712 0.528,0.6432 m -7.2096,4.8672 -0.4032,-0.7392 m 3.1296,2.5632 -0.816,-0.2496 m 0.8448,-8.2656 0.8448,-0.0864 m 4.0128,6.0384 -0.4032,0.7392 m -5.2992,1.5744 -0.7392,-0.4032 m -0.6432,-0.528 -0.528,-0.6432 m 4.4832,-6.6912 0.816,0.2496 m 1.3824,7.0848 -0.6432,0.528 m -5.5104,-6.6816 0.6624,-0.5376 m -1.8432,4.4928 -0.086,-0.8832 m 8.688,0 -0.086,0.8832 m -142.63065,197.21505 0.6336,0.528 m -6.7968,4.5312 -0.2304,-0.7776 m 4.08,-4.9728 0.816,0.0768 m -4.2816,6.3936 -0.384,-0.72 m -0.3172,-1.5936 0.0864,-0.816 m 8.2468,0.816 -0.0768,0.816 m -7.9392,-2.4096 0.384,-0.7104 m 5.0592,-1.536 0.72,0.3744 m -6.3936,2.6496 0.2304,-0.7776 m 7.9392,2.4096 -0.24,0.7776 m -0.384,0.72 -0.5184,0.6336 m -7.0272,-2.1312 -0.0864,-0.816 m 0.7008,-2.304 0.5184,-0.6336 m 3.7632,-1.1424 0.7776,0.24 m -4.5408,6.7872 -0.5184,-0.6336 m 7.3148,-0.72 -0.384,0.72 m -2.64858,1.776 -0.816,0.0768 m 3.8496,-5.76 0.24,0.7776 m 0,0 0.0768,0.816 m -1.2192,-2.9376 0.5184,0.6336 m -0.5186,5.2512 -0.6336,0.5184 m 1.152,-5.7696 0.384,0.7104 m -2.256,5.4432 -0.7776,0.24 m 1.4982,-0.624 -0.72,0.384 m -3.89862,-7.3152 0.7104,-0.3744 m 1.5936,8.0064 -0.816,-0.0768 m 0,-8.1696 0.816,-0.0768 m -2.304,7.6224 -0.6432,-0.5184 m 1.3536,0.9024 -0.7104,-0.384 m 0.7104,-7.3056 0.7776,-0.24 m -2.1312,1.1424 0.6432,-0.528 m 1.488,7.5552 -0.7776,-0.24 m 3.9072,-240.06285 0.6336,-0.528 m -6.7968,-4.5312 -0.2304,0.7776 m 4.08,4.9728 0.816,-0.0768 m -4.2816,-6.3936 -0.384,0.72 m -0.3172,1.5936 0.0864,0.816 m 8.2468,-0.816 -0.0768,-0.816 m -7.9392,2.4096 0.384,0.7104 m 5.0592,1.536 0.72,-0.3744 m -6.3936,-2.6496 0.2304,0.7776 m 7.9392,-2.4096 -0.24,-0.7776 m -0.384,-0.72 -0.5184,-0.6336 m -7.0272,2.1312 -0.0864,0.816 m 0.7008,2.304 0.5184,0.6336 m 3.7632,1.1424 0.7776,-0.24 m -4.5408,-6.7872 -0.5184,0.6336 m 7.3148,0.72 -0.384,-0.72 m -2.64858,-1.776 -0.816,-0.0768 m 3.8496,5.76 0.24,-0.7776 m 0,0 0.0768,-0.816 m -1.2192,2.9376 0.5184,-0.6336 m -0.5186,-5.2512 -0.6336,-0.5184 m 1.152,5.7696 0.384,-0.7104 m -2.256,-5.4432 -0.7776,-0.24 m 1.4982,0.624 -0.72,-0.384 m -3.89862,7.3152 0.7104,0.3744 m 1.5936,-8.0064 -0.816,0.0768 m 0,8.1696 0.816,0.0768 m -2.304,-7.6224 -0.6432,0.5184 m 1.3536,-0.9024 -0.7104,0.384 m 0.7104,7.3056 0.7776,0.24 m -2.1312,-1.1424 0.6432,0.528 m 1.488,-7.5552 -0.7776,0.24 m -194.76914,216.36556 0.816,-0.0768 m -1.5936,0.3168 0.7776,-0.24 m -1.4976,0.624 0.72,-0.384 m -1.3536,0.9024 0.6336,-0.5184 m 48.1536,279.36961 -0.816,0.0768 m 1.5936,-0.3168 -0.7776,0.24 m 1.488,-0.6144 -0.7104,0.3744 m 1.3536,-0.9024 -0.6432,0.528 m -43.8624,-272.98561 -0.5184,0.6336 m 0.9024,-1.344 -0.384,0.7104 m 0.6144,-1.488 -0.2304,0.7776 m 0.3168,-1.5936 -0.086,0.816 m 43.248,267.54241 0.6432,0.5184 m -1.3536,-0.9024 0.7104,0.384 m -1.488,-0.624 0.7776,0.24 m -1.5936,-0.3168 0.816,0.0768 m -45.024,-263.65441 -0.816,0.0768 m 1.5936,-0.3168 -0.7776,0.24 m 1.488,-0.6144 -0.7104,0.3744 m 1.3536,-0.9024 -0.6432,0.528 m -145.43999,0.5664 -0.816,0.0768 m 1.5936,-0.3168 -0.7776,0.24 m 1.488,-0.6144 -0.7104,0.3744 m 1.3536,-0.9024 -0.6432,0.528 m -5.7696,-5.7792 0.5184,-0.6336 m -0.9024,1.3536 0.384,-0.72 m -0.624,1.4976 0.24,-0.7776 m -0.3168,1.5936 0.077,-0.816 m 3.2736,-3.2736 0.816,-0.0768 m -1.5936,0.3168 0.7776,-0.24 m -1.4976,0.624 0.72,-0.384 m -1.3536,0.9024 0.6336,-0.5184 m 4.6176,0 0.6432,0.5184 m -1.3536,-0.9024 0.7104,0.384 m -1.488,-0.624 0.7776,0.24 m -1.5936,-0.3168 0.816,0.0768 m -46.25281,271.84321 0.8448,-0.0864 m -1.632,0.336 0.7872,-0.2496 m -1.5072,0.6336 0.72,-0.384 m -1.3344,0.8928 0.6144,-0.5088 m -1.1328,1.1328 0.5184,-0.624 m -0.9024,1.3344 0.384,-0.7104 m -0.6336,1.4976 0.2496,-0.7872 m -0.336,1.6416 0.086,-0.8544 m 8.2272,0 0.086,0.8544 m -0.3264,-1.6416 0.24,0.7872 m -0.6336,-1.4976 0.3936,0.7104 m -0.9024,-1.3344 0.5088,0.624 m -1.1328,-1.1328 0.624,0.5088 m -1.3344,-0.8928 0.7104,0.384 m -1.4976,-0.6336 0.7872,0.2496 m -1.632,-0.336 0.8448,0.0864 m 39.65761,-266.93761 -0.077,-0.816 m 0.3168,1.5936 -0.24,-0.7776 m 0.624,1.488 -0.384,-0.7104 m 0.9024,1.344 -0.5184,-0.6336 m -40.28161,273.67681 -0.8448,0.0864 m 1.632,-0.3264 -0.7872,0.24 m 1.4976,-0.6336 -0.7104,0.3936 m 1.3344,-0.9024 -0.624,0.5088 m 1.1328,-1.1328 -0.5088,0.624 m 0.9024,-1.3344 -0.3936,0.7104 m 0.6336,-1.4976 -0.24,0.7872 m 0.3264,-1.632 -0.086,0.8448 m 225.3696,-0.0288 -0.077,-0.816 m 0.3168,1.5936 -0.24,-0.7776 m 0.624,1.488 -0.384,-0.7104 m 0.9024,1.344 -0.5184,-0.6336 m 2.6496,-6.3936 0.816,-0.0768 m -1.5936,0.3168 0.7776,-0.24 m -1.4976,0.624 0.72,-0.384 m -1.3536,0.9024 0.6336,-0.5184 m -188.97599,-264.94081 -0.6336,-0.528 m 1.3536,0.9024 -0.72,-0.3744 m 1.4976,0.6144 -0.7776,-0.24 m 1.5936,0.3168 -0.816,-0.0768 m 4.896,-4.896 0.086,0.816 m -0.3168,-1.5936 0.2304,0.7776 m -0.6144,-1.4976 0.384,0.72 m -0.9024,-1.3536 0.5184,0.6336 m 142.79039,-1.104 0.6432,0.5184 m -1.3536,-0.9024 0.7104,0.384 m -1.488,-0.624 0.7776,0.24 m -1.5936,-0.3168 0.816,0.0768 m 48.288,275.09761 0.086,0.816 m -0.3168,-1.5936 0.2304,0.7776 m -0.6144,-1.4976 0.384,0.72 m -0.9024,-1.3536 0.5184,0.6336 m -241.152,3.1584 -0.086,-0.8448 m 0.336,1.632 -0.2496,-0.7872 m 0.6336,1.4976 -0.384,-0.7104 m 0.9024,1.3344 -0.5184,-0.624 m 1.1328,1.1328 -0.6144,-0.5088 m 1.3344,0.9024 -0.72,-0.3936 m 1.5072,0.6336 -0.7872,-0.24 m 1.632,0.3264 -0.8448,-0.0864 m 187.0752,-272.46721 -0.6336,-0.528 m 1.3536,0.9024 -0.72,-0.3744 m 1.4976,0.6144 -0.7776,-0.24 m 1.5936,0.3168 -0.816,-0.0768 m -2.6496,-6.3936 0.5184,-0.6336 m -0.9024,1.3536 0.384,-0.72 m -0.624,1.4976 0.24,-0.7776 m -0.3168,1.5936 0.077,-0.816 m 45.648,270.32641 0.5184,-0.6336 m -0.9024,1.3536 0.384,-0.72 m -0.624,1.4976 0.24,-0.7776 m -0.3168,1.5936 0.077,-0.816 m -36.8544,-271.82401 0.086,0.816 m -0.3168,-1.5936 0.2304,0.7776 m -0.6144,-1.4976 0.384,0.72 m -0.9024,-1.3536 0.5184,0.6336 m -7.5552,3.1296 -0.077,-0.816 m 0.3168,1.5936 -0.24,-0.7776 m 0.624,1.488 -0.384,-0.7104 m 0.9024,1.344 -0.5184,-0.6336 m -137.02079,-0.048 -0.5184,0.6336 m 0.9024,-1.344 -0.384,0.7104 m 0.6144,-1.488 -0.2304,0.7776 m 0.3168,-1.5936 -0.086,0.816 m 182.58239,274.52161 -0.6336,-0.528 m 1.3536,0.9024 -0.72,-0.3744 m 1.4976,0.6144 -0.7776,-0.24 m 1.5936,0.3168 -0.816,-0.0768 m 4.2816,-1.776 -0.5184,0.6336 m 0.9024,-1.344 -0.384,0.7104 m 0.6144,-1.488 -0.2304,0.7776 m 0.3168,-1.5936 -0.086,0.816 m -49.92,-462.08264 0.816,0.0768 m -1.5936,-0.3168 0.7776,0.24 m -1.4976,-0.624 0.72,0.384 m -1.3536,-0.9024 0.6336,0.5184 m 48.1536,-279.36961 -0.816,-0.0768 m 1.5936,0.3168 -0.7776,-0.24 m 1.488,0.6144 -0.7104,-0.3744 m 1.3536,0.9024 -0.6432,-0.528 m -43.8624,272.98561 -0.5184,-0.6336 m 0.9024,1.344 -0.384,-0.7104 m 0.6144,1.488 -0.2304,-0.7776 m 0.3168,1.5936 -0.086,-0.816 m 43.248,-267.54241 0.6432,-0.5184 m -1.3536,0.9024 0.7104,-0.384 m -1.488,0.624 0.7776,-0.24 m -1.5936,0.3168 0.816,-0.0768 m -45.024,263.65441 -0.816,-0.0768 m 1.5936,0.3168 -0.7776,-0.24 m 1.488,0.6144 -0.7104,-0.3744 m 1.3536,0.9024 -0.6432,-0.528 m -145.43999,-0.5664 -0.816,-0.0768 m 1.5936,0.3168 -0.7776,-0.24 m 1.488,0.6144 -0.7104,-0.3744 m 1.3536,0.9024 -0.6432,-0.528 m -5.7696,5.7792 0.5184,0.6336 m -0.9024,-1.3536 0.384,0.72 m -0.624,-1.4976 0.24,0.7776 m -0.3168,-1.5936 0.077,0.816 m 3.2736,3.2736 0.816,0.0768 m -1.5936,-0.3168 0.7776,0.24 m -1.4976,-0.624 0.72,0.384 m -1.3536,-0.9024 0.6336,0.5184 m 4.6176,0 0.6432,-0.5184 m -1.3536,0.9024 0.7104,-0.384 m -1.488,0.624 0.7776,-0.24 m -1.5936,0.3168 0.816,-0.0768 m -46.25281,-271.84321 0.8448,0.0864 m -1.632,-0.336 0.7872,0.2496 m -1.5072,-0.6336 0.72,0.384 m -1.3344,-0.8928 0.6144,0.5088 m -1.1328,-1.1328 0.5184,0.624 m -0.9024,-1.3344 0.384,0.7104 m -0.6336,-1.4976 0.2496,0.7872 m -0.336,-1.6416 0.086,0.8544 m 8.2272,0 0.086,-0.8544 m -0.3264,1.6416 0.24,-0.7872 m -0.6336,1.4976 0.3936,-0.7104 m -0.9024,1.3344 0.5088,-0.624 m -1.1328,1.1328 0.624,-0.5088 m -1.3344,0.8928 0.7104,-0.384 m -1.4976,0.6336 0.7872,-0.2496 m -1.632,0.336 0.8448,-0.0864 m 39.65761,266.93761 -0.077,0.816 m 0.3168,-1.5936 -0.24,0.7776 m 0.624,-1.488 -0.384,0.7104 m 0.9024,-1.344 -0.5184,0.6336 m -40.28161,-273.67681 -0.8448,-0.0864 m 1.632,0.3264 -0.7872,-0.24 m 1.4976,0.6336 -0.7104,-0.3936 m 1.3344,0.9024 -0.624,-0.5088 m 1.1328,1.1328 -0.5088,-0.624 m 0.9024,1.3344 -0.3936,-0.7104 m 0.6336,1.4976 -0.24,-0.7872 m 0.3264,1.632 -0.086,-0.8448 m 225.3696,0.0288 -0.077,0.816 m 0.3168,-1.5936 -0.24,0.7776 m 0.624,-1.488 -0.384,0.7104 m 0.9024,-1.344 -0.5184,0.6336 m 2.6496,6.3936 0.816,0.0768 m -1.5936,-0.3168 0.7776,0.24 m -1.4976,-0.624 0.72,0.384 m -1.3536,-0.9024 0.6336,0.5184 m -188.97599,264.94081 -0.6336,0.528 m 1.3536,-0.9024 -0.72,0.3744 m 1.4976,-0.6144 -0.7776,0.24 m 1.5936,-0.3168 -0.816,0.0768 m 4.896,4.896 0.086,-0.816 m -0.3168,1.5936 0.2304,-0.7776 m -0.6144,1.4976 0.384,-0.72 m -0.9024,1.3536 0.5184,-0.6336 m 142.79039,1.104 0.6432,-0.5184 m -1.3536,0.9024 0.7104,-0.384 m -1.488,0.624 0.7776,-0.24 m -1.5936,0.3168 0.816,-0.0768 m 48.288,-275.09761 0.086,-0.816 m -0.3168,1.5936 0.2304,-0.7776 m -0.6144,1.4976 0.384,-0.72 m -0.9024,1.3536 0.5184,-0.6336 m -241.152,-3.1584 -0.086,0.8448 m 0.336,-1.632 -0.2496,0.7872 m 0.6336,-1.4976 -0.384,0.7104 m 0.9024,-1.3344 -0.5184,0.624 m 1.1328,-1.1328 -0.6144,0.5088 m 1.3344,-0.9024 -0.72,0.3936 m 1.5072,-0.6336 -0.7872,0.24 m 1.632,-0.3264 -0.8448,0.0864 m 187.0752,272.46721 -0.6336,0.528 m 1.3536,-0.9024 -0.72,0.3744 m 1.4976,-0.6144 -0.7776,0.24 m 1.5936,-0.3168 -0.816,0.0768 m -2.6496,6.3936 0.5184,0.6336 m -0.9024,-1.3536 0.384,0.72 m -0.624,-1.4976 0.24,0.7776 m -0.3168,-1.5936 0.077,0.816 m 45.648,-270.32641 0.5184,0.6336 m -0.9024,-1.3536 0.384,0.72 m -0.624,-1.4976 0.24,0.7776 m -0.3168,-1.5936 0.077,0.816 m -36.8544,271.82401 0.086,-0.816 m -0.3168,1.5936 0.2304,-0.7776 m -0.6144,1.4976 0.384,-0.72 m -0.9024,1.3536 0.5184,-0.6336 m -7.5552,-3.1296 -0.077,0.816 m 0.3168,-1.5936 -0.24,0.7776 m 0.624,-1.488 -0.384,0.7104 m 0.9024,-1.344 -0.5184,0.6336 m -137.02079,0.048 -0.5184,-0.6336 m 0.9024,1.344 -0.384,-0.7104 m 0.6144,1.488 -0.2304,-0.7776 m 0.3168,1.5936 -0.086,-0.816 m 182.58239,-274.52161 -0.6336,0.528 m 1.3536,-0.9024 -0.72,0.3744 m 1.4976,-0.6144 -0.7776,0.24 m 1.5936,-0.3168 -0.816,0.0768 m 4.2816,1.776 -0.5184,-0.6336 m 0.9024,1.344 -0.384,-0.7104 m 0.6144,1.488 -0.2304,-0.7776 m 0.3168,1.5936 -0.086,-0.816 m 675.45179,462.08262 0.816,-0.0768 m -1.5936,0.3168 0.7776,-0.24 m -1.4976,0.624 0.72,-0.384 m -1.3536,0.9024 0.6336,-0.5184 m 48.1536,279.36961 -0.816,0.0768 m 1.5936,-0.3168 -0.7776,0.24 m 1.488,-0.6144 -0.7104,0.3744 m 1.3536,-0.9024 -0.6432,0.528 m -43.8624,-272.98561 -0.5184,0.6336 m 0.9024,-1.344 -0.384,0.7104 m 0.6144,-1.488 -0.2304,0.7776 m 0.3168,-1.5936 -0.086,0.816 m 43.248,267.54241 0.6432,0.5184 m -1.3536,-0.9024 0.7104,0.384 m -1.488,-0.624 0.7776,0.24 m -1.5936,-0.3168 0.816,0.0768 m -45.024,-263.65441 -0.816,0.0768 m 1.5936,-0.3168 -0.7776,0.24 m 1.488,-0.6144 -0.7104,0.3744 m 1.3536,-0.9024 -0.6432,0.528 m -145.44,0.5664 -0.816,0.0768 m 1.5936,-0.3168 -0.7776,0.24 m 1.488,-0.6144 -0.7104,0.3744 m 1.3536,-0.9024 -0.6432,0.528 m -5.7696,-5.7792 0.5184,-0.6336 m -0.9024,1.3536 0.384,-0.72 m -0.624,1.4976 0.24,-0.7776 m -0.3168,1.5936 0.077,-0.816 m 3.2736,-3.2736 0.816,-0.0768 m -1.5936,0.3168 0.7776,-0.24 m -1.4976,0.624 0.72,-0.384 m -1.3536,0.9024 0.6336,-0.5184 m 4.6176,0 0.6432,0.5184 m -1.3536,-0.9024 0.7104,0.384 m -1.488,-0.624 0.7776,0.24 m -1.5936,-0.3168 0.816,0.0768 m -46.2528,271.84321 0.8448,-0.0864 m -1.632,0.336 0.7872,-0.2496 m -1.5072,0.6336 0.72,-0.384 m -1.3344,0.8928 0.6144,-0.5088 m -1.1328,1.1328 0.5184,-0.624 m -0.9024,1.3344 0.384,-0.7104 m -0.6336,1.4976 0.2496,-0.7872 m -0.336,1.6416 0.086,-0.8544 m 8.2272,0 0.086,0.8544 m -0.3264,-1.6416 0.24,0.7872 m -0.6336,-1.4976 0.3936,0.7104 m -0.9024,-1.3344 0.5088,0.624 m -1.1328,-1.1328 0.624,0.5088 m -1.3344,-0.8928 0.7104,0.384 m -1.4976,-0.6336 0.7872,0.2496 m -1.632,-0.336 0.8448,0.0864 m 39.6576,-266.93761 -0.077,-0.816 m 0.3168,1.5936 -0.24,-0.7776 m 0.624,1.488 -0.384,-0.7104 m 0.9024,1.344 -0.5184,-0.6336 m -40.2816,273.67681 -0.8448,0.0864 m 1.632,-0.3264 -0.7872,0.24 m 1.4976,-0.6336 -0.7104,0.3936 m 1.3344,-0.9024 -0.624,0.5088 m 1.1328,-1.1328 -0.5088,0.624 m 0.9024,-1.3344 -0.3936,0.7104 m 0.6336,-1.4976 -0.24,0.7872 m 0.3264,-1.632 -0.086,0.8448 m 225.3696,-0.0288 -0.077,-0.816 m 0.3168,1.5936 -0.24,-0.7776 m 0.624,1.488 -0.384,-0.7104 m 0.9024,1.344 -0.5184,-0.6336 m 2.6496,-6.3936 0.816,-0.0768 m -1.5936,0.3168 0.7776,-0.24 m -1.4976,0.624 0.72,-0.384 m -1.3536,0.9024 0.6336,-0.5184 m -188.976,-264.94081 -0.6336,-0.528 m 1.3536,0.9024 -0.72,-0.3744 m 1.4976,0.6144 -0.7776,-0.24 m 1.5936,0.3168 -0.816,-0.0768 m 4.896,-4.896 0.086,0.816 m -0.3168,-1.5936 0.2304,0.7776 m -0.6144,-1.4976 0.384,0.72 m -0.9024,-1.3536 0.5184,0.6336 m 142.7904,-1.104 0.6432,0.5184 m -1.3536,-0.9024 0.7104,0.384 m -1.488,-0.624 0.7776,0.24 m -1.5936,-0.3168 0.816,0.0768 m 48.288,275.09761 0.086,0.816 m -0.3168,-1.5936 0.2304,0.7776 m -0.6144,-1.4976 0.384,0.72 m -0.9024,-1.3536 0.5184,0.6336 m -241.152,3.1584 -0.086,-0.8448 m 0.336,1.632 -0.2496,-0.7872 m 0.6336,1.4976 -0.384,-0.7104 m 0.9024,1.3344 -0.5184,-0.624 m 1.1328,1.1328 -0.6144,-0.5088 m 1.3344,0.9024 -0.72,-0.3936 m 1.5072,0.6336 -0.7872,-0.24 m 1.632,0.3264 -0.8448,-0.0864 m 187.0752,-272.46721 -0.6336,-0.528 m 1.3536,0.9024 -0.72,-0.3744 m 1.4976,0.6144 -0.7776,-0.24 m 1.5936,0.3168 -0.816,-0.0768 m -2.6496,-6.3936 0.5184,-0.6336 m -0.9024,1.3536 0.384,-0.72 m -0.624,1.4976 0.24,-0.7776 m -0.3168,1.5936 0.077,-0.816 m 45.648,270.32641 0.5184,-0.6336 m -0.9024,1.3536 0.384,-0.72 m -0.624,1.4976 0.24,-0.7776 m -0.3168,1.5936 0.077,-0.816 m -36.8544,-271.82401 0.086,0.816 m -0.3168,-1.5936 0.2304,0.7776 m -0.6144,-1.4976 0.384,0.72 m -0.9024,-1.3536 0.5184,0.6336 m -7.5552,3.1296 -0.077,-0.816 m 0.3168,1.5936 -0.24,-0.7776 m 0.624,1.488 -0.384,-0.7104 m 0.9024,1.344 -0.5184,-0.6336 m -137.0208,-0.048 -0.5184,0.6336 m 0.9024,-1.344 -0.384,0.7104 m 0.6144,-1.488 -0.2304,0.7776 m 0.3168,-1.5936 -0.086,0.816 m 182.5824,274.52161 -0.6336,-0.528 m 1.3536,0.9024 -0.72,-0.3744 m 1.4976,0.6144 -0.7776,-0.24 m 1.5936,0.3168 -0.816,-0.0768 m 4.2816,-1.776 -0.5184,0.6336 m 0.9024,-1.344 -0.384,0.7104 m 0.6144,-1.488 -0.2304,0.7776 m 0.3168,-1.5936 -0.086,0.816 m -49.92,-462.08264 0.816,0.0768 m -1.5936,-0.3168 0.7776,0.24 m -1.4976,-0.624 0.72,0.384 m -1.3536,-0.9024 0.6336,0.5184 m 48.1536,-279.36961 -0.816,-0.0768 m 1.5936,0.3168 -0.7776,-0.24 m 1.488,0.6144 -0.7104,-0.3744 m 1.3536,0.9024 -0.6432,-0.528 m -43.8624,272.98561 -0.5184,-0.6336 m 0.9024,1.344 -0.384,-0.7104 m 0.6144,1.488 -0.2304,-0.7776 m 0.3168,1.5936 -0.086,-0.816 m 43.248,-267.54241 0.6432,-0.5184 m -1.3536,0.9024 0.7104,-0.384 m -1.488,0.624 0.7776,-0.24 m -1.5936,0.3168 0.816,-0.0768 m -45.024,263.65441 -0.816,-0.0768 m 1.5936,0.3168 -0.7776,-0.24 m 1.488,0.6144 -0.7104,-0.3744 m 1.3536,0.9024 -0.6432,-0.528 m -145.44,-0.5664 -0.816,-0.0768 m 1.5936,0.3168 -0.7776,-0.24 m 1.488,0.6144 -0.7104,-0.3744 m 1.3536,0.9024 -0.6432,-0.528 m -5.7696,5.7792 0.5184,0.6336 m -0.9024,-1.3536 0.384,0.72 m -0.624,-1.4976 0.24,0.7776 m -0.3168,-1.5936 0.077,0.816 m 3.2736,3.2736 0.816,0.0768 m -1.5936,-0.3168 0.7776,0.24 m -1.4976,-0.624 0.72,0.384 m -1.3536,-0.9024 0.6336,0.5184 m 4.6176,0 0.6432,-0.5184 m -1.3536,0.9024 0.7104,-0.384 m -1.488,0.624 0.7776,-0.24 m -1.5936,0.3168 0.816,-0.0768 m -46.2528,-271.84321 0.8448,0.0864 m -1.632,-0.336 0.7872,0.2496 m -1.5072,-0.6336 0.72,0.384 m -1.3344,-0.8928 0.6144,0.5088 m -1.1328,-1.1328 0.5184,0.624 m -0.9024,-1.3344 0.384,0.7104 m -0.6336,-1.4976 0.2496,0.7872 m -0.336,-1.6416 0.086,0.8544 m 8.2272,0 0.086,-0.8544 m -0.3264,1.6416 0.24,-0.7872 m -0.6336,1.4976 0.3936,-0.7104 m -0.9024,1.3344 0.5088,-0.624 m -1.1328,1.1328 0.624,-0.5088 m -1.3344,0.8928 0.7104,-0.384 m -1.4976,0.6336 0.7872,-0.2496 m -1.632,0.336 0.8448,-0.0864 m 39.6576,266.93761 -0.077,0.816 m 0.3168,-1.5936 -0.24,0.7776 m 0.624,-1.488 -0.384,0.7104 m 0.9024,-1.344 -0.5184,0.6336 m -40.2816,-273.67681 -0.8448,-0.0864 m 1.632,0.3264 -0.7872,-0.24 m 1.4976,0.6336 -0.7104,-0.3936 m 1.3344,0.9024 -0.624,-0.5088 m 1.1328,1.1328 -0.5088,-0.624 m 0.9024,1.3344 -0.3936,-0.7104 m 0.6336,1.4976 -0.24,-0.7872 m 0.3264,1.632 -0.086,-0.8448 m 225.3696,0.0288 -0.077,0.816 m 0.3168,-1.5936 -0.24,0.7776 m 0.624,-1.488 -0.384,0.7104 m 0.9024,-1.344 -0.5184,0.6336 m 2.6496,6.3936 0.816,0.0768 m -1.5936,-0.3168 0.7776,0.24 m -1.4976,-0.624 0.72,0.384 m -1.3536,-0.9024 0.6336,0.5184 m -188.976,264.94081 -0.6336,0.528 m 1.3536,-0.9024 -0.72,0.3744 m 1.4976,-0.6144 -0.7776,0.24 m 1.5936,-0.3168 -0.816,0.0768 m 4.896,4.896 0.086,-0.816 m -0.3168,1.5936 0.2304,-0.7776 m -0.6144,1.4976 0.384,-0.72 m -0.9024,1.3536 0.5184,-0.6336 m 142.7904,1.104 0.6432,-0.5184 m -1.3536,0.9024 0.7104,-0.384 m -1.488,0.624 0.7776,-0.24 m -1.5936,0.3168 0.816,-0.0768 m 48.288,-275.09761 0.086,-0.816 m -0.3168,1.5936 0.2304,-0.7776 m -0.6144,1.4976 0.384,-0.72 m -0.9024,1.3536 0.5184,-0.6336 m -241.152,-3.1584 -0.086,0.8448 m 0.336,-1.632 -0.2496,0.7872 m 0.6336,-1.4976 -0.384,0.7104 m 0.9024,-1.3344 -0.5184,0.624 m 1.1328,-1.1328 -0.6144,0.5088 m 1.3344,-0.9024 -0.72,0.3936 m 1.5072,-0.6336 -0.7872,0.24 m 1.632,-0.3264 -0.8448,0.0864 m 187.0752,272.46721 -0.6336,0.528 m 1.3536,-0.9024 -0.72,0.3744 m 1.4976,-0.6144 -0.7776,0.24 m 1.5936,-0.3168 -0.816,0.0768 m -2.6496,6.3936 0.5184,0.6336 m -0.9024,-1.3536 0.384,0.72 m -0.624,-1.4976 0.24,0.7776 m -0.3168,-1.5936 0.077,0.816 m 45.648,-270.32641 0.5184,0.6336 m -0.9024,-1.3536 0.384,0.72 m -0.624,-1.4976 0.24,0.7776 m -0.3168,-1.5936 0.077,0.816 m -36.8544,271.82401 0.086,-0.816 m -0.3168,1.5936 0.2304,-0.7776 m -0.6144,1.4976 0.384,-0.72 m -0.9024,1.3536 0.5184,-0.6336 m -7.5552,-3.1296 -0.077,0.816 m 0.3168,-1.5936 -0.24,0.7776 m 0.624,-1.488 -0.384,0.7104 m 0.9024,-1.344 -0.5184,0.6336 m -137.0208,0.048 -0.5184,-0.6336 m 0.9024,1.344 -0.384,-0.7104 m 0.6144,1.488 -0.2304,-0.7776 m 0.3168,1.5936 -0.086,-0.816 m 182.5824,-274.52161 -0.6336,0.528 m 1.3536,-0.9024 -0.72,0.3744 m 1.4976,-0.6144 -0.7776,0.24 m 1.5936,-0.3168 -0.816,0.0768 m 4.2816,1.776 -0.5184,-0.6336 m 0.9024,1.344 -0.384,-0.7104 m 0.6144,1.488 -0.2304,-0.7776 m 0.3168,1.5936 -0.086,-0.816 M 889.28272,872.51986 h 52.91338 v -52.9134 h -52.91338 z m 17.99808,72 h 52.9134 v -52.9134 h -52.9134 z m 18.0019,-144 h 52.9134 v -52.9134 h -52.9134 z m 17.9981,-72 h 52.9134 v -52.9134 h -52.9134 z m 18.0019,288.00004 h 52.9134 v -52.91345 h -52.9134 z m 0,-144.00004 h 52.9134 v -52.9134 h -52.9134 z m 17.9981,72 h 52.9135 v -52.9134 h -52.9135 z m 18.0019,-144 h 52.9134 v -52.9134 h -52.9134 z m 17.9982,-72 h 52.9134 v -52.9134 h -52.9134 z m 18.0019,288.00004 h 52.9133 v -52.91345 h -52.9133 z m 0,-144.00004 h 52.9133 v -52.9134 h -52.9133 z m 17.9981,72 h 52.9134 v -52.9134 h -52.9134 z m 18.0019,-144 h 52.9133 v -52.9134 h -52.9133 z m 17.9981,-72 h 52.9134 v -52.9134 h -52.9134 z m 18.0019,288.00004 h 52.9133 v -52.91345 h -52.9133 z m 0,-144.00004 h 52.9133 v -52.9134 h -52.9133 z m 17.9981,72 h 52.9133 v -52.9134 h -52.9133 z m 50.7362,-281.2271 18.0964,-49.7235 -49.7233,-18.0963 -18.0964,49.7234 z M 889.28867,242.38979 h 52.91339 v 52.91338 h -52.91339 z m 17.99811,-72 h 52.91339 v 52.91338 h -52.91339 z m 18.00189,144 h 52.91339 v 52.91339 h -52.91339 z m 17.99811,72.00001 h 52.91338 v 52.91338 H 943.28678 Z M 961.28867,98.38978 h 52.91333 v 52.91341 h -52.91333 z m 0,144.00001 h 52.91333 v 52.91338 h -52.91333 z m 17.99811,-72 h 52.91342 v 52.91338 h -52.91342 z m 18.00188,144 h 52.91334 v 52.91339 h -52.91334 z m 17.99814,72 h 52.9134 v 52.91338 h -52.9134 z m 18.0019,-288.00001 h 52.9133 v 52.91341 h -52.9133 z m 0,144.00001 h 52.9133 v 52.91338 h -52.9133 z m 17.9981,-72 h 52.9134 v 52.91338 h -52.9134 z m 18.0019,144 h 52.9133 v 52.91338 h -52.9133 z m 17.9981,72 h 52.9134 v 52.91338 h -52.9134 z m 18.0019,-288.00001 h 52.9133 v 52.91341 h -52.9133 z m 0,144.00001 h 52.9133 v 52.91338 h -52.9133 z m 17.9981,-72 h 52.9133 v 52.91338 h -52.9133 z m 50.7362,281.22708 18.0964,49.72347 -49.7233,18.09637 -18.0964,-49.72346 z M 163.91678,242.39165 h 52.91339 v 52.91338 h -52.91339 z m 17.99811,-72 h 52.91339 v 52.91338 h -52.91339 z m 18.00189,144 h 52.91339 v 52.91339 h -52.91339 z m 17.99811,72.00001 h 52.91338 v 52.91338 H 217.91489 Z M 235.91678,98.39164 h 52.91333 v 52.91341 h -52.91333 z m 0,144.00001 h 52.91333 v 52.91338 h -52.91333 z m 17.99811,-72 h 52.91342 v 52.91338 h -52.91342 z m 18.00188,144 h 52.91334 v 52.91339 h -52.91334 z m 17.99814,72 h 52.9134 v 52.91338 h -52.9134 z m 18.0019,-288.00001 h 52.9133 v 52.91341 h -52.9133 z m 0,144.00001 h 52.9133 v 52.91338 h -52.9133 z m 17.9981,-72 h 52.9134 v 52.91338 h -52.9134 z m 18.0019,144 h 52.9133 v 52.91338 h -52.9133 z m 17.9981,72 h 52.9134 v 52.91338 h -52.9134 z m 18.0019,-288.00001 h 52.9133 v 52.91341 h -52.9133 z m 0,144.00001 h 52.9133 v 52.91338 h -52.9133 z m 17.9981,-72 h 52.9134 v 52.91338 h -52.9134 z m 50.7363,281.22708 18.0964,49.72347 -49.7234,18.09637 -18.0964,-49.72346 z M 163.90905,872.51808 h 52.91339 V 819.6047 h -52.91339 z m 17.99811,72 h 52.91339 V 891.6047 h -52.91339 z m 18.00189,-144 h 52.91339 V 747.6047 h -52.91339 z m 17.99811,-72 h 52.91338 V 675.6047 h -52.91338 z m 18.00189,288.00002 h 52.91333 v -52.91341 h -52.91333 z m 0,-144.00002 h 52.91333 V 819.6047 h -52.91333 z m 17.99811,72 h 52.91342 V 891.6047 h -52.91342 z m 18.00188,-144 h 52.91334 V 747.6047 h -52.91334 z m 17.99814,-72 h 52.9134 V 675.6047 h -52.9134 z m 18.0019,288.00002 h 52.9133 v -52.91341 h -52.9133 z m 0,-144.00002 h 52.9133 V 819.6047 h -52.9133 z m 17.9981,72 h 52.9134 V 891.6047 h -52.9134 z m 18.0019,-144 h 52.9133 V 747.6047 h -52.9133 z m 17.9981,-72 h 52.9134 V 675.6047 h -52.9134 z m 18.0019,288.00002 h 52.9133 v -52.91341 h -52.9133 z m 0,-144.00002 h 52.9133 V 819.6047 h -52.9133 z m 17.9981,72 h 52.9134 V 891.6047 h -52.9134 z m 50.7363,-281.22708 18.0964,-49.72347 -49.7234,-18.09637 -18.0964,49.72346 z" /></g><g
     inkscape:groupmode="layer"
     id="layer1"
     inkscape:label="彫刻" /></svg>
