  0
SECTION
  2
HEADER
  9
$ACADVER
  1
AC1014
  9
$HANDSEED
  5
FFFF
  9
$MEASUREMENT
 70
     1
  0
ENDSEC
  0
SECTION
  2
TABLES
  0
TABLE
  2
VPORT
  5
8
330
0
100
AcDbSymbolTable
 70
     4
  0
VPORT
  5
2E
330
8
100
AcDbSymbolTableRecord
100
AcDbViewportTableRecord
  2
*ACTIVE
 70
     0
 10
0.0
 20
0.0
 11
1.0
 21
1.0
 12
210.0
 22
148.5
 13
0.0
 23
0.0
 14
10.0
 24
10.0
 15
10.0
 25
10.0
 16
0.0
 26
0.0
 36
1.0
 17
0.0
 27
0.0
 37
0.0
 40
341.0
 41
1.24
 42
50.0
 43
0.0
 44
0.0
 50
0.0
 51
0.0
 71
     0
 72
   100
 73
     1
 74
     3
 75
     0
 76
     0
 77
     0
 78
     0
  0
ENDTAB
  0
TABLE
  2
LTYPE
  5
5
330
0
100
AcDbSymbolTable
 70
     1
  0
LTYPE
  5
14
330
5
100
AcDbSymbolTableRecord
100
AcDbLinetypeTableRecord
  2
BYBLOCK
 70
     0
  3

 72
    65
 73
     0
 40
0.0
  0
LTYPE
  5
15
330
5
100
AcDbSymbolTableRecord
100
AcDbLinetypeTableRecord
  2
BYLAYER
 70
     0
  3

 72
    65
 73
     0
 40
0.0
  0
LTYPE
  5
16
330
5
100
AcDbSymbolTableRecord
100
AcDbLinetypeTableRecord
  2
CONTINUOUS
 70
     0
  3
Solid line
 72
    65
 73
     0
 40
0.0
  0
ENDTAB
  0
TABLE
  2
LAYER
  5
2
100
AcDbSymbolTable
 70
1
  0
LAYER
  5
50
100
AcDbSymbolTableRecord
100
AcDbLayerTableRecord
  2
0
 70
0
  6
CONTINUOUS
  0
ENDTAB
  0
TABLE
  2
STYLE
  5
3
330
0
100
AcDbSymbolTable
 70
     1
  0
STYLE
  5
11
330
3
100
AcDbSymbolTableRecord
100
AcDbTextStyleTableRecord
  2
STANDARD
 70
     0
 40
0.0
 41
1.0
 50
0.0
 71
     0
 42
2.5
  3
txt
  4

  0
ENDTAB
  0
TABLE
  2
VIEW
  5
6
330
0
100
AcDbSymbolTable
 70
     0
  0
ENDTAB
  0
TABLE
  2
UCS
  5
7
330
0
100
AcDbSymbolTable
 70
     0
  0
ENDTAB
  0
TABLE
  2
APPID
  5
9
330
0
100
AcDbSymbolTable
 70
     2
  0
APPID
  5
12
330
9
100
AcDbSymbolTableRecord
100
AcDbRegAppTableRecord
  2
ACAD
 70
     0
  0
ENDTAB
  0
TABLE
  2
DIMSTYLE
  5
A
330
0
100
AcDbSymbolTable
 70
     1
  0
DIMSTYLE
105
27
330
A
100
AcDbSymbolTableRecord
100
AcDbDimStyleTableRecord
  2
ISO-25
 70
     0
  3

  4

  5

  6

  7

 40
1.0
 41
2.5
 42
0.625
 43
3.75
 44
1.25
 45
0.0
 46
0.0
 47
0.0
 48
0.0
140
2.5
141
2.5
142
0.0
143
0.03937007874016
144
1.0
145
0.0
146
1.0
147
0.625
 71
     0
 72
     0
 73
     0
 74
     0
 75
     0
 76
     0
 77
     1
 78
     8
170
     0
171
     3
172
     1
173
     0
174
     0
175
     0
176
     0
177
     0
178
     0
270
     2
271
     2
272
     2
273
     2
274
     3
340
11
275
     0
280
     0
281
     0
282
     0
283
     0
284
     8
285
     0
286
     0
287
     3
288
     0
  0
ENDTAB
  0
TABLE
  2
BLOCK_RECORD
  5
1
330
0
100
AcDbSymbolTable
 70
     1
  0
BLOCK_RECORD
  5
1F
330
1
100
AcDbSymbolTableRecord
100
AcDbBlockTableRecord
  2
*MODEL_SPACE
  0
BLOCK_RECORD
  5
1B
330
1
100
AcDbSymbolTableRecord
100
AcDbBlockTableRecord
  2
*PAPER_SPACE
  0
ENDTAB
  0
ENDSEC
  0
SECTION
  2
BLOCKS
  0
BLOCK
  5
20
330
1F
100
AcDbEntity
  8
0
100
AcDbBlockBegin
  2
*MODEL_SPACE
 70
     0
 10
0.0
 20
0.0
 30
0.0
  3
*MODEL_SPACE
  1

  0
ENDBLK
  5
21
330
1F
100
AcDbEntity
  8
0
100
AcDbBlockEnd
  0
BLOCK
  5
1C
330
1B
100
AcDbEntity
 67
     1
  8
0
100
AcDbBlockBegin
  2
*PAPER_SPACE
  1

  0
ENDBLK
  5
1D
330
1B
100
AcDbEntity
 67
     1
  8
0
100
AcDbBlockEnd
  0
ENDSEC
  0
SECTION
  2
ENTITIES
  0
LWPOLYLINE
  5
100
100
AcDbEntity
  8
0
 62
7
100
AcDbPolyline
 90
345
 70
1
 10
97.467420
 20
-171.136239
 30
0.0
 10
97.241868
 20
-171.158591
 30
0.0
 10
97.026730
 20
-171.223869
 30
0.0
 10
96.828610
 20
-171.329533
 30
0.0
 10
96.653096
 20
-171.473551
 30
0.0
 10
96.509332
 20
-171.649065
 30
0.0
 10
96.403668
 20
-171.847185
 30
0.0
 10
96.338390
 20
-172.062323
 30
0.0
 10
96.316038
 20
-172.288129
 30
0.0
 10
96.317562
 20
-174.990943
 30
0.0
 10
96.295464
 20
-175.216495
 30
0.0
 10
96.230186
 20
-175.431633
 30
0.0
 10
96.124522
 20
-175.630007
 30
0.0
 10
95.980758
 20
-175.805267
 30
0.0
 10
95.805244
 20
-175.949285
 30
0.0
 10
95.607124
 20
-176.055203
 30
0.0
 10
95.391986
 20
-176.120481
 30
0.0
 10
95.166180
 20
-176.142833
 30
0.0
 10
45.470318
 20
-176.142833
 30
0.0
 10
45.244512
 20
-176.120481
 30
0.0
 10
45.029374
 20
-176.055203
 30
0.0
 10
44.831254
 20
-175.949285
 30
0.0
 10
44.655740
 20
-175.805267
 30
0.0
 10
44.511976
 20
-175.630007
 30
0.0
 10
44.406312
 20
-175.431633
 30
0.0
 10
44.341034
 20
-175.216495
 30
0.0
 10
44.318682
 20
-174.990943
 30
0.0
 10
44.319698
 20
-172.291939
 30
0.0
 10
44.297346
 20
-172.066133
 30
0.0
 10
44.232068
 20
-171.850995
 30
0.0
 10
44.126150
 20
-171.652875
 30
0.0
 10
43.982386
 20
-171.477361
 30
0.0
 10
43.807126
 20
-171.333597
 30
0.0
 10
43.608752
 20
-171.227679
 30
0.0
 10
43.393868
 20
-171.162401
 30
0.0
 10
43.168062
 20
-171.140049
 30
0.0
 10
33.024064
 20
-171.140811
 30
0.0
 10
32.798258
 20
-171.118459
 30
0.0
 10
32.583120
 20
-171.052927
 30
0.0
 10
32.384746
 20
-170.947263
 30
0.0
 10
32.209486
 20
-170.803245
 30
0.0
 10
32.065468
 20
-170.627985
 30
0.0
 10
31.959550
 20
-170.429611
 30
0.0
 10
31.894272
 20
-170.214473
 30
0.0
 10
31.871920
 20
-169.988921
 30
0.0
 10
31.871920
 20
-83.527575
 30
0.0
 10
31.894272
 20
-83.301769
 30
0.0
 10
31.959550
 20
-83.086631
 30
0.0
 10
32.065468
 20
-82.888257
 30
0.0
 10
32.209486
 20
-82.712997
 30
0.0
 10
32.384746
 20
-82.568979
 30
0.0
 10
32.583120
 20
-82.463315
 30
0.0
 10
32.798258
 20
-82.397783
 30
0.0
 10
33.024064
 20
-82.375431
 30
0.0
 10
43.168062
 20
-82.376193
 30
0.0
 10
43.393868
 20
-82.353841
 30
0.0
 10
43.608752
 20
-82.288563
 30
0.0
 10
43.807126
 20
-82.182645
 30
0.0
 10
43.982386
 20
-82.038881
 30
0.0
 10
44.126150
 20
-81.863367
 30
0.0
 10
44.232068
 20
-81.665247
 30
0.0
 10
44.297346
 20
-81.450109
 30
0.0
 10
44.319698
 20
-81.224303
 30
0.0
 10
44.318682
 20
-78.525553
 30
0.0
 10
44.341034
 20
-78.299747
 30
0.0
 10
44.406312
 20
-78.084609
 30
0.0
 10
44.511976
 20
-77.886235
 30
0.0
 10
44.655740
 20
-77.710975
 30
0.0
 10
44.831254
 20
-77.566957
 30
0.0
 10
45.029374
 20
-77.461039
 30
0.0
 10
45.244512
 20
-77.395761
 30
0.0
 10
45.470318
 20
-77.373409
 30
0.0
 10
95.166180
 20
-77.373409
 30
0.0
 10
95.391986
 20
-77.395761
 30
0.0
 10
95.607124
 20
-77.461039
 30
0.0
 10
95.805244
 20
-77.566957
 30
0.0
 10
95.980758
 20
-77.710975
 30
0.0
 10
96.124522
 20
-77.886235
 30
0.0
 10
96.230186
 20
-78.084609
 30
0.0
 10
96.295464
 20
-78.299747
 30
0.0
 10
96.317562
 20
-78.525553
 30
0.0
 10
96.316038
 20
-81.228367
 30
0.0
 10
96.338390
 20
-81.453919
 30
0.0
 10
96.403668
 20
-81.669057
 30
0.0
 10
96.509332
 20
-81.867431
 30
0.0
 10
96.653096
 20
-82.042945
 30
0.0
 10
96.828610
 20
-82.186709
 30
0.0
 10
97.026730
 20
-82.292627
 30
0.0
 10
97.241868
 20
-82.357905
 30
0.0
 10
97.467420
 20
-82.380257
 30
0.0
 10
117.625622
 20
-82.381781
 30
0.0
 10
117.851428
 20
-82.359429
 30
0.0
 10
118.066566
 20
-82.294151
 30
0.0
 10
118.264686
 20
-82.188233
 30
0.0
 10
118.440200
 20
-82.044469
 30
0.0
 10
118.583964
 20
-81.868955
 30
0.0
 10
118.689882
 20
-81.670835
 30
0.0
 10
118.755160
 20
-81.455697
 30
0.0
 10
118.777258
 20
-81.229891
 30
0.0
 10
118.776496
 20
-78.530887
 30
0.0
 10
118.798594
 20
-78.305081
 30
0.0
 10
118.863872
 20
-78.090197
 30
0.0
 10
118.969790
 20
-77.891823
 30
0.0
 10
119.113554
 20
-77.716309
 30
0.0
 10
119.289068
 20
-77.572545
 30
0.0
 10
119.487188
 20
-77.466627
 30
0.0
 10
119.702326
 20
-77.401349
 30
0.0
 10
119.928132
 20
-77.378997
 30
0.0
 10
169.623994
 20
-77.378997
 30
0.0
 10
169.849800
 20
-77.401349
 30
0.0
 10
170.064684
 20
-77.466627
 30
0.0
 10
170.263058
 20
-77.572545
 30
0.0
 10
170.438318
 20
-77.716309
 30
0.0
 10
170.582082
 20
-77.891823
 30
0.0
 10
170.688000
 20
-78.090197
 30
0.0
 10
170.753278
 20
-78.305335
 30
0.0
 10
170.775376
 20
-78.530887
 30
0.0
 10
170.773852
 20
-81.233701
 30
0.0
 10
170.796204
 20
-81.459507
 30
0.0
 10
170.861228
 20
-81.674645
 30
0.0
 10
170.967146
 20
-81.873019
 30
0.0
 10
171.110910
 20
-82.048533
 30
0.0
 10
171.286170
 20
-82.192297
 30
0.0
 10
171.484544
 20
-82.298215
 30
0.0
 10
171.699428
 20
-82.363747
 30
0.0
 10
171.925234
 20
-82.386099
 30
0.0
 10
250.702064
 20
-82.412261
 30
0.0
 10
250.927870
 20
-82.389909
 30
0.0
 10
251.142754
 20
-82.324631
 30
0.0
 10
251.340874
 20
-82.218713
 30
0.0
 10
251.516388
 20
-82.074949
 30
0.0
 10
251.660152
 20
-81.899435
 30
0.0
 10
251.765816
 20
-81.701315
 30
0.0
 10
251.831094
 20
-81.486177
 30
0.0
 10
251.853446
 20
-81.260625
 30
0.0
 10
251.851922
 20
-78.557811
 30
0.0
 10
251.874020
 20
-78.332005
 30
0.0
 10
251.939298
 20
-78.116867
 30
0.0
 10
252.045216
 20
-77.918747
 30
0.0
 10
252.188980
 20
-77.743233
 30
0.0
 10
252.364240
 20
-77.599215
 30
0.0
 10
252.562614
 20
-77.493297
 30
0.0
 10
252.777498
 20
-77.428019
 30
0.0
 10
253.003304
 20
-77.405667
 30
0.0
 10
302.699420
 20
-77.405667
 30
0.0
 10
302.925480
 20
-77.428019
 30
0.0
 10
303.138840
 20
-77.493297
 30
0.0
 10
303.339500
 20
-77.599215
 30
0.0
 10
303.514760
 20
-77.743233
 30
0.0
 10
303.657000
 20
-77.918493
 30
0.0
 10
303.763680
 20
-78.116867
 30
0.0
 10
303.829720
 20
-78.332005
 30
0.0
 10
303.850040
 20
-78.557811
 30
0.0
 10
303.850040
 20
-81.256561
 30
0.0
 10
303.872900
 20
-81.482367
 30
0.0
 10
303.936400
 20
-81.697505
 30
0.0
 10
304.043080
 20
-81.895625
 30
0.0
 10
304.187860
 20
-82.071139
 30
0.0
 10
304.363120
 20
-82.215157
 30
0.0
 10
304.561240
 20
-82.320821
 30
0.0
 10
304.774600
 20
-82.386353
 30
0.0
 10
305.000660
 20
-82.408451
 30
0.0
 10
325.160640
 20
-82.407181
 30
0.0
 10
325.386700
 20
-82.384829
 30
0.0
 10
325.600060
 20
-82.319297
 30
0.0
 10
325.798180
 20
-82.213379
 30
0.0
 10
325.973440
 20
-82.069615
 30
0.0
 10
326.118220
 20
-81.894101
 30
0.0
 10
326.224900
 20
-81.695727
 30
0.0
 10
326.288400
 20
-81.480843
 30
0.0
 10
326.311260
 20
-81.255037
 30
0.0
 10
326.308720
 20
-78.552223
 30
0.0
 10
326.331580
 20
-78.326417
 30
0.0
 10
326.397620
 20
-78.111279
 30
0.0
 10
326.501760
 20
-77.913159
 30
0.0
 10
326.646540
 20
-77.737645
 30
0.0
 10
326.821800
 20
-77.593627
 30
0.0
 10
327.019920
 20
-77.487963
 30
0.0
 10
327.235820
 20
-77.422431
 30
0.0
 10
327.461880
 20
-77.400079
 30
0.0
 10
377.156980
 20
-77.400079
 30
0.0
 10
377.383040
 20
-77.422431
 30
0.0
 10
377.598940
 20
-77.487963
 30
0.0
 10
377.797060
 20
-77.593627
 30
0.0
 10
377.972320
 20
-77.737645
 30
0.0
 10
378.114560
 20
-77.913159
 30
0.0
 10
378.221240
 20
-78.111279
 30
0.0
 10
378.287280
 20
-78.326417
 30
0.0
 10
378.307600
 20
-78.552223
 30
0.0
 10
378.307600
 20
-81.251227
 30
0.0
 10
378.330460
 20
-81.476779
 30
0.0
 10
378.396500
 20
-81.691917
 30
0.0
 10
378.500640
 20
-81.890291
 30
0.0
 10
378.645420
 20
-82.065551
 30
0.0
 10
378.820680
 20
-82.209569
 30
0.0
 10
379.018800
 20
-82.315487
 30
0.0
 10
379.234700
 20
-82.380765
 30
0.0
 10
379.458220
 20
-82.403117
 30
0.0
 10
389.602980
 20
-82.402355
 30
0.0
 10
389.829040
 20
-82.424707
 30
0.0
 10
390.044940
 20
-82.489985
 30
0.0
 10
390.243060
 20
-82.595903
 30
0.0
 10
390.418320
 20
-82.739667
 30
0.0
 10
390.560560
 20
-82.915181
 30
0.0
 10
390.667240
 20
-83.113301
 30
0.0
 10
390.733280
 20
-83.328439
 30
0.0
 10
390.756140
 20
-83.554245
 30
0.0
 10
390.756140
 20
-169.952091
 30
0.0
 10
390.733280
 20
-170.177897
 30
0.0
 10
390.667240
 20
-170.392781
 30
0.0
 10
390.560560
 20
-170.591155
 30
0.0
 10
390.418320
 20
-170.766669
 30
0.0
 10
390.243060
 20
-170.910433
 30
0.0
 10
390.044940
 20
-171.016351
 30
0.0
 10
389.829040
 20
-171.081629
 30
0.0
 10
389.602980
 20
-171.103981
 30
0.0
 10
379.458220
 20
-171.103219
 30
0.0
 10
379.234700
 20
-171.125571
 30
0.0
 10
379.018800
 20
-171.190849
 30
0.0
 10
378.820680
 20
-171.296767
 30
0.0
 10
378.645420
 20
-171.440531
 30
0.0
 10
378.500640
 20
-171.616045
 30
0.0
 10
378.396500
 20
-171.814165
 30
0.0
 10
378.330460
 20
-172.029303
 30
0.0
 10
378.307600
 20
-172.255109
 30
0.0
 10
378.307600
 20
-174.954113
 30
0.0
 10
378.287280
 20
-175.179919
 30
0.0
 10
378.221240
 20
-175.394803
 30
0.0
 10
378.114560
 20
-175.593177
 30
0.0
 10
377.972320
 20
-175.768691
 30
0.0
 10
377.797060
 20
-175.912455
 30
0.0
 10
377.598940
 20
-176.018373
 30
0.0
 10
377.383040
 20
-176.083651
 30
0.0
 10
377.156980
 20
-176.106003
 30
0.0
 10
327.461880
 20
-176.106003
 30
0.0
 10
327.235820
 20
-176.083651
 30
0.0
 10
327.019920
 20
-176.018373
 30
0.0
 10
326.821800
 20
-175.912455
 30
0.0
 10
326.646540
 20
-175.768691
 30
0.0
 10
326.501760
 20
-175.593177
 30
0.0
 10
326.397620
 20
-175.394803
 30
0.0
 10
326.331580
 20
-175.179665
 30
0.0
 10
326.308720
 20
-174.954113
 30
0.0
 10
326.311260
 20
-172.251299
 30
0.0
 10
326.288400
 20
-172.025493
 30
0.0
 10
326.224900
 20
-171.810355
 30
0.0
 10
326.118220
 20
-171.612235
 30
0.0
 10
325.973440
 20
-171.436721
 30
0.0
 10
325.798180
 20
-171.292957
 30
0.0
 10
325.600060
 20
-171.187039
 30
0.0
 10
325.386700
 20
-171.121761
 30
0.0
 10
325.160640
 20
-171.099409
 30
0.0
 10
281.119580
 20
-171.103981
 30
0.0
 10
280.563320
 20
-171.147161
 30
0.0
 10
280.022300
 20
-171.275177
 30
0.0
 10
279.509220
 20
-171.484727
 30
0.0
 10
279.031700
 20
-171.772763
 30
0.0
 10
274.093940
 20
-175.293711
 30
0.0
 10
273.923760
 20
-175.442809
 30
0.0
 10
273.786600
 20
-175.620863
 30
0.0
 10
273.685000
 20
-175.822285
 30
0.0
 10
273.626580
 20
-176.041233
 30
0.0
 10
273.611340
 20
-176.267547
 30
0.0
 10
273.639280
 20
-176.490559
 30
0.0
 10
273.712940
 20
-176.703411
 30
0.0
 10
273.824700
 20
-176.900261
 30
0.0
 10
275.391880
 20
-179.096853
 30
0.0
 10
275.506180
 20
-179.293703
 30
0.0
 10
275.577300
 20
-179.506555
 30
0.0
 10
275.607780
 20
-179.729567
 30
0.0
 10
275.592540
 20
-179.955881
 30
0.0
 10
275.531580
 20
-180.174829
 30
0.0
 10
275.432520
 20
-180.376251
 30
0.0
 10
275.295360
 20
-180.554305
 30
0.0
 10
275.125180
 20
-180.703657
 30
0.0
 10
234.666028
 20
-209.562121
 30
0.0
 10
234.469178
 20
-209.675151
 30
0.0
 10
234.256326
 20
-209.746779
 30
0.0
 10
234.033568
 20
-209.775735
 30
0.0
 10
233.807000
 20
-209.760241
 30
0.0
 10
233.588052
 20
-209.701059
 30
0.0
 10
233.386884
 20
-209.600983
 30
0.0
 10
233.208830
 20
-209.463823
 30
0.0
 10
233.059732
 20
-209.292881
 30
0.0
 10
231.491536
 20
-207.091717
 30
0.0
 10
231.340914
 20
-206.918489
 30
0.0
 10
231.161590
 20
-206.778535
 30
0.0
 10
230.959152
 20
-206.675411
 30
0.0
 10
230.738426
 20
-206.612165
 30
0.0
 10
230.509826
 20
-206.592607
 30
0.0
 10
230.283766
 20
-206.616991
 30
0.0
 10
230.066596
 20
-206.683793
 30
0.0
 10
229.864158
 20
-206.791997
 30
0.0
 10
224.301050
 20
-210.497095
 30
0.0
 10
223.813116
 20
-210.772685
 30
0.0
 10
223.292924
 20
-210.973091
 30
0.0
 10
222.749110
 20
-211.095773
 30
0.0
 10
222.190310
 20
-211.138191
 30
0.0
 10
190.811150
 20
-211.209311
 30
0.0
 10
190.253620
 20
-211.167909
 30
0.0
 10
189.711584
 20
-211.043703
 30
0.0
 10
189.194440
 20
-210.838979
 30
0.0
 10
188.711332
 20
-210.557039
 30
0.0
 10
183.335930
 20
-206.844829
 30
0.0
 10
183.136540
 20
-206.734085
 30
0.0
 10
182.921402
 20
-206.664743
 30
0.0
 10
182.697120
 20
-206.638073
 30
0.0
 10
182.469536
 20
-206.655345
 30
0.0
 10
182.249826
 20
-206.716559
 30
0.0
 10
182.048150
 20
-206.817905
 30
0.0
 10
181.869334
 20
-206.956335
 30
0.0
 10
181.719728
 20
-207.128293
 30
0.0
 10
180.151278
 20
-209.329711
 30
0.0
 10
180.002180
 20
-209.500653
 30
0.0
 10
179.824126
 20
-209.637813
 30
0.0
 10
179.622958
 20
-209.737889
 30
0.0
 10
179.404010
 20
-209.797071
 30
0.0
 10
179.177696
 20
-209.812311
 30
0.0
 10
178.954684
 20
-209.783609
 30
0.0
 10
178.741832
 20
-209.711727
 30
0.0
 10
178.544982
 20
-209.598951
 30
0.0
 10
138.086592
 20
-180.740233
 30
0.0
 10
137.915904
 20
-180.591135
 30
0.0
 10
137.778744
 20
-180.413081
 30
0.0
 10
137.678922
 20
-180.211659
 30
0.0
 10
137.619486
 20
-179.992711
 30
0.0
 10
137.604500
 20
-179.766397
 30
0.0
 10
137.633456
 20
-179.543385
 30
0.0
 10
137.705084
 20
-179.330533
 30
0.0
 10
137.818114
 20
-179.133683
 30
0.0
 10
139.386056
 20
-176.936837
 30
0.0
 10
139.499086
 20
-176.740241
 30
0.0
 10
139.570714
 20
-176.527135
 30
0.0
 10
139.599670
 20
-176.304377
 30
0.0
 10
139.584684
 20
-176.078063
 30
0.0
 10
139.525248
 20
-175.859115
 30
0.0
 10
139.425426
 20
-175.657693
 30
0.0
 10
139.288266
 20
-175.479639
 30
0.0
 10
139.117324
 20
-175.330541
 30
0.0
 10
134.180326
 20
-171.809593
 30
0.0
 10
133.701790
 20
-171.521557
 30
0.0
 10
133.187694
 20
-171.312007
 30
0.0
 10
132.647182
 20
-171.183991
 30
0.0
 10
132.090414
 20
-171.140557
 30
0.0
 10
132.090414
 20
-171.140557
 30
0.0
  0
LWPOLYLINE
  5
101
100
AcDbEntity
  8
0
 62
7
100
AcDbPolyline
 90
129
 70
1
 10
223.736916
 20
-175.759039
 30
0.0
 10
222.784670
 20
-176.579205
 30
0.0
 10
221.796864
 20
-177.348825
 30
0.0
 10
220.775276
 20
-178.066883
 30
0.0
 10
219.722192
 20
-178.732363
 30
0.0
 10
218.639898
 20
-179.344503
 30
0.0
 10
217.529918
 20
-179.902541
 30
0.0
 10
216.395046
 20
-180.405461
 30
0.0
 10
215.236806
 20
-180.852501
 30
0.0
 10
214.057484
 20
-181.242645
 30
0.0
 10
212.859112
 20
-181.575131
 30
0.0
 10
211.643976
 20
-181.849197
 30
0.0
 10
210.413854
 20
-182.063827
 30
0.0
 10
209.171286
 20
-182.218259
 30
0.0
 10
207.917796
 20
-182.311477
 30
0.0
 10
206.655924
 20
-182.342719
 30
0.0
 10
205.393798
 20
-182.311477
 30
0.0
 10
204.140562
 20
-182.218259
 30
0.0
 10
202.897740
 20
-182.063827
 30
0.0
 10
201.667618
 20
-181.849197
 30
0.0
 10
200.452482
 20
-181.575131
 30
0.0
 10
199.254110
 20
-181.242645
 30
0.0
 10
198.074788
 20
-180.852501
 30
0.0
 10
196.916802
 20
-180.405461
 30
0.0
 10
195.781676
 20
-179.902541
 30
0.0
 10
194.671950
 20
-179.344503
 30
0.0
 10
193.589402
 20
-178.732363
 30
0.0
 10
192.536318
 20
-178.066883
 30
0.0
 10
191.514984
 20
-177.348825
 30
0.0
 10
190.526924
 20
-176.579205
 30
0.0
 10
189.574678
 20
-175.759039
 30
0.0
 10
188.660278
 20
-174.888835
 30
0.0
 10
187.790074
 20
-173.974181
 30
0.0
 10
186.969654
 20
-173.021935
 30
0.0
 10
186.200034
 20
-172.034129
 30
0.0
 10
185.481976
 20
-171.012541
 30
0.0
 10
184.816496
 20
-169.959457
 30
0.0
 10
184.204356
 20
-168.877163
 30
0.0
 10
183.646318
 20
-167.767437
 30
0.0
 10
183.143398
 20
-166.632311
 30
0.0
 10
182.696358
 20
-165.474071
 30
0.0
 10
182.306214
 20
-164.294749
 30
0.0
 10
181.973728
 20
-163.096377
 30
0.0
 10
181.699662
 20
-161.881241
 30
0.0
 10
181.485032
 20
-160.651373
 30
0.0
 10
181.330854
 20
-159.408551
 30
0.0
 10
181.237382
 20
-158.155061
 30
0.0
 10
181.206140
 20
-156.893189
 30
0.0
 10
181.237382
 20
-155.631063
 30
0.0
 10
181.330854
 20
-154.377827
 30
0.0
 10
181.485032
 20
-153.135005
 30
0.0
 10
181.699662
 20
-151.904883
 30
0.0
 10
181.973728
 20
-150.689747
 30
0.0
 10
182.306214
 20
-149.491375
 30
0.0
 10
182.696358
 20
-148.312307
 30
0.0
 10
183.143398
 20
-147.154067
 30
0.0
 10
183.646318
 20
-146.018941
 30
0.0
 10
184.204356
 20
-144.909215
 30
0.0
 10
184.816496
 20
-143.826667
 30
0.0
 10
185.481976
 20
-142.773583
 30
0.0
 10
186.200034
 20
-141.752249
 30
0.0
 10
186.969654
 20
-140.764189
 30
0.0
 10
187.790074
 20
-139.811943
 30
0.0
 10
188.660278
 20
-138.897543
 30
0.0
 10
189.574678
 20
-138.027339
 30
0.0
 10
190.526924
 20
-137.206919
 30
0.0
 10
191.514984
 20
-136.437299
 30
0.0
 10
192.536318
 20
-135.719241
 30
0.0
 10
193.589402
 20
-135.053761
 30
0.0
 10
194.671950
 20
-134.441621
 30
0.0
 10
195.781676
 20
-133.883583
 30
0.0
 10
196.916802
 20
-133.380663
 30
0.0
 10
198.074788
 20
-132.933877
 30
0.0
 10
199.254110
 20
-132.543479
 30
0.0
 10
200.452482
 20
-132.210993
 30
0.0
 10
201.667618
 20
-131.937181
 30
0.0
 10
202.897740
 20
-131.722551
 30
0.0
 10
204.140562
 20
-131.568119
 30
0.0
 10
205.393798
 20
-131.474901
 30
0.0
 10
206.655924
 20
-131.443659
 30
0.0
 10
207.917796
 20
-131.474901
 30
0.0
 10
209.171286
 20
-131.568119
 30
0.0
 10
210.413854
 20
-131.722551
 30
0.0
 10
211.643976
 20
-131.937181
 30
0.0
 10
212.859112
 20
-132.210993
 30
0.0
 10
214.057484
 20
-132.543479
 30
0.0
 10
215.236806
 20
-132.933877
 30
0.0
 10
216.395046
 20
-133.380663
 30
0.0
 10
217.529918
 20
-133.883583
 30
0.0
 10
218.639898
 20
-134.441621
 30
0.0
 10
219.722192
 20
-135.053761
 30
0.0
 10
220.775276
 20
-135.719241
 30
0.0
 10
221.796864
 20
-136.437299
 30
0.0
 10
222.784670
 20
-137.206919
 30
0.0
 10
223.736916
 20
-138.027339
 30
0.0
 10
224.651316
 20
-138.897543
 30
0.0
 10
225.521774
 20
-139.811943
 30
0.0
 10
226.341940
 20
-140.764189
 30
0.0
 10
227.111560
 20
-141.752249
 30
0.0
 10
227.829618
 20
-142.773583
 30
0.0
 10
228.495098
 20
-143.826667
 30
0.0
 10
229.107238
 20
-144.909215
 30
0.0
 10
229.665276
 20
-146.018941
 30
0.0
 10
230.168196
 20
-147.154067
 30
0.0
 10
230.615236
 20
-148.312307
 30
0.0
 10
231.005380
 20
-149.491375
 30
0.0
 10
231.337866
 20
-150.689747
 30
0.0
 10
231.611932
 20
-151.904883
 30
0.0
 10
231.826562
 20
-153.135005
 30
0.0
 10
231.980994
 20
-154.377827
 30
0.0
 10
232.074212
 20
-155.631063
 30
0.0
 10
232.105454
 20
-156.893189
 30
0.0
 10
232.074212
 20
-158.155061
 30
0.0
 10
231.980994
 20
-159.408551
 30
0.0
 10
231.826562
 20
-160.651373
 30
0.0
 10
231.611932
 20
-161.881241
 30
0.0
 10
231.337866
 20
-163.096377
 30
0.0
 10
231.005380
 20
-164.294749
 30
0.0
 10
230.615236
 20
-165.474071
 30
0.0
 10
230.168196
 20
-166.632311
 30
0.0
 10
229.665276
 20
-167.767437
 30
0.0
 10
229.107238
 20
-168.877163
 30
0.0
 10
228.495098
 20
-169.959457
 30
0.0
 10
227.829618
 20
-171.012541
 30
0.0
 10
227.111560
 20
-172.034129
 30
0.0
 10
226.341940
 20
-173.021935
 30
0.0
 10
225.521774
 20
-173.974181
 30
0.0
 10
224.651316
 20
-174.888835
 30
0.0
 10
224.651316
 20
-174.888835
 30
0.0
  0
LWPOLYLINE
  5
102
100
AcDbEntity
  8
0
 62
7
100
AcDbPolyline
 90
4
 70
1
 10
333.141320
 20
-108.543019
 30
0.0
 10
347.141800
 20
-108.543019
 30
0.0
 10
347.141800
 20
-94.545079
 30
0.0
 10
333.141320
 20
-94.545079
 30
0.0
  0
LWPOLYLINE
  5
103
100
AcDbEntity
  8
0
 62
7
100
AcDbPolyline
 90
4
 70
1
 10
167.830500
 20
-111.138899
 30
0.0
 10
170.261280
 20
-97.351779
 30
0.0
 10
156.474160
 20
-94.920999
 30
0.0
 10
154.043380
 20
-108.705579
 30
0.0
  0
LWPOLYLINE
  5
104
100
AcDbEntity
  8
0
 62
7
100
AcDbPolyline
 90
4
 70
1
 10
259.115560
 20
-108.728439
 30
0.0
 10
256.684780
 20
-94.938779
 30
0.0
 10
242.897660
 20
-97.372099
 30
0.0
 10
245.328440
 20
-111.159219
 30
0.0
  0
LWPOLYLINE
  5
105
100
AcDbEntity
  8
0
 62
7
100
AcDbPolyline
 90
4
 70
1
 10
309.326280
 20
-108.543019
 30
0.0
 10
323.326760
 20
-108.543019
 30
0.0
 10
323.326760
 20
-94.545079
 30
0.0
 10
309.326280
 20
-94.545079
 30
0.0
  0
LWPOLYLINE
  5
106
100
AcDbEntity
  8
0
 62
7
100
AcDbPolyline
 90
4
 70
1
 10
172.803820
 20
-112.015199
 30
0.0
 10
186.590940
 20
-114.445979
 30
0.0
 10
189.021720
 20
-100.658859
 30
0.0
 10
175.234600
 20
-98.228079
 30
0.0
  0
LWPOLYLINE
  5
107
100
AcDbEntity
  8
0
 62
7
100
AcDbPolyline
 90
4
 70
1
 10
51.389280
 20
-88.733559
 30
0.0
 10
37.388800
 20
-88.733559
 30
0.0
 10
37.388800
 20
-102.734039
 30
0.0
 10
51.389280
 20
-102.734039
 30
0.0
  0
LWPOLYLINE
  5
108
100
AcDbEntity
  8
0
 62
7
100
AcDbPolyline
 90
4
 70
1
 10
371.241320
 20
-88.733559
 30
0.0
 10
371.241320
 20
-102.734039
 30
0.0
 10
385.241800
 20
-102.734039
 30
0.0
 10
385.241800
 20
-88.733559
 30
0.0
  0
LWPOLYLINE
  5
109
100
AcDbEntity
  8
0
 62
7
100
AcDbPolyline
 90
4
 70
1
 10
156.524960
 20
-147.831739
 30
0.0
 10
158.955740
 20
-134.044619
 30
0.0
 10
145.168620
 20
-131.613839
 30
0.0
 10
142.737840
 20
-145.400959
 30
0.0
  0
LWPOLYLINE
  5
10a
100
AcDbEntity
  8
0
 62
7
100
AcDbPolyline
 90
4
 70
1
 10
277.876000
 20
-105.418819
 30
0.0
 10
275.445220
 20
-91.631699
 30
0.0
 10
261.658100
 20
-94.065019
 30
0.0
 10
264.088880
 20
-107.849599
 30
0.0
  0
LWPOLYLINE
  5
10b
100
AcDbEntity
  8
0
 62
7
100
AcDbPolyline
 90
4
 70
1
 10
130.309620
 20
-104.522199
 30
0.0
 10
132.740400
 20
-90.735079
 30
0.0
 10
118.953280
 20
-88.304299
 30
0.0
 10
116.522500
 20
-102.091419
 30
0.0
  0
LWPOLYLINE
  5
10c
100
AcDbEntity
  8
0
 62
7
100
AcDbPolyline
 90
4
 70
1
 10
65.963800
 20
-108.449039
 30
0.0
 10
79.964280
 20
-108.449039
 30
0.0
 10
79.964280
 20
-94.448559
 30
0.0
 10
65.963800
 20
-94.448559
 30
0.0
  0
LWPOLYLINE
  5
10d
100
AcDbEntity
  8
0
 62
7
100
AcDbPolyline
 90
4
 70
1
 10
89.776300
 20
-94.448559
 30
0.0
 10
89.776300
 20
-108.449039
 30
0.0
 10
103.776780
 20
-108.449039
 30
0.0
 10
103.776780
 20
-94.448559
 30
0.0
  0
LWPOLYLINE
  5
10e
100
AcDbEntity
  8
0
 62
7
100
AcDbPolyline
 90
4
 70
1
 10
296.636440
 20
-102.111739
 30
0.0
 10
294.205660
 20
-88.324619
 30
0.0
 10
280.418540
 20
-90.755399
 30
0.0
 10
282.849320
 20
-104.542519
 30
0.0
  0
LWPOLYLINE
  5
10f
100
AcDbEntity
  8
0
 62
7
100
AcDbPolyline
 90
4
 70
1
 10
151.500840
 20
-94.042159
 30
0.0
 10
137.713720
 20
-91.611379
 30
0.0
 10
135.282940
 20
-105.398499
 30
0.0
 10
149.070060
 20
-107.829279
 30
0.0
  0
LWPOLYLINE
  5
110
100
AcDbEntity
  8
0
 62
7
100
AcDbPolyline
 90
4
 70
1
 10
137.764520
 20
-144.524659
 30
0.0
 10
140.195300
 20
-130.737539
 30
0.0
 10
126.408180
 20
-128.306759
 30
0.0
 10
123.977400
 20
-142.093879
 30
0.0
  0
LWPOLYLINE
  5
111
100
AcDbEntity
  8
0
 62
7
100
AcDbPolyline
 90
4
 70
1
 10
94.251780
 20
-132.548559
 30
0.0
 10
80.251300
 20
-132.548559
 30
0.0
 10
80.251300
 20
-146.549039
 30
0.0
 10
94.251780
 20
-146.549039
 30
0.0
  0
LWPOLYLINE
  5
112
100
AcDbEntity
  8
0
 62
7
100
AcDbPolyline
 90
4
 70
1
 10
332.854300
 20
-132.645079
 30
0.0
 10
318.853820
 20
-132.645079
 30
0.0
 10
318.853820
 20
-146.643019
 30
0.0
 10
332.854300
 20
-146.643019
 30
0.0
  0
LWPOLYLINE
  5
113
100
AcDbEntity
  8
0
 62
7
100
AcDbPolyline
 90
4
 70
1
 10
307.941980
 20
-138.804579
 30
0.0
 10
305.511200
 20
-125.019999
 30
0.0
 10
291.724080
 20
-127.450779
 30
0.0
 10
294.154860
 20
-141.237899
 30
0.0
  0
LWPOLYLINE
  5
114
100
AcDbEntity
  8
0
 62
7
100
AcDbPolyline
 90
4
 70
1
 10
275.394420
 20
-144.544979
 30
0.0
 10
289.181540
 20
-142.114199
 30
0.0
 10
286.750760
 20
-128.327079
 30
0.0
 10
272.963640
 20
-130.757859
 30
0.0
  0
LWPOLYLINE
  5
115
100
AcDbEntity
  8
0
 62
7
100
AcDbPolyline
 90
4
 70
1
 10
243.575840
 20
-116.594819
 30
0.0
 10
229.788720
 20
-119.025599
 30
0.0
 10
232.219500
 20
-132.812719
 30
0.0
 10
246.009160
 20
-130.381939
 30
0.0
  0
LWPOLYLINE
  5
116
100
AcDbEntity
  8
0
 62
7
100
AcDbPolyline
 90
4
 70
1
 10
105.216960
 20
-138.784259
 30
0.0
 10
119.004080
 20
-141.215039
 30
0.0
 10
121.434860
 20
-127.427919
 30
0.0
 10
107.647740
 20
-124.997139
 30
0.0
  0
LWPOLYLINE
  5
117
100
AcDbEntity
  8
0
 62
7
100
AcDbPolyline
 90
4
 70
1
 10
148.389340
 20
-127.054539
 30
0.0
 10
162.179000
 20
-129.485319
 30
0.0
 10
164.609780
 20
-115.698199
 30
0.0
 10
150.822660
 20
-113.267419
 30
0.0
  0
LWPOLYLINE
  5
118
100
AcDbEntity
  8
0
 62
7
100
AcDbPolyline
 90
4
 70
1
 10
180.939440
 20
-132.792399
 30
0.0
 10
183.370220
 20
-119.005279
 30
0.0
 10
169.583100
 20
-116.574499
 30
0.0
 10
167.152320
 20
-130.361619
 30
0.0
  0
LWPOLYLINE
  5
119
100
AcDbEntity
  8
0
 62
7
100
AcDbPolyline
 90
4
 70
1
 10
262.336280
 20
-113.287739
 30
0.0
 10
248.551700
 20
-115.718519
 30
0.0
 10
250.982480
 20
-129.505639
 30
0.0
 10
264.769600
 20
-127.074859
 30
0.0
  0
LWPOLYLINE
  5
11a
100
AcDbEntity
  8
0
 62
7
100
AcDbPolyline
 90
44
 70
1
 10
346.295980
 20
-134.113199
 30
0.0
 10
346.295980
 20
-137.344079
 30
0.0
 10
345.470480
 20
-137.344079
 30
0.0
 10
345.470480
 20
-140.143159
 30
0.0
 10
346.295980
 20
-140.143159
 30
0.0
 10
346.295980
 20
-146.414419
 30
0.0
 10
348.020640
 20
-146.414419
 30
0.0
 10
348.020640
 20
-147.394859
 30
0.0
 10
351.322640
 20
-147.394859
 30
0.0
 10
351.322640
 20
-146.414419
 30
0.0
 10
353.047300
 20
-146.414419
 30
0.0
 10
353.047300
 20
-141.944019
 30
0.0
 10
354.571300
 20
-141.944019
 30
0.0
 10
354.571300
 20
-146.643019
 30
0.0
 10
368.571780
 20
-146.643019
 30
0.0
 10
368.571780
 20
-141.944019
 30
0.0
 10
370.095780
 20
-141.944019
 30
0.0
 10
370.095780
 20
-146.414419
 30
0.0
 10
371.820440
 20
-146.414419
 30
0.0
 10
371.820440
 20
-147.394859
 30
0.0
 10
375.122440
 20
-147.394859
 30
0.0
 10
375.122440
 20
-146.414419
 30
0.0
 10
376.847100
 20
-146.414419
 30
0.0
 10
376.847100
 20
-140.143159
 30
0.0
 10
377.672600
 20
-140.143159
 30
0.0
 10
377.672600
 20
-137.344079
 30
0.0
 10
376.847100
 20
-137.344079
 30
0.0
 10
376.847100
 20
-134.113199
 30
0.0
 10
375.122440
 20
-134.113199
 30
0.0
 10
375.122440
 20
-133.193719
 30
0.0
 10
371.820440
 20
-133.193719
 30
0.0
 10
371.820440
 20
-134.113199
 30
0.0
 10
370.095780
 20
-134.113199
 30
0.0
 10
370.095780
 20
-137.344079
 30
0.0
 10
368.571780
 20
-137.344079
 30
0.0
 10
368.571780
 20
-132.645079
 30
0.0
 10
354.571300
 20
-132.645079
 30
0.0
 10
354.571300
 20
-137.344079
 30
0.0
 10
353.047300
 20
-137.344079
 30
0.0
 10
353.047300
 20
-134.113199
 30
0.0
 10
351.322640
 20
-134.113199
 30
0.0
 10
351.322640
 20
-133.193719
 30
0.0
 10
348.020640
 20
-133.193719
 30
0.0
 10
348.020640
 20
-134.113199
 30
0.0
  0
LWPOLYLINE
  5
11b
100
AcDbEntity
  8
0
 62
7
100
AcDbPolyline
 90
44
 70
1
 10
40.195500
 20
-140.049179
 30
0.0
 10
41.021000
 20
-140.049179
 30
0.0
 10
41.021000
 20
-146.317899
 30
0.0
 10
42.745660
 20
-146.317899
 30
0.0
 10
42.745660
 20
-147.298339
 30
0.0
 10
46.045120
 20
-147.298339
 30
0.0
 10
46.045120
 20
-146.317899
 30
0.0
 10
47.769780
 20
-146.317899
 30
0.0
 10
47.769780
 20
-141.850039
 30
0.0
 10
49.296320
 20
-141.850039
 30
0.0
 10
49.296320
 20
-146.549039
 30
0.0
 10
63.296800
 20
-146.549039
 30
0.0
 10
63.296800
 20
-141.850039
 30
0.0
 10
64.820800
 20
-141.850039
 30
0.0
 10
64.820800
 20
-146.317899
 30
0.0
 10
66.545460
 20
-146.317899
 30
0.0
 10
66.545460
 20
-147.298339
 30
0.0
 10
69.844920
 20
-147.298339
 30
0.0
 10
69.844920
 20
-146.317899
 30
0.0
 10
71.569580
 20
-146.317899
 30
0.0
 10
71.569580
 20
-140.049179
 30
0.0
 10
72.395080
 20
-140.049179
 30
0.0
 10
72.395080
 20
-137.247559
 30
0.0
 10
71.569580
 20
-137.247559
 30
0.0
 10
71.569580
 20
-134.019219
 30
0.0
 10
69.844920
 20
-134.019219
 30
0.0
 10
69.844920
 20
-133.099739
 30
0.0
 10
66.545460
 20
-133.099739
 30
0.0
 10
66.545460
 20
-134.019219
 30
0.0
 10
64.820800
 20
-134.019219
 30
0.0
 10
64.820800
 20
-137.247559
 30
0.0
 10
63.296800
 20
-137.247559
 30
0.0
 10
63.296800
 20
-132.548559
 30
0.0
 10
49.296320
 20
-132.548559
 30
0.0
 10
49.296320
 20
-137.247559
 30
0.0
 10
47.769780
 20
-137.247559
 30
0.0
 10
47.769780
 20
-134.019219
 30
0.0
 10
46.045120
 20
-134.019219
 30
0.0
 10
46.045120
 20
-133.099739
 30
0.0
 10
42.745660
 20
-133.099739
 30
0.0
 10
42.745660
 20
-134.019219
 30
0.0
 10
41.021000
 20
-134.019219
 30
0.0
 10
41.021000
 20
-137.247559
 30
0.0
 10
40.195500
 20
-137.247559
 30
0.0
  0
LWPOLYLINE
  5
11c
100
AcDbEntity
  8
0
 62
7
100
AcDbPolyline
 90
4
 70
1
 10
237.924340
 20
-98.248399
 30
0.0
 10
224.137220
 20
-100.679179
 30
0.0
 10
226.568000
 20
-114.466299
 30
0.0
 10
240.355120
 20
-112.035519
 30
0.0
  0
LWPOLYLINE
  5
11d
100
AcDbEntity
  8
0
 62
7
100
AcDbPolyline
 90
4
 70
1
 10
299.859700
 20
-106.671039
 30
0.0
 10
286.072580
 20
-109.101819
 30
0.0
 10
288.503360
 20
-122.888939
 30
0.0
 10
302.290480
 20
-120.458159
 30
0.0
  0
LWPOLYLINE
  5
11e
100
AcDbEntity
  8
0
 62
7
100
AcDbPolyline
 90
4
 70
1
 10
72.821800
 20
-127.499039
 30
0.0
 10
72.821800
 20
-113.498559
 30
0.0
 10
58.821320
 20
-113.498559
 30
0.0
 10
58.821320
 20
-127.499039
 30
0.0
  0
LWPOLYLINE
  5
11f
100
AcDbEntity
  8
0
 62
7
100
AcDbPolyline
 90
4
 70
1
 10
143.418560
 20
-126.175699
 30
0.0
 10
145.849340
 20
-112.388579
 30
0.0
 10
132.062220
 20
-109.957799
 30
0.0
 10
129.631440
 20
-123.744919
 30
0.0
  0
LWPOLYLINE
  5
120
100
AcDbEntity
  8
0
 62
7
100
AcDbPolyline
 90
4
 70
1
 10
124.655580
 20
-122.868619
 30
0.0
 10
127.088900
 20
-109.081499
 30
0.0
 10
113.301780
 20
-106.650719
 30
0.0
 10
110.868460
 20
-120.437839
 30
0.0
  0
LWPOLYLINE
  5
121
100
AcDbEntity
  8
0
 62
7
100
AcDbPolyline
 90
4
 70
1
 10
283.530040
 20
-123.767779
 30
0.0
 10
281.099260
 20
-109.980659
 30
0.0
 10
267.309600
 20
-112.411439
 30
0.0
 10
269.740380
 20
-126.198559
 30
0.0
  0
LWPOLYLINE
  5
122
100
AcDbEntity
  8
0
 62
7
100
AcDbPolyline
 90
4
 70
1
 10
99.014280
 20
-127.499039
 30
0.0
 10
99.014280
 20
-113.498559
 30
0.0
 10
85.013800
 20
-113.498559
 30
0.0
 10
85.013800
 20
-127.499039
 30
0.0
  0
LWPOLYLINE
  5
123
100
AcDbEntity
  8
0
 62
7
100
AcDbPolyline
 90
4
 70
1
 10
314.091320
 20
-113.595079
 30
0.0
 10
314.091320
 20
-127.593019
 30
0.0
 10
328.091800
 20
-127.593019
 30
0.0
 10
328.091800
 20
-113.595079
 30
0.0
  0
LWPOLYLINE
  5
124
100
AcDbEntity
  8
0
 62
7
100
AcDbPolyline
 90
44
 70
1
 10
341.797640
 20
-127.364419
 30
0.0
 10
343.522300
 20
-127.364419
 30
0.0
 10
343.522300
 20
-122.894019
 30
0.0
 10
345.046300
 20
-122.894019
 30
0.0
 10
345.046300
 20
-127.593019
 30
0.0
 10
359.046780
 20
-127.593019
 30
0.0
 10
359.046780
 20
-122.894019
 30
0.0
 10
360.570780
 20
-122.894019
 30
0.0
 10
360.570780
 20
-127.364419
 30
0.0
 10
362.295440
 20
-127.364419
 30
0.0
 10
362.295440
 20
-128.344859
 30
0.0
 10
365.597440
 20
-128.344859
 30
0.0
 10
365.597440
 20
-127.364419
 30
0.0
 10
367.322100
 20
-127.364419
 30
0.0
 10
367.322100
 20
-121.093159
 30
0.0
 10
368.147600
 20
-121.093159
 30
0.0
 10
368.147600
 20
-118.294079
 30
0.0
 10
367.322100
 20
-118.294079
 30
0.0
 10
367.322100
 20
-115.063199
 30
0.0
 10
365.597440
 20
-115.063199
 30
0.0
 10
365.597440
 20
-114.143719
 30
0.0
 10
362.295440
 20
-114.143719
 30
0.0
 10
362.295440
 20
-115.063199
 30
0.0
 10
360.570780
 20
-115.063199
 30
0.0
 10
360.570780
 20
-118.294079
 30
0.0
 10
359.046780
 20
-118.294079
 30
0.0
 10
359.046780
 20
-113.595079
 30
0.0
 10
345.046300
 20
-113.595079
 30
0.0
 10
345.046300
 20
-118.294079
 30
0.0
 10
343.522300
 20
-118.294079
 30
0.0
 10
343.522300
 20
-115.063199
 30
0.0
 10
341.797640
 20
-115.063199
 30
0.0
 10
341.797640
 20
-114.143719
 30
0.0
 10
338.495640
 20
-114.143719
 30
0.0
 10
338.495640
 20
-115.063199
 30
0.0
 10
336.770980
 20
-115.063199
 30
0.0
 10
336.770980
 20
-118.294079
 30
0.0
 10
335.945480
 20
-118.294079
 30
0.0
 10
335.945480
 20
-121.093159
 30
0.0
 10
336.770980
 20
-121.093159
 30
0.0
 10
336.770980
 20
-127.364419
 30
0.0
 10
338.495640
 20
-127.364419
 30
0.0
 10
338.495640
 20
-128.344859
 30
0.0
 10
341.797640
 20
-128.344859
 30
0.0
  0
LWPOLYLINE
  5
125
100
AcDbEntity
  8
0
 62
7
100
AcDbPolyline
 90
4
 70
1
 10
231.475280
 20
-176.117179
 30
0.0
 10
237.830360
 20
-188.591119
 30
0.0
 10
250.304300
 20
-182.236039
 30
0.0
 10
243.949220
 20
-169.759559
 30
0.0
  0
LWPOLYLINE
  5
126
100
AcDbEntity
  8
0
 62
7
100
AcDbPolyline
 90
4
 70
1
 10
215.653620
 20
-193.368859
 30
0.0
 10
223.883220
 20
-204.694719
 30
0.0
 10
235.209080
 20
-196.465119
 30
0.0
 10
226.979480
 20
-185.139259
 30
0.0
  0
LWPOLYLINE
  5
127
100
AcDbEntity
  8
0
 62
7
100
AcDbPolyline
 90
4
 70
1
 10
189.100460
 20
-204.707419
 30
0.0
 10
197.330060
 20
-193.381559
 30
0.0
 10
186.004200
 20
-185.151959
 30
0.0
 10
177.774600
 20
-196.477819
 30
0.0
  0
LWPOLYLINE
  5
128
100
AcDbEntity
  8
0
 62
7
100
AcDbPolyline
 90
4
 70
1
 10
62.344300
 20
-165.599039
 30
0.0
 10
62.344300
 20
-151.598559
 30
0.0
 10
48.343820
 20
-151.598559
 30
0.0
 10
48.343820
 20
-165.599039
 30
0.0
  0
LWPOLYLINE
  5
129
100
AcDbEntity
  8
0
 62
7
100
AcDbPolyline
 90
4
 70
1
 10
162.816540
 20
-182.172539
 30
0.0
 10
175.290480
 20
-188.527619
 30
0.0
 10
181.648100
 20
-176.053679
 30
0.0
 10
169.174160
 20
-169.698599
 30
0.0
  0
LWPOLYLINE
  5
12a
100
AcDbEntity
  8
0
 62
7
100
AcDbPolyline
 90
4
 70
1
 10
115.041680
 20
-159.861179
 30
0.0
 10
128.828800
 20
-162.291959
 30
0.0
 10
131.259580
 20
-148.504839
 30
0.0
 10
117.472460
 20
-146.074059
 30
0.0
  0
LWPOLYLINE
  5
12b
100
AcDbEntity
  8
0
 62
7
100
AcDbPolyline
 90
4
 70
1
 10
251.660660
 20
-148.730899
 30
0.0
 10
249.229880
 20
-134.943779
 30
0.0
 10
235.442760
 20
-137.374559
 30
0.0
 10
237.873540
 20
-151.161679
 30
0.0
  0
LWPOLYLINE
  5
12c
100
AcDbEntity
  8
0
 62
7
100
AcDbPolyline
 90
4
 70
1
 10
163.929060
 20
-134.920919
 30
0.0
 10
161.498280
 20
-148.708039
 30
0.0
 10
175.285400
 20
-151.138819
 30
0.0
 10
177.716180
 20
-137.351699
 30
0.0
  0
LWPOLYLINE
  5
12d
100
AcDbEntity
  8
0
 62
7
100
AcDbPolyline
 90
4
 70
1
 10
326.948800
 20
-165.599039
 30
0.0
 10
340.949280
 20
-165.599039
 30
0.0
 10
340.949280
 20
-151.598559
 30
0.0
 10
326.948800
 20
-151.598559
 30
0.0
  0
LWPOLYLINE
  5
12e
100
AcDbEntity
  8
0
 62
7
100
AcDbPolyline
 90
4
 70
1
 10
256.633980
 20
-147.852059
 30
0.0
 10
270.421100
 20
-145.421279
 30
0.0
 10
267.990320
 20
-131.634159
 30
0.0
 10
254.203200
 20
-134.064939
 30
0.0
  0
LWPOLYLINE
  5
12f
100
AcDbEntity
  8
0
 62
7
100
AcDbPolyline
 90
4
 70
1
 10
281.899360
 20
-148.525159
 30
0.0
 10
284.332680
 20
-162.312279
 30
0.0
 10
298.119800
 20
-159.881499
 30
0.0
 10
295.686480
 20
-146.094379
 30
0.0
  0
LWPOLYLINE
  5
130
100
AcDbEntity
  8
0
 62
7
100
AcDbPolyline
 90
4
 70
1
 10
86.156800
 20
-165.599039
 30
0.0
 10
86.156800
 20
-151.598559
 30
0.0
 10
72.156320
 20
-151.598559
 30
0.0
 10
72.156320
 20
-165.599039
 30
0.0
  0
LWPOLYLINE
  5
131
100
AcDbEntity
  8
0
 62
7
100
AcDbPolyline
 90
4
 70
1
 10
158.935420
 20
-174.021679
 30
0.0
 10
163.261040
 20
-160.706999
 30
0.0
 10
149.946360
 20
-156.381379
 30
0.0
 10
145.620740
 20
-169.696059
 30
0.0
  0
LWPOLYLINE
  5
132
100
AcDbEntity
  8
0
 62
7
100
AcDbPolyline
 90
4
 70
1
 10
249.849640
 20
-160.760339
 30
0.0
 10
254.175260
 20
-174.075019
 30
0.0
 10
267.489940
 20
-169.749399
 30
0.0
 10
263.164320
 20
-156.434719
 30
0.0
  0
LWPOLYLINE
  5
133
100
AcDbEntity
  8
0
 62
7
100
AcDbPolyline
 90
4
 70
1
 10
364.761780
 20
-151.598559
 30
0.0
 10
350.761300
 20
-151.598559
 30
0.0
 10
350.761300
 20
-165.599039
 30
0.0
 10
364.761780
 20
-165.599039
 30
0.0
  0
ENDSEC
  0
SECTION
  2
OBJECTS
  0
DICTIONARY
  5
C
330
0
100
AcDbDictionary
  3
ACAD_GROUP
350
D
  3
ACAD_MLINESTYLE
350
17
  0
DICTIONARY
  5
D
330
C
100
AcDbDictionary
  0
DICTIONARY
  5
1A
330
C
100
AcDbDictionary
  0
DICTIONARY
  5
17
330
C
100
AcDbDictionary
  3
STANDARD
350
18
  0
DICTIONARY
  5
19
330
C
100
AcDbDictionary
  0
ENDSEC
  0
EOF
