999
"DXF R12 Output" (www.mydxf.blogspot.com)
 0 
SECTION
 2 
HEADER
 9 
$ACADVER
 1 
AC1009
 9 
$EXTMIN
 10 
 0 
 20 
 0 
 9 
$EXTMAX
 10 
 8.5 
 20 
 11 
 0 
ENDSEC
 0 
SECTION
 2 
ENTITIES
0
LINE
8
Layer 1
10
204.767000
20
211.018000
11
208.460200
21
211.429900
0
LINE
8
Layer 1
10
245.325700
20
215.706310
11
249.005050
21
216.115350
0
LINE
8
Layer 1
10
237.964250
20
214.865330
11
241.646370
21
215.288680
0
LINE
8
Layer 1
10
223.221870
20
213.134740
11
226.909520
21
213.569530
0
LINE
8
Layer 1
10
153.034420
20
206.987590
11
156.727620
21
207.119160
0
LINE
8
Layer 1
10
241.646320
20
215.288680
11
245.325670
21
215.706310
0
LINE
8
Layer 1
10
215.840970
20
212.273740
11
219.531400
21
212.702810
0
LINE
8
Layer 1
10
234.279300
20
214.436260
11
237.964190
21
214.865330
0
LINE
8
Layer 1
10
226.909490
20
213.569530
11
230.594390
21
214.004320
0
LINE
8
Layer 1
10
182.599390
20
208.803980
11
186.292610
21
209.135800
0
LINE
8
Layer 1
10
178.903430
20
208.495060
11
182.599390
21
208.803980
0
LINE
8
Layer 1
10
149.338390
20
206.887460
11
153.034370
21
206.987590
0
LINE
8
Layer 1
10
201.070970
20
210.617510
11
204.766950
21
211.018000
0
LINE
8
Layer 1
10
230.594450
20
214.004330
11
234.279340
21
214.436240
0
LINE
8
Layer 1
10
145.645240
20
206.818820
11
149.338450
21
206.887520
0
LINE
8
Layer 1
10
208.460150
20
211.429940
11
212.150590
21
211.847570
0
LINE
8
Layer 1
10
219.531440
20
212.702850
11
223.221880
21
213.134780
0
LINE
8
Layer 1
10
197.377780
20
210.222820
11
201.070980
21
210.617560
0
LINE
8
Layer 1
10
164.119580
20
207.473920
11
167.815550
21
207.691300
0
LINE
8
Layer 1
10
160.423600
20
207.282250
11
164.119580
21
207.473920
0
LINE
8
Layer 1
10
138.261580
20
206.793110
11
141.952020
21
206.787110
0
LINE
8
Layer 1
10
167.815520
20
207.691020
11
171.511500
21
207.934180
0
LINE
8
Layer 1
10
186.292600
20
209.135570
11
189.988570
21
209.484540
0
LINE
8
Layer 1
10
189.988570
20
209.484540
11
193.684550
21
209.847820
0
LINE
8
Layer 1
10
156.727550
20
207.118930
11
160.423520
21
207.281980
0
LINE
8
Layer 1
10
193.684520
20
209.847820
11
197.377710
21
210.222550
0
LINE
8
Layer 1
10
171.511410
20
207.934180
11
175.207380
21
208.203060
0
LINE
8
Layer 1
10
141.951880
20
206.787110
11
145.645080
21
206.818510
0
LINE
8
Layer 1
10
266.432080
20
188.325610
11
266.443080
21
116.756610
0
LINE
8
Layer 1
10
175.207380
20
208.203010
11
178.903360
21
208.494780
0
LINE
8
Layer 1
10
212.150460
20
211.847260
11
215.840890
21
212.273470
0
LINE
8
Layer 1
10
164.451890
20
118.870470
11
166.208440
21
118.449980
0
LINE
8
Layer 1
10
141.483640
20
130.712880
11
142.400710
21
129.731740
0
LINE
8
Layer 1
10
171.461510
20
117.454540
11
173.190370
21
117.217120
0
LINE
8
Layer 1
10
138.336270
20
137.097420
11
138.549620
21
135.978970
0
LINE
8
Layer 1
10
155.915720
20
121.593670
11
157.569780
21
120.970080
0
LINE
8
Layer 1
10
149.729000
20
124.457000
11
151.197410
21
123.690390
0
LINE
8
Layer 1
10
138.549610
20
135.978990
11
138.895930
21
134.880580
0
LINE
8
Layer 1
10
174.899830
20
117.025480
11
176.578830
21
116.885320
0
LINE
8
Layer 1
10
166.208530
20
118.449990
11
167.965090
21
118.072420
0
LINE
8
Layer 1
10
138.261490
20
138.238720
11
138.336290
21
137.097390
0
LINE
8
Layer 1
10
146.977810
20
126.093190
11
148.318770
21
125.260790
0
LINE
8
Layer 1
10
151.197420
20
123.690390
11
152.724010
21
122.955250
0
LINE
8
Layer 1
10
148.318770
20
125.260790
11
149.729010
21
124.457000
0
LINE
8
Layer 1
10
159.259850
20
120.383680
11
160.972080
21
119.837330
0
LINE
8
Layer 1
10
154.297710
20
122.257300
11
155.915740
21
121.593670
0
LINE
8
Layer 1
10
144.520240
20
127.855240
11
145.708830
21
126.959910
0
LINE
8
Layer 1
10
167.965030
20
118.072430
11
169.718820
21
117.740610
0
LINE
8
Layer 1
10
152.724020
20
122.955250
11
154.297720
21
122.257300
0
LINE
8
Layer 1
10
139.959920
20
132.749500
11
140.666430
21
131.716870
0
LINE
8
Layer 1
10
157.569830
20
120.970070
11
159.259890
21
120.383670
0
LINE
8
Layer 1
10
179.831590
20
116.756590
11
266.443090
21
116.756590
0
LINE
8
Layer 1
10
252.684290
20
216.515490
11
256.358110
21
216.901650
0
LINE
8
Layer 1
10
142.401110
20
129.731650
11
143.415150
21
128.779110
0
LINE
8
Layer 1
10
162.704050
20
119.333830
11
164.452310
21
118.870430
0
LINE
8
Layer 1
10
176.579210
20
116.885270
11
178.224930
21
116.793770
0
LINE
8
Layer 1
10
138.896330
20
134.880570
11
139.370100
21
133.802170
0
LINE
8
Layer 1
10
178.224900
20
116.793770
11
179.831850
21
116.756670
0
LINE
8
Layer 1
10
256.358450
20
216.901670
11
266.432250
21
188.325570
0
LINE
8
Layer 1
10
143.415250
20
128.779070
11
144.520710
21
127.855140
0
LINE
8
Layer 1
10
169.719310
20
117.740540
11
171.462010
21
117.454500
0
LINE
8
Layer 1
10
173.190860
20
117.217080
11
174.900320
21
117.025430
0
LINE
8
Layer 1
10
140.666820
20
131.716830
11
141.484140
21
130.712800
0
LINE
8
Layer 1
10
160.972540
20
119.837300
11
162.704150
21
119.333860
0
LINE
8
Layer 1
10
145.709350
20
126.959880
11
146.978280
21
126.093150
0
LINE
8
Layer 1
10
139.370230
20
133.802120
11
139.960360
21
132.749480
0
LINE
8
Layer 1
10
138.261980
20
138.238720
11
138.261980
21
206.792720
0
LINE
8
Layer 1
10
249.004980
20
216.115010
11
252.684340
21
216.515470
 0 
ENDSEC
 0 
EOF