999
"DXF R12 Output" (www.mydxf.blogspot.com)
 0 
SECTION
 2 
HEADER
 9 
$ACADVER
 1 
AC1009
 9 
$EXTMIN
 10 
 0 
 20 
 0 
 9 
$EXTMAX
 10 
 8.5 
 20 
 11 
 0 
ENDSEC
 0 
SECTION
 2 
ENTITIES
0
LINE
8
Layer 1
10
186.891000
20
149.294000
11
190.570360
21
149.694460
0
LINE
8
Layer 1
10
76.148000
20
71.417600
11
76.148000
21
139.971600
0
LINE
8
Layer 1
10
77.256200
20
66.981000
11
77.846330
21
65.928360
0
LINE
8
Layer 1
10
83.595400
20
60.138700
11
84.864330
21
59.271970
0
LINE
8
Layer 1
10
98.858600
20
53.016100
11
100.590210
21
52.512660
0
LINE
8
Layer 1
10
78.552900
20
64.895700
11
79.370220
21
63.891670
0
LINE
8
Layer 1
10
111.077000
20
50.395900
11
112.786460
21
50.204250
0
LINE
8
Layer 1
10
107.605000
20
50.919400
11
109.347700
21
50.633360
0
LINE
8
Layer 1
10
81.301300
20
61.958000
11
82.406760
21
61.034070
0
LINE
8
Layer 1
10
194.245000
20
150.081000
11
204.318800
21
121.504900
0
LINE
8
Layer 1
10
116.111000
20
49.972500
11
117.717950
21
49.935400
0
LINE
8
Layer 1
10
76.782500
20
68.059300
11
77.256270
21
66.980900
0
LINE
8
Layer 1
10
114.465000
20
50.064000
11
116.110720
21
49.972500
0
LINE
8
Layer 1
10
100.590000
20
52.512600
11
102.338260
21
52.049200
0
LINE
8
Layer 1
10
80.287300
20
62.910400
11
81.301340
21
61.957860
0
LINE
8
Layer 1
10
190.571000
20
149.694000
11
194.244820
21
150.080160
0
LINE
8
Layer 1
10
117.718000
20
49.935300
11
175.887200
21
50.025650
0
LINE
8
Layer 1
10
95.456300
20
54.148700
11
97.146360
21
53.562300
0
LINE
8
Layer 1
10
77.846400
20
65.928200
11
78.552910
21
64.895570
0
LINE
8
Layer 1
10
90.610500
20
56.133900
11
92.184200
21
55.435950
0
LINE
8
Layer 1
10
105.852000
20
51.251100
11
107.605790
21
50.919280
0
LINE
8
Layer 1
10
82.406800
20
61.033900
11
83.595390
21
60.138570
0
LINE
8
Layer 1
10
92.184200
20
55.435900
11
93.802230
21
54.772270
0
LINE
8
Layer 1
10
97.146400
20
53.562300
11
98.858630
21
53.015950
0
LINE
8
Layer 1
10
86.205300
20
58.439400
11
87.615540
21
57.635610
0
LINE
8
Layer 1
10
89.083900
20
56.869000
11
90.610490
21
56.133860
0
LINE
8
Layer 1
10
84.864300
20
59.271800
11
86.205260
21
58.439400
0
LINE
8
Layer 1
10
76.148000
20
71.417400
11
76.222800
21
70.276070
0
LINE
8
Layer 1
10
104.095000
20
51.628700
11
105.851560
21
51.251130
0
LINE
8
Layer 1
10
112.786000
20
50.204100
11
114.465000
21
50.063940
0
LINE
8
Layer 1
10
76.436200
20
69.157600
11
76.782520
21
68.059190
0
LINE
8
Layer 1
10
87.615500
20
57.635600
11
89.083910
21
56.868990
0
LINE
8
Layer 1
10
93.802300
20
54.772300
11
95.456360
21
54.148710
0
LINE
8
Layer 1
10
76.222800
20
70.276100
11
76.436150
21
69.157650
0
LINE
8
Layer 1
10
109.348000
20
50.633200
11
111.076860
21
50.395780
0
LINE
8
Layer 1
10
79.370200
20
63.891500
11
80.287270
21
62.910360
0
LINE
8
Layer 1
10
102.338000
20
52.049100
11
104.094550
21
51.628610
0
LINE
8
Layer 1
10
150.037000
20
145.026000
11
153.727430
21
145.452210
0
LINE
8
Layer 1
10
113.094000
20
141.382000
11
116.789980
21
141.673770
0
LINE
8
Layer 1
10
79.838500
20
139.966000
11
83.531700
21
139.997400
0
LINE
8
Layer 1
10
109.398000
20
141.113000
11
113.093970
21
141.381880
0
LINE
8
Layer 1
10
131.571000
20
143.027000
11
135.264190
21
143.401730
0
LINE
8
Layer 1
10
94.614100
20
140.298000
11
98.310070
21
140.461050
0
LINE
8
Layer 1
10
127.875000
20
142.663000
11
131.570980
21
143.026280
0
LINE
8
Layer 1
10
124.179000
20
142.314000
11
127.874970
21
142.662970
0
LINE
8
Layer 1
10
105.702000
20
140.870000
11
109.397980
21
141.113160
0
LINE
8
Layer 1
10
76.148100
20
139.972000
11
79.838540
21
139.966000
0
LINE
8
Layer 1
10
98.310100
20
140.461000
11
102.006080
21
140.652670
0
LINE
8
Layer 1
10
102.006000
20
140.653000
11
105.701970
21
140.870380
0
LINE
8
Layer 1
10
135.264000
20
143.402000
11
138.957200
21
143.796740
0
LINE
8
Layer 1
10
157.418000
20
145.882000
11
161.108440
21
146.313930
0
LINE
8
Layer 1
10
146.347000
20
144.609000
11
150.037440
21
145.026630
0
LINE
8
Layer 1
10
83.531700
20
139.998000
11
87.224910
21
140.066700
0
LINE
8
Layer 1
10
168.481000
20
147.183000
11
172.165890
21
147.614910
0
LINE
8
Layer 1
10
138.957000
20
143.796000
11
142.652980
21
144.196490
0
LINE
8
Layer 1
10
87.225000
20
140.066000
11
90.920980
21
140.166130
0
LINE
8
Layer 1
10
116.790000
20
141.674000
11
120.485960
21
141.982920
0
LINE
8
Layer 1
10
120.486000
20
141.983000
11
124.179220
21
142.314820
0
LINE
8
Layer 1
10
164.796000
20
146.748000
11
168.480900
21
147.182790
0
LINE
8
Layer 1
10
172.166000
20
147.615000
11
175.850890
21
148.044070
0
LINE
8
Layer 1
10
153.728000
20
145.452000
11
157.418430
21
145.881070
0
LINE
8
Layer 1
10
179.533000
20
148.467000
11
183.212350
21
148.884630
0
LINE
8
Layer 1
10
90.920900
20
140.166000
11
94.614100
21
140.297570
0
LINE
8
Layer 1
10
161.108000
20
146.313000
11
164.795650
21
146.747790
0
LINE
8
Layer 1
10
175.851000
20
148.044000
11
179.533120
21
148.467350
0
LINE
8
Layer 1
10
183.212000
20
148.885000
11
186.891350
21
149.294040
0
LINE
8
Layer 1
10
142.653000
20
144.197000
11
146.346200
21
144.608900
0
LINE
8
Layer 1
10
204.318000
20
121.504000
11
175.887000
21
110.496000
0
LINE
8
Layer 1
10
175.887000
20
110.496000
11
175.887000
21
50.025600
0
LINE
8
Layer 1
10
177.606000
20
133.366000
11
190.960000
21
138.226060
0
LINE
8
Layer 1
10
190.960000
20
138.226060
11
195.820050
21
124.872060
0
LINE
8
Layer 1
10
195.820050
20
124.872060
11
182.466050
21
120.011990
0
LINE
8
Layer 1
10
182.466050
20
120.011990
11
177.606000
21
133.366000
0
LINE
8
Layer 1
10
102.078000
20
119.740000
11
102.078000
21
133.950700
0
LINE
8
Layer 1
10
102.078000
20
133.950700
11
116.288700
21
133.950700
0
LINE
8
Layer 1
10
116.288700
20
133.950700
11
116.288700
21
119.740000
0
LINE
8
Layer 1
10
116.288700
20
119.740000
11
102.078000
21
119.740000
0
LINE
8
Layer 1
10
121.415000
20
114.906000
11
121.415000
21
129.116700
0
LINE
8
Layer 1
10
121.415000
20
129.116700
11
135.625700
21
129.116700
0
LINE
8
Layer 1
10
135.625700
20
129.116700
11
135.625700
21
114.906000
0
LINE
8
Layer 1
10
135.625700
20
114.906000
11
121.415000
21
114.906000
0
LINE
8
Layer 1
10
82.741700
20
114.906000
11
82.741700
21
129.116700
0
LINE
8
Layer 1
10
82.741700
20
129.116700
11
96.952400
21
129.116700
0
LINE
8
Layer 1
10
96.952400
20
129.116700
11
96.952400
21
114.906000
0
LINE
8
Layer 1
10
96.952400
20
114.906000
11
82.741700
21
114.906000
0
LINE
8
Layer 1
10
160.089000
20
110.072000
11
160.089000
21
124.282700
0
LINE
8
Layer 1
10
160.089000
20
124.282700
11
174.299700
21
124.282700
0
LINE
8
Layer 1
10
174.299700
20
124.282700
11
174.299700
21
110.072000
0
LINE
8
Layer 1
10
174.299700
20
110.072000
11
160.089000
21
110.072000
0
LINE
8
Layer 1
10
140.752000
20
105.238000
11
140.752000
21
119.448700
0
LINE
8
Layer 1
10
140.752000
20
119.448700
11
154.962700
21
119.448700
0
LINE
8
Layer 1
10
154.962700
20
119.448700
11
154.962700
21
105.238000
0
LINE
8
Layer 1
10
154.962700
20
105.238000
11
140.752000
21
105.238000
0
LINE
8
Layer 1
10
102.078000
20
100.403000
11
102.078000
21
114.613700
0
LINE
8
Layer 1
10
102.078000
20
114.613700
11
116.288700
21
114.613700
0
LINE
8
Layer 1
10
116.288700
20
114.613700
11
116.288700
21
100.403000
0
LINE
8
Layer 1
10
116.288700
20
100.403000
11
102.078000
21
100.403000
0
LINE
8
Layer 1
10
121.415000
20
95.569700
11
121.415000
21
109.780400
0
LINE
8
Layer 1
10
121.415000
20
109.780400
11
135.625700
21
109.780400
0
LINE
8
Layer 1
10
135.625700
20
109.780400
11
135.625700
21
95.569700
0
LINE
8
Layer 1
10
135.625700
20
95.569700
11
121.415000
21
95.569700
0
LINE
8
Layer 1
10
82.741700
20
95.569700
11
82.741700
21
109.780000
0
LINE
8
Layer 1
10
82.741700
20
109.780000
11
96.952400
21
109.780000
0
LINE
8
Layer 1
10
96.952400
20
109.780000
11
96.952400
21
95.569700
0
LINE
8
Layer 1
10
96.952400
20
95.569700
11
82.741700
21
95.569700
0
LINE
8
Layer 1
10
160.089000
20
90.735000
11
160.089000
21
104.946000
0
LINE
8
Layer 1
10
160.089000
20
104.946000
11
174.299700
21
104.946000
0
LINE
8
Layer 1
10
174.299700
20
104.946000
11
174.299700
21
90.735000
0
LINE
8
Layer 1
10
174.299700
20
90.735000
11
160.089000
21
90.735000
0
LINE
8
Layer 1
10
140.752000
20
85.901300
11
140.752000
21
100.112000
0
LINE
8
Layer 1
10
140.752000
20
100.112000
11
154.962700
21
100.112000
0
LINE
8
Layer 1
10
154.962700
20
100.112000
11
154.962700
21
85.901300
0
LINE
8
Layer 1
10
154.962700
20
85.901300
11
140.752000
21
85.901300
0
LINE
8
Layer 1
10
102.078000
20
81.066600
11
102.078000
21
95.277300
0
LINE
8
Layer 1
10
102.078000
20
95.277300
11
116.288700
21
95.277300
0
LINE
8
Layer 1
10
116.288700
20
95.277300
11
116.288700
21
81.066600
0
LINE
8
Layer 1
10
116.288700
20
81.066600
11
102.078000
21
81.066600
0
LINE
8
Layer 1
10
121.415000
20
76.233000
11
121.415000
21
90.443700
0
LINE
8
Layer 1
10
121.415000
20
90.443700
11
135.625700
21
90.443700
0
LINE
8
Layer 1
10
135.625700
20
90.443700
11
135.625700
21
76.233000
0
LINE
8
Layer 1
10
135.625700
20
76.233000
11
121.415000
21
76.233000
0
LINE
8
Layer 1
10
82.741700
20
76.233000
11
82.741700
21
90.443700
0
LINE
8
Layer 1
10
82.741700
20
90.443700
11
96.952400
21
90.443700
0
LINE
8
Layer 1
10
96.952400
20
90.443700
11
96.952400
21
76.233000
0
LINE
8
Layer 1
10
96.952400
20
76.233000
11
82.741700
21
76.233000
0
LINE
8
Layer 1
10
160.089000
20
71.398300
11
160.089000
21
85.609000
0
LINE
8
Layer 1
10
160.089000
20
85.609000
11
174.299700
21
85.609000
0
LINE
8
Layer 1
10
174.299700
20
85.609000
11
174.299700
21
71.398300
0
LINE
8
Layer 1
10
174.299700
20
71.398300
11
160.089000
21
71.398300
0
LINE
8
Layer 1
10
140.752000
20
66.564600
11
140.752000
21
80.775300
0
LINE
8
Layer 1
10
140.752000
20
80.775300
11
154.962700
21
80.775300
0
LINE
8
Layer 1
10
154.962700
20
80.775300
11
154.962700
21
66.564600
0
LINE
8
Layer 1
10
154.962700
20
66.564600
11
140.752000
21
66.564600
0
LINE
8
Layer 1
10
102.078000
20
61.729900
11
102.078000
21
75.940600
0
LINE
8
Layer 1
10
102.078000
20
75.940600
11
116.288700
21
75.940600
0
LINE
8
Layer 1
10
116.288700
20
75.940600
11
116.288700
21
61.729900
0
LINE
8
Layer 1
10
116.288700
20
61.729900
11
102.078000
21
61.729900
0
LINE
8
Layer 1
10
121.415000
20
56.896300
11
121.415000
21
71.107000
0
LINE
8
Layer 1
10
121.415000
20
71.107000
11
135.625700
21
71.107000
0
LINE
8
Layer 1
10
135.625700
20
71.107000
11
135.625700
21
56.896300
0
LINE
8
Layer 1
10
135.625700
20
56.896300
11
121.415000
21
56.896300
0
LINE
8
Layer 1
10
191.424000
20
147.130000
11
191.481200
21
146.944840
0
LINE
8
Layer 1
10
193.097000
20
146.622000
11
193.222730
21
146.775160
0
LINE
8
Layer 1
10
193.312000
20
146.944000
11
193.369200
21
147.129160
0
LINE
8
Layer 1
10
191.481000
20
146.944000
11
191.572400
21
146.774830
0
LINE
8
Layer 1
10
191.572000
20
146.775000
11
191.695430
21
146.621840
0
LINE
8
Layer 1
10
193.369000
20
147.130000
11
193.387300
21
147.324310
0
LINE
8
Layer 1
10
191.406000
20
147.324000
11
191.424300
21
147.129690
0
LINE
8
Layer 1
10
193.223000
20
146.775000
11
193.312200
21
146.944170
0
LINE
8
Layer 1
10
191.572000
20
147.875000
11
191.480600
21
147.703550
0
LINE
8
Layer 1
10
191.481000
20
147.703000
11
191.423800
21
147.517830
0
LINE
8
Layer 1
10
192.946000
20
148.149000
11
192.776840
21
148.240400
0
LINE
8
Layer 1
10
191.696000
20
148.026000
11
191.572560
21
147.875120
0
LINE
8
Layer 1
10
193.097000
20
148.026000
11
192.946110
21
148.149440
0
LINE
8
Layer 1
10
192.592000
20
148.298000
11
192.397700
21
148.316300
0
LINE
8
Layer 1
10
192.777000
20
148.241000
11
192.591830
21
148.298200
0
LINE
8
Layer 1
10
191.424000
20
147.518000
11
191.405700
21
147.323690
0
LINE
8
Layer 1
10
192.018000
20
148.241000
11
191.846550
21
148.149600
0
LINE
8
Layer 1
10
191.696000
20
146.622000
11
191.846870
21
146.498560
0
LINE
8
Layer 1
10
193.369000
20
147.518000
11
193.311800
21
147.703170
0
LINE
8
Layer 1
10
192.946000
20
146.499000
11
193.096870
21
146.622440
0
LINE
8
Layer 1
10
192.203000
20
146.352000
11
192.397310
21
146.331400
0
LINE
8
Layer 1
10
191.847000
20
148.149000
11
191.696120
21
148.025560
0
LINE
8
Layer 1
10
192.203000
20
148.298000
11
192.017830
21
148.240900
0
LINE
8
Layer 1
10
192.592000
20
146.352000
11
192.777170
21
146.406900
0
LINE
8
Layer 1
10
193.312000
20
147.703000
11
193.222800
21
147.874450
0
LINE
8
Layer 1
10
192.777000
20
146.407000
11
192.946160
21
146.498400
0
LINE
8
Layer 1
10
192.398000
20
148.316000
11
192.203690
21
148.297700
0
LINE
8
Layer 1
10
192.398000
20
146.332000
11
192.592300
21
146.352600
0
LINE
8
Layer 1
10
191.847000
20
146.499000
11
192.018450
21
146.407600
0
LINE
8
Layer 1
10
193.388000
20
147.324000
11
193.369700
21
147.518310
0
LINE
8
Layer 1
10
192.018000
20
146.407000
11
192.203160
21
146.352100
0
LINE
8
Layer 1
10
193.223000
20
147.875000
11
193.097270
21
148.025880
0
LINE
8
Layer 1
10
172.540000
20
52.170700
11
172.597200
21
51.985534
0
LINE
8
Layer 1
10
174.213000
20
51.663200
11
174.338730
21
51.816362
0
LINE
8
Layer 1
10
174.428000
20
51.985500
11
174.485100
21
52.170666
0
LINE
8
Layer 1
10
172.597000
20
51.985500
11
172.688400
21
51.816336
0
LINE
8
Layer 1
10
172.689000
20
51.816400
11
172.812430
21
51.663238
0
LINE
8
Layer 1
10
174.485000
20
52.170700
11
174.503300
21
52.365010
0
LINE
8
Layer 1
10
172.522000
20
52.365000
11
172.540300
21
52.170690
0
LINE
8
Layer 1
10
174.339000
20
51.816400
11
174.428200
21
51.985564
0
LINE
8
Layer 1
10
172.689000
20
52.916200
11
172.597600
21
52.744750
0
LINE
8
Layer 1
10
172.597000
20
52.744600
11
172.539800
21
52.559434
0
LINE
8
Layer 1
10
174.062000
20
53.190400
11
173.892840
21
53.281840
0
LINE
8
Layer 1
10
172.812000
20
53.066900
11
172.688560
21
52.916024
0
LINE
8
Layer 1
10
174.213000
20
53.067000
11
174.062110
21
53.190444
0
LINE
8
Layer 1
10
173.708000
20
53.339000
11
173.513700
21
53.357290
0
LINE
8
Layer 1
10
173.893000
20
53.281900
11
173.707830
21
53.339050
0
LINE
8
Layer 1
10
172.540000
20
52.559500
11
172.521700
21
52.365190
0
LINE
8
Layer 1
10
173.134000
20
53.281600
11
172.962550
21
53.190160
0
LINE
8
Layer 1
10
172.812000
20
51.663200
11
172.962870
21
51.539756
0
LINE
8
Layer 1
10
174.485000
20
52.559300
11
174.427800
21
52.744466
0
LINE
8
Layer 1
10
174.062000
20
51.539800
11
174.212870
21
51.663244
0
LINE
8
Layer 1
10
173.319000
20
51.393500
11
173.513310
21
51.372930
0
LINE
8
Layer 1
10
172.963000
20
53.190300
11
172.812000
21
53.066800
0
LINE
8
Layer 1
10
173.320000
20
53.338900
11
173.134820
21
53.281750
0
LINE
8
Layer 1
10
173.708000
20
51.393500
11
173.893170
21
51.448360
0
LINE
8
Layer 1
10
174.428000
20
52.744500
11
174.338800
21
52.915950
0
LINE
8
Layer 1
10
173.893000
20
51.448300
11
174.062160
21
51.539740
0
LINE
8
Layer 1
10
173.514000
20
53.357100
11
173.319690
21
53.338810
0
LINE
8
Layer 1
10
173.514000
20
51.372800
11
173.708300
21
51.393370
0
LINE
8
Layer 1
10
172.963000
20
51.539800
11
173.134450
21
51.448360
0
LINE
8
Layer 1
10
174.504000
20
52.365000
11
174.485700
21
52.559310
0
LINE
8
Layer 1
10
173.134000
20
51.448300
11
173.319160
21
51.393440
0
LINE
8
Layer 1
10
174.339000
20
52.916000
11
174.213270
21
53.066876
0
LINE
8
Layer 1
10
77.580100
20
137.199000
11
77.637250
21
137.013840
0
LINE
8
Layer 1
10
79.253400
20
136.692000
11
79.379130
21
136.845160
0
LINE
8
Layer 1
10
79.468300
20
137.014000
11
79.525450
21
137.199160
0
LINE
8
Layer 1
10
77.637300
20
137.014000
11
77.728740
21
136.844830
0
LINE
8
Layer 1
10
77.728700
20
136.845000
11
77.852135
21
136.691840
0
LINE
8
Layer 1
10
79.525500
20
137.199000
11
79.543770
21
137.393310
0
LINE
8
Layer 1
10
77.561900
20
137.394000
11
77.580170
21
137.199690
0
LINE
8
Layer 1
10
79.379200
20
136.845000
11
79.468390
21
137.014170
0
LINE
8
Layer 1
10
77.728700
20
137.945000
11
77.637260
21
137.773550
0
LINE
8
Layer 1
10
77.637300
20
137.773000
11
77.580150
21
137.587830
0
LINE
8
Layer 1
10
79.102600
20
138.219000
11
78.933436
21
138.310400
0
LINE
8
Layer 1
10
77.852100
20
138.096000
11
77.728656
21
137.945120
0
LINE
8
Layer 1
10
79.253500
20
138.096000
11
79.102615
21
138.219440
0
LINE
8
Layer 1
10
78.748200
20
138.368000
11
78.553899
21
138.386300
0
LINE
8
Layer 1
10
78.933400
20
138.311000
11
78.748234
21
138.368200
0
LINE
8
Layer 1
10
77.580100
20
137.588000
11
77.561830
21
137.393690
0
LINE
8
Layer 1
10
78.174400
20
138.310000
11
78.002950
21
138.218600
0
LINE
8
Layer 1
10
77.852100
20
136.692000
11
78.002967
21
136.568560
0
LINE
8
Layer 1
10
79.525500
20
137.588000
11
79.468350
21
137.773170
0
LINE
8
Layer 1
10
79.102600
20
136.568000
11
79.253476
21
136.691440
0
LINE
8
Layer 1
10
78.359600
20
136.422000
11
78.553910
21
136.401400
0
LINE
8
Layer 1
10
78.003000
20
138.219000
11
77.852124
21
138.095560
0
LINE
8
Layer 1
10
78.359600
20
138.368000
11
78.174425
21
138.310800
0
LINE
8
Layer 1
10
78.748200
20
136.422000
11
78.933375
21
136.476900
0
LINE
8
Layer 1
10
79.468400
20
137.773000
11
79.379210
21
137.944450
0
LINE
8
Layer 1
10
78.933400
20
136.477000
11
79.102564
21
136.568400
0
LINE
8
Layer 1
10
78.554000
20
138.386000
11
78.359690
21
138.367700
0
LINE
8
Layer 1
10
78.554000
20
136.401000
11
78.748301
21
136.421600
0
LINE
8
Layer 1
10
78.003000
20
136.568000
11
78.174441
21
136.476600
0
LINE
8
Layer 1
10
79.543800
20
137.394000
11
79.525530
21
137.588310
0
LINE
8
Layer 1
10
78.174500
20
136.477000
11
78.359666
21
136.422100
0
LINE
8
Layer 1
10
79.379200
20
137.945000
11
79.253470
21
138.095880
0
LINE
8
Layer 1
10
77.580100
20
71.053300
11
77.637250
21
70.868137
0
LINE
8
Layer 1
10
79.253400
20
70.545800
11
79.379130
21
70.698962
0
LINE
8
Layer 1
10
79.468300
20
70.868100
11
79.525450
21
71.053263
0
LINE
8
Layer 1
10
77.637300
20
70.868100
11
77.728740
21
70.698936
0
LINE
8
Layer 1
10
77.728700
20
70.699000
11
77.852135
21
70.545838
0
LINE
8
Layer 1
10
79.525500
20
71.053300
11
79.543770
21
71.247610
0
LINE
8
Layer 1
10
77.561900
20
71.247600
11
77.580170
21
71.053290
0
LINE
8
Layer 1
10
79.379200
20
70.699000
11
79.468390
21
70.868164
0
LINE
8
Layer 1
10
77.728700
20
71.798800
11
77.637260
21
71.627350
0
LINE
8
Layer 1
10
77.637300
20
71.627200
11
77.580150
21
71.442034
0
LINE
8
Layer 1
10
79.102600
20
72.072900
11
78.933436
21
72.164340
0
LINE
8
Layer 1
10
77.852100
20
71.949500
11
77.728700
21
71.798600
0
LINE
8
Layer 1
10
79.253500
20
71.949500
11
79.102615
21
72.072944
0
LINE
8
Layer 1
10
78.748200
20
72.221600
11
78.553899
21
72.239870
0
LINE
8
Layer 1
10
78.933400
20
72.164400
11
78.748234
21
72.221550
0
LINE
8
Layer 1
10
77.580100
20
71.442100
11
77.561830
21
71.247792
0
LINE
8
Layer 1
10
78.174400
20
72.164200
11
78.002950
21
72.072760
0
LINE
8
Layer 1
10
77.852100
20
70.545800
11
78.002967
21
70.422359
0
LINE
8
Layer 1
10
79.525500
20
71.441900
11
79.468350
21
71.627066
0
LINE
8
Layer 1
10
79.102600
20
70.422400
11
79.253476
21
70.545841
0
LINE
8
Layer 1
10
78.359600
20
70.276100
11
78.553910
21
70.255490
0
LINE
8
Layer 1
10
78.003000
20
72.072900
11
77.852100
21
71.949400
0
LINE
8
Layer 1
10
78.359600
20
72.221500
11
78.174425
21
72.164350
0
LINE
8
Layer 1
10
78.748200
20
70.276100
11
78.933375
21
70.331000
0
LINE
8
Layer 1
10
79.468400
20
71.627100
11
79.379210
21
71.798550
0
LINE
8
Layer 1
10
78.933400
20
70.330900
11
79.102564
21
70.422340
0
LINE
8
Layer 1
10
78.554000
20
72.239700
11
78.359690
21
72.221430
0
LINE
8
Layer 1
10
78.554000
20
70.255300
11
78.748301
21
70.275910
0
LINE
8
Layer 1
10
78.003000
20
70.422300
11
78.174441
21
70.330860
0
LINE
8
Layer 1
10
79.543800
20
71.247500
11
79.525530
21
71.441808
0
LINE
8
Layer 1
10
78.174500
20
70.330900
11
78.359666
21
70.276000
0
LINE
8
Layer 1
10
79.379200
20
71.798500
11
79.253470
21
71.949373
0
LINE
8
Layer 1
10
200.255000
20
122.756000
11
200.312200
21
122.570840
0
LINE
8
Layer 1
10
201.929000
20
122.248000
11
202.054730
21
122.401160
0
LINE
8
Layer 1
10
202.144000
20
122.571000
11
202.201200
21
122.756160
0
LINE
8
Layer 1
10
200.313000
20
122.571000
11
200.404400
21
122.401830
0
LINE
8
Layer 1
10
200.404000
20
122.402000
11
200.527430
21
122.248840
0
LINE
8
Layer 1
10
202.201000
20
122.756000
11
202.219300
21
122.950310
0
LINE
8
Layer 1
10
200.237000
20
122.950000
11
200.255300
21
122.755690
0
LINE
8
Layer 1
10
202.055000
20
122.402000
11
202.144200
21
122.571170
0
LINE
8
Layer 1
10
200.404000
20
123.501000
11
200.312600
21
123.329550
0
LINE
8
Layer 1
10
200.313000
20
123.330000
11
200.255800
21
123.144830
0
LINE
8
Layer 1
10
201.778000
20
123.776000
11
201.608840
21
123.867400
0
LINE
8
Layer 1
10
200.528000
20
123.652000
11
200.404560
21
123.501120
0
LINE
8
Layer 1
10
201.929000
20
123.652000
11
201.778110
21
123.775440
0
LINE
8
Layer 1
10
201.424000
20
123.924000
11
201.229700
21
123.942300
0
LINE
8
Layer 1
10
201.609000
20
123.867000
11
201.423830
21
123.924200
0
LINE
8
Layer 1
10
200.255000
20
123.145000
11
200.236700
21
122.950690
0
LINE
8
Layer 1
10
200.850000
20
123.867000
11
200.678550
21
123.775600
0
LINE
8
Layer 1
10
200.527000
20
122.248000
11
200.677870
21
122.124560
0
LINE
8
Layer 1
10
202.201000
20
123.145000
11
202.143800
21
123.330170
0
LINE
8
Layer 1
10
201.778000
20
122.125000
11
201.928870
21
122.248440
0
LINE
8
Layer 1
10
201.035000
20
121.979000
11
201.229310
21
121.958400
0
LINE
8
Layer 1
10
200.678000
20
123.776000
11
200.527120
21
123.652560
0
LINE
8
Layer 1
10
201.035000
20
123.924000
11
200.849830
21
123.866900
0
LINE
8
Layer 1
10
201.424000
20
121.979000
11
201.609170
21
122.033900
0
LINE
8
Layer 1
10
202.144000
20
123.330000
11
202.054800
21
123.501450
0
LINE
8
Layer 1
10
201.609000
20
122.034000
11
201.778160
21
122.125400
0
LINE
8
Layer 1
10
201.229000
20
123.942000
11
201.034690
21
123.923700
0
LINE
8
Layer 1
10
201.229000
20
121.958000
11
201.423300
21
121.978600
0
LINE
8
Layer 1
10
200.678000
20
122.125000
11
200.849450
21
122.033600
0
LINE
8
Layer 1
10
202.219000
20
122.950000
11
202.200700
21
123.144310
0
LINE
8
Layer 1
10
200.850000
20
122.034000
11
201.035160
21
121.979100
0
LINE
8
Layer 1
10
202.055000
20
123.501000
11
201.929270
21
123.651880
 0 
ENDSEC
 0 
EOF