  0
SECTION
  2
HEADER
  9
$ACADVER
  1
AC1014
  9
$HANDSEED
  5
FFFF
  9
$MEASUREMENT
 70
     1
  0
ENDSEC
  0
SECTION
  2
TABLES
  0
TABLE
  2
VPORT
  5
8
330
0
100
AcDbSymbolTable
 70
     4
  0
VPORT
  5
2E
330
8
100
AcDbSymbolTableRecord
100
AcDbViewportTableRecord
  2
*ACTIVE
 70
     0
 10
0.0
 20
0.0
 11
1.0
 21
1.0
 12
210.0
 22
148.5
 13
0.0
 23
0.0
 14
10.0
 24
10.0
 15
10.0
 25
10.0
 16
0.0
 26
0.0
 36
1.0
 17
0.0
 27
0.0
 37
0.0
 40
341.0
 41
1.24
 42
50.0
 43
0.0
 44
0.0
 50
0.0
 51
0.0
 71
     0
 72
   100
 73
     1
 74
     3
 75
     0
 76
     0
 77
     0
 78
     0
  0
ENDTAB
  0
TABLE
  2
LTYPE
  5
5
330
0
100
AcDbSymbolTable
 70
     1
  0
LTYPE
  5
14
330
5
100
AcDbSymbolTableRecord
100
AcDbLinetypeTableRecord
  2
BYBLOCK
 70
     0
  3

 72
    65
 73
     0
 40
0.0
  0
LTYPE
  5
15
330
5
100
AcDbSymbolTableRecord
100
AcDbLinetypeTableRecord
  2
BYLAYER
 70
     0
  3

 72
    65
 73
     0
 40
0.0
  0
LTYPE
  5
16
330
5
100
AcDbSymbolTableRecord
100
AcDbLinetypeTableRecord
  2
CONTINUOUS
 70
     0
  3
Solid line
 72
    65
 73
     0
 40
0.0
  0
ENDTAB
  0
TABLE
  2
LAYER
  5
2
100
AcDbSymbolTable
 70
2
  0
LAYER
  5
50
100
AcDbSymbolTableRecord
100
AcDbLayerTableRecord
  2
0
 70
0
  6
CONTINUOUS
  0
LAYER
  5
51
100
AcDbSymbolTableRecord
100
AcDbLayerTableRecord
  2
top_plate
 70
0
  6
CONTINUOUS
  0
ENDTAB
  0
TABLE
  2
STYLE
  5
3
330
0
100
AcDbSymbolTable
 70
     1
  0
STYLE
  5
11
330
3
100
AcDbSymbolTableRecord
100
AcDbTextStyleTableRecord
  2
STANDARD
 70
     0
 40
0.0
 41
1.0
 50
0.0
 71
     0
 42
2.5
  3
txt
  4

  0
ENDTAB
  0
TABLE
  2
VIEW
  5
6
330
0
100
AcDbSymbolTable
 70
     0
  0
ENDTAB
  0
TABLE
  2
UCS
  5
7
330
0
100
AcDbSymbolTable
 70
     0
  0
ENDTAB
  0
TABLE
  2
APPID
  5
9
330
0
100
AcDbSymbolTable
 70
     2
  0
APPID
  5
12
330
9
100
AcDbSymbolTableRecord
100
AcDbRegAppTableRecord
  2
ACAD
 70
     0
  0
ENDTAB
  0
TABLE
  2
DIMSTYLE
  5
A
330
0
100
AcDbSymbolTable
 70
     1
  0
DIMSTYLE
105
27
330
A
100
AcDbSymbolTableRecord
100
AcDbDimStyleTableRecord
  2
ISO-25
 70
     0
  3

  4

  5

  6

  7

 40
1.0
 41
2.5
 42
0.625
 43
3.75
 44
1.25
 45
0.0
 46
0.0
 47
0.0
 48
0.0
140
2.5
141
2.5
142
0.0
143
0.03937007874016
144
1.0
145
0.0
146
1.0
147
0.625
 71
     0
 72
     0
 73
     0
 74
     0
 75
     0
 76
     0
 77
     1
 78
     8
170
     0
171
     3
172
     1
173
     0
174
     0
175
     0
176
     0
177
     0
178
     0
270
     2
271
     2
272
     2
273
     2
274
     3
340
11
275
     0
280
     0
281
     0
282
     0
283
     0
284
     8
285
     0
286
     0
287
     3
288
     0
  0
ENDTAB
  0
TABLE
  2
BLOCK_RECORD
  5
1
330
0
100
AcDbSymbolTable
 70
     1
  0
BLOCK_RECORD
  5
1F
330
1
100
AcDbSymbolTableRecord
100
AcDbBlockTableRecord
  2
*MODEL_SPACE
  0
BLOCK_RECORD
  5
1B
330
1
100
AcDbSymbolTableRecord
100
AcDbBlockTableRecord
  2
*PAPER_SPACE
  0
ENDTAB
  0
ENDSEC
  0
SECTION
  2
BLOCKS
  0
BLOCK
  5
20
330
1F
100
AcDbEntity
  8
0
100
AcDbBlockBegin
  2
*MODEL_SPACE
 70
     0
 10
0.0
 20
0.0
 30
0.0
  3
*MODEL_SPACE
  1

  0
ENDBLK
  5
21
330
1F
100
AcDbEntity
  8
0
100
AcDbBlockEnd
  0
BLOCK
  5
1C
330
1B
100
AcDbEntity
 67
     1
  8
0
100
AcDbBlockBegin
  2
*PAPER_SPACE
  1

  0
ENDBLK
  5
1D
330
1B
100
AcDbEntity
 67
     1
  8
0
100
AcDbBlockEnd
  0
ENDSEC
  0
SECTION
  2
ENTITIES
  0
LWPOLYLINE
  5
100
100
AcDbEntity
  8
top_plate
 62
3
100
AcDbPolyline
 90
16
 70
1
 10
289.459000
 20
235.412800
 30
0.0
 10
289.376000
 20
234.991900
 30
0.0
 10
289.137000
 20
234.635000
 30
0.0
 10
288.780000
 20
234.396500
 30
0.0
 10
288.359000
 20
234.312800
 30
0.0
 10
287.938000
 20
234.396500
 30
0.0
 10
287.581000
 20
234.635000
 30
0.0
 10
287.343000
 20
234.991900
 30
0.0
 10
287.259000
 20
235.412800
 30
0.0
 10
287.343000
 20
235.833800
 30
0.0
 10
287.581000
 20
236.190600
 30
0.0
 10
287.938000
 20
236.429100
 30
0.0
 10
288.359000
 20
236.512800
 30
0.0
 10
288.780000
 20
236.429100
 30
0.0
 10
289.137000
 20
236.190600
 30
0.0
 10
289.376000
 20
235.833800
 30
0.0
  0
LWPOLYLINE
  5
101
100
AcDbEntity
  8
top_plate
 62
3
100
AcDbPolyline
 90
16
 70
1
 10
210.880000
 20
253.316700
 30
0.0
 10
210.797000
 20
252.895800
 30
0.0
 10
210.558000
 20
252.538900
 30
0.0
 10
210.201000
 20
252.300500
 30
0.0
 10
209.780000
 20
252.216700
 30
0.0
 10
209.359000
 20
252.300500
 30
0.0
 10
209.003000
 20
252.538900
 30
0.0
 10
208.764000
 20
252.895800
 30
0.0
 10
208.680000
 20
253.316700
 30
0.0
 10
208.764000
 20
253.737700
 30
0.0
 10
209.003000
 20
254.094600
 30
0.0
 10
209.359000
 20
254.333000
 30
0.0
 10
209.780000
 20
254.416700
 30
0.0
 10
210.201000
 20
254.333000
 30
0.0
 10
210.558000
 20
254.094600
 30
0.0
 10
210.797000
 20
253.737700
 30
0.0
  0
LWPOLYLINE
  5
102
100
AcDbEntity
  8
top_plate
 62
3
100
AcDbPolyline
 90
16
 70
1
 10
134.699000
 20
235.433000
 30
0.0
 10
134.612000
 20
235.004900
 30
0.0
 10
134.377000
 20
234.655200
 30
0.0
 10
134.027000
 20
234.419500
 30
0.0
 10
133.599000
 20
234.333000
 30
0.0
 10
133.178000
 20
234.416800
 30
0.0
 10
132.821000
 20
234.655200
 30
0.0
 10
132.583000
 20
235.012100
 30
0.0
 10
132.499000
 20
235.433000
 30
0.0
 10
132.583000
 20
235.854000
 30
0.0
 10
132.821000
 20
236.210900
 30
0.0
 10
133.178000
 20
236.449300
 30
0.0
 10
133.599000
 20
236.533000
 30
0.0
 10
134.027000
 20
236.446600
 30
0.0
 10
134.377000
 20
236.210900
 30
0.0
 10
134.612000
 20
235.861200
 30
0.0
  0
LWPOLYLINE
  5
103
100
AcDbEntity
  8
top_plate
 62
3
100
AcDbPolyline
 90
16
 70
1
 10
53.726700
 20
254.516200
 30
0.0
 10
53.642900
 20
254.095300
 30
0.0
 10
53.404500
 20
253.738400
 30
0.0
 10
53.047600
 20
253.500000
 30
0.0
 10
52.626700
 20
253.416200
 30
0.0
 10
52.205700
 20
253.500000
 30
0.0
 10
51.848800
 20
253.738400
 30
0.0
 10
51.610400
 20
254.095300
 30
0.0
 10
51.526700
 20
254.516200
 30
0.0
 10
51.610400
 20
254.937200
 30
0.0
 10
51.848800
 20
255.294000
 30
0.0
 10
52.205700
 20
255.532500
 30
0.0
 10
52.626700
 20
255.616200
 30
0.0
 10
53.047600
 20
255.532500
 30
0.0
 10
53.404500
 20
255.294000
 30
0.0
 10
53.642900
 20
254.937200
 30
0.0
  0
LWPOLYLINE
  5
104
100
AcDbEntity
  8
top_plate
 62
3
100
AcDbPolyline
 90
37
 70
1
 10
339.273000
 20
292.656930
 30
0.0
 10
339.273000
 20
196.098000
 30
0.0
 10
339.176000
 20
195.118000
 30
0.0
 10
338.892000
 20
194.185000
 30
0.0
 10
338.433000
 20
193.324000
 30
0.0
 10
337.809000
 20
192.562000
 30
0.0
 10
337.047000
 20
191.938000
 30
0.0
 10
336.186000
 20
191.479000
 30
0.0
 10
335.253000
 20
191.195000
 30
0.0
 10
334.273000
 20
191.098000
 30
0.0
 10
4.332360
 20
191.098000
 30
0.0
 10
3.352350
 20
191.195000
 30
0.0
 10
2.418940
 20
191.479000
 30
0.0
 10
1.558360
 20
191.938000
 30
0.0
 10
0.796827
 20
192.562000
 30
0.0
 10
0.172420
 20
193.324000
 30
0.0
 10
-0.287037
 20
194.185000
 30
0.0
 10
-0.570678
 20
195.118000
 30
0.0
 10
-0.667639
 20
196.098000
 30
0.0
 10
-0.667639
 20
292.656930
 30
0.0
 10
-0.570678
 20
293.636940
 30
0.0
 10
-0.287037
 20
294.570350
 30
0.0
 10
0.172420
 20
295.430940
 30
0.0
 10
0.796827
 20
296.192467
 30
0.0
 10
1.558360
 20
296.816874
 30
0.0
 10
2.418940
 20
297.276331
 30
0.0
 10
3.352350
 20
297.559972
 30
0.0
 10
4.332360
 20
297.656933
 30
0.0
 10
334.273000
 20
297.656933
 30
0.0
 10
335.253000
 20
297.559972
 30
0.0
 10
336.186000
 20
297.276331
 30
0.0
 10
337.047000
 20
296.816874
 30
0.0
 10
337.809000
 20
296.192467
 30
0.0
 10
338.433000
 20
295.430940
 30
0.0
 10
338.892000
 20
294.570350
 30
0.0
 10
339.176000
 20
293.636940
 30
0.0
 10
339.273000
 20
292.656930
 30
0.0
  0
LWPOLYLINE
  5
105
100
AcDbEntity
  8
top_plate
 62
3
100
AcDbPolyline
 90
16
 70
1
 10
167.802000
 20
194.781000
 30
0.0
 10
167.577000
 20
194.447000
 30
0.0
 10
167.244000
 20
194.222000
 30
0.0
 10
166.835000
 20
194.140000
 30
0.0
 10
166.426000
 20
194.222000
 30
0.0
 10
166.092000
 20
194.447000
 30
0.0
 10
165.867000
 20
194.781000
 30
0.0
 10
165.785000
 20
195.190000
 30
0.0
 10
165.867000
 20
195.599000
 30
0.0
 10
166.092000
 20
195.932000
 30
0.0
 10
166.426000
 20
196.157000
 30
0.0
 10
166.835000
 20
196.240000
 30
0.0
 10
167.244000
 20
196.157000
 30
0.0
 10
167.577000
 20
195.932000
 30
0.0
 10
167.802000
 20
195.599000
 30
0.0
 10
167.885000
 20
195.190000
 30
0.0
  0
LWPOLYLINE
  5
106
100
AcDbEntity
  8
top_plate
 62
3
100
AcDbPolyline
 90
16
 70
1
 10
167.802000
 20
293.156680
 30
0.0
 10
167.577000
 20
292.822920
 30
0.0
 10
167.244000
 20
292.597900
 30
0.0
 10
166.835000
 20
292.515390
 30
0.0
 10
166.426000
 20
292.597900
 30
0.0
 10
166.092000
 20
292.822920
 30
0.0
 10
165.867000
 20
293.156680
 30
0.0
 10
165.785000
 20
293.565390
 30
0.0
 10
165.867000
 20
293.974090
 30
0.0
 10
166.092000
 20
294.307850
 30
0.0
 10
166.426000
 20
294.532870
 30
0.0
 10
166.835000
 20
294.615390
 30
0.0
 10
167.244000
 20
294.532870
 30
0.0
 10
167.577000
 20
294.307850
 30
0.0
 10
167.802000
 20
293.974090
 30
0.0
 10
167.885000
 20
293.565390
 30
0.0
  0
LWPOLYLINE
  5
107
100
AcDbEntity
  8
top_plate
 62
3
100
AcDbPolyline
 90
16
 70
1
 10
253.601000
 20
194.781000
 30
0.0
 10
253.376000
 20
194.447000
 30
0.0
 10
253.043000
 20
194.222000
 30
0.0
 10
252.634000
 20
194.140000
 30
0.0
 10
252.225000
 20
194.222000
 30
0.0
 10
251.891000
 20
194.447000
 30
0.0
 10
251.666000
 20
194.781000
 30
0.0
 10
251.584000
 20
195.190000
 30
0.0
 10
251.666000
 20
195.599000
 30
0.0
 10
251.891000
 20
195.932000
 30
0.0
 10
252.225000
 20
196.157000
 30
0.0
 10
252.634000
 20
196.240000
 30
0.0
 10
253.043000
 20
196.157000
 30
0.0
 10
253.376000
 20
195.932000
 30
0.0
 10
253.601000
 20
195.599000
 30
0.0
 10
253.684000
 20
195.190000
 30
0.0
  0
LWPOLYLINE
  5
108
100
AcDbEntity
  8
top_plate
 62
3
100
AcDbPolyline
 90
16
 70
1
 10
253.601000
 20
293.156680
 30
0.0
 10
253.376000
 20
292.822930
 30
0.0
 10
253.043000
 20
292.597900
 30
0.0
 10
252.634000
 20
292.515390
 30
0.0
 10
252.225000
 20
292.597900
 30
0.0
 10
251.891000
 20
292.822930
 30
0.0
 10
251.666000
 20
293.156680
 30
0.0
 10
251.584000
 20
293.565390
 30
0.0
 10
251.666000
 20
293.974100
 30
0.0
 10
251.891000
 20
294.307850
 30
0.0
 10
252.225000
 20
294.532870
 30
0.0
 10
252.634000
 20
294.615390
 30
0.0
 10
253.043000
 20
294.532870
 30
0.0
 10
253.376000
 20
294.307850
 30
0.0
 10
253.601000
 20
293.974100
 30
0.0
 10
253.684000
 20
293.565390
 30
0.0
  0
LWPOLYLINE
  5
109
100
AcDbEntity
  8
top_plate
 62
3
100
AcDbPolyline
 90
16
 70
1
 10
82.239900
 20
194.781000
 30
0.0
 10
82.014900
 20
194.447000
 30
0.0
 10
81.681100
 20
194.222000
 30
0.0
 10
81.272400
 20
194.140000
 30
0.0
 10
80.863700
 20
194.222000
 30
0.0
 10
80.529900
 20
194.447000
 30
0.0
 10
80.304900
 20
194.781000
 30
0.0
 10
80.222400
 20
195.190000
 30
0.0
 10
80.304900
 20
195.599000
 30
0.0
 10
80.529900
 20
195.932000
 30
0.0
 10
80.863700
 20
196.157000
 30
0.0
 10
81.272400
 20
196.240000
 30
0.0
 10
81.681100
 20
196.157000
 30
0.0
 10
82.014900
 20
195.932000
 30
0.0
 10
82.239900
 20
195.599000
 30
0.0
 10
82.322400
 20
195.190000
 30
0.0
  0
LWPOLYLINE
  5
10a
100
AcDbEntity
  8
top_plate
 62
3
100
AcDbPolyline
 90
16
 70
1
 10
82.239900
 20
293.156680
 30
0.0
 10
82.014900
 20
292.822930
 30
0.0
 10
81.681100
 20
292.597900
 30
0.0
 10
81.272400
 20
292.515390
 30
0.0
 10
80.863700
 20
292.597900
 30
0.0
 10
80.529900
 20
292.822930
 30
0.0
 10
80.304900
 20
293.156680
 30
0.0
 10
80.222400
 20
293.565390
 30
0.0
 10
80.304900
 20
293.974100
 30
0.0
 10
80.529900
 20
294.307850
 30
0.0
 10
80.863700
 20
294.532870
 30
0.0
 10
81.272400
 20
294.615390
 30
0.0
 10
81.681100
 20
294.532870
 30
0.0
 10
82.014900
 20
294.307850
 30
0.0
 10
82.239900
 20
293.974100
 30
0.0
 10
82.322400
 20
293.565390
 30
0.0
  0
LWPOLYLINE
  5
10b
100
AcDbEntity
  8
top_plate
 62
3
100
AcDbPolyline
 90
16
 70
1
 10
336.153000
 20
194.781000
 30
0.0
 10
335.927000
 20
194.447000
 30
0.0
 10
335.594000
 20
194.222000
 30
0.0
 10
335.185000
 20
194.140000
 30
0.0
 10
334.776000
 20
194.222000
 30
0.0
 10
334.443000
 20
194.447000
 30
0.0
 10
334.218000
 20
194.781000
 30
0.0
 10
334.135000
 20
195.190000
 30
0.0
 10
334.218000
 20
195.599000
 30
0.0
 10
334.443000
 20
195.932000
 30
0.0
 10
334.776000
 20
196.157000
 30
0.0
 10
335.185000
 20
196.240000
 30
0.0
 10
335.594000
 20
196.157000
 30
0.0
 10
335.927000
 20
195.932000
 30
0.0
 10
336.153000
 20
195.599000
 30
0.0
 10
336.235000
 20
195.190000
 30
0.0
  0
LWPOLYLINE
  5
10c
100
AcDbEntity
  8
top_plate
 62
3
100
AcDbPolyline
 90
16
 70
1
 10
336.153000
 20
293.156680
 30
0.0
 10
335.927000
 20
292.822930
 30
0.0
 10
335.594000
 20
292.597900
 30
0.0
 10
335.185000
 20
292.515390
 30
0.0
 10
334.776000
 20
292.597900
 30
0.0
 10
334.443000
 20
292.822930
 30
0.0
 10
334.218000
 20
293.156680
 30
0.0
 10
334.135000
 20
293.565390
 30
0.0
 10
334.218000
 20
293.974100
 30
0.0
 10
334.443000
 20
294.307850
 30
0.0
 10
334.776000
 20
294.532870
 30
0.0
 10
335.185000
 20
294.615390
 30
0.0
 10
335.594000
 20
294.532870
 30
0.0
 10
335.927000
 20
294.307850
 30
0.0
 10
336.153000
 20
293.974100
 30
0.0
 10
336.235000
 20
293.565390
 30
0.0
  0
LWPOLYLINE
  5
10d
100
AcDbEntity
  8
top_plate
 62
3
100
AcDbPolyline
 90
16
 70
1
 10
4.397510
 20
194.781000
 30
0.0
 10
4.172490
 20
194.447000
 30
0.0
 10
3.838730
 20
194.222000
 30
0.0
 10
3.430020
 20
194.140000
 30
0.0
 10
3.021320
 20
194.222000
 30
0.0
 10
2.687560
 20
194.447000
 30
0.0
 10
2.462540
 20
194.781000
 30
0.0
 10
2.380020
 20
195.190000
 30
0.0
 10
2.462540
 20
195.599000
 30
0.0
 10
2.687560
 20
195.932000
 30
0.0
 10
3.021320
 20
196.157000
 30
0.0
 10
3.430020
 20
196.240000
 30
0.0
 10
3.838730
 20
196.157000
 30
0.0
 10
4.172490
 20
195.932000
 30
0.0
 10
4.397510
 20
195.599000
 30
0.0
 10
4.480020
 20
195.190000
 30
0.0
  0
LWPOLYLINE
  5
10e
100
AcDbEntity
  8
top_plate
 62
3
100
AcDbPolyline
 90
16
 70
1
 10
4.397510
 20
293.156690
 30
0.0
 10
4.172490
 20
292.822930
 30
0.0
 10
3.838730
 20
292.597910
 30
0.0
 10
3.430020
 20
292.515390
 30
0.0
 10
3.021320
 20
292.597910
 30
0.0
 10
2.687560
 20
292.822930
 30
0.0
 10
2.462540
 20
293.156690
 30
0.0
 10
2.380020
 20
293.565390
 30
0.0
 10
2.462540
 20
293.974100
 30
0.0
 10
2.687560
 20
294.307860
 30
0.0
 10
3.021320
 20
294.532880
 30
0.0
 10
3.430020
 20
294.615390
 30
0.0
 10
3.831840
 20
294.535470
 30
0.0
 10
4.172490
 20
294.307860
 30
0.0
 10
4.400100
 20
293.967210
 30
0.0
 10
4.480020
 20
293.565390
 30
0.0
  0
ENDSEC
  0
SECTION
  2
OBJECTS
  0
DICTIONARY
  5
C
330
0
100
AcDbDictionary
  3
ACAD_GROUP
350
D
  3
ACAD_MLINESTYLE
350
17
  0
DICTIONARY
  5
D
330
C
100
AcDbDictionary
  0
DICTIONARY
  5
1A
330
C
100
AcDbDictionary
  0
DICTIONARY
  5
17
330
C
100
AcDbDictionary
  3
STANDARD
350
18
  0
DICTIONARY
  5
19
330
C
100
AcDbDictionary
  0
ENDSEC
  0
EOF
