  0
SECTION
  2
HEADER
  9
$ACADVER
  1
AC1014
  9
$HANDSEED
  5
FFFF
  9
$MEASUREMENT
 70
     1
  0
ENDSEC
  0
SECTION
  2
TABLES
  0
TABLE
  2
VPORT
  5
8
330
0
100
AcDbSymbolTable
 70
     4
  0
VPORT
  5
2E
330
8
100
AcDbSymbolTableRecord
100
AcDbViewportTableRecord
  2
*ACTIVE
 70
     0
 10
0.0
 20
0.0
 11
1.0
 21
1.0
 12
210.0
 22
148.5
 13
0.0
 23
0.0
 14
10.0
 24
10.0
 15
10.0
 25
10.0
 16
0.0
 26
0.0
 36
1.0
 17
0.0
 27
0.0
 37
0.0
 40
341.0
 41
1.24
 42
50.0
 43
0.0
 44
0.0
 50
0.0
 51
0.0
 71
     0
 72
   100
 73
     1
 74
     3
 75
     0
 76
     0
 77
     0
 78
     0
  0
ENDTAB
  0
TABLE
  2
LTYPE
  5
5
330
0
100
AcDbSymbolTable
 70
     1
  0
LTYPE
  5
14
330
5
100
AcDbSymbolTableRecord
100
AcDbLinetypeTableRecord
  2
BYBLOCK
 70
     0
  3

 72
    65
 73
     0
 40
0.0
  0
LTYPE
  5
15
330
5
100
AcDbSymbolTableRecord
100
AcDbLinetypeTableRecord
  2
BYLAYER
 70
     0
  3

 72
    65
 73
     0
 40
0.0
  0
LTYPE
  5
16
330
5
100
AcDbSymbolTableRecord
100
AcDbLinetypeTableRecord
  2
CONTINUOUS
 70
     0
  3
Solid line
 72
    65
 73
     0
 40
0.0
  0
ENDTAB
  0
TABLE
  2
LAYER
  5
2
100
AcDbSymbolTable
 70
2
  0
LAYER
  5
50
100
AcDbSymbolTableRecord
100
AcDbLayerTableRecord
  2
0
 70
0
  6
CONTINUOUS
  0
LAYER
  5
51
100
AcDbSymbolTableRecord
100
AcDbLayerTableRecord
  2
top_plate
 70
0
  6
CONTINUOUS
  0
ENDTAB
  0
TABLE
  2
STYLE
  5
3
330
0
100
AcDbSymbolTable
 70
     1
  0
STYLE
  5
11
330
3
100
AcDbSymbolTableRecord
100
AcDbTextStyleTableRecord
  2
STANDARD
 70
     0
 40
0.0
 41
1.0
 50
0.0
 71
     0
 42
2.5
  3
txt
  4

  0
ENDTAB
  0
TABLE
  2
VIEW
  5
6
330
0
100
AcDbSymbolTable
 70
     0
  0
ENDTAB
  0
TABLE
  2
UCS
  5
7
330
0
100
AcDbSymbolTable
 70
     0
  0
ENDTAB
  0
TABLE
  2
APPID
  5
9
330
0
100
AcDbSymbolTable
 70
     2
  0
APPID
  5
12
330
9
100
AcDbSymbolTableRecord
100
AcDbRegAppTableRecord
  2
ACAD
 70
     0
  0
ENDTAB
  0
TABLE
  2
DIMSTYLE
  5
A
330
0
100
AcDbSymbolTable
 70
     1
  0
DIMSTYLE
105
27
330
A
100
AcDbSymbolTableRecord
100
AcDbDimStyleTableRecord
  2
ISO-25
 70
     0
  3

  4

  5

  6

  7

 40
1.0
 41
2.5
 42
0.625
 43
3.75
 44
1.25
 45
0.0
 46
0.0
 47
0.0
 48
0.0
140
2.5
141
2.5
142
0.0
143
0.03937007874016
144
1.0
145
0.0
146
1.0
147
0.625
 71
     0
 72
     0
 73
     0
 74
     0
 75
     0
 76
     0
 77
     1
 78
     8
170
     0
171
     3
172
     1
173
     0
174
     0
175
     0
176
     0
177
     0
178
     0
270
     2
271
     2
272
     2
273
     2
274
     3
340
11
275
     0
280
     0
281
     0
282
     0
283
     0
284
     8
285
     0
286
     0
287
     3
288
     0
  0
ENDTAB
  0
TABLE
  2
BLOCK_RECORD
  5
1
330
0
100
AcDbSymbolTable
 70
     1
  0
BLOCK_RECORD
  5
1F
330
1
100
AcDbSymbolTableRecord
100
AcDbBlockTableRecord
  2
*MODEL_SPACE
  0
BLOCK_RECORD
  5
1B
330
1
100
AcDbSymbolTableRecord
100
AcDbBlockTableRecord
  2
*PAPER_SPACE
  0
ENDTAB
  0
ENDSEC
  0
SECTION
  2
BLOCKS
  0
BLOCK
  5
20
330
1F
100
AcDbEntity
  8
0
100
AcDbBlockBegin
  2
*MODEL_SPACE
 70
     0
 10
0.0
 20
0.0
 30
0.0
  3
*MODEL_SPACE
  1

  0
ENDBLK
  5
21
330
1F
100
AcDbEntity
  8
0
100
AcDbBlockEnd
  0
BLOCK
  5
1C
330
1B
100
AcDbEntity
 67
     1
  8
0
100
AcDbBlockBegin
  2
*PAPER_SPACE
  1

  0
ENDBLK
  5
1D
330
1B
100
AcDbEntity
 67
     1
  8
0
100
AcDbBlockEnd
  0
ENDSEC
  0
SECTION
  2
ENTITIES
  0
SPLINE
  5
100
100
AcDbEntity
  8
top_plate
 62
3
100
AcDbSpline
 70
8
 71
3
 72
8
 73
4
 74
0
 40
0
 40
0
 40
0
 40
0
 40
1
 40
1
 40
1
 40
1
 10
339.273000
 20
196.098000
 30
0.0
 10
339.273000
 20
194.771918
 30
0.0
 10
338.746216
 20
193.500148
 30
0.0
 10
337.808534
 20
192.562466
 30
0.0
  0
SPLINE
  5
101
100
AcDbEntity
  8
top_plate
 62
3
100
AcDbSpline
 70
8
 71
3
 72
8
 73
4
 74
0
 40
0
 40
0
 40
0
 40
0
 40
1
 40
1
 40
1
 40
1
 10
337.808534
 20
192.562466
 30
0.0
 10
336.870852
 20
191.624784
 30
0.0
 10
335.599082
 20
191.098000
 30
0.0
 10
334.273000
 20
191.098000
 30
0.0
  0
LWPOLYLINE
  5
102
100
AcDbEntity
  8
top_plate
 62
3
100
AcDbPolyline
 90
2
 70
0
 10
339.273000
 20
292.656933
 30
0.0
 10
339.273000
 20
196.098000
 30
0.0
  0
SPLINE
  5
103
100
AcDbEntity
  8
top_plate
 62
3
100
AcDbSpline
 70
8
 71
3
 72
8
 73
4
 74
0
 40
0
 40
0
 40
0
 40
0
 40
1
 40
1
 40
1
 40
1
 10
4.332361
 20
191.098000
 30
0.0
 10
3.006279
 20
191.098000
 30
0.0
 10
1.734509
 20
191.624784
 30
0.0
 10
0.796827
 20
192.562466
 30
0.0
  0
SPLINE
  5
104
100
AcDbEntity
  8
top_plate
 62
3
100
AcDbSpline
 70
8
 71
3
 72
8
 73
4
 74
0
 40
0
 40
0
 40
0
 40
0
 40
1
 40
1
 40
1
 40
1
 10
0.796827
 20
192.562466
 30
0.0
 10
-0.140855
 20
193.500148
 30
0.0
 10
-0.667639
 20
194.771918
 30
0.0
 10
-0.667639
 20
196.098000
 30
0.0
  0
LWPOLYLINE
  5
105
100
AcDbEntity
  8
top_plate
 62
3
100
AcDbPolyline
 90
2
 70
0
 10
334.273000
 20
191.098000
 30
0.0
 10
4.332361
 20
191.098000
 30
0.0
  0
SPLINE
  5
106
100
AcDbEntity
  8
top_plate
 62
3
100
AcDbSpline
 70
8
 71
3
 72
8
 73
4
 74
0
 40
0
 40
0
 40
0
 40
0
 40
1
 40
1
 40
1
 40
1
 10
-0.667639
 20
292.656933
 30
0.0
 10
-0.667639
 20
293.983015
 30
0.0
 10
-0.140855
 20
295.254785
 30
0.0
 10
0.796827
 20
296.192467
 30
0.0
  0
SPLINE
  5
107
100
AcDbEntity
  8
top_plate
 62
3
100
AcDbSpline
 70
8
 71
3
 72
8
 73
4
 74
0
 40
0
 40
0
 40
0
 40
0
 40
1
 40
1
 40
1
 40
1
 10
0.796827
 20
296.192467
 30
0.0
 10
1.734509
 20
297.130149
 30
0.0
 10
3.006279
 20
297.656933
 30
0.0
 10
4.332361
 20
297.656933
 30
0.0
  0
LWPOLYLINE
  5
108
100
AcDbEntity
  8
top_plate
 62
3
100
AcDbPolyline
 90
2
 70
0
 10
-0.667639
 20
196.098000
 30
0.0
 10
-0.667639
 20
292.656933
 30
0.0
  0
SPLINE
  5
109
100
AcDbEntity
  8
top_plate
 62
3
100
AcDbSpline
 70
8
 71
3
 72
8
 73
4
 74
0
 40
0
 40
0
 40
0
 40
0
 40
1
 40
1
 40
1
 40
1
 10
334.273000
 20
297.656933
 30
0.0
 10
335.599082
 20
297.656933
 30
0.0
 10
336.870852
 20
297.130149
 30
0.0
 10
337.808534
 20
296.192467
 30
0.0
  0
SPLINE
  5
10a
100
AcDbEntity
  8
top_plate
 62
3
100
AcDbSpline
 70
8
 71
3
 72
8
 73
4
 74
0
 40
0
 40
0
 40
0
 40
0
 40
1
 40
1
 40
1
 40
1
 10
337.808534
 20
296.192467
 30
0.0
 10
338.746216
 20
295.254785
 30
0.0
 10
339.273000
 20
293.983015
 30
0.0
 10
339.273000
 20
292.656933
 30
0.0
  0
LWPOLYLINE
  5
10b
100
AcDbEntity
  8
top_plate
 62
3
100
AcDbPolyline
 90
2
 70
0
 10
4.332361
 20
297.656933
 30
0.0
 10
334.273000
 20
297.656933
 30
0.0
  0
LWPOLYLINE
  5
10c
100
AcDbEntity
  8
top_plate
 62
3
100
AcDbPolyline
 90
1
 70
1
 10
339.273000
 20
292.656933
 30
0.0
  0
LWPOLYLINE
  5
10d
100
AcDbEntity
  8
top_plate
 62
3
100
AcDbPolyline
 90
16
 70
1
 10
167.802000
 20
194.781000
 30
0.0
 10
167.577000
 20
194.447000
 30
0.0
 10
167.244000
 20
194.222000
 30
0.0
 10
166.835000
 20
194.140000
 30
0.0
 10
166.426000
 20
194.222000
 30
0.0
 10
166.092000
 20
194.447000
 30
0.0
 10
165.867000
 20
194.781000
 30
0.0
 10
165.785000
 20
195.190000
 30
0.0
 10
165.867000
 20
195.599000
 30
0.0
 10
166.092000
 20
195.932000
 30
0.0
 10
166.426000
 20
196.157000
 30
0.0
 10
166.835000
 20
196.240000
 30
0.0
 10
167.244000
 20
196.157000
 30
0.0
 10
167.577000
 20
195.932000
 30
0.0
 10
167.802000
 20
195.599000
 30
0.0
 10
167.885000
 20
195.190000
 30
0.0
  0
LWPOLYLINE
  5
10e
100
AcDbEntity
  8
top_plate
 62
3
100
AcDbPolyline
 90
16
 70
1
 10
167.802000
 20
293.156680
 30
0.0
 10
167.577000
 20
292.822920
 30
0.0
 10
167.244000
 20
292.597900
 30
0.0
 10
166.835000
 20
292.515390
 30
0.0
 10
166.426000
 20
292.597900
 30
0.0
 10
166.092000
 20
292.822920
 30
0.0
 10
165.867000
 20
293.156680
 30
0.0
 10
165.785000
 20
293.565390
 30
0.0
 10
165.867000
 20
293.974090
 30
0.0
 10
166.092000
 20
294.307850
 30
0.0
 10
166.426000
 20
294.532870
 30
0.0
 10
166.835000
 20
294.615390
 30
0.0
 10
167.244000
 20
294.532870
 30
0.0
 10
167.577000
 20
294.307850
 30
0.0
 10
167.802000
 20
293.974090
 30
0.0
 10
167.885000
 20
293.565390
 30
0.0
  0
LWPOLYLINE
  5
10f
100
AcDbEntity
  8
top_plate
 62
3
100
AcDbPolyline
 90
16
 70
1
 10
286.618000
 20
234.414200
 30
0.0
 10
286.393000
 20
234.080400
 30
0.0
 10
286.059000
 20
233.855400
 30
0.0
 10
285.651000
 20
233.772900
 30
0.0
 10
285.242000
 20
233.855400
 30
0.0
 10
284.908000
 20
234.080400
 30
0.0
 10
284.683000
 20
234.414200
 30
0.0
 10
284.601000
 20
234.822900
 30
0.0
 10
284.683000
 20
235.231600
 30
0.0
 10
284.908000
 20
235.565400
 30
0.0
 10
285.242000
 20
235.790400
 30
0.0
 10
285.651000
 20
235.872900
 30
0.0
 10
286.059000
 20
235.790400
 30
0.0
 10
286.393000
 20
235.565400
 30
0.0
 10
286.618000
 20
235.231600
 30
0.0
 10
286.701000
 20
234.822900
 30
0.0
  0
LWPOLYLINE
  5
110
100
AcDbEntity
  8
top_plate
 62
3
100
AcDbPolyline
 90
16
 70
1
 10
210.748000
 20
253.431200
 30
0.0
 10
210.523000
 20
253.097400
 30
0.0
 10
210.189000
 20
252.872400
 30
0.0
 10
209.780000
 20
252.789900
 30
0.0
 10
209.372000
 20
252.872400
 30
0.0
 10
209.038000
 20
253.097400
 30
0.0
 10
208.813000
 20
253.431200
 30
0.0
 10
208.730000
 20
253.839900
 30
0.0
 10
208.813000
 20
254.248600
 30
0.0
 10
209.038000
 20
254.582300
 30
0.0
 10
209.372000
 20
254.807300
 30
0.0
 10
209.780000
 20
254.889900
 30
0.0
 10
210.189000
 20
254.807300
 30
0.0
 10
210.523000
 20
254.582300
 30
0.0
 10
210.748000
 20
254.248600
 30
0.0
 10
210.830000
 20
253.839900
 30
0.0
  0
LWPOLYLINE
  5
111
100
AcDbEntity
  8
top_plate
 62
3
100
AcDbPolyline
 90
16
 70
1
 10
134.549000
 20
234.414200
 30
0.0
 10
134.324000
 20
234.080400
 30
0.0
 10
133.990000
 20
233.855400
 30
0.0
 10
133.581000
 20
233.772900
 30
0.0
 10
133.173000
 20
233.855400
 30
0.0
 10
132.839000
 20
234.080400
 30
0.0
 10
132.614000
 20
234.414200
 30
0.0
 10
132.531000
 20
234.822900
 30
0.0
 10
132.614000
 20
235.231600
 30
0.0
 10
132.839000
 20
235.565400
 30
0.0
 10
133.173000
 20
235.790400
 30
0.0
 10
133.581000
 20
235.872900
 30
0.0
 10
133.990000
 20
235.790400
 30
0.0
 10
134.324000
 20
235.565400
 30
0.0
 10
134.549000
 20
235.231600
 30
0.0
 10
134.631000
 20
234.822900
 30
0.0
  0
LWPOLYLINE
  5
112
100
AcDbEntity
  8
top_plate
 62
3
100
AcDbPolyline
 90
16
 70
1
 10
53.594100
 20
253.549500
 30
0.0
 10
53.369100
 20
253.215800
 30
0.0
 10
53.035400
 20
252.990800
 30
0.0
 10
52.626700
 20
252.908300
 30
0.0
 10
52.218000
 20
252.990800
 30
0.0
 10
51.884200
 20
253.215800
 30
0.0
 10
51.659200
 20
253.549500
 30
0.0
 10
51.576700
 20
253.958300
 30
0.0
 10
51.659200
 20
254.367000
 30
0.0
 10
51.884200
 20
254.700700
 30
0.0
 10
52.218000
 20
254.925700
 30
0.0
 10
52.626700
 20
255.008300
 30
0.0
 10
53.035400
 20
254.925700
 30
0.0
 10
53.369100
 20
254.700700
 30
0.0
 10
53.594100
 20
254.367000
 30
0.0
 10
53.676700
 20
253.958300
 30
0.0
  0
LWPOLYLINE
  5
113
100
AcDbEntity
  8
top_plate
 62
3
100
AcDbPolyline
 90
16
 70
1
 10
253.601000
 20
194.781000
 30
0.0
 10
253.376000
 20
194.447000
 30
0.0
 10
253.043000
 20
194.222000
 30
0.0
 10
252.634000
 20
194.140000
 30
0.0
 10
252.225000
 20
194.222000
 30
0.0
 10
251.891000
 20
194.447000
 30
0.0
 10
251.666000
 20
194.781000
 30
0.0
 10
251.584000
 20
195.190000
 30
0.0
 10
251.666000
 20
195.599000
 30
0.0
 10
251.891000
 20
195.932000
 30
0.0
 10
252.225000
 20
196.157000
 30
0.0
 10
252.634000
 20
196.240000
 30
0.0
 10
253.043000
 20
196.157000
 30
0.0
 10
253.376000
 20
195.932000
 30
0.0
 10
253.601000
 20
195.599000
 30
0.0
 10
253.684000
 20
195.190000
 30
0.0
  0
LWPOLYLINE
  5
114
100
AcDbEntity
  8
top_plate
 62
3
100
AcDbPolyline
 90
16
 70
1
 10
253.601000
 20
293.156680
 30
0.0
 10
253.376000
 20
292.822930
 30
0.0
 10
253.043000
 20
292.597900
 30
0.0
 10
252.634000
 20
292.515390
 30
0.0
 10
252.225000
 20
292.597900
 30
0.0
 10
251.891000
 20
292.822930
 30
0.0
 10
251.666000
 20
293.156680
 30
0.0
 10
251.584000
 20
293.565390
 30
0.0
 10
251.666000
 20
293.974100
 30
0.0
 10
251.891000
 20
294.307850
 30
0.0
 10
252.225000
 20
294.532870
 30
0.0
 10
252.634000
 20
294.615390
 30
0.0
 10
253.043000
 20
294.532870
 30
0.0
 10
253.376000
 20
294.307850
 30
0.0
 10
253.601000
 20
293.974100
 30
0.0
 10
253.684000
 20
293.565390
 30
0.0
  0
LWPOLYLINE
  5
115
100
AcDbEntity
  8
top_plate
 62
3
100
AcDbPolyline
 90
16
 70
1
 10
82.239900
 20
194.781000
 30
0.0
 10
82.014900
 20
194.447000
 30
0.0
 10
81.681100
 20
194.222000
 30
0.0
 10
81.272400
 20
194.140000
 30
0.0
 10
80.863700
 20
194.222000
 30
0.0
 10
80.529900
 20
194.447000
 30
0.0
 10
80.304900
 20
194.781000
 30
0.0
 10
80.222400
 20
195.190000
 30
0.0
 10
80.304900
 20
195.599000
 30
0.0
 10
80.529900
 20
195.932000
 30
0.0
 10
80.863700
 20
196.157000
 30
0.0
 10
81.272400
 20
196.240000
 30
0.0
 10
81.681100
 20
196.157000
 30
0.0
 10
82.014900
 20
195.932000
 30
0.0
 10
82.239900
 20
195.599000
 30
0.0
 10
82.322400
 20
195.190000
 30
0.0
  0
LWPOLYLINE
  5
116
100
AcDbEntity
  8
top_plate
 62
3
100
AcDbPolyline
 90
16
 70
1
 10
82.239900
 20
293.156680
 30
0.0
 10
82.014900
 20
292.822930
 30
0.0
 10
81.681100
 20
292.597900
 30
0.0
 10
81.272400
 20
292.515390
 30
0.0
 10
80.863700
 20
292.597900
 30
0.0
 10
80.529900
 20
292.822930
 30
0.0
 10
80.304900
 20
293.156680
 30
0.0
 10
80.222400
 20
293.565390
 30
0.0
 10
80.304900
 20
293.974100
 30
0.0
 10
80.529900
 20
294.307850
 30
0.0
 10
80.863700
 20
294.532870
 30
0.0
 10
81.272400
 20
294.615390
 30
0.0
 10
81.681100
 20
294.532870
 30
0.0
 10
82.014900
 20
294.307850
 30
0.0
 10
82.239900
 20
293.974100
 30
0.0
 10
82.322400
 20
293.565390
 30
0.0
  0
LWPOLYLINE
  5
117
100
AcDbEntity
  8
top_plate
 62
3
100
AcDbPolyline
 90
16
 70
1
 10
336.153000
 20
194.781000
 30
0.0
 10
335.927000
 20
194.447000
 30
0.0
 10
335.594000
 20
194.222000
 30
0.0
 10
335.185000
 20
194.140000
 30
0.0
 10
334.776000
 20
194.222000
 30
0.0
 10
334.443000
 20
194.447000
 30
0.0
 10
334.218000
 20
194.781000
 30
0.0
 10
334.135000
 20
195.190000
 30
0.0
 10
334.218000
 20
195.599000
 30
0.0
 10
334.443000
 20
195.932000
 30
0.0
 10
334.776000
 20
196.157000
 30
0.0
 10
335.185000
 20
196.240000
 30
0.0
 10
335.594000
 20
196.157000
 30
0.0
 10
335.927000
 20
195.932000
 30
0.0
 10
336.153000
 20
195.599000
 30
0.0
 10
336.235000
 20
195.190000
 30
0.0
  0
LWPOLYLINE
  5
118
100
AcDbEntity
  8
top_plate
 62
3
100
AcDbPolyline
 90
16
 70
1
 10
336.153000
 20
293.156680
 30
0.0
 10
335.927000
 20
292.822930
 30
0.0
 10
335.594000
 20
292.597900
 30
0.0
 10
335.185000
 20
292.515390
 30
0.0
 10
334.776000
 20
292.597900
 30
0.0
 10
334.443000
 20
292.822930
 30
0.0
 10
334.218000
 20
293.156680
 30
0.0
 10
334.135000
 20
293.565390
 30
0.0
 10
334.218000
 20
293.974100
 30
0.0
 10
334.443000
 20
294.307850
 30
0.0
 10
334.776000
 20
294.532870
 30
0.0
 10
335.185000
 20
294.615390
 30
0.0
 10
335.594000
 20
294.532870
 30
0.0
 10
335.927000
 20
294.307850
 30
0.0
 10
336.153000
 20
293.974100
 30
0.0
 10
336.235000
 20
293.565390
 30
0.0
  0
LWPOLYLINE
  5
119
100
AcDbEntity
  8
top_plate
 62
3
100
AcDbPolyline
 90
16
 70
1
 10
4.397510
 20
194.781000
 30
0.0
 10
4.172490
 20
194.447000
 30
0.0
 10
3.838730
 20
194.222000
 30
0.0
 10
3.430020
 20
194.140000
 30
0.0
 10
3.021320
 20
194.222000
 30
0.0
 10
2.687560
 20
194.447000
 30
0.0
 10
2.462540
 20
194.781000
 30
0.0
 10
2.380020
 20
195.190000
 30
0.0
 10
2.462540
 20
195.599000
 30
0.0
 10
2.687560
 20
195.932000
 30
0.0
 10
3.021320
 20
196.157000
 30
0.0
 10
3.430020
 20
196.240000
 30
0.0
 10
3.838730
 20
196.157000
 30
0.0
 10
4.172490
 20
195.932000
 30
0.0
 10
4.397510
 20
195.599000
 30
0.0
 10
4.480020
 20
195.190000
 30
0.0
  0
LWPOLYLINE
  5
11a
100
AcDbEntity
  8
top_plate
 62
3
100
AcDbPolyline
 90
16
 70
1
 10
4.397510
 20
293.156690
 30
0.0
 10
4.172490
 20
292.822930
 30
0.0
 10
3.838730
 20
292.597910
 30
0.0
 10
3.430020
 20
292.515390
 30
0.0
 10
3.021320
 20
292.597910
 30
0.0
 10
2.687560
 20
292.822930
 30
0.0
 10
2.462540
 20
293.156690
 30
0.0
 10
2.380020
 20
293.565390
 30
0.0
 10
2.462540
 20
293.974100
 30
0.0
 10
2.687560
 20
294.307860
 30
0.0
 10
3.021320
 20
294.532880
 30
0.0
 10
3.430020
 20
294.615390
 30
0.0
 10
3.831840
 20
294.535470
 30
0.0
 10
4.172490
 20
294.307860
 30
0.0
 10
4.400100
 20
293.967210
 30
0.0
 10
4.480020
 20
293.565390
 30
0.0
  0
ENDSEC
  0
SECTION
  2
OBJECTS
  0
DICTIONARY
  5
C
330
0
100
AcDbDictionary
  3
ACAD_GROUP
350
D
  3
ACAD_MLINESTYLE
350
17
  0
DICTIONARY
  5
D
330
C
100
AcDbDictionary
  0
DICTIONARY
  5
1A
330
C
100
AcDbDictionary
  0
DICTIONARY
  5
17
330
C
100
AcDbDictionary
  3
STANDARD
350
18
  0
DICTIONARY
  5
19
330
C
100
AcDbDictionary
  0
ENDSEC
  0
EOF
