<?xml version="1.0" encoding="UTF-8" standalone="no"?>
<svg
   xmlns:dc="http://purl.org/dc/elements/1.1/"
   xmlns:cc="http://creativecommons.org/ns#"
   xmlns:rdf="http://www.w3.org/1999/02/22-rdf-syntax-ns#"
   xmlns:svg="http://www.w3.org/2000/svg"
   xmlns="http://www.w3.org/2000/svg"
   xmlns:sodipodi="http://sodipodi.sourceforge.net/DTD/sodipodi-0.dtd"
   xmlns:inkscape="http://www.inkscape.org/namespaces/inkscape"
   version="1.1"
   viewBox="0.0 0.0 559.3700787401575 793.7007874015748"
   fill="none"
   stroke="none"
   stroke-linecap="square"
   stroke-miterlimit="10"
   id="svg15"
   sodipodi:docname="molecule-logo.svg"
   inkscape:version="1.0 (4035a4fb49, 2020-05-01)">
  <metadata
     id="metadata21">
    <rdf:RDF>
      <cc:Work
         rdf:about="">
        <dc:format>image/svg+xml</dc:format>
        <dc:type
           rdf:resource="http://purl.org/dc/dcmitype/StillImage" />
        <dc:title />
      </cc:Work>
    </rdf:RDF>
  </metadata>
  <defs
     id="defs19" />
  <sodipodi:namedview
     inkscape:document-rotation="0"
     inkscape:current-layer="g13"
     inkscape:window-maximized="1"
     inkscape:window-y="-8"
     inkscape:window-x="1016"
     inkscape:cy="366.4038"
     inkscape:cx="267.22327"
     inkscape:zoom="2.1872222"
     showgrid="false"
     id="namedview17"
     inkscape:window-height="1017"
     inkscape:window-width="1920"
     inkscape:pageshadow="2"
     inkscape:pageopacity="0"
     guidetolerance="10"
     gridtolerance="10"
     objecttolerance="10"
     borderopacity="1"
     bordercolor="#666666"
     pagecolor="#ffffff" />
  <clipPath
     id="p.0">
    <path
       id="path2"
       clip-rule="nonzero"
       d="m0 0l559.37006 0l0 793.7008l-559.37006 0l0 -793.7008z" />
  </clipPath>
  <g
     id="g13"
     clip-path="url(#p.0)">
    <path
       d="m 91.2553,423.048 0.8125,-1.203 0.9688,-0.593 0.7031,-0.438 2.7031,-2.437 2.75,-2.438 3.2972,-3.406 3.218,-3.781 4.188,-3.61 2.109,-1.578 1.985,-1.422 1.265,-1.469 2.047,-1.781 2.438,-1.734 2.187,-1.453 5.985,-0.766 4.093,2.984 0.578,1.219 0.829,1.078 0.765,1.047 0.531,2.266 -0.421,3.5 -0.657,2.812 -0.312,3.485 -0.469,2.687 0.781,1.297 -0.875,2.359 -1.156,-1.906 1.922,-1.344 1.156,-0.781 1.891,-1.828 1.672,-1.75 2,-1.859 1.922,-1.657 1.687,-1.937 1.875,-2.156 1.406,-0.657 0.047,-1.093 2.235,-1.719 3.218,-1.75 3.125,0.141 2.11,1.437 1.406,1.656 0.906,1.219 1.063,2.125 0.734,0.719 0.828,4.156 -0.656,2.281 -0.297,2.141 -0.25,1.062 -2.234,8.641 0.453,0.953 -1.578,2.203 0.265,-2.062 0.719,-0.141 2.109,-1.015 2.297,-1.438 3.532,-2.547 3.421,-2.469 0.813,-0.812 1.266,-1.125 2.859,-1.922 2.609,-1.344 0.532,-0.437 0.796,-0.781 2.25,-1.719 3,-1.656 5.25,1.593 0.75,4.125 -4.656,3.407 -3.094,2.578 -1.031,0.656 -1.062,0.516 -0.25,0.203 -1.094,1.093 -1.297,1.032 -1.391,1.234 -1.718,1.297 -1.25,1.125 -1.032,1.297 -1.968,2.031 -0.953,0.516 -0.797,-0.219 0.437,1.141 -1.484,2.218 -1.047,1.047 -0.906,1.016 -1.5,0.828 -0.907,0.375 -0.703,0.609 -1.359,1.172 -2.063,1.313 -2.031,0.828 -2.656,1.094 -1.063,-0.86 -1.812,0.016 -1.203,0.203 -0.547,-1.125 -2.313,-0.172 -2.375,-3.828 -0.109,-1.938 -0.531,-4.046 -0.406,-4.469 0.218,-2.219 0.297,-1.437 -0.125,-0.407 -0.125,-1.406 0.375,-2.141 2.625,-0.484 -0.297,3.719 -1.843,2.125 -3.829,2.531 -3.453,1.922 -3.14,2.875 -3.328,3.062 -2.36,2.579 -3.344,2.328 -2.593,0.547 -2.453,-0.813 -4.375,-5.469 0.171,-6.031 -0.453,-2.078 0.407,-2.469 0.921,-1.5 -0.781,-0.765 1.25,-5.079 0.969,-4.468 0.922,0.625 0.953,-1.016 -2.406,4.328 -4,3.5 -2.016,1.766 -2.016,1.75 -2.015,1.703 -1.516,1.547 -1.719,1.937 -1.203,0.922 -0.797,0.625 -0.906,0.735 -1.484,0.859 -1.031,0.391 -1.0629,0.953 -1.4063,1.406 -1.2656,1.141 -0.6875,0.625 -1.9687,2.484 -1.4844,1.609 -1.0156,1.719 -1.5313,1.531 -1.25,1.344 -2.0937,1.375 -1.1407,0.297 -0.7187,0.203 -2.0469,0.781 -3,0.313 -1.9219,-0.25 -3.3437,-1.953 -0.9375,-1.36 1.2187,-5.25 0.8907,-3.343 1.625,-3.047 1.3281,-3.078 1.3594,-3.375 1.3281,-3.032 0.9062,-2.875 1.2813,-2.812 0.6719,-1.672 0.9843,-1.563 0.2813,-1.812 1.1875,-2.219 0.8906,-2.625 0.4063,-0.781 0.1718,-0.531 -0.0625,-1.063 0.8907,-2.453 1.3125,-1.437 1.5312,-1.704 0.9375,0.25 1.1875,-1.734 1.4063,0.594 0.4218,-1.422 1.9063,-0.953 0.9375,-0.485 1.0469,-0.437 0.4218,0.437 0.6097,-1.093 2.187,-1.844 5.156,3.328 0.891,5.016 -0.531,1.687 -0.563,1.203 -0.156,0.86 -0.578,1.672 -1.063,2.187 -0.812,1.953 -0.422,0.688 -0.328,0.687 -0.875,1.985 -1.281,1.75 -0.735,0.859 -0.625,0.828 -1.8747,2.672 -1.875,2.531 -1.2187,2.313 -3.2656,1 h -1e-4 l -1.0156,-2.032 m 149.6167,-19.734 1.812,-0.719 0.266,4.766 -0.766,1.297 h -0.922 l 1.235,1.187 -4.782,2.391 -2.047,0.937 -5.937,1.875 -4.781,0.735 -1.735,0.984 -1.984,0.875 -3.297,-0.797 -2.312,-0.328 -1.141,0.203 -0.516,-0.859 0.813,1.281 -0.61,2.875 -0.687,1.36 -0.125,0.875 -0.563,1.968 -0.796,0.719 0.171,1.109 -1.609,2.829 -1.469,2.39 -1.406,2.219 -1.656,1.781 -2.735,3.625 -2.984,2.641 -1.953,1.703 -0.547,0.969 -3.422,2.047 -3.609,1.515 -5.578,-0.125 -3.938,-1.656 -2.297,-0.625 -2.015,-1.031 -3.719,-2.797 -3.219,-4.125 -0.609,-3.078 -0.594,-2.594 -0.141,-3.047 0.079,-2.469 -0.079,-2.781 0.86,-3.344 0.922,-2.484 0.625,-2.219 0.922,-1.672 1.062,-1.656 1.953,-2.516 2.094,-2.234 1.578,-1.828 2.328,-2.063 2.031,-1.781 1.032,-1.031 1.047,-0.703 2.671,-1.453 2.579,-1.188 2.484,-0.906 2.75,-0.531 h 1.547 l 0.656,2.093 -0.031,-3.359 4.109,-0.687 3.219,0.968 1.906,1.719 3,2.891 -0.219,0.39 1.547,0.422 1.157,1.938 0.109,0.625 1.172,1.047 -0.578,1.906 1,-1.297 1.218,0.297 0.657,0.187 2,-0.109 1.328,0.328 0.375,0.141 1.89,-0.516 3.579,-0.078 3.031,-0.484 4.656,-1.141 0.859,-0.063 0.61,1.204 1.265,-1.891 3.141,-0.734 v 0 l 2.063,1.687 m -42.204,4.813 -0.671,0.562 -0.454,-0.547 -1.187,0.063 -1.906,0.39 -2.219,1.344 -2.813,2.469 -0.656,1.109 -0.594,1.438 -0.937,1.937 -0.594,1.906 -0.703,1.875 -0.219,1.235 -0.453,2.719 -0.453,1.687 -0.156,0.469 0.797,0.328 0.75,1.812 0.343,0.766 0.625,0.203 2.219,0.641 0.891,0.359 0.562,-0.047 1.797,-1.109 2.11,-1.516 1.859,-2.703 2.281,-3.578 0.485,-0.891 0.671,-1.484 1.36,0.359 -0.594,-1.609 0.438,-1.984 -0.016,-1.438 -0.844,-2.469 -0.875,-2.218 v 0 l -0.844,-2.078 m 71.014,2.39 1.078,3.672 -1.734,2.766 -1.625,0.75 -3.219,4.64 -3.984,4.485 -1.203,1.343 -1.438,1.563 -2.562,2.234 -2.594,2.375 -1.188,0.938 -1.031,0.922 -1.406,1.25 -0.969,0.765 -1.375,1.594 -1.906,2.422 -2.969,1.719 -2.906,1.64 -0.672,0.985 -2.438,1.515 -3.39,0.313 -3.172,-1 -0.328,-0.906 -1.297,0.562 -2.859,-5.531 -1.157,-4.266 -0.5,-1.656 -0.265,-1.75 -0.188,-0.953 -0.187,-0.75 -0.578,-1.531 -0.5,-1.875 -0.219,-3.61 0.375,-3.359 2.375,-8.61 3.015,-7.343 0.735,-2.516 0.969,-2.719 0.796,-1.765 0.672,-2.328 1,-2.344 0.766,-2.125 0.75,-2.75 0.953,-2.61 1.891,-5.093 1.968,-4.938 0.547,-1.687 0.86,-1.672 0.703,-1.36 0.812,-0.546 0.532,-1.829 0.625,-0.703 0.843,-1.89 1.266,-2.516 1.469,-1.844 0.531,-1.062 1.031,-1.281 2.938,-4.36 3.484,-4.922 2.781,-3.703 3.047,-3.25 1.563,-1.781 2.89,-1.469 4.75,0.641 1.438,2.609 0.812,2.266 -0.25,8.578 -1.203,7.641 0.016,0.859 -0.172,1.828 -0.703,2.125 -0.531,1.813 -0.844,3.718 -1.219,3.672 -1.203,0.344 -1.266,0.359 0.797,2.938 -1.078,2.64 -4.266,5.657 -3.734,5.14 -4.844,6.641 -4.89,6.703 -2.86,3.281 -2.64,2.969 -0.969,4.656 -1.219,6.078 -0.453,2 -0.516,1.75 0.016,1.875 -1.578,1.922 1.391,0.672 0.078,0.75 -0.375,0.828 -0.782,0.344 1.391,-0.828 -0.859,-0.625 0.75,-0.672 1.453,-1.469 0.89,-0.468 0.86,-0.657 1.047,-0.093 -0.219,-0.297 3.687,-3.157 2.641,-2.328 2.891,-1.781 0.984,-0.922 2.172,-0.172 -0.563,-1.109 0.688,-0.891 3.5,-2.375 3.031,-1.25 0.547,-1.562 1.031,-0.75 0.594,-0.969 2.078,0.641 -0.828,-1.969 1.797,-2.234 v 0 l 5.328,2.39 m -10.672,-44.922 -0.422,1.532 -0.781,1.468 0.031,1.203 -7.734,14.516 -7.047,10.422 0.547,-4.891 4.594,-6.062 3.843,-7.875 3.063,-7.391 0.078,-3.328 3.313,-2.266 0.125,0.969 0.39,1.703 m 21.817,43.485 -1.954,1.89 -1.828,2.516 -1.953,2.094 -1.422,1.906 -1.328,1.156 -0.906,1.172 -0.906,1.109 -0.422,0.5 -1.203,-0.515 0.797,-1.438 1.89,-0.906 2.172,-1.141 1.547,-0.765 3.312,-3.297 1.282,-1.422 1,-1.344 0.89,-2.312 0.641,-1.531 -0.344,-0.766 1.516,-1.375 -0.375,2.297 -0.969,0.469 v 0 l -1.437,1.703 m -21.547,1.656 1.297,-2.563 2.218,-2.5 h 2.328 l -0.609,-1.906 1.016,-1.047 2.812,-3.172 3.625,-3.265 5.563,-2.953 7.297,-1.969 2.765,0.281 4.156,1.719 1.063,1.359 1.281,1.516 0.844,2.297 0.547,1.781 0.281,3.016 -0.031,2.14 -1.391,7.094 -0.578,1.797 -0.953,2.078 -1.328,1.953 -1.078,1.688 -3.219,3.062 -2.703,1.641 -2.86,1.172 -0.937,0.593 -1.469,0.579 -2.515,1.281 -2.875,1.14 -1.391,0.797 -2.156,1.157 -2.141,0.562 -1.578,-1.859 2.422,2.328 -0.328,1.39 2.078,0.25 3.156,-0.015 1.109,-0.406 1.891,-0.516 2.406,-0.547 2.078,-0.937 7.032,-3.344 5.828,-4.625 3.265,-2.672 2.704,-3.141 4.281,-4 4.297,-1.343 4.312,2.64 -0.812,6.156 -2.875,2.469 -3.391,2.406 -2.312,2.422 -2.938,3.141 -1.344,1.203 -1.297,1.313 -5.546,3.984 -0.329,-1.141 -0.609,1.625 -1.016,0.641 -0.625,0.375 -2.375,1.891 -2.796,1.718 -5.25,2.688 -5.313,2.969 -2.109,0.312 -0.985,0.141 -2.015,0.343 -2.375,-0.359 -4.625,-1.844 -3.703,-3.062 -1.61,-1.328 -1.844,-1.985 -1.156,-2.562 -1.031,-3.391 -0.703,-3.469 -0.281,-3.375 0.703,-1.968 0.593,-2.578 0.485,-2.579 0.172,-2.625 1.718,-0.937 0.313,-2.375 1.516,-1.641 -0.422,-2.25 v 0 l 2.375,-0.859 m 100.659,3.234 -0.109,2.813 -1.516,2.234 -1.718,2.031 -1.735,0.985 -1,0.812 -1.89,0.953 -1.813,-0.156 -4.547,4.953 -5.078,3.828 -4.219,3.188 -4.187,2.766 -1.078,1.156 -1.516,1.172 -3.031,2.64 -3.109,2.578 -3.766,1.875 -3,0.985 -5.297,0.734 -1.781,0.344 -3.406,-0.313 -1.313,-0.593 -0.734,-0.453 -2.532,-1.391 -1.546,-1.406 -1.188,-1.407 -0.969,-1.531 -1.109,-3.125 -0.594,-3.062 -0.828,-2.938 -0.391,-3.844 0.516,-2.39 0.625,-2.219 1.359,-3.516 1.313,-3.281 1.156,-1.547 0.813,-1 0.687,0.25 -0.047,-1.89 2.266,-2.485 1.922,-2.437 1.531,-1.86 1.266,-1.484 1.625,-1.437 0.156,-0.516 1.422,-1.594 1.328,-1.828 2.125,-2.187 2.5,-2.032 2.641,-1.297 2.75,-1.218 1.046,-0.563 1.563,-0.781 1.422,-0.25 1.187,-1.156 1.547,0.297 1.36,-0.907 1.875,0.688 0.781,-1.875 1.969,1.703 0.656,1.094 2.281,0.093 1.297,2.563 -1.172,5.625 -2.469,3.656 -1.75,2.11 -2.953,2.125 -3.937,0.218 -2.532,-1.968 0.235,1.046 1.844,0.219 -9,8.938 -4.922,9.156 -1.297,3.359 -0.531,0.625 1.734,3 2.125,1.422 2.297,-0.672 2.625,-1.547 3.594,-2.343 3.828,-2.282 0.906,-0.515 0.891,-0.61 3,-2.25 3.359,-2.531 0.984,-0.219 1.438,0.297 4.219,-4.281 5.562,-3.234 1.75,-1.516 2.563,-2.281 1.343,-0.063 3.578,-0.859 v 0 l 2.75,4.609 m 15.348,18.782 0.468,-2.313 0.422,-2.766 0.735,-4.171 2.718,-1.672 -0.593,5.843 -3.953,5.516 -1.313,2.031 -1.578,1.188 -0.813,0.453 -0.437,0.984 -1.375,1.453 -0.813,2.204 -1.578,0.89 -2.422,1.36 -0.031,0.546 -2.922,1.985 -3.047,0.875 -3.843,0.406 -4.61,0.375 -1.64,-1.109 -1.297,-0.469 -2.047,-0.813 -0.891,-0.437 -1.968,-1.656 -1.094,-1.188 -3.094,-10.172 0.75,-4.625 1.594,-3.593 1.797,-3.204 1.609,-2.734 0.109,-0.125 -0.125,-0.297 -0.125,-1.328 0.563,-2.062 0.875,-2.032 1.266,-2.25 2.484,-3.781 1.734,-3.297 2.407,-3.844 4.5,-2.843 1.343,0.656 1.61,-1.563 1.062,-0.312 3.938,0.797 -0.11,-0.75 0.188,0.906 2.859,-0.109 1,2.672 0.375,1.64 -0.093,1.5 -0.563,1.906 -0.703,0.985 -0.328,0.703 -2.063,2.937 -2.031,3.016 -1.578,1.891 -0.734,0.672 -0.282,0.765 -0.5,1.172 -3.422,6.422 -3.281,5.828 -0.406,1.719 -0.281,1.344 -0.078,0.906 -0.063,1.203 -1.172,1.187 0.594,-1 -0.859,0.922 2.343,0.453 0.235,1.157 -0.188,-0.297 0.078,0.203 0.844,-0.828 1.688,-1.188 1.328,-1.515 1.734,-2.219 2.313,-3.156 2.39,-3.172 1.656,-2.094 1.875,-3.078 1.782,-2.781 1.843,-3.563 1.938,-3.578 1.609,-2.047 0.922,-1.844 1.266,-2.546 1.344,-1.844 1.234,-1.516 2,-1.609 2.828,-0.75 1.828,-0.125 2.406,-0.469 5.297,0.484 -0.5,2.172 0.828,1.282 0.391,3.562 -0.734,3.594 -1.157,3.14 -1.015,2.141 -0.672,2.406 -0.344,1.282 -1.031,4.312 -0.719,4.188 -0.203,1.609 -0.187,0.859 -0.782,1.125 -0.265,-1 -0.672,0.516 0.797,-1.25 1,-0.938 1.297,-1.171 1.64,-1.25 1.203,-0.797 4.032,-3.844 4.171,-3.344 4.25,-4.078 7.672,-4.594 2.203,6.985 -1.968,3.375 -1.407,1.078 -0.859,0.515 -0.875,0.875 -1.937,-1.703 1.765,2.125 -0.797,0.813 -3.859,4.703 -4.609,4.703 -0.719,-0.078 -0.75,1.547 -1.016,1.062 -0.906,0.938 -1.391,1.828 -1.922,1.891 -0.484,0.875 -1.328,1.718 -2.594,1.047 0.922,0.797 -1.906,2.203 -2.156,-1.844 -0.375,1.032 1.578,0.656 -2.766,1.453 -2.141,0.781 -4.093,-0.437 -2.766,-2.531 -0.891,-3.25 -0.39,-6.5 m 74.727,-22.235 1.078,3.672 -1.735,2.766 -1.625,0.75 -3.218,4.64 -3.985,4.485 -1.203,1.343 -1.437,1.563 -2.563,2.234 -2.594,2.375 -1.187,0.938 -1.031,0.922 -1.407,1.25 -0.968,0.765 -1.375,1.594 -1.907,2.422 -2.968,1.719 -2.907,1.64 -0.672,0.985 -2.437,1.515 -3.391,0.313 -3.172,-1 -0.328,-0.906 -1.297,0.562 -2.859,-5.531 -1.156,-4.266 -0.5,-1.656 -0.266,-1.75 -0.187,-0.953 -0.188,-0.75 -0.578,-1.531 -0.5,-1.875 -0.219,-3.61 0.375,-3.359 2.375,-8.61 3.016,-7.343 0.734,-2.516 0.969,-2.719 0.797,-1.765 0.672,-2.328 1,-2.344 0.765,-2.125 0.75,-2.75 0.954,-2.61 1.89,-5.093 1.969,-4.938 0.547,-1.687 0.859,-1.672 0.703,-1.36 0.813,-0.546 0.531,-1.829 0.625,-0.703 0.844,-1.89 1.265,-2.516 1.469,-1.844 0.531,-1.062 1.032,-1.281 2.937,-4.36 3.485,-4.922 2.781,-3.703 3.047,-3.25 1.562,-1.781 2.891,-1.469 4.75,0.641 1.437,2.609 0.813,2.266 -0.25,8.578 -1.203,7.641 0.015,0.859 -0.172,1.828 -0.703,2.125 -0.531,1.813 -0.844,3.718 -1.218,3.672 -1.204,0.344 -1.265,0.359 0.797,2.938 -1.078,2.64 -4.266,5.657 -3.734,5.14 -4.844,6.641 -4.891,6.703 -2.859,3.281 -2.641,2.969 -0.969,4.656 -1.218,6.078 -0.453,2 -0.516,1.75 0.016,1.875 -1.579,1.922 1.391,0.672 0.078,0.75 -0.375,0.828 -0.781,0.344 1.391,-0.828 -0.86,-0.625 0.75,-0.672 1.453,-1.469 0.891,-0.468 0.859,-0.657 1.047,-0.093 -0.219,-0.297 3.688,-3.157 2.641,-2.328 2.89,-1.781 0.985,-0.922 2.171,-0.172 -0.562,-1.109 0.687,-0.891 3.5,-2.375 3.032,-1.25 0.547,-1.562 1.031,-0.75 0.594,-0.969 2.078,0.641 -0.828,-1.969 1.796,-2.234 v 0 l 5.329,2.39 m -10.672,-44.922 -0.422,1.532 -0.781,1.468 0.031,1.203 -7.735,14.516 -7.046,10.422 0.546,-4.891 4.594,-6.062 3.844,-7.875 3.062,-7.391 0.079,-3.328 3.312,-2.266 0.125,0.969 0.391,1.703 m 21.816,43.485 -1.953,1.89 -1.828,2.516 -1.953,2.094 -1.422,1.906 -1.328,1.156 -0.907,1.172 -0.906,1.109 -0.422,0.5 -1.203,-0.515 0.797,-1.438 1.891,-0.906 2.172,-1.141 1.546,-0.765 3.313,-3.297 1.281,-1.422 1,-1.344 0.891,-2.312 0.64,-1.531 -0.343,-0.766 1.515,-1.375 -0.375,2.297 -0.968,0.469 v 0 l -1.438,1.703 m -21.547,1.656 1.297,-2.563 2.219,-2.5 h 2.328 l -0.609,-1.906 1.015,-1.047 2.813,-3.172 3.625,-3.265 5.562,-2.953 7.297,-1.969 2.766,0.281 4.156,1.719 1.062,1.359 1.282,1.516 0.843,2.297 0.547,1.781 0.282,3.016 -0.032,2.14 -1.39,7.094 -0.578,1.797 -0.954,2.078 -1.328,1.953 -1.078,1.688 -3.219,3.062 -2.703,1.641 -2.859,1.172 -0.938,0.593 -1.468,0.579 -2.516,1.281 -2.875,1.14 -1.391,0.797 -2.156,1.157 -2.14,0.562 -1.579,-1.859 2.422,2.328 -0.328,1.39 2.078,0.25 3.157,-0.015 1.109,-0.406 1.891,-0.516 2.406,-0.547 2.078,-0.937 7.031,-3.344 5.828,-4.625 3.266,-2.672 2.703,-3.141 4.281,-4 4.297,-1.343 4.313,2.64 -0.813,6.156 -2.875,2.469 -3.39,2.406 -2.313,2.422 -2.937,3.141 -1.344,1.203 -1.297,1.313 -5.547,3.984 -0.328,-1.141 -0.609,1.625 -1.016,0.641 -0.625,0.375 -2.375,1.891 -2.797,1.718 -5.25,2.688 -5.312,2.969 -2.11,0.312 -0.984,0.141 -2.016,0.343 -2.375,-0.359 -4.625,-1.844 -3.703,-3.062 -1.609,-1.328 -1.844,-1.985 -1.156,-2.562 -1.032,-3.391 -0.703,-3.469 -0.281,-3.375 0.703,-1.968 0.594,-2.578 0.484,-2.579 0.172,-2.625 1.719,-0.937 0.312,-2.375 1.516,-1.641 -0.422,-2.25 v 0 l 2.375,-0.859"
       id="path11" />
  </g>
</svg>
