<?xml version="1.0" encoding="UTF-8" standalone="no"?>
<svg
   xmlns:dc="http://purl.org/dc/elements/1.1/"
   xmlns:cc="http://creativecommons.org/ns#"
   xmlns:rdf="http://www.w3.org/1999/02/22-rdf-syntax-ns#"
   xmlns:svg="http://www.w3.org/2000/svg"
   xmlns="http://www.w3.org/2000/svg"
   xmlns:sodipodi="http://sodipodi.sourceforge.net/DTD/sodipodi-0.dtd"
   xmlns:inkscape="http://www.inkscape.org/namespaces/inkscape"
   inkscape:version="1.0 (4035a4fb49, 2020-05-01)"
   sodipodi:docname="aball-plate.svg"
   id="svg6"
   version="1.1"
   viewBox="-23 -25 43 50"
   height="50mm"
   width="43mm">
  <metadata
     id="metadata12">
    <rdf:RDF>
      <cc:Work
         rdf:about="">
        <dc:format>image/svg+xml</dc:format>
        <dc:type
           rdf:resource="http://purl.org/dc/dcmitype/StillImage" />
      </cc:Work>
    </rdf:RDF>
  </metadata>
  <defs
     id="defs10" />
  <sodipodi:namedview
     inkscape:current-layer="svg6"
     inkscape:window-maximized="1"
     inkscape:window-y="-8"
     inkscape:window-x="1016"
     inkscape:cy="94.488189"
     inkscape:cx="81.259843"
     inkscape:zoom="4.5931667"
     showgrid="false"
     id="namedview8"
     inkscape:window-height="1017"
     inkscape:window-width="1920"
     inkscape:pageshadow="2"
     inkscape:pageopacity="0"
     guidetolerance="10"
     gridtolerance="10"
     objecttolerance="10"
     borderopacity="1"
     bordercolor="#666666"
     pagecolor="#ffffff" />
  <title
     id="title2">OpenSCAD Model</title>
  <path
     d="m -23,9.79796 0.3561,0.79704 0.3838,0.7842 0.4109,0.7703 0.4375,0.7555 0.4636,0.7397 0.4892,0.7231 0.5142,0.7056 0.5384,0.6872 0.5622,0.668 0.5851,0.6479 0.6073,0.6271 0.6289,0.6056 0.6497,0.5832 0.6696,0.5601 0.6888,0.5365 0.7071,0.512 0.7245,0.4871 0.7411,0.4615 0.7568,0.4353 0.7715,0.4086 0.7853,0.3814 0.7981,0.3538 0.81,0.3257 0.82087,0.2972 0.83076,0.2684 0.83962,0.2392 0.84746,0.2098 0.85426,0.18 0.86003,0.1501 0.86475,0.1199 0.86841,0.0897 0.87101,0.0594 0.87255,0.0288 0.873026,-0.0016 0.872444,-0.032 0.87078,-0.0626 0.86807,-0.0929 0.8643,-0.1231 0.85948,-0.1533 0.8536,-0.1831 0.84668,-0.2129 0.83873,-0.2423 0.82976,-0.2714 0.81978,-0.3002 0.8088,-0.3287 0.79683,-0.3567 0.7839,-0.3843 0.77,-0.4115 0.7551,-0.4381 0.7394,-0.4642 0.7228,-0.4897 0.7052,-0.5147 0.6868,-0.5389 0.6675,-0.5626 0.6475,-0.5856 0.6267,-0.6079 0.6051,-0.6293 0.5827,-0.6501 0.5597,-0.67 L 20,15 V 4.5 h -3.6064 l -0.2052,0.69011 -0.2343,0.6808 -0.2629,0.67028 -0.2911,0.65853 -0.3186,0.64563 -0.3458,0.63155 -0.3721,0.61635 -0.3979,0.60004 -0.423,0.58261 -0.4472,0.5643 -0.4708,0.5447 -0.4934,0.5244 -0.5151,0.503 -0.536,0.4807 -0.5559,0.4576 -0.57471,0.4337 -0.59258,0.4089 -0.60937,0.3835 -0.62506,0.3573 -0.63963,0.3305 -0.65305,0.3032 -0.6653,0.2752 -0.67636,0.2468 -0.68621,0.218 -0.69481,0.1887 -0.70219,0.1591 -0.70829,0.1292 -0.71313,0.0992 -0.71668,0.0688 -0.718961,0.0385 -0.719941,0.0079 -0.719633,-0.0225 -0.718035,-0.053 -0.71515,-0.0833 -0.71097,-0.1136 -0.70553,-0.1435 -0.69883,-0.1733 -0.69085,-0.2027 -0.68166,-0.2318 -0.67122,-0.2605 -0.6596,-0.2886 -0.64678,-0.3163 -0.63281,-0.3434 -0.61771,-0.3699 -0.60148,-0.3957 -0.58417,-0.4209 -0.5659,-0.4452 -0.5465,-0.4687 -0.5261,-0.4915 -0.5049,-0.5133 -0.4827,-0.5342 L -13.3121,10.573 -13.7478,9.99985 -14.1589,9.40876 -14.5446,8.8008 -14.9042,8.17705 -15.2371,7.53863 -15.5426,6.88669 -15.8203,6.2224 -16.0696,5.54695 -16.29,4.86154 -16.4813,4.16742 -16.643,3.46582 -16.7748,2.75801 -16.8765,2.04525 -16.948,1.32881 l -0.0411,-0.718809 -0.0105,-0.719907 0.0199,-0.719712 0.0503,-0.718222 0.0807,-0.71545 0.111,-0.71138 0.1409,-0.70605 0.1708,-0.69945 0.2002,-0.6916 0.2293,-0.68249 0.258,-0.67217 0.2862,-0.66065 0.314,-0.64793 0.3411,-0.63406 0.3676,-0.61905 0.3935,-0.60293 0.4187,-0.58575 0.4431,-0.5674 0.4668,-0.5482 0.4895,-0.528 0.5115,-0.5067 0.5325,-0.4846 0.5525,-0.4617 0.5715,-0.4378 0.58961,-0.4133 0.60655,-0.3879 0.62243,-0.3619 0.6372,-0.3352 0.65082,-0.3079 0.66327,-0.2801 0.67454,-0.2517 0.68459,-0.223 0.69342,-0.1938 0.70101,-0.1642 0.70733,-0.1344 0.71238,-0.1043 0.71617,-0.0741 0.718655,-0.0437 0.7198642,-0.0132 0.7197788,0.0172 0.718402,0.0478 0.71574,0.0781 0.71178,0.1083 0.70656,0.1384 0.70007,0.1682 0.69232,0.1977 0.68333,0.2268 0.67311,0.2555 0.66169,0.2838 0.64907,0.3116 0.6353,0.3388 0.62039,0.3654 0.60436,0.3913 0.58726,0.4165 0.5691,0.4411 0.5499,0.4647 0.5297,0.4877 0.5086,0.5096 0.4866,0.5307 0.4636,0.5508 0.44,0.5699 0.4153,0.5881 0.3902,0.60513 0.3641,0.62111 0.3375,0.63597 L 15.4919,-7 H 20 v -8 l -0.4965,-0.6402 -0.517,-0.6237 -0.537,-0.6066 -0.5563,-0.589 -0.5751,-0.5706 -0.5905,-0.5491 -4.2236,-3.0686 -0.0247,-0.0148 -0.7547,-0.4176 -0.7687,-0.3913 -0.7818,-0.3646 -0.79382,-0.3374 -0.80502,-0.3098 -0.81522,-0.2818 -0.82447,-0.2536 -0.83271,-0.225 -0.83999,-0.1961 -0.84624,-0.167 -0.85151,-0.1377 -0.85575,-0.1083 -0.85898,-0.0786 -0.861176,-0.049 -0.862356,-0.0193 -0.862506,0.0105 -0.861632,0.0403 -0.85973,0.0699 -0.85681,0.0996 -0.85285,0.1291 -0.84791,0.1584 -0.84193,0.1876 -0.83495,0.2165 -0.827,0.2451 -0.81804,0.2736 -0.80812,0.3016 -0.79723,0.3293 -0.78535,0.3567 -0.7727,0.3835 -0.7589,0.4099 -0.7444,0.4359 -0.7288,0.4613 -0.7125,0.4861 -0.6954,0.5105 -0.6772,0.5341 -0.6585,0.5572 -0.6389,0.5795 -0.6185,0.6013 -0.5973,0.6222 -0.5756,0.6425 -0.553,0.6619 -0.5299,0.6807 -0.5061,0.6985 -0.4817,0.7155 -0.4567,0.7318 -0.4312,0.747 -0.4051,0.7615 -0.3787,0.775 L -23,-9.79796 Z m 2.9125,-0.04796 0.0148,-0.18772 0.0439,-0.1831 0.0721,-0.17397 0.0984,-0.16055 0.1223,-0.14319 0.1432,-0.12229 0.1605,-0.09839 0.174,-0.07206 0.1831,-0.04396 0.1877,-0.01477 0.1877,0.01477 0.1831,0.04396 0.174,0.07206 0.1605,0.09839 0.1432,0.12229 0.1223,0.14319 0.0984,0.16055 0.0721,0.17397 0.0439,0.1831 0.0148,0.18772 -0.0148,0.18772 -0.0439,0.18308 -0.0721,0.174 -0.0984,0.1605 -0.1223,0.1432 -0.1432,0.1223 -0.1605,0.0984 -0.174,0.0721 -0.1831,0.0439 -0.1877,0.0148 -0.1877,-0.0148 -0.1831,-0.0439 -0.174,-0.0721 -0.1605,-0.0984 -0.1432,-0.1223 -0.1223,-0.1432 -0.0984,-0.1605 -0.0721,-0.174 -0.0439,-0.18308 z M -1.2,-21.5 l 0.01477,-0.1877 0.04396,-0.1831 0.07206,-0.174 0.098391,-0.1605 0.122291,-0.1432 0.143186,-0.1223 0.160554,-0.0984 0.173968,-0.0721 0.183099,-0.0439 L 0,-22.7 l 0.187721,0.0148 0.183099,0.0439 0.173968,0.0721 0.160554,0.0984 0.143186,0.1223 0.122291,0.1432 0.098391,0.1605 0.07206,0.174 0.04396,0.1831 L 1.2,-21.5 l -0.01477,0.1877 -0.04396,0.1831 -0.07206,0.174 -0.098391,0.1605 -0.122291,0.1432 -0.143186,0.1223 -0.160554,0.0984 -0.173968,0.0721 -0.183099,0.0439 L 0,-20.3 l -0.187721,-0.0148 -0.183099,-0.0439 -0.173968,-0.0721 -0.160554,-0.0984 -0.143186,-0.1223 -0.122291,-0.1432 -0.098391,-0.1605 -0.07206,-0.174 -0.04396,-0.1831 z m 16.8875,33.25 0.0148,-0.1877 0.0439,-0.1831 0.0721,-0.174 0.0984,-0.1605 0.1223,-0.1432 0.1432,-0.1223 0.1605,-0.0984 0.174,-0.0721 0.1831,-0.0439 0.1877,-0.0148 0.1877,0.0148 0.1831,0.0439 0.174,0.0721 0.1605,0.0984 0.1432,0.1223 0.1223,0.1432 0.0984,0.1605 0.0721,0.174 0.0439,0.1831 0.0148,0.1877 -0.0148,0.1877 -0.0439,0.1831 -0.0721,0.174 -0.0984,0.1605 -0.1223,0.1432 -0.1432,0.1223 -0.1605,0.0984 -0.174,0.0721 -0.1831,0.0439 -0.1877,0.0148 -0.1877,-0.0148 -0.1831,-0.0439 -0.174,-0.0721 -0.1605,-0.0984 -0.1432,-0.1223 -0.1223,-0.1432 -0.0984,-0.1605 -0.0721,-0.174 -0.0439,-0.1831 z"
     style="fill:none;stroke:#000000;stroke-opacity:1;stroke-width:0.1;stroke-miterlimit:4;stroke-dasharray:none"
     id="path4" />
</svg>
