<?xml version="1.0" encoding="UTF-8" standalone="no"?>
<svg
   xmlns:dc="http://purl.org/dc/elements/1.1/"
   xmlns:cc="http://creativecommons.org/ns#"
   xmlns:rdf="http://www.w3.org/1999/02/22-rdf-syntax-ns#"
   xmlns:svg="http://www.w3.org/2000/svg"
   xmlns="http://www.w3.org/2000/svg"
   xmlns:sodipodi="http://sodipodi.sourceforge.net/DTD/sodipodi-0.dtd"
   xmlns:inkscape="http://www.inkscape.org/namespaces/inkscape"
   inkscape:version="1.0 (4035a4fb49, 2020-05-01)"
   sodipodi:docname="top-form.svg"
   id="svg2574"
   viewBox="0 0 116930 82680"
   height="21.000720cm"
   width="29.700220cm"
   version="1.1">
  <metadata
     id="metadata2580">
    <rdf:RDF>
      <cc:Work
         rdf:about="">
        <dc:format>image/svg+xml</dc:format>
        <dc:type
           rdf:resource="http://purl.org/dc/dcmitype/StillImage" />
        <dc:title>SVG Picture created as noname-brd.svg date 2021/06/13 22:34:52 </dc:title>
      </cc:Work>
    </rdf:RDF>
  </metadata>
  <defs
     id="defs2578" />
  <sodipodi:namedview
     inkscape:document-rotation="0"
     pagecolor="#ffffff"
     bordercolor="#666666"
     borderopacity="1"
     objecttolerance="10"
     gridtolerance="10"
     guidetolerance="10"
     inkscape:pageopacity="0"
     inkscape:pageshadow="2"
     inkscape:window-width="1920"
     inkscape:window-height="1017"
     id="namedview2576"
     showgrid="false"
     inkscape:zoom="0.54678685"
     inkscape:cx="209.25645"
     inkscape:cy="36.184271"
     inkscape:window-x="1016"
     inkscape:window-y="-8"
     inkscape:window-maximized="1"
     inkscape:current-layer="g2562" />
  <title
     id="title2">SVG Picture created as noname-brd.svg date 2021/06/13 22:34:52 </title>
  <desc
     id="desc4">Picture generated by PCBNEW </desc>
  <g
     style="fill:#000000; fill-opacity:1;stroke:#000000; stroke-opacity:1; stroke-linecap:round; stroke-linejoin:round;"
     transform="translate(0 0) scale(1 1)"
     id="g6" />
  <g
     style="fill:#000000; fill-opacity:0.0;  stroke:#000000; stroke-width:-0.000393701; stroke-opacity:1;  stroke-linecap:round; stroke-linejoin:round;"
     id="g8" />
  <g
     style="fill:#000000; fill-opacity:0.0;  stroke:#000000; stroke-width:39.3701; stroke-opacity:1;  stroke-linecap:round; stroke-linejoin:round;"
     id="g10" />
  <g
     style="fill:#000000; fill-opacity:0.0;  stroke:#000000; stroke-width:39.3701; stroke-opacity:1;  stroke-linecap:round; stroke-linejoin:round;"
     id="g16" />
  <g
     style="fill:#000000; fill-opacity:0.0;  stroke:#000000; stroke-width:39.3701; stroke-opacity:1;  stroke-linecap:round; stroke-linejoin:round;"
     id="g22" />
  <g
     style="fill:#000000; fill-opacity:0.0;  stroke:#000000; stroke-width:39.3701; stroke-opacity:1;  stroke-linecap:round; stroke-linejoin:round;"
     id="g28" />
  <g
     style="fill:#000000; fill-opacity:0.0;  stroke:#000000; stroke-width:39.3701; stroke-opacity:1;  stroke-linecap:round; stroke-linejoin:round;"
     id="g34" />
  <g
     style="fill:#000000; fill-opacity:0.0;  stroke:#000000; stroke-width:39.3701; stroke-opacity:1;  stroke-linecap:round; stroke-linejoin:round;"
     id="g40" />
  <g
     style="fill:#000000; fill-opacity:0.0;  stroke:#000000; stroke-width:39.3701; stroke-opacity:1;  stroke-linecap:round; stroke-linejoin:round;"
     id="g46" />
  <g
     style="fill:#000000; fill-opacity:0.0;  stroke:#000000; stroke-width:39.3701; stroke-opacity:1;  stroke-linecap:round; stroke-linejoin:round;"
     id="g52" />
  <g
     style="fill:#000000; fill-opacity:0.0;  stroke:#000000; stroke-width:39.3701; stroke-opacity:1;  stroke-linecap:round; stroke-linejoin:round;"
     id="g58" />
  <g
     style="fill:#000000; fill-opacity:0.0;  stroke:#000000; stroke-width:39.3701; stroke-opacity:1;  stroke-linecap:round; stroke-linejoin:round;"
     id="g68" />
  <g
     style="fill:#000000; fill-opacity:0.0;  stroke:#000000; stroke-width:39.3701; stroke-opacity:1;  stroke-linecap:round; stroke-linejoin:round;"
     id="g76" />
  <g
     style="fill:#000000; fill-opacity:0.0;  stroke:#000000; stroke-width:39.3701; stroke-opacity:1;  stroke-linecap:round; stroke-linejoin:round;"
     id="g84" />
  <g
     style="fill:#000000; fill-opacity:0.0;  stroke:#000000; stroke-width:39.3701; stroke-opacity:1;  stroke-linecap:round; stroke-linejoin:round;"
     id="g94" />
  <g
     style="fill:#000000; fill-opacity:0.0;  stroke:#000000; stroke-width:39.3701; stroke-opacity:1;  stroke-linecap:round; stroke-linejoin:round;"
     id="g102" />
  <g
     style="fill:#000000; fill-opacity:0.0;  stroke:#000000; stroke-width:39.3701; stroke-opacity:1;  stroke-linecap:round; stroke-linejoin:round;"
     id="g110" />
  <g
     style="fill:#000000; fill-opacity:0.0;  stroke:#000000; stroke-width:39.3701; stroke-opacity:1;  stroke-linecap:round; stroke-linejoin:round;"
     id="g116" />
  <g
     style="fill:#000000; fill-opacity:0.0;  stroke:#000000; stroke-width:39.3701; stroke-opacity:1;  stroke-linecap:round; stroke-linejoin:round;"
     id="g122" />
  <g
     style="fill:#000000; fill-opacity:0.0;  stroke:#000000; stroke-width:39.3701; stroke-opacity:1;  stroke-linecap:round; stroke-linejoin:round;"
     id="g128" />
  <g
     style="fill:#000000; fill-opacity:0.0;  stroke:#000000; stroke-width:39.3701; stroke-opacity:1;  stroke-linecap:round; stroke-linejoin:round;"
     id="g134" />
  <g
     style="fill:#000000; fill-opacity:0.0;  stroke:#000000; stroke-width:39.3701; stroke-opacity:1;  stroke-linecap:round; stroke-linejoin:round;"
     id="g140" />
  <g
     style="fill:#000000; fill-opacity:0.0;  stroke:#000000; stroke-width:39.3701; stroke-opacity:1;  stroke-linecap:round; stroke-linejoin:round;"
     id="g150" />
  <g
     style="fill:#000000; fill-opacity:0.0;  stroke:#000000; stroke-width:39.3701; stroke-opacity:1;  stroke-linecap:round; stroke-linejoin:round;"
     id="g158" />
  <g
     style="fill:#000000; fill-opacity:0.0;  stroke:#000000; stroke-width:39.3701; stroke-opacity:1;  stroke-linecap:round; stroke-linejoin:round;"
     id="g166" />
  <g
     style="fill:#000000; fill-opacity:0.0;  stroke:#000000; stroke-width:39.3701; stroke-opacity:1;  stroke-linecap:round; stroke-linejoin:round;"
     id="g176" />
  <g
     style="fill:#000000; fill-opacity:0.0;  stroke:#000000; stroke-width:39.3701; stroke-opacity:1;  stroke-linecap:round; stroke-linejoin:round;"
     id="g184" />
  <g
     style="fill:#000000; fill-opacity:0.0;  stroke:#000000; stroke-width:39.3701; stroke-opacity:1;  stroke-linecap:round; stroke-linejoin:round;"
     id="g192" />
  <g
     style="fill:#000000; fill-opacity:0.0;  stroke:#000000; stroke-width:39.3701; stroke-opacity:1;  stroke-linecap:round; stroke-linejoin:round;"
     id="g198" />
  <g
     style="fill:#000000; fill-opacity:0.0;  stroke:#000000; stroke-width:39.3701; stroke-opacity:1;  stroke-linecap:round; stroke-linejoin:round;"
     id="g204" />
  <g
     style="fill:#000000; fill-opacity:0.0;  stroke:#000000; stroke-width:39.3701; stroke-opacity:1;  stroke-linecap:round; stroke-linejoin:round;"
     id="g210" />
  <g
     style="fill:#000000; fill-opacity:0.0;  stroke:#000000; stroke-width:39.3701; stroke-opacity:1;  stroke-linecap:round; stroke-linejoin:round;"
     id="g220" />
  <g
     style="fill:#000000; fill-opacity:0.0;  stroke:#000000; stroke-width:39.3701; stroke-opacity:1;  stroke-linecap:round; stroke-linejoin:round;"
     id="g228" />
  <g
     style="fill:#000000; fill-opacity:0.0;  stroke:#000000; stroke-width:39.3701; stroke-opacity:1;  stroke-linecap:round; stroke-linejoin:round;"
     id="g236" />
  <g
     style="fill:#000000; fill-opacity:0.0;  stroke:#000000; stroke-width:39.3701; stroke-opacity:1;  stroke-linecap:round; stroke-linejoin:round;"
     id="g244" />
  <g
     style="fill:#000000; fill-opacity:0.0;  stroke:#000000; stroke-width:39.3701; stroke-opacity:1;  stroke-linecap:round; stroke-linejoin:round;"
     id="g250" />
  <g
     style="fill:#000000; fill-opacity:0.0;  stroke:#000000; stroke-width:39.3701; stroke-opacity:1;  stroke-linecap:round; stroke-linejoin:round;"
     id="g256" />
  <g
     style="fill:#000000; fill-opacity:0.0;  stroke:#000000; stroke-width:39.3701; stroke-opacity:1;  stroke-linecap:round; stroke-linejoin:round;"
     id="g262" />
  <g
     style="fill:#000000; fill-opacity:0.0;  stroke:#000000; stroke-width:39.3701; stroke-opacity:1;  stroke-linecap:round; stroke-linejoin:round;"
     id="g272" />
  <g
     style="fill:#000000; fill-opacity:0.0;  stroke:#000000; stroke-width:39.3701; stroke-opacity:1;  stroke-linecap:round; stroke-linejoin:round;"
     id="g280" />
  <g
     style="fill:#000000; fill-opacity:0.0;  stroke:#000000; stroke-width:39.3701; stroke-opacity:1;  stroke-linecap:round; stroke-linejoin:round;"
     id="g288" />
  <g
     style="fill:#000000; fill-opacity:0.0;  stroke:#000000; stroke-width:39.3701; stroke-opacity:1;  stroke-linecap:round; stroke-linejoin:round;"
     id="g296" />
  <g
     style="fill:#000000; fill-opacity:0.0;  stroke:#000000; stroke-width:39.3701; stroke-opacity:1;  stroke-linecap:round; stroke-linejoin:round;"
     id="g318" />
  <g
     style="fill:#000000; fill-opacity:0.0;  stroke:#000000; stroke-width:39.3701; stroke-opacity:1;  stroke-linecap:round; stroke-linejoin:round;"
     id="g324" />
  <g
     style="fill:#000000; fill-opacity:0.0;  stroke:#000000; stroke-width:39.3701; stroke-opacity:1;  stroke-linecap:round; stroke-linejoin:round;"
     id="g406" />
  <g
     style="fill:#000000; fill-opacity:0.0;  stroke:#000000; stroke-width:39.3701; stroke-opacity:1;  stroke-linecap:round; stroke-linejoin:round;"
     id="g412" />
  <g
     style="fill:#000000; fill-opacity:0.0;  stroke:#000000; stroke-width:39.3701; stroke-opacity:1;  stroke-linecap:round; stroke-linejoin:round;"
     id="g430" />
  <g
     style="fill:#000000; fill-opacity:0.0;  stroke:#000000; stroke-width:39.3701; stroke-opacity:1;  stroke-linecap:round; stroke-linejoin:round;"
     id="g458" />
  <g
     style="fill:#000000; fill-opacity:0.0;  stroke:#000000; stroke-width:39.3701; stroke-opacity:1;  stroke-linecap:round; stroke-linejoin:round;"
     id="g484" />
  <g
     style="fill:#000000; fill-opacity:0.0;  stroke:#000000; stroke-width:39.3701; stroke-opacity:1;  stroke-linecap:round; stroke-linejoin:round;"
     id="g490" />
  <g
     style="fill:#000000; fill-opacity:0.0;  stroke:#000000; stroke-width:39.3701; stroke-opacity:1;  stroke-linecap:round; stroke-linejoin:round;"
     id="g516" />
  <g
     style="fill:#000000; fill-opacity:0.0;  stroke:#000000; stroke-width:39.3701; stroke-opacity:1;  stroke-linecap:round; stroke-linejoin:round;"
     id="g594" />
  <g
     style="fill:#000000; fill-opacity:0.0;  stroke:#000000; stroke-width:39.3701; stroke-opacity:1;  stroke-linecap:round; stroke-linejoin:round;"
     id="g600" />
  <g
     style="fill:#000000; fill-opacity:0.0;  stroke:#000000; stroke-width:39.3701; stroke-opacity:1;  stroke-linecap:round; stroke-linejoin:round;"
     id="g624" />
  <g
     style="fill:#000000; fill-opacity:0.0;  stroke:#000000; stroke-width:39.3701; stroke-opacity:1;  stroke-linecap:round; stroke-linejoin:round;"
     id="g630" />
  <g
     style="fill:#000000; fill-opacity:0.0;  stroke:#000000; stroke-width:59.0551; stroke-opacity:1;  stroke-linecap:round; stroke-linejoin:round;"
     id="g2562">
    <g
       id="g634" />
    <g
       id="g636" />
    <g
       style="fill:#840000; fill-opacity:0.0;  stroke:#840000; stroke-width:59.0551; stroke-opacity:1;  stroke-linecap:round; stroke-linejoin:round;"
       id="g638" />
    <g
       style="fill:#840000; fill-opacity:0.0;  stroke:#840000; stroke-width:78.7402; stroke-opacity:1;  stroke-linecap:round; stroke-linejoin:round;"
       id="g790" />
    <g
       style="fill:#840000; fill-opacity:1.0;  stroke:#840000; stroke-width:78.7402; stroke-opacity:1;  stroke-linecap:round; stroke-linejoin:round;"
       id="g796" />
    <g
       style="fill:#840000; fill-opacity:1.0;  stroke:#840000; stroke-width:78.7402; stroke-opacity:1;  stroke-linecap:round; stroke-linejoin:round;"
       id="g828" />
    <g
       style="fill:#840000; fill-opacity:0.0;  stroke:#840000; stroke-width:78.7402; stroke-opacity:1;  stroke-linecap:round; stroke-linejoin:round;"
       id="g990" />
    <g
       style="fill:#840000; fill-opacity:1.0;  stroke:#840000; stroke-width:78.7402; stroke-opacity:1;  stroke-linecap:round; stroke-linejoin:round;"
       id="g996" />
    <g
       style="fill:#840000; fill-opacity:0.0;  stroke:#840000; stroke-width:78.7402; stroke-opacity:1;  stroke-linecap:round; stroke-linejoin:round;"
       id="g1732" />
    <g
       style="fill:#840000; fill-opacity:1.0;  stroke:#840000; stroke-width:78.7402; stroke-opacity:1;  stroke-linecap:round; stroke-linejoin:round;"
       id="g1738" />
    <g
       style="fill:#840000; fill-opacity:1.0;  stroke:#840000; stroke-width:78.7402; stroke-opacity:1;  stroke-linecap:round; stroke-linejoin:round;"
       id="g1754" />
    <g
       style="fill:#840000; fill-opacity:1.0;  stroke:#840000; stroke-width:78.7402; stroke-opacity:1;  stroke-linecap:round; stroke-linejoin:round;"
       id="g1778" />
    <g
       style="fill:#840000; fill-opacity:0.0;  stroke:#840000; stroke-width:78.7402; stroke-opacity:1;  stroke-linecap:round; stroke-linejoin:round;"
       id="g1994" />
    <g
       style="fill:#840000; fill-opacity:1.0;  stroke:#840000; stroke-width:78.7402; stroke-opacity:1;  stroke-linecap:round; stroke-linejoin:round;"
       id="g2000" />
    <g
       style="fill:#840000; fill-opacity:1.0;  stroke:#840000; stroke-width:78.7402; stroke-opacity:1;  stroke-linecap:round; stroke-linejoin:round;"
       id="g2032" />
    <g
       style="fill:#840000; fill-opacity:0.0;  stroke:#840000; stroke-width:78.7402; stroke-opacity:1;  stroke-linecap:round; stroke-linejoin:round;"
       id="g2112" />
    <g
       style="fill:#840000; fill-opacity:1.0;  stroke:#840000; stroke-width:78.7402; stroke-opacity:1;  stroke-linecap:round; stroke-linejoin:round;"
       id="g2122" />
    <g
       style="fill:#840000; fill-opacity:0.0;  stroke:#840000; stroke-width:78.7402; stroke-opacity:1;  stroke-linecap:round; stroke-linejoin:round;"
       id="g2492" />
    <g
       style="fill:#840000; fill-opacity:1.0;  stroke:#840000; stroke-width:78.7402; stroke-opacity:1;  stroke-linecap:round; stroke-linejoin:round;"
       id="g2498" />
    <g
       style="fill:#840000; fill-opacity:0.0;  stroke:#840000; stroke-width:78.7402; stroke-opacity:1;  stroke-linecap:round; stroke-linejoin:round;"
       id="g2544" />
    <g
       style="fill:#840000; fill-opacity:1.0;  stroke:#840000; stroke-width:78.7402; stroke-opacity:1;  stroke-linecap:round; stroke-linejoin:round;"
       id="g2550" />
    <g
       style="fill:#840000; fill-opacity:0.0;  stroke:#840000; stroke-width:78.7402; stroke-opacity:1;  stroke-linecap:round; stroke-linejoin:round;"
       id="g2558" />
    <g
       id="g2560" />
    <path
       id="path3431-4-1-8-3-1-9-9-3-6-4-7-0"
       style="fill:#ff8080;fill-opacity:0;stroke:#000000;stroke-width:41.7516;stroke-linecap:round;stroke-linejoin:round;stroke-opacity:1"
       d="m 111436,43998 -208,-112.3 -226,-69.4 -237,-23.7 -238,23.7 -226,69.4 -208,112.3 -184,152.7 -152,186.2 -111,210.4 -68,228.2 -24,239.7 8,136.9 -592,195.9 -673,225 -707,238 -737,249 -763,259 -783,268 -803,274 -816,281 -827,286 -832,291 -834,293 -832,294 -826,295 -817,294 -803,292 -785,289 -764,285 -737,278 -708,273 -675,264 -636,255 -596,245 -780,330 -756,327 -731,324 -706,321 -682,315 -656,311 -631,306 -606,299 -582,294 -557,286 -532,279 -506,272 -483,263 -458,254 -432,244 -408,236 -383,224 -358,214 -333,202 -309,191 -284,178 -259,166 -234,151 -211,139 -185,123 -160,109 -136,94 -110,78 -86,60 -11665,9063 H 48455 l -11664,-9063 -86,-60 -111,-78 -135,-94 -161,-109 -185,-123 -210,-139 -234,-151 -259,-165 -284,-179 -309,-191 -333,-202 -358,-214 -384,-224 -407,-236 -432,-244 -458,-254 -483,-263 -507,-272 -531,-279 -557,-286 -582,-294 -606,-299 -631,-306 -656,-311 -682,-315 -706,-321 -732,-324 -756,-327 -780,-330 -595,-245 -637,-255 -674,-264 -708,-273 -737,-278 -764,-285 -785,-289 -803,-292 -817,-294 -826,-295 -832,-294 -834,-293 -832,-291 -827,-286 -816,-281 -803,-274 -784,-268 -762,-259 -737,-249 -707,-238 -673,-225 -585.54,-191.5 4.77,-108.5 -23.47,-239.6 -68.68,-228.2 -111.25,-210.5 -151.2,-186.2 -184.39,-152.6 -208.38,-112.4 -226.01,-69.3 -237.29,-23.7 -237.3,23.7 -226.01,69.3 -208.38,112.4 -184.39,152.6 -96.8,110.3 -82.32,120.3 -281.36,-98.1 -325,-107 -260,-85 -191,-62 -117,-38 -40,-13 7413,-22784 203,-530 239,-488 274,-449 308,-411 339,-374 368,-337 398,-303 424,-269 450,-236 472,-205 496,-174 515,-146 534,-118 552,-91 566,-65 581,-41 594,-16 33104,3 v 14087 l 10286,-2 V 16979 l 36224,3 877,49 567,65 551,91 535,118 515,146 495,174 473,205 450,236 423,269 398,303 369,337 339,374 308,411 274,449 239,488 203,530 7413,22784 -40,13 -117,38 -191,62 -261,85 -325,107 -266,92.2 -85,-135 -105,-122.5 v 0 z m -75490,-4317 -5242,-1703 1703,-5241 5242,1703 z m 37119,-1129 1703,5241 5241,-1703 -1703,-5241 z m -50817,-5272 -5241,-1703 1703,-5241 5241,1703 z m 23768,14086 4344,3393 -3394,4344 -4344,-3393 z m -28614,-23443 -1703,5242 -5241,-1703 1703,-5242 z m -9252,10675 1703,-5242 5241,1703 -1703,5242 z m 9468,12933 -5242,-1703 1703,-5241 5242,1703 z m 58234,5738 -4344,3393 3393,4344 4344,-3393 z m 19773,-18110 1703,5241 5242,-1703 -1703,-5241 z m -54346,-5455 5241,1703 -1703,5242 -5241,-1703 z m -13623,11237 -5242,-1703 1703,-5242 5242,1703 z m 10601,-8390 -5241,-1703 1703,-5241 5241,1703 z m -18926,-8126 1703,-5241 5241,1703 -1703,5241 z m 10641,9371 -5241,-1703 1702,-5241 5242,1703 z m 76231,9646 5241,-1703 -1703,-5242 -5241,1703 z m -73900,-16774 -5241,-1703 1703,-5241 5241,1703 z m 67332,20863 5241,-1703 -1703,-5241 -5241,1703 z m -8657,-26644 1703,5241 5241,-1703 -1703,-5241 z m -19949,38396 -3393,-4344 -4344,3394 3394,4344 z m 7967,-26732 5241,-1703 -1703,-5241 -5241,1703 z m 24865,3750 5242,-1703 -1703,-5242 -5242,1703 z m -8411,4819 -5241,1703 1703,5241 5241,-1703 z m -5259,-16155 -1703,-5241 -5242,1703 1703,5241 z m 9659,-1042 1703,5242 5242,-1703 -1703,-5242 z m -24482,21750 1703,5242 5241,-1703 -1703,-5242 z m -8475,5086 3393,4344 4344,-3393 -3393,-4344 z m 12711,-16319 1703,5241 5241,-1703 -1703,-5241 z m 15234,4798 -1703,-5242 -5241,1703 1703,5242 z m 5408,-7661 -1703,-5241 -5242,1703 1703,5241 z m -24272,-1873 -5241,1703 1703,5242 5241,-1703 z m 11173,10165 -5241,1703 1703,5242 5241,-1703 z m -1569,-11314 1703,5241 5241,-1703 -1703,-5241 z m -31617,29778 -3394,4344 -4344,-3394 3394,-4344 z m -12076,-12660 -1703,5242 -5242,-1703 1703,-5242 z m -21785,688 1703,-5241 5241,1703 -1703,5241 z m 8303,-1250 1703,-5242 5241,1703 -1703,5242 z m -12017,-11655 5241,1703 -1703,5241 -5241,-1703 z m 25015,19813 4344,3393 -3394,4344 -4344,-3393 z m -4157,-11179 1703,-5241 5241,1703 -1703,5241 z m -26194,1352 -5241,-1703 1703,-5242 5241,1703 z m 38330,3159 169,315 180,310 191,303 202,296 211,289 222,281 232,273 241,266 250,256 259,248 268,239 276,229 283,220 292,210 298,199 306,189 311,178 318,168 324,156 328,145 334,133 338,122 343,109 345,98 350,86 352,74 354,61 356,50 358,36 359,25 359,11 h 360 l 359,-13 359,-26 358,-38 356,-50 354,-63 351,-75 349,-87 346,-100 342,-111 337,-123 334,-134 328,-146 323,-158 317,-168 311,-179 305,-190 297,-201 291,-211 283,-220 275,-231 267,-239 258,-249 249,-258 240,-266 231,-274 221,-283 V 35801 l -205,-262 -213,-256 -221,-248 -229,-241 -237,-234 -244,-225 -1740,-1256 -10,-6 -311,-171 -316,-160 -322,-149 -327,-138 -332,-127 -336,-116 -340,-104 -343,-92 -346,-80 -348,-68 -351,-57 -353,-44 -354,-32 -354,-20 -356,-8 -355,4 -355,17 -354,28 -353,41 -351,53 -350,65 -347,77 -344,88 -340,101 -337,112 -333,123 -329,135 -323,146 -319,157 -312,168 -307,178 -300,189 -294,199 -286,209 -279,219 -271,228 -264,237 -254,246 -247,255 -237,263 -227,271 -63,78 -62,78 -60,79 -60,79 -59,81 -58,81 -57,81 -57,82 -56,82 -56,82 -38,55 -188,299 -178,306 -166,312 -156,317 -145,323 v 8023 l 146,326 z"
       sodipodi:nodetypes="ssscccccccccccccccccccccccccccccccccccccccccccccccccccccccccccccccccccccccccccccccccccccccccccccccccccccccccccssscccccccccccccccccccccccccccccccccccccccccccccccccccccscccccccccccccccccccccscccccccccccccccccccccccccccccccccccccccccccccccccccccccccccccccccccccccccccccccccccccccccccccccccccccccccccccccccccccccccccccccccccccccccccccccccccccccccccccccccccccccccccccccccccccccccccccccccccccccccccccccccccccccccccccccccccccccccccccccccccccccccccccccccccccccccccccccccccccccccccccccccccccccccccccccccccccccccccccccccccccccc" />
  </g>
  <g
     style="fill:#FFFFFF; fill-opacity:0.0;  stroke:#FFFFFF; stroke-width:78.7402; stroke-opacity:1;  stroke-linecap:round; stroke-linejoin:round;"
     id="g2564" />
  <g
     style="fill:#000000; fill-opacity:0.0;  stroke:#000000; stroke-width:78.7402; stroke-opacity:1;  stroke-linecap:round; stroke-linejoin:round;"
     id="g2568">
    <g
       id="g2566" />
  </g>
  <g
     style="fill:#000000; fill-opacity:0.0;  stroke:#000000; stroke-width:78.7402; stroke-opacity:1;  stroke-linecap:round; stroke-linejoin:round;"
     id="g2572">
    <g
       id="g2570" />
  </g>
</svg>
