<?xml version="1.0" encoding="UTF-8" standalone="no"?>
<svg
   xmlns:dc="http://purl.org/dc/elements/1.1/"
   xmlns:cc="http://creativecommons.org/ns#"
   xmlns:rdf="http://www.w3.org/1999/02/22-rdf-syntax-ns#"
   xmlns:svg="http://www.w3.org/2000/svg"
   xmlns="http://www.w3.org/2000/svg"
   xmlns:sodipodi="http://sodipodi.sourceforge.net/DTD/sodipodi-0.dtd"
   xmlns:inkscape="http://www.inkscape.org/namespaces/inkscape"
   width="210mm"
   height="297mm"
   viewBox="0 0 210 297"
   version="1.1"
   id="svg433"
   inkscape:version="1.0 (4035a4fb49, 2020-05-01)"
   sodipodi:docname="trackball-support-protection.svg">
  <defs
     id="defs427" />
  <sodipodi:namedview
     inkscape:window-maximized="1"
     inkscape:window-y="-8"
     inkscape:window-x="1016"
     inkscape:window-height="1017"
     inkscape:window-width="1920"
     showgrid="false"
     inkscape:document-rotation="0"
     inkscape:current-layer="layer1"
     inkscape:document-units="mm"
     inkscape:cy="935.72796"
     inkscape:cx="64.772766"
     inkscape:zoom="1.979899"
     inkscape:pageshadow="2"
     inkscape:pageopacity="0.0"
     borderopacity="1.0"
     bordercolor="#666666"
     pagecolor="#ffffff"
     id="base" />
  <metadata
     id="metadata430">
    <rdf:RDF>
      <cc:Work
         rdf:about="">
        <dc:format>image/svg+xml</dc:format>
        <dc:type
           rdf:resource="http://purl.org/dc/dcmitype/StillImage" />
        <dc:title></dc:title>
      </cc:Work>
    </rdf:RDF>
  </metadata>
  <g
     id="layer1"
     inkscape:groupmode="layer"
     inkscape:label="レイヤー 1">
    <g
       id="g1038-55-4-1"
       transform="matrix(0.00275679,0,0,0.00275679,25.151707,167.75912)"
       style="display:inline" />
    <g
       style="display:inline"
       transform="matrix(0.00275679,0,0,0.00275679,-0.77508876,123.72591)"
       id="g1038-55-4-1-6" />
    <g
       id="g1038-55-4-1-6-8"
       transform="matrix(0.00275679,0,0,0.00275679,50.5078,123.74287)"
       style="display:inline" />
    <path
       d="m 54.0695,266.62 -0.3799,2.489 -0.6176,2.402 -0.8429,2.303 -1.0556,2.191 -1.2556,2.067 -1.443,1.93 -1.6178,1.78 -1.7801,1.617 -1.9297,1.443 -2.0667,1.256 -2.1912,1.056 -2.303,0.843 -2.4022,0.617 -2.4889,0.38 -2.5629,0.129 -2.5629,-0.129 -2.4889,-0.38 -2.4022,-0.617 -2.303,-0.843 -2.1912,-1.056 -2.0668,-1.256 -1.9297,-1.443 -1.78,-1.617 -1.61788,-1.78 -1.44301,-1.93 -1.25557,-2.067 -1.05554,-2.191 -0.84291,-2.303 -0.61768,-2.402 -0.37985,-2.489 -0.12942,-2.563 0.12942,-2.563 0.37985,-2.489 0.61767,-2.402 0.84291,-2.303 1.05555,-2.191 1.25557,-2.067 1.44301,-1.93 1.61788,-1.78 1.78,-1.618 1.9297,-1.443 2.0668,-1.255 2.1911,-1.056 2.3031,-0.843 2.4022,-0.617 2.4889,-0.38 2.5629,-0.13 2.5629,0.13 2.4889,0.38 2.4022,0.617 2.303,0.843 2.1912,1.056 2.0667,1.255 1.9297,1.443 1.7801,1.618 1.6178,1.78 1.443,1.93 1.2556,2.067 1.0556,2.191 0.8429,2.303 0.6176,2.402 0.3799,2.489 0.1294,2.563 v 0 z m -22.2994,29.265 -1.063,0.717 -1.301,0.263 v 0 l -1.302,-0.263 -1.063,-0.717 -0.717,-1.063 -0.262,-1.301 v -3.548 l -2.217,-0.336 -2.499,-0.643 -2.3963,-0.877 -2.2798,-1.098 -2.1503,-1.306 -2.0077,-1.502 -1.8521,-1.683 -1.68324,-1.852 -1.5014,-2.008 -1.3063,-2.15 -1.0983,-2.28 -0.877,-2.396 -0.6426,-2.499 -0.3952,-2.59 -0.1347,-2.666 0.1347,-2.667 0.3952,-2.59 0.6426,-2.499 0.69773,-1.906 -3.19093,-2.174 -1.302801,-1.462 -0.2627,-1.301 0.2627,-1.302 0.716701,-1.063 1.0629,-0.717 1.3015,-0.262 1.3016,0.262 0.58242,0.393 2.74313,1.889 0.87075,-1.191 1.68324,-1.852 1.8521,-1.683 2.0077,-1.502 2.1503,-1.306 2.2798,-1.098 2.3963,-0.877 2.499,-0.643 2.59,-0.395 2.666,-0.135 2.667,0.135 2.589,0.395 2.5,0.643 2.396,0.877 2.28,1.098 2.15,1.306 2.008,1.502 1.852,1.683 1.683,1.852 0.8664,1.133 3.3676,-2.207 1.302,-0.262 1.301,0.262 1.063,0.717 0.717,1.063 0.263,1.302 -0.263,1.301 -0.717,1.063 -1.063,0.717 -2.8684,1.659 0.8144,2.086 0.643,2.499 0.395,2.59 0.134,2.667 v 0 l -0.134,2.666 -0.395,2.59 -0.643,2.499 -0.877,2.396 -1.098,2.28 -1.307,2.15 -1.501,2.008 -1.683,1.852 -1.852,1.683 -2.008,1.502 -2.15,1.306 -2.28,1.098 -2.396,0.877 -2.5,0.643 -1.5944,0.251 -0.0136,3.633 -0.262,1.301 z m 21.758,-45.859 -0.105,-0.521 0.105,-0.522 0.287,-0.425 0.426,-0.287 0.521,-0.105 0.521,0.105 0.425,0.287 0.287,0.425 0.105,0.522 -0.105,0.521 -0.287,0.425 -0.425,0.287 -0.521,0.105 v 0 l -0.521,-0.105 -0.426,-0.287 z m -51.28284,-0.017 -0.1052,-0.521 0.1052,-0.522 0.2869,-0.425 0.4255,-0.287 0.5211,-0.105 0.5212,0.105 0.4255,0.287 0.2869,0.425 0.1052,0.522 -0.1052,0.521 -0.2869,0.425 -0.4255,0.287 -0.5212,0.105 v 0 l -0.5211,-0.105 -0.4255,-0.287 z m 25.92684,44.033 -0.105,-0.521 0.105,-0.521 0.287,-0.426 0.425,-0.287 0.522,-0.105 0.521,0.105 0.425,0.287 0.287,0.426 0.105,0.521 -0.105,0.521 -0.287,0.425 -0.425,0.287 -0.521,0.106 v 0 l -0.522,-0.106 -0.425,-0.287 z"
       style="fill:none;stroke:#000000;stroke-width:0.0969376;stroke-linecap:round;stroke-linejoin:round"
       id="path834" />
  </g>
</svg>
