  0
SECTION
  2
HEADER
  9
$ACADVER
  1
AC1014
  9
$HANDSEED
  5
FFFF
  9
$MEASUREMENT
 70
     1
  0
ENDSEC
  0
SECTION
  2
TABLES
  0
TABLE
  2
VPORT
  5
8
330
0
100
AcDbSymbolTable
 70
     4
  0
VPORT
  5
2E
330
8
100
AcDbSymbolTableRecord
100
AcDbViewportTableRecord
  2
*ACTIVE
 70
     0
 10
0.0
 20
0.0
 11
1.0
 21
1.0
 12
210.0
 22
148.5
 13
0.0
 23
0.0
 14
10.0
 24
10.0
 15
10.0
 25
10.0
 16
0.0
 26
0.0
 36
1.0
 17
0.0
 27
0.0
 37
0.0
 40
341.0
 41
1.24
 42
50.0
 43
0.0
 44
0.0
 50
0.0
 51
0.0
 71
     0
 72
   100
 73
     1
 74
     3
 75
     0
 76
     0
 77
     0
 78
     0
  0
ENDTAB
  0
TABLE
  2
LTYPE
  5
5
330
0
100
AcDbSymbolTable
 70
     1
  0
LTYPE
  5
14
330
5
100
AcDbSymbolTableRecord
100
AcDbLinetypeTableRecord
  2
BYBLOCK
 70
     0
  3

 72
    65
 73
     0
 40
0.0
  0
LTYPE
  5
15
330
5
100
AcDbSymbolTableRecord
100
AcDbLinetypeTableRecord
  2
BYLAYER
 70
     0
  3

 72
    65
 73
     0
 40
0.0
  0
LTYPE
  5
16
330
5
100
AcDbSymbolTableRecord
100
AcDbLinetypeTableRecord
  2
CONTINUOUS
 70
     0
  3
Solid line
 72
    65
 73
     0
 40
0.0
  0
ENDTAB
  0
TABLE
  2
LAYER
  5
2
100
AcDbSymbolTable
 70
2
  0
LAYER
  5
50
100
AcDbSymbolTableRecord
100
AcDbLayerTableRecord
  2
0
 70
0
  6
CONTINUOUS
  0
LAYER
  5
51
100
AcDbSymbolTableRecord
100
AcDbLayerTableRecord
  2
top_plate
 70
0
  6
CONTINUOUS
  0
ENDTAB
  0
TABLE
  2
STYLE
  5
3
330
0
100
AcDbSymbolTable
 70
     1
  0
STYLE
  5
11
330
3
100
AcDbSymbolTableRecord
100
AcDbTextStyleTableRecord
  2
STANDARD
 70
     0
 40
0.0
 41
1.0
 50
0.0
 71
     0
 42
2.5
  3
txt
  4

  0
ENDTAB
  0
TABLE
  2
VIEW
  5
6
330
0
100
AcDbSymbolTable
 70
     0
  0
ENDTAB
  0
TABLE
  2
UCS
  5
7
330
0
100
AcDbSymbolTable
 70
     0
  0
ENDTAB
  0
TABLE
  2
APPID
  5
9
330
0
100
AcDbSymbolTable
 70
     2
  0
APPID
  5
12
330
9
100
AcDbSymbolTableRecord
100
AcDbRegAppTableRecord
  2
ACAD
 70
     0
  0
ENDTAB
  0
TABLE
  2
DIMSTYLE
  5
A
330
0
100
AcDbSymbolTable
 70
     1
  0
DIMSTYLE
105
27
330
A
100
AcDbSymbolTableRecord
100
AcDbDimStyleTableRecord
  2
ISO-25
 70
     0
  3

  4

  5

  6

  7

 40
1.0
 41
2.5
 42
0.625
 43
3.75
 44
1.25
 45
0.0
 46
0.0
 47
0.0
 48
0.0
140
2.5
141
2.5
142
0.0
143
0.03937007874016
144
1.0
145
0.0
146
1.0
147
0.625
 71
     0
 72
     0
 73
     0
 74
     0
 75
     0
 76
     0
 77
     1
 78
     8
170
     0
171
     3
172
     1
173
     0
174
     0
175
     0
176
     0
177
     0
178
     0
270
     2
271
     2
272
     2
273
     2
274
     3
340
11
275
     0
280
     0
281
     0
282
     0
283
     0
284
     8
285
     0
286
     0
287
     3
288
     0
  0
ENDTAB
  0
TABLE
  2
BLOCK_RECORD
  5
1
330
0
100
AcDbSymbolTable
 70
     1
  0
BLOCK_RECORD
  5
1F
330
1
100
AcDbSymbolTableRecord
100
AcDbBlockTableRecord
  2
*MODEL_SPACE
  0
BLOCK_RECORD
  5
1B
330
1
100
AcDbSymbolTableRecord
100
AcDbBlockTableRecord
  2
*PAPER_SPACE
  0
ENDTAB
  0
ENDSEC
  0
SECTION
  2
BLOCKS
  0
BLOCK
  5
20
330
1F
100
AcDbEntity
  8
0
100
AcDbBlockBegin
  2
*MODEL_SPACE
 70
     0
 10
0.0
 20
0.0
 30
0.0
  3
*MODEL_SPACE
  1

  0
ENDBLK
  5
21
330
1F
100
AcDbEntity
  8
0
100
AcDbBlockEnd
  0
BLOCK
  5
1C
330
1B
100
AcDbEntity
 67
     1
  8
0
100
AcDbBlockBegin
  2
*PAPER_SPACE
  1

  0
ENDBLK
  5
1D
330
1B
100
AcDbEntity
 67
     1
  8
0
100
AcDbBlockEnd
  0
ENDSEC
  0
SECTION
  2
ENTITIES
  0
LWPOLYLINE
  5
100
100
AcDbEntity
  8
top_plate
 62
7
100
AcDbPolyline
 90
16
 70
1
 10
289.376000
 20
234.991900
 30
0.0
 10
289.137000
 20
234.635000
 30
0.0
 10
288.780000
 20
234.396500
 30
0.0
 10
288.359000
 20
234.312800
 30
0.0
 10
287.938000
 20
234.396500
 30
0.0
 10
287.581000
 20
234.635000
 30
0.0
 10
287.343000
 20
234.991900
 30
0.0
 10
287.259000
 20
235.412800
 30
0.0
 10
287.343000
 20
235.833800
 30
0.0
 10
287.581000
 20
236.190600
 30
0.0
 10
287.938000
 20
236.429100
 30
0.0
 10
288.359000
 20
236.512800
 30
0.0
 10
288.780000
 20
236.429100
 30
0.0
 10
289.137000
 20
236.190600
 30
0.0
 10
289.376000
 20
235.833800
 30
0.0
 10
289.459000
 20
235.412800
 30
0.0
  0
LWPOLYLINE
  5
101
100
AcDbEntity
  8
top_plate
 62
7
100
AcDbPolyline
 90
16
 70
1
 10
210.797000
 20
252.895800
 30
0.0
 10
210.558000
 20
252.538900
 30
0.0
 10
210.201000
 20
252.300500
 30
0.0
 10
209.780000
 20
252.216700
 30
0.0
 10
209.359000
 20
252.300500
 30
0.0
 10
209.003000
 20
252.538900
 30
0.0
 10
208.764000
 20
252.895800
 30
0.0
 10
208.680000
 20
253.316700
 30
0.0
 10
208.764000
 20
253.737700
 30
0.0
 10
209.003000
 20
254.094600
 30
0.0
 10
209.359000
 20
254.333000
 30
0.0
 10
209.780000
 20
254.416700
 30
0.0
 10
210.201000
 20
254.333000
 30
0.0
 10
210.558000
 20
254.094600
 30
0.0
 10
210.797000
 20
253.737700
 30
0.0
 10
210.880000
 20
253.316700
 30
0.0
  0
LWPOLYLINE
  5
102
100
AcDbEntity
  8
top_plate
 62
7
100
AcDbPolyline
 90
16
 70
1
 10
134.612000
 20
235.004900
 30
0.0
 10
134.377000
 20
234.655200
 30
0.0
 10
134.027000
 20
234.419500
 30
0.0
 10
133.599000
 20
234.333000
 30
0.0
 10
133.178000
 20
234.416800
 30
0.0
 10
132.821000
 20
234.655200
 30
0.0
 10
132.583000
 20
235.012100
 30
0.0
 10
132.499000
 20
235.433000
 30
0.0
 10
132.583000
 20
235.854000
 30
0.0
 10
132.821000
 20
236.210900
 30
0.0
 10
133.178000
 20
236.449300
 30
0.0
 10
133.599000
 20
236.533000
 30
0.0
 10
134.027000
 20
236.446600
 30
0.0
 10
134.377000
 20
236.210900
 30
0.0
 10
134.612000
 20
235.861200
 30
0.0
 10
134.699000
 20
235.433000
 30
0.0
  0
LWPOLYLINE
  5
103
100
AcDbEntity
  8
top_plate
 62
7
100
AcDbPolyline
 90
16
 70
1
 10
53.642900
 20
254.095300
 30
0.0
 10
53.404500
 20
253.738400
 30
0.0
 10
53.047600
 20
253.500000
 30
0.0
 10
52.626700
 20
253.416200
 30
0.0
 10
52.205700
 20
253.500000
 30
0.0
 10
51.848800
 20
253.738400
 30
0.0
 10
51.610400
 20
254.095300
 30
0.0
 10
51.526700
 20
254.516200
 30
0.0
 10
51.610400
 20
254.937200
 30
0.0
 10
51.848800
 20
255.294000
 30
0.0
 10
52.205700
 20
255.532500
 30
0.0
 10
52.626700
 20
255.616200
 30
0.0
 10
53.047600
 20
255.532500
 30
0.0
 10
53.404500
 20
255.294000
 30
0.0
 10
53.642900
 20
254.937200
 30
0.0
 10
53.726700
 20
254.516200
 30
0.0
  0
SPLINE
  5
104
100
AcDbEntity
  8
top_plate
 62
7
100
AcDbSpline
 70
8
 71
3
 72
8
 73
4
 74
0
 40
0
 40
0
 40
0
 40
0
 40
1
 40
1
 40
1
 40
1
 10
88.902400
 20
297.457357
 30
0.0
 10
88.905741
 20
297.509074
 30
0.0
 10
88.887526
 20
297.559868
 30
0.0
 10
88.852082
 20
297.597677
 30
0.0
  0
SPLINE
  5
105
100
AcDbEntity
  8
top_plate
 62
7
100
AcDbSpline
 70
8
 71
3
 72
8
 73
4
 74
0
 40
0
 40
0
 40
0
 40
0
 40
1
 40
1
 40
1
 40
1
 10
88.852082
 20
297.597677
 30
0.0
 10
88.816638
 20
297.635486
 30
0.0
 10
88.767125
 20
297.656939
 30
0.0
 10
88.715300
 20
297.656941
 30
0.0
  0
LWPOLYLINE
  5
106
100
AcDbEntity
  8
top_plate
 62
7
100
AcDbPolyline
 90
10
 70
0
 10
92.398800
 20
297.401502
 30
0.0
 10
92.261300
 20
296.720323
 30
0.0
 10
91.886300
 20
296.164065
 30
0.0
 10
91.330000
 20
295.789020
 30
0.0
 10
90.648800
 20
295.651500
 30
0.0
 10
89.967700
 20
295.789020
 30
0.0
 10
89.411400
 20
296.164065
 30
0.0
 10
89.036400
 20
296.720323
 30
0.0
 10
88.898800
 20
297.401502
 30
0.0
 10
88.902400
 20
297.457357
 30
0.0
  0
SPLINE
  5
107
100
AcDbEntity
  8
top_plate
 62
7
100
AcDbSpline
 70
8
 71
3
 72
8
 73
4
 74
0
 40
0
 40
0
 40
0
 40
0
 40
1
 40
1
 40
1
 40
1
 10
-0.667639
 20
280.654300
 30
0.0
 10
-0.667639
 20
280.602457
 30
0.0
 10
-0.646192
 20
280.552923
 30
0.0
 10
-0.608386
 20
280.517449
 30
0.0
  0
SPLINE
  5
108
100
AcDbEntity
  8
top_plate
 62
7
100
AcDbSpline
 70
8
 71
3
 72
8
 73
4
 74
0
 40
0
 40
0
 40
0
 40
0
 40
1
 40
1
 40
1
 40
1
 10
-0.608386
 20
280.517449
 30
0.0
 10
-0.570579
 20
280.481975
 30
0.0
 10
-0.519782
 20
280.463721
 30
0.0
 10
-0.468044
 20
280.467018
 30
0.0
  0
LWPOLYLINE
  5
109
100
AcDbEntity
  8
top_plate
 62
7
100
AcDbPolyline
 90
24
 70
0
 10
88.715300
 20
297.656941
 30
0.0
 10
16.459000
 20
297.656941
 30
0.0
 10
16.273600
 20
297.457475
 30
0.0
 10
16.277700
 20
297.401502
 30
0.0
 10
16.140200
 20
296.720324
 30
0.0
 10
15.765200
 20
296.164066
 30
0.0
 10
15.208900
 20
295.789020
 30
0.0
 10
14.527700
 20
295.651500
 30
0.0
 10
13.846500
 20
295.789020
 30
0.0
 10
13.290300
 20
296.164065
 30
0.0
 10
12.915200
 20
296.720323
 30
0.0
 10
12.777700
 20
297.401502
 30
0.0
 10
12.781400
 20
297.457377
 30
0.0
 10
12.594600
 20
297.656941
 30
0.0
 10
4.332360
 20
297.656941
 30
0.0
 10
3.324690
 20
297.555359
 30
0.0
 10
2.386140
 20
297.264016
 30
0.0
 10
1.536810
 20
296.803019
 30
0.0
 10
0.796827
 20
296.192475
 30
0.0
 10
0.186282
 20
295.452490
 30
0.0
 10
-0.274714
 20
294.603170
 30
0.0
 10
-0.566057
 20
293.664620
 30
0.0
 10
-0.667639
 20
292.656940
 30
0.0
 10
-0.667639
 20
280.654300
 30
0.0
  0
SPLINE
  5
10a
100
AcDbEntity
  8
top_plate
 62
7
100
AcDbSpline
 70
8
 71
3
 72
8
 73
4
 74
0
 40
0
 40
0
 40
0
 40
0
 40
1
 40
1
 40
1
 40
1
 10
-0.468090
 20
276.974018
 30
0.0
 10
-0.519756
 20
276.977494
 30
0.0
 10
-0.570549
 20
276.959391
 30
0.0
 10
-0.608370
 20
276.924021
 30
0.0
  0
SPLINE
  5
10b
100
AcDbEntity
  8
top_plate
 62
7
100
AcDbSpline
 70
8
 71
3
 72
8
 73
4
 74
0
 40
0
 40
0
 40
0
 40
0
 40
1
 40
1
 40
1
 40
1
 10
-0.608370
 20
276.924021
 30
0.0
 10
-0.646190
 20
276.888651
 30
0.0
 10
-0.667651
 20
276.839182
 30
0.0
 10
-0.667639
 20
276.787400
 30
0.0
  0
LWPOLYLINE
  5
10c
100
AcDbEntity
  8
top_plate
 62
7
100
AcDbPolyline
 90
11
 70
0
 10
-0.468044
 20
280.467018
 30
0.0
 10
-0.414968
 20
280.470418
 30
0.0
 10
0.266211
 20
280.332918
 30
0.0
 10
0.822469
 20
279.957918
 30
0.0
 10
1.197510
 20
279.401618
 30
0.0
 10
1.335030
 20
278.720418
 30
0.0
 10
1.197510
 20
278.039318
 30
0.0
 10
0.822469
 20
277.483018
 30
0.0
 10
0.266211
 20
277.108018
 30
0.0
 10
-0.414968
 20
276.970418
 30
0.0
 10
-0.468090
 20
276.974018
 30
0.0
  0
SPLINE
  5
10d
100
AcDbEntity
  8
top_plate
 62
7
100
AcDbSpline
 70
8
 71
3
 72
8
 73
4
 74
0
 40
0
 40
0
 40
0
 40
0
 40
1
 40
1
 40
1
 40
1
 10
-0.667639
 20
211.957700
 30
0.0
 10
-0.667639
 20
211.905803
 30
0.0
 10
-0.646207
 20
211.856210
 30
0.0
 10
-0.608411
 20
211.820648
 30
0.0
  0
SPLINE
  5
10e
100
AcDbEntity
  8
top_plate
 62
7
100
AcDbSpline
 70
8
 71
3
 72
8
 73
4
 74
0
 40
0
 40
0
 40
0
 40
0
 40
1
 40
1
 40
1
 40
1
 10
-0.608411
 20
211.820648
 30
0.0
 10
-0.570615
 20
211.785085
 30
0.0
 10
-0.519810
 20
211.766710
 30
0.0
 10
-0.468009
 20
211.769867
 30
0.0
  0
LWPOLYLINE
  5
10f
100
AcDbEntity
  8
top_plate
 62
7
100
AcDbPolyline
 90
2
 70
0
 10
-0.667639
 20
276.787400
 30
0.0
 10
-0.667639
 20
211.957700
 30
0.0
  0
SPLINE
  5
110
100
AcDbEntity
  8
top_plate
 62
7
100
AcDbSpline
 70
8
 71
3
 72
8
 73
4
 74
0
 40
0
 40
0
 40
0
 40
0
 40
1
 40
1
 40
1
 40
1
 10
-0.468499
 20
208.278067
 30
0.0
 10
-0.519551
 20
208.282815
 30
0.0
 10
-0.570241
 20
208.265841
 30
0.0
 10
-0.608139
 20
208.231306
 30
0.0
  0
SPLINE
  5
111
100
AcDbEntity
  8
top_plate
 62
7
100
AcDbSpline
 70
8
 71
3
 72
8
 73
4
 74
0
 40
0
 40
0
 40
0
 40
0
 40
1
 40
1
 40
1
 40
1
 10
-0.608139
 20
208.231306
 30
0.0
 10
-0.646037
 20
208.196772
 30
0.0
 10
-0.667636
 20
208.147872
 30
0.0
 10
-0.667639
 20
208.096600
 30
0.0
  0
LWPOLYLINE
  5
112
100
AcDbEntity
  8
top_plate
 62
7
100
AcDbPolyline
 90
11
 70
0
 10
-0.468009
 20
211.769867
 30
0.0
 10
-0.414968
 20
211.773067
 30
0.0
 10
0.266211
 20
211.635567
 30
0.0
 10
0.822469
 20
211.260467
 30
0.0
 10
1.197510
 20
210.704267
 30
0.0
 10
1.335030
 20
210.023067
 30
0.0
 10
1.197510
 20
209.341867
 30
0.0
 10
0.822469
 20
208.785667
 30
0.0
 10
0.266211
 20
208.410567
 30
0.0
 10
-0.414968
 20
208.273067
 30
0.0
 10
-0.468499
 20
208.278067
 30
0.0
  0
SPLINE
  5
113
100
AcDbEntity
  8
top_plate
 62
7
100
AcDbSpline
 70
8
 71
3
 72
8
 73
4
 74
0
 40
0
 40
0
 40
0
 40
0
 40
1
 40
1
 40
1
 40
1
 10
12.598000
 20
191.098000
 30
0.0
 10
12.649466
 20
191.098000
 30
0.0
 10
12.698581
 20
191.119549
 30
0.0
 10
12.733431
 20
191.157419
 30
0.0
  0
SPLINE
  5
114
100
AcDbEntity
  8
top_plate
 62
7
100
AcDbSpline
 70
8
 71
3
 72
8
 73
4
 74
0
 40
0
 40
0
 40
0
 40
0
 40
1
 40
1
 40
1
 40
1
 10
12.733431
 20
191.157419
 30
0.0
 10
12.768282
 20
191.195289
 30
0.0
 10
12.785685
 20
191.246021
 30
0.0
 10
12.781418
 20
191.297310
 30
0.0
  0
LWPOLYLINE
  5
115
100
AcDbEntity
  8
top_plate
 62
7
100
AcDbPolyline
 90
11
 70
0
 10
-0.667639
 20
208.096600
 30
0.0
 10
-0.667639
 20
196.098000
 30
0.0
 10
-0.566057
 20
195.090000
 30
0.0
 10
-0.274714
 20
194.152000
 30
0.0
 10
0.186282
 20
193.302000
 30
0.0
 10
0.796827
 20
192.562000
 30
0.0
 10
1.536810
 20
191.952000
 30
0.0
 10
2.386140
 20
191.491000
 30
0.0
 10
3.324690
 20
191.200000
 30
0.0
 10
4.332360
 20
191.098000
 30
0.0
 10
12.598000
 20
191.098000
 30
0.0
  0
SPLINE
  5
116
100
AcDbEntity
  8
top_plate
 62
7
100
AcDbSpline
 70
8
 71
3
 72
8
 73
4
 74
0
 40
0
 40
0
 40
0
 40
0
 40
1
 40
1
 40
1
 40
1
 10
16.274318
 20
191.297410
 30
0.0
 10
16.270421
 20
191.245951
 30
0.0
 10
16.288148
 20
191.195196
 30
0.0
 10
16.323235
 20
191.157352
 30
0.0
  0
SPLINE
  5
117
100
AcDbEntity
  8
top_plate
 62
7
100
AcDbSpline
 70
8
 71
3
 72
8
 73
4
 74
0
 40
0
 40
0
 40
0
 40
0
 40
1
 40
1
 40
1
 40
1
 10
16.323235
 20
191.157352
 30
0.0
 10
16.358322
 20
191.119508
 30
0.0
 10
16.407593
 20
191.098000
 30
0.0
 10
16.459200
 20
191.098000
 30
0.0
  0
LWPOLYLINE
  5
118
100
AcDbEntity
  8
top_plate
 62
7
100
AcDbPolyline
 90
11
 70
0
 10
12.781418
 20
191.297310
 30
0.0
 10
12.777718
 20
191.342010
 30
0.0
 10
12.915318
 20
192.024010
 30
0.0
 10
13.290318
 20
192.580010
 30
0.0
 10
13.846618
 20
192.955010
 30
0.0
 10
14.527718
 20
193.092010
 30
0.0
 10
15.208918
 20
192.955010
 30
0.0
 10
15.765218
 20
192.580010
 30
0.0
 10
16.140218
 20
192.024010
 30
0.0
 10
16.277718
 20
191.342010
 30
0.0
 10
16.274318
 20
191.297410
 30
0.0
  0
SPLINE
  5
119
100
AcDbEntity
  8
top_plate
 62
7
100
AcDbSpline
 70
8
 71
3
 72
8
 73
4
 74
0
 40
0
 40
0
 40
0
 40
0
 40
1
 40
1
 40
1
 40
1
 10
88.713900
 20
191.098000
 30
0.0
 10
88.765786
 20
191.098000
 30
0.0
 10
88.815367
 20
191.119434
 30
0.0
 10
88.850913
 20
191.157232
 30
0.0
  0
SPLINE
  5
11a
100
AcDbEntity
  8
top_plate
 62
7
100
AcDbSpline
 70
8
 71
3
 72
8
 73
4
 74
0
 40
0
 40
0
 40
0
 40
0
 40
1
 40
1
 40
1
 40
1
 10
88.850913
 20
191.157232
 30
0.0
 10
88.886458
 20
191.195029
 30
0.0
 10
88.904811
 20
191.245832
 30
0.0
 10
88.901628
 20
191.297620
 30
0.0
  0
LWPOLYLINE
  5
11b
100
AcDbEntity
  8
top_plate
 62
7
100
AcDbPolyline
 90
2
 70
0
 10
16.459200
 20
191.098000
 30
0.0
 10
88.713900
 20
191.098000
 30
0.0
  0
SPLINE
  5
11c
100
AcDbEntity
  8
top_plate
 62
7
100
AcDbSpline
 70
8
 71
3
 72
8
 73
4
 74
0
 40
0
 40
0
 40
0
 40
0
 40
1
 40
1
 40
1
 40
1
 10
92.395628
 20
191.297520
 30
0.0
 10
92.391810
 20
191.246003
 30
0.0
 10
92.409614
 20
191.195222
 30
0.0
 10
92.444765
 20
191.157368
 30
0.0
  0
SPLINE
  5
11d
100
AcDbEntity
  8
top_plate
 62
7
100
AcDbSpline
 70
8
 71
3
 72
8
 73
4
 74
0
 40
0
 40
0
 40
0
 40
0
 40
1
 40
1
 40
1
 40
1
 10
92.444765
 20
191.157368
 30
0.0
 10
92.479917
 20
191.119513
 30
0.0
 10
92.529242
 20
191.098003
 30
0.0
 10
92.580900
 20
191.098000
 30
0.0
  0
LWPOLYLINE
  5
11e
100
AcDbEntity
  8
top_plate
 62
7
100
AcDbPolyline
 90
11
 70
0
 10
88.901628
 20
191.297620
 30
0.0
 10
88.898928
 20
191.342020
 30
0.0
 10
89.035928
 20
192.024020
 30
0.0
 10
89.409928
 20
192.584020
 30
0.0
 10
89.965228
 20
192.962020
 30
0.0
 10
90.645928
 20
193.100020
 30
0.0
 10
91.327528
 20
192.962020
 30
0.0
 10
91.884828
 20
192.584020
 30
0.0
 10
92.260928
 20
192.024020
 30
0.0
 10
92.398928
 20
191.342020
 30
0.0
 10
92.395628
 20
191.297520
 30
0.0
  0
SPLINE
  5
11f
100
AcDbEntity
  8
top_plate
 62
7
100
AcDbSpline
 70
8
 71
3
 72
8
 73
4
 74
0
 40
0
 40
0
 40
0
 40
0
 40
1
 40
1
 40
1
 40
1
 10
157.992000
 20
191.098000
 30
0.0
 10
158.043729
 20
191.098000
 30
0.0
 10
158.093136
 20
191.119479
 30
0.0
 10
158.128420
 20
191.157307
 30
0.0
  0
SPLINE
  5
120
100
AcDbEntity
  8
top_plate
 62
7
100
AcDbSpline
 70
8
 71
3
 72
8
 73
4
 74
0
 40
0
 40
0
 40
0
 40
0
 40
1
 40
1
 40
1
 40
1
 10
158.128420
 20
191.157307
 30
0.0
 10
158.163704
 20
191.195135
 30
0.0
 10
158.181696
 20
191.245916
 30
0.0
 10
158.178100
 20
191.297520
 30
0.0
  0
LWPOLYLINE
  5
121
100
AcDbEntity
  8
top_plate
 62
7
100
AcDbPolyline
 90
2
 70
0
 10
92.580900
 20
191.098000
 30
0.0
 10
157.992000
 20
191.098000
 30
0.0
  0
SPLINE
  5
122
100
AcDbEntity
  8
top_plate
 62
7
100
AcDbSpline
 70
8
 71
3
 72
8
 73
4
 74
0
 40
0
 40
0
 40
0
 40
0
 40
1
 40
1
 40
1
 40
1
 10
161.672100
 20
191.297620
 30
0.0
 10
161.668915
 20
191.245802
 30
0.0
 10
161.687291
 20
191.194972
 30
0.0
 10
161.722874
 20
191.157169
 30
0.0
  0
SPLINE
  5
123
100
AcDbEntity
  8
top_plate
 62
7
100
AcDbSpline
 70
8
 71
3
 72
8
 73
4
 74
0
 40
0
 40
0
 40
0
 40
0
 40
1
 40
1
 40
1
 40
1
 10
161.722874
 20
191.157169
 30
0.0
 10
161.758458
 20
191.119366
 30
0.0
 10
161.808084
 20
191.097953
 30
0.0
 10
161.860000
 20
191.098000
 30
0.0
  0
LWPOLYLINE
  5
124
100
AcDbEntity
  8
top_plate
 62
7
100
AcDbPolyline
 90
11
 70
0
 10
158.178100
 20
191.297520
 30
0.0
 10
158.175100
 20
191.342020
 30
0.0
 10
158.313100
 20
192.023020
 30
0.0
 10
158.688100
 20
192.579020
 30
0.0
 10
159.244100
 20
192.954020
 30
0.0
 10
159.925100
 20
193.092020
 30
0.0
 10
160.606100
 20
192.954020
 30
0.0
 10
161.163100
 20
192.579020
 30
0.0
 10
161.538100
 20
192.023020
 30
0.0
 10
161.675100
 20
191.342020
 30
0.0
 10
161.672100
 20
191.297620
 30
0.0
  0
SPLINE
  5
125
100
AcDbEntity
  8
top_plate
 62
7
100
AcDbSpline
 70
8
 71
3
 72
8
 73
4
 74
0
 40
0
 40
0
 40
0
 40
0
 40
1
 40
1
 40
1
 40
1
 10
241.183000
 20
191.098000
 30
0.0
 10
241.234409
 20
191.098000
 30
0.0
 10
241.283462
 20
191.119563
 30
0.0
 10
241.318221
 20
191.157441
 30
0.0
  0
SPLINE
  5
126
100
AcDbEntity
  8
top_plate
 62
7
100
AcDbSpline
 70
8
 71
3
 72
8
 73
4
 74
0
 40
0
 40
0
 40
0
 40
0
 40
1
 40
1
 40
1
 40
1
 10
241.318221
 20
191.157441
 30
0.0
 10
241.352979
 20
191.195319
 30
0.0
 10
241.370257
 20
191.246040
 30
0.0
 10
241.365850
 20
191.297260
 30
0.0
  0
LWPOLYLINE
  5
127
100
AcDbEntity
  8
top_plate
 62
7
100
AcDbPolyline
 90
2
 70
0
 10
161.860000
 20
191.098000
 30
0.0
 10
241.183000
 20
191.098000
 30
0.0
  0
SPLINE
  5
128
100
AcDbEntity
  8
top_plate
 62
7
100
AcDbSpline
 70
8
 71
3
 72
8
 73
4
 74
0
 40
0
 40
0
 40
0
 40
0
 40
1
 40
1
 40
1
 40
1
 10
244.859850
 20
191.297760
 30
0.0
 10
244.857498
 20
191.245613
 30
0.0
 10
244.876571
 20
191.194772
 30
0.0
 10
244.912641
 20
191.157039
 30
0.0
  0
SPLINE
  5
129
100
AcDbEntity
  8
top_plate
 62
7
100
AcDbSpline
 70
8
 71
3
 72
8
 73
4
 74
0
 40
0
 40
0
 40
0
 40
0
 40
1
 40
1
 40
1
 40
1
 10
244.912641
 20
191.157039
 30
0.0
 10
244.948710
 20
191.119305
 30
0.0
 10
244.998640
 20
191.097961
 30
0.0
 10
245.050840
 20
191.097960
 30
0.0
  0
LWPOLYLINE
  5
12a
100
AcDbEntity
  8
top_plate
 62
7
100
AcDbPolyline
 90
11
 70
0
 10
241.365850
 20
191.297260
 30
0.0
 10
241.361850
 20
191.341960
 30
0.0
 10
241.498850
 20
192.022960
 30
0.0
 10
241.873850
 20
192.578960
 30
0.0
 10
242.429850
 20
192.953960
 30
0.0
 10
243.111850
 20
193.091960
 30
0.0
 10
243.792850
 20
192.953960
 30
0.0
 10
244.348850
 20
192.578960
 30
0.0
 10
244.723850
 20
192.022960
 30
0.0
 10
244.861850
 20
191.341960
 30
0.0
 10
244.859850
 20
191.297760
 30
0.0
  0
SPLINE
  5
12b
100
AcDbEntity
  8
top_plate
 62
7
100
AcDbSpline
 70
8
 71
3
 72
8
 73
4
 74
0
 40
0
 40
0
 40
0
 40
0
 40
1
 40
1
 40
1
 40
1
 10
322.144840
 20
191.097960
 30
0.0
 10
322.196329
 20
191.097960
 30
0.0
 10
322.245471
 20
191.119503
 30
0.0
 10
322.280360
 20
191.157369
 30
0.0
  0
SPLINE
  5
12c
100
AcDbEntity
  8
top_plate
 62
7
100
AcDbSpline
 70
8
 71
3
 72
8
 73
4
 74
0
 40
0
 40
0
 40
0
 40
0
 40
1
 40
1
 40
1
 40
1
 10
322.280360
 20
191.157369
 30
0.0
 10
322.315250
 20
191.195236
 30
0.0
 10
322.332706
 20
191.245973
 30
0.0
 10
322.328500
 20
191.297290
 30
0.0
  0
LWPOLYLINE
  5
12d
100
AcDbEntity
  8
top_plate
 62
7
100
AcDbPolyline
 90
2
 70
0
 10
245.050840
 20
191.097960
 30
0.0
 10
322.144840
 20
191.097960
 30
0.0
  0
SPLINE
  5
12e
100
AcDbEntity
  8
top_plate
 62
7
100
AcDbSpline
 70
8
 71
3
 72
8
 73
4
 74
0
 40
0
 40
0
 40
0
 40
0
 40
1
 40
1
 40
1
 40
1
 10
325.821500
 20
191.297590
 30
0.0
 10
325.818317
 20
191.245673
 30
0.0
 10
325.836777
 20
191.194755
 30
0.0
 10
325.872491
 20
191.156940
 30
0.0
  0
SPLINE
  5
12f
100
AcDbEntity
  8
top_plate
 62
7
100
AcDbSpline
 70
8
 71
3
 72
8
 73
4
 74
0
 40
0
 40
0
 40
0
 40
0
 40
1
 40
1
 40
1
 40
1
 10
325.872491
 20
191.156940
 30
0.0
 10
325.908205
 20
191.119124
 30
0.0
 10
325.957986
 20
191.097787
 30
0.0
 10
326.010000
 20
191.098000
 30
0.0
  0
LWPOLYLINE
  5
130
100
AcDbEntity
  8
top_plate
 62
7
100
AcDbPolyline
 90
11
 70
0
 10
322.328500
 20
191.297290
 30
0.0
 10
322.324500
 20
191.341990
 30
0.0
 10
322.461500
 20
192.022990
 30
0.0
 10
322.836500
 20
192.578990
 30
0.0
 10
323.393500
 20
192.953990
 30
0.0
 10
324.074500
 20
193.091990
 30
0.0
 10
324.755500
 20
192.953990
 30
0.0
 10
325.311500
 20
192.578990
 30
0.0
 10
325.686500
 20
192.022990
 30
0.0
 10
325.824500
 20
191.341990
 30
0.0
 10
325.821500
 20
191.297590
 30
0.0
  0
SPLINE
  5
131
100
AcDbEntity
  8
top_plate
 62
7
100
AcDbSpline
 70
8
 71
3
 72
8
 73
4
 74
0
 40
0
 40
0
 40
0
 40
0
 40
1
 40
1
 40
1
 40
1
 10
339.273000
 20
208.092200
 30
0.0
 10
339.273000
 20
208.143892
 30
0.0
 10
339.251511
 20
208.193258
 30
0.0
 10
339.213678
 20
208.228482
 30
0.0
  0
SPLINE
  5
132
100
AcDbEntity
  8
top_plate
 62
7
100
AcDbSpline
 70
8
 71
3
 72
8
 73
4
 74
0
 40
0
 40
0
 40
0
 40
0
 40
1
 40
1
 40
1
 40
1
 10
339.213678
 20
208.228482
 30
0.0
 10
339.175844
 20
208.263706
 30
0.0
 10
339.125071
 20
208.281617
 30
0.0
 10
339.073510
 20
208.277929
 30
0.0
  0
LWPOLYLINE
  5
133
100
AcDbEntity
  8
top_plate
 62
7
100
AcDbPolyline
 90
11
 70
0
 10
326.010000
 20
191.098000
 30
0.0
 10
334.273000
 20
191.098000
 30
0.0
 10
335.280000
 20
191.200000
 30
0.0
 10
336.219000
 20
191.491000
 30
0.0
 10
337.068000
 20
191.952000
 30
0.0
 10
337.808000
 20
192.562000
 30
0.0
 10
338.419000
 20
193.302000
 30
0.0
 10
338.880000
 20
194.152000
 30
0.0
 10
339.171000
 20
195.090000
 30
0.0
 10
339.273000
 20
196.098000
 30
0.0
 10
339.273000
 20
208.092200
 30
0.0
  0
SPLINE
  5
134
100
AcDbEntity
  8
top_plate
 62
7
100
AcDbSpline
 70
8
 71
3
 72
8
 73
4
 74
0
 40
0
 40
0
 40
0
 40
0
 40
1
 40
1
 40
1
 40
1
 10
339.073410
 20
211.768929
 30
0.0
 10
339.125188
 20
211.765737
 30
0.0
 10
339.175984
 20
211.784080
 30
0.0
 10
339.213777
 20
211.819616
 30
0.0
  0
SPLINE
  5
135
100
AcDbEntity
  8
top_plate
 62
7
100
AcDbSpline
 70
8
 71
3
 72
8
 73
4
 74
0
 40
0
 40
0
 40
0
 40
0
 40
1
 40
1
 40
1
 40
1
 10
339.213777
 20
211.819616
 30
0.0
 10
339.251570
 20
211.855152
 30
0.0
 10
339.273001
 20
211.904724
 30
0.0
 10
339.273000
 20
211.956600
 30
0.0
  0
LWPOLYLINE
  5
136
100
AcDbEntity
  8
top_plate
 62
7
100
AcDbPolyline
 90
11
 70
0
 10
339.073510
 20
208.277929
 30
0.0
 10
339.006010
 20
208.273129
 30
0.0
 10
338.325010
 20
208.410629
 30
0.0
 10
337.769010
 20
208.785729
 30
0.0
 10
337.394010
 20
209.341929
 30
0.0
 10
337.256010
 20
210.023129
 30
0.0
 10
337.394010
 20
210.704329
 30
0.0
 10
337.769010
 20
211.260529
 30
0.0
 10
338.325010
 20
211.635629
 30
0.0
 10
339.006010
 20
211.773129
 30
0.0
 10
339.073410
 20
211.768929
 30
0.0
  0
SPLINE
  5
137
100
AcDbEntity
  8
top_plate
 62
7
100
AcDbSpline
 70
8
 71
3
 72
8
 73
4
 74
0
 40
0
 40
0
 40
0
 40
0
 40
1
 40
1
 40
1
 40
1
 10
339.273000
 20
276.789900
 30
0.0
 10
339.273000
 20
276.841564
 30
0.0
 10
339.251503
 20
276.890898
 30
0.0
 10
339.213664
 20
276.926074
 30
0.0
  0
SPLINE
  5
138
100
AcDbEntity
  8
top_plate
 62
7
100
AcDbSpline
 70
8
 71
3
 72
8
 73
4
 74
0
 40
0
 40
0
 40
0
 40
0
 40
1
 40
1
 40
1
 40
1
 10
339.213664
 20
276.926074
 30
0.0
 10
339.175826
 20
276.961250
 30
0.0
 10
339.125056
 20
276.979096
 30
0.0
 10
339.073530
 20
276.975332
 30
0.0
  0
LWPOLYLINE
  5
139
100
AcDbEntity
  8
top_plate
 62
7
100
AcDbPolyline
 90
2
 70
0
 10
339.273000
 20
211.956600
 30
0.0
 10
339.273000
 20
276.789900
 30
0.0
  0
SPLINE
  5
13a
100
AcDbEntity
  8
top_plate
 62
7
100
AcDbSpline
 70
8
 71
3
 72
8
 73
4
 74
0
 40
0
 40
0
 40
0
 40
0
 40
1
 40
1
 40
1
 40
1
 10
339.073330
 20
280.466632
 30
0.0
 10
339.125219
 20
280.463700
 30
0.0
 10
339.176026
 20
280.482265
 30
0.0
 10
339.213802
 20
280.517959
 30
0.0
  0
SPLINE
  5
13b
100
AcDbEntity
  8
top_plate
 62
7
100
AcDbSpline
 70
8
 71
3
 72
8
 73
4
 74
0
 40
0
 40
0
 40
0
 40
0
 40
1
 40
1
 40
1
 40
1
 10
339.213802
 20
280.517959
 30
0.0
 10
339.251578
 20
280.553654
 30
0.0
 10
339.272989
 20
280.603328
 30
0.0
 10
339.273000
 20
280.655300
 30
0.0
  0
LWPOLYLINE
  5
13c
100
AcDbEntity
  8
top_plate
 62
7
100
AcDbPolyline
 90
11
 70
0
 10
339.073530
 20
276.975332
 30
0.0
 10
339.006030
 20
276.970432
 30
0.0
 10
338.325030
 20
277.108032
 30
0.0
 10
337.769030
 20
277.483032
 30
0.0
 10
337.394030
 20
278.039332
 30
0.0
 10
337.256030
 20
278.720432
 30
0.0
 10
337.394030
 20
279.401632
 30
0.0
 10
337.769030
 20
279.957932
 30
0.0
 10
338.325030
 20
280.332932
 30
0.0
 10
339.006030
 20
280.470432
 30
0.0
 10
339.073330
 20
280.466632
 30
0.0
  0
SPLINE
  5
13d
100
AcDbEntity
  8
top_plate
 62
7
100
AcDbSpline
 70
8
 71
3
 72
8
 73
4
 74
0
 40
0
 40
0
 40
0
 40
0
 40
1
 40
1
 40
1
 40
1
 10
326.007000
 20
297.656941
 30
0.0
 10
325.955287
 20
297.656941
 30
0.0
 10
325.905898
 20
297.635458
 30
0.0
 10
325.870641
 20
297.597628
 30
0.0
  0
SPLINE
  5
13e
100
AcDbEntity
  8
top_plate
 62
7
100
AcDbSpline
 70
8
 71
3
 72
8
 73
4
 74
0
 40
0
 40
0
 40
0
 40
0
 40
1
 40
1
 40
1
 40
1
 10
325.870641
 20
297.597628
 30
0.0
 10
325.835383
 20
297.559797
 30
0.0
 10
325.817425
 20
297.509021
 30
0.0
 10
325.821060
 20
297.457436
 30
0.0
  0
LWPOLYLINE
  5
13f
100
AcDbEntity
  8
top_plate
 62
7
100
AcDbPolyline
 90
11
 70
0
 10
339.273000
 20
280.655300
 30
0.0
 10
339.273000
 20
292.656940
 30
0.0
 10
339.171000
 20
293.664620
 30
0.0
 10
338.880000
 20
294.603170
 30
0.0
 10
338.419000
 20
295.452490
 30
0.0
 10
337.808000
 20
296.192475
 30
0.0
 10
337.068000
 20
296.803019
 30
0.0
 10
336.219000
 20
297.264016
 30
0.0
 10
335.280000
 20
297.555359
 30
0.0
 10
334.273000
 20
297.656941
 30
0.0
 10
326.007000
 20
297.656941
 30
0.0
  0
SPLINE
  5
140
100
AcDbEntity
  8
top_plate
 62
7
100
AcDbSpline
 70
8
 71
3
 72
8
 73
4
 74
0
 40
0
 40
0
 40
0
 40
0
 40
1
 40
1
 40
1
 40
1
 10
322.330060
 20
297.457533
 30
0.0
 10
322.334286
 20
297.508923
 30
0.0
 10
322.316782
 20
297.559732
 30
0.0
 10
322.281801
 20
297.597615
 30
0.0
  0
SPLINE
  5
141
100
AcDbEntity
  8
top_plate
 62
7
100
AcDbSpline
 70
8
 71
3
 72
8
 73
4
 74
0
 40
0
 40
0
 40
0
 40
0
 40
1
 40
1
 40
1
 40
1
 10
322.281801
 20
297.597615
 30
0.0
 10
322.246820
 20
297.635498
 30
0.0
 10
322.197563
 20
297.656987
 30
0.0
 10
322.146000
 20
297.656860
 30
0.0
  0
LWPOLYLINE
  5
142
100
AcDbEntity
  8
top_plate
 62
7
100
AcDbPolyline
 90
11
 70
0
 10
325.821060
 20
297.457436
 30
0.0
 10
325.825060
 20
297.401502
 30
0.0
 10
325.687060
 20
296.720323
 30
0.0
 10
325.312060
 20
296.164065
 30
0.0
 10
324.756060
 20
295.789020
 30
0.0
 10
324.075060
 20
295.651500
 30
0.0
 10
323.394060
 20
295.789020
 30
0.0
 10
322.837060
 20
296.164065
 30
0.0
 10
322.462060
 20
296.720323
 30
0.0
 10
322.325060
 20
297.401502
 30
0.0
 10
322.330060
 20
297.457533
 30
0.0
  0
SPLINE
  5
143
100
AcDbEntity
  8
top_plate
 62
7
100
AcDbSpline
 70
8
 71
3
 72
8
 73
4
 74
0
 40
0
 40
0
 40
0
 40
0
 40
1
 40
1
 40
1
 40
1
 10
245.047000
 20
297.656941
 30
0.0
 10
244.994986
 20
297.656939
 30
0.0
 10
244.945264
 20
297.635541
 30
0.0
 10
244.909506
 20
297.597768
 30
0.0
  0
SPLINE
  5
144
100
AcDbEntity
  8
top_plate
 62
7
100
AcDbSpline
 70
8
 71
3
 72
8
 73
4
 74
0
 40
0
 40
0
 40
0
 40
0
 40
1
 40
1
 40
1
 40
1
 10
244.909506
 20
297.597768
 30
0.0
 10
244.873748
 20
297.559996
 30
0.0
 10
244.855104
 20
297.509176
 30
0.0
 10
244.857950
 20
297.457241
 30
0.0
  0
LWPOLYLINE
  5
145
100
AcDbEntity
  8
top_plate
 62
7
100
AcDbPolyline
 90
2
 70
0
 10
322.146000
 20
297.656860
 30
0.0
 10
245.047000
 20
297.656941
 30
0.0
  0
SPLINE
  5
146
100
AcDbEntity
  8
top_plate
 62
7
100
AcDbSpline
 70
8
 71
3
 72
8
 73
4
 74
0
 40
0
 40
0
 40
0
 40
0
 40
1
 40
1
 40
1
 40
1
 10
241.365950
 20
297.457551
 30
0.0
 10
241.369969
 20
297.508879
 30
0.0
 10
241.352411
 20
297.559560
 30
0.0
 10
241.317500
 20
297.597401
 30
0.0
  0
SPLINE
  5
147
100
AcDbEntity
  8
top_plate
 62
7
100
AcDbSpline
 70
8
 71
3
 72
8
 73
4
 74
0
 40
0
 40
0
 40
0
 40
0
 40
1
 40
1
 40
1
 40
1
 10
241.317500
 20
297.597401
 30
0.0
 10
241.282589
 20
297.635242
 30
0.0
 10
241.233485
 20
297.656819
 30
0.0
 10
241.182000
 20
297.656941
 30
0.0
  0
LWPOLYLINE
  5
148
100
AcDbEntity
  8
top_plate
 62
7
100
AcDbPolyline
 90
11
 70
0
 10
244.857950
 20
297.457241
 30
0.0
 10
244.860950
 20
297.401502
 30
0.0
 10
244.723950
 20
296.720323
 30
0.0
 10
244.348950
 20
296.164065
 30
0.0
 10
243.792950
 20
295.789020
 30
0.0
 10
243.111950
 20
295.651500
 30
0.0
 10
242.429950
 20
295.789020
 30
0.0
 10
241.873950
 20
296.164065
 30
0.0
 10
241.498950
 20
296.720323
 30
0.0
 10
241.361950
 20
297.401502
 30
0.0
 10
241.365950
 20
297.457551
 30
0.0
  0
SPLINE
  5
149
100
AcDbEntity
  8
top_plate
 62
7
100
AcDbSpline
 70
8
 71
3
 72
8
 73
4
 74
0
 40
0
 40
0
 40
0
 40
0
 40
1
 40
1
 40
1
 40
1
 10
161.859000
 20
297.656941
 30
0.0
 10
161.807135
 20
297.656942
 30
0.0
 10
161.757578
 20
297.635501
 30
0.0
 10
161.722068
 20
297.597699
 30
0.0
  0
SPLINE
  5
14a
100
AcDbEntity
  8
top_plate
 62
7
100
AcDbSpline
 70
8
 71
3
 72
8
 73
4
 74
0
 40
0
 40
0
 40
0
 40
0
 40
1
 40
1
 40
1
 40
1
 10
161.722068
 20
297.597699
 30
0.0
 10
161.686559
 20
297.559896
 30
0.0
 10
161.668258
 20
297.509095
 30
0.0
 10
161.671500
 20
297.457332
 30
0.0
  0
LWPOLYLINE
  5
14b
100
AcDbEntity
  8
top_plate
 62
7
100
AcDbPolyline
 90
2
 70
0
 10
241.182000
 20
297.656941
 30
0.0
 10
161.859000
 20
297.656941
 30
0.0
  0
SPLINE
  5
14c
100
AcDbEntity
  8
top_plate
 62
7
100
AcDbSpline
 70
8
 71
3
 72
8
 73
4
 74
0
 40
0
 40
0
 40
0
 40
0
 40
1
 40
1
 40
1
 40
1
 10
158.180500
 20
297.456338
 30
0.0
 10
158.184754
 20
297.507809
 30
0.0
 10
158.167198
 20
297.558701
 30
0.0
 10
158.132115
 20
297.596603
 30
0.0
  0
SPLINE
  5
14d
100
AcDbEntity
  8
top_plate
 62
7
100
AcDbSpline
 70
8
 71
3
 72
8
 73
4
 74
0
 40
0
 40
0
 40
0
 40
0
 40
1
 40
1
 40
1
 40
1
 10
158.132115
 20
297.596603
 30
0.0
 10
158.097032
 20
297.634505
 30
0.0
 10
158.047646
 20
297.655934
 30
0.0
 10
157.996000
 20
297.655663
 30
0.0
  0
LWPOLYLINE
  5
14e
100
AcDbEntity
  8
top_plate
 62
7
100
AcDbPolyline
 90
11
 70
0
 10
161.671500
 20
297.457332
 30
0.0
 10
161.675500
 20
297.401502
 30
0.0
 10
161.538500
 20
296.720323
 30
0.0
 10
161.163500
 20
296.164065
 30
0.0
 10
160.606500
 20
295.789020
 30
0.0
 10
159.925500
 20
295.651500
 30
0.0
 10
159.244500
 20
295.789020
 30
0.0
 10
158.688500
 20
296.164065
 30
0.0
 10
158.313500
 20
296.720323
 30
0.0
 10
158.175500
 20
297.401502
 30
0.0
 10
158.180500
 20
297.456338
 30
0.0
  0
SPLINE
  5
14f
100
AcDbEntity
  8
top_plate
 62
7
100
AcDbSpline
 70
8
 71
3
 72
8
 73
4
 74
0
 40
0
 40
0
 40
0
 40
0
 40
1
 40
1
 40
1
 40
1
 10
92.579700
 20
297.656937
 30
0.0
 10
92.528071
 20
297.656938
 30
0.0
 10
92.478774
 20
297.635433
 30
0.0
 10
92.443654
 20
297.597590
 30
0.0
  0
SPLINE
  5
150
100
AcDbEntity
  8
top_plate
 62
7
100
AcDbSpline
 70
8
 71
3
 72
8
 73
4
 74
0
 40
0
 40
0
 40
0
 40
0
 40
1
 40
1
 40
1
 40
1
 10
92.443654
 20
297.597590
 30
0.0
 10
92.408533
 20
297.559746
 30
0.0
 10
92.390763
 20
297.508983
 30
0.0
 10
92.394613
 20
297.457498
 30
0.0
  0
LWPOLYLINE
  5
151
100
AcDbEntity
  8
top_plate
 62
7
100
AcDbPolyline
 90
2
 70
0
 10
157.996000
 20
297.655663
 30
0.0
 10
92.579700
 20
297.656937
 30
0.0
  0
LWPOLYLINE
  5
152
100
AcDbEntity
  8
top_plate
 62
7
100
AcDbPolyline
 90
2
 70
0
 10
92.394613
 20
297.457498
 30
0.0
 10
92.398800
 20
297.401502
 30
0.0
  0
LWPOLYLINE
  5
153
100
AcDbEntity
  8
top_plate
 62
7
100
AcDbPolyline
 90
4
 70
1
 10
334.402000
 20
240.116900
 30
0.0
 10
295.904000
 20
240.116900
 30
0.0
 10
295.904000
 20
278.625900
 30
0.0
 10
334.402000
 20
278.625900
 30
0.0
  0
LWPOLYLINE
  5
154
100
AcDbEntity
  8
top_plate
 62
7
100
AcDbPolyline
 90
4
 70
1
 10
331.088000
 20
218.324000
 30
0.0
 10
331.088000
 20
232.324000
 30
0.0
 10
317.088000
 20
232.324000
 30
0.0
 10
317.088000
 20
218.324000
 30
0.0
  0
LWPOLYLINE
  5
155
100
AcDbEntity
  8
top_plate
 62
7
100
AcDbPolyline
 90
16
 70
1
 10
167.577000
 20
194.447000
 30
0.0
 10
167.244000
 20
194.222000
 30
0.0
 10
166.835000
 20
194.140000
 30
0.0
 10
166.426000
 20
194.222000
 30
0.0
 10
166.092000
 20
194.447000
 30
0.0
 10
165.867000
 20
194.781000
 30
0.0
 10
165.785000
 20
195.190000
 30
0.0
 10
165.867000
 20
195.599000
 30
0.0
 10
166.092000
 20
195.932000
 30
0.0
 10
166.426000
 20
196.157000
 30
0.0
 10
166.835000
 20
196.240000
 30
0.0
 10
167.244000
 20
196.157000
 30
0.0
 10
167.577000
 20
195.932000
 30
0.0
 10
167.802000
 20
195.599000
 30
0.0
 10
167.885000
 20
195.190000
 30
0.0
 10
167.802000
 20
194.781000
 30
0.0
  0
LWPOLYLINE
  5
156
100
AcDbEntity
  8
top_plate
 62
7
100
AcDbPolyline
 90
16
 70
1
 10
167.577000
 20
292.822920
 30
0.0
 10
167.244000
 20
292.597900
 30
0.0
 10
166.835000
 20
292.515390
 30
0.0
 10
166.426000
 20
292.597900
 30
0.0
 10
166.092000
 20
292.822920
 30
0.0
 10
165.867000
 20
293.156680
 30
0.0
 10
165.785000
 20
293.565390
 30
0.0
 10
165.867000
 20
293.974090
 30
0.0
 10
166.092000
 20
294.307850
 30
0.0
 10
166.426000
 20
294.532870
 30
0.0
 10
166.835000
 20
294.615390
 30
0.0
 10
167.244000
 20
294.532870
 30
0.0
 10
167.577000
 20
294.307850
 30
0.0
 10
167.802000
 20
293.974090
 30
0.0
 10
167.885000
 20
293.565390
 30
0.0
 10
167.802000
 20
293.156680
 30
0.0
  0
LWPOLYLINE
  5
157
100
AcDbEntity
  8
top_plate
 62
7
100
AcDbPolyline
 90
16
 70
1
 10
253.376000
 20
194.447000
 30
0.0
 10
253.043000
 20
194.222000
 30
0.0
 10
252.634000
 20
194.140000
 30
0.0
 10
252.225000
 20
194.222000
 30
0.0
 10
251.891000
 20
194.447000
 30
0.0
 10
251.666000
 20
194.781000
 30
0.0
 10
251.584000
 20
195.190000
 30
0.0
 10
251.666000
 20
195.599000
 30
0.0
 10
251.891000
 20
195.932000
 30
0.0
 10
252.225000
 20
196.157000
 30
0.0
 10
252.634000
 20
196.240000
 30
0.0
 10
253.043000
 20
196.157000
 30
0.0
 10
253.376000
 20
195.932000
 30
0.0
 10
253.601000
 20
195.599000
 30
0.0
 10
253.684000
 20
195.190000
 30
0.0
 10
253.601000
 20
194.781000
 30
0.0
  0
LWPOLYLINE
  5
158
100
AcDbEntity
  8
top_plate
 62
7
100
AcDbPolyline
 90
16
 70
1
 10
253.376000
 20
292.822930
 30
0.0
 10
253.043000
 20
292.597900
 30
0.0
 10
252.634000
 20
292.515390
 30
0.0
 10
252.225000
 20
292.597900
 30
0.0
 10
251.891000
 20
292.822930
 30
0.0
 10
251.666000
 20
293.156680
 30
0.0
 10
251.584000
 20
293.565390
 30
0.0
 10
251.666000
 20
293.974100
 30
0.0
 10
251.891000
 20
294.307850
 30
0.0
 10
252.225000
 20
294.532870
 30
0.0
 10
252.634000
 20
294.615390
 30
0.0
 10
253.043000
 20
294.532870
 30
0.0
 10
253.376000
 20
294.307850
 30
0.0
 10
253.601000
 20
293.974100
 30
0.0
 10
253.684000
 20
293.565390
 30
0.0
 10
253.601000
 20
293.156680
 30
0.0
  0
LWPOLYLINE
  5
159
100
AcDbEntity
  8
top_plate
 62
7
100
AcDbPolyline
 90
16
 70
1
 10
82.014900
 20
194.447000
 30
0.0
 10
81.681100
 20
194.222000
 30
0.0
 10
81.272400
 20
194.140000
 30
0.0
 10
80.870600
 20
194.220000
 30
0.0
 10
80.529900
 20
194.447000
 30
0.0
 10
80.302300
 20
194.788000
 30
0.0
 10
80.222400
 20
195.190000
 30
0.0
 10
80.302300
 20
195.592000
 30
0.0
 10
80.529900
 20
195.932000
 30
0.0
 10
80.870600
 20
196.160000
 30
0.0
 10
81.272400
 20
196.240000
 30
0.0
 10
81.681100
 20
196.157000
 30
0.0
 10
82.014900
 20
195.932000
 30
0.0
 10
82.239900
 20
195.599000
 30
0.0
 10
82.322400
 20
195.190000
 30
0.0
 10
82.239900
 20
194.781000
 30
0.0
  0
LWPOLYLINE
  5
15a
100
AcDbEntity
  8
top_plate
 62
7
100
AcDbPolyline
 90
16
 70
1
 10
82.014900
 20
292.822930
 30
0.0
 10
81.681100
 20
292.597900
 30
0.0
 10
81.272400
 20
292.515390
 30
0.0
 10
80.870600
 20
292.595310
 30
0.0
 10
80.529900
 20
292.822930
 30
0.0
 10
80.302300
 20
293.163570
 30
0.0
 10
80.222400
 20
293.565390
 30
0.0
 10
80.302300
 20
293.967210
 30
0.0
 10
80.529900
 20
294.307850
 30
0.0
 10
80.870600
 20
294.535460
 30
0.0
 10
81.272400
 20
294.615390
 30
0.0
 10
81.681100
 20
294.532870
 30
0.0
 10
82.014900
 20
294.307850
 30
0.0
 10
82.239900
 20
293.974100
 30
0.0
 10
82.322400
 20
293.565390
 30
0.0
 10
82.239900
 20
293.156680
 30
0.0
  0
LWPOLYLINE
  5
15b
100
AcDbEntity
  8
top_plate
 62
7
100
AcDbPolyline
 90
16
 70
1
 10
335.927000
 20
194.447000
 30
0.0
 10
335.594000
 20
194.222000
 30
0.0
 10
335.185000
 20
194.140000
 30
0.0
 10
334.776000
 20
194.222000
 30
0.0
 10
334.443000
 20
194.447000
 30
0.0
 10
334.218000
 20
194.781000
 30
0.0
 10
334.135000
 20
195.190000
 30
0.0
 10
334.218000
 20
195.599000
 30
0.0
 10
334.443000
 20
195.932000
 30
0.0
 10
334.776000
 20
196.157000
 30
0.0
 10
335.185000
 20
196.240000
 30
0.0
 10
335.594000
 20
196.157000
 30
0.0
 10
335.927000
 20
195.932000
 30
0.0
 10
336.153000
 20
195.599000
 30
0.0
 10
336.235000
 20
195.190000
 30
0.0
 10
336.153000
 20
194.781000
 30
0.0
  0
LWPOLYLINE
  5
15c
100
AcDbEntity
  8
top_plate
 62
7
100
AcDbPolyline
 90
16
 70
1
 10
335.927000
 20
292.822930
 30
0.0
 10
335.594000
 20
292.597900
 30
0.0
 10
335.185000
 20
292.515390
 30
0.0
 10
334.776000
 20
292.597900
 30
0.0
 10
334.443000
 20
292.822930
 30
0.0
 10
334.218000
 20
293.156680
 30
0.0
 10
334.135000
 20
293.565390
 30
0.0
 10
334.218000
 20
293.974100
 30
0.0
 10
334.443000
 20
294.307850
 30
0.0
 10
334.776000
 20
294.532870
 30
0.0
 10
335.185000
 20
294.615390
 30
0.0
 10
335.594000
 20
294.532870
 30
0.0
 10
335.927000
 20
294.307850
 30
0.0
 10
336.153000
 20
293.974100
 30
0.0
 10
336.235000
 20
293.565390
 30
0.0
 10
336.153000
 20
293.156680
 30
0.0
  0
LWPOLYLINE
  5
15d
100
AcDbEntity
  8
top_plate
 62
7
100
AcDbPolyline
 90
16
 70
1
 10
4.172490
 20
194.447000
 30
0.0
 10
3.838730
 20
194.222000
 30
0.0
 10
3.430020
 20
194.140000
 30
0.0
 10
3.021320
 20
194.222000
 30
0.0
 10
2.687560
 20
194.447000
 30
0.0
 10
2.462540
 20
194.781000
 30
0.0
 10
2.380020
 20
195.190000
 30
0.0
 10
2.462540
 20
195.599000
 30
0.0
 10
2.687560
 20
195.932000
 30
0.0
 10
3.021320
 20
196.157000
 30
0.0
 10
3.430020
 20
196.240000
 30
0.0
 10
3.838730
 20
196.157000
 30
0.0
 10
4.172490
 20
195.932000
 30
0.0
 10
4.397510
 20
195.599000
 30
0.0
 10
4.480020
 20
195.190000
 30
0.0
 10
4.397510
 20
194.781000
 30
0.0
  0
LWPOLYLINE
  5
15e
100
AcDbEntity
  8
top_plate
 62
7
100
AcDbPolyline
 90
16
 70
1
 10
4.172490
 20
292.822930
 30
0.0
 10
3.838730
 20
292.597910
 30
0.0
 10
3.430020
 20
292.515390
 30
0.0
 10
3.028210
 20
292.595320
 30
0.0
 10
2.687560
 20
292.822930
 30
0.0
 10
2.459950
 20
293.163580
 30
0.0
 10
2.380020
 20
293.565390
 30
0.0
 10
2.462540
 20
293.974100
 30
0.0
 10
2.687560
 20
294.307860
 30
0.0
 10
3.021320
 20
294.532880
 30
0.0
 10
3.430020
 20
294.615390
 30
0.0
 10
3.838730
 20
294.532880
 30
0.0
 10
4.172490
 20
294.307860
 30
0.0
 10
4.397510
 20
293.974100
 30
0.0
 10
4.480020
 20
293.565390
 30
0.0
 10
4.397510
 20
293.156690
 30
0.0
  0
LWPOLYLINE
  5
15f
100
AcDbEntity
  8
top_plate
 62
7
100
AcDbPolyline
 90
12
 70
1
 10
288.226000
 20
275.474000
 30
0.0
 10
285.258000
 20
275.474000
 30
0.0
 10
285.251000
 20
274.724000
 30
0.0
 10
281.951000
 20
274.724000
 30
0.0
 10
281.951000
 20
275.473700
 30
0.0
 10
261.455000
 20
275.473700
 30
0.0
 10
261.451000
 20
274.724000
 30
0.0
 10
258.150000
 20
274.724000
 30
0.0
 10
258.150000
 20
275.469500
 30
0.0
 10
255.176000
 20
275.474000
 30
0.0
 10
255.176000
 20
289.474000
 30
0.0
 10
288.226000
 20
289.474000
 30
0.0
  0
LWPOLYLINE
  5
160
100
AcDbEntity
  8
top_plate
 62
7
100
AcDbPolyline
 90
22
 70
1
 10
283.463000
 20
269.162400
 30
0.0
 10
283.463000
 20
270.424000
 30
0.0
 10
269.463000
 20
270.424000
 30
0.0
 10
269.463000
 20
256.424000
 30
0.0
 10
271.852000
 20
256.424000
 30
0.0
 10
271.852000
 20
251.375900
 30
0.0
 10
250.413000
 20
251.374000
 30
0.0
 10
250.413000
 20
237.374000
 30
0.0
 10
255.761000
 20
237.374000
 30
0.0
 10
255.769000
 20
236.624000
 30
0.0
 10
259.068000
 20
236.624000
 30
0.0
 10
259.068000
 20
237.373600
 30
0.0
 10
279.564000
 20
237.373800
 30
0.0
 10
279.569000
 20
236.623900
 30
0.0
 10
282.869000
 20
236.623900
 30
0.0
 10
282.873000
 20
237.373800
 30
0.0
 10
285.851000
 20
237.373800
 30
0.0
 10
285.844000
 20
260.898800
 30
0.0
 10
283.466000
 20
260.903400
 30
0.0
 10
283.466000
 20
262.423800
 30
0.0
 10
284.374000
 20
262.423900
 30
0.0
 10
284.374000
 20
269.174000
 30
0.0
  0
LWPOLYLINE
  5
161
100
AcDbEntity
  8
top_plate
 62
7
100
AcDbPolyline
 90
13
 70
1
 10
288.226000
 20
232.324000
 30
0.0
 10
271.557000
 20
232.324000
 30
0.0
 10
248.032000
 20
232.324000
 30
0.0
 10
248.032000
 20
218.324000
 30
0.0
 10
251.009000
 20
218.324000
 30
0.0
 10
251.007000
 20
217.574000
 30
0.0
 10
254.307000
 20
217.574000
 30
0.0
 10
254.309000
 20
218.324000
 30
0.0
 10
274.807000
 20
218.324000
 30
0.0
 10
274.807000
 20
217.574000
 30
0.0
 10
278.107000
 20
217.574000
 30
0.0
 10
278.110000
 20
218.324000
 30
0.0
 10
288.226000
 20
218.324000
 30
0.0
  0
LWPOLYLINE
  5
162
100
AcDbEntity
  8
top_plate
 62
7
100
AcDbPolyline
 90
40
 70
1
 10
179.557000
 20
199.505000
 30
0.0
 10
179.557000
 20
198.524000
 30
0.0
 10
182.857000
 20
198.524000
 30
0.0
 10
182.858000
 20
199.505000
 30
0.0
 10
184.313000
 20
199.505000
 30
0.0
 10
184.319000
 20
198.524000
 30
0.0
 10
187.619000
 20
198.524000
 30
0.0
 10
187.619000
 20
199.505000
 30
0.0
 10
189.344000
 20
199.505000
 30
0.0
 10
189.344000
 20
205.774000
 30
0.0
 10
190.169000
 20
205.774000
 30
0.0
 10
190.169000
 20
208.574000
 30
0.0
 10
189.344000
 20
208.574000
 30
0.0
 10
189.344000
 20
211.804000
 30
0.0
 10
177.832000
 20
211.804000
 30
0.0
 10
177.832000
 20
208.574000
 30
0.0
 10
176.307000
 20
208.574000
 30
0.0
 10
176.307000
 20
213.274000
 30
0.0
 10
162.307000
 20
213.274000
 30
0.0
 10
162.307000
 20
208.574000
 30
0.0
 10
160.782000
 20
208.574000
 30
0.0
 10
160.782000
 20
211.804000
 30
0.0
 10
154.032000
 20
211.804000
 30
0.0
 10
154.032000
 20
208.574000
 30
0.0
 10
153.207000
 20
208.574000
 30
0.0
 10
153.207000
 20
205.774000
 30
0.0
 10
154.032000
 20
205.774000
 30
0.0
 10
154.032000
 20
199.505000
 30
0.0
 10
155.757000
 20
199.505000
 30
0.0
 10
155.757000
 20
198.524000
 30
0.0
 10
159.057000
 20
198.524000
 30
0.0
 10
159.057000
 20
199.505000
 30
0.0
 10
160.782000
 20
199.505000
 30
0.0
 10
160.782000
 20
203.975000
 30
0.0
 10
162.307000
 20
203.975000
 30
0.0
 10
162.307000
 20
199.274000
 30
0.0
 10
176.307000
 20
199.274000
 30
0.0
 10
176.307000
 20
203.975000
 30
0.0
 10
177.832000
 20
203.975000
 30
0.0
 10
177.832000
 20
199.505000
 30
0.0
  0
LWPOLYLINE
  5
163
100
AcDbEntity
  8
top_plate
 62
7
100
AcDbPolyline
 90
4
 70
1
 10
142.969000
 20
199.274000
 30
0.0
 10
124.207000
 20
199.274000
 30
0.0
 10
124.207000
 20
213.274000
 30
0.0
 10
142.969000
 20
213.274000
 30
0.0
  0
LWPOLYLINE
  5
164
100
AcDbEntity
  8
top_plate
 62
7
100
AcDbPolyline
 90
12
 70
1
 10
45.338000
 20
232.324000
 30
0.0
 10
9.907000
 20
232.324000
 30
0.0
 10
9.907000
 20
218.324000
 30
0.0
 10
12.881000
 20
218.324000
 30
0.0
 10
12.882000
 20
217.574000
 30
0.0
 10
16.182000
 20
217.574000
 30
0.0
 10
16.188600
 20
218.324000
 30
0.0
 10
36.682500
 20
218.324000
 30
0.0
 10
36.682000
 20
217.574000
 30
0.0
 10
39.982000
 20
217.574000
 30
0.0
 10
39.982200
 20
218.324000
 30
0.0
 10
45.338000
 20
218.324000
 30
0.0
  0
LWPOLYLINE
  5
165
100
AcDbEntity
  8
top_plate
 62
7
100
AcDbPolyline
 90
4
 70
1
 10
28.669000
 20
237.374000
 30
0.0
 10
9.907000
 20
237.374000
 30
0.0
 10
9.907000
 20
251.374000
 30
0.0
 10
28.669000
 20
251.374000
 30
0.0
  0
LWPOLYLINE
  5
166
100
AcDbEntity
  8
top_plate
 62
7
100
AcDbPolyline
 90
4
 70
1
 10
21.526000
 20
289.474000
 30
0.0
 10
7.526000
 20
289.474000
 30
0.0
 10
7.526000
 20
275.474000
 30
0.0
 10
21.526000
 20
275.474000
 30
0.0
  0
LWPOLYLINE
  5
167
100
AcDbEntity
  8
top_plate
 62
7
100
AcDbPolyline
 90
4
 70
1
 10
40.576000
 20
289.474000
 30
0.0
 10
26.576000
 20
289.474000
 30
0.0
 10
26.576000
 20
275.474000
 30
0.0
 10
40.576000
 20
275.474000
 30
0.0
  0
LWPOLYLINE
  5
168
100
AcDbEntity
  8
top_plate
 62
7
100
AcDbPolyline
 90
4
 70
1
 10
59.626000
 20
289.474000
 30
0.0
 10
45.626000
 20
289.474000
 30
0.0
 10
45.626000
 20
275.474000
 30
0.0
 10
59.626000
 20
275.474000
 30
0.0
  0
LWPOLYLINE
  5
169
100
AcDbEntity
  8
top_plate
 62
7
100
AcDbPolyline
 90
4
 70
1
 10
78.676000
 20
289.474000
 30
0.0
 10
64.676000
 20
289.474000
 30
0.0
 10
64.676000
 20
275.474000
 30
0.0
 10
78.676000
 20
275.474000
 30
0.0
  0
LWPOLYLINE
  5
16a
100
AcDbEntity
  8
top_plate
 62
7
100
AcDbPolyline
 90
4
 70
1
 10
97.726000
 20
289.474000
 30
0.0
 10
83.726000
 20
289.474000
 30
0.0
 10
83.726000
 20
275.474000
 30
0.0
 10
97.726000
 20
275.474000
 30
0.0
  0
LWPOLYLINE
  5
16b
100
AcDbEntity
  8
top_plate
 62
7
100
AcDbPolyline
 90
4
 70
1
 10
116.775000
 20
289.474000
 30
0.0
 10
102.775000
 20
289.474000
 30
0.0
 10
102.775000
 20
275.474000
 30
0.0
 10
116.775000
 20
275.474000
 30
0.0
  0
LWPOLYLINE
  5
16c
100
AcDbEntity
  8
top_plate
 62
7
100
AcDbPolyline
 90
4
 70
1
 10
135.826000
 20
289.474000
 30
0.0
 10
121.825000
 20
289.474000
 30
0.0
 10
121.825000
 20
275.474000
 30
0.0
 10
135.826000
 20
275.474000
 30
0.0
  0
LWPOLYLINE
  5
16d
100
AcDbEntity
  8
top_plate
 62
7
100
AcDbPolyline
 90
4
 70
1
 10
154.876000
 20
289.474000
 30
0.0
 10
140.876000
 20
289.474000
 30
0.0
 10
140.876000
 20
275.474000
 30
0.0
 10
154.876000
 20
275.474000
 30
0.0
  0
LWPOLYLINE
  5
16e
100
AcDbEntity
  8
top_plate
 62
7
100
AcDbPolyline
 90
4
 70
1
 10
173.926000
 20
289.474000
 30
0.0
 10
159.926000
 20
289.474000
 30
0.0
 10
159.926000
 20
275.474000
 30
0.0
 10
173.926000
 20
275.474000
 30
0.0
  0
LWPOLYLINE
  5
16f
100
AcDbEntity
  8
top_plate
 62
7
100
AcDbPolyline
 90
4
 70
1
 10
192.976000
 20
289.474000
 30
0.0
 10
178.976000
 20
289.474000
 30
0.0
 10
178.976000
 20
275.474000
 30
0.0
 10
192.976000
 20
275.474000
 30
0.0
  0
LWPOLYLINE
  5
170
100
AcDbEntity
  8
top_plate
 62
7
100
AcDbPolyline
 90
4
 70
1
 10
212.026000
 20
289.474000
 30
0.0
 10
198.026000
 20
289.474000
 30
0.0
 10
198.026000
 20
275.474000
 30
0.0
 10
212.026000
 20
275.474000
 30
0.0
  0
LWPOLYLINE
  5
171
100
AcDbEntity
  8
top_plate
 62
7
100
AcDbPolyline
 90
4
 70
1
 10
231.076000
 20
289.474000
 30
0.0
 10
217.076000
 20
289.474000
 30
0.0
 10
217.076000
 20
275.474000
 30
0.0
 10
231.076000
 20
275.474000
 30
0.0
  0
LWPOLYLINE
  5
172
100
AcDbEntity
  8
top_plate
 62
7
100
AcDbPolyline
 90
4
 70
1
 10
250.126000
 20
289.474000
 30
0.0
 10
236.126000
 20
289.474000
 30
0.0
 10
236.126000
 20
275.474000
 30
0.0
 10
250.126000
 20
275.474000
 30
0.0
  0
LWPOLYLINE
  5
173
100
AcDbEntity
  8
top_plate
 62
7
100
AcDbPolyline
 90
4
 70
1
 10
26.288000
 20
270.424000
 30
0.0
 10
12.288000
 20
270.424000
 30
0.0
 10
12.288000
 20
256.424000
 30
0.0
 10
26.288000
 20
256.424000
 30
0.0
  0
LWPOLYLINE
  5
174
100
AcDbEntity
  8
top_plate
 62
7
100
AcDbPolyline
 90
4
 70
1
 10
50.101000
 20
270.424000
 30
0.0
 10
36.101000
 20
270.424000
 30
0.0
 10
36.101000
 20
256.424000
 30
0.0
 10
50.101000
 20
256.424000
 30
0.0
  0
LWPOLYLINE
  5
175
100
AcDbEntity
  8
top_plate
 62
7
100
AcDbPolyline
 90
4
 70
1
 10
69.151000
 20
270.424000
 30
0.0
 10
55.151000
 20
270.424000
 30
0.0
 10
55.151000
 20
256.424000
 30
0.0
 10
69.151000
 20
256.424000
 30
0.0
  0
LWPOLYLINE
  5
176
100
AcDbEntity
  8
top_plate
 62
7
100
AcDbPolyline
 90
4
 70
1
 10
88.201000
 20
270.424000
 30
0.0
 10
74.201000
 20
270.424000
 30
0.0
 10
74.201000
 20
256.424000
 30
0.0
 10
88.201000
 20
256.424000
 30
0.0
  0
LWPOLYLINE
  5
177
100
AcDbEntity
  8
top_plate
 62
7
100
AcDbPolyline
 90
4
 70
1
 10
107.251000
 20
270.424000
 30
0.0
 10
93.251000
 20
270.424000
 30
0.0
 10
93.251000
 20
256.424000
 30
0.0
 10
107.251000
 20
256.424000
 30
0.0
  0
LWPOLYLINE
  5
178
100
AcDbEntity
  8
top_plate
 62
7
100
AcDbPolyline
 90
4
 70
1
 10
126.301000
 20
270.424000
 30
0.0
 10
112.301000
 20
270.424000
 30
0.0
 10
112.301000
 20
256.424000
 30
0.0
 10
126.301000
 20
256.424000
 30
0.0
  0
LWPOLYLINE
  5
179
100
AcDbEntity
  8
top_plate
 62
7
100
AcDbPolyline
 90
4
 70
1
 10
145.351000
 20
270.424000
 30
0.0
 10
131.351000
 20
270.424000
 30
0.0
 10
131.351000
 20
256.424000
 30
0.0
 10
145.351000
 20
256.424000
 30
0.0
  0
LWPOLYLINE
  5
17a
100
AcDbEntity
  8
top_plate
 62
7
100
AcDbPolyline
 90
4
 70
1
 10
164.401000
 20
270.424000
 30
0.0
 10
150.401000
 20
270.424000
 30
0.0
 10
150.401000
 20
256.424000
 30
0.0
 10
164.401000
 20
256.424000
 30
0.0
  0
LWPOLYLINE
  5
17b
100
AcDbEntity
  8
top_plate
 62
7
100
AcDbPolyline
 90
4
 70
1
 10
183.451000
 20
270.424000
 30
0.0
 10
169.451000
 20
270.424000
 30
0.0
 10
169.451000
 20
256.424000
 30
0.0
 10
183.451000
 20
256.424000
 30
0.0
  0
LWPOLYLINE
  5
17c
100
AcDbEntity
  8
top_plate
 62
7
100
AcDbPolyline
 90
4
 70
1
 10
202.501000
 20
270.424000
 30
0.0
 10
188.501000
 20
270.424000
 30
0.0
 10
188.501000
 20
256.424000
 30
0.0
 10
202.501000
 20
256.424000
 30
0.0
  0
LWPOLYLINE
  5
17d
100
AcDbEntity
  8
top_plate
 62
7
100
AcDbPolyline
 90
4
 70
1
 10
221.551000
 20
270.424000
 30
0.0
 10
207.551000
 20
270.424000
 30
0.0
 10
207.551000
 20
256.424000
 30
0.0
 10
221.551000
 20
256.424000
 30
0.0
  0
LWPOLYLINE
  5
17e
100
AcDbEntity
  8
top_plate
 62
7
100
AcDbPolyline
 90
4
 70
1
 10
240.601000
 20
270.424000
 30
0.0
 10
226.601000
 20
270.424000
 30
0.0
 10
226.601000
 20
256.424000
 30
0.0
 10
240.601000
 20
256.424000
 30
0.0
  0
LWPOLYLINE
  5
17f
100
AcDbEntity
  8
top_plate
 62
7
100
AcDbPolyline
 90
4
 70
1
 10
259.650000
 20
270.424000
 30
0.0
 10
245.651000
 20
270.424000
 30
0.0
 10
245.651000
 20
256.424000
 30
0.0
 10
259.650000
 20
256.424000
 30
0.0
  0
LWPOLYLINE
  5
180
100
AcDbEntity
  8
top_plate
 62
7
100
AcDbPolyline
 90
4
 70
1
 10
54.863000
 20
251.374000
 30
0.0
 10
40.863000
 20
251.374000
 30
0.0
 10
40.863000
 20
237.374000
 30
0.0
 10
54.863000
 20
237.374000
 30
0.0
  0
LWPOLYLINE
  5
181
100
AcDbEntity
  8
top_plate
 62
7
100
AcDbPolyline
 90
4
 70
1
 10
73.913000
 20
251.374000
 30
0.0
 10
59.913000
 20
251.374000
 30
0.0
 10
59.913000
 20
237.374000
 30
0.0
 10
73.913000
 20
237.374000
 30
0.0
  0
LWPOLYLINE
  5
182
100
AcDbEntity
  8
top_plate
 62
7
100
AcDbPolyline
 90
4
 70
1
 10
92.963000
 20
251.374000
 30
0.0
 10
78.963000
 20
251.374000
 30
0.0
 10
78.963000
 20
237.374000
 30
0.0
 10
92.963000
 20
237.374000
 30
0.0
  0
LWPOLYLINE
  5
183
100
AcDbEntity
  8
top_plate
 62
7
100
AcDbPolyline
 90
4
 70
1
 10
112.013000
 20
251.374000
 30
0.0
 10
98.013000
 20
251.374000
 30
0.0
 10
98.013000
 20
237.374000
 30
0.0
 10
112.013000
 20
237.374000
 30
0.0
  0
LWPOLYLINE
  5
184
100
AcDbEntity
  8
top_plate
 62
7
100
AcDbPolyline
 90
4
 70
1
 10
131.063000
 20
251.374000
 30
0.0
 10
117.063000
 20
251.374000
 30
0.0
 10
117.063000
 20
237.374000
 30
0.0
 10
131.063000
 20
237.374000
 30
0.0
  0
LWPOLYLINE
  5
185
100
AcDbEntity
  8
top_plate
 62
7
100
AcDbPolyline
 90
4
 70
1
 10
150.113000
 20
251.374000
 30
0.0
 10
136.113000
 20
251.374000
 30
0.0
 10
136.113000
 20
237.374000
 30
0.0
 10
150.113000
 20
237.374000
 30
0.0
  0
LWPOLYLINE
  5
186
100
AcDbEntity
  8
top_plate
 62
7
100
AcDbPolyline
 90
4
 70
1
 10
169.163000
 20
251.374000
 30
0.0
 10
155.163000
 20
251.374000
 30
0.0
 10
155.163000
 20
237.374000
 30
0.0
 10
169.163000
 20
237.374000
 30
0.0
  0
LWPOLYLINE
  5
187
100
AcDbEntity
  8
top_plate
 62
7
100
AcDbPolyline
 90
4
 70
1
 10
188.213000
 20
251.374000
 30
0.0
 10
174.213000
 20
251.374000
 30
0.0
 10
174.213000
 20
237.374000
 30
0.0
 10
188.213000
 20
237.374000
 30
0.0
  0
LWPOLYLINE
  5
188
100
AcDbEntity
  8
top_plate
 62
7
100
AcDbPolyline
 90
4
 70
1
 10
207.263000
 20
251.374000
 30
0.0
 10
193.263000
 20
251.374000
 30
0.0
 10
193.263000
 20
237.374000
 30
0.0
 10
207.263000
 20
237.374000
 30
0.0
  0
LWPOLYLINE
  5
189
100
AcDbEntity
  8
top_plate
 62
7
100
AcDbPolyline
 90
4
 70
1
 10
226.313000
 20
251.374000
 30
0.0
 10
212.313000
 20
251.374000
 30
0.0
 10
212.313000
 20
237.374000
 30
0.0
 10
226.313000
 20
237.374000
 30
0.0
  0
LWPOLYLINE
  5
18a
100
AcDbEntity
  8
top_plate
 62
7
100
AcDbPolyline
 90
4
 70
1
 10
245.363000
 20
251.374000
 30
0.0
 10
231.363000
 20
251.374000
 30
0.0
 10
231.363000
 20
237.374000
 30
0.0
 10
245.363000
 20
237.374000
 30
0.0
  0
LWPOLYLINE
  5
18b
100
AcDbEntity
  8
top_plate
 62
7
100
AcDbPolyline
 90
4
 70
1
 10
64.388000
 20
232.324000
 30
0.0
 10
50.388000
 20
232.324000
 30
0.0
 10
50.388000
 20
218.324000
 30
0.0
 10
64.388000
 20
218.324000
 30
0.0
  0
LWPOLYLINE
  5
18c
100
AcDbEntity
  8
top_plate
 62
7
100
AcDbPolyline
 90
4
 70
1
 10
83.438000
 20
232.324000
 30
0.0
 10
69.438000
 20
232.324000
 30
0.0
 10
69.438000
 20
218.324000
 30
0.0
 10
83.438000
 20
218.324000
 30
0.0
  0
LWPOLYLINE
  5
18d
100
AcDbEntity
  8
top_plate
 62
7
100
AcDbPolyline
 90
4
 70
1
 10
102.488000
 20
232.324000
 30
0.0
 10
88.488000
 20
232.324000
 30
0.0
 10
88.488000
 20
218.324000
 30
0.0
 10
102.488000
 20
218.324000
 30
0.0
  0
LWPOLYLINE
  5
18e
100
AcDbEntity
  8
top_plate
 62
7
100
AcDbPolyline
 90
4
 70
1
 10
121.538000
 20
232.324000
 30
0.0
 10
107.538000
 20
232.324000
 30
0.0
 10
107.538000
 20
218.324000
 30
0.0
 10
121.538000
 20
218.324000
 30
0.0
  0
LWPOLYLINE
  5
18f
100
AcDbEntity
  8
top_plate
 62
7
100
AcDbPolyline
 90
4
 70
1
 10
140.588000
 20
232.324000
 30
0.0
 10
126.588000
 20
232.324000
 30
0.0
 10
126.588000
 20
218.324000
 30
0.0
 10
140.588000
 20
218.324000
 30
0.0
  0
LWPOLYLINE
  5
190
100
AcDbEntity
  8
top_plate
 62
7
100
AcDbPolyline
 90
4
 70
1
 10
159.638000
 20
232.324000
 30
0.0
 10
145.638000
 20
232.324000
 30
0.0
 10
145.638000
 20
218.324000
 30
0.0
 10
159.638000
 20
218.324000
 30
0.0
  0
LWPOLYLINE
  5
191
100
AcDbEntity
  8
top_plate
 62
7
100
AcDbPolyline
 90
4
 70
1
 10
178.688000
 20
232.324000
 30
0.0
 10
164.688000
 20
232.324000
 30
0.0
 10
164.688000
 20
218.324000
 30
0.0
 10
178.688000
 20
218.324000
 30
0.0
  0
LWPOLYLINE
  5
192
100
AcDbEntity
  8
top_plate
 62
7
100
AcDbPolyline
 90
4
 70
1
 10
197.738000
 20
232.324000
 30
0.0
 10
183.738000
 20
232.324000
 30
0.0
 10
183.738000
 20
218.324000
 30
0.0
 10
197.738000
 20
218.324000
 30
0.0
  0
LWPOLYLINE
  5
193
100
AcDbEntity
  8
top_plate
 62
7
100
AcDbPolyline
 90
4
 70
1
 10
216.788000
 20
232.324000
 30
0.0
 10
202.788000
 20
232.324000
 30
0.0
 10
202.788000
 20
218.324000
 30
0.0
 10
216.788000
 20
218.324000
 30
0.0
  0
LWPOLYLINE
  5
194
100
AcDbEntity
  8
top_plate
 62
7
100
AcDbPolyline
 90
4
 70
1
 10
235.838000
 20
232.324000
 30
0.0
 10
221.838000
 20
232.324000
 30
0.0
 10
221.838000
 20
218.324000
 30
0.0
 10
235.838000
 20
218.324000
 30
0.0
  0
LWPOLYLINE
  5
195
100
AcDbEntity
  8
top_plate
 62
7
100
AcDbPolyline
 90
4
 70
1
 10
312.038000
 20
232.324000
 30
0.0
 10
298.038000
 20
232.324000
 30
0.0
 10
298.038000
 20
218.324000
 30
0.0
 10
312.038000
 20
218.324000
 30
0.0
  0
LWPOLYLINE
  5
196
100
AcDbEntity
  8
top_plate
 62
7
100
AcDbPolyline
 90
4
 70
1
 10
23.907000
 20
213.274000
 30
0.0
 10
9.907000
 20
213.274000
 30
0.0
 10
9.907000
 20
199.274000
 30
0.0
 10
23.907000
 20
199.274000
 30
0.0
  0
LWPOLYLINE
  5
197
100
AcDbEntity
  8
top_plate
 62
7
100
AcDbPolyline
 90
4
 70
1
 10
47.719000
 20
213.274000
 30
0.0
 10
33.719000
 20
213.274000
 30
0.0
 10
33.719000
 20
199.274000
 30
0.0
 10
47.719000
 20
199.274000
 30
0.0
  0
LWPOLYLINE
  5
198
100
AcDbEntity
  8
top_plate
 62
7
100
AcDbPolyline
 90
4
 70
1
 10
71.532000
 20
213.274000
 30
0.0
 10
57.532000
 20
213.274000
 30
0.0
 10
57.532000
 20
199.274000
 30
0.0
 10
71.532000
 20
199.274000
 30
0.0
  0
LWPOLYLINE
  5
199
100
AcDbEntity
  8
top_plate
 62
7
100
AcDbPolyline
 90
4
 70
1
 10
214.407000
 20
213.274000
 30
0.0
 10
200.407000
 20
213.274000
 30
0.0
 10
200.407000
 20
199.274000
 30
0.0
 10
214.407000
 20
199.274000
 30
0.0
  0
LWPOLYLINE
  5
19a
100
AcDbEntity
  8
top_plate
 62
7
100
AcDbPolyline
 90
4
 70
1
 10
238.219000
 20
213.274000
 30
0.0
 10
224.219000
 20
213.274000
 30
0.0
 10
224.219000
 20
199.274000
 30
0.0
 10
238.219000
 20
199.274000
 30
0.0
  0
LWPOLYLINE
  5
19b
100
AcDbEntity
  8
top_plate
 62
7
100
AcDbPolyline
 90
4
 70
1
 10
262.032000
 20
213.274000
 30
0.0
 10
248.032000
 20
213.274000
 30
0.0
 10
248.032000
 20
199.274000
 30
0.0
 10
262.032000
 20
199.274000
 30
0.0
  0
LWPOLYLINE
  5
19c
100
AcDbEntity
  8
top_plate
 62
7
100
AcDbPolyline
 90
4
 70
1
 10
292.988000
 20
213.274000
 30
0.0
 10
278.988000
 20
213.274000
 30
0.0
 10
278.988000
 20
199.274000
 30
0.0
 10
292.988000
 20
199.274000
 30
0.0
  0
LWPOLYLINE
  5
19d
100
AcDbEntity
  8
top_plate
 62
7
100
AcDbPolyline
 90
4
 70
1
 10
312.038000
 20
213.274000
 30
0.0
 10
298.038000
 20
213.274000
 30
0.0
 10
298.038000
 20
199.274000
 30
0.0
 10
312.038000
 20
199.274000
 30
0.0
  0
LWPOLYLINE
  5
19e
100
AcDbEntity
  8
top_plate
 62
7
100
AcDbPolyline
 90
4
 70
1
 10
331.088000
 20
213.274000
 30
0.0
 10
317.088000
 20
213.274000
 30
0.0
 10
317.088000
 20
199.274000
 30
0.0
 10
331.088000
 20
199.274000
 30
0.0
  0
LWPOLYLINE
  5
19f
100
AcDbEntity
  8
top_plate
 62
7
100
AcDbPolyline
 90
36
 70
1
 10
89.344000
 20
203.975000
 30
0.0
 10
90.869000
 20
203.975000
 30
0.0
 10
90.869000
 20
199.274000
 30
0.0
 10
104.869000
 20
199.274000
 30
0.0
 10
104.869000
 20
203.975000
 30
0.0
 10
106.394000
 20
203.975000
 30
0.0
 10
106.394000
 20
199.505000
 30
0.0
 10
108.119000
 20
199.505000
 30
0.0
 10
108.119000
 20
198.524000
 30
0.0
 10
111.419000
 20
198.524000
 30
0.0
 10
111.419000
 20
199.505000
 30
0.0
 10
113.144000
 20
199.505000
 30
0.0
 10
113.144000
 20
205.774000
 30
0.0
 10
113.969000
 20
205.774000
 30
0.0
 10
113.969000
 20
208.574000
 30
0.0
 10
113.144000
 20
208.574000
 30
0.0
 10
113.144000
 20
211.804000
 30
0.0
 10
106.394000
 20
211.804000
 30
0.0
 10
106.394000
 20
208.574000
 30
0.0
 10
104.869000
 20
208.574000
 30
0.0
 10
104.869000
 20
213.274000
 30
0.0
 10
90.869000
 20
213.274000
 30
0.0
 10
90.869000
 20
208.574000
 30
0.0
 10
89.344000
 20
208.574000
 30
0.0
 10
89.344000
 20
211.804000
 30
0.0
 10
82.594000
 20
211.804000
 30
0.0
 10
82.594000
 20
208.574000
 30
0.0
 10
81.769000
 20
208.574000
 30
0.0
 10
81.769000
 20
205.774000
 30
0.0
 10
82.594000
 20
205.774000
 30
0.0
 10
82.594000
 20
199.505000
 30
0.0
 10
84.319000
 20
199.505000
 30
0.0
 10
84.319000
 20
198.524000
 30
0.0
 10
87.619000
 20
198.524000
 30
0.0
 10
87.619000
 20
199.505000
 30
0.0
 10
89.344000
 20
199.505000
 30
0.0
  0
ENDSEC
  0
SECTION
  2
OBJECTS
  0
DICTIONARY
  5
C
330
0
100
AcDbDictionary
  3
ACAD_GROUP
350
D
  3
ACAD_MLINESTYLE
350
17
  0
DICTIONARY
  5
D
330
C
100
AcDbDictionary
  0
DICTIONARY
  5
1A
330
C
100
AcDbDictionary
  0
DICTIONARY
  5
17
330
C
100
AcDbDictionary
  3
STANDARD
350
18
  0
DICTIONARY
  5
19
330
C
100
AcDbDictionary
  0
ENDSEC
  0
EOF
