  0
SECTION
  2
HEADER
  9
$ACADVER
  1
AC1014
  9
$HANDSEED
  5
FFFF
  9
$MEASUREMENT
 70
     1
  0
ENDSEC
  0
SECTION
  2
TABLES
  0
TABLE
  2
VPORT
  5
8
330
0
100
AcDbSymbolTable
 70
     4
  0
VPORT
  5
2E
330
8
100
AcDbSymbolTableRecord
100
AcDbViewportTableRecord
  2
*ACTIVE
 70
     0
 10
0.0
 20
0.0
 11
1.0
 21
1.0
 12
210.0
 22
148.5
 13
0.0
 23
0.0
 14
10.0
 24
10.0
 15
10.0
 25
10.0
 16
0.0
 26
0.0
 36
1.0
 17
0.0
 27
0.0
 37
0.0
 40
341.0
 41
1.24
 42
50.0
 43
0.0
 44
0.0
 50
0.0
 51
0.0
 71
     0
 72
   100
 73
     1
 74
     3
 75
     0
 76
     0
 77
     0
 78
     0
  0
ENDTAB
  0
TABLE
  2
LTYPE
  5
5
330
0
100
AcDbSymbolTable
 70
     1
  0
LTYPE
  5
14
330
5
100
AcDbSymbolTableRecord
100
AcDbLinetypeTableRecord
  2
BYBLOCK
 70
     0
  3

 72
    65
 73
     0
 40
0.0
  0
LTYPE
  5
15
330
5
100
AcDbSymbolTableRecord
100
AcDbLinetypeTableRecord
  2
BYLAYER
 70
     0
  3

 72
    65
 73
     0
 40
0.0
  0
LTYPE
  5
16
330
5
100
AcDbSymbolTableRecord
100
AcDbLinetypeTableRecord
  2
CONTINUOUS
 70
     0
  3
Solid line
 72
    65
 73
     0
 40
0.0
  0
ENDTAB
  0
TABLE
  2
LAYER
  5
2
100
AcDbSymbolTable
 70
2
  0
LAYER
  5
50
100
AcDbSymbolTableRecord
100
AcDbLayerTableRecord
  2
0
 70
0
  6
CONTINUOUS
  0
LAYER
  5
51
100
AcDbSymbolTableRecord
100
AcDbLayerTableRecord
  2
top_plate
 70
0
  6
CONTINUOUS
  0
ENDTAB
  0
TABLE
  2
STYLE
  5
3
330
0
100
AcDbSymbolTable
 70
     1
  0
STYLE
  5
11
330
3
100
AcDbSymbolTableRecord
100
AcDbTextStyleTableRecord
  2
STANDARD
 70
     0
 40
0.0
 41
1.0
 50
0.0
 71
     0
 42
2.5
  3
txt
  4

  0
ENDTAB
  0
TABLE
  2
VIEW
  5
6
330
0
100
AcDbSymbolTable
 70
     0
  0
ENDTAB
  0
TABLE
  2
UCS
  5
7
330
0
100
AcDbSymbolTable
 70
     0
  0
ENDTAB
  0
TABLE
  2
APPID
  5
9
330
0
100
AcDbSymbolTable
 70
     2
  0
APPID
  5
12
330
9
100
AcDbSymbolTableRecord
100
AcDbRegAppTableRecord
  2
ACAD
 70
     0
  0
ENDTAB
  0
TABLE
  2
DIMSTYLE
  5
A
330
0
100
AcDbSymbolTable
 70
     1
  0
DIMSTYLE
105
27
330
A
100
AcDbSymbolTableRecord
100
AcDbDimStyleTableRecord
  2
ISO-25
 70
     0
  3

  4

  5

  6

  7

 40
1.0
 41
2.5
 42
0.625
 43
3.75
 44
1.25
 45
0.0
 46
0.0
 47
0.0
 48
0.0
140
2.5
141
2.5
142
0.0
143
0.03937007874016
144
1.0
145
0.0
146
1.0
147
0.625
 71
     0
 72
     0
 73
     0
 74
     0
 75
     0
 76
     0
 77
     1
 78
     8
170
     0
171
     3
172
     1
173
     0
174
     0
175
     0
176
     0
177
     0
178
     0
270
     2
271
     2
272
     2
273
     2
274
     3
340
11
275
     0
280
     0
281
     0
282
     0
283
     0
284
     8
285
     0
286
     0
287
     3
288
     0
  0
ENDTAB
  0
TABLE
  2
BLOCK_RECORD
  5
1
330
0
100
AcDbSymbolTable
 70
     1
  0
BLOCK_RECORD
  5
1F
330
1
100
AcDbSymbolTableRecord
100
AcDbBlockTableRecord
  2
*MODEL_SPACE
  0
BLOCK_RECORD
  5
1B
330
1
100
AcDbSymbolTableRecord
100
AcDbBlockTableRecord
  2
*PAPER_SPACE
  0
ENDTAB
  0
ENDSEC
  0
SECTION
  2
BLOCKS
  0
BLOCK
  5
20
330
1F
100
AcDbEntity
  8
0
100
AcDbBlockBegin
  2
*MODEL_SPACE
 70
     0
 10
0.0
 20
0.0
 30
0.0
  3
*MODEL_SPACE
  1

  0
ENDBLK
  5
21
330
1F
100
AcDbEntity
  8
0
100
AcDbBlockEnd
  0
BLOCK
  5
1C
330
1B
100
AcDbEntity
 67
     1
  8
0
100
AcDbBlockBegin
  2
*PAPER_SPACE
  1

  0
ENDBLK
  5
1D
330
1B
100
AcDbEntity
 67
     1
  8
0
100
AcDbBlockEnd
  0
ENDSEC
  0
SECTION
  2
ENTITIES
  0
SPLINE
  5
100
100
AcDbEntity
  8
top_plate
 62
7
100
AcDbSpline
 70
8
 71
3
 72
8
 73
4
 74
0
 40
0
 40
0
 40
0
 40
0
 40
1
 40
1
 40
1
 40
1
 10
88.902413
 20
297.457357
 30
0.0
 10
88.905756
 20
297.509075
 30
0.0
 10
88.887542
 20
297.559870
 30
0.0
 10
88.852097
 20
297.597679
 30
0.0
  0
SPLINE
  5
101
100
AcDbEntity
  8
top_plate
 62
7
100
AcDbSpline
 70
8
 71
3
 72
8
 73
4
 74
0
 40
0
 40
0
 40
0
 40
0
 40
1
 40
1
 40
1
 40
1
 10
88.852097
 20
297.597679
 30
0.0
 10
88.816653
 20
297.635489
 30
0.0
 10
88.767139
 20
297.656941
 30
0.0
 10
88.715313
 20
297.656941
 30
0.0
  0
LWPOLYLINE
  5
102
100
AcDbEntity
  8
top_plate
 62
7
100
AcDbPolyline
 90
11
 70
0
 10
92.394611
 20
297.457498
 30
0.0
 10
92.398811
 20
297.401502
 30
0.0
 10
92.261312
 20
296.720323
 30
0.0
 10
91.886310
 20
296.164065
 30
0.0
 10
91.330011
 20
295.789023
 30
0.0
 10
90.648812
 20
295.651503
 30
0.0
 10
89.967711
 20
295.789023
 30
0.0
 10
89.411411
 20
296.164065
 30
0.0
 10
89.036412
 20
296.720323
 30
0.0
 10
88.898813
 20
297.401502
 30
0.0
 10
88.902413
 20
297.457357
 30
0.0
  0
SPLINE
  5
103
100
AcDbEntity
  8
top_plate
 62
7
100
AcDbSpline
 70
8
 71
3
 72
8
 73
4
 74
0
 40
0
 40
0
 40
0
 40
0
 40
1
 40
1
 40
1
 40
1
 10
16.459003
 20
297.656941
 30
0.0
 10
16.350990
 20
297.656941
 30
0.0
 10
16.265719
 20
297.565199
 30
0.0
 10
16.273605
 20
297.457475
 30
0.0
  0
LWPOLYLINE
  5
104
100
AcDbEntity
  8
top_plate
 62
7
100
AcDbPolyline
 90
2
 70
0
 10
88.715313
 20
297.656941
 30
0.0
 10
16.459003
 20
297.656941
 30
0.0
  0
SPLINE
  5
105
100
AcDbEntity
  8
top_plate
 62
7
100
AcDbSpline
 70
8
 71
3
 72
8
 73
4
 74
0
 40
0
 40
0
 40
0
 40
0
 40
1
 40
1
 40
1
 40
1
 10
12.781405
 20
297.457377
 30
0.0
 10
12.788505
 20
297.565397
 30
0.0
 10
12.702855
 20
297.656944
 30
0.0
 10
12.594603
 20
297.656941
 30
0.0
  0
LWPOLYLINE
  5
106
100
AcDbEntity
  8
top_plate
 62
7
100
AcDbPolyline
 90
11
 70
0
 10
16.273605
 20
297.457475
 30
0.0
 10
16.277705
 20
297.401502
 30
0.0
 10
16.140205
 20
296.720324
 30
0.0
 10
15.765205
 20
296.164066
 30
0.0
 10
15.208905
 20
295.789023
 30
0.0
 10
14.527705
 20
295.651503
 30
0.0
 10
13.846505
 20
295.789023
 30
0.0
 10
13.290305
 20
296.164065
 30
0.0
 10
12.915205
 20
296.720323
 30
0.0
 10
12.777705
 20
297.401502
 30
0.0
 10
12.781405
 20
297.457377
 30
0.0
  0
SPLINE
  5
107
100
AcDbEntity
  8
top_plate
 62
7
100
AcDbSpline
 70
8
 71
3
 72
8
 73
4
 74
0
 40
0
 40
0
 40
0
 40
0
 40
1
 40
1
 40
1
 40
1
 10
4.332361
 20
297.656941
 30
0.0
 10
1.570937
 20
297.656941
 30
0.0
 10
-0.667639
 20
295.418365
 30
0.0
 10
-0.667639
 20
292.656941
 30
0.0
  0
LWPOLYLINE
  5
108
100
AcDbEntity
  8
top_plate
 62
7
100
AcDbPolyline
 90
2
 70
0
 10
12.594603
 20
297.656941
 30
0.0
 10
4.332361
 20
297.656941
 30
0.0
  0
SPLINE
  5
109
100
AcDbEntity
  8
top_plate
 62
7
100
AcDbSpline
 70
8
 71
3
 72
8
 73
4
 74
0
 40
0
 40
0
 40
0
 40
0
 40
1
 40
1
 40
1
 40
1
 10
-0.667639
 20
280.654303
 30
0.0
 10
-0.667639
 20
280.602460
 30
0.0
 10
-0.646192
 20
280.552926
 30
0.0
 10
-0.608386
 20
280.517452
 30
0.0
  0
SPLINE
  5
10a
100
AcDbEntity
  8
top_plate
 62
7
100
AcDbSpline
 70
8
 71
3
 72
8
 73
4
 74
0
 40
0
 40
0
 40
0
 40
0
 40
1
 40
1
 40
1
 40
1
 10
-0.608386
 20
280.517452
 30
0.0
 10
-0.570579
 20
280.481978
 30
0.0
 10
-0.519782
 20
280.463724
 30
0.0
 10
-0.468044
 20
280.467021
 30
0.0
  0
LWPOLYLINE
  5
10b
100
AcDbEntity
  8
top_plate
 62
7
100
AcDbPolyline
 90
2
 70
0
 10
-0.667639
 20
292.656941
 30
0.0
 10
-0.667639
 20
280.654303
 30
0.0
  0
SPLINE
  5
10c
100
AcDbEntity
  8
top_plate
 62
7
100
AcDbSpline
 70
8
 71
3
 72
8
 73
4
 74
0
 40
0
 40
0
 40
0
 40
0
 40
1
 40
1
 40
1
 40
1
 10
-0.468090
 20
276.974021
 30
0.0
 10
-0.519748
 20
276.977497
 30
0.0
 10
-0.570535
 20
276.959399
 30
0.0
 10
-0.608354
 20
276.924039
 30
0.0
  0
SPLINE
  5
10d
100
AcDbEntity
  8
top_plate
 62
7
100
AcDbSpline
 70
8
 71
3
 72
8
 73
4
 74
0
 40
0
 40
0
 40
0
 40
0
 40
1
 40
1
 40
1
 40
1
 10
-0.608354
 20
276.924039
 30
0.0
 10
-0.646173
 20
276.888679
 30
0.0
 10
-0.667639
 20
276.839222
 30
0.0
 10
-0.667639
 20
276.787447
 30
0.0
  0
LWPOLYLINE
  5
10e
100
AcDbEntity
  8
top_plate
 62
7
100
AcDbPolyline
 90
11
 70
0
 10
-0.468044
 20
280.467021
 30
0.0
 10
-0.414968
 20
280.470421
 30
0.0
 10
0.266211
 20
280.332921
 30
0.0
 10
0.822469
 20
279.957921
 30
0.0
 10
1.197510
 20
279.401621
 30
0.0
 10
1.335030
 20
278.720421
 30
0.0
 10
1.197510
 20
278.039321
 30
0.0
 10
0.822469
 20
277.483021
 30
0.0
 10
0.266211
 20
277.108021
 30
0.0
 10
-0.414968
 20
276.970421
 30
0.0
 10
-0.468090
 20
276.974021
 30
0.0
  0
SPLINE
  5
10f
100
AcDbEntity
  8
top_plate
 62
7
100
AcDbSpline
 70
8
 71
3
 72
8
 73
4
 74
0
 40
0
 40
0
 40
0
 40
0
 40
1
 40
1
 40
1
 40
1
 10
-0.667639
 20
211.957749
 30
0.0
 10
-0.667639
 20
211.905852
 30
0.0
 10
-0.646207
 20
211.856259
 30
0.0
 10
-0.608411
 20
211.820697
 30
0.0
  0
SPLINE
  5
110
100
AcDbEntity
  8
top_plate
 62
7
100
AcDbSpline
 70
8
 71
3
 72
8
 73
4
 74
0
 40
0
 40
0
 40
0
 40
0
 40
1
 40
1
 40
1
 40
1
 10
-0.608411
 20
211.820697
 30
0.0
 10
-0.570615
 20
211.785134
 30
0.0
 10
-0.519810
 20
211.766759
 30
0.0
 10
-0.468009
 20
211.769916
 30
0.0
  0
LWPOLYLINE
  5
111
100
AcDbEntity
  8
top_plate
 62
7
100
AcDbPolyline
 90
2
 70
0
 10
-0.667639
 20
276.787447
 30
0.0
 10
-0.667639
 20
211.957749
 30
0.0
  0
SPLINE
  5
112
100
AcDbEntity
  8
top_plate
 62
7
100
AcDbSpline
 70
8
 71
3
 72
8
 73
4
 74
0
 40
0
 40
0
 40
0
 40
0
 40
1
 40
1
 40
1
 40
1
 10
-0.468498
 20
208.278113
 30
0.0
 10
-0.519553
 20
208.282861
 30
0.0
 10
-0.570245
 20
208.265885
 30
0.0
 10
-0.608143
 20
208.231348
 30
0.0
  0
SPLINE
  5
113
100
AcDbEntity
  8
top_plate
 62
7
100
AcDbSpline
 70
8
 71
3
 72
8
 73
4
 74
0
 40
0
 40
0
 40
0
 40
0
 40
1
 40
1
 40
1
 40
1
 10
-0.608143
 20
208.231348
 30
0.0
 10
-0.646042
 20
208.196811
 30
0.0
 10
-0.667639
 20
208.147908
 30
0.0
 10
-0.667639
 20
208.096634
 30
0.0
  0
LWPOLYLINE
  5
114
100
AcDbEntity
  8
top_plate
 62
7
100
AcDbPolyline
 90
11
 70
0
 10
-0.468009
 20
211.769916
 30
0.0
 10
-0.414968
 20
211.773116
 30
0.0
 10
0.266211
 20
211.635614
 30
0.0
 10
0.822469
 20
211.260514
 30
0.0
 10
1.197510
 20
210.704315
 30
0.0
 10
1.335030
 20
210.023114
 30
0.0
 10
1.197510
 20
209.341915
 30
0.0
 10
0.822469
 20
208.785714
 30
0.0
 10
0.266211
 20
208.410611
 30
0.0
 10
-0.414968
 20
208.273113
 30
0.0
 10
-0.468498
 20
208.278113
 30
0.0
  0
SPLINE
  5
115
100
AcDbEntity
  8
top_plate
 62
7
100
AcDbSpline
 70
8
 71
3
 72
8
 73
4
 74
0
 40
0
 40
0
 40
0
 40
0
 40
1
 40
1
 40
1
 40
1
 10
-0.667639
 20
196.098000
 30
0.0
 10
-0.667639
 20
193.336580
 30
0.0
 10
1.570937
 20
191.098000
 30
0.0
 10
4.332361
 20
191.098000
 30
0.0
  0
LWPOLYLINE
  5
116
100
AcDbEntity
  8
top_plate
 62
7
100
AcDbPolyline
 90
2
 70
0
 10
-0.667639
 20
208.096634
 30
0.0
 10
-0.667639
 20
196.098000
 30
0.0
  0
SPLINE
  5
117
100
AcDbEntity
  8
top_plate
 62
7
100
AcDbSpline
 70
8
 71
3
 72
8
 73
4
 74
0
 40
0
 40
0
 40
0
 40
0
 40
1
 40
1
 40
1
 40
1
 10
12.598050
 20
191.098000
 30
0.0
 10
12.649512
 20
191.098000
 30
0.0
 10
12.698623
 20
191.119550
 30
0.0
 10
12.733468
 20
191.157422
 30
0.0
  0
SPLINE
  5
118
100
AcDbEntity
  8
top_plate
 62
7
100
AcDbSpline
 70
8
 71
3
 72
8
 73
4
 74
0
 40
0
 40
0
 40
0
 40
0
 40
1
 40
1
 40
1
 40
1
 10
12.733468
 20
191.157422
 30
0.0
 10
12.768312
 20
191.195293
 30
0.0
 10
12.785705
 20
191.246026
 30
0.0
 10
12.781427
 20
191.297310
 30
0.0
  0
LWPOLYLINE
  5
119
100
AcDbEntity
  8
top_plate
 62
7
100
AcDbPolyline
 90
2
 70
0
 10
4.332361
 20
191.098000
 30
0.0
 10
12.598050
 20
191.098000
 30
0.0
  0
SPLINE
  5
11a
100
AcDbEntity
  8
top_plate
 62
7
100
AcDbSpline
 70
8
 71
3
 72
8
 73
4
 74
0
 40
0
 40
0
 40
0
 40
0
 40
1
 40
1
 40
1
 40
1
 10
16.274327
 20
191.297410
 30
0.0
 10
16.270430
 20
191.245952
 30
0.0
 10
16.288156
 20
191.195199
 30
0.0
 10
16.323241
 20
191.157355
 30
0.0
  0
SPLINE
  5
11b
100
AcDbEntity
  8
top_plate
 62
7
100
AcDbSpline
 70
8
 71
3
 72
8
 73
4
 74
0
 40
0
 40
0
 40
0
 40
0
 40
1
 40
1
 40
1
 40
1
 10
16.323241
 20
191.157355
 30
0.0
 10
16.358325
 20
191.119511
 30
0.0
 10
16.407595
 20
191.098002
 30
0.0
 10
16.459200
 20
191.098000
 30
0.0
  0
LWPOLYLINE
  5
11c
100
AcDbEntity
  8
top_plate
 62
7
100
AcDbPolyline
 90
11
 70
0
 10
12.781427
 20
191.297310
 30
0.0
 10
12.777727
 20
191.342010
 30
0.0
 10
12.915327
 20
192.024020
 30
0.0
 10
13.290327
 20
192.580020
 30
0.0
 10
13.846627
 20
192.955020
 30
0.0
 10
14.527727
 20
193.092010
 30
0.0
 10
15.208927
 20
192.955020
 30
0.0
 10
15.765227
 20
192.580020
 30
0.0
 10
16.140227
 20
192.024020
 30
0.0
 10
16.277727
 20
191.342010
 30
0.0
 10
16.274327
 20
191.297410
 30
0.0
  0
SPLINE
  5
11d
100
AcDbEntity
  8
top_plate
 62
7
100
AcDbSpline
 70
8
 71
3
 72
8
 73
4
 74
0
 40
0
 40
0
 40
0
 40
0
 40
1
 40
1
 40
1
 40
1
 10
88.713899
 20
191.098000
 30
0.0
 10
88.765785
 20
191.098000
 30
0.0
 10
88.815366
 20
191.119434
 30
0.0
 10
88.850912
 20
191.157232
 30
0.0
  0
SPLINE
  5
11e
100
AcDbEntity
  8
top_plate
 62
7
100
AcDbSpline
 70
8
 71
3
 72
8
 73
4
 74
0
 40
0
 40
0
 40
0
 40
0
 40
1
 40
1
 40
1
 40
1
 10
88.850912
 20
191.157232
 30
0.0
 10
88.886458
 20
191.195029
 30
0.0
 10
88.904810
 20
191.245832
 30
0.0
 10
88.901627
 20
191.297620
 30
0.0
  0
LWPOLYLINE
  5
11f
100
AcDbEntity
  8
top_plate
 62
7
100
AcDbPolyline
 90
2
 70
0
 10
16.459200
 20
191.098000
 30
0.0
 10
88.713899
 20
191.098000
 30
0.0
  0
SPLINE
  5
120
100
AcDbEntity
  8
top_plate
 62
7
100
AcDbSpline
 70
8
 71
3
 72
8
 73
4
 74
0
 40
0
 40
0
 40
0
 40
0
 40
1
 40
1
 40
1
 40
1
 10
92.395628
 20
191.297520
 30
0.0
 10
92.391812
 20
191.246002
 30
0.0
 10
92.409618
 20
191.195221
 30
0.0
 10
92.444771
 20
191.157366
 30
0.0
  0
SPLINE
  5
121
100
AcDbEntity
  8
top_plate
 62
7
100
AcDbSpline
 70
8
 71
3
 72
8
 73
4
 74
0
 40
0
 40
0
 40
0
 40
0
 40
1
 40
1
 40
1
 40
1
 10
92.444771
 20
191.157366
 30
0.0
 10
92.479924
 20
191.119512
 30
0.0
 10
92.529251
 20
191.098002
 30
0.0
 10
92.580910
 20
191.098000
 30
0.0
  0
LWPOLYLINE
  5
122
100
AcDbEntity
  8
top_plate
 62
7
100
AcDbPolyline
 90
11
 70
0
 10
88.901627
 20
191.297620
 30
0.0
 10
88.898927
 20
191.342020
 30
0.0
 10
89.035928
 20
192.024030
 30
0.0
 10
89.409927
 20
192.584020
 30
0.0
 10
89.965227
 20
192.962030
 30
0.0
 10
90.645928
 20
193.100030
 30
0.0
 10
91.327527
 20
192.962030
 30
0.0
 10
91.884827
 20
192.584020
 30
0.0
 10
92.260929
 20
192.024030
 30
0.0
 10
92.398928
 20
191.342020
 30
0.0
 10
92.395628
 20
191.297520
 30
0.0
  0
SPLINE
  5
123
100
AcDbEntity
  8
top_plate
 62
7
100
AcDbSpline
 70
8
 71
3
 72
8
 73
4
 74
0
 40
0
 40
0
 40
0
 40
0
 40
1
 40
1
 40
1
 40
1
 10
157.992000
 20
191.098000
 30
0.0
 10
158.043729
 20
191.098000
 30
0.0
 10
158.093136
 20
191.119479
 30
0.0
 10
158.128420
 20
191.157307
 30
0.0
  0
SPLINE
  5
124
100
AcDbEntity
  8
top_plate
 62
7
100
AcDbSpline
 70
8
 71
3
 72
8
 73
4
 74
0
 40
0
 40
0
 40
0
 40
0
 40
1
 40
1
 40
1
 40
1
 10
158.128420
 20
191.157307
 30
0.0
 10
158.163704
 20
191.195135
 30
0.0
 10
158.181697
 20
191.245916
 30
0.0
 10
158.178100
 20
191.297520
 30
0.0
  0
LWPOLYLINE
  5
125
100
AcDbEntity
  8
top_plate
 62
7
100
AcDbPolyline
 90
2
 70
0
 10
92.580910
 20
191.098000
 30
0.0
 10
157.992000
 20
191.098000
 30
0.0
  0
SPLINE
  5
126
100
AcDbEntity
  8
top_plate
 62
7
100
AcDbSpline
 70
8
 71
3
 72
8
 73
4
 74
0
 40
0
 40
0
 40
0
 40
0
 40
1
 40
1
 40
1
 40
1
 10
161.672100
 20
191.297620
 30
0.0
 10
161.668915
 20
191.245802
 30
0.0
 10
161.687291
 20
191.194972
 30
0.0
 10
161.722874
 20
191.157169
 30
0.0
  0
SPLINE
  5
127
100
AcDbEntity
  8
top_plate
 62
7
100
AcDbSpline
 70
8
 71
3
 72
8
 73
4
 74
0
 40
0
 40
0
 40
0
 40
0
 40
1
 40
1
 40
1
 40
1
 10
161.722874
 20
191.157169
 30
0.0
 10
161.758458
 20
191.119366
 30
0.0
 10
161.808084
 20
191.097952
 30
0.0
 10
161.860000
 20
191.098000
 30
0.0
  0
LWPOLYLINE
  5
128
100
AcDbEntity
  8
top_plate
 62
7
100
AcDbPolyline
 90
11
 70
0
 10
158.178100
 20
191.297520
 30
0.0
 10
158.175100
 20
191.342020
 30
0.0
 10
158.313100
 20
192.023030
 30
0.0
 10
158.688100
 20
192.579030
 30
0.0
 10
159.244100
 20
192.954030
 30
0.0
 10
159.925100
 20
193.092020
 30
0.0
 10
160.606100
 20
192.954030
 30
0.0
 10
161.163100
 20
192.579030
 30
0.0
 10
161.538100
 20
192.023030
 30
0.0
 10
161.675100
 20
191.342020
 30
0.0
 10
161.672100
 20
191.297620
 30
0.0
  0
SPLINE
  5
129
100
AcDbEntity
  8
top_plate
 62
7
100
AcDbSpline
 70
8
 71
3
 72
8
 73
4
 74
0
 40
0
 40
0
 40
0
 40
0
 40
1
 40
1
 40
1
 40
1
 10
241.183000
 20
191.098000
 30
0.0
 10
241.234409
 20
191.098000
 30
0.0
 10
241.283462
 20
191.119563
 30
0.0
 10
241.318221
 20
191.157441
 30
0.0
  0
SPLINE
  5
12a
100
AcDbEntity
  8
top_plate
 62
7
100
AcDbSpline
 70
8
 71
3
 72
8
 73
4
 74
0
 40
0
 40
0
 40
0
 40
0
 40
1
 40
1
 40
1
 40
1
 10
241.318221
 20
191.157441
 30
0.0
 10
241.352980
 20
191.195319
 30
0.0
 10
241.370258
 20
191.246040
 30
0.0
 10
241.365850
 20
191.297260
 30
0.0
  0
LWPOLYLINE
  5
12b
100
AcDbEntity
  8
top_plate
 62
7
100
AcDbPolyline
 90
2
 70
0
 10
161.860000
 20
191.098000
 30
0.0
 10
241.183000
 20
191.098000
 30
0.0
  0
SPLINE
  5
12c
100
AcDbEntity
  8
top_plate
 62
7
100
AcDbSpline
 70
8
 71
3
 72
8
 73
4
 74
0
 40
0
 40
0
 40
0
 40
0
 40
1
 40
1
 40
1
 40
1
 10
244.859850
 20
191.297760
 30
0.0
 10
244.857498
 20
191.245613
 30
0.0
 10
244.876571
 20
191.194772
 30
0.0
 10
244.912640
 20
191.157038
 30
0.0
  0
SPLINE
  5
12d
100
AcDbEntity
  8
top_plate
 62
7
100
AcDbSpline
 70
8
 71
3
 72
8
 73
4
 74
0
 40
0
 40
0
 40
0
 40
0
 40
1
 40
1
 40
1
 40
1
 10
244.912640
 20
191.157038
 30
0.0
 10
244.948710
 20
191.119305
 30
0.0
 10
244.998640
 20
191.097961
 30
0.0
 10
245.050840
 20
191.097960
 30
0.0
  0
LWPOLYLINE
  5
12e
100
AcDbEntity
  8
top_plate
 62
7
100
AcDbPolyline
 90
11
 70
0
 10
241.365850
 20
191.297260
 30
0.0
 10
241.361850
 20
191.341960
 30
0.0
 10
241.498850
 20
192.022970
 30
0.0
 10
241.873850
 20
192.578970
 30
0.0
 10
242.429850
 20
192.953970
 30
0.0
 10
243.111850
 20
193.091960
 30
0.0
 10
243.792850
 20
192.953970
 30
0.0
 10
244.348850
 20
192.578970
 30
0.0
 10
244.723850
 20
192.022970
 30
0.0
 10
244.861850
 20
191.341960
 30
0.0
 10
244.859850
 20
191.297760
 30
0.0
  0
SPLINE
  5
12f
100
AcDbEntity
  8
top_plate
 62
7
100
AcDbSpline
 70
8
 71
3
 72
8
 73
4
 74
0
 40
0
 40
0
 40
0
 40
0
 40
1
 40
1
 40
1
 40
1
 10
322.144830
 20
191.097960
 30
0.0
 10
322.196311
 20
191.097960
 30
0.0
 10
322.245443
 20
191.119504
 30
0.0
 10
322.280320
 20
191.157371
 30
0.0
  0
SPLINE
  5
130
100
AcDbEntity
  8
top_plate
 62
7
100
AcDbSpline
 70
8
 71
3
 72
8
 73
4
 74
0
 40
0
 40
0
 40
0
 40
0
 40
1
 40
1
 40
1
 40
1
 10
322.280320
 20
191.157371
 30
0.0
 10
322.315197
 20
191.195238
 30
0.0
 10
322.332635
 20
191.245973
 30
0.0
 10
322.328410
 20
191.297280
 30
0.0
  0
LWPOLYLINE
  5
131
100
AcDbEntity
  8
top_plate
 62
7
100
AcDbPolyline
 90
2
 70
0
 10
245.050840
 20
191.097960
 30
0.0
 10
322.144830
 20
191.097960
 30
0.0
  0
SPLINE
  5
132
100
AcDbEntity
  8
top_plate
 62
7
100
AcDbSpline
 70
8
 71
3
 72
8
 73
4
 74
0
 40
0
 40
0
 40
0
 40
0
 40
1
 40
1
 40
1
 40
1
 10
325.821430
 20
191.297580
 30
0.0
 10
325.818225
 20
191.245800
 30
0.0
 10
325.836559
 20
191.194996
 30
0.0
 10
325.872093
 20
191.157196
 30
0.0
  0
SPLINE
  5
133
100
AcDbEntity
  8
top_plate
 62
7
100
AcDbSpline
 70
8
 71
3
 72
8
 73
4
 74
0
 40
0
 40
0
 40
0
 40
0
 40
1
 40
1
 40
1
 40
1
 10
325.872093
 20
191.157196
 30
0.0
 10
325.907626
 20
191.119396
 30
0.0
 10
325.957200
 20
191.097959
 30
0.0
 10
326.009080
 20
191.097960
 30
0.0
  0
LWPOLYLINE
  5
134
100
AcDbEntity
  8
top_plate
 62
7
100
AcDbPolyline
 90
11
 70
0
 10
322.328410
 20
191.297280
 30
0.0
 10
322.324410
 20
191.341980
 30
0.0
 10
322.461410
 20
192.022990
 30
0.0
 10
322.836430
 20
192.578990
 30
0.0
 10
323.393440
 20
192.953990
 30
0.0
 10
324.074420
 20
193.091980
 30
0.0
 10
324.755430
 20
192.953990
 30
0.0
 10
325.311430
 20
192.578990
 30
0.0
 10
325.686420
 20
192.022990
 30
0.0
 10
325.824430
 20
191.341980
 30
0.0
 10
325.821430
 20
191.297580
 30
0.0
  0
SPLINE
  5
135
100
AcDbEntity
  8
top_plate
 62
7
100
AcDbSpline
 70
8
 71
3
 72
8
 73
4
 74
0
 40
0
 40
0
 40
0
 40
0
 40
1
 40
1
 40
1
 40
1
 10
334.272080
 20
191.097960
 30
0.0
 10
337.033500
 20
191.097960
 30
0.0
 10
339.272080
 20
193.336540
 30
0.0
 10
339.272080
 20
196.097960
 30
0.0
  0
LWPOLYLINE
  5
136
100
AcDbEntity
  8
top_plate
 62
7
100
AcDbPolyline
 90
2
 70
0
 10
326.009080
 20
191.097960
 30
0.0
 10
334.272080
 20
191.097960
 30
0.0
  0
SPLINE
  5
137
100
AcDbEntity
  8
top_plate
 62
7
100
AcDbSpline
 70
8
 71
3
 72
8
 73
4
 74
0
 40
0
 40
0
 40
0
 40
0
 40
1
 40
1
 40
1
 40
1
 10
339.272080
 20
208.092197
 30
0.0
 10
339.272080
 20
208.143889
 30
0.0
 10
339.250591
 20
208.193256
 30
0.0
 10
339.212758
 20
208.228480
 30
0.0
  0
SPLINE
  5
138
100
AcDbEntity
  8
top_plate
 62
7
100
AcDbSpline
 70
8
 71
3
 72
8
 73
4
 74
0
 40
0
 40
0
 40
0
 40
0
 40
1
 40
1
 40
1
 40
1
 10
339.212758
 20
208.228480
 30
0.0
 10
339.174924
 20
208.263704
 30
0.0
 10
339.124151
 20
208.281615
 30
0.0
 10
339.072590
 20
208.277927
 30
0.0
  0
LWPOLYLINE
  5
139
100
AcDbEntity
  8
top_plate
 62
7
100
AcDbPolyline
 90
2
 70
0
 10
339.272080
 20
196.097960
 30
0.0
 10
339.272080
 20
208.092197
 30
0.0
  0
SPLINE
  5
13a
100
AcDbEntity
  8
top_plate
 62
7
100
AcDbSpline
 70
8
 71
3
 72
8
 73
4
 74
0
 40
0
 40
0
 40
0
 40
0
 40
1
 40
1
 40
1
 40
1
 10
339.072490
 20
211.768928
 30
0.0
 10
339.124271
 20
211.765726
 30
0.0
 10
339.175074
 20
211.784062
 30
0.0
 10
339.212873
 20
211.819597
 30
0.0
  0
SPLINE
  5
13b
100
AcDbEntity
  8
top_plate
 62
7
100
AcDbSpline
 70
8
 71
3
 72
8
 73
4
 74
0
 40
0
 40
0
 40
0
 40
0
 40
1
 40
1
 40
1
 40
1
 10
339.212873
 20
211.819597
 30
0.0
 10
339.250673
 20
211.855131
 30
0.0
 10
339.272110
 20
211.904705
 30
0.0
 10
339.272110
 20
211.956585
 30
0.0
  0
LWPOLYLINE
  5
13c
100
AcDbEntity
  8
top_plate
 62
7
100
AcDbPolyline
 90
11
 70
0
 10
339.072590
 20
208.277927
 30
0.0
 10
339.005090
 20
208.273127
 30
0.0
 10
338.324110
 20
208.410625
 30
0.0
 10
337.768110
 20
208.785728
 30
0.0
 10
337.393090
 20
209.341927
 30
0.0
 10
337.255110
 20
210.023126
 30
0.0
 10
337.393090
 20
210.704327
 30
0.0
 10
337.768110
 20
211.260526
 30
0.0
 10
338.324110
 20
211.635626
 30
0.0
 10
339.005090
 20
211.773128
 30
0.0
 10
339.072490
 20
211.768928
 30
0.0
  0
SPLINE
  5
13d
100
AcDbEntity
  8
top_plate
 62
7
100
AcDbSpline
 70
8
 71
3
 72
8
 73
4
 74
0
 40
0
 40
0
 40
0
 40
0
 40
1
 40
1
 40
1
 40
1
 10
339.272110
 20
276.789903
 30
0.0
 10
339.272110
 20
276.841567
 30
0.0
 10
339.250613
 20
276.890901
 30
0.0
 10
339.212775
 20
276.926077
 30
0.0
  0
SPLINE
  5
13e
100
AcDbEntity
  8
top_plate
 62
7
100
AcDbSpline
 70
8
 71
3
 72
8
 73
4
 74
0
 40
0
 40
0
 40
0
 40
0
 40
1
 40
1
 40
1
 40
1
 10
339.212775
 20
276.926077
 30
0.0
 10
339.174936
 20
276.961253
 30
0.0
 10
339.124167
 20
276.979099
 30
0.0
 10
339.072640
 20
276.975336
 30
0.0
  0
LWPOLYLINE
  5
13f
100
AcDbEntity
  8
top_plate
 62
7
100
AcDbPolyline
 90
2
 70
0
 10
339.272110
 20
211.956585
 30
0.0
 10
339.272110
 20
276.789903
 30
0.0
  0
SPLINE
  5
140
100
AcDbEntity
  8
top_plate
 62
7
100
AcDbSpline
 70
8
 71
3
 72
8
 73
4
 74
0
 40
0
 40
0
 40
0
 40
0
 40
1
 40
1
 40
1
 40
1
 10
339.072440
 20
280.466637
 30
0.0
 10
339.124338
 20
280.463702
 30
0.0
 10
339.175154
 20
280.482271
 30
0.0
 10
339.212933
 20
280.517974
 30
0.0
  0
SPLINE
  5
141
100
AcDbEntity
  8
top_plate
 62
7
100
AcDbSpline
 70
8
 71
3
 72
8
 73
4
 74
0
 40
0
 40
0
 40
0
 40
0
 40
1
 40
1
 40
1
 40
1
 10
339.212933
 20
280.517974
 30
0.0
 10
339.250712
 20
280.553678
 30
0.0
 10
339.272120
 20
280.603364
 30
0.0
 10
339.272120
 20
280.655345
 30
0.0
  0
LWPOLYLINE
  5
142
100
AcDbEntity
  8
top_plate
 62
7
100
AcDbPolyline
 90
11
 70
0
 10
339.072640
 20
276.975336
 30
0.0
 10
339.005140
 20
276.970436
 30
0.0
 10
338.324160
 20
277.108036
 30
0.0
 10
337.768160
 20
277.483036
 30
0.0
 10
337.393140
 20
278.039336
 30
0.0
 10
337.255160
 20
278.720436
 30
0.0
 10
337.393140
 20
279.401637
 30
0.0
 10
337.768160
 20
279.957937
 30
0.0
 10
338.324160
 20
280.332937
 30
0.0
 10
339.005140
 20
280.470437
 30
0.0
 10
339.072440
 20
280.466637
 30
0.0
  0
SPLINE
  5
143
100
AcDbEntity
  8
top_plate
 62
7
100
AcDbSpline
 70
8
 71
3
 72
8
 73
4
 74
0
 40
0
 40
0
 40
0
 40
0
 40
1
 40
1
 40
1
 40
1
 10
339.272120
 20
292.656941
 30
0.0
 10
339.272120
 20
295.418364
 30
0.0
 10
337.033540
 20
297.656941
 30
0.0
 10
334.272120
 20
297.656941
 30
0.0
  0
LWPOLYLINE
  5
144
100
AcDbEntity
  8
top_plate
 62
7
100
AcDbPolyline
 90
2
 70
0
 10
339.272120
 20
280.655345
 30
0.0
 10
339.272120
 20
292.656941
 30
0.0
  0
SPLINE
  5
145
100
AcDbEntity
  8
top_plate
 62
7
100
AcDbSpline
 70
8
 71
3
 72
8
 73
4
 74
0
 40
0
 40
0
 40
0
 40
0
 40
1
 40
1
 40
1
 40
1
 10
326.006600
 20
297.656941
 30
0.0
 10
325.954849
 20
297.656941
 30
0.0
 10
325.905418
 20
297.635468
 30
0.0
 10
325.870097
 20
297.597645
 30
0.0
  0
SPLINE
  5
146
100
AcDbEntity
  8
top_plate
 62
7
100
AcDbSpline
 70
8
 71
3
 72
8
 73
4
 74
0
 40
0
 40
0
 40
0
 40
0
 40
1
 40
1
 40
1
 40
1
 10
325.870097
 20
297.597645
 30
0.0
 10
325.834777
 20
297.559821
 30
0.0
 10
325.816733
 20
297.509038
 30
0.0
 10
325.820270
 20
297.457408
 30
0.0
  0
LWPOLYLINE
  5
147
100
AcDbEntity
  8
top_plate
 62
7
100
AcDbPolyline
 90
2
 70
0
 10
334.272120
 20
297.656941
 30
0.0
 10
326.006600
 20
297.656941
 30
0.0
  0
SPLINE
  5
148
100
AcDbEntity
  8
top_plate
 62
7
100
AcDbSpline
 70
8
 71
3
 72
8
 73
4
 74
0
 40
0
 40
0
 40
0
 40
0
 40
1
 40
1
 40
1
 40
1
 10
322.329260
 20
297.457559
 30
0.0
 10
322.333557
 20
297.508834
 30
0.0
 10
322.316181
 20
297.559564
 30
0.0
 10
322.281349
 20
297.597437
 30
0.0
  0
SPLINE
  5
149
100
AcDbEntity
  8
top_plate
 62
7
100
AcDbSpline
 70
8
 71
3
 72
8
 73
4
 74
0
 40
0
 40
0
 40
0
 40
0
 40
1
 40
1
 40
1
 40
1
 10
322.281349
 20
297.597437
 30
0.0
 10
322.246517
 20
297.635309
 30
0.0
 10
322.197415
 20
297.656861
 30
0.0
 10
322.145960
 20
297.656860
 30
0.0
  0
LWPOLYLINE
  5
14a
100
AcDbEntity
  8
top_plate
 62
7
100
AcDbPolyline
 90
11
 70
0
 10
325.820270
 20
297.457408
 30
0.0
 10
325.824270
 20
297.401502
 30
0.0
 10
325.686270
 20
296.720323
 30
0.0
 10
325.311270
 20
296.164065
 30
0.0
 10
324.755280
 20
295.789023
 30
0.0
 10
324.074270
 20
295.651503
 30
0.0
 10
323.393280
 20
295.789023
 30
0.0
 10
322.836280
 20
296.164065
 30
0.0
 10
322.461260
 20
296.720323
 30
0.0
 10
322.324260
 20
297.401502
 30
0.0
 10
322.329260
 20
297.457559
 30
0.0
  0
SPLINE
  5
14b
100
AcDbEntity
  8
top_plate
 62
7
100
AcDbSpline
 70
8
 71
3
 72
8
 73
4
 74
0
 40
0
 40
0
 40
0
 40
0
 40
1
 40
1
 40
1
 40
1
 10
245.046440
 20
297.656941
 30
0.0
 10
244.994462
 20
297.656942
 30
0.0
 10
244.944779
 20
297.635533
 30
0.0
 10
244.909081
 20
297.597753
 30
0.0
  0
SPLINE
  5
14c
100
AcDbEntity
  8
top_plate
 62
7
100
AcDbSpline
 70
8
 71
3
 72
8
 73
4
 74
0
 40
0
 40
0
 40
0
 40
0
 40
1
 40
1
 40
1
 40
1
 10
244.909081
 20
297.597753
 30
0.0
 10
244.873384
 20
297.559973
 30
0.0
 10
244.854824
 20
297.509156
 30
0.0
 10
244.857770
 20
297.457262
 30
0.0
  0
LWPOLYLINE
  5
14d
100
AcDbEntity
  8
top_plate
 62
7
100
AcDbPolyline
 90
2
 70
0
 10
322.145960
 20
297.656860
 30
0.0
 10
245.046440
 20
297.656941
 30
0.0
  0
SPLINE
  5
14e
100
AcDbEntity
  8
top_plate
 62
7
100
AcDbSpline
 70
8
 71
3
 72
8
 73
4
 74
0
 40
0
 40
0
 40
0
 40
0
 40
1
 40
1
 40
1
 40
1
 10
241.365270
 20
297.457551
 30
0.0
 10
241.369295
 20
297.508955
 30
0.0
 10
241.351679
 20
297.559706
 30
0.0
 10
241.316671
 20
297.597562
 30
0.0
  0
SPLINE
  5
14f
100
AcDbEntity
  8
top_plate
 62
7
100
AcDbSpline
 70
8
 71
3
 72
8
 73
4
 74
0
 40
0
 40
0
 40
0
 40
0
 40
1
 40
1
 40
1
 40
1
 10
241.316671
 20
297.597562
 30
0.0
 10
241.281663
 20
297.635418
 30
0.0
 10
241.232442
 20
297.656941
 30
0.0
 10
241.180880
 20
297.656941
 30
0.0
  0
LWPOLYLINE
  5
150
100
AcDbEntity
  8
top_plate
 62
7
100
AcDbPolyline
 90
11
 70
0
 10
244.857770
 20
297.457262
 30
0.0
 10
244.860770
 20
297.401502
 30
0.0
 10
244.723270
 20
296.720323
 30
0.0
 10
244.348270
 20
296.164065
 30
0.0
 10
243.792270
 20
295.789023
 30
0.0
 10
243.111270
 20
295.651503
 30
0.0
 10
242.429270
 20
295.789023
 30
0.0
 10
241.873270
 20
296.164065
 30
0.0
 10
241.498270
 20
296.720323
 30
0.0
 10
241.361270
 20
297.401502
 30
0.0
 10
241.365270
 20
297.457551
 30
0.0
  0
SPLINE
  5
151
100
AcDbEntity
  8
top_plate
 62
7
100
AcDbSpline
 70
8
 71
3
 72
8
 73
4
 74
0
 40
0
 40
0
 40
0
 40
0
 40
1
 40
1
 40
1
 40
1
 10
161.859000
 20
297.656941
 30
0.0
 10
161.807135
 20
297.656941
 30
0.0
 10
161.757578
 20
297.635501
 30
0.0
 10
161.722068
 20
297.597698
 30
0.0
  0
SPLINE
  5
152
100
AcDbEntity
  8
top_plate
 62
7
100
AcDbSpline
 70
8
 71
3
 72
8
 73
4
 74
0
 40
0
 40
0
 40
0
 40
0
 40
1
 40
1
 40
1
 40
1
 10
161.722068
 20
297.597698
 30
0.0
 10
161.686559
 20
297.559896
 30
0.0
 10
161.668258
 20
297.509095
 30
0.0
 10
161.671500
 20
297.457332
 30
0.0
  0
LWPOLYLINE
  5
153
100
AcDbEntity
  8
top_plate
 62
7
100
AcDbPolyline
 90
2
 70
0
 10
241.180880
 20
297.656941
 30
0.0
 10
161.859000
 20
297.656941
 30
0.0
  0
SPLINE
  5
154
100
AcDbEntity
  8
top_plate
 62
7
100
AcDbSpline
 70
8
 71
3
 72
8
 73
4
 74
0
 40
0
 40
0
 40
0
 40
0
 40
1
 40
1
 40
1
 40
1
 10
158.179510
 20
297.456307
 30
0.0
 10
158.183652
 20
297.507656
 30
0.0
 10
158.166139
 20
297.558398
 30
0.0
 10
158.131207
 20
297.596262
 30
0.0
  0
SPLINE
  5
155
100
AcDbEntity
  8
top_plate
 62
7
100
AcDbSpline
 70
8
 71
3
 72
8
 73
4
 74
0
 40
0
 40
0
 40
0
 40
0
 40
1
 40
1
 40
1
 40
1
 10
158.131207
 20
297.596262
 30
0.0
 10
158.096276
 20
297.634125
 30
0.0
 10
158.047106
 20
297.655662
 30
0.0
 10
157.995590
 20
297.655663
 30
0.0
  0
LWPOLYLINE
  5
156
100
AcDbEntity
  8
top_plate
 62
7
100
AcDbPolyline
 90
11
 70
0
 10
161.671500
 20
297.457332
 30
0.0
 10
161.675500
 20
297.401502
 30
0.0
 10
161.538500
 20
296.720323
 30
0.0
 10
161.163510
 20
296.164065
 30
0.0
 10
160.606500
 20
295.789023
 30
0.0
 10
159.925500
 20
295.651503
 30
0.0
 10
159.244500
 20
295.789023
 30
0.0
 10
158.688510
 20
296.164065
 30
0.0
 10
158.313500
 20
296.720323
 30
0.0
 10
158.175510
 20
297.401502
 30
0.0
 10
158.179510
 20
297.456307
 30
0.0
  0
SPLINE
  5
157
100
AcDbEntity
  8
top_plate
 62
7
100
AcDbSpline
 70
8
 71
3
 72
8
 73
4
 74
0
 40
0
 40
0
 40
0
 40
0
 40
1
 40
1
 40
1
 40
1
 10
92.579778
 20
297.656937
 30
0.0
 10
92.528149
 20
297.656938
 30
0.0
 10
92.478852
 20
297.635433
 30
0.0
 10
92.443732
 20
297.597590
 30
0.0
  0
SPLINE
  5
158
100
AcDbEntity
  8
top_plate
 62
7
100
AcDbSpline
 70
8
 71
3
 72
8
 73
4
 74
0
 40
0
 40
0
 40
0
 40
0
 40
1
 40
1
 40
1
 40
1
 10
92.443732
 20
297.597590
 30
0.0
 10
92.408611
 20
297.559746
 30
0.0
 10
92.390841
 20
297.508983
 30
0.0
 10
92.394691
 20
297.457498
 30
0.0
  0
LWPOLYLINE
  5
159
100
AcDbEntity
  8
top_plate
 62
7
100
AcDbPolyline
 90
2
 70
0
 10
157.995590
 20
297.655663
 30
0.0
 10
92.579778
 20
297.656937
 30
0.0
  0
LWPOLYLINE
  5
15a
100
AcDbEntity
  8
top_plate
 62
7
100
AcDbPolyline
 90
1
 70
1
 10
92.394691
 20
297.457498
 30
0.0
  0
LWPOLYLINE
  5
15b
100
AcDbEntity
  8
top_plate
 62
7
100
AcDbPolyline
 90
4
 70
1
 10
334.402000
 20
278.625903
 30
0.0
 10
334.402000
 20
240.116904
 30
0.0
 10
295.903980
 20
240.116904
 30
0.0
 10
295.903980
 20
278.625903
 30
0.0
  0
LWPOLYLINE
  5
15c
100
AcDbEntity
  8
top_plate
 62
7
100
AcDbPolyline
 90
4
 70
1
 10
317.088010
 20
218.324003
 30
0.0
 10
331.087980
 20
218.324003
 30
0.0
 10
331.087980
 20
232.324004
 30
0.0
 10
317.088010
 20
232.324004
 30
0.0
  0
LWPOLYLINE
  5
15d
100
AcDbEntity
  8
top_plate
 62
7
100
AcDbPolyline
 90
16
 70
1
 10
167.802000
 20
194.781000
 30
0.0
 10
167.577000
 20
194.447000
 30
0.0
 10
167.244000
 20
194.222000
 30
0.0
 10
166.835000
 20
194.140000
 30
0.0
 10
166.426000
 20
194.222000
 30
0.0
 10
166.092000
 20
194.447000
 30
0.0
 10
165.867000
 20
194.781000
 30
0.0
 10
165.785000
 20
195.190000
 30
0.0
 10
165.867000
 20
195.599000
 30
0.0
 10
166.092000
 20
195.932000
 30
0.0
 10
166.426000
 20
196.157000
 30
0.0
 10
166.835000
 20
196.240000
 30
0.0
 10
167.244000
 20
196.157000
 30
0.0
 10
167.577000
 20
195.932000
 30
0.0
 10
167.802000
 20
195.599000
 30
0.0
 10
167.885000
 20
195.190000
 30
0.0
  0
LWPOLYLINE
  5
15e
100
AcDbEntity
  8
top_plate
 62
7
100
AcDbPolyline
 90
16
 70
1
 10
167.802000
 20
293.156683
 30
0.0
 10
167.577000
 20
292.822923
 30
0.0
 10
167.244000
 20
292.597903
 30
0.0
 10
166.835000
 20
292.515393
 30
0.0
 10
166.426000
 20
292.597903
 30
0.0
 10
166.092000
 20
292.822923
 30
0.0
 10
165.867000
 20
293.156683
 30
0.0
 10
165.785000
 20
293.565393
 30
0.0
 10
165.867000
 20
293.974093
 30
0.0
 10
166.092000
 20
294.307853
 30
0.0
 10
166.426000
 20
294.532873
 30
0.0
 10
166.835000
 20
294.615393
 30
0.0
 10
167.244000
 20
294.532873
 30
0.0
 10
167.577000
 20
294.307853
 30
0.0
 10
167.802000
 20
293.974093
 30
0.0
 10
167.885000
 20
293.565393
 30
0.0
  0
LWPOLYLINE
  5
15f
100
AcDbEntity
  8
top_plate
 62
7
100
AcDbPolyline
 90
16
 70
1
 10
286.617980
 20
234.414205
 30
0.0
 10
286.393010
 20
234.080404
 30
0.0
 10
286.059000
 20
233.855405
 30
0.0
 10
285.650980
 20
233.772905
 30
0.0
 10
285.241990
 20
233.855405
 30
0.0
 10
284.908010
 20
234.080404
 30
0.0
 10
284.683000
 20
234.414205
 30
0.0
 10
284.601000
 20
234.822904
 30
0.0
 10
284.683000
 20
235.231603
 30
0.0
 10
284.908010
 20
235.565404
 30
0.0
 10
285.241990
 20
235.790403
 30
0.0
 10
285.650980
 20
235.872903
 30
0.0
 10
286.059000
 20
235.790403
 30
0.0
 10
286.393010
 20
235.565404
 30
0.0
 10
286.617980
 20
235.231603
 30
0.0
 10
286.700980
 20
234.822904
 30
0.0
  0
LWPOLYLINE
  5
160
100
AcDbEntity
  8
top_plate
 62
7
100
AcDbPolyline
 90
16
 70
1
 10
210.748000
 20
253.431103
 30
0.0
 10
210.523000
 20
253.097402
 30
0.0
 10
210.189000
 20
252.872403
 30
0.0
 10
209.780000
 20
252.789903
 30
0.0
 10
209.372000
 20
252.872403
 30
0.0
 10
209.038000
 20
253.097402
 30
0.0
 10
208.813000
 20
253.431103
 30
0.0
 10
208.730000
 20
253.839903
 30
0.0
 10
208.813000
 20
254.248605
 30
0.0
 10
209.038000
 20
254.582302
 30
0.0
 10
209.372000
 20
254.807304
 30
0.0
 10
209.780000
 20
254.889904
 30
0.0
 10
210.189000
 20
254.807304
 30
0.0
 10
210.523000
 20
254.582302
 30
0.0
 10
210.748000
 20
254.248605
 30
0.0
 10
210.830000
 20
253.839903
 30
0.0
  0
LWPOLYLINE
  5
161
100
AcDbEntity
  8
top_plate
 62
7
100
AcDbPolyline
 90
16
 70
1
 10
134.549000
 20
234.414205
 30
0.0
 10
134.324000
 20
234.080404
 30
0.0
 10
133.990000
 20
233.855405
 30
0.0
 10
133.581000
 20
233.772905
 30
0.0
 10
133.173000
 20
233.855405
 30
0.0
 10
132.839000
 20
234.080404
 30
0.0
 10
132.614000
 20
234.414205
 30
0.0
 10
132.531000
 20
234.822904
 30
0.0
 10
132.614000
 20
235.231603
 30
0.0
 10
132.839000
 20
235.565304
 30
0.0
 10
133.173000
 20
235.790403
 30
0.0
 10
133.581000
 20
235.872903
 30
0.0
 10
133.990000
 20
235.790403
 30
0.0
 10
134.324000
 20
235.565304
 30
0.0
 10
134.549000
 20
235.231603
 30
0.0
 10
134.631000
 20
234.822904
 30
0.0
  0
LWPOLYLINE
  5
162
100
AcDbEntity
  8
top_plate
 62
7
100
AcDbPolyline
 90
16
 70
1
 10
53.594099
 20
253.549504
 30
0.0
 10
53.369100
 20
253.215803
 30
0.0
 10
53.035400
 20
252.990804
 30
0.0
 10
52.626700
 20
252.908304
 30
0.0
 10
52.217998
 20
252.990804
 30
0.0
 10
51.884200
 20
253.215803
 30
0.0
 10
51.659198
 20
253.549504
 30
0.0
 10
51.576698
 20
253.958304
 30
0.0
 10
51.659198
 20
254.367003
 30
0.0
 10
51.884200
 20
254.700703
 30
0.0
 10
52.217998
 20
254.925702
 30
0.0
 10
52.626700
 20
255.008302
 30
0.0
 10
53.035400
 20
254.925702
 30
0.0
 10
53.369100
 20
254.700703
 30
0.0
 10
53.594099
 20
254.367003
 30
0.0
 10
53.676699
 20
253.958304
 30
0.0
  0
LWPOLYLINE
  5
163
100
AcDbEntity
  8
top_plate
 62
7
100
AcDbPolyline
 90
16
 70
1
 10
253.601000
 20
194.781000
 30
0.0
 10
253.376000
 20
194.447000
 30
0.0
 10
253.042990
 20
194.222000
 30
0.0
 10
252.634000
 20
194.140000
 30
0.0
 10
252.225000
 20
194.222000
 30
0.0
 10
251.891000
 20
194.447000
 30
0.0
 10
251.665990
 20
194.781000
 30
0.0
 10
251.583990
 20
195.190000
 30
0.0
 10
251.665990
 20
195.599000
 30
0.0
 10
251.891000
 20
195.932000
 30
0.0
 10
252.225000
 20
196.157000
 30
0.0
 10
252.634000
 20
196.240000
 30
0.0
 10
253.042990
 20
196.157000
 30
0.0
 10
253.376000
 20
195.932000
 30
0.0
 10
253.601000
 20
195.599000
 30
0.0
 10
253.684000
 20
195.190000
 30
0.0
  0
LWPOLYLINE
  5
164
100
AcDbEntity
  8
top_plate
 62
7
100
AcDbPolyline
 90
16
 70
1
 10
253.601000
 20
293.156683
 30
0.0
 10
253.376000
 20
292.822933
 30
0.0
 10
253.042990
 20
292.597903
 30
0.0
 10
252.634000
 20
292.515393
 30
0.0
 10
252.225000
 20
292.597903
 30
0.0
 10
251.891000
 20
292.822933
 30
0.0
 10
251.665990
 20
293.156683
 30
0.0
 10
251.583990
 20
293.565393
 30
0.0
 10
251.665990
 20
293.974103
 30
0.0
 10
251.891000
 20
294.307853
 30
0.0
 10
252.225000
 20
294.532873
 30
0.0
 10
252.634000
 20
294.615393
 30
0.0
 10
253.042990
 20
294.532873
 30
0.0
 10
253.376000
 20
294.307853
 30
0.0
 10
253.601000
 20
293.974103
 30
0.0
 10
253.684000
 20
293.565393
 30
0.0
  0
LWPOLYLINE
  5
165
100
AcDbEntity
  8
top_plate
 62
7
100
AcDbPolyline
 90
16
 70
1
 10
82.239899
 20
194.781000
 30
0.0
 10
82.014900
 20
194.447000
 30
0.0
 10
81.681099
 20
194.222000
 30
0.0
 10
81.272400
 20
194.140000
 30
0.0
 10
80.870598
 20
194.220000
 30
0.0
 10
80.529899
 20
194.447000
 30
0.0
 10
80.302300
 20
194.788000
 30
0.0
 10
80.222400
 20
195.190000
 30
0.0
 10
80.302300
 20
195.592000
 30
0.0
 10
80.529899
 20
195.932000
 30
0.0
 10
80.870598
 20
196.160000
 30
0.0
 10
81.272400
 20
196.240000
 30
0.0
 10
81.681099
 20
196.157000
 30
0.0
 10
82.014900
 20
195.932000
 30
0.0
 10
82.239899
 20
195.599000
 30
0.0
 10
82.322399
 20
195.190000
 30
0.0
  0
LWPOLYLINE
  5
166
100
AcDbEntity
  8
top_plate
 62
7
100
AcDbPolyline
 90
16
 70
1
 10
82.239899
 20
293.156683
 30
0.0
 10
82.014900
 20
292.822933
 30
0.0
 10
81.681099
 20
292.597903
 30
0.0
 10
81.272400
 20
292.515393
 30
0.0
 10
80.870598
 20
292.595313
 30
0.0
 10
80.529899
 20
292.822933
 30
0.0
 10
80.302300
 20
293.163573
 30
0.0
 10
80.222400
 20
293.565393
 30
0.0
 10
80.302300
 20
293.967213
 30
0.0
 10
80.529899
 20
294.307853
 30
0.0
 10
80.870598
 20
294.535463
 30
0.0
 10
81.272400
 20
294.615393
 30
0.0
 10
81.681099
 20
294.532873
 30
0.0
 10
82.014900
 20
294.307853
 30
0.0
 10
82.239899
 20
293.974103
 30
0.0
 10
82.322399
 20
293.565393
 30
0.0
  0
LWPOLYLINE
  5
167
100
AcDbEntity
  8
top_plate
 62
7
100
AcDbPolyline
 90
16
 70
1
 10
336.152980
 20
194.781000
 30
0.0
 10
335.927000
 20
194.447000
 30
0.0
 10
335.594000
 20
194.222000
 30
0.0
 10
335.185000
 20
194.140000
 30
0.0
 10
334.775990
 20
194.222000
 30
0.0
 10
334.443010
 20
194.447000
 30
0.0
 10
334.218010
 20
194.781000
 30
0.0
 10
334.135010
 20
195.190000
 30
0.0
 10
334.218010
 20
195.599000
 30
0.0
 10
334.443010
 20
195.932000
 30
0.0
 10
334.775990
 20
196.157000
 30
0.0
 10
335.185000
 20
196.240000
 30
0.0
 10
335.594000
 20
196.157000
 30
0.0
 10
335.927000
 20
195.932000
 30
0.0
 10
336.152980
 20
195.599000
 30
0.0
 10
336.234980
 20
195.190000
 30
0.0
  0
LWPOLYLINE
  5
168
100
AcDbEntity
  8
top_plate
 62
7
100
AcDbPolyline
 90
16
 70
1
 10
336.152980
 20
293.156683
 30
0.0
 10
335.927000
 20
292.822933
 30
0.0
 10
335.594000
 20
292.597903
 30
0.0
 10
335.185000
 20
292.515393
 30
0.0
 10
334.775990
 20
292.597903
 30
0.0
 10
334.443010
 20
292.822933
 30
0.0
 10
334.218010
 20
293.156683
 30
0.0
 10
334.135010
 20
293.565393
 30
0.0
 10
334.218010
 20
293.974103
 30
0.0
 10
334.443010
 20
294.307853
 30
0.0
 10
334.775990
 20
294.532873
 30
0.0
 10
335.185000
 20
294.615393
 30
0.0
 10
335.594000
 20
294.532873
 30
0.0
 10
335.927000
 20
294.307853
 30
0.0
 10
336.152980
 20
293.974103
 30
0.0
 10
336.234980
 20
293.565393
 30
0.0
  0
LWPOLYLINE
  5
169
100
AcDbEntity
  8
top_plate
 62
7
100
AcDbPolyline
 90
16
 70
1
 10
4.397510
 20
194.781000
 30
0.0
 10
4.172490
 20
194.447000
 30
0.0
 10
3.838730
 20
194.222000
 30
0.0
 10
3.430020
 20
194.140000
 30
0.0
 10
3.021320
 20
194.222000
 30
0.0
 10
2.687560
 20
194.447000
 30
0.0
 10
2.462540
 20
194.781000
 30
0.0
 10
2.380020
 20
195.190000
 30
0.0
 10
2.462540
 20
195.599000
 30
0.0
 10
2.687560
 20
195.932000
 30
0.0
 10
3.021320
 20
196.157000
 30
0.0
 10
3.430020
 20
196.240000
 30
0.0
 10
3.838730
 20
196.157000
 30
0.0
 10
4.172490
 20
195.932000
 30
0.0
 10
4.397510
 20
195.599000
 30
0.0
 10
4.480020
 20
195.190000
 30
0.0
  0
LWPOLYLINE
  5
16a
100
AcDbEntity
  8
top_plate
 62
7
100
AcDbPolyline
 90
16
 70
1
 10
4.397510
 20
293.156693
 30
0.0
 10
4.172490
 20
292.822933
 30
0.0
 10
3.838730
 20
292.597913
 30
0.0
 10
3.430020
 20
292.515393
 30
0.0
 10
3.028210
 20
292.595323
 30
0.0
 10
2.687560
 20
292.822933
 30
0.0
 10
2.459950
 20
293.163583
 30
0.0
 10
2.380020
 20
293.565393
 30
0.0
 10
2.462540
 20
293.974103
 30
0.0
 10
2.687560
 20
294.307863
 30
0.0
 10
3.021320
 20
294.532883
 30
0.0
 10
3.430020
 20
294.615393
 30
0.0
 10
3.838730
 20
294.532883
 30
0.0
 10
4.172490
 20
294.307863
 30
0.0
 10
4.397510
 20
293.974103
 30
0.0
 10
4.480020
 20
293.565393
 30
0.0
  0
LWPOLYLINE
  5
16b
100
AcDbEntity
  8
top_plate
 62
7
100
AcDbPolyline
 90
12
 70
1
 10
288.225990
 20
289.474003
 30
0.0
 10
288.225990
 20
275.474003
 30
0.0
 10
285.258000
 20
275.474003
 30
0.0
 10
285.251000
 20
274.724003
 30
0.0
 10
281.951010
 20
274.724003
 30
0.0
 10
281.951010
 20
275.473703
 30
0.0
 10
261.455010
 20
275.473703
 30
0.0
 10
261.451010
 20
274.724003
 30
0.0
 10
258.150010
 20
274.724003
 30
0.0
 10
258.150010
 20
275.469503
 30
0.0
 10
255.176010
 20
275.474003
 30
0.0
 10
255.176010
 20
289.474003
 30
0.0
  0
LWPOLYLINE
  5
16c
100
AcDbEntity
  8
top_plate
 62
7
100
AcDbPolyline
 90
22
 70
1
 10
284.374000
 20
269.174004
 30
0.0
 10
283.462980
 20
269.162394
 30
0.0
 10
283.462980
 20
270.423991
 30
0.0
 10
269.463010
 20
270.423991
 30
0.0
 10
269.463010
 20
256.424003
 30
0.0
 10
271.851980
 20
256.424003
 30
0.0
 10
271.851980
 20
251.375904
 30
0.0
 10
250.413000
 20
251.374004
 30
0.0
 10
250.413000
 20
237.373955
 30
0.0
 10
255.761000
 20
237.373955
 30
0.0
 10
255.769000
 20
236.623957
 30
0.0
 10
259.068000
 20
236.623957
 30
0.0
 10
259.068000
 20
237.373556
 30
0.0
 10
279.564020
 20
237.373820
 30
0.0
 10
279.569020
 20
236.623922
 30
0.0
 10
282.869010
 20
236.623922
 30
0.0
 10
282.873010
 20
237.373820
 30
0.0
 10
285.851030
 20
237.373820
 30
0.0
 10
285.844030
 20
260.898822
 30
0.0
 10
283.466030
 20
260.903422
 30
0.0
 10
283.466030
 20
262.423824
 30
0.0
 10
284.374030
 20
262.423925
 30
0.0
  0
LWPOLYLINE
  5
16d
100
AcDbEntity
  8
top_plate
 62
7
100
AcDbPolyline
 90
13
 70
1
 10
288.225990
 20
218.324003
 30
0.0
 10
288.225990
 20
232.324004
 30
0.0
 10
271.557000
 20
232.324004
 30
0.0
 10
248.032000
 20
232.324004
 30
0.0
 10
248.032000
 20
218.324003
 30
0.0
 10
251.008990
 20
218.324003
 30
0.0
 10
251.006990
 20
217.574005
 30
0.0
 10
254.306990
 20
217.574005
 30
0.0
 10
254.308990
 20
218.324003
 30
0.0
 10
274.807010
 20
218.324003
 30
0.0
 10
274.807010
 20
217.574005
 30
0.0
 10
278.107000
 20
217.574005
 30
0.0
 10
278.110000
 20
218.324003
 30
0.0
  0
LWPOLYLINE
  5
16e
100
AcDbEntity
  8
top_plate
 62
7
100
AcDbPolyline
 90
40
 70
1
 10
177.832000
 20
199.505003
 30
0.0
 10
179.557000
 20
199.505003
 30
0.0
 10
179.557000
 20
198.524005
 30
0.0
 10
182.857000
 20
198.524005
 30
0.0
 10
182.858000
 20
199.505003
 30
0.0
 10
184.313000
 20
199.505003
 30
0.0
 10
184.319000
 20
198.524005
 30
0.0
 10
187.619000
 20
198.524005
 30
0.0
 10
187.619000
 20
199.505003
 30
0.0
 10
189.344000
 20
199.505003
 30
0.0
 10
189.344000
 20
205.774003
 30
0.0
 10
190.169000
 20
205.774003
 30
0.0
 10
190.169000
 20
208.574004
 30
0.0
 10
189.344000
 20
208.574004
 30
0.0
 10
189.344000
 20
211.804003
 30
0.0
 10
177.832000
 20
211.804003
 30
0.0
 10
177.832000
 20
208.574004
 30
0.0
 10
176.307000
 20
208.574004
 30
0.0
 10
176.307000
 20
213.274004
 30
0.0
 10
162.307000
 20
213.274004
 30
0.0
 10
162.307000
 20
208.574004
 30
0.0
 10
160.782000
 20
208.574004
 30
0.0
 10
160.782000
 20
211.804003
 30
0.0
 10
154.032000
 20
211.804003
 30
0.0
 10
154.032000
 20
208.574004
 30
0.0
 10
153.207000
 20
208.574004
 30
0.0
 10
153.207000
 20
205.774003
 30
0.0
 10
154.032000
 20
205.774003
 30
0.0
 10
154.032000
 20
199.505003
 30
0.0
 10
155.757000
 20
199.505003
 30
0.0
 10
155.757000
 20
198.524005
 30
0.0
 10
159.057000
 20
198.524005
 30
0.0
 10
159.057000
 20
199.505003
 30
0.0
 10
160.782000
 20
199.505003
 30
0.0
 10
160.782000
 20
203.975004
 30
0.0
 10
162.307000
 20
203.975004
 30
0.0
 10
162.307000
 20
199.274003
 30
0.0
 10
176.307000
 20
199.274003
 30
0.0
 10
176.307000
 20
203.975004
 30
0.0
 10
177.832000
 20
203.975004
 30
0.0
  0
LWPOLYLINE
  5
16f
100
AcDbEntity
  8
top_plate
 62
7
100
AcDbPolyline
 90
4
 70
1
 10
142.969000
 20
213.274004
 30
0.0
 10
142.969000
 20
199.274003
 30
0.0
 10
124.207000
 20
199.274003
 30
0.0
 10
124.207000
 20
213.274004
 30
0.0
  0
LWPOLYLINE
  5
170
100
AcDbEntity
  8
top_plate
 62
7
100
AcDbPolyline
 90
12
 70
1
 10
45.337998
 20
218.324003
 30
0.0
 10
45.337998
 20
232.324004
 30
0.0
 10
9.907000
 20
232.324004
 30
0.0
 10
9.907000
 20
218.324003
 30
0.0
 10
12.881000
 20
218.324003
 30
0.0
 10
12.882000
 20
217.574005
 30
0.0
 10
16.182000
 20
217.574005
 30
0.0
 10
16.188600
 20
218.324003
 30
0.0
 10
36.682498
 20
218.324003
 30
0.0
 10
36.681969
 20
217.574005
 30
0.0
 10
39.981968
 20
217.574005
 30
0.0
 10
39.982233
 20
218.324003
 30
0.0
  0
LWPOLYLINE
  5
171
100
AcDbEntity
  8
top_plate
 62
7
100
AcDbPolyline
 90
4
 70
1
 10
28.669000
 20
251.374004
 30
0.0
 10
28.669000
 20
237.374003
 30
0.0
 10
9.907000
 20
237.374003
 30
0.0
 10
9.907000
 20
251.374004
 30
0.0
  0
LWPOLYLINE
  5
172
100
AcDbEntity
  8
top_plate
 62
7
100
AcDbPolyline
 90
4
 70
1
 10
21.526000
 20
275.474003
 30
0.0
 10
21.526000
 20
289.474003
 30
0.0
 10
7.526000
 20
289.474003
 30
0.0
 10
7.526000
 20
275.474003
 30
0.0
  0
LWPOLYLINE
  5
173
100
AcDbEntity
  8
top_plate
 62
7
100
AcDbPolyline
 90
4
 70
1
 10
40.575998
 20
275.474003
 30
0.0
 10
40.575998
 20
289.474003
 30
0.0
 10
26.576000
 20
289.474003
 30
0.0
 10
26.576000
 20
275.474003
 30
0.0
  0
LWPOLYLINE
  5
174
100
AcDbEntity
  8
top_plate
 62
7
100
AcDbPolyline
 90
4
 70
1
 10
59.625998
 20
275.474003
 30
0.0
 10
59.625998
 20
289.474003
 30
0.0
 10
45.626000
 20
289.474003
 30
0.0
 10
45.626000
 20
275.474003
 30
0.0
  0
LWPOLYLINE
  5
175
100
AcDbEntity
  8
top_plate
 62
7
100
AcDbPolyline
 90
4
 70
1
 10
78.675998
 20
275.474003
 30
0.0
 10
78.675998
 20
289.474003
 30
0.0
 10
64.676000
 20
289.474003
 30
0.0
 10
64.676000
 20
275.474003
 30
0.0
  0
LWPOLYLINE
  5
176
100
AcDbEntity
  8
top_plate
 62
7
100
AcDbPolyline
 90
4
 70
1
 10
97.725999
 20
275.474003
 30
0.0
 10
97.725999
 20
289.474003
 30
0.0
 10
83.726000
 20
289.474003
 30
0.0
 10
83.726000
 20
275.474003
 30
0.0
  0
LWPOLYLINE
  5
177
100
AcDbEntity
  8
top_plate
 62
7
100
AcDbPolyline
 90
4
 70
1
 10
116.775000
 20
275.474003
 30
0.0
 10
116.775000
 20
289.474003
 30
0.0
 10
102.775000
 20
289.474003
 30
0.0
 10
102.775000
 20
275.474003
 30
0.0
  0
LWPOLYLINE
  5
178
100
AcDbEntity
  8
top_plate
 62
7
100
AcDbPolyline
 90
4
 70
1
 10
135.826000
 20
275.474003
 30
0.0
 10
135.826000
 20
289.474003
 30
0.0
 10
121.825000
 20
289.474003
 30
0.0
 10
121.825000
 20
275.474003
 30
0.0
  0
LWPOLYLINE
  5
179
100
AcDbEntity
  8
top_plate
 62
7
100
AcDbPolyline
 90
4
 70
1
 10
154.876000
 20
275.474003
 30
0.0
 10
154.876000
 20
289.474003
 30
0.0
 10
140.876000
 20
289.474003
 30
0.0
 10
140.876000
 20
275.474003
 30
0.0
  0
LWPOLYLINE
  5
17a
100
AcDbEntity
  8
top_plate
 62
7
100
AcDbPolyline
 90
4
 70
1
 10
173.926000
 20
275.474003
 30
0.0
 10
173.926000
 20
289.474003
 30
0.0
 10
159.926000
 20
289.474003
 30
0.0
 10
159.926000
 20
275.474003
 30
0.0
  0
LWPOLYLINE
  5
17b
100
AcDbEntity
  8
top_plate
 62
7
100
AcDbPolyline
 90
4
 70
1
 10
192.976000
 20
275.474003
 30
0.0
 10
192.976000
 20
289.474003
 30
0.0
 10
178.976000
 20
289.474003
 30
0.0
 10
178.976000
 20
275.474003
 30
0.0
  0
LWPOLYLINE
  5
17c
100
AcDbEntity
  8
top_plate
 62
7
100
AcDbPolyline
 90
4
 70
1
 10
212.026000
 20
275.474003
 30
0.0
 10
212.026000
 20
289.474003
 30
0.0
 10
198.026000
 20
289.474003
 30
0.0
 10
198.026000
 20
275.474003
 30
0.0
  0
LWPOLYLINE
  5
17d
100
AcDbEntity
  8
top_plate
 62
7
100
AcDbPolyline
 90
4
 70
1
 10
231.076000
 20
275.474003
 30
0.0
 10
231.076000
 20
289.474003
 30
0.0
 10
217.076000
 20
289.474003
 30
0.0
 10
217.076000
 20
275.474003
 30
0.0
  0
LWPOLYLINE
  5
17e
100
AcDbEntity
  8
top_plate
 62
7
100
AcDbPolyline
 90
4
 70
1
 10
250.126000
 20
275.474003
 30
0.0
 10
250.126000
 20
289.474003
 30
0.0
 10
236.126000
 20
289.474003
 30
0.0
 10
236.126000
 20
275.474003
 30
0.0
  0
LWPOLYLINE
  5
17f
100
AcDbEntity
  8
top_plate
 62
7
100
AcDbPolyline
 90
4
 70
1
 10
26.288001
 20
256.424003
 30
0.0
 10
26.288001
 20
270.424005
 30
0.0
 10
12.288000
 20
270.424005
 30
0.0
 10
12.288000
 20
256.424003
 30
0.0
  0
LWPOLYLINE
  5
180
100
AcDbEntity
  8
top_plate
 62
7
100
AcDbPolyline
 90
4
 70
1
 10
50.100998
 20
256.424003
 30
0.0
 10
50.100998
 20
270.424005
 30
0.0
 10
36.101000
 20
270.424005
 30
0.0
 10
36.101000
 20
256.424003
 30
0.0
  0
LWPOLYLINE
  5
181
100
AcDbEntity
  8
top_plate
 62
7
100
AcDbPolyline
 90
4
 70
1
 10
69.150998
 20
256.424003
 30
0.0
 10
69.150998
 20
270.424005
 30
0.0
 10
55.151000
 20
270.424005
 30
0.0
 10
55.151000
 20
256.424003
 30
0.0
  0
LWPOLYLINE
  5
182
100
AcDbEntity
  8
top_plate
 62
7
100
AcDbPolyline
 90
4
 70
1
 10
88.200998
 20
256.424003
 30
0.0
 10
88.200998
 20
270.424005
 30
0.0
 10
74.201000
 20
270.424005
 30
0.0
 10
74.201000
 20
256.424003
 30
0.0
  0
LWPOLYLINE
  5
183
100
AcDbEntity
  8
top_plate
 62
7
100
AcDbPolyline
 90
4
 70
1
 10
107.251000
 20
256.424003
 30
0.0
 10
107.251000
 20
270.424005
 30
0.0
 10
93.251000
 20
270.424005
 30
0.0
 10
93.251000
 20
256.424003
 30
0.0
  0
LWPOLYLINE
  5
184
100
AcDbEntity
  8
top_plate
 62
7
100
AcDbPolyline
 90
4
 70
1
 10
126.301000
 20
256.424003
 30
0.0
 10
126.301000
 20
270.424005
 30
0.0
 10
112.301000
 20
270.424005
 30
0.0
 10
112.301000
 20
256.424003
 30
0.0
  0
LWPOLYLINE
  5
185
100
AcDbEntity
  8
top_plate
 62
7
100
AcDbPolyline
 90
4
 70
1
 10
145.351000
 20
256.424003
 30
0.0
 10
145.351000
 20
270.424005
 30
0.0
 10
131.351000
 20
270.424005
 30
0.0
 10
131.351000
 20
256.424003
 30
0.0
  0
LWPOLYLINE
  5
186
100
AcDbEntity
  8
top_plate
 62
7
100
AcDbPolyline
 90
4
 70
1
 10
164.401000
 20
256.424003
 30
0.0
 10
164.401000
 20
270.424005
 30
0.0
 10
150.401000
 20
270.424005
 30
0.0
 10
150.401000
 20
256.424003
 30
0.0
  0
LWPOLYLINE
  5
187
100
AcDbEntity
  8
top_plate
 62
7
100
AcDbPolyline
 90
4
 70
1
 10
183.451000
 20
256.424003
 30
0.0
 10
183.451000
 20
270.424005
 30
0.0
 10
169.451000
 20
270.424005
 30
0.0
 10
169.451000
 20
256.424003
 30
0.0
  0
LWPOLYLINE
  5
188
100
AcDbEntity
  8
top_plate
 62
7
100
AcDbPolyline
 90
4
 70
1
 10
202.501000
 20
256.424003
 30
0.0
 10
202.501000
 20
270.424005
 30
0.0
 10
188.501000
 20
270.424005
 30
0.0
 10
188.501000
 20
256.424003
 30
0.0
  0
LWPOLYLINE
  5
189
100
AcDbEntity
  8
top_plate
 62
7
100
AcDbPolyline
 90
4
 70
1
 10
221.551000
 20
256.424003
 30
0.0
 10
221.551000
 20
270.424005
 30
0.0
 10
207.551000
 20
270.424005
 30
0.0
 10
207.551000
 20
256.424003
 30
0.0
  0
LWPOLYLINE
  5
18a
100
AcDbEntity
  8
top_plate
 62
7
100
AcDbPolyline
 90
4
 70
1
 10
240.601000
 20
256.424003
 30
0.0
 10
240.601000
 20
270.424005
 30
0.0
 10
226.601000
 20
270.424005
 30
0.0
 10
226.601000
 20
256.424003
 30
0.0
  0
LWPOLYLINE
  5
18b
100
AcDbEntity
  8
top_plate
 62
7
100
AcDbPolyline
 90
4
 70
1
 10
259.650000
 20
256.424003
 30
0.0
 10
259.650000
 20
270.424005
 30
0.0
 10
245.651000
 20
270.424005
 30
0.0
 10
245.651000
 20
256.424003
 30
0.0
  0
LWPOLYLINE
  5
18c
100
AcDbEntity
  8
top_plate
 62
7
100
AcDbPolyline
 90
4
 70
1
 10
54.862998
 20
237.374003
 30
0.0
 10
54.862998
 20
251.374004
 30
0.0
 10
40.863000
 20
251.374004
 30
0.0
 10
40.863000
 20
237.374003
 30
0.0
  0
LWPOLYLINE
  5
18d
100
AcDbEntity
  8
top_plate
 62
7
100
AcDbPolyline
 90
4
 70
1
 10
73.912998
 20
237.374003
 30
0.0
 10
73.912998
 20
251.374004
 30
0.0
 10
59.913000
 20
251.374004
 30
0.0
 10
59.913000
 20
237.374003
 30
0.0
  0
LWPOLYLINE
  5
18e
100
AcDbEntity
  8
top_plate
 62
7
100
AcDbPolyline
 90
4
 70
1
 10
92.962998
 20
237.374003
 30
0.0
 10
92.962998
 20
251.374004
 30
0.0
 10
78.963000
 20
251.374004
 30
0.0
 10
78.963000
 20
237.374003
 30
0.0
  0
LWPOLYLINE
  5
18f
100
AcDbEntity
  8
top_plate
 62
7
100
AcDbPolyline
 90
4
 70
1
 10
112.013000
 20
237.374003
 30
0.0
 10
112.013000
 20
251.374004
 30
0.0
 10
98.013000
 20
251.374004
 30
0.0
 10
98.013000
 20
237.374003
 30
0.0
  0
LWPOLYLINE
  5
190
100
AcDbEntity
  8
top_plate
 62
7
100
AcDbPolyline
 90
4
 70
1
 10
131.063000
 20
237.374003
 30
0.0
 10
131.063000
 20
251.374004
 30
0.0
 10
117.063000
 20
251.374004
 30
0.0
 10
117.063000
 20
237.374003
 30
0.0
  0
LWPOLYLINE
  5
191
100
AcDbEntity
  8
top_plate
 62
7
100
AcDbPolyline
 90
4
 70
1
 10
150.113000
 20
237.374003
 30
0.0
 10
150.113000
 20
251.374004
 30
0.0
 10
136.113000
 20
251.374004
 30
0.0
 10
136.113000
 20
237.374003
 30
0.0
  0
LWPOLYLINE
  5
192
100
AcDbEntity
  8
top_plate
 62
7
100
AcDbPolyline
 90
4
 70
1
 10
169.163000
 20
237.374003
 30
0.0
 10
169.163000
 20
251.374004
 30
0.0
 10
155.163000
 20
251.374004
 30
0.0
 10
155.163000
 20
237.374003
 30
0.0
  0
LWPOLYLINE
  5
193
100
AcDbEntity
  8
top_plate
 62
7
100
AcDbPolyline
 90
4
 70
1
 10
188.213000
 20
237.374003
 30
0.0
 10
188.213000
 20
251.374004
 30
0.0
 10
174.213000
 20
251.374004
 30
0.0
 10
174.213000
 20
237.374003
 30
0.0
  0
LWPOLYLINE
  5
194
100
AcDbEntity
  8
top_plate
 62
7
100
AcDbPolyline
 90
4
 70
1
 10
207.263000
 20
237.374003
 30
0.0
 10
207.263000
 20
251.374004
 30
0.0
 10
193.263000
 20
251.374004
 30
0.0
 10
193.263000
 20
237.374003
 30
0.0
  0
LWPOLYLINE
  5
195
100
AcDbEntity
  8
top_plate
 62
7
100
AcDbPolyline
 90
4
 70
1
 10
226.313000
 20
237.374003
 30
0.0
 10
226.313000
 20
251.374004
 30
0.0
 10
212.313000
 20
251.374004
 30
0.0
 10
212.313000
 20
237.374003
 30
0.0
  0
LWPOLYLINE
  5
196
100
AcDbEntity
  8
top_plate
 62
7
100
AcDbPolyline
 90
4
 70
1
 10
245.363000
 20
237.374003
 30
0.0
 10
245.363000
 20
251.374004
 30
0.0
 10
231.363000
 20
251.374004
 30
0.0
 10
231.363000
 20
237.374003
 30
0.0
  0
LWPOLYLINE
  5
197
100
AcDbEntity
  8
top_plate
 62
7
100
AcDbPolyline
 90
4
 70
1
 10
64.387998
 20
218.324003
 30
0.0
 10
64.387998
 20
232.324004
 30
0.0
 10
50.388000
 20
232.324004
 30
0.0
 10
50.388000
 20
218.324003
 30
0.0
  0
LWPOLYLINE
  5
198
100
AcDbEntity
  8
top_plate
 62
7
100
AcDbPolyline
 90
4
 70
1
 10
83.437998
 20
218.324003
 30
0.0
 10
83.437998
 20
232.324004
 30
0.0
 10
69.438000
 20
232.324004
 30
0.0
 10
69.438000
 20
218.324003
 30
0.0
  0
LWPOLYLINE
  5
199
100
AcDbEntity
  8
top_plate
 62
7
100
AcDbPolyline
 90
4
 70
1
 10
102.488000
 20
218.324003
 30
0.0
 10
102.488000
 20
232.324004
 30
0.0
 10
88.488000
 20
232.324004
 30
0.0
 10
88.488000
 20
218.324003
 30
0.0
  0
LWPOLYLINE
  5
19a
100
AcDbEntity
  8
top_plate
 62
7
100
AcDbPolyline
 90
4
 70
1
 10
121.538000
 20
218.324003
 30
0.0
 10
121.538000
 20
232.324004
 30
0.0
 10
107.538000
 20
232.324004
 30
0.0
 10
107.538000
 20
218.324003
 30
0.0
  0
LWPOLYLINE
  5
19b
100
AcDbEntity
  8
top_plate
 62
7
100
AcDbPolyline
 90
4
 70
1
 10
140.588000
 20
218.324003
 30
0.0
 10
140.588000
 20
232.324004
 30
0.0
 10
126.588000
 20
232.324004
 30
0.0
 10
126.588000
 20
218.324003
 30
0.0
  0
LWPOLYLINE
  5
19c
100
AcDbEntity
  8
top_plate
 62
7
100
AcDbPolyline
 90
4
 70
1
 10
159.638000
 20
218.324003
 30
0.0
 10
159.638000
 20
232.324004
 30
0.0
 10
145.638000
 20
232.324004
 30
0.0
 10
145.638000
 20
218.324003
 30
0.0
  0
LWPOLYLINE
  5
19d
100
AcDbEntity
  8
top_plate
 62
7
100
AcDbPolyline
 90
4
 70
1
 10
178.688000
 20
218.324003
 30
0.0
 10
178.688000
 20
232.324004
 30
0.0
 10
164.688000
 20
232.324004
 30
0.0
 10
164.688000
 20
218.324003
 30
0.0
  0
LWPOLYLINE
  5
19e
100
AcDbEntity
  8
top_plate
 62
7
100
AcDbPolyline
 90
4
 70
1
 10
197.738000
 20
218.324003
 30
0.0
 10
197.738000
 20
232.324004
 30
0.0
 10
183.738000
 20
232.324004
 30
0.0
 10
183.738000
 20
218.324003
 30
0.0
  0
LWPOLYLINE
  5
19f
100
AcDbEntity
  8
top_plate
 62
7
100
AcDbPolyline
 90
4
 70
1
 10
216.788000
 20
218.324003
 30
0.0
 10
216.788000
 20
232.324004
 30
0.0
 10
202.788000
 20
232.324004
 30
0.0
 10
202.788000
 20
218.324003
 30
0.0
  0
LWPOLYLINE
  5
1a0
100
AcDbEntity
  8
top_plate
 62
7
100
AcDbPolyline
 90
4
 70
1
 10
235.838000
 20
218.324003
 30
0.0
 10
235.838000
 20
232.324004
 30
0.0
 10
221.838000
 20
232.324004
 30
0.0
 10
221.838000
 20
218.324003
 30
0.0
  0
LWPOLYLINE
  5
1a1
100
AcDbEntity
  8
top_plate
 62
7
100
AcDbPolyline
 90
4
 70
1
 10
312.037980
 20
218.324003
 30
0.0
 10
312.037980
 20
232.324004
 30
0.0
 10
298.038010
 20
232.324004
 30
0.0
 10
298.038010
 20
218.324003
 30
0.0
  0
LWPOLYLINE
  5
1a2
100
AcDbEntity
  8
top_plate
 62
7
100
AcDbPolyline
 90
4
 70
1
 10
23.907000
 20
199.274003
 30
0.0
 10
23.907000
 20
213.274004
 30
0.0
 10
9.907000
 20
213.274004
 30
0.0
 10
9.907000
 20
199.274003
 30
0.0
  0
LWPOLYLINE
  5
1a3
100
AcDbEntity
  8
top_plate
 62
7
100
AcDbPolyline
 90
4
 70
1
 10
47.719000
 20
199.274003
 30
0.0
 10
47.719000
 20
213.274004
 30
0.0
 10
33.718998
 20
213.274004
 30
0.0
 10
33.718998
 20
199.274003
 30
0.0
  0
LWPOLYLINE
  5
1a4
100
AcDbEntity
  8
top_plate
 62
7
100
AcDbPolyline
 90
4
 70
1
 10
71.532000
 20
199.274003
 30
0.0
 10
71.532000
 20
213.274004
 30
0.0
 10
57.531999
 20
213.274004
 30
0.0
 10
57.531999
 20
199.274003
 30
0.0
  0
LWPOLYLINE
  5
1a5
100
AcDbEntity
  8
top_plate
 62
7
100
AcDbPolyline
 90
4
 70
1
 10
214.407000
 20
199.274003
 30
0.0
 10
214.407000
 20
213.274004
 30
0.0
 10
200.407000
 20
213.274004
 30
0.0
 10
200.407000
 20
199.274003
 30
0.0
  0
LWPOLYLINE
  5
1a6
100
AcDbEntity
  8
top_plate
 62
7
100
AcDbPolyline
 90
4
 70
1
 10
238.219000
 20
199.274003
 30
0.0
 10
238.219000
 20
213.274004
 30
0.0
 10
224.219000
 20
213.274004
 30
0.0
 10
224.219000
 20
199.274003
 30
0.0
  0
LWPOLYLINE
  5
1a7
100
AcDbEntity
  8
top_plate
 62
7
100
AcDbPolyline
 90
4
 70
1
 10
262.032000
 20
199.274003
 30
0.0
 10
262.032000
 20
213.274004
 30
0.0
 10
248.032000
 20
213.274004
 30
0.0
 10
248.032000
 20
199.274003
 30
0.0
  0
LWPOLYLINE
  5
1a8
100
AcDbEntity
  8
top_plate
 62
7
100
AcDbPolyline
 90
4
 70
1
 10
292.987980
 20
199.274003
 30
0.0
 10
292.987980
 20
213.274004
 30
0.0
 10
278.988010
 20
213.274004
 30
0.0
 10
278.988010
 20
199.274003
 30
0.0
  0
LWPOLYLINE
  5
1a9
100
AcDbEntity
  8
top_plate
 62
7
100
AcDbPolyline
 90
4
 70
1
 10
312.037980
 20
199.274003
 30
0.0
 10
312.037980
 20
213.274004
 30
0.0
 10
298.038010
 20
213.274004
 30
0.0
 10
298.038010
 20
199.274003
 30
0.0
  0
LWPOLYLINE
  5
1aa
100
AcDbEntity
  8
top_plate
 62
7
100
AcDbPolyline
 90
4
 70
1
 10
331.087980
 20
199.274003
 30
0.0
 10
331.087980
 20
213.274004
 30
0.0
 10
317.088010
 20
213.274004
 30
0.0
 10
317.088010
 20
199.274003
 30
0.0
  0
LWPOLYLINE
  5
1ab
100
AcDbEntity
  8
top_plate
 62
7
100
AcDbPolyline
 90
36
 70
1
 10
89.343998
 20
199.505003
 30
0.0
 10
89.343998
 20
203.975004
 30
0.0
 10
90.868999
 20
203.975004
 30
0.0
 10
90.868999
 20
199.274003
 30
0.0
 10
104.869000
 20
199.274003
 30
0.0
 10
104.869000
 20
203.975004
 30
0.0
 10
106.394000
 20
203.975004
 30
0.0
 10
106.394000
 20
199.505003
 30
0.0
 10
108.119000
 20
199.505003
 30
0.0
 10
108.119000
 20
198.524005
 30
0.0
 10
111.419000
 20
198.524005
 30
0.0
 10
111.419000
 20
199.505003
 30
0.0
 10
113.144000
 20
199.505003
 30
0.0
 10
113.144000
 20
205.774003
 30
0.0
 10
113.969000
 20
205.774003
 30
0.0
 10
113.969000
 20
208.574004
 30
0.0
 10
113.144000
 20
208.574004
 30
0.0
 10
113.144000
 20
211.804003
 30
0.0
 10
106.394000
 20
211.804003
 30
0.0
 10
106.394000
 20
208.574004
 30
0.0
 10
104.869000
 20
208.574004
 30
0.0
 10
104.869000
 20
213.274004
 30
0.0
 10
90.868999
 20
213.274004
 30
0.0
 10
90.868999
 20
208.574004
 30
0.0
 10
89.343998
 20
208.574004
 30
0.0
 10
89.343998
 20
211.804003
 30
0.0
 10
82.593999
 20
211.804003
 30
0.0
 10
82.593999
 20
208.574004
 30
0.0
 10
81.768999
 20
208.574004
 30
0.0
 10
81.768999
 20
205.774003
 30
0.0
 10
82.593999
 20
205.774003
 30
0.0
 10
82.593999
 20
199.505003
 30
0.0
 10
84.319000
 20
199.505003
 30
0.0
 10
84.319000
 20
198.524005
 30
0.0
 10
87.619000
 20
198.524005
 30
0.0
 10
87.619000
 20
199.505003
 30
0.0
  0
ENDSEC
  0
SECTION
  2
OBJECTS
  0
DICTIONARY
  5
C
330
0
100
AcDbDictionary
  3
ACAD_GROUP
350
D
  3
ACAD_MLINESTYLE
350
17
  0
DICTIONARY
  5
D
330
C
100
AcDbDictionary
  0
DICTIONARY
  5
1A
330
C
100
AcDbDictionary
  0
DICTIONARY
  5
17
330
C
100
AcDbDictionary
  3
STANDARD
350
18
  0
DICTIONARY
  5
19
330
C
100
AcDbDictionary
  0
ENDSEC
  0
EOF
