  0
SECTION
  2
HEADER
  9
$ACADVER
  1
AC1014
  9
$HANDSEED
  5
FFFF
  9
$MEASUREMENT
 70
     1
  0
ENDSEC
  0
SECTION
  2
TABLES
  0
TABLE
  2
VPORT
  5
8
330
0
100
AcDbSymbolTable
 70
     4
  0
VPORT
  5
2E
330
8
100
AcDbSymbolTableRecord
100
AcDbViewportTableRecord
  2
*ACTIVE
 70
     0
 10
0.0
 20
0.0
 11
1.0
 21
1.0
 12
210.0
 22
148.5
 13
0.0
 23
0.0
 14
10.0
 24
10.0
 15
10.0
 25
10.0
 16
0.0
 26
0.0
 36
1.0
 17
0.0
 27
0.0
 37
0.0
 40
341.0
 41
1.24
 42
50.0
 43
0.0
 44
0.0
 50
0.0
 51
0.0
 71
     0
 72
   100
 73
     1
 74
     3
 75
     0
 76
     0
 77
     0
 78
     0
  0
ENDTAB
  0
TABLE
  2
LTYPE
  5
5
330
0
100
AcDbSymbolTable
 70
     1
  0
LTYPE
  5
14
330
5
100
AcDbSymbolTableRecord
100
AcDbLinetypeTableRecord
  2
BYBLOCK
 70
     0
  3

 72
    65
 73
     0
 40
0.0
  0
LTYPE
  5
15
330
5
100
AcDbSymbolTableRecord
100
AcDbLinetypeTableRecord
  2
BYLAYER
 70
     0
  3

 72
    65
 73
     0
 40
0.0
  0
LTYPE
  5
16
330
5
100
AcDbSymbolTableRecord
100
AcDbLinetypeTableRecord
  2
CONTINUOUS
 70
     0
  3
Solid line
 72
    65
 73
     0
 40
0.0
  0
ENDTAB
  0
TABLE
  2
LAYER
  5
2
100
AcDbSymbolTable
 70
2
  0
LAYER
  5
50
100
AcDbSymbolTableRecord
100
AcDbLayerTableRecord
  2
0
 70
0
  6
CONTINUOUS
  0
LAYER
  5
51
100
AcDbSymbolTableRecord
100
AcDbLayerTableRecord
  2
top_plate
 70
0
  6
CONTINUOUS
  0
ENDTAB
  0
TABLE
  2
STYLE
  5
3
330
0
100
AcDbSymbolTable
 70
     1
  0
STYLE
  5
11
330
3
100
AcDbSymbolTableRecord
100
AcDbTextStyleTableRecord
  2
STANDARD
 70
     0
 40
0.0
 41
1.0
 50
0.0
 71
     0
 42
2.5
  3
txt
  4

  0
ENDTAB
  0
TABLE
  2
VIEW
  5
6
330
0
100
AcDbSymbolTable
 70
     0
  0
ENDTAB
  0
TABLE
  2
UCS
  5
7
330
0
100
AcDbSymbolTable
 70
     0
  0
ENDTAB
  0
TABLE
  2
APPID
  5
9
330
0
100
AcDbSymbolTable
 70
     2
  0
APPID
  5
12
330
9
100
AcDbSymbolTableRecord
100
AcDbRegAppTableRecord
  2
ACAD
 70
     0
  0
ENDTAB
  0
TABLE
  2
DIMSTYLE
  5
A
330
0
100
AcDbSymbolTable
 70
     1
  0
DIMSTYLE
105
27
330
A
100
AcDbSymbolTableRecord
100
AcDbDimStyleTableRecord
  2
ISO-25
 70
     0
  3

  4

  5

  6

  7

 40
1.0
 41
2.5
 42
0.625
 43
3.75
 44
1.25
 45
0.0
 46
0.0
 47
0.0
 48
0.0
140
2.5
141
2.5
142
0.0
143
0.03937007874016
144
1.0
145
0.0
146
1.0
147
0.625
 71
     0
 72
     0
 73
     0
 74
     0
 75
     0
 76
     0
 77
     1
 78
     8
170
     0
171
     3
172
     1
173
     0
174
     0
175
     0
176
     0
177
     0
178
     0
270
     2
271
     2
272
     2
273
     2
274
     3
340
11
275
     0
280
     0
281
     0
282
     0
283
     0
284
     8
285
     0
286
     0
287
     3
288
     0
  0
ENDTAB
  0
TABLE
  2
BLOCK_RECORD
  5
1
330
0
100
AcDbSymbolTable
 70
     1
  0
BLOCK_RECORD
  5
1F
330
1
100
AcDbSymbolTableRecord
100
AcDbBlockTableRecord
  2
*MODEL_SPACE
  0
BLOCK_RECORD
  5
1B
330
1
100
AcDbSymbolTableRecord
100
AcDbBlockTableRecord
  2
*PAPER_SPACE
  0
ENDTAB
  0
ENDSEC
  0
SECTION
  2
BLOCKS
  0
BLOCK
  5
20
330
1F
100
AcDbEntity
  8
0
100
AcDbBlockBegin
  2
*MODEL_SPACE
 70
     0
 10
0.0
 20
0.0
 30
0.0
  3
*MODEL_SPACE
  1

  0
ENDBLK
  5
21
330
1F
100
AcDbEntity
  8
0
100
AcDbBlockEnd
  0
BLOCK
  5
1C
330
1B
100
AcDbEntity
 67
     1
  8
0
100
AcDbBlockBegin
  2
*PAPER_SPACE
  1

  0
ENDBLK
  5
1D
330
1B
100
AcDbEntity
 67
     1
  8
0
100
AcDbBlockEnd
  0
ENDSEC
  0
SECTION
  2
ENTITIES
  0
LWPOLYLINE
  5
100
100
AcDbEntity
  8
top_plate
 62
1
100
AcDbPolyline
 90
16
 70
1
 10
290.663000
 20
234.439700
 30
0.0
 10
290.127000
 20
233.645000
 30
0.0
 10
289.332000
 20
233.109300
 30
0.0
 10
288.359000
 20
232.912800
 30
0.0
 10
287.386000
 20
233.109300
 30
0.0
 10
286.591000
 20
233.645000
 30
0.0
 10
286.056000
 20
234.439700
 30
0.0
 10
285.859000
 20
235.412800
 30
0.0
 10
286.050000
 20
236.369500
 30
0.0
 10
286.591000
 20
237.180600
 30
0.0
 10
287.403000
 20
237.722500
 30
0.0
 10
288.359000
 20
237.912800
 30
0.0
 10
289.316000
 20
237.722500
 30
0.0
 10
290.127000
 20
237.180600
 30
0.0
 10
290.669000
 20
236.369500
 30
0.0
 10
290.859000
 20
235.412800
 30
0.0
  0
LWPOLYLINE
  5
101
100
AcDbEntity
  8
top_plate
 62
1
100
AcDbPolyline
 90
16
 70
1
 10
212.084000
 20
252.343600
 30
0.0
 10
211.548000
 20
251.549000
 30
0.0
 10
210.753000
 20
251.013200
 30
0.0
 10
209.780000
 20
250.816700
 30
0.0
 10
208.807000
 20
251.013200
 30
0.0
 10
208.013000
 20
251.549000
 30
0.0
 10
207.477000
 20
252.343600
 30
0.0
 10
207.280000
 20
253.316700
 30
0.0
 10
207.477000
 20
254.289900
 30
0.0
 10
208.013000
 20
255.084500
 30
0.0
 10
208.807000
 20
255.620300
 30
0.0
 10
209.780000
 20
255.816700
 30
0.0
 10
210.753000
 20
255.620300
 30
0.0
 10
211.548000
 20
255.084500
 30
0.0
 10
212.084000
 20
254.289900
 30
0.0
 10
212.280000
 20
253.316700
 30
0.0
  0
LWPOLYLINE
  5
102
100
AcDbEntity
  8
top_plate
 62
1
100
AcDbPolyline
 90
16
 70
1
 10
135.902000
 20
234.459900
 30
0.0
 10
135.367000
 20
233.665300
 30
0.0
 10
134.572000
 20
233.129500
 30
0.0
 10
133.599000
 20
232.933000
 30
0.0
 10
132.626000
 20
233.129500
 30
0.0
 10
131.831000
 20
233.665300
 30
0.0
 10
131.295000
 20
234.459900
 30
0.0
 10
131.099000
 20
235.433000
 30
0.0
 10
131.289000
 20
236.389800
 30
0.0
 10
131.831000
 20
237.200800
 30
0.0
 10
132.642000
 20
237.742700
 30
0.0
 10
133.599000
 20
237.933000
 30
0.0
 10
134.556000
 20
237.742700
 30
0.0
 10
135.367000
 20
237.200800
 30
0.0
 10
135.909000
 20
236.389800
 30
0.0
 10
136.099000
 20
235.433000
 30
0.0
  0
LWPOLYLINE
  5
103
100
AcDbEntity
  8
top_plate
 62
1
100
AcDbPolyline
 90
16
 70
1
 10
54.936400
 20
253.559500
 30
0.0
 10
54.394400
 20
252.748500
 30
0.0
 10
53.583400
 20
252.206500
 30
0.0
 10
52.626700
 20
252.016200
 30
0.0
 10
51.670000
 20
252.206500
 30
0.0
 10
50.858900
 20
252.748500
 30
0.0
 10
50.317000
 20
253.559500
 30
0.0
 10
50.126700
 20
254.516200
 30
0.0
 10
50.323100
 20
255.489300
 30
0.0
 10
50.858900
 20
256.284000
 30
0.0
 10
51.653600
 20
256.819800
 30
0.0
 10
52.626700
 20
257.016200
 30
0.0
 10
53.599800
 20
256.819800
 30
0.0
 10
54.394400
 20
256.284000
 30
0.0
 10
54.930200
 20
255.489300
 30
0.0
 10
55.126700
 20
254.516200
 30
0.0
  0
LWPOLYLINE
  5
104
100
AcDbEntity
  8
top_plate
 62
1
100
AcDbPolyline
 90
237
 70
1
 10
97.075200
 20
194.595000
 30
0.0
 10
97.151200
 20
194.978000
 30
0.0
 10
97.367800
 20
195.302000
 30
0.0
 10
97.692200
 20
195.519000
 30
0.0
 10
98.074800
 20
195.595000
 30
0.0
 10
153.225000
 20
195.595000
 30
0.0
 10
153.614000
 20
195.516000
 30
0.0
 10
153.932000
 20
195.302000
 30
0.0
 10
154.147000
 20
194.984000
 30
0.0
 10
154.225000
 20
194.595000
 30
0.0
 10
154.226000
 20
192.098000
 30
0.0
 10
154.305000
 20
191.709000
 30
0.0
 10
154.519000
 20
191.391000
 30
0.0
 10
154.837000
 20
191.177000
 30
0.0
 10
155.227000
 20
191.098000
 30
0.0
 10
172.010000
 20
191.098000
 30
0.0
 10
172.393000
 20
191.174000
 30
0.0
 10
172.717000
 20
191.391000
 30
0.0
 10
172.934000
 20
191.715000
 30
0.0
 10
173.010000
 20
192.098000
 30
0.0
 10
173.009000
 20
194.595000
 30
0.0
 10
173.086000
 20
194.978000
 30
0.0
 10
173.302000
 20
195.302000
 30
0.0
 10
173.627000
 20
195.519000
 30
0.0
 10
174.009000
 20
195.595000
 30
0.0
 10
229.159000
 20
195.595000
 30
0.0
 10
229.549000
 20
195.516000
 30
0.0
 10
229.867000
 20
195.302000
 30
0.0
 10
230.081000
 20
194.984000
 30
0.0
 10
230.160000
 20
194.595000
 30
0.0
 10
230.161000
 20
192.098000
 30
0.0
 10
230.240000
 20
191.709000
 30
0.0
 10
230.454000
 20
191.391000
 30
0.0
 10
230.772000
 20
191.177000
 30
0.0
 10
231.161000
 20
191.098000
 30
0.0
 10
256.489000
 20
191.098000
 30
0.0
 10
256.872000
 20
191.174000
 30
0.0
 10
257.196000
 20
191.391000
 30
0.0
 10
257.413000
 20
191.715000
 30
0.0
 10
257.489000
 20
192.098000
 30
0.0
 10
257.488000
 20
194.595000
 30
0.0
 10
257.564000
 20
194.978000
 30
0.0
 10
257.781000
 20
195.302000
 30
0.0
 10
258.105000
 20
195.519000
 30
0.0
 10
258.488000
 20
195.595000
 30
0.0
 10
313.640000
 20
195.601000
 30
0.0
 10
314.023000
 20
195.525000
 30
0.0
 10
314.347000
 20
195.308000
 30
0.0
 10
314.564000
 20
194.984000
 30
0.0
 10
314.640000
 20
194.601000
 30
0.0
 10
314.640000
 20
192.098000
 30
0.0
 10
314.718000
 20
191.709000
 30
0.0
 10
314.933000
 20
191.391000
 30
0.0
 10
315.251000
 20
191.177000
 30
0.0
 10
315.640000
 20
191.098000
 30
0.0
 10
334.273000
 20
191.098000
 30
0.0
 10
335.253000
 20
191.195000
 30
0.0
 10
336.186000
 20
191.479000
 30
0.0
 10
337.047000
 20
191.938000
 30
0.0
 10
337.808000
 20
192.563000
 30
0.0
 10
338.433000
 20
193.324000
 30
0.0
 10
338.892000
 20
194.185000
 30
0.0
 10
339.176000
 20
195.118000
 30
0.0
 10
339.273000
 20
196.098000
 30
0.0
 10
339.273000
 20
214.693800
 30
0.0
 10
339.194000
 20
215.083000
 30
0.0
 10
338.980000
 20
215.400900
 30
0.0
 10
338.662000
 20
215.615300
 30
0.0
 10
338.273000
 20
215.693900
 30
0.0
 10
335.760000
 20
215.694100
 30
0.0
 10
335.371000
 20
215.772700
 30
0.0
 10
335.053000
 20
215.987000
 30
0.0
 10
334.839000
 20
216.304900
 30
0.0
 10
334.760000
 20
216.694200
 30
0.0
 10
334.760000
 20
271.844000
 30
0.0
 10
334.839000
 20
272.233400
 30
0.0
 10
335.053000
 20
272.551400
 30
0.0
 10
335.371000
 20
272.766100
 30
0.0
 10
335.760000
 20
272.845000
 30
0.0
 10
338.273000
 20
272.847700
 30
0.0
 10
338.662000
 20
272.926700
 30
0.0
 10
338.980000
 20
273.141300
 30
0.0
 10
339.194000
 20
273.459400
 30
0.0
 10
339.273000
 20
273.848800
 30
0.0
 10
339.273000
 20
292.656910
 30
0.0
 10
339.176000
 20
293.636920
 30
0.0
 10
338.892000
 20
294.570330
 30
0.0
 10
338.433000
 20
295.430910
 30
0.0
 10
337.808000
 20
296.192445
 30
0.0
 10
337.047000
 20
296.816852
 30
0.0
 10
336.186000
 20
297.276309
 30
0.0
 10
335.253000
 20
297.559950
 30
0.0
 10
334.273000
 20
297.656911
 30
0.0
 10
296.578000
 20
297.656911
 30
0.0
 10
296.195000
 20
297.580789
 30
0.0
 10
295.871000
 20
297.364016
 30
0.0
 10
295.654000
 20
297.039593
 30
0.0
 10
295.578000
 20
296.656911
 30
0.0
 10
295.578000
 20
294.135030
 30
0.0
 10
295.502000
 20
293.752340
 30
0.0
 10
295.285000
 20
293.427920
 30
0.0
 10
294.961000
 20
293.211150
 30
0.0
 10
294.578000
 20
293.135030
 30
0.0
 10
258.478000
 20
293.135030
 30
0.0
 10
258.089000
 20
293.213610
 30
0.0
 10
257.771000
 20
293.427920
 30
0.0
 10
257.556000
 20
293.745780
 30
0.0
 10
257.478000
 20
294.135030
 30
0.0
 10
257.478000
 20
296.656911
 30
0.0
 10
257.399000
 20
297.046161
 30
0.0
 10
257.185000
 20
297.364021
 30
0.0
 10
256.867000
 20
297.578327
 30
0.0
 10
256.477000
 20
297.656911
 30
0.0
 10
231.155000
 20
297.656911
 30
0.0
 10
230.772000
 20
297.580768
 30
0.0
 10
230.448000
 20
297.363950
 30
0.0
 10
230.232000
 20
297.039511
 30
0.0
 10
230.156000
 20
296.656912
 30
0.0
 10
230.159000
 20
294.144990
 30
0.0
 10
230.083000
 20
293.762390
 30
0.0
 10
229.867000
 20
293.437950
 30
0.0
 10
229.542000
 20
293.221130
 30
0.0
 10
229.160000
 20
293.144990
 30
0.0
 10
174.010000
 20
293.144990
 30
0.0
 10
173.627000
 20
293.221120
 30
0.0
 10
173.303000
 20
293.437910
 30
0.0
 10
173.086000
 20
293.762340
 30
0.0
 10
173.010000
 20
294.144990
 30
0.0
 10
173.011000
 20
296.656911
 30
0.0
 10
172.935000
 20
297.039593
 30
0.0
 10
172.719000
 20
297.364046
 30
0.0
 10
172.394000
 20
297.580837
 30
0.0
 10
172.012000
 20
297.656939
 30
0.0
 10
155.223000
 20
297.656939
 30
0.0
 10
154.840000
 20
297.580811
 30
0.0
 10
154.516000
 20
297.364020
 30
0.0
 10
154.299000
 20
297.039590
 30
0.0
 10
154.224000
 20
296.656939
 30
0.0
 10
154.224000
 20
294.145020
 30
0.0
 10
154.149000
 20
293.762370
 30
0.0
 10
153.932000
 20
293.437940
 30
0.0
 10
153.608000
 20
293.221150
 30
0.0
 10
153.225000
 20
293.145020
 30
0.0
 10
98.074900
 20
293.145020
 30
0.0
 10
97.685600
 20
293.223600
 30
0.0
 10
97.367700
 20
293.437890
 30
0.0
 10
97.153200
 20
293.755750
 30
0.0
 10
97.074500
 20
294.145020
 30
0.0
 10
97.073600
 20
296.658536
 30
0.0
 10
96.994900
 20
297.047793
 30
0.0
 10
96.780500
 20
297.365636
 30
0.0
 10
96.462600
 20
297.579908
 30
0.0
 10
96.073300
 20
297.658457
 30
0.0
 10
77.853300
 20
297.657019
 30
0.0
 10
77.470600
 20
297.580866
 30
0.0
 10
77.146300
 20
297.364063
 30
0.0
 10
76.929500
 20
297.039622
 30
0.0
 10
76.853500
 20
296.656940
 30
0.0
 10
76.853900
 20
294.145020
 30
0.0
 10
76.777900
 20
293.762350
 30
0.0
 10
76.561200
 20
293.437920
 30
0.0
 10
76.236800
 20
293.221140
 30
0.0
 10
75.854100
 20
293.145020
 30
0.0
 10
20.704200
 20
293.145020
 30
0.0
 10
20.321700
 20
293.221170
 30
0.0
 10
19.997600
 20
293.438010
 30
0.0
 10
19.781200
 20
293.762450
 30
0.0
 10
19.705700
 20
294.145020
 30
0.0
 10
19.709500
 20
296.656941
 30
0.0
 10
19.633900
 20
297.039498
 30
0.0
 10
19.417600
 20
297.363939
 30
0.0
 10
19.093500
 20
297.580777
 30
0.0
 10
18.711100
 20
297.656939
 30
0.0
 10
4.332360
 20
297.656939
 30
0.0
 10
3.352350
 20
297.559978
 30
0.0
 10
2.418940
 20
297.276337
 30
0.0
 10
1.558360
 20
296.816881
 30
0.0
 10
0.796827
 20
296.192473
 30
0.0
 10
0.172420
 20
295.430940
 30
0.0
 10
-0.287037
 20
294.570360
 30
0.0
 10
-0.570678
 20
293.636950
 30
0.0
 10
-0.667639
 20
292.656940
 30
0.0
 10
-0.667639
 20
273.845100
 30
0.0
 10
-0.589060
 20
273.455800
 30
0.0
 10
-0.374761
 20
273.137900
 30
0.0
 10
-0.056901
 20
272.923500
 30
0.0
 10
0.332361
 20
272.844900
 30
0.0
 10
2.839490
 20
272.844200
 30
0.0
 10
3.228750
 20
272.765600
 30
0.0
 10
3.546610
 20
272.551200
 30
0.0
 10
3.760910
 20
272.233300
 30
0.0
 10
3.839490
 20
271.844000
 30
0.0
 10
3.839490
 20
216.694000
 30
0.0
 10
3.763370
 20
216.311300
 30
0.0
 10
3.546590
 20
215.986900
 30
0.0
 10
3.222170
 20
215.770200
 30
0.0
 10
2.839490
 20
215.694100
 30
0.0
 10
0.332361
 20
215.694300
 30
0.0
 10
-0.050316
 20
215.618200
 30
0.0
 10
-0.374741
 20
215.401500
 30
0.0
 10
-0.591517
 20
215.077000
 30
0.0
 10
-0.667639
 20
214.694400
 30
0.0
 10
-0.667639
 20
196.098000
 30
0.0
 10
-0.570678
 20
195.118000
 30
0.0
 10
-0.287037
 20
194.185000
 30
0.0
 10
0.172420
 20
193.324000
 30
0.0
 10
0.796827
 20
192.562000
 30
0.0
 10
1.558360
 20
191.938000
 30
0.0
 10
2.418940
 20
191.479000
 30
0.0
 10
3.352350
 20
191.195000
 30
0.0
 10
4.332360
 20
191.098000
 30
0.0
 10
18.704200
 20
191.098000
 30
0.0
 10
19.086900
 20
191.174000
 30
0.0
 10
19.411300
 20
191.391000
 30
0.0
 10
19.628100
 20
191.715000
 30
0.0
 10
19.704200
 20
192.098000
 30
0.0
 10
19.704200
 20
194.595000
 30
0.0
 10
19.780300
 20
194.978000
 30
0.0
 10
19.997100
 20
195.302000
 30
0.0
 10
20.321500
 20
195.519000
 30
0.0
 10
20.704200
 20
195.595000
 30
0.0
 10
75.854200
 20
195.595000
 30
0.0
 10
76.243500
 20
195.516000
 30
0.0
 10
76.561400
 20
195.302000
 30
0.0
 10
76.775900
 20
194.984000
 30
0.0
 10
76.854600
 20
194.595000
 30
0.0
 10
76.855800
 20
192.099000
 30
0.0
 10
76.934600
 20
191.709000
 30
0.0
 10
77.149000
 20
191.391000
 30
0.0
 10
77.467000
 20
191.177000
 30
0.0
 10
77.856300
 20
191.099000
 30
0.0
 10
96.076300
 20
191.098000
 30
0.0
 10
96.458900
 20
191.174000
 30
0.0
 10
96.783300
 20
191.391000
 30
0.0
 10
96.999900
 20
191.715000
 30
0.0
 10
97.075900
 20
192.098000
 30
0.0
 10
97.075900
 20
192.098000
 30
0.0
  0
LWPOLYLINE
  5
105
100
AcDbEntity
  8
top_plate
 62
1
100
AcDbPolyline
 90
4
 70
1
 10
310.627000
 20
250.215600
 30
0.0
 10
319.730000
 20
250.215600
 30
0.0
 10
319.730000
 20
268.503000
 30
0.0
 10
310.627000
 20
268.503000
 30
0.0
  0
LWPOLYLINE
  5
106
100
AcDbEntity
  8
top_plate
 62
1
100
AcDbPolyline
 90
16
 70
1
 10
331.885000
 20
242.613200
 30
0.0
 10
331.544000
 20
242.385600
 30
0.0
 10
331.143000
 20
242.305700
 30
0.0
 10
330.741000
 20
242.385600
 30
0.0
 10
330.400000
 20
242.613200
 30
0.0
 10
330.173000
 20
242.953900
 30
0.0
 10
330.093000
 20
243.355700
 30
0.0
 10
330.173000
 20
243.757500
 30
0.0
 10
330.400000
 20
244.098200
 30
0.0
 10
330.741000
 20
244.325800
 30
0.0
 10
331.143000
 20
244.405700
 30
0.0
 10
331.544000
 20
244.325800
 30
0.0
 10
331.885000
 20
244.098200
 30
0.0
 10
332.113000
 20
243.757500
 30
0.0
 10
332.193000
 20
243.355700
 30
0.0
 10
332.113000
 20
242.953900
 30
0.0
  0
LWPOLYLINE
  5
107
100
AcDbEntity
  8
top_plate
 62
1
100
AcDbPolyline
 90
16
 70
1
 10
299.890000
 20
242.620700
 30
0.0
 10
299.550000
 20
242.393100
 30
0.0
 10
299.148000
 20
242.313200
 30
0.0
 10
298.746000
 20
242.393100
 30
0.0
 10
298.405000
 20
242.620700
 30
0.0
 10
298.178000
 20
242.961400
 30
0.0
 10
298.098000
 20
243.363200
 30
0.0
 10
298.178000
 20
243.765000
 30
0.0
 10
298.405000
 20
244.105700
 30
0.0
 10
298.746000
 20
244.333300
 30
0.0
 10
299.148000
 20
244.413200
 30
0.0
 10
299.550000
 20
244.333300
 30
0.0
 10
299.890000
 20
244.105700
 30
0.0
 10
300.118000
 20
243.765000
 30
0.0
 10
300.198000
 20
243.363200
 30
0.0
 10
300.118000
 20
242.961400
 30
0.0
  0
LWPOLYLINE
  5
108
100
AcDbEntity
  8
top_plate
 62
1
100
AcDbPolyline
 90
16
 70
1
 10
331.885000
 20
274.611300
 30
0.0
 10
331.544000
 20
274.383700
 30
0.0
 10
331.143000
 20
274.303800
 30
0.0
 10
330.741000
 20
274.383700
 30
0.0
 10
330.400000
 20
274.611300
 30
0.0
 10
330.173000
 20
274.952000
 30
0.0
 10
330.093000
 20
275.353800
 30
0.0
 10
330.173000
 20
275.755600
 30
0.0
 10
330.400000
 20
276.096200
 30
0.0
 10
330.741000
 20
276.323900
 30
0.0
 10
331.143000
 20
276.403800
 30
0.0
 10
331.544000
 20
276.323900
 30
0.0
 10
331.885000
 20
276.096200
 30
0.0
 10
332.113000
 20
275.755600
 30
0.0
 10
332.193000
 20
275.353800
 30
0.0
 10
332.113000
 20
274.952000
 30
0.0
  0
LWPOLYLINE
  5
109
100
AcDbEntity
  8
top_plate
 62
1
100
AcDbPolyline
 90
16
 70
1
 10
299.890000
 20
274.618800
 30
0.0
 10
299.550000
 20
274.391200
 30
0.0
 10
299.148000
 20
274.311300
 30
0.0
 10
298.746000
 20
274.391200
 30
0.0
 10
298.405000
 20
274.618800
 30
0.0
 10
298.178000
 20
274.959500
 30
0.0
 10
298.098000
 20
275.361300
 30
0.0
 10
298.178000
 20
275.763100
 30
0.0
 10
298.405000
 20
276.103700
 30
0.0
 10
298.746000
 20
276.331400
 30
0.0
 10
299.148000
 20
276.411300
 30
0.0
 10
299.550000
 20
276.331400
 30
0.0
 10
299.890000
 20
276.103700
 30
0.0
 10
300.118000
 20
275.763100
 30
0.0
 10
300.198000
 20
275.361300
 30
0.0
 10
300.118000
 20
274.959500
 30
0.0
  0
LWPOLYLINE
  5
10a
100
AcDbEntity
  8
top_plate
 62
1
100
AcDbPolyline
 90
16
 70
1
 10
168.603000
 20
193.422000
 30
0.0
 10
167.808000
 20
192.886000
 30
0.0
 10
166.835000
 20
192.690000
 30
0.0
 10
165.862000
 20
192.886000
 30
0.0
 10
165.067000
 20
193.422000
 30
0.0
 10
164.531000
 20
194.217000
 30
0.0
 10
164.335000
 20
195.190000
 30
0.0
 10
164.525000
 20
196.147000
 30
0.0
 10
165.067000
 20
196.958000
 30
0.0
 10
165.878000
 20
197.499600
 30
0.0
 10
166.835000
 20
197.689900
 30
0.0
 10
167.792000
 20
197.499600
 30
0.0
 10
168.603000
 20
196.958000
 30
0.0
 10
169.145000
 20
196.147000
 30
0.0
 10
169.335000
 20
195.190000
 30
0.0
 10
169.138000
 20
194.217000
 30
0.0
  0
LWPOLYLINE
  5
10b
100
AcDbEntity
  8
top_plate
 62
1
100
AcDbPolyline
 90
16
 70
1
 10
168.603000
 20
291.797610
 30
0.0
 10
167.808000
 20
291.261840
 30
0.0
 10
166.835000
 20
291.065380
 30
0.0
 10
165.862000
 20
291.261840
 30
0.0
 10
165.067000
 20
291.797610
 30
0.0
 10
164.531000
 20
292.592270
 30
0.0
 10
164.335000
 20
293.565380
 30
0.0
 10
164.531000
 20
294.538490
 30
0.0
 10
165.067000
 20
295.333150
 30
0.0
 10
165.862000
 20
295.868920
 30
0.0
 10
166.835000
 20
296.065381
 30
0.0
 10
167.808000
 20
295.868920
 30
0.0
 10
168.603000
 20
295.333150
 30
0.0
 10
169.138000
 20
294.538490
 30
0.0
 10
169.335000
 20
293.565380
 30
0.0
 10
169.138000
 20
292.592270
 30
0.0
  0
LWPOLYLINE
  5
10c
100
AcDbEntity
  8
top_plate
 62
1
100
AcDbPolyline
 90
16
 70
1
 10
254.402000
 20
193.422000
 30
0.0
 10
253.607000
 20
192.886000
 30
0.0
 10
252.634000
 20
192.690000
 30
0.0
 10
251.661000
 20
192.886000
 30
0.0
 10
250.866000
 20
193.422000
 30
0.0
 10
250.330000
 20
194.217000
 30
0.0
 10
250.134000
 20
195.190000
 30
0.0
 10
250.324000
 20
196.147000
 30
0.0
 10
250.866000
 20
196.958000
 30
0.0
 10
251.677000
 20
197.499600
 30
0.0
 10
252.634000
 20
197.689900
 30
0.0
 10
253.591000
 20
197.499600
 30
0.0
 10
254.402000
 20
196.958000
 30
0.0
 10
254.943000
 20
196.147000
 30
0.0
 10
255.134000
 20
195.190000
 30
0.0
 10
254.937000
 20
194.217000
 30
0.0
  0
LWPOLYLINE
  5
10d
100
AcDbEntity
  8
top_plate
 62
1
100
AcDbPolyline
 90
16
 70
1
 10
254.402000
 20
291.797620
 30
0.0
 10
253.607000
 20
291.261850
 30
0.0
 10
252.634000
 20
291.065380
 30
0.0
 10
251.661000
 20
291.261850
 30
0.0
 10
250.866000
 20
291.797620
 30
0.0
 10
250.330000
 20
292.592270
 30
0.0
 10
250.134000
 20
293.565380
 30
0.0
 10
250.330000
 20
294.538500
 30
0.0
 10
250.866000
 20
295.333150
 30
0.0
 10
251.661000
 20
295.868920
 30
0.0
 10
252.634000
 20
296.065384
 30
0.0
 10
253.607000
 20
295.868920
 30
0.0
 10
254.402000
 20
295.333150
 30
0.0
 10
254.937000
 20
294.538500
 30
0.0
 10
255.134000
 20
293.565380
 30
0.0
 10
254.937000
 20
292.592270
 30
0.0
  0
LWPOLYLINE
  5
10e
100
AcDbEntity
  8
top_plate
 62
1
100
AcDbPolyline
 90
16
 70
1
 10
83.040200
 20
193.422000
 30
0.0
 10
82.245500
 20
192.886000
 30
0.0
 10
81.272400
 20
192.690000
 30
0.0
 10
80.299300
 20
192.886000
 30
0.0
 10
79.504600
 20
193.422000
 30
0.0
 10
78.968900
 20
194.217000
 30
0.0
 10
78.772400
 20
195.190000
 30
0.0
 10
78.962700
 20
196.147000
 30
0.0
 10
79.504600
 20
196.958000
 30
0.0
 10
80.315700
 20
197.499600
 30
0.0
 10
81.272400
 20
197.689900
 30
0.0
 10
82.229100
 20
197.499600
 30
0.0
 10
83.040200
 20
196.958000
 30
0.0
 10
83.582100
 20
196.147000
 30
0.0
 10
83.772400
 20
195.190000
 30
0.0
 10
83.575900
 20
194.217000
 30
0.0
  0
LWPOLYLINE
  5
10f
100
AcDbEntity
  8
top_plate
 62
1
100
AcDbPolyline
 90
16
 70
1
 10
83.040200
 20
291.797620
 30
0.0
 10
82.245500
 20
291.261850
 30
0.0
 10
81.272400
 20
291.065380
 30
0.0
 10
80.299300
 20
291.261850
 30
0.0
 10
79.504600
 20
291.797620
 30
0.0
 10
78.968900
 20
292.592270
 30
0.0
 10
78.772400
 20
293.565380
 30
0.0
 10
78.968900
 20
294.538500
 30
0.0
 10
79.504600
 20
295.333150
 30
0.0
 10
80.299300
 20
295.868920
 30
0.0
 10
81.272400
 20
296.065384
 30
0.0
 10
82.245500
 20
295.868920
 30
0.0
 10
83.040200
 20
295.333150
 30
0.0
 10
83.575900
 20
294.538500
 30
0.0
 10
83.772400
 20
293.565380
 30
0.0
 10
83.575900
 20
292.592270
 30
0.0
  0
LWPOLYLINE
  5
110
100
AcDbEntity
  8
top_plate
 62
1
100
AcDbPolyline
 90
16
 70
1
 10
336.953000
 20
193.422000
 30
0.0
 10
336.158000
 20
192.886000
 30
0.0
 10
335.185000
 20
192.690000
 30
0.0
 10
334.212000
 20
192.886000
 30
0.0
 10
333.417000
 20
193.422000
 30
0.0
 10
332.881000
 20
194.217000
 30
0.0
 10
332.685000
 20
195.190000
 30
0.0
 10
332.875000
 20
196.147000
 30
0.0
 10
333.417000
 20
196.958000
 30
0.0
 10
334.228000
 20
197.499600
 30
0.0
 10
335.185000
 20
197.689900
 30
0.0
 10
336.142000
 20
197.499600
 30
0.0
 10
336.953000
 20
196.958000
 30
0.0
 10
337.495000
 20
196.147000
 30
0.0
 10
337.685000
 20
195.190000
 30
0.0
 10
337.489000
 20
194.217000
 30
0.0
  0
LWPOLYLINE
  5
111
100
AcDbEntity
  8
top_plate
 62
1
100
AcDbPolyline
 90
16
 70
1
 10
336.953000
 20
291.797620
 30
0.0
 10
336.158000
 20
291.261850
 30
0.0
 10
335.185000
 20
291.065380
 30
0.0
 10
334.212000
 20
291.261850
 30
0.0
 10
333.417000
 20
291.797620
 30
0.0
 10
332.881000
 20
292.592270
 30
0.0
 10
332.685000
 20
293.565380
 30
0.0
 10
332.881000
 20
294.538500
 30
0.0
 10
333.417000
 20
295.333150
 30
0.0
 10
334.212000
 20
295.868920
 30
0.0
 10
335.185000
 20
296.065384
 30
0.0
 10
336.158000
 20
295.868920
 30
0.0
 10
336.953000
 20
295.333150
 30
0.0
 10
337.489000
 20
294.538500
 30
0.0
 10
337.685000
 20
293.565380
 30
0.0
 10
337.489000
 20
292.592270
 30
0.0
  0
LWPOLYLINE
  5
112
100
AcDbEntity
  8
top_plate
 62
1
100
AcDbPolyline
 90
16
 70
1
 10
5.197790
 20
193.422000
 30
0.0
 10
4.403140
 20
192.886000
 30
0.0
 10
3.430020
 20
192.690000
 30
0.0
 10
2.456910
 20
192.886000
 30
0.0
 10
1.662260
 20
193.422000
 30
0.0
 10
1.126490
 20
194.217000
 30
0.0
 10
0.930024
 20
195.190000
 30
0.0
 10
1.120320
 20
196.147000
 30
0.0
 10
1.662260
 20
196.958000
 30
0.0
 10
2.473310
 20
197.499600
 30
0.0
 10
3.430020
 20
197.689900
 30
0.0
 10
4.386730
 20
197.499600
 30
0.0
 10
5.197790
 20
196.958000
 30
0.0
 10
5.739720
 20
196.147000
 30
0.0
 10
5.930020
 20
195.190000
 30
0.0
 10
5.733560
 20
194.217000
 30
0.0
  0
LWPOLYLINE
  5
113
100
AcDbEntity
  8
top_plate
 62
1
100
AcDbPolyline
 90
16
 70
1
 10
5.197790
 20
291.797620
 30
0.0
 10
4.386730
 20
291.255690
 30
0.0
 10
3.430020
 20
291.065390
 30
0.0
 10
2.473320
 20
291.255690
 30
0.0
 10
1.662260
 20
291.797620
 30
0.0
 10
1.120330
 20
292.608680
 30
0.0
 10
0.930024
 20
293.565390
 30
0.0
 10
1.126490
 20
294.538500
 30
0.0
 10
1.662260
 20
295.333160
 30
0.0
 10
2.456910
 20
295.868930
 30
0.0
 10
3.430020
 20
296.065389
 30
0.0
 10
4.386730
 20
295.875090
 30
0.0
 10
5.197790
 20
295.333160
 30
0.0
 10
5.739720
 20
294.522100
 30
0.0
 10
5.930020
 20
293.565390
 30
0.0
 10
5.739720
 20
292.608680
 30
0.0
  0
ENDSEC
  0
SECTION
  2
OBJECTS
  0
DICTIONARY
  5
C
330
0
100
AcDbDictionary
  3
ACAD_GROUP
350
D
  3
ACAD_MLINESTYLE
350
17
  0
DICTIONARY
  5
D
330
C
100
AcDbDictionary
  0
DICTIONARY
  5
1A
330
C
100
AcDbDictionary
  0
DICTIONARY
  5
17
330
C
100
AcDbDictionary
  3
STANDARD
350
18
  0
DICTIONARY
  5
19
330
C
100
AcDbDictionary
  0
ENDSEC
  0
EOF
