999
"DXF R12 Output" (www.mydxf.blogspot.com)
 0 
SECTION
 2 
HEADER
 9 
$ACADVER
 1 
AC1009
 9 
$EXTMIN
 10 
 0 
 20 
 0 
 9 
$EXTMAX
 10 
 8.5 
 20 
 11 
 0 
ENDSEC
 0 
SECTION
 2 
ENTITIES
0
LINE
8
Layer 1
10
310.627000
20
46.784300
11
319.729380
21
46.784300
0
LINE
8
Layer 1
10
319.729380
20
46.784300
11
319.729380
21
28.497000
0
LINE
8
Layer 1
10
319.729380
20
28.497000
11
310.627000
21
28.497000
0
LINE
8
Layer 1
10
310.627000
20
28.497000
11
310.627000
21
46.784300
0
LINE
8
Layer 1
10
309.459580
20
41.291980
11
309.357210
21
41.207560
0
LINE
8
Layer 1
10
309.357210
20
41.207560
11
309.272810
21
41.105185
0
LINE
8
Layer 1
10
309.272810
20
41.105185
11
309.213510
21
40.992033
0
LINE
8
Layer 1
10
309.213510
20
40.992033
11
309.179410
21
40.871698
0
LINE
8
Layer 1
10
309.179410
20
40.871698
11
309.167010
21
40.747773
0
LINE
8
Layer 1
10
309.167010
20
40.747773
11
309.179410
21
40.623845
0
LINE
8
Layer 1
10
309.179410
20
40.623845
11
309.213510
21
40.503509
0
LINE
8
Layer 1
10
309.213510
20
40.503509
11
309.272810
21
40.390358
0
LINE
8
Layer 1
10
309.272810
20
40.390358
11
309.357210
21
40.287982
0
LINE
8
Layer 1
10
309.357210
20
40.287982
11
309.459580
21
40.203572
0
LINE
8
Layer 1
10
309.459580
20
40.203572
11
309.572720
21
40.144302
0
LINE
8
Layer 1
10
309.572720
20
40.144302
11
309.693080
21
40.110182
0
LINE
8
Layer 1
10
309.693080
20
40.110182
11
309.816980
21
40.097612
0
LINE
8
Layer 1
10
309.816980
20
40.097612
11
309.940910
21
40.110182
0
LINE
8
Layer 1
10
309.940910
20
40.110182
11
310.061240
21
40.144302
0
LINE
8
Layer 1
10
310.061240
20
40.144302
11
310.174410
21
40.203572
0
LINE
8
Layer 1
10
310.174410
20
40.203572
11
310.276770
21
40.287982
0
LINE
8
Layer 1
10
310.276770
20
40.287982
11
310.361170
21
40.390358
0
LINE
8
Layer 1
10
310.361170
20
40.390358
11
310.420470
21
40.503509
0
LINE
8
Layer 1
10
310.420470
20
40.503509
11
310.454570
21
40.623845
0
LINE
8
Layer 1
10
310.454570
20
40.623845
11
310.466970
21
40.747773
0
LINE
8
Layer 1
10
310.466970
20
40.747773
11
310.454570
21
40.871698
0
LINE
8
Layer 1
10
310.454570
20
40.871698
11
310.420470
21
40.992033
0
LINE
8
Layer 1
10
310.420470
20
40.992033
11
310.361170
21
41.105185
0
LINE
8
Layer 1
10
310.361170
20
41.105185
11
310.276770
21
41.207560
0
LINE
8
Layer 1
10
310.276770
20
41.207560
11
310.174410
21
41.291980
0
LINE
8
Layer 1
10
310.174410
20
41.291980
11
310.061240
21
41.351250
0
LINE
8
Layer 1
10
310.061240
20
41.351250
11
309.940910
21
41.385370
0
LINE
8
Layer 1
10
309.940910
20
41.385370
11
309.816980
21
41.397940
0
LINE
8
Layer 1
10
309.816980
20
41.397940
11
309.693080
21
41.385370
0
LINE
8
Layer 1
10
309.693080
20
41.385370
11
309.572720
21
41.351250
0
LINE
8
Layer 1
10
309.572720
20
41.351250
11
309.459580
21
41.291980
0
LINE
8
Layer 1
10
309.286460
20
43.061050
11
309.286460
21
42.990340
0
LINE
8
Layer 1
10
309.286460
20
42.990340
11
309.357160
21
42.990340
0
LINE
8
Layer 1
10
309.357160
20
42.990340
11
309.357160
21
43.061050
0
LINE
8
Layer 1
10
309.357160
20
43.061050
11
309.286460
21
43.061050
0
LINE
8
Layer 1
10
309.286460
20
43.061050
11
309.286460
21
43.061050
0
LINE
8
Layer 1
10
321.058460
20
32.379950
11
321.119560
21
32.491305
0
LINE
8
Layer 1
10
321.119560
20
32.491305
11
321.155460
21
32.613436
0
LINE
8
Layer 1
10
321.155460
20
32.613436
11
321.168160
21
32.737365
0
LINE
8
Layer 1
10
321.168160
20
32.737365
11
321.155460
21
32.861290
0
LINE
8
Layer 1
10
321.155460
20
32.861290
11
321.119560
21
32.983422
0
LINE
8
Layer 1
10
321.119560
20
32.983422
11
321.060260
21
33.096573
0
LINE
8
Layer 1
10
321.060260
20
33.096573
11
320.977660
21
33.197152
0
LINE
8
Layer 1
10
320.977660
20
33.197152
11
320.875300
21
33.281562
0
LINE
8
Layer 1
10
320.875300
20
33.281562
11
320.762160
21
33.340832
0
LINE
8
Layer 1
10
320.762160
20
33.340832
11
320.641800
21
33.374952
0
LINE
8
Layer 1
10
320.641800
20
33.374952
11
320.517900
21
33.387522
0
LINE
8
Layer 1
10
320.517900
20
33.387522
11
320.393970
21
33.374952
0
LINE
8
Layer 1
10
320.393970
20
33.374952
11
320.271830
21
33.339032
0
LINE
8
Layer 1
10
320.271830
20
33.339032
11
320.158670
21
33.279762
0
LINE
8
Layer 1
10
320.158670
20
33.279762
11
320.058100
21
33.197142
0
LINE
8
Layer 1
10
320.058100
20
33.197142
11
319.973700
21
33.094767
0
LINE
8
Layer 1
10
319.973700
20
33.094767
11
319.914400
21
32.981615
0
LINE
8
Layer 1
10
319.914400
20
32.981615
11
319.880300
21
32.861280
0
LINE
8
Layer 1
10
319.880300
20
32.861280
11
319.867900
21
32.737355
0
LINE
8
Layer 1
10
319.867900
20
32.737355
11
319.880300
21
32.613426
0
LINE
8
Layer 1
10
319.880300
20
32.613426
11
319.914400
21
32.493091
0
LINE
8
Layer 1
10
319.914400
20
32.493091
11
319.973700
21
32.379940
0
LINE
8
Layer 1
10
319.973700
20
32.379940
11
320.058100
21
32.277564
0
LINE
8
Layer 1
10
320.058100
20
32.277564
11
320.158670
21
32.194944
0
LINE
8
Layer 1
10
320.158670
20
32.194944
11
320.271830
21
32.135674
0
LINE
8
Layer 1
10
320.271830
20
32.135674
11
320.393970
21
32.099754
0
LINE
8
Layer 1
10
320.393970
20
32.099754
11
320.517900
21
32.087184
0
LINE
8
Layer 1
10
320.517900
20
32.087184
11
320.641800
21
32.099754
0
LINE
8
Layer 1
10
320.641800
20
32.099754
11
320.762160
21
32.133874
0
LINE
8
Layer 1
10
320.762160
20
32.133874
11
320.873500
21
32.194934
0
LINE
8
Layer 1
10
320.873500
20
32.194934
11
320.977660
21
32.277554
0
LINE
8
Layer 1
10
320.977660
20
32.277554
11
321.058460
21
32.379950
0
LINE
8
Layer 1
10
319.867680
20
39.856910
11
319.880080
21
39.732982
0
LINE
8
Layer 1
10
319.880080
20
39.732982
11
319.914180
21
39.612647
0
LINE
8
Layer 1
10
319.914180
20
39.612647
11
319.973480
21
39.499495
0
LINE
8
Layer 1
10
319.973480
20
39.499495
11
320.057880
21
39.397123
0
LINE
8
Layer 1
10
320.057880
20
39.397123
11
320.158450
21
39.314503
0
LINE
8
Layer 1
10
320.158450
20
39.314503
11
320.271610
21
39.255233
0
LINE
8
Layer 1
10
320.271610
20
39.255233
11
320.393740
21
39.219313
0
LINE
8
Layer 1
10
320.393740
20
39.219313
11
320.517680
21
39.206743
0
LINE
8
Layer 1
10
320.517680
20
39.206743
11
320.641580
21
39.219313
0
LINE
8
Layer 1
10
320.641580
20
39.219313
11
320.760140
21
39.255233
0
LINE
8
Layer 1
10
320.760140
20
39.255233
11
320.873280
21
39.314503
0
LINE
8
Layer 1
10
320.873280
20
39.314503
11
320.977440
21
39.397123
0
LINE
8
Layer 1
10
320.977440
20
39.397123
11
321.060040
21
39.501292
0
LINE
8
Layer 1
10
321.060040
20
39.501292
11
321.119340
21
39.614443
0
LINE
8
Layer 1
10
321.119340
20
39.614443
11
321.155240
21
39.732982
0
LINE
8
Layer 1
10
321.155240
20
39.732982
11
321.167940
21
39.856910
0
LINE
8
Layer 1
10
321.167940
20
39.856910
11
321.155240
21
39.980838
0
LINE
8
Layer 1
10
321.155240
20
39.980838
11
321.119340
21
40.102970
0
LINE
8
Layer 1
10
321.119340
20
40.102970
11
321.060040
21
40.216119
0
LINE
8
Layer 1
10
321.060040
20
40.216119
11
320.977440
21
40.316698
0
LINE
8
Layer 1
10
320.977440
20
40.316698
11
320.875070
21
40.401108
0
LINE
8
Layer 1
10
320.875070
20
40.401108
11
320.761940
21
40.460378
0
LINE
8
Layer 1
10
320.761940
20
40.460378
11
320.641580
21
40.494508
0
LINE
8
Layer 1
10
320.641580
20
40.494508
11
320.517680
21
40.507078
0
LINE
8
Layer 1
10
320.517680
20
40.507078
11
320.391950
21
40.496308
0
LINE
8
Layer 1
10
320.391950
20
40.496308
11
320.273410
21
40.460388
0
LINE
8
Layer 1
10
320.273410
20
40.460388
11
320.160250
21
40.401118
0
LINE
8
Layer 1
10
320.160250
20
40.401118
11
320.057880
21
40.316698
0
LINE
8
Layer 1
10
320.057880
20
40.316698
11
319.973480
21
40.214326
0
LINE
8
Layer 1
10
319.973480
20
40.214326
11
319.914180
21
40.101174
0
LINE
8
Layer 1
10
319.914180
20
40.101174
11
319.878280
21
39.982636
0
LINE
8
Layer 1
10
319.878280
20
39.982636
11
319.867680
21
39.856910
0
LINE
8
Layer 1
10
319.864680
20
30.957480
11
319.877380
21
30.833552
0
LINE
8
Layer 1
10
319.877380
20
30.833552
11
319.913280
21
30.711420
0
LINE
8
Layer 1
10
319.913280
20
30.711420
11
319.974380
21
30.600065
0
LINE
8
Layer 1
10
319.974380
20
30.600065
11
320.055180
21
30.497692
0
LINE
8
Layer 1
10
320.055180
20
30.497692
11
320.159350
21
30.415072
0
LINE
8
Layer 1
10
320.159350
20
30.415072
11
320.270710
21
30.354002
0
LINE
8
Layer 1
10
320.270710
20
30.354002
11
320.391050
21
30.319872
0
LINE
8
Layer 1
10
320.391050
20
30.319872
11
320.514980
21
30.307302
0
LINE
8
Layer 1
10
320.514980
20
30.307302
11
320.638910
21
30.319872
0
LINE
8
Layer 1
10
320.638910
20
30.319872
11
320.761040
21
30.355792
0
LINE
8
Layer 1
10
320.761040
20
30.355792
11
320.874180
21
30.415062
0
LINE
8
Layer 1
10
320.874180
20
30.415062
11
320.974770
21
30.497682
0
LINE
8
Layer 1
10
320.974770
20
30.497682
11
321.059170
21
30.600055
0
LINE
8
Layer 1
10
321.059170
20
30.600055
11
321.118470
21
30.713207
0
LINE
8
Layer 1
10
321.118470
20
30.713207
11
321.152570
21
30.833542
0
LINE
8
Layer 1
10
321.152570
20
30.833542
11
321.164970
21
30.957470
0
LINE
8
Layer 1
10
321.164970
20
30.957470
11
321.152570
21
31.081398
0
LINE
8
Layer 1
10
321.152570
20
31.081398
11
321.118470
21
31.201733
0
LINE
8
Layer 1
10
321.118470
20
31.201733
11
321.059170
21
31.314885
0
LINE
8
Layer 1
10
321.059170
20
31.314885
11
320.974770
21
31.417258
0
LINE
8
Layer 1
10
320.974770
20
31.417258
11
320.874180
21
31.499878
0
LINE
8
Layer 1
10
320.874180
20
31.499878
11
320.761040
21
31.559148
0
LINE
8
Layer 1
10
320.761040
20
31.559148
11
320.638910
21
31.595068
0
LINE
8
Layer 1
10
320.638910
20
31.595068
11
320.514980
21
31.607638
0
LINE
8
Layer 1
10
320.514980
20
31.607638
11
320.391050
21
31.595068
0
LINE
8
Layer 1
10
320.391050
20
31.595068
11
320.270710
21
31.560938
0
LINE
8
Layer 1
10
320.270710
20
31.560938
11
320.159350
21
31.499868
0
LINE
8
Layer 1
10
320.159350
20
31.499868
11
320.055180
21
31.417248
0
LINE
8
Layer 1
10
320.055180
20
31.417248
11
319.974380
21
31.314875
0
LINE
8
Layer 1
10
319.974380
20
31.314875
11
319.913280
21
31.203520
0
LINE
8
Layer 1
10
319.913280
20
31.203520
11
319.877380
21
31.081388
0
LINE
8
Layer 1
10
319.877380
20
31.081388
11
319.864680
21
30.957480
0
LINE
8
Layer 1
10
309.273380
20
32.205730
11
309.214080
21
32.092578
0
LINE
8
Layer 1
10
309.214080
20
32.092578
11
309.178180
21
31.970449
0
LINE
8
Layer 1
10
309.178180
20
31.970449
11
309.165780
21
31.846521
0
LINE
8
Layer 1
10
309.165780
20
31.846521
11
309.178180
21
31.722593
0
LINE
8
Layer 1
10
309.178180
20
31.722593
11
309.212280
21
31.602258
0
LINE
8
Layer 1
10
309.212280
20
31.602258
11
309.273380
21
31.490903
0
LINE
8
Layer 1
10
309.273380
20
31.490903
11
309.355980
21
31.386731
0
LINE
8
Layer 1
10
309.355980
20
31.386731
11
309.458340
21
31.305911
0
LINE
8
Layer 1
10
309.458340
20
31.305911
11
309.569710
21
31.244841
0
LINE
8
Layer 1
10
309.569710
20
31.244841
11
309.691840
21
31.208921
0
LINE
8
Layer 1
10
309.691840
20
31.208921
11
309.815740
21
31.196351
0
LINE
8
Layer 1
10
309.815740
20
31.196351
11
309.939670
21
31.208921
0
LINE
8
Layer 1
10
309.939670
20
31.208921
11
310.061810
21
31.244841
0
LINE
8
Layer 1
10
310.061810
20
31.244841
11
310.173170
21
31.305911
0
LINE
8
Layer 1
10
310.173170
20
31.305911
11
310.275540
21
31.386731
0
LINE
8
Layer 1
10
310.275540
20
31.386731
11
310.358140
21
31.490903
0
LINE
8
Layer 1
10
310.358140
20
31.490903
11
310.419240
21
31.602258
0
LINE
8
Layer 1
10
310.419240
20
31.602258
11
310.453340
21
31.722593
0
LINE
8
Layer 1
10
310.453340
20
31.722593
11
310.465740
21
31.846521
0
LINE
8
Layer 1
10
310.465740
20
31.846521
11
310.453340
21
31.970449
0
LINE
8
Layer 1
10
310.453340
20
31.970449
11
310.417440
21
32.092578
0
LINE
8
Layer 1
10
310.417440
20
32.092578
11
310.358140
21
32.205730
0
LINE
8
Layer 1
10
310.358140
20
32.205730
11
310.275540
21
32.306309
0
LINE
8
Layer 1
10
310.275540
20
32.306309
11
310.173170
21
32.390719
0
LINE
8
Layer 1
10
310.173170
20
32.390719
11
310.060010
21
32.449989
0
LINE
8
Layer 1
10
310.060010
20
32.449989
11
309.939670
21
32.484119
0
LINE
8
Layer 1
10
309.939670
20
32.484119
11
309.815740
21
32.496689
0
LINE
8
Layer 1
10
309.815740
20
32.496689
11
309.691840
21
32.484119
0
LINE
8
Layer 1
10
309.691840
20
32.484119
11
309.571480
21
32.449989
0
LINE
8
Layer 1
10
309.571480
20
32.449989
11
309.458340
21
32.390719
0
LINE
8
Layer 1
10
309.458340
20
32.390719
11
309.355980
21
32.306309
0
LINE
8
Layer 1
10
309.355980
20
32.306309
11
309.273380
21
32.205730
0
LINE
8
Layer 1
10
320.760880
20
41.035110
11
320.874020
21
41.094380
0
LINE
8
Layer 1
10
320.874020
20
41.094380
11
320.974610
21
41.177000
0
LINE
8
Layer 1
10
320.974610
20
41.177000
11
321.059010
21
41.279376
0
LINE
8
Layer 1
10
321.059010
20
41.279376
11
321.118310
21
41.392527
0
LINE
8
Layer 1
10
321.118310
20
41.392527
11
321.154210
21
41.514659
0
LINE
8
Layer 1
10
321.154210
20
41.514659
11
321.165110
21
41.636791
0
LINE
8
Layer 1
10
321.165110
20
41.636791
11
321.154210
21
41.762513
0
LINE
8
Layer 1
10
321.154210
20
41.762513
11
321.118310
21
41.881051
0
LINE
8
Layer 1
10
321.118310
20
41.881051
11
321.059010
21
41.994203
0
LINE
8
Layer 1
10
321.059010
20
41.994203
11
320.974610
21
42.096578
0
LINE
8
Layer 1
10
320.974610
20
42.096578
11
320.872220
21
42.180998
0
LINE
8
Layer 1
10
320.872220
20
42.180998
11
320.759080
21
42.240268
0
LINE
8
Layer 1
10
320.759080
20
42.240268
11
320.640530
21
42.276188
0
LINE
8
Layer 1
10
320.640530
20
42.276188
11
320.514820
21
42.286958
0
LINE
8
Layer 1
10
320.514820
20
42.286958
11
320.392690
21
42.276188
0
LINE
8
Layer 1
10
320.392690
20
42.276188
11
320.270560
21
42.240268
0
LINE
8
Layer 1
10
320.270560
20
42.240268
11
320.157400
21
42.180998
0
LINE
8
Layer 1
10
320.157400
20
42.180998
11
320.055030
21
42.096578
0
LINE
8
Layer 1
10
320.055030
20
42.096578
11
319.972430
21
41.996000
0
LINE
8
Layer 1
10
319.972430
20
41.996000
11
319.913130
21
41.882848
0
LINE
8
Layer 1
10
319.913130
20
41.882848
11
319.877230
21
41.760716
0
LINE
8
Layer 1
10
319.877230
20
41.760716
11
319.864530
21
41.636791
0
LINE
8
Layer 1
10
319.864530
20
41.636791
11
319.877230
21
41.512862
0
LINE
8
Layer 1
10
319.877230
20
41.512862
11
319.913130
21
41.394324
0
LINE
8
Layer 1
10
319.913130
20
41.394324
11
319.972430
21
41.281172
0
LINE
8
Layer 1
10
319.972430
20
41.281172
11
320.056830
21
41.178797
0
LINE
8
Layer 1
10
320.056830
20
41.178797
11
320.159200
21
41.094387
0
LINE
8
Layer 1
10
320.159200
20
41.094387
11
320.272360
21
41.035117
0
LINE
8
Layer 1
10
320.272360
20
41.035117
11
320.390890
21
40.999197
0
LINE
8
Layer 1
10
320.390890
20
40.999197
11
320.514820
21
40.986627
0
LINE
8
Layer 1
10
320.514820
20
40.986627
11
320.638750
21
40.999197
0
LINE
8
Layer 1
10
320.638750
20
40.999197
11
320.760880
21
41.035110
0
LINE
8
Layer 1
10
310.061780
20
34.229880
11
309.939640
21
34.265800
0
LINE
8
Layer 1
10
309.939640
20
34.265800
11
309.815710
21
34.278370
0
LINE
8
Layer 1
10
309.815710
20
34.278370
11
309.691810
21
34.265800
0
LINE
8
Layer 1
10
309.691810
20
34.265800
11
309.569680
21
34.229880
0
LINE
8
Layer 1
10
309.569680
20
34.229880
11
309.458310
21
34.168810
0
LINE
8
Layer 1
10
309.458310
20
34.168810
11
309.355950
21
34.087990
0
LINE
8
Layer 1
10
309.355950
20
34.087990
11
309.273350
21
33.983818
0
LINE
8
Layer 1
10
309.273350
20
33.983818
11
309.212250
21
33.872463
0
LINE
8
Layer 1
10
309.212250
20
33.872463
11
309.178150
21
33.752128
0
LINE
8
Layer 1
10
309.178150
20
33.752128
11
309.165750
21
33.628199
0
LINE
8
Layer 1
10
309.165750
20
33.628199
11
309.178150
21
33.504274
0
LINE
8
Layer 1
10
309.178150
20
33.504274
11
309.214050
21
33.382142
0
LINE
8
Layer 1
10
309.214050
20
33.382142
11
309.273350
21
33.268990
0
LINE
8
Layer 1
10
309.273350
20
33.268990
11
309.355950
21
33.168412
0
LINE
8
Layer 1
10
309.355950
20
33.168412
11
309.458310
21
33.083992
0
LINE
8
Layer 1
10
309.458310
20
33.083992
11
309.571450
21
33.024722
0
LINE
8
Layer 1
10
309.571450
20
33.024722
11
309.691810
21
32.990592
0
LINE
8
Layer 1
10
309.691810
20
32.990592
11
309.815710
21
32.978022
0
LINE
8
Layer 1
10
309.815710
20
32.978022
11
309.939640
21
32.990592
0
LINE
8
Layer 1
10
309.939640
20
32.990592
11
310.059980
21
33.024722
0
LINE
8
Layer 1
10
310.059980
20
33.024722
11
310.173140
21
33.083992
0
LINE
8
Layer 1
10
310.173140
20
33.083992
11
310.275510
21
33.168412
0
LINE
8
Layer 1
10
310.275510
20
33.168412
11
310.358110
21
33.268990
0
LINE
8
Layer 1
10
310.358110
20
33.268990
11
310.417410
21
33.382142
0
LINE
8
Layer 1
10
310.417410
20
33.382142
11
310.453310
21
33.504274
0
LINE
8
Layer 1
10
310.453310
20
33.504274
11
310.465710
21
33.628199
0
LINE
8
Layer 1
10
310.465710
20
33.628199
11
310.453310
21
33.752128
0
LINE
8
Layer 1
10
310.453310
20
33.752128
11
310.419210
21
33.872463
0
LINE
8
Layer 1
10
310.419210
20
33.872463
11
310.359910
21
33.985614
0
LINE
8
Layer 1
10
310.359910
20
33.985614
11
310.275510
21
34.087990
0
LINE
8
Layer 1
10
310.275510
20
34.087990
11
310.174940
21
34.170610
0
LINE
8
Layer 1
10
310.174940
20
34.170610
11
310.061780
21
34.229880
0
LINE
8
Layer 1
10
320.390880
20
33.879648
11
320.514810
21
33.867078
0
LINE
8
Layer 1
10
320.514810
20
33.867078
11
320.638740
21
33.879648
0
LINE
8
Layer 1
10
320.638740
20
33.879648
11
320.760870
21
33.915568
0
LINE
8
Layer 1
10
320.760870
20
33.915568
11
320.874010
21
33.974838
0
LINE
8
Layer 1
10
320.874010
20
33.974838
11
320.974600
21
34.057458
0
LINE
8
Layer 1
10
320.974600
20
34.057458
11
321.059000
21
34.159833
0
LINE
8
Layer 1
10
321.059000
20
34.159833
11
321.118300
21
34.272982
0
LINE
8
Layer 1
10
321.118300
20
34.272982
11
321.152400
21
34.393317
0
LINE
8
Layer 1
10
321.152400
20
34.393317
11
321.164800
21
34.517245
0
LINE
8
Layer 1
10
321.164800
20
34.517245
11
321.153900
21
34.642970
0
LINE
8
Layer 1
10
321.153900
20
34.642970
11
321.118000
21
34.761509
0
LINE
8
Layer 1
10
321.118000
20
34.761509
11
321.058700
21
34.874660
0
LINE
8
Layer 1
10
321.058700
20
34.874660
11
320.974300
21
34.977036
0
LINE
8
Layer 1
10
320.974300
20
34.977036
11
320.873710
21
35.059656
0
LINE
8
Layer 1
10
320.873710
20
35.059656
11
320.760570
21
35.118926
0
LINE
8
Layer 1
10
320.760570
20
35.118926
11
320.640210
21
35.156646
0
LINE
8
Layer 1
10
320.640210
20
35.156646
11
320.514510
21
35.167416
0
LINE
8
Layer 1
10
320.514510
20
35.167416
11
320.390580
21
35.154846
0
LINE
8
Layer 1
10
320.390580
20
35.154846
11
320.270250
21
35.120716
0
LINE
8
Layer 1
10
320.270250
20
35.120716
11
320.158880
21
35.059646
0
LINE
8
Layer 1
10
320.158880
20
35.059646
11
320.054720
21
34.977026
0
LINE
8
Layer 1
10
320.054720
20
34.977026
11
319.973920
21
34.874651
0
LINE
8
Layer 1
10
319.973920
20
34.874651
11
319.912820
21
34.763296
0
LINE
8
Layer 1
10
319.912820
20
34.763296
11
319.876920
21
34.641164
0
LINE
8
Layer 1
10
319.876920
20
34.641164
11
319.864220
21
34.517236
0
LINE
8
Layer 1
10
319.864220
20
34.517236
11
319.876920
21
34.393308
0
LINE
8
Layer 1
10
319.876920
20
34.393308
11
319.914620
21
34.272972
0
LINE
8
Layer 1
10
319.914620
20
34.272972
11
319.973920
21
34.159823
0
LINE
8
Layer 1
10
319.973920
20
34.159823
11
320.054720
21
34.057448
0
LINE
8
Layer 1
10
320.054720
20
34.057448
11
320.158880
21
33.974828
0
LINE
8
Layer 1
10
320.158880
20
33.974828
11
320.272050
21
33.915558
0
LINE
8
Layer 1
10
320.272050
20
33.915558
11
320.390880
21
33.879648
0
LINE
8
Layer 1
10
309.321780
20
32.344028
11
309.318780
21
32.273978
0
LINE
8
Layer 1
10
309.318780
20
32.273978
11
309.390580
21
32.273978
0
LINE
8
Layer 1
10
309.390580
20
32.273978
11
309.387580
21
32.344028
0
LINE
8
Layer 1
10
309.387580
20
32.344028
11
309.321780
21
32.344028
0
LINE
8
Layer 1
10
309.355880
20
37.647758
11
309.271480
21
37.545383
0
LINE
8
Layer 1
10
309.271480
20
37.545383
11
309.212180
21
37.432231
0
LINE
8
Layer 1
10
309.212180
20
37.432231
11
309.178080
21
37.311896
0
LINE
8
Layer 1
10
309.178080
20
37.311896
11
309.165680
21
37.187968
0
LINE
8
Layer 1
10
309.165680
20
37.187968
11
309.178080
21
37.064042
0
LINE
8
Layer 1
10
309.178080
20
37.064042
11
309.213980
21
36.941911
0
LINE
8
Layer 1
10
309.213980
20
36.941911
11
309.273280
21
36.828759
0
LINE
8
Layer 1
10
309.273280
20
36.828759
11
309.355880
21
36.728180
0
LINE
8
Layer 1
10
309.355880
20
36.728180
11
309.458240
21
36.643770
0
LINE
8
Layer 1
10
309.458240
20
36.643770
11
309.571380
21
36.584500
0
LINE
8
Layer 1
10
309.571380
20
36.584500
11
309.691740
21
36.550380
0
LINE
8
Layer 1
10
309.691740
20
36.550380
11
309.815640
21
36.537810
0
LINE
8
Layer 1
10
309.815640
20
36.537810
11
309.939570
21
36.550380
0
LINE
8
Layer 1
10
309.939570
20
36.550380
11
310.059910
21
36.584500
0
LINE
8
Layer 1
10
310.059910
20
36.584500
11
310.173070
21
36.643770
0
LINE
8
Layer 1
10
310.173070
20
36.643770
11
310.275440
21
36.728180
0
LINE
8
Layer 1
10
310.275440
20
36.728180
11
310.358040
21
36.828759
0
LINE
8
Layer 1
10
310.358040
20
36.828759
11
310.417340
21
36.941911
0
LINE
8
Layer 1
10
310.417340
20
36.941911
11
310.453240
21
37.064042
0
LINE
8
Layer 1
10
310.453240
20
37.064042
11
310.465640
21
37.187968
0
LINE
8
Layer 1
10
310.465640
20
37.187968
11
310.453240
21
37.311896
0
LINE
8
Layer 1
10
310.453240
20
37.311896
11
310.419140
21
37.432231
0
LINE
8
Layer 1
10
310.419140
20
37.432231
11
310.359840
21
37.545383
0
LINE
8
Layer 1
10
310.359840
20
37.545383
11
310.275440
21
37.647758
0
LINE
8
Layer 1
10
310.275440
20
37.647758
11
310.174870
21
37.730378
0
LINE
8
Layer 1
10
310.174870
20
37.730378
11
310.061710
21
37.789648
0
LINE
8
Layer 1
10
310.061710
20
37.789648
11
309.939570
21
37.825568
0
LINE
8
Layer 1
10
309.939570
20
37.825568
11
309.815640
21
37.838138
0
LINE
8
Layer 1
10
309.815640
20
37.838138
11
309.691740
21
37.825568
0
LINE
8
Layer 1
10
309.691740
20
37.825568
11
309.569610
21
37.789648
0
LINE
8
Layer 1
10
309.569610
20
37.789648
11
309.456440
21
37.730378
0
LINE
8
Layer 1
10
309.456440
20
37.730378
11
309.355880
21
37.647758
0
LINE
8
Layer 1
10
309.319980
20
35.833748
11
309.391780
21
35.833748
0
LINE
8
Layer 1
10
309.391780
20
35.833748
11
309.388780
21
35.903798
0
LINE
8
Layer 1
10
309.388780
20
35.903798
11
309.320580
21
35.903798
0
LINE
8
Layer 1
10
309.320580
20
35.903798
11
309.319980
21
35.833748
0
LINE
8
Layer 1
10
309.285180
20
32.380998
11
309.285180
21
32.310288
0
LINE
8
Layer 1
10
309.285180
20
32.310288
11
309.355880
21
32.310288
0
LINE
8
Layer 1
10
309.355880
20
32.310288
11
309.355880
21
32.380998
0
LINE
8
Layer 1
10
309.355880
20
32.380998
11
309.285180
21
32.380998
0
LINE
8
Layer 1
10
309.285180
20
32.380998
11
309.285180
21
32.380998
0
LINE
8
Layer 1
10
321.118280
20
37.832748
11
321.154180
21
37.954877
0
LINE
8
Layer 1
10
321.154180
20
37.954877
11
321.165080
21
38.077009
0
LINE
8
Layer 1
10
321.165080
20
38.077009
11
321.154180
21
38.202733
0
LINE
8
Layer 1
10
321.154180
20
38.202733
11
321.118280
21
38.321272
0
LINE
8
Layer 1
10
321.118280
20
38.321272
11
321.058980
21
38.434424
0
LINE
8
Layer 1
10
321.058980
20
38.434424
11
320.974580
21
38.536799
0
LINE
8
Layer 1
10
320.974580
20
38.536799
11
320.873990
21
38.619419
0
LINE
8
Layer 1
10
320.873990
20
38.619419
11
320.760850
21
38.678689
0
LINE
8
Layer 1
10
320.760850
20
38.678689
11
320.640500
21
38.716409
0
LINE
8
Layer 1
10
320.640500
20
38.716409
11
320.514790
21
38.727179
0
LINE
8
Layer 1
10
320.514790
20
38.727179
11
320.392660
21
38.716409
0
LINE
8
Layer 1
10
320.392660
20
38.716409
11
320.270530
21
38.680489
0
LINE
8
Layer 1
10
320.270530
20
38.680489
11
320.157370
21
38.621219
0
LINE
8
Layer 1
10
320.157370
20
38.621219
11
320.055000
21
38.536809
0
LINE
8
Layer 1
10
320.055000
20
38.536809
11
319.972400
21
38.436230
0
LINE
8
Layer 1
10
319.972400
20
38.436230
11
319.913100
21
38.323079
0
LINE
8
Layer 1
10
319.913100
20
38.323079
11
319.877200
21
38.200947
0
LINE
8
Layer 1
10
319.877200
20
38.200947
11
319.864500
21
38.077019
0
LINE
8
Layer 1
10
319.864500
20
38.077019
11
319.877200
21
37.953093
0
LINE
8
Layer 1
10
319.877200
20
37.953093
11
319.914900
21
37.832758
0
LINE
8
Layer 1
10
319.914900
20
37.832758
11
319.974200
21
37.719606
0
LINE
8
Layer 1
10
319.974200
20
37.719606
11
320.056800
21
37.619028
0
LINE
8
Layer 1
10
320.056800
20
37.619028
11
320.159170
21
37.534608
0
LINE
8
Layer 1
10
320.159170
20
37.534608
11
320.272330
21
37.475338
0
LINE
8
Layer 1
10
320.272330
20
37.475338
11
320.390860
21
37.439418
0
LINE
8
Layer 1
10
320.390860
20
37.439418
11
320.514790
21
37.426848
0
LINE
8
Layer 1
10
320.514790
20
37.426848
11
320.638720
21
37.439418
0
LINE
8
Layer 1
10
320.638720
20
37.439418
11
320.760850
21
37.475338
0
LINE
8
Layer 1
10
320.760850
20
37.475338
11
320.873990
21
37.534608
0
LINE
8
Layer 1
10
320.873990
20
37.534608
11
320.974580
21
37.617228
0
LINE
8
Layer 1
10
320.974580
20
37.617228
11
321.058980
21
37.719603
0
LINE
8
Layer 1
10
321.058980
20
37.719603
11
321.118280
21
37.832748
0
LINE
8
Layer 1
10
310.358180
20
35.765488
11
310.275580
21
35.866067
0
LINE
8
Layer 1
10
310.275580
20
35.866067
11
310.173210
21
35.950477
0
LINE
8
Layer 1
10
310.173210
20
35.950477
11
310.060050
21
36.009747
0
LINE
8
Layer 1
10
310.060050
20
36.009747
11
309.941510
21
36.045667
0
LINE
8
Layer 1
10
309.941510
20
36.045667
11
309.815780
21
36.056437
0
LINE
8
Layer 1
10
309.815780
20
36.056437
11
309.690080
21
36.045667
0
LINE
8
Layer 1
10
309.690080
20
36.045667
11
309.571520
21
36.009747
0
LINE
8
Layer 1
10
309.571520
20
36.009747
11
309.458380
21
35.950477
0
LINE
8
Layer 1
10
309.458380
20
35.950477
11
309.356020
21
35.866067
0
LINE
8
Layer 1
10
309.356020
20
35.866067
11
309.273420
21
35.765488
0
LINE
8
Layer 1
10
309.273420
20
35.765488
11
309.214120
21
35.652339
0
LINE
8
Layer 1
10
309.214120
20
35.652339
11
309.176420
21
35.532004
0
LINE
8
Layer 1
10
309.176420
20
35.532004
11
309.165520
21
35.406279
0
LINE
8
Layer 1
10
309.165520
20
35.406279
11
309.177920
21
35.282351
0
LINE
8
Layer 1
10
309.177920
20
35.282351
11
309.213820
21
35.163813
0
LINE
8
Layer 1
10
309.213820
20
35.163813
11
309.273120
21
35.050661
0
LINE
8
Layer 1
10
309.273120
20
35.050661
11
309.355720
21
34.946492
0
LINE
8
Layer 1
10
309.355720
20
34.946492
11
309.458090
21
34.865672
0
LINE
8
Layer 1
10
309.458090
20
34.865672
11
309.571230
21
34.806402
0
LINE
8
Layer 1
10
309.571230
20
34.806402
11
309.691590
21
34.768682
0
LINE
8
Layer 1
10
309.691590
20
34.768682
11
309.815490
21
34.756112
0
LINE
8
Layer 1
10
309.815490
20
34.756112
11
309.939420
21
34.768682
0
LINE
8
Layer 1
10
309.939420
20
34.768682
11
310.059750
21
34.806402
0
LINE
8
Layer 1
10
310.059750
20
34.806402
11
310.172920
21
34.865672
0
LINE
8
Layer 1
10
310.172920
20
34.865672
11
310.275280
21
34.946492
0
LINE
8
Layer 1
10
310.275280
20
34.946492
11
310.357880
21
35.050661
0
LINE
8
Layer 1
10
310.357880
20
35.050661
11
310.417180
21
35.163813
0
LINE
8
Layer 1
10
310.417180
20
35.163813
11
310.453080
21
35.282351
0
LINE
8
Layer 1
10
310.453080
20
35.282351
11
310.465480
21
35.406279
0
LINE
8
Layer 1
10
310.465480
20
35.406279
11
310.454580
21
35.532004
0
LINE
8
Layer 1
10
310.454580
20
35.532004
11
310.416880
21
35.652339
0
LINE
8
Layer 1
10
310.416880
20
35.652339
11
310.358180
21
35.765488
0
LINE
8
Layer 1
10
309.285240
20
35.941119
11
309.285240
21
35.870409
0
LINE
8
Layer 1
10
309.285240
20
35.870409
11
309.355940
21
35.870409
0
LINE
8
Layer 1
10
309.355940
20
35.870409
11
309.355940
21
35.941119
0
LINE
8
Layer 1
10
309.355940
20
35.941119
11
309.285240
21
35.941119
0
LINE
8
Layer 1
10
309.285240
20
35.941119
11
309.285240
21
35.941119
0
LINE
8
Layer 1
10
320.090940
20
31.453179
11
320.020840
21
31.455079
0
LINE
8
Layer 1
10
320.020840
20
31.455079
11
320.020840
21
31.383239
0
LINE
8
Layer 1
10
320.020840
20
31.383239
11
320.092640
21
31.383239
0
LINE
8
Layer 1
10
320.092640
20
31.383239
11
320.090940
21
31.453179
0
LINE
8
Layer 1
10
309.285240
20
37.721009
11
309.285240
21
37.650299
0
LINE
8
Layer 1
10
309.285240
20
37.650299
11
309.355940
21
37.650299
0
LINE
8
Layer 1
10
309.355940
20
37.650299
11
309.355940
21
37.721009
0
LINE
8
Layer 1
10
309.355940
20
37.721009
11
309.285240
21
37.721009
0
LINE
8
Layer 1
10
309.285240
20
37.721009
11
309.285240
21
37.721009
0
LINE
8
Layer 1
10
309.391890
20
37.683679
11
309.320090
21
37.683679
0
LINE
8
Layer 1
10
309.320090
20
37.683679
11
309.320090
21
37.611839
0
LINE
8
Layer 1
10
309.320090
20
37.611839
11
309.390090
21
37.613739
0
LINE
8
Layer 1
10
309.390090
20
37.613739
11
309.391890
21
37.683679
0
LINE
8
Layer 1
10
319.913190
20
36.541389
11
319.877290
21
36.422848
0
LINE
8
Layer 1
10
319.877290
20
36.422848
11
319.866390
21
36.297126
0
LINE
8
Layer 1
10
319.866390
20
36.297126
11
319.878790
21
36.173198
0
LINE
8
Layer 1
10
319.878790
20
36.173198
11
319.912890
21
36.052863
0
LINE
8
Layer 1
10
319.912890
20
36.052863
11
319.972190
21
35.939711
0
LINE
8
Layer 1
10
319.972190
20
35.939711
11
320.056590
21
35.837336
0
LINE
8
Layer 1
10
320.056590
20
35.837336
11
320.157160
21
35.754716
0
LINE
8
Layer 1
10
320.157160
20
35.754716
11
320.270320
21
35.695446
0
LINE
8
Layer 1
10
320.270320
20
35.695446
11
320.392450
21
35.659526
0
LINE
8
Layer 1
10
320.392450
20
35.659526
11
320.516390
21
35.646956
0
LINE
8
Layer 1
10
320.516390
20
35.646956
11
320.640290
21
35.659526
0
LINE
8
Layer 1
10
320.640290
20
35.659526
11
320.758850
21
35.695446
0
LINE
8
Layer 1
10
320.758850
20
35.695446
11
320.871990
21
35.754716
0
LINE
8
Layer 1
10
320.871990
20
35.754716
11
320.976150
21
35.837336
0
LINE
8
Layer 1
10
320.976150
20
35.837336
11
321.056950
21
35.939711
0
LINE
8
Layer 1
10
321.056950
20
35.939711
11
321.116250
21
36.052863
0
LINE
8
Layer 1
10
321.116250
20
36.052863
11
321.153950
21
36.173198
0
LINE
8
Layer 1
10
321.153950
20
36.173198
11
321.166650
21
36.297126
0
LINE
8
Layer 1
10
321.166650
20
36.297126
11
321.153950
21
36.421051
0
LINE
8
Layer 1
10
321.153950
20
36.421051
11
321.118050
21
36.543183
0
LINE
8
Layer 1
10
321.118050
20
36.543183
11
321.058750
21
36.656335
0
LINE
8
Layer 1
10
321.058750
20
36.656335
11
320.976150
21
36.756913
0
LINE
8
Layer 1
10
320.976150
20
36.756913
11
320.873780
21
36.841333
0
LINE
8
Layer 1
10
320.873780
20
36.841333
11
320.760650
21
36.900603
0
LINE
8
Layer 1
10
320.760650
20
36.900603
11
320.640290
21
36.934733
0
LINE
8
Layer 1
10
320.640290
20
36.934733
11
320.516390
21
36.947303
0
LINE
8
Layer 1
10
320.516390
20
36.947303
11
320.390660
21
36.936533
0
LINE
8
Layer 1
10
320.390660
20
36.936533
11
320.270320
21
36.898813
0
LINE
8
Layer 1
10
320.270320
20
36.898813
11
320.157160
21
36.839543
0
LINE
8
Layer 1
10
320.157160
20
36.839543
11
320.056590
21
36.756923
0
LINE
8
Layer 1
10
320.056590
20
36.756923
11
319.972190
21
36.654548
0
LINE
8
Layer 1
10
319.972190
20
36.654548
11
319.913190
21
36.541389
0
LINE
8
Layer 1
10
320.760940
20
44.020139
11
320.638810
21
44.056059
0
LINE
8
Layer 1
10
320.638810
20
44.056059
11
320.516680
21
44.066829
0
LINE
8
Layer 1
10
320.516680
20
44.066829
11
320.390950
21
44.056059
0
LINE
8
Layer 1
10
320.390950
20
44.056059
11
320.272420
21
44.020139
0
LINE
8
Layer 1
10
320.272420
20
44.020139
11
320.159260
21
43.960869
0
LINE
8
Layer 1
10
320.159260
20
43.960869
11
320.056890
21
43.876459
0
LINE
8
Layer 1
10
320.056890
20
43.876459
11
319.972490
21
43.774084
0
LINE
8
Layer 1
10
319.972490
20
43.774084
11
319.913190
21
43.660932
0
LINE
8
Layer 1
10
319.913190
20
43.660932
11
319.877290
21
43.542393
0
LINE
8
Layer 1
10
319.877290
20
43.542393
11
319.866390
21
43.416669
0
LINE
8
Layer 1
10
319.866390
20
43.416669
11
319.877290
21
43.294537
0
LINE
8
Layer 1
10
319.877290
20
43.294537
11
319.913190
21
43.172405
0
LINE
8
Layer 1
10
319.913190
20
43.172405
11
319.972490
21
43.059256
0
LINE
8
Layer 1
10
319.972490
20
43.059256
11
320.056890
21
42.956881
0
LINE
8
Layer 1
10
320.056890
20
42.956881
11
320.157460
21
42.874261
0
LINE
8
Layer 1
10
320.157460
20
42.874261
11
320.270620
21
42.814991
0
LINE
8
Layer 1
10
320.270620
20
42.814991
11
320.392750
21
42.779071
0
LINE
8
Layer 1
10
320.392750
20
42.779071
11
320.514880
21
42.768301
0
LINE
8
Layer 1
10
320.514880
20
42.768301
11
320.640590
21
42.779071
0
LINE
8
Layer 1
10
320.640590
20
42.779071
11
320.759140
21
42.814991
0
LINE
8
Layer 1
10
320.759140
20
42.814991
11
320.872280
21
42.874261
0
LINE
8
Layer 1
10
320.872280
20
42.874261
11
320.974670
21
42.958671
0
LINE
8
Layer 1
10
320.974670
20
42.958671
11
321.059070
21
43.061044
0
LINE
8
Layer 1
10
321.059070
20
43.061044
11
321.118370
21
43.174196
0
LINE
8
Layer 1
10
321.118370
20
43.174196
11
321.154270
21
43.292734
0
LINE
8
Layer 1
10
321.154270
20
43.292734
11
321.165170
21
43.418459
0
LINE
8
Layer 1
10
321.165170
20
43.418459
11
321.154270
21
43.540591
0
LINE
8
Layer 1
10
321.154270
20
43.540591
11
321.118370
21
43.662722
0
LINE
8
Layer 1
10
321.118370
20
43.662722
11
321.059070
21
43.775874
0
LINE
8
Layer 1
10
321.059070
20
43.775874
11
320.976470
21
43.876453
0
LINE
8
Layer 1
10
320.976470
20
43.876453
11
320.874100
21
43.960863
0
LINE
8
Layer 1
10
320.874100
20
43.960863
11
320.760940
21
44.020139
0
LINE
8
Layer 1
10
320.091020
20
33.163039
11
320.091020
21
33.234879
0
LINE
8
Layer 1
10
320.091020
20
33.234879
11
320.020920
21
33.232979
0
LINE
8
Layer 1
10
320.020920
20
33.232979
11
320.017920
21
33.162929
0
LINE
8
Layer 1
10
320.017920
20
33.162929
11
320.091020
21
33.163039
0
LINE
8
Layer 1
10
319.985270
20
36.831089
11
319.985270
21
36.760379
0
LINE
8
Layer 1
10
319.985270
20
36.760379
11
320.055970
21
36.760379
0
LINE
8
Layer 1
10
320.055970
20
36.760379
11
320.055970
21
36.831089
0
LINE
8
Layer 1
10
320.055970
20
36.831089
11
319.985270
21
36.831089
0
LINE
8
Layer 1
10
319.985270
20
36.831089
11
319.985270
21
36.831089
0
LINE
8
Layer 1
10
320.020970
20
35.014769
11
320.020970
21
34.942929
0
LINE
8
Layer 1
10
320.020970
20
34.942929
11
320.092770
21
34.942929
0
LINE
8
Layer 1
10
320.092770
20
34.942929
11
320.089770
21
35.012979
0
LINE
8
Layer 1
10
320.089770
20
35.012979
11
320.020970
21
35.014769
0
LINE
8
Layer 1
10
319.985270
20
31.491079
11
319.985270
21
31.420369
0
LINE
8
Layer 1
10
319.985270
20
31.420369
11
320.055970
21
31.420369
0
LINE
8
Layer 1
10
320.055970
20
31.420369
11
320.055970
21
31.491079
0
LINE
8
Layer 1
10
320.055970
20
31.491079
11
319.985270
21
31.491079
0
LINE
8
Layer 1
10
319.985270
20
31.491079
11
319.985270
21
31.491079
0
LINE
8
Layer 1
10
319.985450
20
33.271149
11
319.985450
21
33.200439
0
LINE
8
Layer 1
10
319.985450
20
33.200439
11
320.056150
21
33.200439
0
LINE
8
Layer 1
10
320.056150
20
33.200439
11
320.056150
21
33.271149
0
LINE
8
Layer 1
10
320.056150
20
33.271149
11
319.985450
21
33.271149
0
LINE
8
Layer 1
10
319.985450
20
33.271149
11
319.985450
21
33.271149
0
LINE
8
Layer 1
10
320.020950
20
38.502699
11
320.091050
21
38.504599
0
LINE
8
Layer 1
10
320.091050
20
38.504599
11
320.091050
21
38.572849
0
LINE
8
Layer 1
10
320.091050
20
38.572849
11
320.020950
21
38.574749
0
LINE
8
Layer 1
10
320.020950
20
38.574749
11
320.020950
21
38.502699
0
LINE
8
Layer 1
10
309.320050
20
41.243469
11
309.323050
21
41.173419
0
LINE
8
Layer 1
10
309.323050
20
41.173419
11
309.391250
21
41.173419
0
LINE
8
Layer 1
10
309.391250
20
41.173419
11
309.394250
21
41.243469
0
LINE
8
Layer 1
10
309.394250
20
41.243469
11
309.320050
21
41.243469
0
LINE
8
Layer 1
10
320.090950
20
36.794649
11
320.020850
21
36.792749
0
LINE
8
Layer 1
10
320.020850
20
36.792749
11
320.017850
21
36.722699
0
LINE
8
Layer 1
10
320.017850
20
36.722699
11
320.089750
21
36.722699
0
LINE
8
Layer 1
10
320.089750
20
36.722699
11
320.090950
21
36.794649
0
LINE
8
Layer 1
10
319.985350
20
38.611139
11
319.985350
21
38.540429
0
LINE
8
Layer 1
10
319.985350
20
38.540429
11
320.056050
21
38.540429
0
LINE
8
Layer 1
10
320.056050
20
38.540429
11
320.056050
21
38.611139
0
LINE
8
Layer 1
10
320.056050
20
38.611139
11
319.985350
21
38.611139
0
LINE
8
Layer 1
10
319.985350
20
38.611139
11
319.985350
21
38.611139
0
LINE
8
Layer 1
10
319.985350
20
35.051029
11
319.985350
21
34.980319
0
LINE
8
Layer 1
10
319.985350
20
34.980319
11
320.056050
21
34.980319
0
LINE
8
Layer 1
10
320.056050
20
34.980319
11
320.056050
21
35.051029
0
LINE
8
Layer 1
10
320.056050
20
35.051029
11
319.985350
21
35.051029
0
LINE
8
Layer 1
10
319.985350
20
35.051029
11
319.985350
21
35.051029
0
LINE
8
Layer 1
10
320.090950
20
42.132509
11
320.020850
21
42.134409
0
LINE
8
Layer 1
10
320.020850
20
42.134409
11
320.020850
21
42.062569
0
LINE
8
Layer 1
10
320.020850
20
42.062569
11
320.090950
21
42.064469
0
LINE
8
Layer 1
10
320.090950
20
42.064469
11
320.090950
21
42.132509
0
LINE
8
Layer 1
10
309.691850
20
39.607269
11
309.571490
21
39.569549
0
LINE
8
Layer 1
10
309.571490
20
39.569549
11
309.458350
21
39.510279
0
LINE
8
Layer 1
10
309.458350
20
39.510279
11
309.355990
21
39.425869
0
LINE
8
Layer 1
10
309.355990
20
39.425869
11
309.273390
21
39.325290
0
LINE
8
Layer 1
10
309.273390
20
39.325290
11
309.214090
21
39.212139
0
LINE
8
Layer 1
10
309.214090
20
39.212139
11
309.176390
21
39.091803
0
LINE
8
Layer 1
10
309.176390
20
39.091803
11
309.165490
21
38.966079
0
LINE
8
Layer 1
10
309.165490
20
38.966079
11
309.177890
21
38.842153
0
LINE
8
Layer 1
10
309.177890
20
38.842153
11
309.213790
21
38.723612
0
LINE
8
Layer 1
10
309.213790
20
38.723612
11
309.273090
21
38.610463
0
LINE
8
Layer 1
10
309.273090
20
38.610463
11
309.357490
21
38.508088
0
LINE
8
Layer 1
10
309.357490
20
38.508088
11
309.458080
21
38.425468
0
LINE
8
Layer 1
10
309.458080
20
38.425468
11
309.571220
21
38.366198
0
LINE
8
Layer 1
10
309.571220
20
38.366198
11
309.691580
21
38.328478
0
LINE
8
Layer 1
10
309.691580
20
38.328478
11
309.815480
21
38.315908
0
LINE
8
Layer 1
10
309.815480
20
38.315908
11
309.939410
21
38.328478
0
LINE
8
Layer 1
10
309.939410
20
38.328478
11
310.059740
21
38.366198
0
LINE
8
Layer 1
10
310.059740
20
38.366198
11
310.172910
21
38.425468
0
LINE
8
Layer 1
10
310.172910
20
38.425468
11
310.275270
21
38.506288
0
LINE
8
Layer 1
10
310.275270
20
38.506288
11
310.357870
21
38.610460
0
LINE
8
Layer 1
10
310.357870
20
38.610460
11
310.417170
21
38.723609
0
LINE
8
Layer 1
10
310.417170
20
38.723609
11
310.454870
21
38.843944
0
LINE
8
Layer 1
10
310.454870
20
38.843944
11
310.465770
21
38.966076
0
LINE
8
Layer 1
10
310.465770
20
38.966076
11
310.454870
21
39.091800
0
LINE
8
Layer 1
10
310.454870
20
39.091800
11
310.417170
21
39.212136
0
LINE
8
Layer 1
10
310.417170
20
39.212136
11
310.357870
21
39.325287
0
LINE
8
Layer 1
10
310.357870
20
39.325287
11
310.275270
21
39.425866
0
LINE
8
Layer 1
10
310.275270
20
39.425866
11
310.172910
21
39.510276
0
LINE
8
Layer 1
10
310.172910
20
39.510276
11
310.059740
21
39.569546
0
LINE
8
Layer 1
10
310.059740
20
39.569546
11
309.941210
21
39.605466
0
LINE
8
Layer 1
10
309.941210
20
39.605466
11
309.815480
21
39.616236
0
LINE
8
Layer 1
10
309.815480
20
39.616236
11
309.691850
21
39.607269
0
LINE
8
Layer 1
10
319.985250
20
42.171099
11
319.985250
21
42.100389
0
LINE
8
Layer 1
10
319.985250
20
42.100389
11
320.055950
21
42.100389
0
LINE
8
Layer 1
10
320.055950
20
42.100389
11
320.055950
21
42.171099
0
LINE
8
Layer 1
10
320.055950
20
42.171099
11
319.985250
21
42.171099
0
LINE
8
Layer 1
10
319.985250
20
42.171099
11
319.985250
21
42.171099
0
LINE
8
Layer 1
10
309.285450
20
39.501089
11
309.285450
21
39.430379
0
LINE
8
Layer 1
10
309.285450
20
39.430379
11
309.356150
21
39.430379
0
LINE
8
Layer 1
10
309.356150
20
39.430379
11
309.356150
21
39.501089
0
LINE
8
Layer 1
10
309.356150
20
39.501089
11
309.285450
21
39.501089
0
LINE
8
Layer 1
10
309.285450
20
39.501089
11
309.285450
21
39.501089
0
LINE
8
Layer 1
10
320.020950
20
43.912399
11
320.020950
21
43.844149
0
LINE
8
Layer 1
10
320.020950
20
43.844149
11
320.091050
21
43.842249
0
LINE
8
Layer 1
10
320.091050
20
43.842249
11
320.091050
21
43.914089
0
LINE
8
Layer 1
10
320.091050
20
43.914089
11
320.020950
21
43.912399
0
LINE
8
Layer 1
10
319.985450
20
43.951159
11
319.985450
21
43.880449
0
LINE
8
Layer 1
10
319.985450
20
43.880449
11
320.056150
21
43.880449
0
LINE
8
Layer 1
10
320.056150
20
43.880449
11
320.056150
21
43.951159
0
LINE
8
Layer 1
10
320.056150
20
43.951159
11
319.985450
21
43.951159
0
LINE
8
Layer 1
10
319.985450
20
43.951159
11
319.985450
21
43.951159
0
LINE
8
Layer 1
10
305.464000
20
48.630700
11
305.464000
21
26.625500
0
LINE
8
Layer 1
10
305.464000
20
26.625500
11
324.868500
21
26.625500
0
LINE
8
Layer 1
10
324.868500
20
26.625500
11
324.868500
21
48.630700
0
LINE
8
Layer 1
10
324.868500
20
48.630700
11
305.464000
21
48.630700
0
LINE
8
Layer 1
10
320.021000
20
40.284460
11
320.091100
21
40.282560
0
LINE
8
Layer 1
10
320.091100
20
40.282560
11
320.091100
21
40.354400
0
LINE
8
Layer 1
10
320.091100
20
40.354400
11
320.021000
21
40.352500
0
LINE
8
Layer 1
10
320.021000
20
40.352500
11
320.021000
21
40.284460
0
LINE
8
Layer 1
10
319.985500
20
40.391108
11
319.985500
21
40.320398
0
LINE
8
Layer 1
10
319.985500
20
40.320398
11
320.056200
21
40.320398
0
LINE
8
Layer 1
10
320.056200
20
40.320398
11
320.056200
21
40.391108
0
LINE
8
Layer 1
10
320.056200
20
40.391108
11
319.985500
21
40.391108
0
LINE
8
Layer 1
10
319.985500
20
40.391108
11
319.985500
21
40.391108
0
LINE
8
Layer 1
10
309.286000
20
34.161100
11
309.286000
21
34.090390
0
LINE
8
Layer 1
10
309.286000
20
34.090390
11
309.356700
21
34.090390
0
LINE
8
Layer 1
10
309.356700
20
34.090390
11
309.356700
21
34.161100
0
LINE
8
Layer 1
10
309.356700
20
34.161100
11
309.286000
21
34.161100
0
LINE
8
Layer 1
10
309.286000
20
34.161100
11
309.286000
21
34.161100
0
LINE
8
Layer 1
10
309.392470
20
39.393550
11
309.389470
21
39.463600
0
LINE
8
Layer 1
10
309.389470
20
39.463600
11
309.321270
21
39.463600
0
LINE
8
Layer 1
10
309.321270
20
39.463600
11
309.318270
21
39.393550
0
LINE
8
Layer 1
10
309.318270
20
39.393550
11
309.392470
21
39.393550
0
LINE
8
Layer 1
10
309.392470
20
34.052100
11
309.392470
21
34.123940
0
LINE
8
Layer 1
10
309.392470
20
34.123940
11
309.320670
21
34.123940
0
LINE
8
Layer 1
10
309.320670
20
34.123940
11
309.320670
21
34.052100
0
LINE
8
Layer 1
10
309.320670
20
34.052100
11
309.392470
21
34.052100
0
LINE
8
Layer 1
10
309.285820
20
41.281170
11
309.285820
21
41.210460
0
LINE
8
Layer 1
10
309.285820
20
41.210460
11
309.356520
21
41.210460
0
LINE
8
Layer 1
10
309.356520
20
41.210460
11
309.356520
21
41.281170
0
LINE
8
Layer 1
10
309.356520
20
41.281170
11
309.285820
21
41.281170
0
LINE
8
Layer 1
10
309.285820
20
41.281170
11
309.285820
21
41.281170
0
LINE
8
Layer 1
10
309.286000
20
44.841120
11
309.286000
21
44.770410
0
LINE
8
Layer 1
10
309.286000
20
44.770410
11
309.356700
21
44.770410
0
LINE
8
Layer 1
10
309.356700
20
44.770410
11
309.356700
21
44.841120
0
LINE
8
Layer 1
10
309.356700
20
44.841120
11
309.286000
21
44.841120
0
LINE
8
Layer 1
10
309.286000
20
44.841120
11
309.286000
21
44.841120
0
LINE
8
Layer 1
10
309.322400
20
43.023370
11
309.319400
21
42.953320
0
LINE
8
Layer 1
10
309.319400
20
42.953320
11
309.391200
21
42.953320
0
LINE
8
Layer 1
10
309.391200
20
42.953320
11
309.388200
21
43.023370
0
LINE
8
Layer 1
10
309.388200
20
43.023370
11
309.322400
21
43.023370
0
LINE
8
Layer 1
10
309.319400
20
44.803260
11
309.322400
21
44.733210
0
LINE
8
Layer 1
10
309.322400
20
44.733210
11
309.390600
21
44.733210
0
LINE
8
Layer 1
10
309.390600
20
44.733210
11
309.393600
21
44.803260
0
LINE
8
Layer 1
10
309.393600
20
44.803260
11
309.319400
21
44.803260
0
LINE
8
Layer 1
10
310.274890
20
43.847760
11
310.359290
21
43.950135
0
LINE
8
Layer 1
10
310.359290
20
43.950135
11
310.418590
21
44.063287
0
LINE
8
Layer 1
10
310.418590
20
44.063287
11
310.452690
21
44.183622
0
LINE
8
Layer 1
10
310.452690
20
44.183622
11
310.465090
21
44.307550
0
LINE
8
Layer 1
10
310.465090
20
44.307550
11
310.452690
21
44.431478
0
LINE
8
Layer 1
10
310.452690
20
44.431478
11
310.418590
21
44.551813
0
LINE
8
Layer 1
10
310.418590
20
44.551813
11
310.359290
21
44.664962
0
LINE
8
Layer 1
10
310.359290
20
44.664962
11
310.274890
21
44.767338
0
LINE
8
Layer 1
10
310.274890
20
44.767338
11
310.172520
21
44.851748
0
LINE
8
Layer 1
10
310.172520
20
44.851748
11
310.059360
21
44.911018
0
LINE
8
Layer 1
10
310.059360
20
44.911018
11
309.939030
21
44.945148
0
LINE
8
Layer 1
10
309.939030
20
44.945148
11
309.815100
21
44.957718
0
LINE
8
Layer 1
10
309.815100
20
44.957718
11
309.691190
21
44.945148
0
LINE
8
Layer 1
10
309.691190
20
44.945148
11
309.570830
21
44.911018
0
LINE
8
Layer 1
10
309.570830
20
44.911018
11
309.457700
21
44.851748
0
LINE
8
Layer 1
10
309.457700
20
44.851748
11
309.355330
21
44.767338
0
LINE
8
Layer 1
10
309.355330
20
44.767338
11
309.270930
21
44.664962
0
LINE
8
Layer 1
10
309.270930
20
44.664962
11
309.211630
21
44.551813
0
LINE
8
Layer 1
10
309.211630
20
44.551813
11
309.177530
21
44.431478
0
LINE
8
Layer 1
10
309.177530
20
44.431478
11
309.165130
21
44.307550
0
LINE
8
Layer 1
10
309.165130
20
44.307550
11
309.177530
21
44.183622
0
LINE
8
Layer 1
10
309.177530
20
44.183622
11
309.211630
21
44.063287
0
LINE
8
Layer 1
10
309.211630
20
44.063287
11
309.270930
21
43.950135
0
LINE
8
Layer 1
10
309.270930
20
43.950135
11
309.355330
21
43.847760
0
LINE
8
Layer 1
10
309.355330
20
43.847760
11
309.457700
21
43.763350
0
LINE
8
Layer 1
10
309.457700
20
43.763350
11
309.570830
21
43.704080
0
LINE
8
Layer 1
10
309.570830
20
43.704080
11
309.691190
21
43.669950
0
LINE
8
Layer 1
10
309.691190
20
43.669950
11
309.815100
21
43.657380
0
LINE
8
Layer 1
10
309.815100
20
43.657380
11
309.939030
21
43.669950
0
LINE
8
Layer 1
10
309.939030
20
43.669950
11
310.059360
21
43.704080
0
LINE
8
Layer 1
10
310.059360
20
43.704080
11
310.172520
21
43.763350
0
LINE
8
Layer 1
10
310.172520
20
43.763350
11
310.274890
21
43.847760
0
LINE
8
Layer 1
10
310.059360
20
43.129342
11
309.939030
21
43.167062
0
LINE
8
Layer 1
10
309.939030
20
43.167062
11
309.815100
21
43.176062
0
LINE
8
Layer 1
10
309.815100
20
43.176062
11
309.691190
21
43.167062
0
LINE
8
Layer 1
10
309.691190
20
43.167062
11
309.570830
21
43.129342
0
LINE
8
Layer 1
10
309.570830
20
43.129342
11
309.457700
21
43.070072
0
LINE
8
Layer 1
10
309.457700
20
43.070072
11
309.355330
21
42.985652
0
LINE
8
Layer 1
10
309.355330
20
42.985652
11
309.272730
21
42.885074
0
LINE
8
Layer 1
10
309.272730
20
42.885074
11
309.213430
21
42.771922
0
LINE
8
Layer 1
10
309.213430
20
42.771922
11
309.175730
21
42.651587
0
LINE
8
Layer 1
10
309.175730
20
42.651587
11
309.164930
21
42.525862
0
LINE
8
Layer 1
10
309.164930
20
42.525862
11
309.175730
21
42.403733
0
LINE
8
Layer 1
10
309.175730
20
42.403733
11
309.213430
21
42.283395
0
LINE
8
Layer 1
10
309.213430
20
42.283395
11
309.272730
21
42.170246
0
LINE
8
Layer 1
10
309.272730
20
42.170246
11
309.357130
21
42.067871
0
LINE
8
Layer 1
10
309.357130
20
42.067871
11
309.457730
21
41.985251
0
LINE
8
Layer 1
10
309.457730
20
41.985251
11
309.570860
21
41.925981
0
LINE
8
Layer 1
10
309.570860
20
41.925981
11
309.691220
21
41.888261
0
LINE
8
Layer 1
10
309.691220
20
41.888261
11
309.813350
21
41.877491
0
LINE
8
Layer 1
10
309.813350
20
41.877491
11
309.939060
21
41.888261
0
LINE
8
Layer 1
10
309.939060
20
41.888261
11
310.059390
21
41.925981
0
LINE
8
Layer 1
10
310.059390
20
41.925981
11
310.172550
21
41.985251
0
LINE
8
Layer 1
10
310.172550
20
41.985251
11
310.273120
21
42.067871
0
LINE
8
Layer 1
10
310.273120
20
42.067871
11
310.357520
21
42.170246
0
LINE
8
Layer 1
10
310.357520
20
42.170246
11
310.416820
21
42.283395
0
LINE
8
Layer 1
10
310.416820
20
42.283395
11
310.454520
21
42.403733
0
LINE
8
Layer 1
10
310.454520
20
42.403733
11
310.463520
21
42.527659
0
LINE
8
Layer 1
10
310.463520
20
42.527659
11
310.454520
21
42.651587
0
LINE
8
Layer 1
10
310.454520
20
42.651587
11
310.416820
21
42.771922
0
LINE
8
Layer 1
10
310.416820
20
42.771922
11
310.357520
21
42.885074
0
LINE
8
Layer 1
10
310.357520
20
42.885074
11
310.274920
21
42.985652
0
LINE
8
Layer 1
10
310.274920
20
42.985652
11
310.172550
21
43.070072
0
LINE
8
Layer 1
10
310.172550
20
43.070072
11
310.059360
21
43.129342
0
LINE
8
Layer 1
10
296.106460
20
56.590242
11
296.109460
21
56.690538
0
LINE
8
Layer 1
10
296.109460
20
56.690538
11
296.209770
21
56.692938
0
LINE
8
Layer 1
10
296.209770
20
56.692938
11
334.109170
21
56.692941
0
LINE
8
Layer 1
10
334.109170
20
56.692941
11
334.209470
21
56.690541
0
LINE
8
Layer 1
10
334.209470
20
56.690541
11
334.212470
21
56.590246
0
LINE
8
Layer 1
10
334.212470
20
56.590246
11
334.212470
21
18.690900
0
LINE
8
Layer 1
10
334.212470
20
18.690900
11
334.209470
21
18.590599
0
LINE
8
Layer 1
10
334.209470
20
18.590599
11
334.109170
21
18.588199
0
LINE
8
Layer 1
10
334.109170
20
18.588199
11
296.209770
21
18.588199
0
LINE
8
Layer 1
10
296.209770
20
18.588199
11
296.109460
21
18.590599
0
LINE
8
Layer 1
10
296.109460
20
18.590599
11
296.106460
21
18.690900
0
LINE
8
Layer 1
10
296.106460
20
18.690900
11
296.106460
21
56.590242
0
LINE
8
Layer 1
10
297.658900
20
53.640542
11
297.661900
21
53.566942
0
LINE
8
Layer 1
10
297.661900
20
53.566942
11
297.666900
21
53.493542
0
LINE
8
Layer 1
10
297.666900
20
53.493542
11
297.675900
21
53.420442
0
LINE
8
Layer 1
10
297.675900
20
53.420442
11
297.688600
21
53.347942
0
LINE
8
Layer 1
10
297.688600
20
53.347942
11
297.704700
21
53.276042
0
LINE
8
Layer 1
10
297.704700
20
53.276042
11
297.724300
21
53.205142
0
LINE
8
Layer 1
10
297.724300
20
53.205142
11
297.747300
21
53.135242
0
LINE
8
Layer 1
10
297.747300
20
53.135242
11
297.773800
21
53.066542
0
LINE
8
Layer 1
10
297.773800
20
53.066542
11
297.803600
21
52.999242
0
LINE
8
Layer 1
10
297.803600
20
52.999242
11
297.836700
21
52.933442
0
LINE
8
Layer 1
10
297.836700
20
52.933442
11
297.873000
21
52.869342
0
LINE
8
Layer 1
10
297.873000
20
52.869342
11
297.912400
21
52.807142
0
LINE
8
Layer 1
10
297.912400
20
52.807142
11
297.954800
21
52.747042
0
LINE
8
Layer 1
10
297.954800
20
52.747042
11
298.000100
21
52.688942
0
LINE
8
Layer 1
10
298.000100
20
52.688942
11
298.048200
21
52.633242
0
LINE
8
Layer 1
10
298.048200
20
52.633242
11
298.098900
21
52.579842
0
LINE
8
Layer 1
10
298.098900
20
52.579842
11
298.152300
21
52.529142
0
LINE
8
Layer 1
10
298.152300
20
52.529142
11
298.208000
21
52.481042
0
LINE
8
Layer 1
10
298.208000
20
52.481042
11
298.266100
21
52.435742
0
LINE
8
Layer 1
10
298.266100
20
52.435742
11
298.326200
21
52.393342
0
LINE
8
Layer 1
10
298.326200
20
52.393342
11
298.388400
21
52.353942
0
LINE
8
Layer 1
10
298.388400
20
52.353942
11
298.452500
21
52.317642
0
LINE
8
Layer 1
10
298.452500
20
52.317642
11
298.518300
21
52.284542
0
LINE
8
Layer 1
10
298.518300
20
52.284542
11
298.585600
21
52.254742
0
LINE
8
Layer 1
10
298.585600
20
52.254742
11
298.654300
21
52.228242
0
LINE
8
Layer 1
10
298.654300
20
52.228242
11
298.724200
21
52.205142
0
LINE
8
Layer 1
10
298.724200
20
52.205142
11
298.795100
21
52.185532
0
LINE
8
Layer 1
10
298.795100
20
52.185532
11
298.867000
21
52.169342
0
LINE
8
Layer 1
10
298.867000
20
52.169342
11
298.939500
21
52.156752
0
LINE
8
Layer 1
10
298.939500
20
52.156752
11
299.012600
21
52.147752
0
LINE
8
Layer 1
10
299.012600
20
52.147752
11
299.086000
21
52.142352
0
LINE
8
Layer 1
10
299.086000
20
52.142352
11
299.159600
21
52.140452
0
LINE
8
Layer 1
10
299.159600
20
52.140452
11
299.233200
21
52.142352
0
LINE
8
Layer 1
10
299.233200
20
52.142352
11
299.306600
21
52.147752
0
LINE
8
Layer 1
10
299.306600
20
52.147752
11
299.379700
21
52.156752
0
LINE
8
Layer 1
10
299.379700
20
52.156752
11
299.452200
21
52.169342
0
LINE
8
Layer 1
10
299.452200
20
52.169342
11
299.524100
21
52.185532
0
LINE
8
Layer 1
10
299.524100
20
52.185532
11
299.595000
21
52.205142
0
LINE
8
Layer 1
10
299.595000
20
52.205142
11
299.664900
21
52.228242
0
LINE
8
Layer 1
10
299.664900
20
52.228242
11
299.733600
21
52.254742
0
LINE
8
Layer 1
10
299.733600
20
52.254742
11
299.800900
21
52.284542
0
LINE
8
Layer 1
10
299.800900
20
52.284542
11
299.866700
21
52.317642
0
LINE
8
Layer 1
10
299.866700
20
52.317642
11
299.930800
21
52.353942
0
LINE
8
Layer 1
10
299.930800
20
52.353942
11
299.993000
21
52.393342
0
LINE
8
Layer 1
10
299.993000
20
52.393342
11
300.053100
21
52.435742
0
LINE
8
Layer 1
10
300.053100
20
52.435742
11
300.111200
21
52.481042
0
LINE
8
Layer 1
10
300.111200
20
52.481042
11
300.166900
21
52.529142
0
LINE
8
Layer 1
10
300.166900
20
52.529142
11
300.220300
21
52.579842
0
LINE
8
Layer 1
10
300.220300
20
52.579842
11
300.271000
21
52.633242
0
LINE
8
Layer 1
10
300.271000
20
52.633242
11
300.319100
21
52.688942
0
LINE
8
Layer 1
10
300.319100
20
52.688942
11
300.364400
21
52.747042
0
LINE
8
Layer 1
10
300.364400
20
52.747042
11
300.406800
21
52.807142
0
LINE
8
Layer 1
10
300.406800
20
52.807142
11
300.446200
21
52.869342
0
LINE
8
Layer 1
10
300.446200
20
52.869342
11
300.482500
21
52.933442
0
LINE
8
Layer 1
10
300.482500
20
52.933442
11
300.515600
21
52.999242
0
LINE
8
Layer 1
10
300.515600
20
52.999242
11
300.545400
21
53.066542
0
LINE
8
Layer 1
10
300.545400
20
53.066542
11
300.571900
21
53.135242
0
LINE
8
Layer 1
10
300.571900
20
53.135242
11
300.594900
21
53.205142
0
LINE
8
Layer 1
10
300.594900
20
53.205142
11
300.614500
21
53.276042
0
LINE
8
Layer 1
10
300.614500
20
53.276042
11
300.630600
21
53.347942
0
LINE
8
Layer 1
10
300.630600
20
53.347942
11
300.643300
21
53.420442
0
LINE
8
Layer 1
10
300.643300
20
53.420442
11
300.652300
21
53.493542
0
LINE
8
Layer 1
10
300.652300
20
53.493542
11
300.657300
21
53.566942
0
LINE
8
Layer 1
10
300.657300
20
53.566942
11
300.660300
21
53.640542
0
LINE
8
Layer 1
10
300.660300
20
53.640542
11
300.657300
21
53.714142
0
LINE
8
Layer 1
10
300.657300
20
53.714142
11
300.652300
21
53.787542
0
LINE
8
Layer 1
10
300.652300
20
53.787542
11
300.643300
21
53.860642
0
LINE
8
Layer 1
10
300.643300
20
53.860642
11
300.630600
21
53.933142
0
LINE
8
Layer 1
10
300.630600
20
53.933142
11
300.614500
21
54.005042
0
LINE
8
Layer 1
10
300.614500
20
54.005042
11
300.594900
21
54.075942
0
LINE
8
Layer 1
10
300.594900
20
54.075942
11
300.571900
21
54.145842
0
LINE
8
Layer 1
10
300.571900
20
54.145842
11
300.545400
21
54.214542
0
LINE
8
Layer 1
10
300.545400
20
54.214542
11
300.515600
21
54.281842
0
LINE
8
Layer 1
10
300.515600
20
54.281842
11
300.482500
21
54.347642
0
LINE
8
Layer 1
10
300.482500
20
54.347642
11
300.446200
21
54.411742
0
LINE
8
Layer 1
10
300.446200
20
54.411742
11
300.406800
21
54.473942
0
LINE
8
Layer 1
10
300.406800
20
54.473942
11
300.364400
21
54.534042
0
LINE
8
Layer 1
10
300.364400
20
54.534042
11
300.319100
21
54.592142
0
LINE
8
Layer 1
10
300.319100
20
54.592142
11
300.271000
21
54.647842
0
LINE
8
Layer 1
10
300.271000
20
54.647842
11
300.220300
21
54.701242
0
LINE
8
Layer 1
10
300.220300
20
54.701242
11
300.166900
21
54.751942
0
LINE
8
Layer 1
10
300.166900
20
54.751942
11
300.111200
21
54.800042
0
LINE
8
Layer 1
10
300.111200
20
54.800042
11
300.053100
21
54.845342
0
LINE
8
Layer 1
10
300.053100
20
54.845342
11
299.993000
21
54.887742
0
LINE
8
Layer 1
10
299.993000
20
54.887742
11
299.930800
21
54.927142
0
LINE
8
Layer 1
10
299.930800
20
54.927142
11
299.866700
21
54.963442
0
LINE
8
Layer 1
10
299.866700
20
54.963442
11
299.800900
21
54.996542
0
LINE
8
Layer 1
10
299.800900
20
54.996542
11
299.733600
21
55.026342
0
LINE
8
Layer 1
10
299.733600
20
55.026342
11
299.664900
21
55.052842
0
LINE
8
Layer 1
10
299.664900
20
55.052842
11
299.595000
21
55.075942
0
LINE
8
Layer 1
10
299.595000
20
55.075942
11
299.524100
21
55.095552
0
LINE
8
Layer 1
10
299.524100
20
55.095552
11
299.452200
21
55.111742
0
LINE
8
Layer 1
10
299.452200
20
55.111742
11
299.379700
21
55.124332
0
LINE
8
Layer 1
10
299.379700
20
55.124332
11
299.306600
21
55.133332
0
LINE
8
Layer 1
10
299.306600
20
55.133332
11
299.233200
21
55.138732
0
LINE
8
Layer 1
10
299.233200
20
55.138732
11
299.159600
21
55.140632
0
LINE
8
Layer 1
10
299.159600
20
55.140632
11
299.086000
21
55.138732
0
LINE
8
Layer 1
10
299.086000
20
55.138732
11
299.012600
21
55.133332
0
LINE
8
Layer 1
10
299.012600
20
55.133332
11
298.939500
21
55.124332
0
LINE
8
Layer 1
10
298.939500
20
55.124332
11
298.867000
21
55.111742
0
LINE
8
Layer 1
10
298.867000
20
55.111742
11
298.795100
21
55.095552
0
LINE
8
Layer 1
10
298.795100
20
55.095552
11
298.724200
21
55.075942
0
LINE
8
Layer 1
10
298.724200
20
55.075942
11
298.654300
21
55.052842
0
LINE
8
Layer 1
10
298.654300
20
55.052842
11
298.585600
21
55.026342
0
LINE
8
Layer 1
10
298.585600
20
55.026342
11
298.518300
21
54.996542
0
LINE
8
Layer 1
10
298.518300
20
54.996542
11
298.452500
21
54.963442
0
LINE
8
Layer 1
10
298.452500
20
54.963442
11
298.388400
21
54.927142
0
LINE
8
Layer 1
10
298.388400
20
54.927142
11
298.326200
21
54.887742
0
LINE
8
Layer 1
10
298.326200
20
54.887742
11
298.266100
21
54.845342
0
LINE
8
Layer 1
10
298.266100
20
54.845342
11
298.208000
21
54.800042
0
LINE
8
Layer 1
10
298.208000
20
54.800042
11
298.152300
21
54.751942
0
LINE
8
Layer 1
10
298.152300
20
54.751942
11
298.098900
21
54.701242
0
LINE
8
Layer 1
10
298.098900
20
54.701242
11
298.048200
21
54.647842
0
LINE
8
Layer 1
10
298.048200
20
54.647842
11
298.000100
21
54.592142
0
LINE
8
Layer 1
10
298.000100
20
54.592142
11
297.954800
21
54.534042
0
LINE
8
Layer 1
10
297.954800
20
54.534042
11
297.912400
21
54.473942
0
LINE
8
Layer 1
10
297.912400
20
54.473942
11
297.873000
21
54.411742
0
LINE
8
Layer 1
10
297.873000
20
54.411742
11
297.836700
21
54.347642
0
LINE
8
Layer 1
10
297.836700
20
54.347642
11
297.803600
21
54.281842
0
LINE
8
Layer 1
10
297.803600
20
54.281842
11
297.773800
21
54.214542
0
LINE
8
Layer 1
10
297.773800
20
54.214542
11
297.747300
21
54.145842
0
LINE
8
Layer 1
10
297.747300
20
54.145842
11
297.724300
21
54.075942
0
LINE
8
Layer 1
10
297.724300
20
54.075942
11
297.704700
21
54.005042
0
LINE
8
Layer 1
10
297.704700
20
54.005042
11
297.688600
21
53.933142
0
LINE
8
Layer 1
10
297.688600
20
53.933142
11
297.675900
21
53.860642
0
LINE
8
Layer 1
10
297.675900
20
53.860642
11
297.666900
21
53.787542
0
LINE
8
Layer 1
10
297.666900
20
53.787542
11
297.661900
21
53.714142
0
LINE
8
Layer 1
10
297.661900
20
53.714142
11
297.658900
21
53.640542
0
LINE
8
Layer 1
10
297.658900
20
21.640542
11
297.661900
21
21.566942
0
LINE
8
Layer 1
10
297.661900
20
21.566942
11
297.666900
21
21.493542
0
LINE
8
Layer 1
10
297.666900
20
21.493542
11
297.675900
21
21.420442
0
LINE
8
Layer 1
10
297.675900
20
21.420442
11
297.688600
21
21.347942
0
LINE
8
Layer 1
10
297.688600
20
21.347942
11
297.704700
21
21.276042
0
LINE
8
Layer 1
10
297.704700
20
21.276042
11
297.724300
21
21.205142
0
LINE
8
Layer 1
10
297.724300
20
21.205142
11
297.747300
21
21.135242
0
LINE
8
Layer 1
10
297.747300
20
21.135242
11
297.773800
21
21.066542
0
LINE
8
Layer 1
10
297.773800
20
21.066542
11
297.803600
21
20.999242
0
LINE
8
Layer 1
10
297.803600
20
20.999242
11
297.836700
21
20.933442
0
LINE
8
Layer 1
10
297.836700
20
20.933442
11
297.873000
21
20.869342
0
LINE
8
Layer 1
10
297.873000
20
20.869342
11
297.912400
21
20.807142
0
LINE
8
Layer 1
10
297.912400
20
20.807142
11
297.954800
21
20.747042
0
LINE
8
Layer 1
10
297.954800
20
20.747042
11
298.000100
21
20.688942
0
LINE
8
Layer 1
10
298.000100
20
20.688942
11
298.048200
21
20.633242
0
LINE
8
Layer 1
10
298.048200
20
20.633242
11
298.098900
21
20.579842
0
LINE
8
Layer 1
10
298.098900
20
20.579842
11
298.152300
21
20.529142
0
LINE
8
Layer 1
10
298.152300
20
20.529142
11
298.208000
21
20.481042
0
LINE
8
Layer 1
10
298.208000
20
20.481042
11
298.266100
21
20.435742
0
LINE
8
Layer 1
10
298.266100
20
20.435742
11
298.326200
21
20.393342
0
LINE
8
Layer 1
10
298.326200
20
20.393342
11
298.388400
21
20.353942
0
LINE
8
Layer 1
10
298.388400
20
20.353942
11
298.452500
21
20.317642
0
LINE
8
Layer 1
10
298.452500
20
20.317642
11
298.518300
21
20.284542
0
LINE
8
Layer 1
10
298.518300
20
20.284542
11
298.585600
21
20.254742
0
LINE
8
Layer 1
10
298.585600
20
20.254742
11
298.654300
21
20.228242
0
LINE
8
Layer 1
10
298.654300
20
20.228242
11
298.724200
21
20.205142
0
LINE
8
Layer 1
10
298.724200
20
20.205142
11
298.795100
21
20.185542
0
LINE
8
Layer 1
10
298.795100
20
20.185542
11
298.867000
21
20.169342
0
LINE
8
Layer 1
10
298.867000
20
20.169342
11
298.939500
21
20.156742
0
LINE
8
Layer 1
10
298.939500
20
20.156742
11
299.012600
21
20.147742
0
LINE
8
Layer 1
10
299.012600
20
20.147742
11
299.086000
21
20.142342
0
LINE
8
Layer 1
10
299.086000
20
20.142342
11
299.159600
21
20.140542
0
LINE
8
Layer 1
10
299.159600
20
20.140542
11
299.233200
21
20.142342
0
LINE
8
Layer 1
10
299.233200
20
20.142342
11
299.306600
21
20.147742
0
LINE
8
Layer 1
10
299.306600
20
20.147742
11
299.379700
21
20.156742
0
LINE
8
Layer 1
10
299.379700
20
20.156742
11
299.452200
21
20.169342
0
LINE
8
Layer 1
10
299.452200
20
20.169342
11
299.524100
21
20.185542
0
LINE
8
Layer 1
10
299.524100
20
20.185542
11
299.595000
21
20.205142
0
LINE
8
Layer 1
10
299.595000
20
20.205142
11
299.664900
21
20.228242
0
LINE
8
Layer 1
10
299.664900
20
20.228242
11
299.733600
21
20.254742
0
LINE
8
Layer 1
10
299.733600
20
20.254742
11
299.800900
21
20.284542
0
LINE
8
Layer 1
10
299.800900
20
20.284542
11
299.866700
21
20.317642
0
LINE
8
Layer 1
10
299.866700
20
20.317642
11
299.930800
21
20.353942
0
LINE
8
Layer 1
10
299.930800
20
20.353942
11
299.993000
21
20.393342
0
LINE
8
Layer 1
10
299.993000
20
20.393342
11
300.053100
21
20.435742
0
LINE
8
Layer 1
10
300.053100
20
20.435742
11
300.111200
21
20.481042
0
LINE
8
Layer 1
10
300.111200
20
20.481042
11
300.166900
21
20.529142
0
LINE
8
Layer 1
10
300.166900
20
20.529142
11
300.220300
21
20.579842
0
LINE
8
Layer 1
10
300.220300
20
20.579842
11
300.271000
21
20.633242
0
LINE
8
Layer 1
10
300.271000
20
20.633242
11
300.319100
21
20.688942
0
LINE
8
Layer 1
10
300.319100
20
20.688942
11
300.364400
21
20.747042
0
LINE
8
Layer 1
10
300.364400
20
20.747042
11
300.406800
21
20.807142
0
LINE
8
Layer 1
10
300.406800
20
20.807142
11
300.446200
21
20.869342
0
LINE
8
Layer 1
10
300.446200
20
20.869342
11
300.482500
21
20.933442
0
LINE
8
Layer 1
10
300.482500
20
20.933442
11
300.515600
21
20.999242
0
LINE
8
Layer 1
10
300.515600
20
20.999242
11
300.545400
21
21.066542
0
LINE
8
Layer 1
10
300.545400
20
21.066542
11
300.571900
21
21.135242
0
LINE
8
Layer 1
10
300.571900
20
21.135242
11
300.594900
21
21.205142
0
LINE
8
Layer 1
10
300.594900
20
21.205142
11
300.614500
21
21.276042
0
LINE
8
Layer 1
10
300.614500
20
21.276042
11
300.630600
21
21.347942
0
LINE
8
Layer 1
10
300.630600
20
21.347942
11
300.643300
21
21.420442
0
LINE
8
Layer 1
10
300.643300
20
21.420442
11
300.652300
21
21.493542
0
LINE
8
Layer 1
10
300.652300
20
21.493542
11
300.657300
21
21.566942
0
LINE
8
Layer 1
10
300.657300
20
21.566942
11
300.660300
21
21.640542
0
LINE
8
Layer 1
10
300.660300
20
21.640542
11
300.657300
21
21.714142
0
LINE
8
Layer 1
10
300.657300
20
21.714142
11
300.652300
21
21.787542
0
LINE
8
Layer 1
10
300.652300
20
21.787542
11
300.643300
21
21.860642
0
LINE
8
Layer 1
10
300.643300
20
21.860642
11
300.630600
21
21.933142
0
LINE
8
Layer 1
10
300.630600
20
21.933142
11
300.614500
21
22.005042
0
LINE
8
Layer 1
10
300.614500
20
22.005042
11
300.594900
21
22.075942
0
LINE
8
Layer 1
10
300.594900
20
22.075942
11
300.571900
21
22.145842
0
LINE
8
Layer 1
10
300.571900
20
22.145842
11
300.545400
21
22.214542
0
LINE
8
Layer 1
10
300.545400
20
22.214542
11
300.515600
21
22.281842
0
LINE
8
Layer 1
10
300.515600
20
22.281842
11
300.482500
21
22.347642
0
LINE
8
Layer 1
10
300.482500
20
22.347642
11
300.446200
21
22.411742
0
LINE
8
Layer 1
10
300.446200
20
22.411742
11
300.406800
21
22.473942
0
LINE
8
Layer 1
10
300.406800
20
22.473942
11
300.364400
21
22.534042
0
LINE
8
Layer 1
10
300.364400
20
22.534042
11
300.319100
21
22.592142
0
LINE
8
Layer 1
10
300.319100
20
22.592142
11
300.271000
21
22.647842
0
LINE
8
Layer 1
10
300.271000
20
22.647842
11
300.220300
21
22.701242
0
LINE
8
Layer 1
10
300.220300
20
22.701242
11
300.166900
21
22.751942
0
LINE
8
Layer 1
10
300.166900
20
22.751942
11
300.111200
21
22.800042
0
LINE
8
Layer 1
10
300.111200
20
22.800042
11
300.053100
21
22.845342
0
LINE
8
Layer 1
10
300.053100
20
22.845342
11
299.993000
21
22.887742
0
LINE
8
Layer 1
10
299.993000
20
22.887742
11
299.930800
21
22.927142
0
LINE
8
Layer 1
10
299.930800
20
22.927142
11
299.866700
21
22.963442
0
LINE
8
Layer 1
10
299.866700
20
22.963442
11
299.800900
21
22.996542
0
LINE
8
Layer 1
10
299.800900
20
22.996542
11
299.733600
21
23.026342
0
LINE
8
Layer 1
10
299.733600
20
23.026342
11
299.664900
21
23.052842
0
LINE
8
Layer 1
10
299.664900
20
23.052842
11
299.595000
21
23.075942
0
LINE
8
Layer 1
10
299.595000
20
23.075942
11
299.524100
21
23.095542
0
LINE
8
Layer 1
10
299.524100
20
23.095542
11
299.452200
21
23.111742
0
LINE
8
Layer 1
10
299.452200
20
23.111742
11
299.379700
21
23.124342
0
LINE
8
Layer 1
10
299.379700
20
23.124342
11
299.306600
21
23.133342
0
LINE
8
Layer 1
10
299.306600
20
23.133342
11
299.233200
21
23.138742
0
LINE
8
Layer 1
10
299.233200
20
23.138742
11
299.159600
21
23.140542
0
LINE
8
Layer 1
10
299.159600
20
23.140542
11
299.086000
21
23.138742
0
LINE
8
Layer 1
10
299.086000
20
23.138742
11
299.012600
21
23.133342
0
LINE
8
Layer 1
10
299.012600
20
23.133342
11
298.939500
21
23.124342
0
LINE
8
Layer 1
10
298.939500
20
23.124342
11
298.867000
21
23.111742
0
LINE
8
Layer 1
10
298.867000
20
23.111742
11
298.795100
21
23.095542
0
LINE
8
Layer 1
10
298.795100
20
23.095542
11
298.724200
21
23.075942
0
LINE
8
Layer 1
10
298.724200
20
23.075942
11
298.654300
21
23.052842
0
LINE
8
Layer 1
10
298.654300
20
23.052842
11
298.585600
21
23.026342
0
LINE
8
Layer 1
10
298.585600
20
23.026342
11
298.518300
21
22.996542
0
LINE
8
Layer 1
10
298.518300
20
22.996542
11
298.452500
21
22.963442
0
LINE
8
Layer 1
10
298.452500
20
22.963442
11
298.388400
21
22.927142
0
LINE
8
Layer 1
10
298.388400
20
22.927142
11
298.326200
21
22.887742
0
LINE
8
Layer 1
10
298.326200
20
22.887742
11
298.266100
21
22.845342
0
LINE
8
Layer 1
10
298.266100
20
22.845342
11
298.208000
21
22.800042
0
LINE
8
Layer 1
10
298.208000
20
22.800042
11
298.152300
21
22.751942
0
LINE
8
Layer 1
10
298.152300
20
22.751942
11
298.098900
21
22.701242
0
LINE
8
Layer 1
10
298.098900
20
22.701242
11
298.048200
21
22.647842
0
LINE
8
Layer 1
10
298.048200
20
22.647842
11
298.000100
21
22.592142
0
LINE
8
Layer 1
10
298.000100
20
22.592142
11
297.954800
21
22.534042
0
LINE
8
Layer 1
10
297.954800
20
22.534042
11
297.912400
21
22.473942
0
LINE
8
Layer 1
10
297.912400
20
22.473942
11
297.873000
21
22.411742
0
LINE
8
Layer 1
10
297.873000
20
22.411742
11
297.836700
21
22.347642
0
LINE
8
Layer 1
10
297.836700
20
22.347642
11
297.803600
21
22.281842
0
LINE
8
Layer 1
10
297.803600
20
22.281842
11
297.773800
21
22.214542
0
LINE
8
Layer 1
10
297.773800
20
22.214542
11
297.747300
21
22.145842
0
LINE
8
Layer 1
10
297.747300
20
22.145842
11
297.724300
21
22.075942
0
LINE
8
Layer 1
10
297.724300
20
22.075942
11
297.704700
21
22.005042
0
LINE
8
Layer 1
10
297.704700
20
22.005042
11
297.688600
21
21.933142
0
LINE
8
Layer 1
10
297.688600
20
21.933142
11
297.675900
21
21.860642
0
LINE
8
Layer 1
10
297.675900
20
21.860642
11
297.666900
21
21.787542
0
LINE
8
Layer 1
10
297.666900
20
21.787542
11
297.661900
21
21.714142
0
LINE
8
Layer 1
10
297.661900
20
21.714142
11
297.658900
21
21.640542
0
LINE
8
Layer 1
10
329.658900
20
53.640542
11
329.661900
21
53.566942
0
LINE
8
Layer 1
10
329.661900
20
53.566942
11
329.666900
21
53.493542
0
LINE
8
Layer 1
10
329.666900
20
53.493542
11
329.675900
21
53.420442
0
LINE
8
Layer 1
10
329.675900
20
53.420442
11
329.688600
21
53.347942
0
LINE
8
Layer 1
10
329.688600
20
53.347942
11
329.704700
21
53.276042
0
LINE
8
Layer 1
10
329.704700
20
53.276042
11
329.724300
21
53.205142
0
LINE
8
Layer 1
10
329.724300
20
53.205142
11
329.747300
21
53.135242
0
LINE
8
Layer 1
10
329.747300
20
53.135242
11
329.773800
21
53.066542
0
LINE
8
Layer 1
10
329.773800
20
53.066542
11
329.803600
21
52.999242
0
LINE
8
Layer 1
10
329.803600
20
52.999242
11
329.836700
21
52.933442
0
LINE
8
Layer 1
10
329.836700
20
52.933442
11
329.873000
21
52.869342
0
LINE
8
Layer 1
10
329.873000
20
52.869342
11
329.912400
21
52.807142
0
LINE
8
Layer 1
10
329.912400
20
52.807142
11
329.954800
21
52.747042
0
LINE
8
Layer 1
10
329.954800
20
52.747042
11
330.000100
21
52.688942
0
LINE
8
Layer 1
10
330.000100
20
52.688942
11
330.048200
21
52.633242
0
LINE
8
Layer 1
10
330.048200
20
52.633242
11
330.098900
21
52.579842
0
LINE
8
Layer 1
10
330.098900
20
52.579842
11
330.152300
21
52.529142
0
LINE
8
Layer 1
10
330.152300
20
52.529142
11
330.208000
21
52.481042
0
LINE
8
Layer 1
10
330.208000
20
52.481042
11
330.266100
21
52.435742
0
LINE
8
Layer 1
10
330.266100
20
52.435742
11
330.326200
21
52.393342
0
LINE
8
Layer 1
10
330.326200
20
52.393342
11
330.388400
21
52.353942
0
LINE
8
Layer 1
10
330.388400
20
52.353942
11
330.452500
21
52.317642
0
LINE
8
Layer 1
10
330.452500
20
52.317642
11
330.518300
21
52.284542
0
LINE
8
Layer 1
10
330.518300
20
52.284542
11
330.585600
21
52.254742
0
LINE
8
Layer 1
10
330.585600
20
52.254742
11
330.654300
21
52.228242
0
LINE
8
Layer 1
10
330.654300
20
52.228242
11
330.724200
21
52.205142
0
LINE
8
Layer 1
10
330.724200
20
52.205142
11
330.795100
21
52.185532
0
LINE
8
Layer 1
10
330.795100
20
52.185532
11
330.867000
21
52.169342
0
LINE
8
Layer 1
10
330.867000
20
52.169342
11
330.939500
21
52.156752
0
LINE
8
Layer 1
10
330.939500
20
52.156752
11
331.012600
21
52.147752
0
LINE
8
Layer 1
10
331.012600
20
52.147752
11
331.086000
21
52.142352
0
LINE
8
Layer 1
10
331.086000
20
52.142352
11
331.159600
21
52.140452
0
LINE
8
Layer 1
10
331.159600
20
52.140452
11
331.233200
21
52.142352
0
LINE
8
Layer 1
10
331.233200
20
52.142352
11
331.306600
21
52.147752
0
LINE
8
Layer 1
10
331.306600
20
52.147752
11
331.379700
21
52.156752
0
LINE
8
Layer 1
10
331.379700
20
52.156752
11
331.452200
21
52.169342
0
LINE
8
Layer 1
10
331.452200
20
52.169342
11
331.524100
21
52.185532
0
LINE
8
Layer 1
10
331.524100
20
52.185532
11
331.595000
21
52.205142
0
LINE
8
Layer 1
10
331.595000
20
52.205142
11
331.664900
21
52.228242
0
LINE
8
Layer 1
10
331.664900
20
52.228242
11
331.733600
21
52.254742
0
LINE
8
Layer 1
10
331.733600
20
52.254742
11
331.800900
21
52.284542
0
LINE
8
Layer 1
10
331.800900
20
52.284542
11
331.866700
21
52.317642
0
LINE
8
Layer 1
10
331.866700
20
52.317642
11
331.930800
21
52.353942
0
LINE
8
Layer 1
10
331.930800
20
52.353942
11
331.993000
21
52.393342
0
LINE
8
Layer 1
10
331.993000
20
52.393342
11
332.053100
21
52.435742
0
LINE
8
Layer 1
10
332.053100
20
52.435742
11
332.111200
21
52.481042
0
LINE
8
Layer 1
10
332.111200
20
52.481042
11
332.166900
21
52.529142
0
LINE
8
Layer 1
10
332.166900
20
52.529142
11
332.220300
21
52.579842
0
LINE
8
Layer 1
10
332.220300
20
52.579842
11
332.271000
21
52.633242
0
LINE
8
Layer 1
10
332.271000
20
52.633242
11
332.319100
21
52.688942
0
LINE
8
Layer 1
10
332.319100
20
52.688942
11
332.364400
21
52.747042
0
LINE
8
Layer 1
10
332.364400
20
52.747042
11
332.406800
21
52.807142
0
LINE
8
Layer 1
10
332.406800
20
52.807142
11
332.446200
21
52.869342
0
LINE
8
Layer 1
10
332.446200
20
52.869342
11
332.482500
21
52.933442
0
LINE
8
Layer 1
10
332.482500
20
52.933442
11
332.515600
21
52.999242
0
LINE
8
Layer 1
10
332.515600
20
52.999242
11
332.545400
21
53.066542
0
LINE
8
Layer 1
10
332.545400
20
53.066542
11
332.571900
21
53.135242
0
LINE
8
Layer 1
10
332.571900
20
53.135242
11
332.594900
21
53.205142
0
LINE
8
Layer 1
10
332.594900
20
53.205142
11
332.614500
21
53.276042
0
LINE
8
Layer 1
10
332.614500
20
53.276042
11
332.630600
21
53.347942
0
LINE
8
Layer 1
10
332.630600
20
53.347942
11
332.643300
21
53.420442
0
LINE
8
Layer 1
10
332.643300
20
53.420442
11
332.652300
21
53.493542
0
LINE
8
Layer 1
10
332.652300
20
53.493542
11
332.657300
21
53.566942
0
LINE
8
Layer 1
10
332.657300
20
53.566942
11
332.660300
21
53.640542
0
LINE
8
Layer 1
10
332.660300
20
53.640542
11
332.657300
21
53.714142
0
LINE
8
Layer 1
10
332.657300
20
53.714142
11
332.652300
21
53.787542
0
LINE
8
Layer 1
10
332.652300
20
53.787542
11
332.643300
21
53.860642
0
LINE
8
Layer 1
10
332.643300
20
53.860642
11
332.630600
21
53.933142
0
LINE
8
Layer 1
10
332.630600
20
53.933142
11
332.614500
21
54.005042
0
LINE
8
Layer 1
10
332.614500
20
54.005042
11
332.594900
21
54.075942
0
LINE
8
Layer 1
10
332.594900
20
54.075942
11
332.571900
21
54.145842
0
LINE
8
Layer 1
10
332.571900
20
54.145842
11
332.545400
21
54.214542
0
LINE
8
Layer 1
10
332.545400
20
54.214542
11
332.515600
21
54.281842
0
LINE
8
Layer 1
10
332.515600
20
54.281842
11
332.482500
21
54.347642
0
LINE
8
Layer 1
10
332.482500
20
54.347642
11
332.446200
21
54.411742
0
LINE
8
Layer 1
10
332.446200
20
54.411742
11
332.406800
21
54.473942
0
LINE
8
Layer 1
10
332.406800
20
54.473942
11
332.364400
21
54.534042
0
LINE
8
Layer 1
10
332.364400
20
54.534042
11
332.319100
21
54.592142
0
LINE
8
Layer 1
10
332.319100
20
54.592142
11
332.271000
21
54.647842
0
LINE
8
Layer 1
10
332.271000
20
54.647842
11
332.220300
21
54.701242
0
LINE
8
Layer 1
10
332.220300
20
54.701242
11
332.166900
21
54.751942
0
LINE
8
Layer 1
10
332.166900
20
54.751942
11
332.111200
21
54.800042
0
LINE
8
Layer 1
10
332.111200
20
54.800042
11
332.053100
21
54.845342
0
LINE
8
Layer 1
10
332.053100
20
54.845342
11
331.993000
21
54.887742
0
LINE
8
Layer 1
10
331.993000
20
54.887742
11
331.930800
21
54.927142
0
LINE
8
Layer 1
10
331.930800
20
54.927142
11
331.866700
21
54.963442
0
LINE
8
Layer 1
10
331.866700
20
54.963442
11
331.800900
21
54.996542
0
LINE
8
Layer 1
10
331.800900
20
54.996542
11
331.733600
21
55.026342
0
LINE
8
Layer 1
10
331.733600
20
55.026342
11
331.664900
21
55.052842
0
LINE
8
Layer 1
10
331.664900
20
55.052842
11
331.595000
21
55.075942
0
LINE
8
Layer 1
10
331.595000
20
55.075942
11
331.524100
21
55.095552
0
LINE
8
Layer 1
10
331.524100
20
55.095552
11
331.452200
21
55.111742
0
LINE
8
Layer 1
10
331.452200
20
55.111742
11
331.379700
21
55.124332
0
LINE
8
Layer 1
10
331.379700
20
55.124332
11
331.306600
21
55.133332
0
LINE
8
Layer 1
10
331.306600
20
55.133332
11
331.233200
21
55.138732
0
LINE
8
Layer 1
10
331.233200
20
55.138732
11
331.159600
21
55.140632
0
LINE
8
Layer 1
10
331.159600
20
55.140632
11
331.086000
21
55.138732
0
LINE
8
Layer 1
10
331.086000
20
55.138732
11
331.012600
21
55.133332
0
LINE
8
Layer 1
10
331.012600
20
55.133332
11
330.939500
21
55.124332
0
LINE
8
Layer 1
10
330.939500
20
55.124332
11
330.867000
21
55.111742
0
LINE
8
Layer 1
10
330.867000
20
55.111742
11
330.795100
21
55.095552
0
LINE
8
Layer 1
10
330.795100
20
55.095552
11
330.724200
21
55.075942
0
LINE
8
Layer 1
10
330.724200
20
55.075942
11
330.654300
21
55.052842
0
LINE
8
Layer 1
10
330.654300
20
55.052842
11
330.585600
21
55.026342
0
LINE
8
Layer 1
10
330.585600
20
55.026342
11
330.518300
21
54.996542
0
LINE
8
Layer 1
10
330.518300
20
54.996542
11
330.452500
21
54.963442
0
LINE
8
Layer 1
10
330.452500
20
54.963442
11
330.388400
21
54.927142
0
LINE
8
Layer 1
10
330.388400
20
54.927142
11
330.326200
21
54.887742
0
LINE
8
Layer 1
10
330.326200
20
54.887742
11
330.266100
21
54.845342
0
LINE
8
Layer 1
10
330.266100
20
54.845342
11
330.208000
21
54.800042
0
LINE
8
Layer 1
10
330.208000
20
54.800042
11
330.152300
21
54.751942
0
LINE
8
Layer 1
10
330.152300
20
54.751942
11
330.098900
21
54.701242
0
LINE
8
Layer 1
10
330.098900
20
54.701242
11
330.048200
21
54.647842
0
LINE
8
Layer 1
10
330.048200
20
54.647842
11
330.000100
21
54.592142
0
LINE
8
Layer 1
10
330.000100
20
54.592142
11
329.954800
21
54.534042
0
LINE
8
Layer 1
10
329.954800
20
54.534042
11
329.912400
21
54.473942
0
LINE
8
Layer 1
10
329.912400
20
54.473942
11
329.873000
21
54.411742
0
LINE
8
Layer 1
10
329.873000
20
54.411742
11
329.836700
21
54.347642
0
LINE
8
Layer 1
10
329.836700
20
54.347642
11
329.803600
21
54.281842
0
LINE
8
Layer 1
10
329.803600
20
54.281842
11
329.773800
21
54.214542
0
LINE
8
Layer 1
10
329.773800
20
54.214542
11
329.747300
21
54.145842
0
LINE
8
Layer 1
10
329.747300
20
54.145842
11
329.724300
21
54.075942
0
LINE
8
Layer 1
10
329.724300
20
54.075942
11
329.704700
21
54.005042
0
LINE
8
Layer 1
10
329.704700
20
54.005042
11
329.688600
21
53.933142
0
LINE
8
Layer 1
10
329.688600
20
53.933142
11
329.675900
21
53.860642
0
LINE
8
Layer 1
10
329.675900
20
53.860642
11
329.666900
21
53.787542
0
LINE
8
Layer 1
10
329.666900
20
53.787542
11
329.661900
21
53.714142
0
LINE
8
Layer 1
10
329.661900
20
53.714142
11
329.658900
21
53.640542
0
LINE
8
Layer 1
10
329.658870
20
21.640542
11
329.661870
21
21.566942
0
LINE
8
Layer 1
10
329.661870
20
21.566942
11
329.666870
21
21.493542
0
LINE
8
Layer 1
10
329.666870
20
21.493542
11
329.675870
21
21.420442
0
LINE
8
Layer 1
10
329.675870
20
21.420442
11
329.688570
21
21.347942
0
LINE
8
Layer 1
10
329.688570
20
21.347942
11
329.704670
21
21.276042
0
LINE
8
Layer 1
10
329.704670
20
21.276042
11
329.724270
21
21.205142
0
LINE
8
Layer 1
10
329.724270
20
21.205142
11
329.747270
21
21.135242
0
LINE
8
Layer 1
10
329.747270
20
21.135242
11
329.773770
21
21.066542
0
LINE
8
Layer 1
10
329.773770
20
21.066542
11
329.803570
21
20.999242
0
LINE
8
Layer 1
10
329.803570
20
20.999242
11
329.836670
21
20.933442
0
LINE
8
Layer 1
10
329.836670
20
20.933442
11
329.872970
21
20.869342
0
LINE
8
Layer 1
10
329.872970
20
20.869342
11
329.912370
21
20.807142
0
LINE
8
Layer 1
10
329.912370
20
20.807142
11
329.954770
21
20.747042
0
LINE
8
Layer 1
10
329.954770
20
20.747042
11
330.000070
21
20.688942
0
LINE
8
Layer 1
10
330.000070
20
20.688942
11
330.048170
21
20.633242
0
LINE
8
Layer 1
10
330.048170
20
20.633242
11
330.098870
21
20.579842
0
LINE
8
Layer 1
10
330.098870
20
20.579842
11
330.152270
21
20.529142
0
LINE
8
Layer 1
10
330.152270
20
20.529142
11
330.207970
21
20.481042
0
LINE
8
Layer 1
10
330.207970
20
20.481042
11
330.266070
21
20.435742
0
LINE
8
Layer 1
10
330.266070
20
20.435742
11
330.326170
21
20.393342
0
LINE
8
Layer 1
10
330.326170
20
20.393342
11
330.388370
21
20.353942
0
LINE
8
Layer 1
10
330.388370
20
20.353942
11
330.452470
21
20.317642
0
LINE
8
Layer 1
10
330.452470
20
20.317642
11
330.518270
21
20.284542
0
LINE
8
Layer 1
10
330.518270
20
20.284542
11
330.585570
21
20.254742
0
LINE
8
Layer 1
10
330.585570
20
20.254742
11
330.654270
21
20.228242
0
LINE
8
Layer 1
10
330.654270
20
20.228242
11
330.724170
21
20.205142
0
LINE
8
Layer 1
10
330.724170
20
20.205142
11
330.795070
21
20.185542
0
LINE
8
Layer 1
10
330.795070
20
20.185542
11
330.866970
21
20.169342
0
LINE
8
Layer 1
10
330.866970
20
20.169342
11
330.939470
21
20.156742
0
LINE
8
Layer 1
10
330.939470
20
20.156742
11
331.012570
21
20.147742
0
LINE
8
Layer 1
10
331.012570
20
20.147742
11
331.085970
21
20.142342
0
LINE
8
Layer 1
10
331.085970
20
20.142342
11
331.159570
21
20.140542
0
LINE
8
Layer 1
10
331.159570
20
20.140542
11
331.233170
21
20.142342
0
LINE
8
Layer 1
10
331.233170
20
20.142342
11
331.306570
21
20.147742
0
LINE
8
Layer 1
10
331.306570
20
20.147742
11
331.379670
21
20.156742
0
LINE
8
Layer 1
10
331.379670
20
20.156742
11
331.452170
21
20.169342
0
LINE
8
Layer 1
10
331.452170
20
20.169342
11
331.524070
21
20.185542
0
LINE
8
Layer 1
10
331.524070
20
20.185542
11
331.594970
21
20.205142
0
LINE
8
Layer 1
10
331.594970
20
20.205142
11
331.664870
21
20.228242
0
LINE
8
Layer 1
10
331.664870
20
20.228242
11
331.733570
21
20.254742
0
LINE
8
Layer 1
10
331.733570
20
20.254742
11
331.800870
21
20.284542
0
LINE
8
Layer 1
10
331.800870
20
20.284542
11
331.866670
21
20.317642
0
LINE
8
Layer 1
10
331.866670
20
20.317642
11
331.930770
21
20.353942
0
LINE
8
Layer 1
10
331.930770
20
20.353942
11
331.992970
21
20.393342
0
LINE
8
Layer 1
10
331.992970
20
20.393342
11
332.053070
21
20.435742
0
LINE
8
Layer 1
10
332.053070
20
20.435742
11
332.111170
21
20.481042
0
LINE
8
Layer 1
10
332.111170
20
20.481042
11
332.166870
21
20.529142
0
LINE
8
Layer 1
10
332.166870
20
20.529142
11
332.220270
21
20.579842
0
LINE
8
Layer 1
10
332.220270
20
20.579842
11
332.270970
21
20.633242
0
LINE
8
Layer 1
10
332.270970
20
20.633242
11
332.319070
21
20.688942
0
LINE
8
Layer 1
10
332.319070
20
20.688942
11
332.364370
21
20.747042
0
LINE
8
Layer 1
10
332.364370
20
20.747042
11
332.406770
21
20.807142
0
LINE
8
Layer 1
10
332.406770
20
20.807142
11
332.446170
21
20.869342
0
LINE
8
Layer 1
10
332.446170
20
20.869342
11
332.482470
21
20.933442
0
LINE
8
Layer 1
10
332.482470
20
20.933442
11
332.515570
21
20.999242
0
LINE
8
Layer 1
10
332.515570
20
20.999242
11
332.545370
21
21.066542
0
LINE
8
Layer 1
10
332.545370
20
21.066542
11
332.571870
21
21.135242
0
LINE
8
Layer 1
10
332.571870
20
21.135242
11
332.594870
21
21.205142
0
LINE
8
Layer 1
10
332.594870
20
21.205142
11
332.614470
21
21.276042
0
LINE
8
Layer 1
10
332.614470
20
21.276042
11
332.630570
21
21.347942
0
LINE
8
Layer 1
10
332.630570
20
21.347942
11
332.643270
21
21.420442
0
LINE
8
Layer 1
10
332.643270
20
21.420442
11
332.652270
21
21.493542
0
LINE
8
Layer 1
10
332.652270
20
21.493542
11
332.657270
21
21.566942
0
LINE
8
Layer 1
10
332.657270
20
21.566942
11
332.660270
21
21.640542
0
LINE
8
Layer 1
10
332.660270
20
21.640542
11
332.657270
21
21.714142
0
LINE
8
Layer 1
10
332.657270
20
21.714142
11
332.652270
21
21.787542
0
LINE
8
Layer 1
10
332.652270
20
21.787542
11
332.643270
21
21.860642
0
LINE
8
Layer 1
10
332.643270
20
21.860642
11
332.630570
21
21.933142
0
LINE
8
Layer 1
10
332.630570
20
21.933142
11
332.614470
21
22.005042
0
LINE
8
Layer 1
10
332.614470
20
22.005042
11
332.594870
21
22.075942
0
LINE
8
Layer 1
10
332.594870
20
22.075942
11
332.571870
21
22.145842
0
LINE
8
Layer 1
10
332.571870
20
22.145842
11
332.545370
21
22.214542
0
LINE
8
Layer 1
10
332.545370
20
22.214542
11
332.515570
21
22.281842
0
LINE
8
Layer 1
10
332.515570
20
22.281842
11
332.482470
21
22.347642
0
LINE
8
Layer 1
10
332.482470
20
22.347642
11
332.446170
21
22.411742
0
LINE
8
Layer 1
10
332.446170
20
22.411742
11
332.406770
21
22.473942
0
LINE
8
Layer 1
10
332.406770
20
22.473942
11
332.364370
21
22.534042
0
LINE
8
Layer 1
10
332.364370
20
22.534042
11
332.319070
21
22.592142
0
LINE
8
Layer 1
10
332.319070
20
22.592142
11
332.270970
21
22.647842
0
LINE
8
Layer 1
10
332.270970
20
22.647842
11
332.220270
21
22.701242
0
LINE
8
Layer 1
10
332.220270
20
22.701242
11
332.166870
21
22.751942
0
LINE
8
Layer 1
10
332.166870
20
22.751942
11
332.111170
21
22.800042
0
LINE
8
Layer 1
10
332.111170
20
22.800042
11
332.053070
21
22.845342
0
LINE
8
Layer 1
10
332.053070
20
22.845342
11
331.992970
21
22.887742
0
LINE
8
Layer 1
10
331.992970
20
22.887742
11
331.930770
21
22.927142
0
LINE
8
Layer 1
10
331.930770
20
22.927142
11
331.866670
21
22.963442
0
LINE
8
Layer 1
10
331.866670
20
22.963442
11
331.800870
21
22.996542
0
LINE
8
Layer 1
10
331.800870
20
22.996542
11
331.733570
21
23.026342
0
LINE
8
Layer 1
10
331.733570
20
23.026342
11
331.664870
21
23.052842
0
LINE
8
Layer 1
10
331.664870
20
23.052842
11
331.594970
21
23.075942
0
LINE
8
Layer 1
10
331.594970
20
23.075942
11
331.524070
21
23.095542
0
LINE
8
Layer 1
10
331.524070
20
23.095542
11
331.452170
21
23.111742
0
LINE
8
Layer 1
10
331.452170
20
23.111742
11
331.379670
21
23.124342
0
LINE
8
Layer 1
10
331.379670
20
23.124342
11
331.306570
21
23.133342
0
LINE
8
Layer 1
10
331.306570
20
23.133342
11
331.233170
21
23.138742
0
LINE
8
Layer 1
10
331.233170
20
23.138742
11
331.159570
21
23.140542
0
LINE
8
Layer 1
10
331.159570
20
23.140542
11
331.085970
21
23.138742
0
LINE
8
Layer 1
10
331.085970
20
23.138742
11
331.012570
21
23.133342
0
LINE
8
Layer 1
10
331.012570
20
23.133342
11
330.939470
21
23.124342
0
LINE
8
Layer 1
10
330.939470
20
23.124342
11
330.866970
21
23.111742
0
LINE
8
Layer 1
10
330.866970
20
23.111742
11
330.795070
21
23.095542
0
LINE
8
Layer 1
10
330.795070
20
23.095542
11
330.724170
21
23.075942
0
LINE
8
Layer 1
10
330.724170
20
23.075942
11
330.654270
21
23.052842
0
LINE
8
Layer 1
10
330.654270
20
23.052842
11
330.585570
21
23.026342
0
LINE
8
Layer 1
10
330.585570
20
23.026342
11
330.518270
21
22.996542
0
LINE
8
Layer 1
10
330.518270
20
22.996542
11
330.452470
21
22.963442
0
LINE
8
Layer 1
10
330.452470
20
22.963442
11
330.388370
21
22.927142
0
LINE
8
Layer 1
10
330.388370
20
22.927142
11
330.326170
21
22.887742
0
LINE
8
Layer 1
10
330.326170
20
22.887742
11
330.266070
21
22.845342
0
LINE
8
Layer 1
10
330.266070
20
22.845342
11
330.207970
21
22.800042
0
LINE
8
Layer 1
10
330.207970
20
22.800042
11
330.152270
21
22.751942
0
LINE
8
Layer 1
10
330.152270
20
22.751942
11
330.098870
21
22.701242
0
LINE
8
Layer 1
10
330.098870
20
22.701242
11
330.048170
21
22.647842
0
LINE
8
Layer 1
10
330.048170
20
22.647842
11
330.000070
21
22.592142
0
LINE
8
Layer 1
10
330.000070
20
22.592142
11
329.954770
21
22.534042
0
LINE
8
Layer 1
10
329.954770
20
22.534042
11
329.912370
21
22.473942
0
LINE
8
Layer 1
10
329.912370
20
22.473942
11
329.872970
21
22.411742
0
LINE
8
Layer 1
10
329.872970
20
22.411742
11
329.836670
21
22.347642
0
LINE
8
Layer 1
10
329.836670
20
22.347642
11
329.803570
21
22.281842
0
LINE
8
Layer 1
10
329.803570
20
22.281842
11
329.773770
21
22.214542
0
LINE
8
Layer 1
10
329.773770
20
22.214542
11
329.747270
21
22.145842
0
LINE
8
Layer 1
10
329.747270
20
22.145842
11
329.724270
21
22.075942
0
LINE
8
Layer 1
10
329.724270
20
22.075942
11
329.704670
21
22.005042
0
LINE
8
Layer 1
10
329.704670
20
22.005042
11
329.688570
21
21.933142
0
LINE
8
Layer 1
10
329.688570
20
21.933142
11
329.675870
21
21.860642
0
LINE
8
Layer 1
10
329.675870
20
21.860642
11
329.666870
21
21.787542
0
LINE
8
Layer 1
10
329.666870
20
21.787542
11
329.661870
21
21.714142
0
LINE
8
Layer 1
10
329.661870
20
21.714142
11
329.658870
21
21.640542
0
LINE
8
Layer 1
10
317.085670
20
78.675942
11
331.085670
21
78.675942
0
LINE
8
Layer 1
10
331.085670
20
78.675942
11
331.085670
21
64.676000
0
LINE
8
Layer 1
10
331.085670
20
64.676000
11
317.086000
21
64.676000
0
LINE
8
Layer 1
10
317.086000
20
64.676000
11
317.085670
21
78.675942
0
LINE
8
Layer 1
10
269.176000
20
21.526000
11
269.176000
21
7.526010
0
LINE
8
Layer 1
10
269.176000
20
7.526010
11
255.176000
21
7.526008
0
LINE
8
Layer 1
10
255.176000
20
7.526008
11
255.176000
21
21.526000
0
LINE
8
Layer 1
10
255.176000
20
21.526000
11
269.176000
21
21.526000
0
LINE
8
Layer 1
10
288.226000
20
21.526002
11
288.226000
21
7.526010
0
LINE
8
Layer 1
10
288.226000
20
7.526010
11
274.226000
21
7.526012
0
LINE
8
Layer 1
10
274.226000
20
7.526012
11
274.226000
21
21.526000
0
LINE
8
Layer 1
10
274.226000
20
21.526000
11
288.226000
21
21.526002
0
LINE
8
Layer 1
10
262.032000
20
78.676000
11
262.032000
21
64.676000
0
LINE
8
Layer 1
10
262.032000
20
64.676000
11
248.032000
21
64.676003
0
LINE
8
Layer 1
10
248.032000
20
64.676003
11
248.032000
21
78.676003
0
LINE
8
Layer 1
10
248.032000
20
78.676003
11
262.032000
21
78.676000
0
LINE
8
Layer 1
10
288.226000
20
78.675998
11
288.226000
21
64.676000
0
LINE
8
Layer 1
10
288.226000
20
64.676000
11
274.226000
21
64.675997
0
LINE
8
Layer 1
10
274.226000
20
64.675997
11
274.226000
21
78.675997
0
LINE
8
Layer 1
10
274.226000
20
78.675997
11
288.226000
21
78.675998
0
LINE
8
Layer 1
10
281.143980
20
51.625998
11
281.143980
21
50.100998
0
LINE
8
Layer 1
10
281.143980
20
50.100998
11
285.843990
21
50.100998
0
LINE
8
Layer 1
10
285.843990
20
50.100998
11
285.843990
21
36.101000
0
LINE
8
Layer 1
10
285.843990
20
36.101000
11
281.143980
21
36.101000
0
LINE
8
Layer 1
10
281.143980
20
36.101000
11
281.143980
21
34.576000
0
LINE
8
Layer 1
10
281.143980
20
34.576000
11
284.373990
21
34.576000
0
LINE
8
Layer 1
10
284.373990
20
34.576000
11
284.373990
21
32.851000
0
LINE
8
Layer 1
10
284.373990
20
32.851000
11
285.294000
21
32.851000
0
LINE
8
Layer 1
10
285.294000
20
32.851000
11
285.294000
21
29.551000
0
LINE
8
Layer 1
10
285.294000
20
29.551000
11
284.373990
21
29.551000
0
LINE
8
Layer 1
10
284.373990
20
29.551000
11
284.373990
21
27.826000
0
LINE
8
Layer 1
10
284.373990
20
27.826000
11
281.143980
21
27.826000
0
LINE
8
Layer 1
10
281.143980
20
27.826000
11
281.143980
21
27.001000
0
LINE
8
Layer 1
10
281.143980
20
27.001000
11
278.344000
21
27.001000
0
LINE
8
Layer 1
10
278.344000
20
27.001000
11
278.344000
21
27.826003
0
LINE
8
Layer 1
10
278.344000
20
27.826003
11
272.073980
21
27.826000
0
LINE
8
Layer 1
10
272.073980
20
27.826000
11
272.073980
21
29.551000
0
LINE
8
Layer 1
10
272.073980
20
29.551000
11
271.093990
21
29.551000
0
LINE
8
Layer 1
10
271.093990
20
29.551000
11
271.093990
21
32.851000
0
LINE
8
Layer 1
10
271.093990
20
32.851000
11
272.073980
21
32.851000
0
LINE
8
Layer 1
10
272.073980
20
32.851000
11
272.073980
21
34.576000
0
LINE
8
Layer 1
10
272.073980
20
34.576000
11
276.543990
21
34.576002
0
LINE
8
Layer 1
10
276.543990
20
34.576002
11
276.543990
21
36.101002
0
LINE
8
Layer 1
10
276.543990
20
36.101002
11
271.843980
21
36.101002
0
LINE
8
Layer 1
10
271.843980
20
36.101002
11
271.843980
21
50.101002
0
LINE
8
Layer 1
10
271.843980
20
50.101002
11
276.543990
21
50.101002
0
LINE
8
Layer 1
10
276.543990
20
50.101002
11
276.543990
21
51.626002
0
LINE
8
Layer 1
10
276.543990
20
51.626002
11
272.073980
21
51.625999
0
LINE
8
Layer 1
10
272.073980
20
51.625999
11
272.073980
21
53.350999
0
LINE
8
Layer 1
10
272.073980
20
53.350999
11
271.093990
21
53.350999
0
LINE
8
Layer 1
10
271.093990
20
53.350999
11
271.093990
21
56.650999
0
LINE
8
Layer 1
10
271.093990
20
56.650999
11
272.073980
21
56.651002
0
LINE
8
Layer 1
10
272.073980
20
56.651002
11
272.073980
21
58.376002
0
LINE
8
Layer 1
10
272.073980
20
58.376002
11
278.344000
21
58.376002
0
LINE
8
Layer 1
10
278.344000
20
58.376002
11
278.344000
21
59.201005
0
LINE
8
Layer 1
10
278.344000
20
59.201005
11
281.143980
21
59.201002
0
LINE
8
Layer 1
10
281.143980
20
59.201002
11
281.143980
21
58.376002
0
LINE
8
Layer 1
10
281.143980
20
58.376002
11
284.373990
21
58.376002
0
LINE
8
Layer 1
10
284.373990
20
58.376002
11
284.373990
21
56.651002
0
LINE
8
Layer 1
10
284.373990
20
56.651002
11
285.294000
21
56.651002
0
LINE
8
Layer 1
10
285.294000
20
56.651002
11
285.294000
21
53.351002
0
LINE
8
Layer 1
10
285.294000
20
53.351002
11
284.373990
21
53.351005
0
LINE
8
Layer 1
10
284.373990
20
53.351005
11
284.373990
21
51.626005
0
LINE
8
Layer 1
10
284.373990
20
51.626005
11
281.143980
21
51.625998
0
LINE
8
Layer 1
10
264.412980
20
59.625998
11
264.412980
21
45.626000
0
LINE
8
Layer 1
10
264.412980
20
45.626000
11
250.412980
21
45.626000
0
LINE
8
Layer 1
10
250.412980
20
45.626000
11
250.412980
21
59.626000
0
LINE
8
Layer 1
10
250.412980
20
59.626000
11
264.412980
21
59.625998
0
LINE
8
Layer 1
10
23.906980
20
59.625993
11
23.906977
21
45.625993
0
LINE
8
Layer 1
10
23.906977
20
45.625993
11
9.906977
21
45.625991
0
LINE
8
Layer 1
10
9.906977
20
45.625991
11
9.906980
21
59.625991
0
LINE
8
Layer 1
10
9.906980
20
59.625991
11
23.906980
21
59.625993
0
LINE
8
Layer 1
10
23.906988
20
78.675993
11
23.906985
21
64.675993
0
LINE
8
Layer 1
10
23.906985
20
64.675993
11
9.906985
21
64.675990
0
LINE
8
Layer 1
10
9.906985
20
64.675990
11
9.906969
21
78.675990
0
LINE
8
Layer 1
10
9.906969
20
78.675990
11
23.906988
21
78.675993
0
LINE
8
Layer 1
10
45.337988
20
78.676008
11
45.338001
21
64.676008
0
LINE
8
Layer 1
10
45.338001
20
64.676008
11
31.338001
21
64.676024
0
LINE
8
Layer 1
10
31.338001
20
64.676024
11
31.338003
21
78.676024
0
LINE
8
Layer 1
10
31.338003
20
78.676024
11
45.337988
21
78.676008
0
LINE
8
Layer 1
10
189.343988
20
97.495008
11
189.343988
21
91.226008
0
LINE
8
Layer 1
10
189.343988
20
91.226008
11
190.168988
21
91.226011
0
LINE
8
Layer 1
10
190.168988
20
91.226011
11
190.168988
21
88.426011
0
LINE
8
Layer 1
10
190.168988
20
88.426011
11
189.343978
21
88.426027
0
LINE
8
Layer 1
10
189.343978
20
88.426027
11
189.343978
21
85.196017
0
LINE
8
Layer 1
10
189.343978
20
85.196017
11
187.618988
21
85.196017
0
LINE
8
Layer 1
10
187.618988
20
85.196017
11
187.618988
21
84.275010
0
LINE
8
Layer 1
10
187.618988
20
84.275010
11
184.318978
21
84.275023
0
LINE
8
Layer 1
10
184.318978
20
84.275023
11
184.318988
21
85.196011
0
LINE
8
Layer 1
10
184.318988
20
85.196011
11
182.593988
21
85.196011
0
LINE
8
Layer 1
10
182.593988
20
85.196011
11
182.593978
21
88.426021
0
LINE
8
Layer 1
10
182.593978
20
88.426021
11
142.968978
21
88.426021
0
LINE
8
Layer 1
10
142.968978
20
88.426021
11
142.968988
21
83.726021
0
LINE
8
Layer 1
10
142.968988
20
83.726021
11
128.967988
21
83.726021
0
LINE
8
Layer 1
10
128.967988
20
83.726021
11
128.967978
21
88.426021
0
LINE
8
Layer 1
10
128.967978
20
88.426021
11
89.343978
21
88.426013
0
LINE
8
Layer 1
10
89.343978
20
88.426013
11
89.343970
21
85.196023
0
LINE
8
Layer 1
10
89.343970
20
85.196023
11
87.618970
21
85.196020
0
LINE
8
Layer 1
10
87.618970
20
85.196020
11
87.618975
21
84.275014
0
LINE
8
Layer 1
10
87.618975
20
84.275014
11
84.318965
21
84.275027
0
LINE
8
Layer 1
10
84.318965
20
84.275027
11
84.318975
21
85.196018
0
LINE
8
Layer 1
10
84.318975
20
85.196018
11
82.593975
21
85.196015
0
LINE
8
Layer 1
10
82.593975
20
85.196015
11
82.593970
21
88.426025
0
LINE
8
Layer 1
10
82.593970
20
88.426025
11
81.768970
21
88.426023
0
LINE
8
Layer 1
10
81.768970
20
88.426023
11
81.768964
21
91.226023
0
LINE
8
Layer 1
10
81.768964
20
91.226023
11
82.593964
21
91.226023
0
LINE
8
Layer 1
10
82.593964
20
91.226023
11
82.593980
21
97.495003
0
LINE
8
Layer 1
10
82.593980
20
97.495003
11
84.318980
21
97.495003
0
LINE
8
Layer 1
10
84.318980
20
97.495003
11
84.318980
21
98.476004
0
LINE
8
Layer 1
10
84.318980
20
98.476004
11
87.618970
21
98.476009
0
LINE
8
Layer 1
10
87.618970
20
98.476009
11
87.618973
21
97.495008
0
LINE
8
Layer 1
10
87.618973
20
97.495008
11
89.343973
21
97.495008
0
LINE
8
Layer 1
10
89.343973
20
97.495008
11
89.343978
21
93.025008
0
LINE
8
Layer 1
10
89.343978
20
93.025008
11
128.967978
21
93.025013
0
LINE
8
Layer 1
10
128.967978
20
93.025013
11
128.967968
21
97.726023
0
LINE
8
Layer 1
10
128.967968
20
97.726023
11
142.968968
21
97.726023
0
LINE
8
Layer 1
10
142.968968
20
97.726023
11
142.968978
21
93.025013
0
LINE
8
Layer 1
10
142.968978
20
93.025013
11
182.593978
21
93.025019
0
LINE
8
Layer 1
10
182.593978
20
93.025019
11
182.593978
21
97.495019
0
LINE
8
Layer 1
10
182.593978
20
97.495019
11
184.318978
21
97.495019
0
LINE
8
Layer 1
10
184.318978
20
97.495019
11
184.318988
21
98.476004
0
LINE
8
Layer 1
10
184.318988
20
98.476004
11
187.618988
21
98.476009
0
LINE
8
Layer 1
10
187.618988
20
98.476009
11
187.618988
21
97.495005
0
LINE
8
Layer 1
10
187.618988
20
97.495005
11
189.343988
21
97.495008
0
LINE
8
Layer 1
10
21.525988
20
21.526008
11
21.525985
21
7.526008
0
LINE
8
Layer 1
10
21.525985
20
7.526008
11
7.525985
21
7.526005
0
LINE
8
Layer 1
10
7.525985
20
7.526005
11
7.525970
21
21.526005
0
LINE
8
Layer 1
10
7.525970
20
21.526005
11
21.525988
21
21.526008
0
LINE
8
Layer 1
10
40.575988
20
21.526016
11
40.575985
21
7.526016
0
LINE
8
Layer 1
10
40.575985
20
7.526016
11
26.575985
21
7.526013
0
LINE
8
Layer 1
10
26.575985
20
7.526013
11
26.575988
21
21.526013
0
LINE
8
Layer 1
10
26.575988
20
21.526013
11
40.575988
21
21.526016
0
LINE
8
Layer 1
10
59.625988
20
21.526024
11
59.626004
21
7.526024
0
LINE
8
Layer 1
10
59.626004
20
7.526024
11
45.626004
21
7.526039
0
LINE
8
Layer 1
10
45.626004
20
7.526039
11
45.626007
21
21.526039
0
LINE
8
Layer 1
10
45.626007
20
21.526039
11
59.625988
21
21.526024
0
LINE
8
Layer 1
10
78.675988
20
21.526015
11
78.675985
21
7.526015
0
LINE
8
Layer 1
10
78.675985
20
7.526015
11
64.675985
21
7.526012
0
LINE
8
Layer 1
10
64.675985
20
7.526012
11
64.675988
21
21.526012
0
LINE
8
Layer 1
10
64.675988
20
21.526012
11
78.675988
21
21.526015
0
LINE
8
Layer 1
10
97.725988
20
21.526022
11
97.726001
21
7.526022
0
LINE
8
Layer 1
10
97.726001
20
7.526022
11
83.726001
21
7.526038
0
LINE
8
Layer 1
10
83.726001
20
7.526038
11
83.726003
21
21.526038
0
LINE
8
Layer 1
10
83.726003
20
21.526038
11
97.725988
21
21.526022
0
LINE
8
Layer 1
10
116.774988
20
21.526015
11
116.774988
21
7.526010
0
LINE
8
Layer 1
10
116.774988
20
7.526010
11
102.774988
21
7.526006
0
LINE
8
Layer 1
10
102.774988
20
7.526006
11
102.774998
21
21.526006
0
LINE
8
Layer 1
10
102.774998
20
21.526006
11
116.774988
21
21.526015
0
LINE
8
Layer 1
10
135.825988
20
21.526020
11
135.825988
21
7.526010
0
LINE
8
Layer 1
10
135.825988
20
7.526010
11
121.824988
21
7.526010
0
LINE
8
Layer 1
10
121.824988
20
7.526010
11
121.824988
21
21.526000
0
LINE
8
Layer 1
10
121.824988
20
21.526000
11
135.825988
21
21.526020
0
LINE
8
Layer 1
10
154.875988
20
21.526009
11
154.875988
21
7.526000
0
LINE
8
Layer 1
10
154.875988
20
7.526000
11
140.875988
21
7.525993
0
LINE
8
Layer 1
10
140.875988
20
7.525993
11
140.875998
21
21.525993
0
LINE
8
Layer 1
10
140.875998
20
21.525993
11
154.875988
21
21.526009
0
LINE
8
Layer 1
10
173.925988
20
21.526016
11
173.925988
21
7.526000
0
LINE
8
Layer 1
10
173.925988
20
7.526000
11
159.925988
21
7.526002
0
LINE
8
Layer 1
10
159.925988
20
7.526002
11
159.925988
21
21.526000
0
LINE
8
Layer 1
10
159.925988
20
21.526000
11
173.925988
21
21.526016
0
LINE
8
Layer 1
10
192.975988
20
21.526015
11
192.975988
21
7.526000
0
LINE
8
Layer 1
10
192.975988
20
7.526000
11
178.975988
21
7.525998
0
LINE
8
Layer 1
10
178.975988
20
7.525998
11
178.975988
21
21.526000
0
LINE
8
Layer 1
10
178.975988
20
21.526000
11
192.975988
21
21.526015
0
LINE
8
Layer 1
10
212.025988
20
21.526016
11
212.025988
21
7.526000
0
LINE
8
Layer 1
10
212.025988
20
7.526000
11
198.025988
21
7.526002
0
LINE
8
Layer 1
10
198.025988
20
7.526002
11
198.025988
21
21.526000
0
LINE
8
Layer 1
10
198.025988
20
21.526000
11
212.025988
21
21.526016
0
LINE
8
Layer 1
10
231.075988
20
21.526015
11
231.075988
21
7.526000
0
LINE
8
Layer 1
10
231.075988
20
7.526000
11
217.075988
21
7.525998
0
LINE
8
Layer 1
10
217.075988
20
7.525998
11
217.075988
21
21.526000
0
LINE
8
Layer 1
10
217.075988
20
21.526000
11
231.075988
21
21.526015
0
LINE
8
Layer 1
10
250.125988
20
21.526016
11
250.125988
21
7.526000
0
LINE
8
Layer 1
10
250.125988
20
7.526000
11
236.125988
21
7.526002
0
LINE
8
Layer 1
10
236.125988
20
7.526002
11
236.125988
21
21.526000
0
LINE
8
Layer 1
10
236.125988
20
21.526000
11
250.125988
21
21.526016
0
LINE
8
Layer 1
10
281.950988
20
21.296014
11
281.950988
21
22.276014
0
LINE
8
Layer 1
10
281.950988
20
22.276014
11
285.250998
21
22.276016
0
LINE
8
Layer 1
10
285.250998
20
22.276016
11
285.250998
21
21.296016
0
LINE
8
Layer 1
10
285.250998
20
21.296016
11
286.976008
21
21.296016
0
LINE
8
Layer 1
10
286.976008
20
21.296016
11
286.976008
21
15.026016
0
LINE
8
Layer 1
10
286.976008
20
15.026016
11
287.800998
21
15.026018
0
LINE
8
Layer 1
10
287.800998
20
15.026018
11
287.800998
21
12.226018
0
LINE
8
Layer 1
10
287.800998
20
12.226018
11
286.976008
21
12.226018
0
LINE
8
Layer 1
10
286.976008
20
12.226018
11
286.976008
21
8.996000
0
LINE
8
Layer 1
10
286.976008
20
8.996000
11
285.250998
21
8.996000
0
LINE
8
Layer 1
10
285.250998
20
8.996000
11
285.250998
21
8.075000
0
LINE
8
Layer 1
10
285.250998
20
8.075000
11
281.950988
21
8.075002
0
LINE
8
Layer 1
10
281.950988
20
8.075002
11
281.950988
21
8.996002
0
LINE
8
Layer 1
10
281.950988
20
8.996002
11
280.226008
21
8.996000
0
LINE
8
Layer 1
10
280.226008
20
8.996000
11
280.226008
21
12.226000
0
LINE
8
Layer 1
10
280.226008
20
12.226000
11
278.700998
21
12.225998
0
LINE
8
Layer 1
10
278.700998
20
12.225998
11
278.700998
21
7.526000
0
LINE
8
Layer 1
10
278.700998
20
7.526000
11
264.700998
21
7.526000
0
LINE
8
Layer 1
10
264.700998
20
7.526000
11
264.700998
21
12.226000
0
LINE
8
Layer 1
10
264.700998
20
12.226000
11
263.175998
21
12.226000
0
LINE
8
Layer 1
10
263.175998
20
12.226000
11
263.175998
21
8.996000
0
LINE
8
Layer 1
10
263.175998
20
8.996000
11
261.450998
21
8.996000
0
LINE
8
Layer 1
10
261.450998
20
8.996000
11
261.450998
21
8.075010
0
LINE
8
Layer 1
10
261.450998
20
8.075010
11
258.149998
21
8.075008
0
LINE
8
Layer 1
10
258.149998
20
8.075008
11
258.149998
21
8.996008
0
LINE
8
Layer 1
10
258.149998
20
8.996008
11
256.425998
21
8.996008
0
LINE
8
Layer 1
10
256.425998
20
8.996008
11
256.425998
21
12.226008
0
LINE
8
Layer 1
10
256.425998
20
12.226008
11
255.600998
21
12.226008
0
LINE
8
Layer 1
10
255.600998
20
12.226008
11
255.600998
21
15.026008
0
LINE
8
Layer 1
10
255.600998
20
15.026008
11
256.425998
21
15.026010
0
LINE
8
Layer 1
10
256.425998
20
15.026010
11
256.425998
21
21.296010
0
LINE
8
Layer 1
10
256.425998
20
21.296010
11
258.149998
21
21.296010
0
LINE
8
Layer 1
10
258.149998
20
21.296010
11
258.149998
21
22.276008
0
LINE
8
Layer 1
10
258.149998
20
22.276008
11
261.450998
21
22.276008
0
LINE
8
Layer 1
10
261.450998
20
22.276008
11
261.450998
21
21.296010
0
LINE
8
Layer 1
10
261.450998
20
21.296010
11
263.175998
21
21.296010
0
LINE
8
Layer 1
10
263.175998
20
21.296010
11
263.175998
21
16.826010
0
LINE
8
Layer 1
10
263.175998
20
16.826010
11
264.700998
21
16.826010
0
LINE
8
Layer 1
10
264.700998
20
16.826010
11
264.700998
21
21.526010
0
LINE
8
Layer 1
10
264.700998
20
21.526010
11
278.700998
21
21.526010
0
LINE
8
Layer 1
10
278.700998
20
21.526010
11
278.700998
21
16.826010
0
LINE
8
Layer 1
10
278.700998
20
16.826010
11
280.226008
21
16.826010
0
LINE
8
Layer 1
10
280.226008
20
16.826010
11
280.226008
21
21.296010
0
LINE
8
Layer 1
10
280.226008
20
21.296010
11
281.950988
21
21.296014
0
LINE
8
Layer 1
10
26.287988
20
40.576014
11
26.287985
21
26.576014
0
LINE
8
Layer 1
10
26.287985
20
26.576014
11
12.287985
21
26.576012
0
LINE
8
Layer 1
10
12.287985
20
26.576012
11
12.287988
21
40.576012
0
LINE
8
Layer 1
10
12.287988
20
40.576012
11
26.287988
21
40.576014
0
LINE
8
Layer 1
10
50.100988
20
40.576014
11
50.100985
21
26.576014
0
LINE
8
Layer 1
10
50.100985
20
26.576014
11
36.100985
21
26.576012
0
LINE
8
Layer 1
10
36.100985
20
26.576012
11
36.100987
21
40.576012
0
LINE
8
Layer 1
10
36.100987
20
40.576012
11
50.100988
21
40.576014
0
LINE
8
Layer 1
10
69.150988
20
40.576022
11
69.150986
21
26.576022
0
LINE
8
Layer 1
10
69.150986
20
26.576022
11
55.150986
21
26.576020
0
LINE
8
Layer 1
10
55.150986
20
26.576020
11
55.150989
21
40.576020
0
LINE
8
Layer 1
10
55.150989
20
40.576020
11
69.150988
21
40.576022
0
LINE
8
Layer 1
10
88.200988
20
40.576012
11
88.200986
21
26.576012
0
LINE
8
Layer 1
10
88.200986
20
26.576012
11
74.200986
21
26.576009
0
LINE
8
Layer 1
10
74.200986
20
26.576009
11
74.200989
21
40.576009
0
LINE
8
Layer 1
10
74.200989
20
40.576009
11
88.200988
21
40.576012
0
LINE
8
Layer 1
10
107.250988
20
40.576022
11
107.250988
21
26.576000
0
LINE
8
Layer 1
10
107.250988
20
26.576000
11
93.250988
21
26.575997
0
LINE
8
Layer 1
10
93.250988
20
26.575997
11
93.250991
21
40.575997
0
LINE
8
Layer 1
10
93.250991
20
40.575997
11
107.250988
21
40.576022
0
LINE
8
Layer 1
10
126.300988
20
40.576009
11
126.300978
21
26.576009
0
LINE
8
Layer 1
10
126.300978
20
26.576009
11
112.300978
21
26.576004
0
LINE
8
Layer 1
10
112.300978
20
26.576004
11
112.300958
21
40.576004
0
LINE
8
Layer 1
10
112.300958
20
40.576004
11
126.300988
21
40.576009
0
LINE
8
Layer 1
10
145.350988
20
40.576020
11
145.350978
21
26.576020
0
LINE
8
Layer 1
10
145.350978
20
26.576020
11
131.350978
21
26.576020
0
LINE
8
Layer 1
10
131.350978
20
26.576020
11
131.350978
21
40.576020
0
LINE
8
Layer 1
10
131.350978
20
40.576020
11
145.350988
21
40.576020
0
LINE
8
Layer 1
10
164.400988
20
40.576028
11
164.400998
21
26.576028
0
LINE
8
Layer 1
10
164.400998
20
26.576028
11
150.400998
21
26.576041
0
LINE
8
Layer 1
10
150.400998
20
26.576041
11
150.400998
21
40.576000
0
LINE
8
Layer 1
10
150.400998
20
40.576000
11
164.400988
21
40.576028
0
LINE
8
Layer 1
10
183.451000
20
40.576000
11
183.451000
21
26.576000
0
LINE
8
Layer 1
10
183.451000
20
26.576000
11
169.451000
21
26.575998
0
LINE
8
Layer 1
10
169.451000
20
26.575998
11
169.451000
21
40.575998
0
LINE
8
Layer 1
10
169.451000
20
40.575998
11
183.451000
21
40.576000
0
LINE
8
Layer 1
10
202.501000
20
40.576000
11
202.501000
21
26.576000
0
LINE
8
Layer 1
10
202.501000
20
26.576000
11
188.501000
21
26.575997
0
LINE
8
Layer 1
10
188.501000
20
26.575997
11
188.501000
21
40.575997
0
LINE
8
Layer 1
10
188.501000
20
40.575997
11
202.501000
21
40.576000
0
LINE
8
Layer 1
10
221.551000
20
40.576003
11
221.551000
21
26.576000
0
LINE
8
Layer 1
10
221.551000
20
26.576000
11
207.551000
21
26.576000
0
LINE
8
Layer 1
10
207.551000
20
26.576000
11
207.551000
21
40.576000
0
LINE
8
Layer 1
10
207.551000
20
40.576000
11
221.551000
21
40.576003
0
LINE
8
Layer 1
10
240.601000
20
40.576000
11
240.601000
21
26.576000
0
LINE
8
Layer 1
10
240.601000
20
26.576000
11
226.601000
21
26.576000
0
LINE
8
Layer 1
10
226.601000
20
26.576000
11
226.601000
21
40.576000
0
LINE
8
Layer 1
10
226.601000
20
40.576000
11
240.601000
21
40.576000
0
LINE
8
Layer 1
10
259.650000
20
40.576000
11
259.650000
21
26.576000
0
LINE
8
Layer 1
10
259.650000
20
26.576000
11
245.651000
21
26.575997
0
LINE
8
Layer 1
10
245.651000
20
26.575997
11
245.651000
21
40.575997
0
LINE
8
Layer 1
10
245.651000
20
40.575997
11
259.650000
21
40.576000
0
LINE
8
Layer 1
10
283.463000
20
40.576003
11
283.463000
21
26.576000
0
LINE
8
Layer 1
10
283.463000
20
26.576000
11
269.463000
21
26.576003
0
LINE
8
Layer 1
10
269.463000
20
26.576003
11
269.463000
21
40.576000
0
LINE
8
Layer 1
10
269.463000
20
40.576000
11
283.463000
21
40.576003
0
LINE
8
Layer 1
10
28.669000
20
59.626003
11
28.668997
21
45.626003
0
LINE
8
Layer 1
10
28.668997
20
45.626003
11
14.668997
21
45.626000
0
LINE
8
Layer 1
10
14.668997
20
45.626000
11
14.669000
21
59.626000
0
LINE
8
Layer 1
10
14.669000
20
59.626000
11
28.669000
21
59.626003
0
LINE
8
Layer 1
10
54.863000
20
59.626008
11
54.862997
21
45.626008
0
LINE
8
Layer 1
10
54.862997
20
45.626008
11
40.862997
21
45.626006
0
LINE
8
Layer 1
10
40.862997
20
45.626006
11
40.863000
21
59.626006
0
LINE
8
Layer 1
10
40.863000
20
59.626006
11
54.863000
21
59.626008
0
LINE
8
Layer 1
10
73.913000
20
59.626016
11
73.913016
21
45.626016
0
LINE
8
Layer 1
10
73.913016
20
45.626016
11
59.913016
21
45.626029
0
LINE
8
Layer 1
10
59.913016
20
45.626029
11
59.913018
21
59.626029
0
LINE
8
Layer 1
10
59.913018
20
59.626029
11
73.913000
21
59.626016
0
LINE
8
Layer 1
10
92.963000
20
59.626008
11
92.962994
21
45.626008
0
LINE
8
Layer 1
10
92.962994
20
45.626008
11
78.962994
21
45.626005
0
LINE
8
Layer 1
10
78.962994
20
45.626005
11
78.962996
21
59.626005
0
LINE
8
Layer 1
10
78.962996
20
59.626005
11
92.963000
21
59.626008
0
LINE
8
Layer 1
10
112.013000
20
59.626013
11
112.013020
21
45.626013
0
LINE
8
Layer 1
10
112.013020
20
45.626013
11
98.013020
21
45.626026
0
LINE
8
Layer 1
10
98.013020
20
45.626026
11
98.013022
21
59.626026
0
LINE
8
Layer 1
10
98.013022
20
59.626026
11
112.013000
21
59.626013
0
LINE
8
Layer 1
10
131.063000
20
59.626005
11
131.063000
21
45.626000
0
LINE
8
Layer 1
10
131.063000
20
45.626000
11
117.063000
21
45.625994
0
LINE
8
Layer 1
10
117.063000
20
45.625994
11
117.063010
21
59.625994
0
LINE
8
Layer 1
10
117.063010
20
59.625994
11
131.063000
21
59.626005
0
LINE
8
Layer 1
10
150.113000
20
59.626013
11
150.113000
21
45.626000
0
LINE
8
Layer 1
10
150.113000
20
45.626000
11
136.113000
21
45.625998
0
LINE
8
Layer 1
10
136.113000
20
45.625998
11
136.113010
21
59.625998
0
LINE
8
Layer 1
10
136.113010
20
59.625998
11
150.113000
21
59.626013
0
LINE
8
Layer 1
10
169.163000
20
59.626003
11
169.163000
21
45.626000
0
LINE
8
Layer 1
10
169.163000
20
45.626000
11
155.163000
21
45.625997
0
LINE
8
Layer 1
10
155.163000
20
45.625997
11
155.163010
21
59.625997
0
LINE
8
Layer 1
10
155.163010
20
59.625997
11
169.163000
21
59.626003
0
LINE
8
Layer 1
10
188.213000
20
59.626011
11
188.213000
21
45.626000
0
LINE
8
Layer 1
10
188.213000
20
45.626000
11
174.213000
21
45.625997
0
LINE
8
Layer 1
10
174.213000
20
45.625997
11
174.213000
21
59.626000
0
LINE
8
Layer 1
10
174.213000
20
59.626000
11
188.213000
21
59.626011
0
LINE
8
Layer 1
10
207.263000
20
59.626008
11
207.263000
21
45.626000
0
LINE
8
Layer 1
10
207.263000
20
45.626000
11
193.263000
21
45.626000
0
LINE
8
Layer 1
10
193.263000
20
45.626000
11
193.263000
21
59.626000
0
LINE
8
Layer 1
10
193.263000
20
59.626000
11
207.263000
21
59.626008
0
LINE
8
Layer 1
10
226.313000
20
59.626008
11
226.313000
21
45.626000
0
LINE
8
Layer 1
10
226.313000
20
45.626000
11
212.313000
21
45.626000
0
LINE
8
Layer 1
10
212.313000
20
45.626000
11
212.313000
21
59.626000
0
LINE
8
Layer 1
10
212.313000
20
59.626000
11
226.313000
21
59.626008
0
LINE
8
Layer 1
10
245.363000
20
59.626008
11
245.363000
21
45.626000
0
LINE
8
Layer 1
10
245.363000
20
45.626000
11
231.363000
21
45.626000
0
LINE
8
Layer 1
10
231.363000
20
45.626000
11
231.363000
21
59.626000
0
LINE
8
Layer 1
10
231.363000
20
59.626000
11
245.363000
21
59.626008
0
LINE
8
Layer 1
10
279.569000
20
59.395008
11
279.569000
21
60.376007
0
LINE
8
Layer 1
10
279.569000
20
60.376007
11
282.869010
21
60.376007
0
LINE
8
Layer 1
10
282.869010
20
60.376007
11
282.869010
21
59.395000
0
LINE
8
Layer 1
10
282.869010
20
59.395000
11
284.593990
21
59.395000
0
LINE
8
Layer 1
10
284.593990
20
59.395000
11
284.593990
21
53.126000
0
LINE
8
Layer 1
10
284.593990
20
53.126000
11
285.418990
21
53.125998
0
LINE
8
Layer 1
10
285.418990
20
53.125998
11
285.418990
21
50.325998
0
LINE
8
Layer 1
10
285.418990
20
50.325998
11
284.593990
21
50.325998
0
LINE
8
Layer 1
10
284.593990
20
50.325998
11
284.593990
21
47.096000
0
LINE
8
Layer 1
10
284.593990
20
47.096000
11
282.868980
21
47.096000
0
LINE
8
Layer 1
10
282.868980
20
47.096000
11
282.869010
21
46.176001
0
LINE
8
Layer 1
10
282.869010
20
46.176001
11
279.569000
21
46.176001
0
LINE
8
Layer 1
10
279.569000
20
46.176001
11
279.569000
21
47.096000
0
LINE
8
Layer 1
10
279.569000
20
47.096000
11
277.843990
21
47.096000
0
LINE
8
Layer 1
10
277.843990
20
47.096000
11
277.843990
21
50.326000
0
LINE
8
Layer 1
10
277.843990
20
50.326000
11
276.318990
21
50.326000
0
LINE
8
Layer 1
10
276.318990
20
50.326000
11
276.318990
21
45.626000
0
LINE
8
Layer 1
10
276.318990
20
45.626000
11
262.318990
21
45.626000
0
LINE
8
Layer 1
10
262.318990
20
45.626000
11
262.318990
21
50.326000
0
LINE
8
Layer 1
10
262.318990
20
50.326000
11
260.793990
21
50.326000
0
LINE
8
Layer 1
10
260.793990
20
50.326000
11
260.793990
21
47.096000
0
LINE
8
Layer 1
10
260.793990
20
47.096000
11
259.067990
21
47.096000
0
LINE
8
Layer 1
10
259.067990
20
47.096000
11
259.067990
21
46.176001
0
LINE
8
Layer 1
10
259.067990
20
46.176001
11
255.768990
21
46.176001
0
LINE
8
Layer 1
10
255.768990
20
46.176001
11
255.768990
21
47.096000
0
LINE
8
Layer 1
10
255.768990
20
47.096000
11
254.043990
21
47.096000
0
LINE
8
Layer 1
10
254.043990
20
47.096000
11
254.043990
21
50.326000
0
LINE
8
Layer 1
10
254.043990
20
50.326000
11
253.218990
21
50.326000
0
LINE
8
Layer 1
10
253.218990
20
50.326000
11
253.218990
21
53.126000
0
LINE
8
Layer 1
10
253.218990
20
53.126000
11
254.043990
21
53.125998
0
LINE
8
Layer 1
10
254.043990
20
53.125998
11
254.043990
21
59.394998
0
LINE
8
Layer 1
10
254.043990
20
59.394998
11
255.768990
21
59.394998
0
LINE
8
Layer 1
10
255.768990
20
59.394998
11
255.768990
21
60.375999
0
LINE
8
Layer 1
10
255.768990
20
60.375999
11
259.067990
21
60.375999
0
LINE
8
Layer 1
10
259.067990
20
60.375999
11
259.067990
21
59.395000
0
LINE
8
Layer 1
10
259.067990
20
59.395000
11
260.793990
21
59.395000
0
LINE
8
Layer 1
10
260.793990
20
59.395000
11
260.793990
21
54.926000
0
LINE
8
Layer 1
10
260.793990
20
54.926000
11
262.318990
21
54.926000
0
LINE
8
Layer 1
10
262.318990
20
54.926000
11
262.318990
21
59.626000
0
LINE
8
Layer 1
10
262.318990
20
59.626000
11
276.318990
21
59.626000
0
LINE
8
Layer 1
10
276.318990
20
59.626000
11
276.318990
21
54.926000
0
LINE
8
Layer 1
10
276.318990
20
54.926000
11
277.843990
21
54.926000
0
LINE
8
Layer 1
10
277.843990
20
54.926000
11
277.843990
21
59.395000
0
LINE
8
Layer 1
10
277.843990
20
59.395000
11
279.569000
21
59.395008
0
LINE
8
Layer 1
10
64.388000
20
78.676008
11
64.387998
21
64.676008
0
LINE
8
Layer 1
10
64.387998
20
64.676008
11
50.387998
21
64.676005
0
LINE
8
Layer 1
10
50.387998
20
64.676005
11
50.388000
21
78.676005
0
LINE
8
Layer 1
10
50.388000
20
78.676005
11
64.388000
21
78.676008
0
LINE
8
Layer 1
10
83.438000
20
78.676016
11
83.437995
21
64.676016
0
LINE
8
Layer 1
10
83.437995
20
64.676016
11
69.437995
21
64.676013
0
LINE
8
Layer 1
10
69.437995
20
64.676013
11
69.437995
21
78.676000
0
LINE
8
Layer 1
10
69.437995
20
78.676000
11
83.438000
21
78.676016
0
LINE
8
Layer 1
10
102.488000
20
78.676005
11
102.487990
21
64.676005
0
LINE
8
Layer 1
10
102.487990
20
64.676005
11
88.487990
21
64.676003
0
LINE
8
Layer 1
10
88.487990
20
64.676003
11
88.487993
21
78.676003
0
LINE
8
Layer 1
10
88.487993
20
78.676003
11
102.488000
21
78.676005
0
LINE
8
Layer 1
10
121.538000
20
78.676016
11
121.537990
21
64.676016
0
LINE
8
Layer 1
10
121.537990
20
64.676016
11
107.537990
21
64.676016
0
LINE
8
Layer 1
10
107.537990
20
64.676016
11
107.537990
21
78.676016
0
LINE
8
Layer 1
10
107.537990
20
78.676016
11
121.538000
21
78.676016
0
LINE
8
Layer 1
10
140.588000
20
78.676003
11
140.588000
21
64.676000
0
LINE
8
Layer 1
10
140.588000
20
64.676000
11
126.588000
21
64.675995
0
LINE
8
Layer 1
10
126.588000
20
64.675995
11
126.587980
21
78.675995
0
LINE
8
Layer 1
10
126.587980
20
78.675995
11
140.588000
21
78.676003
0
LINE
8
Layer 1
10
159.638000
20
78.676013
11
159.637990
21
64.676013
0
LINE
8
Layer 1
10
159.637990
20
64.676013
11
145.637990
21
64.676011
0
LINE
8
Layer 1
10
145.637990
20
64.676011
11
145.637990
21
78.676011
0
LINE
8
Layer 1
10
145.637990
20
78.676011
11
159.638000
21
78.676013
0
LINE
8
Layer 1
10
178.688000
20
78.676021
11
178.688010
21
64.676021
0
LINE
8
Layer 1
10
178.688010
20
64.676021
11
164.688010
21
64.676037
0
LINE
8
Layer 1
10
164.688010
20
64.676037
11
164.688010
21
78.676037
0
LINE
8
Layer 1
10
164.688010
20
78.676037
11
178.688000
21
78.676021
0
LINE
8
Layer 1
10
197.738000
20
78.676010
11
197.737990
21
64.676010
0
LINE
8
Layer 1
10
197.737990
20
64.676010
11
183.737990
21
64.676007
0
LINE
8
Layer 1
10
183.737990
20
64.676007
11
183.737990
21
78.676007
0
LINE
8
Layer 1
10
183.737990
20
78.676007
11
197.738000
21
78.676010
0
LINE
8
Layer 1
10
216.788000
20
78.676018
11
216.788000
21
64.676000
0
LINE
8
Layer 1
10
216.788000
20
64.676000
11
202.788000
21
64.676005
0
LINE
8
Layer 1
10
202.788000
20
64.676005
11
202.788000
21
78.676005
0
LINE
8
Layer 1
10
202.788000
20
78.676005
11
216.788000
21
78.676018
0
LINE
8
Layer 1
10
235.838000
20
78.676013
11
235.838000
21
64.676000
0
LINE
8
Layer 1
10
235.838000
20
64.676000
11
221.838000
21
64.676003
0
LINE
8
Layer 1
10
221.838000
20
64.676003
11
221.838010
21
78.676003
0
LINE
8
Layer 1
10
221.838010
20
78.676003
11
235.838000
21
78.676013
0
LINE
8
Layer 1
10
312.038000
20
78.676013
11
312.038000
21
64.676000
0
LINE
8
Layer 1
10
312.038000
20
64.676000
11
298.038000
21
64.676000
0
LINE
8
Layer 1
10
298.038000
20
64.676000
11
298.038000
21
78.676000
0
LINE
8
Layer 1
10
298.038000
20
78.676000
11
312.038000
21
78.676013
0
LINE
8
Layer 1
10
36.682000
20
78.446013
11
36.682002
21
79.426012
0
LINE
8
Layer 1
10
36.682002
20
79.426012
11
39.982002
21
79.426017
0
LINE
8
Layer 1
10
39.982002
20
79.426017
11
39.982002
21
78.446019
0
LINE
8
Layer 1
10
39.982002
20
78.446019
11
41.707002
21
78.446019
0
LINE
8
Layer 1
10
41.707002
20
78.446019
11
41.707007
21
72.176009
0
LINE
8
Layer 1
10
41.707007
20
72.176009
11
42.532007
21
72.176011
0
LINE
8
Layer 1
10
42.532007
20
72.176011
11
42.532010
21
69.376011
0
LINE
8
Layer 1
10
42.532010
20
69.376011
11
41.707000
21
69.376011
0
LINE
8
Layer 1
10
41.707000
20
69.376011
11
41.706990
21
66.146021
0
LINE
8
Layer 1
10
41.706990
20
66.146021
11
39.981990
21
66.146021
0
LINE
8
Layer 1
10
39.981990
20
66.146021
11
39.981998
21
65.225012
0
LINE
8
Layer 1
10
39.981998
20
65.225012
11
36.681998
21
65.225006
0
LINE
8
Layer 1
10
36.681998
20
65.225006
11
36.681990
21
66.146016
0
LINE
8
Layer 1
10
36.681990
20
66.146016
11
34.956990
21
66.146016
0
LINE
8
Layer 1
10
34.956990
20
66.146016
11
34.956998
21
69.376006
0
LINE
8
Layer 1
10
34.956998
20
69.376006
11
33.431988
21
69.376019
0
LINE
8
Layer 1
10
33.431988
20
69.376019
11
33.431994
21
64.676019
0
LINE
8
Layer 1
10
33.431994
20
64.676019
11
19.431994
21
64.676016
0
LINE
8
Layer 1
10
19.431994
20
64.676016
11
19.431988
21
69.376026
0
LINE
8
Layer 1
10
19.431988
20
69.376026
11
17.906988
21
69.376020
0
LINE
8
Layer 1
10
17.906988
20
69.376020
11
17.906979
21
66.146030
0
LINE
8
Layer 1
10
17.906979
20
66.146030
11
16.181979
21
66.146030
0
LINE
8
Layer 1
10
16.181979
20
66.146030
11
16.181987
21
65.225024
0
LINE
8
Layer 1
10
16.181987
20
65.225024
11
12.881987
21
65.225018
0
LINE
8
Layer 1
10
12.881987
20
65.225018
11
12.881979
21
66.146025
0
LINE
8
Layer 1
10
12.881979
20
66.146025
11
11.157000
21
66.146025
0
LINE
8
Layer 1
10
11.157000
20
66.146025
11
11.156991
21
69.376035
0
LINE
8
Layer 1
10
11.156991
20
69.376035
11
10.331993
21
69.376035
0
LINE
8
Layer 1
10
10.331993
20
69.376035
11
10.332008
21
72.176015
0
LINE
8
Layer 1
10
10.332008
20
72.176015
11
11.157006
21
72.176015
0
LINE
8
Layer 1
10
11.157006
20
72.176015
11
11.157001
21
78.446025
0
LINE
8
Layer 1
10
11.157001
20
78.446025
11
12.882000
21
78.446025
0
LINE
8
Layer 1
10
12.882000
20
78.446025
11
12.882002
21
79.426023
0
LINE
8
Layer 1
10
12.882002
20
79.426023
11
16.182002
21
79.426028
0
LINE
8
Layer 1
10
16.182002
20
79.426028
11
16.182000
21
78.446030
0
LINE
8
Layer 1
10
16.182000
20
78.446030
11
17.907000
21
78.446030
0
LINE
8
Layer 1
10
17.907000
20
78.446030
11
17.907005
21
73.976030
0
LINE
8
Layer 1
10
17.907005
20
73.976030
11
19.432005
21
73.976035
0
LINE
8
Layer 1
10
19.432005
20
73.976035
11
19.432018
21
78.676025
0
LINE
8
Layer 1
10
19.432018
20
78.676025
11
33.432018
21
78.676028
0
LINE
8
Layer 1
10
33.432018
20
78.676028
11
33.432007
21
73.976038
0
LINE
8
Layer 1
10
33.432007
20
73.976038
11
34.957017
21
73.976025
0
LINE
8
Layer 1
10
34.957017
20
73.976025
11
34.957012
21
78.446025
0
LINE
8
Layer 1
10
34.957012
20
78.446025
11
36.682000
21
78.446013
0
LINE
8
Layer 1
10
274.807000
20
78.446013
11
274.807000
21
79.426012
0
LINE
8
Layer 1
10
274.807000
20
79.426012
11
278.106990
21
79.426012
0
LINE
8
Layer 1
10
278.106990
20
79.426012
11
278.106990
21
78.446000
0
LINE
8
Layer 1
10
278.106990
20
78.446000
11
279.831990
21
78.445998
0
LINE
8
Layer 1
10
279.831990
20
78.445998
11
279.831990
21
72.175998
0
LINE
8
Layer 1
10
279.831990
20
72.175998
11
280.656990
21
72.176001
0
LINE
8
Layer 1
10
280.656990
20
72.176001
11
280.656990
21
69.376001
0
LINE
8
Layer 1
10
280.656990
20
69.376001
11
279.831990
21
69.376001
0
LINE
8
Layer 1
10
279.831990
20
69.376001
11
279.831990
21
66.146000
0
LINE
8
Layer 1
10
279.831990
20
66.146000
11
278.106990
21
66.146000
0
LINE
8
Layer 1
10
278.106990
20
66.146000
11
278.106990
21
65.224999
0
LINE
8
Layer 1
10
278.106990
20
65.224999
11
274.807000
21
65.224999
0
LINE
8
Layer 1
10
274.807000
20
65.224999
11
274.807000
21
66.146000
0
LINE
8
Layer 1
10
274.807000
20
66.146000
11
273.081990
21
66.146000
0
LINE
8
Layer 1
10
273.081990
20
66.146000
11
273.081990
21
69.376000
0
LINE
8
Layer 1
10
273.081990
20
69.376000
11
271.556990
21
69.376000
0
LINE
8
Layer 1
10
271.556990
20
69.376000
11
271.556990
21
64.676000
0
LINE
8
Layer 1
10
271.556990
20
64.676000
11
257.555990
21
64.676000
0
LINE
8
Layer 1
10
257.555990
20
64.676000
11
257.555990
21
69.376000
0
LINE
8
Layer 1
10
257.555990
20
69.376000
11
256.031990
21
69.376000
0
LINE
8
Layer 1
10
256.031990
20
69.376000
11
256.031990
21
66.146000
0
LINE
8
Layer 1
10
256.031990
20
66.146000
11
254.306990
21
66.146000
0
LINE
8
Layer 1
10
254.306990
20
66.146000
11
254.306990
21
65.224999
0
LINE
8
Layer 1
10
254.306990
20
65.224999
11
251.006990
21
65.224999
0
LINE
8
Layer 1
10
251.006990
20
65.224999
11
251.006990
21
66.146000
0
LINE
8
Layer 1
10
251.006990
20
66.146000
11
249.281990
21
66.146000
0
LINE
8
Layer 1
10
249.281990
20
66.146000
11
249.281990
21
69.376000
0
LINE
8
Layer 1
10
249.281990
20
69.376000
11
248.456990
21
69.376000
0
LINE
8
Layer 1
10
248.456990
20
69.376000
11
248.456990
21
72.176000
0
LINE
8
Layer 1
10
248.456990
20
72.176000
11
249.281990
21
72.176003
0
LINE
8
Layer 1
10
249.281990
20
72.176003
11
249.281990
21
78.446003
0
LINE
8
Layer 1
10
249.281990
20
78.446003
11
251.006990
21
78.446001
0
LINE
8
Layer 1
10
251.006990
20
78.446001
11
251.006990
21
79.426002
0
LINE
8
Layer 1
10
251.006990
20
79.426002
11
254.306990
21
79.426002
0
LINE
8
Layer 1
10
254.306990
20
79.426002
11
254.306990
21
78.446000
0
LINE
8
Layer 1
10
254.306990
20
78.446000
11
256.031990
21
78.445998
0
LINE
8
Layer 1
10
256.031990
20
78.445998
11
256.031990
21
73.976000
0
LINE
8
Layer 1
10
256.031990
20
73.976000
11
257.555990
21
73.975997
0
LINE
8
Layer 1
10
257.555990
20
73.975997
11
257.555990
21
78.675997
0
LINE
8
Layer 1
10
257.555990
20
78.675997
11
271.556990
21
78.675997
0
LINE
8
Layer 1
10
271.556990
20
78.675997
11
271.556990
21
73.975997
0
LINE
8
Layer 1
10
271.556990
20
73.975997
11
273.081990
21
73.976000
0
LINE
8
Layer 1
10
273.081990
20
73.976000
11
273.081990
21
78.446000
0
LINE
8
Layer 1
10
273.081990
20
78.446000
11
274.807000
21
78.446013
0
LINE
8
Layer 1
10
23.907000
20
97.726013
11
23.906996
21
83.726013
0
LINE
8
Layer 1
10
23.906996
20
83.726013
11
9.906996
21
83.726011
0
LINE
8
Layer 1
10
9.906996
20
83.726011
11
9.906999
21
97.726011
0
LINE
8
Layer 1
10
9.906999
20
97.726011
11
23.907000
21
97.726013
0
LINE
8
Layer 1
10
47.719000
20
97.726016
11
47.718997
21
83.726016
0
LINE
8
Layer 1
10
47.718997
20
83.726016
11
33.719000
21
83.726016
0
LINE
8
Layer 1
10
33.719000
20
83.726016
11
33.719003
21
97.726016
0
LINE
8
Layer 1
10
33.719003
20
97.726016
11
47.719000
21
97.726016
0
LINE
8
Layer 1
10
71.532000
20
97.726016
11
71.531994
21
83.726016
0
LINE
8
Layer 1
10
71.531994
20
83.726016
11
57.531994
21
83.726014
0
LINE
8
Layer 1
10
57.531994
20
83.726014
11
57.531996
21
97.726014
0
LINE
8
Layer 1
10
57.531996
20
97.726014
11
71.532000
21
97.726016
0
LINE
8
Layer 1
10
138.207000
20
97.726005
11
138.207000
21
83.726000
0
LINE
8
Layer 1
10
138.207000
20
83.726000
11
124.207000
21
83.725995
0
LINE
8
Layer 1
10
124.207000
20
83.725995
11
124.207010
21
97.725995
0
LINE
8
Layer 1
10
124.207010
20
97.725995
11
138.207000
21
97.726005
0
LINE
8
Layer 1
10
214.407000
20
97.726003
11
214.407000
21
83.726000
0
LINE
8
Layer 1
10
214.407000
20
83.726000
11
200.407000
21
83.725997
0
LINE
8
Layer 1
10
200.407000
20
83.725997
11
200.406990
21
97.725997
0
LINE
8
Layer 1
10
200.406990
20
97.725997
11
214.407000
21
97.726003
0
LINE
8
Layer 1
10
238.219000
20
97.726005
11
238.218990
21
83.726005
0
LINE
8
Layer 1
10
238.218990
20
83.726005
11
224.218990
21
83.726000
0
LINE
8
Layer 1
10
224.218990
20
83.726000
11
224.218990
21
97.726000
0
LINE
8
Layer 1
10
224.218990
20
97.726000
11
238.219000
21
97.726005
0
LINE
8
Layer 1
10
262.032000
20
97.726010
11
262.032000
21
83.726000
0
LINE
8
Layer 1
10
262.032000
20
83.726000
11
248.032000
21
83.726000
0
LINE
8
Layer 1
10
248.032000
20
83.726000
11
248.032000
21
97.726000
0
LINE
8
Layer 1
10
248.032000
20
97.726000
11
262.032000
21
97.726010
0
LINE
8
Layer 1
10
292.988000
20
97.726010
11
292.988000
21
83.726000
0
LINE
8
Layer 1
10
292.988000
20
83.726000
11
278.988000
21
83.726000
0
LINE
8
Layer 1
10
278.988000
20
83.726000
11
278.988000
21
97.726000
0
LINE
8
Layer 1
10
278.988000
20
97.726000
11
292.988000
21
97.726010
0
LINE
8
Layer 1
10
312.038000
20
97.726010
11
312.038000
21
83.726000
0
LINE
8
Layer 1
10
312.038000
20
83.726000
11
298.038000
21
83.726000
0
LINE
8
Layer 1
10
298.038000
20
83.726000
11
298.038000
21
97.726000
0
LINE
8
Layer 1
10
298.038000
20
97.726000
11
312.038000
21
97.726010
0
LINE
8
Layer 1
10
331.088000
20
97.726018
11
331.088000
21
83.726000
0
LINE
8
Layer 1
10
331.088000
20
83.726000
11
317.088000
21
83.726000
0
LINE
8
Layer 1
10
317.088000
20
83.726000
11
317.088000
21
97.726000
0
LINE
8
Layer 1
10
317.088000
20
97.726000
11
331.088000
21
97.726018
0
LINE
8
Layer 1
10
108.119000
20
97.495000
11
108.118990
21
98.476001
0
LINE
8
Layer 1
10
108.118990
20
98.476001
11
111.418990
21
98.476007
0
LINE
8
Layer 1
10
111.418990
20
98.476007
11
111.418990
21
97.495003
0
LINE
8
Layer 1
10
111.418990
20
97.495003
11
113.143990
21
97.495006
0
LINE
8
Layer 1
10
113.143990
20
97.495006
11
113.143990
21
91.226006
0
LINE
8
Layer 1
10
113.143990
20
91.226006
11
113.968990
21
91.226008
0
LINE
8
Layer 1
10
113.968990
20
91.226008
11
113.968990
21
88.426008
0
LINE
8
Layer 1
10
113.968990
20
88.426008
11
113.143990
21
88.426008
0
LINE
8
Layer 1
10
113.143990
20
88.426008
11
113.143980
21
85.196018
0
LINE
8
Layer 1
10
113.143980
20
85.196018
11
111.418990
21
85.196018
0
LINE
8
Layer 1
10
111.418990
20
85.196018
11
111.418990
21
84.275011
0
LINE
8
Layer 1
10
111.418990
20
84.275011
11
108.119000
21
84.275003
0
LINE
8
Layer 1
10
108.119000
20
84.275003
11
108.118990
21
85.196013
0
LINE
8
Layer 1
10
108.118990
20
85.196013
11
106.393990
21
85.196013
0
LINE
8
Layer 1
10
106.393990
20
85.196013
11
106.393980
21
88.426023
0
LINE
8
Layer 1
10
106.393980
20
88.426023
11
104.868990
21
88.426018
0
LINE
8
Layer 1
10
104.868990
20
88.426018
11
104.869000
21
83.726018
0
LINE
8
Layer 1
10
104.869000
20
83.726018
11
90.869000
21
83.726015
0
LINE
8
Layer 1
10
90.869000
20
83.726015
11
90.868995
21
88.426015
0
LINE
8
Layer 1
10
90.868995
20
88.426015
11
89.343995
21
88.426010
0
LINE
8
Layer 1
10
89.343995
20
88.426010
11
89.343987
21
85.196020
0
LINE
8
Layer 1
10
89.343987
20
85.196020
11
87.618987
21
85.196017
0
LINE
8
Layer 1
10
87.618987
20
85.196017
11
87.618992
21
84.275011
0
LINE
8
Layer 1
10
87.618992
20
84.275011
11
84.318982
21
84.275024
0
LINE
8
Layer 1
10
84.318982
20
84.275024
11
84.318992
21
85.196015
0
LINE
8
Layer 1
10
84.318992
20
85.196015
11
82.593992
21
85.196012
0
LINE
8
Layer 1
10
82.593992
20
85.196012
11
82.593987
21
88.426022
0
LINE
8
Layer 1
10
82.593987
20
88.426022
11
81.768987
21
88.426020
0
LINE
8
Layer 1
10
81.768987
20
88.426020
11
81.768981
21
91.226020
0
LINE
8
Layer 1
10
81.768981
20
91.226020
11
82.593981
21
91.226020
0
LINE
8
Layer 1
10
82.593981
20
91.226020
11
82.593997
21
97.495000
0
LINE
8
Layer 1
10
82.593997
20
97.495000
11
84.318997
21
97.495000
0
LINE
8
Layer 1
10
84.318997
20
97.495000
11
84.318997
21
98.476001
0
LINE
8
Layer 1
10
84.318997
20
98.476001
11
87.618987
21
98.476006
0
LINE
8
Layer 1
10
87.618987
20
98.476006
11
87.618990
21
97.495005
0
LINE
8
Layer 1
10
87.618990
20
97.495005
11
89.343990
21
97.495005
0
LINE
8
Layer 1
10
89.343990
20
97.495005
11
89.343995
21
93.025005
0
LINE
8
Layer 1
10
89.343995
20
93.025005
11
90.868995
21
93.025010
0
LINE
8
Layer 1
10
90.868995
20
93.025010
11
90.868984
21
97.726020
0
LINE
8
Layer 1
10
90.868984
20
97.726020
11
104.868984
21
97.726005
0
LINE
8
Layer 1
10
104.868984
20
97.726005
11
104.868974
21
93.025015
0
LINE
8
Layer 1
10
104.868974
20
93.025015
11
106.393964
21
93.025020
0
LINE
8
Layer 1
10
106.393964
20
93.025020
11
106.393984
21
97.495010
0
LINE
8
Layer 1
10
106.393984
20
97.495010
11
108.119000
21
97.495000
0
LINE
8
Layer 1
10
179.557000
20
97.495003
11
179.557000
21
98.476004
0
LINE
8
Layer 1
10
179.557000
20
98.476004
11
182.856990
21
98.476009
0
LINE
8
Layer 1
10
182.856990
20
98.476009
11
182.856990
21
97.495006
0
LINE
8
Layer 1
10
182.856990
20
97.495006
11
184.581990
21
97.495008
0
LINE
8
Layer 1
10
184.581990
20
97.495008
11
184.581990
21
91.226008
0
LINE
8
Layer 1
10
184.581990
20
91.226008
11
185.406990
21
91.226011
0
LINE
8
Layer 1
10
185.406990
20
91.226011
11
185.407000
21
88.426011
0
LINE
8
Layer 1
10
185.407000
20
88.426011
11
184.582000
21
88.426009
0
LINE
8
Layer 1
10
184.582000
20
88.426009
11
184.581990
21
85.196019
0
LINE
8
Layer 1
10
184.581990
20
85.196019
11
182.856990
21
85.196019
0
LINE
8
Layer 1
10
182.856990
20
85.196019
11
182.857000
21
84.275012
0
LINE
8
Layer 1
10
182.857000
20
84.275012
11
179.557000
21
84.275007
0
LINE
8
Layer 1
10
179.557000
20
84.275007
11
179.556990
21
85.196014
0
LINE
8
Layer 1
10
179.556990
20
85.196014
11
177.831990
21
85.196014
0
LINE
8
Layer 1
10
177.831990
20
85.196014
11
177.831990
21
88.426024
0
LINE
8
Layer 1
10
177.831990
20
88.426024
11
176.306990
21
88.426022
0
LINE
8
Layer 1
10
176.306990
20
88.426022
11
176.307000
21
83.726012
0
LINE
8
Layer 1
10
176.307000
20
83.726012
11
162.307000
21
83.726010
0
LINE
8
Layer 1
10
162.307000
20
83.726010
11
162.307000
21
88.426010
0
LINE
8
Layer 1
10
162.307000
20
88.426010
11
160.782000
21
88.426005
0
LINE
8
Layer 1
10
160.782000
20
88.426005
11
160.781990
21
85.196015
0
LINE
8
Layer 1
10
160.781990
20
85.196015
11
159.056990
21
85.196015
0
LINE
8
Layer 1
10
159.056990
20
85.196015
11
159.057000
21
84.275008
0
LINE
8
Layer 1
10
159.057000
20
84.275008
11
155.757010
21
84.275003
0
LINE
8
Layer 1
10
155.757010
20
84.275003
11
155.757000
21
85.196010
0
LINE
8
Layer 1
10
155.757000
20
85.196010
11
154.032000
21
85.196010
0
LINE
8
Layer 1
10
154.032000
20
85.196010
11
154.031990
21
88.426020
0
LINE
8
Layer 1
10
154.031990
20
88.426020
11
153.206990
21
88.426020
0
LINE
8
Layer 1
10
153.206990
20
88.426020
11
153.206990
21
91.226020
0
LINE
8
Layer 1
10
153.206990
20
91.226020
11
154.032010
21
91.226004
0
LINE
8
Layer 1
10
154.032010
20
91.226004
11
154.032000
21
97.495004
0
LINE
8
Layer 1
10
154.032000
20
97.495004
11
155.757000
21
97.495004
0
LINE
8
Layer 1
10
155.757000
20
97.495004
11
155.757000
21
98.476005
0
LINE
8
Layer 1
10
155.757000
20
98.476005
11
159.056990
21
98.476011
0
LINE
8
Layer 1
10
159.056990
20
98.476011
11
159.057000
21
97.495010
0
LINE
8
Layer 1
10
159.057000
20
97.495010
11
160.782000
21
97.495010
0
LINE
8
Layer 1
10
160.782000
20
97.495010
11
160.782000
21
93.025010
0
LINE
8
Layer 1
10
160.782000
20
93.025010
11
162.306990
21
93.025012
0
LINE
8
Layer 1
10
162.306990
20
93.025012
11
162.307010
21
97.726002
0
LINE
8
Layer 1
10
162.307010
20
97.726002
11
176.307010
21
97.726004
0
LINE
8
Layer 1
10
176.307010
20
97.726004
11
176.307000
21
93.025014
0
LINE
8
Layer 1
10
176.307000
20
93.025014
11
177.832000
21
93.025019
0
LINE
8
Layer 1
10
177.832000
20
93.025019
11
177.832010
21
97.494999
0
LINE
8
Layer 1
10
177.832010
20
97.494999
11
179.557000
21
97.495003
0
LINE
8
Layer 1
10
290.663000
20
62.560303
11
290.127010
21
63.355003
0
LINE
8
Layer 1
10
290.127010
20
63.355003
11
289.332020
21
63.890702
0
LINE
8
Layer 1
10
289.332020
20
63.890702
11
288.359010
21
64.087203
0
LINE
8
Layer 1
10
288.359010
20
64.087203
11
287.386010
21
63.890702
0
LINE
8
Layer 1
10
287.386010
20
63.890702
11
286.591010
21
63.355003
0
LINE
8
Layer 1
10
286.591010
20
63.355003
11
286.056030
21
62.560303
0
LINE
8
Layer 1
10
286.056030
20
62.560303
11
285.859020
21
61.587206
0
LINE
8
Layer 1
10
285.859020
20
61.587206
11
286.050020
21
60.630501
0
LINE
8
Layer 1
10
286.050020
20
60.630501
11
286.591010
21
59.819403
0
LINE
8
Layer 1
10
286.591010
20
59.819403
11
287.403020
21
59.277504
0
LINE
8
Layer 1
10
287.403020
20
59.277504
11
288.359010
21
59.087203
0
LINE
8
Layer 1
10
288.359010
20
59.087203
11
289.316010
21
59.277504
0
LINE
8
Layer 1
10
289.316010
20
59.277504
11
290.127010
21
59.819405
0
LINE
8
Layer 1
10
290.127010
20
59.819405
11
290.669010
21
60.630501
0
LINE
8
Layer 1
10
290.669010
20
60.630501
11
290.859010
21
61.587203
0
LINE
8
Layer 1
10
290.859010
20
61.587203
11
290.663000
21
62.560303
0
LINE
8
Layer 1
10
212.084000
20
44.656403
11
211.548000
21
45.451007
0
LINE
8
Layer 1
10
211.548000
20
45.451007
11
210.753000
21
45.986804
0
LINE
8
Layer 1
10
210.753000
20
45.986804
11
209.780000
21
46.183305
0
LINE
8
Layer 1
10
209.780000
20
46.183305
11
208.807000
21
45.986807
0
LINE
8
Layer 1
10
208.807000
20
45.986807
11
208.013000
21
45.451007
0
LINE
8
Layer 1
10
208.013000
20
45.451007
11
207.477000
21
44.656405
0
LINE
8
Layer 1
10
207.477000
20
44.656405
11
207.280000
21
43.683307
0
LINE
8
Layer 1
10
207.280000
20
43.683307
11
207.477000
21
42.710104
0
LINE
8
Layer 1
10
207.477000
20
42.710104
11
208.013000
21
41.915507
0
LINE
8
Layer 1
10
208.013000
20
41.915507
11
208.807000
21
41.379705
0
LINE
8
Layer 1
10
208.807000
20
41.379705
11
209.780000
21
41.183307
0
LINE
8
Layer 1
10
209.780000
20
41.183307
11
210.753000
21
41.379705
0
LINE
8
Layer 1
10
210.753000
20
41.379705
11
211.548000
21
41.915507
0
LINE
8
Layer 1
10
211.548000
20
41.915507
11
212.084000
21
42.710106
0
LINE
8
Layer 1
10
212.084000
20
42.710106
11
212.280000
21
43.683307
0
LINE
8
Layer 1
10
212.280000
20
43.683307
11
212.084000
21
44.656403
0
LINE
8
Layer 1
10
135.902000
20
62.540103
11
135.367010
21
63.334692
0
LINE
8
Layer 1
10
135.367010
20
63.334692
11
134.571990
21
63.870513
0
LINE
8
Layer 1
10
134.571990
20
63.870513
11
133.599000
21
64.067003
0
LINE
8
Layer 1
10
133.599000
20
64.067003
11
132.626000
21
63.870503
0
LINE
8
Layer 1
10
132.626000
20
63.870503
11
131.830990
21
63.334705
0
LINE
8
Layer 1
10
131.830990
20
63.334705
11
131.294990
21
62.540109
0
LINE
8
Layer 1
10
131.294990
20
62.540109
11
131.099000
21
61.567003
0
LINE
8
Layer 1
10
131.099000
20
61.567003
11
131.289010
21
60.610196
0
LINE
8
Layer 1
10
131.289010
20
60.610196
11
131.831010
21
59.799195
0
LINE
8
Layer 1
10
131.831010
20
59.799195
11
132.642000
21
59.257299
0
LINE
8
Layer 1
10
132.642000
20
59.257299
11
133.598990
21
59.067008
0
LINE
8
Layer 1
10
133.598990
20
59.067008
11
134.555990
21
59.257310
0
LINE
8
Layer 1
10
134.555990
20
59.257310
11
135.367000
21
59.799200
0
LINE
8
Layer 1
10
135.367000
20
59.799200
11
135.909000
21
60.610206
0
LINE
8
Layer 1
10
135.909000
20
60.610206
11
136.098990
21
61.567008
0
LINE
8
Layer 1
10
136.098990
20
61.567008
11
135.902000
21
62.540103
0
LINE
8
Layer 1
10
54.936400
20
43.440503
11
54.394417
21
44.251483
0
LINE
8
Layer 1
10
54.394417
20
44.251483
11
53.583418
21
44.793484
0
LINE
8
Layer 1
10
53.583418
20
44.793484
11
52.626704
21
44.983799
0
LINE
8
Layer 1
10
52.626704
20
44.983799
11
51.670015
21
44.793487
0
LINE
8
Layer 1
10
51.670015
20
44.793487
11
50.858906
21
44.251496
0
LINE
8
Layer 1
10
50.858906
20
44.251496
11
50.317015
21
43.440487
0
LINE
8
Layer 1
10
50.317015
20
43.440487
11
50.126703
21
42.483799
0
LINE
8
Layer 1
10
50.126703
20
42.483799
11
50.323111
21
41.510691
0
LINE
8
Layer 1
10
50.323111
20
41.510691
11
50.858917
21
40.715985
0
LINE
8
Layer 1
10
50.858917
20
40.715985
11
51.653606
21
40.180196
0
LINE
8
Layer 1
10
51.653606
20
40.180196
11
52.626714
21
39.983788
0
LINE
8
Layer 1
10
52.626714
20
39.983788
11
53.599807
21
40.180196
0
LINE
8
Layer 1
10
53.599807
20
40.180196
11
54.394411
21
40.715991
0
LINE
8
Layer 1
10
54.394411
20
40.715991
11
54.930203
21
41.510701
0
LINE
8
Layer 1
10
54.930203
20
41.510701
11
55.126712
21
42.483786
0
LINE
8
Layer 1
10
55.126712
20
42.483786
11
54.936400
21
43.440503
0
LINE
8
Layer 1
10
4.332360
20
-0.656937
11
3.352340
21
-0.559970
0
LINE
8
Layer 1
10
3.352340
20
-0.559970
11
2.418940
21
-0.276334
0
LINE
8
Layer 1
10
2.418940
20
-0.276334
11
1.558360
21
0.183115
0
LINE
8
Layer 1
10
1.558360
20
0.183115
11
0.796830
21
0.807523
0
LINE
8
Layer 1
10
0.796830
20
0.807523
11
0.172424
21
1.569060
0
LINE
8
Layer 1
10
0.172424
20
1.569060
11
-0.287045
21
2.429652
0
LINE
8
Layer 1
10
-0.287045
20
2.429652
11
-0.570681
21
3.363055
0
LINE
8
Layer 1
10
-0.570681
20
3.363055
11
-0.667648
21
4.343071
0
LINE
8
Layer 1
10
-0.667648
20
4.343071
11
-0.667646
21
16.349771
0
LINE
8
Layer 1
10
-0.667646
20
16.349771
11
-0.412183
21
16.531165
0
LINE
8
Layer 1
10
-0.412183
20
16.531165
11
0.269008
21
16.668656
0
LINE
8
Layer 1
10
0.269008
20
16.668656
11
0.825266
21
17.043657
0
LINE
8
Layer 1
10
0.825266
20
17.043657
11
1.200306
21
17.599955
0
LINE
8
Layer 1
10
1.200306
20
17.599955
11
1.337817
21
18.281166
0
LINE
8
Layer 1
10
1.337817
20
18.281166
11
1.200301
21
18.962361
0
LINE
8
Layer 1
10
1.200301
20
18.962361
11
0.825255
21
19.518567
0
LINE
8
Layer 1
10
0.825255
20
19.518567
11
0.268995
21
19.893667
0
LINE
8
Layer 1
10
0.268995
20
19.893667
11
-0.412182
21
20.031165
0
LINE
8
Layer 1
10
-0.412182
20
20.031165
11
-0.667634
21
20.214308
0
LINE
8
Layer 1
10
-0.667634
20
20.214308
11
-0.667643
21
23.154868
0
LINE
8
Layer 1
10
-0.667643
20
23.154868
11
-0.589062
21
23.544166
0
LINE
8
Layer 1
10
-0.589062
20
23.544166
11
-0.374761
21
23.862063
0
LINE
8
Layer 1
10
-0.374761
20
23.862063
11
-0.056903
21
24.076468
0
LINE
8
Layer 1
10
-0.056903
20
24.076468
11
0.332367
21
24.155058
0
LINE
8
Layer 1
10
0.332367
20
24.155058
11
2.839487
21
24.155746
0
LINE
8
Layer 1
10
2.839487
20
24.155746
11
3.228740
21
24.234356
0
LINE
8
Layer 1
10
3.228740
20
24.234356
11
3.546614
21
24.448741
0
LINE
8
Layer 1
10
3.546614
20
24.448741
11
3.760916
21
24.766639
0
LINE
8
Layer 1
10
3.760916
20
24.766639
11
3.839498
21
25.155937
0
LINE
8
Layer 1
10
3.839498
20
25.155937
11
3.839493
21
80.305937
0
LINE
8
Layer 1
10
3.839493
20
80.305937
11
3.763373
21
80.688635
0
LINE
8
Layer 1
10
3.763373
20
80.688635
11
3.546590
21
81.013038
0
LINE
8
Layer 1
10
3.546590
20
81.013038
11
3.222174
21
81.229737
0
LINE
8
Layer 1
10
3.222174
20
81.229737
11
2.839493
21
81.305837
0
LINE
8
Layer 1
10
2.839493
20
81.305837
11
0.332363
21
81.305636
0
LINE
8
Layer 1
10
0.332363
20
81.305636
11
-0.050317
21
81.381736
0
LINE
8
Layer 1
10
-0.050317
20
81.381736
11
-0.374753
21
81.598448
0
LINE
8
Layer 1
10
-0.374753
20
81.598448
11
-0.591519
21
81.922939
0
LINE
8
Layer 1
10
-0.591519
20
81.922939
11
-0.667635
21
82.305534
0
LINE
8
Layer 1
10
-0.667635
20
82.305534
11
-0.667637
21
85.041774
0
LINE
8
Layer 1
10
-0.667637
20
85.041774
11
-0.412174
21
85.223170
0
LINE
8
Layer 1
10
-0.412174
20
85.223170
11
0.268999
21
85.360676
0
LINE
8
Layer 1
10
0.268999
20
85.360676
11
0.825257
21
85.735678
0
LINE
8
Layer 1
10
0.825257
20
85.735678
11
1.200298
21
86.291978
0
LINE
8
Layer 1
10
1.200298
20
86.291978
11
1.337808
21
86.973188
0
LINE
8
Layer 1
10
1.337808
20
86.973188
11
1.200292
21
87.654384
0
LINE
8
Layer 1
10
1.200292
20
87.654384
11
0.825265
21
88.210572
0
LINE
8
Layer 1
10
0.825265
20
88.210572
11
0.269005
21
88.585672
0
LINE
8
Layer 1
10
0.269005
20
88.585672
11
-0.412192
21
88.723187
0
LINE
8
Layer 1
10
-0.412192
20
88.723187
11
-0.667639
21
88.908205
0
LINE
8
Layer 1
10
-0.667639
20
88.908205
11
-0.667639
21
100.901905
0
LINE
8
Layer 1
10
-0.667639
20
100.901905
11
-0.570688
21
101.881895
0
LINE
8
Layer 1
10
-0.570688
20
101.881895
11
-0.287038
21
102.814905
0
LINE
8
Layer 1
10
-0.287038
20
102.814905
11
0.172415
21
103.675905
0
LINE
8
Layer 1
10
0.172415
20
103.675905
11
0.796830
21
104.437895
0
LINE
8
Layer 1
10
0.796830
20
104.437895
11
1.558348
21
105.061915
0
LINE
8
Layer 1
10
1.558348
20
105.061915
11
2.418932
21
105.520895
0
LINE
8
Layer 1
10
2.418932
20
105.520895
11
3.352350
21
105.804905
0
LINE
8
Layer 1
10
3.352350
20
105.804905
11
4.332359
21
105.901905
0
LINE
8
Layer 1
10
4.332359
20
105.901905
11
12.597679
21
105.901915
0
LINE
8
Layer 1
10
12.597679
20
105.901915
11
12.779238
21
105.646455
0
LINE
8
Layer 1
10
12.779238
20
105.646455
11
12.916736
21
104.965285
0
LINE
8
Layer 1
10
12.916736
20
104.965285
11
13.291732
21
104.409025
0
LINE
8
Layer 1
10
13.291732
20
104.409025
11
13.848042
21
104.033975
0
LINE
8
Layer 1
10
13.848042
20
104.033975
11
14.529237
21
103.896465
0
LINE
8
Layer 1
10
14.529237
20
103.896465
11
15.210447
21
104.033965
0
LINE
8
Layer 1
10
15.210447
20
104.033965
11
15.766642
21
104.409015
0
LINE
8
Layer 1
10
15.766642
20
104.409015
11
16.141747
21
104.965265
0
LINE
8
Layer 1
10
16.141747
20
104.965265
11
16.279236
21
105.646455
0
LINE
8
Layer 1
10
16.279236
20
105.646455
11
16.462033
21
105.901935
0
LINE
8
Layer 1
10
16.462033
20
105.901935
11
18.704183
21
105.901935
0
LINE
8
Layer 1
10
18.704183
20
105.901935
11
19.086889
21
105.825935
0
LINE
8
Layer 1
10
19.086889
20
105.825935
11
19.411285
21
105.608935
0
LINE
8
Layer 1
10
19.411285
20
105.608935
11
19.628084
21
105.284945
0
LINE
8
Layer 1
10
19.628084
20
105.284945
11
19.704184
21
104.901935
0
LINE
8
Layer 1
10
19.704184
20
104.901935
11
19.704189
21
102.404935
0
LINE
8
Layer 1
10
19.704189
20
102.404935
11
19.780289
21
102.021935
0
LINE
8
Layer 1
10
19.780289
20
102.021935
11
19.997083
21
101.697935
0
LINE
8
Layer 1
10
19.997083
20
101.697935
11
20.321481
21
101.480925
0
LINE
8
Layer 1
10
20.321481
20
101.480925
11
20.704185
21
101.404925
0
LINE
8
Layer 1
10
20.704185
20
101.404925
11
75.854185
21
101.404935
0
LINE
8
Layer 1
10
75.854185
20
101.404935
11
76.243496
21
101.483935
0
LINE
8
Layer 1
10
76.243496
20
101.483935
11
76.561387
21
101.697945
0
LINE
8
Layer 1
10
76.561387
20
101.697945
11
76.775896
21
102.015935
0
LINE
8
Layer 1
10
76.775896
20
102.015935
11
76.854596
21
102.404925
0
LINE
8
Layer 1
10
76.854596
20
102.404925
11
76.855896
21
104.900935
0
LINE
8
Layer 1
10
76.855896
20
104.900935
11
76.934696
21
105.290925
0
LINE
8
Layer 1
10
76.934696
20
105.290925
11
77.149096
21
105.608915
0
LINE
8
Layer 1
10
77.149096
20
105.608915
11
77.467096
21
105.822925
0
LINE
8
Layer 1
10
77.467096
20
105.822925
11
77.856390
21
105.900925
0
LINE
8
Layer 1
10
77.856390
20
105.900925
11
88.713990
21
105.901455
0
LINE
8
Layer 1
10
88.713990
20
105.901455
11
88.895394
21
105.645985
0
LINE
8
Layer 1
10
88.895394
20
105.645985
11
89.032893
21
104.964805
0
LINE
8
Layer 1
10
89.032893
20
104.964805
11
89.407889
21
104.408555
0
LINE
8
Layer 1
10
89.407889
20
104.408555
11
89.964197
21
104.033505
0
LINE
8
Layer 1
10
89.964197
20
104.033505
11
90.645393
21
103.895985
0
LINE
8
Layer 1
10
90.645393
20
103.895985
11
91.326603
21
104.033495
0
LINE
8
Layer 1
10
91.326603
20
104.033495
11
91.882799
21
104.408545
0
LINE
8
Layer 1
10
91.882799
20
104.408545
11
92.257902
21
104.964795
0
LINE
8
Layer 1
10
92.257902
20
104.964795
11
92.395392
21
105.645985
0
LINE
8
Layer 1
10
92.395392
20
105.645985
11
92.580431
21
105.901645
0
LINE
8
Layer 1
10
92.580431
20
105.901645
11
96.076431
21
105.901845
0
LINE
8
Layer 1
10
96.076431
20
105.901845
11
96.459034
21
105.825845
0
LINE
8
Layer 1
10
96.459034
20
105.825845
11
96.783432
21
105.608845
0
LINE
8
Layer 1
10
96.783432
20
105.608845
11
97.000027
21
105.284865
0
LINE
8
Layer 1
10
97.000027
20
105.284865
11
97.076037
21
104.901835
0
LINE
8
Layer 1
10
97.076037
20
104.901835
11
97.076037
21
104.901835
0
LINE
8
Layer 1
10
97.076037
20
104.901835
11
97.075243
21
102.404855
0
LINE
8
Layer 1
10
97.075243
20
102.404855
11
97.151243
21
102.021855
0
LINE
8
Layer 1
10
97.151243
20
102.021855
11
97.367849
21
101.697845
0
LINE
8
Layer 1
10
97.367849
20
101.697845
11
97.692244
21
101.480845
0
LINE
8
Layer 1
10
97.692244
20
101.480845
11
98.074848
21
101.404845
0
LINE
8
Layer 1
10
98.074848
20
101.404845
11
153.225048
21
101.404845
0
LINE
8
Layer 1
10
153.225048
20
101.404845
11
153.614048
21
101.483845
0
LINE
8
Layer 1
10
153.614048
20
101.483845
11
153.932058
21
101.697835
0
LINE
8
Layer 1
10
153.932058
20
101.697835
11
154.147048
21
102.015845
0
LINE
8
Layer 1
10
154.147048
20
102.015845
11
154.225048
21
102.404845
0
LINE
8
Layer 1
10
154.225048
20
102.404845
11
154.226048
21
104.901845
0
LINE
8
Layer 1
10
154.226048
20
104.901845
11
154.305048
21
105.290825
0
LINE
8
Layer 1
10
154.305048
20
105.290825
11
154.519038
21
105.608835
0
LINE
8
Layer 1
10
154.519038
20
105.608835
11
154.837038
21
105.822855
0
LINE
8
Layer 1
10
154.837038
20
105.822855
11
155.227038
21
105.901855
0
LINE
8
Layer 1
10
155.227038
20
105.901855
11
157.990578
21
105.901845
0
LINE
8
Layer 1
10
157.990578
20
105.901845
11
158.179638
21
105.646385
0
LINE
8
Layer 1
10
158.179638
20
105.646385
11
158.317138
21
104.965215
0
LINE
8
Layer 1
10
158.317138
20
104.965215
11
158.692128
21
104.408955
0
LINE
8
Layer 1
10
158.692128
20
104.408955
11
159.248438
21
104.033905
0
LINE
8
Layer 1
10
159.248438
20
104.033905
11
159.929638
21
103.896385
0
LINE
8
Layer 1
10
159.929638
20
103.896385
11
160.610828
21
104.033915
0
LINE
8
Layer 1
10
160.610828
20
104.033915
11
161.167048
21
104.408945
0
LINE
8
Layer 1
10
161.167048
20
104.408945
11
161.542128
21
104.965215
0
LINE
8
Layer 1
10
161.542128
20
104.965215
11
161.679638
21
105.646385
0
LINE
8
Layer 1
10
161.679638
20
105.646385
11
161.862428
21
105.901855
0
LINE
8
Layer 1
10
161.862428
20
105.901855
11
172.010028
21
105.901855
0
LINE
8
Layer 1
10
172.010028
20
105.901855
11
172.393018
21
105.825855
0
LINE
8
Layer 1
10
172.393018
20
105.825855
11
172.717018
21
105.608845
0
LINE
8
Layer 1
10
172.717018
20
105.608845
11
172.934028
21
105.284845
0
LINE
8
Layer 1
10
172.934028
20
105.284845
11
173.010028
21
104.901845
0
LINE
8
Layer 1
10
173.010028
20
104.901845
11
173.009028
21
102.404845
0
LINE
8
Layer 1
10
173.009028
20
102.404845
11
173.086028
21
102.021865
0
LINE
8
Layer 1
10
173.086028
20
102.021865
11
173.302028
21
101.697865
0
LINE
8
Layer 1
10
173.302028
20
101.697865
11
173.627028
21
101.480845
0
LINE
8
Layer 1
10
173.627028
20
101.480845
11
174.009038
21
101.404845
0
LINE
8
Layer 1
10
174.009038
20
101.404845
11
229.159038
21
101.404855
0
LINE
8
Layer 1
10
229.159038
20
101.404855
11
229.549038
21
101.483855
0
LINE
8
Layer 1
10
229.549038
20
101.483855
11
229.867028
21
101.697855
0
LINE
8
Layer 1
10
229.867028
20
101.697855
11
230.081038
21
102.015855
0
LINE
8
Layer 1
10
230.081038
20
102.015855
11
230.160038
21
102.404855
0
LINE
8
Layer 1
10
230.160038
20
102.404855
11
230.161038
21
104.901855
0
LINE
8
Layer 1
10
230.161038
20
104.901855
11
230.240038
21
105.290855
0
LINE
8
Layer 1
10
230.240038
20
105.290855
11
230.454038
21
105.608845
0
LINE
8
Layer 1
10
230.454038
20
105.608845
11
230.772038
21
105.822855
0
LINE
8
Layer 1
10
230.772038
20
105.822855
11
231.161038
21
105.901855
0
LINE
8
Layer 1
10
231.161038
20
105.901855
11
241.182238
21
105.901865
0
LINE
8
Layer 1
10
241.182238
20
105.901865
11
241.369818
21
105.646385
0
LINE
8
Layer 1
10
241.369818
20
105.646385
11
241.507308
21
104.965205
0
LINE
8
Layer 1
10
241.507308
20
104.965205
11
241.882308
21
104.408955
0
LINE
8
Layer 1
10
241.882308
20
104.408955
11
242.438598
21
104.033925
0
LINE
8
Layer 1
10
242.438598
20
104.033925
11
243.119818
21
103.896385
0
LINE
8
Layer 1
10
243.119818
20
103.896385
11
243.801008
21
104.033915
0
LINE
8
Layer 1
10
243.801008
20
104.033915
11
244.357208
21
104.408965
0
LINE
8
Layer 1
10
244.357208
20
104.408965
11
244.732308
21
104.965215
0
LINE
8
Layer 1
10
244.732308
20
104.965215
11
244.869818
21
105.646385
0
LINE
8
Layer 1
10
244.869818
20
105.646385
11
245.052608
21
105.901855
0
LINE
8
Layer 1
10
245.052608
20
105.901855
11
256.489108
21
105.901855
0
LINE
8
Layer 1
10
256.489108
20
105.901855
11
256.872108
21
105.825855
0
LINE
8
Layer 1
10
256.872108
20
105.825855
11
257.196108
21
105.608845
0
LINE
8
Layer 1
10
257.196108
20
105.608845
11
257.413108
21
105.284855
0
LINE
8
Layer 1
10
257.413108
20
105.284855
11
257.489108
21
104.901855
0
LINE
8
Layer 1
10
257.489108
20
104.901855
11
257.488108
21
102.404855
0
LINE
8
Layer 1
10
257.488108
20
102.404855
11
257.564108
21
102.021855
0
LINE
8
Layer 1
10
257.564108
20
102.021855
11
257.781108
21
101.697855
0
LINE
8
Layer 1
10
257.781108
20
101.697855
11
258.105108
21
101.480845
0
LINE
8
Layer 1
10
258.105108
20
101.480845
11
258.488108
21
101.404845
0
LINE
8
Layer 1
10
258.488108
20
101.404845
11
313.640108
21
101.398845
0
LINE
8
Layer 1
10
313.640108
20
101.398845
11
314.023098
21
101.474845
0
LINE
8
Layer 1
10
314.023098
20
101.474845
11
314.347108
21
101.691835
0
LINE
8
Layer 1
10
314.347108
20
101.691835
11
314.564088
21
102.015835
0
LINE
8
Layer 1
10
314.564088
20
102.015835
11
314.640088
21
102.398835
0
LINE
8
Layer 1
10
314.640088
20
102.398835
11
314.640088
21
104.901835
0
LINE
8
Layer 1
10
314.640088
20
104.901835
11
314.718088
21
105.290835
0
LINE
8
Layer 1
10
314.718088
20
105.290835
11
314.933098
21
105.608835
0
LINE
8
Layer 1
10
314.933098
20
105.608835
11
315.251118
21
105.822835
0
LINE
8
Layer 1
10
315.251118
20
105.822835
11
315.640108
21
105.901835
0
LINE
8
Layer 1
10
315.640108
20
105.901835
11
322.149258
21
105.901835
0
LINE
8
Layer 1
10
322.149258
20
105.901835
11
322.327378
21
105.646365
0
LINE
8
Layer 1
10
322.327378
20
105.646365
11
322.464908
21
104.965205
0
LINE
8
Layer 1
10
322.464908
20
104.965205
11
322.839898
21
104.408935
0
LINE
8
Layer 1
10
322.839898
20
104.408935
11
323.396218
21
104.033885
0
LINE
8
Layer 1
10
323.396218
20
104.033885
11
324.077408
21
103.896375
0
LINE
8
Layer 1
10
324.077408
20
103.896375
11
324.758608
21
104.033885
0
LINE
8
Layer 1
10
324.758608
20
104.033885
11
325.314818
21
104.408935
0
LINE
8
Layer 1
10
325.314818
20
104.408935
11
325.689918
21
104.965195
0
LINE
8
Layer 1
10
325.689918
20
104.965195
11
325.827388
21
105.646365
0
LINE
8
Layer 1
10
325.827388
20
105.646365
11
326.010188
21
105.901835
0
LINE
8
Layer 1
10
326.010188
20
105.901835
11
334.273108
21
105.901835
0
LINE
8
Layer 1
10
334.273108
20
105.901835
11
335.253098
21
105.804835
0
LINE
8
Layer 1
10
335.253098
20
105.804835
11
336.186098
21
105.520845
0
LINE
8
Layer 1
10
336.186098
20
105.520845
11
337.047048
21
105.061835
0
LINE
8
Layer 1
10
337.047048
20
105.061835
11
337.808098
21
104.436835
0
LINE
8
Layer 1
10
337.808098
20
104.436835
11
338.433068
21
103.675845
0
LINE
8
Layer 1
10
338.433068
20
103.675845
11
338.892098
21
102.814835
0
LINE
8
Layer 1
10
338.892098
20
102.814835
11
339.176128
21
101.881835
0
LINE
8
Layer 1
10
339.176128
20
101.881835
11
339.273128
21
100.901825
0
LINE
8
Layer 1
10
339.273128
20
100.901825
11
339.273128
21
88.908200
0
LINE
8
Layer 1
10
339.273128
20
88.908200
11
339.017648
21
88.725603
0
LINE
8
Layer 1
10
339.017648
20
88.725603
11
338.336478
21
88.588099
0
LINE
8
Layer 1
10
338.336478
20
88.588099
11
337.780218
21
88.213105
0
LINE
8
Layer 1
10
337.780218
20
88.213105
11
337.405198
21
87.656813
0
LINE
8
Layer 1
10
337.405198
20
87.656813
11
337.267698
21
86.975612
0
LINE
8
Layer 1
10
337.267698
20
86.975612
11
337.405198
21
86.294405
0
LINE
8
Layer 1
10
337.405198
20
86.294405
11
337.780248
21
85.738213
0
LINE
8
Layer 1
10
337.780248
20
85.738213
11
338.336508
21
85.363108
0
LINE
8
Layer 1
10
338.336508
20
85.363108
11
339.017648
21
85.225604
0
LINE
8
Layer 1
10
339.017648
20
85.225604
11
339.273128
21
85.042809
0
LINE
8
Layer 1
10
339.273128
20
85.042809
11
339.273128
21
82.306129
0
LINE
8
Layer 1
10
339.273128
20
82.306129
11
339.194128
21
81.916932
0
LINE
8
Layer 1
10
339.194128
20
81.916932
11
338.980108
21
81.599035
0
LINE
8
Layer 1
10
338.980108
20
81.599035
11
338.662128
21
81.384630
0
LINE
8
Layer 1
10
338.662128
20
81.384630
11
338.273088
21
81.306030
0
LINE
8
Layer 1
10
338.273088
20
81.306030
11
335.760128
21
81.305832
0
LINE
8
Layer 1
10
335.760128
20
81.305832
11
335.371138
21
81.227232
0
LINE
8
Layer 1
10
335.371138
20
81.227232
11
335.053108
21
81.012930
0
LINE
8
Layer 1
10
335.053108
20
81.012930
11
334.839088
21
80.695033
0
LINE
8
Layer 1
10
334.839088
20
80.695033
11
334.760088
21
80.305733
0
LINE
8
Layer 1
10
334.760088
20
80.305733
11
334.760088
21
25.156000
0
LINE
8
Layer 1
10
334.760088
20
25.156000
11
334.839088
21
24.766600
0
LINE
8
Layer 1
10
334.839088
20
24.766600
11
335.053108
21
24.448599
0
LINE
8
Layer 1
10
335.053108
20
24.448599
11
335.371138
21
24.233899
0
LINE
8
Layer 1
10
335.371138
20
24.233899
11
335.760128
21
24.154999
0
LINE
8
Layer 1
10
335.760128
20
24.154999
11
338.273088
21
24.152299
0
LINE
8
Layer 1
10
338.273088
20
24.152299
11
338.662128
21
24.073299
0
LINE
8
Layer 1
10
338.662128
20
24.073299
11
338.980108
21
23.858699
0
LINE
8
Layer 1
10
338.980108
20
23.858699
11
339.194128
21
23.540598
0
LINE
8
Layer 1
10
339.194128
20
23.540598
11
339.273128
21
23.151200
0
LINE
8
Layer 1
10
339.273128
20
23.151200
11
339.273128
21
20.215820
0
LINE
8
Layer 1
10
339.273128
20
20.215820
11
339.017678
21
20.027023
0
LINE
8
Layer 1
10
339.017678
20
20.027023
11
338.336508
21
19.889521
0
LINE
8
Layer 1
10
338.336508
20
19.889521
11
337.780248
21
19.514522
0
LINE
8
Layer 1
10
337.780248
20
19.514522
11
337.405198
21
18.958223
0
LINE
8
Layer 1
10
337.405198
20
18.958223
11
337.267698
21
18.277022
0
LINE
8
Layer 1
10
337.267698
20
18.277022
11
337.405198
21
17.595822
0
LINE
8
Layer 1
10
337.405198
20
17.595822
11
337.780248
21
17.039623
0
LINE
8
Layer 1
10
337.780248
20
17.039623
11
338.336508
21
16.664523
0
LINE
8
Layer 1
10
338.336508
20
16.664523
11
339.017678
21
16.527023
0
LINE
8
Layer 1
10
339.017678
20
16.527023
11
339.273128
21
16.344223
0
LINE
8
Layer 1
10
339.273128
20
16.344223
11
339.273128
21
4.343090
0
LINE
8
Layer 1
10
339.273128
20
4.343090
11
339.176128
21
3.363079
0
LINE
8
Layer 1
10
339.176128
20
3.363079
11
338.892098
21
2.429670
0
LINE
8
Layer 1
10
338.892098
20
2.429670
11
338.433098
21
1.569091
0
LINE
8
Layer 1
10
338.433098
20
1.569091
11
337.808098
21
0.807555
0
LINE
8
Layer 1
10
337.808098
20
0.807555
11
337.047078
21
0.183149
0
LINE
8
Layer 1
10
337.047078
20
0.183149
11
336.186098
21
-0.276309
0
LINE
8
Layer 1
10
336.186098
20
-0.276309
11
335.253098
21
-0.559950
0
LINE
8
Layer 1
10
335.253098
20
-0.559950
11
334.273108
21
-0.656910
0
LINE
8
Layer 1
10
334.273108
20
-0.656910
11
326.007128
21
-0.656910
0
LINE
8
Layer 1
10
326.007128
20
-0.656910
11
325.830698
21
-0.401472
0
LINE
8
Layer 1
10
325.830698
20
-0.401472
11
325.693198
21
0.279707
0
LINE
8
Layer 1
10
325.693198
20
0.279707
11
325.318198
21
0.835965
0
LINE
8
Layer 1
10
325.318198
20
0.835965
11
324.761888
21
1.211011
0
LINE
8
Layer 1
10
324.761888
20
1.211011
11
324.080688
21
1.348531
0
LINE
8
Layer 1
10
324.080688
20
1.348531
11
323.399498
21
1.211009
0
LINE
8
Layer 1
10
323.399498
20
1.211009
11
322.843288
21
0.835965
0
LINE
8
Layer 1
10
322.843288
20
0.835965
11
322.468188
21
0.279709
0
LINE
8
Layer 1
10
322.468188
20
0.279709
11
322.330688
21
-0.401472
0
LINE
8
Layer 1
10
322.330688
20
-0.401472
11
322.147888
21
-0.656910
0
LINE
8
Layer 1
10
322.147888
20
-0.656910
11
296.578088
21
-0.656910
0
LINE
8
Layer 1
10
296.578088
20
-0.656910
11
296.195098
21
-0.580789
0
LINE
8
Layer 1
10
296.195098
20
-0.580789
11
295.871088
21
-0.364015
0
LINE
8
Layer 1
10
295.871088
20
-0.364015
11
295.654128
21
-0.039593
0
LINE
8
Layer 1
10
295.654128
20
-0.039593
11
295.578128
21
0.343090
0
LINE
8
Layer 1
10
295.578128
20
0.343090
11
295.578128
21
2.864970
0
LINE
8
Layer 1
10
295.578128
20
2.864970
11
295.502128
21
3.247660
0
LINE
8
Layer 1
10
295.502128
20
3.247660
11
295.285148
21
3.572081
0
LINE
8
Layer 1
10
295.285148
20
3.572081
11
294.961108
21
3.788850
0
LINE
8
Layer 1
10
294.961108
20
3.788850
11
294.578128
21
3.864970
0
LINE
8
Layer 1
10
294.578128
20
3.864970
11
258.478028
21
3.864970
0
LINE
8
Layer 1
10
258.478028
20
3.864970
11
258.089038
21
3.786391
0
LINE
8
Layer 1
10
258.089038
20
3.786391
11
257.771038
21
3.572081
0
LINE
8
Layer 1
10
257.771038
20
3.572081
11
257.556038
21
3.254221
0
LINE
8
Layer 1
10
257.556038
20
3.254221
11
257.478038
21
2.864970
0
LINE
8
Layer 1
10
257.478038
20
2.864970
11
257.478038
21
0.343089
0
LINE
8
Layer 1
10
257.478038
20
0.343089
11
257.399038
21
-0.046162
0
LINE
8
Layer 1
10
257.399038
20
-0.046162
11
257.185038
21
-0.364022
0
LINE
8
Layer 1
10
257.185038
20
-0.364022
11
256.867038
21
-0.578328
0
LINE
8
Layer 1
10
256.867038
20
-0.578328
11
256.477048
21
-0.656911
0
LINE
8
Layer 1
10
256.477048
20
-0.656911
11
245.050748
21
-0.656911
0
LINE
8
Layer 1
10
245.050748
20
-0.656911
11
244.866068
21
-0.401473
0
LINE
8
Layer 1
10
244.866068
20
-0.401473
11
244.728578
21
0.279706
0
LINE
8
Layer 1
10
244.728578
20
0.279706
11
244.353578
21
0.835964
0
LINE
8
Layer 1
10
244.353578
20
0.835964
11
243.797278
21
1.211010
0
LINE
8
Layer 1
10
243.797278
20
1.211010
11
243.116078
21
1.348528
0
LINE
8
Layer 1
10
243.116078
20
1.348528
11
242.434878
21
1.211010
0
LINE
8
Layer 1
10
242.434878
20
1.211010
11
241.878668
21
0.835964
0
LINE
8
Layer 1
10
241.878668
20
0.835964
11
241.503568
21
0.279708
0
LINE
8
Layer 1
10
241.503568
20
0.279708
11
241.366078
21
-0.401471
0
LINE
8
Layer 1
10
241.366078
20
-0.401471
11
241.183278
21
-0.656911
0
LINE
8
Layer 1
10
241.183278
20
-0.656911
11
231.155078
21
-0.656912
0
LINE
8
Layer 1
10
231.155078
20
-0.656912
11
230.772068
21
-0.580769
0
LINE
8
Layer 1
10
230.772068
20
-0.580769
11
230.448078
21
-0.363950
0
LINE
8
Layer 1
10
230.448078
20
-0.363950
11
230.232078
21
-0.039512
0
LINE
8
Layer 1
10
230.232078
20
-0.039512
11
230.156078
21
0.343086
0
LINE
8
Layer 1
10
230.156078
20
0.343086
11
230.159078
21
2.855006
0
LINE
8
Layer 1
10
230.159078
20
2.855006
11
230.083078
21
3.237607
0
LINE
8
Layer 1
10
230.083078
20
3.237607
11
229.867078
21
3.562047
0
LINE
8
Layer 1
10
229.867078
20
3.562047
11
229.542098
21
3.778866
0
LINE
8
Layer 1
10
229.542098
20
3.778866
11
229.160098
21
3.855006
0
LINE
8
Layer 1
10
229.160098
20
3.855006
11
174.010098
21
3.855008
0
LINE
8
Layer 1
10
174.010098
20
3.855008
11
173.627098
21
3.778877
0
LINE
8
Layer 1
10
173.627098
20
3.778877
11
173.303098
21
3.562086
0
LINE
8
Layer 1
10
173.303098
20
3.562086
11
173.086098
21
3.237657
0
LINE
8
Layer 1
10
173.086098
20
3.237657
11
173.010098
21
2.855007
0
LINE
8
Layer 1
10
173.010098
20
2.855007
11
173.011098
21
0.343087
0
LINE
8
Layer 1
10
173.011098
20
0.343087
11
172.934998
21
-0.039594
0
LINE
8
Layer 1
10
172.934998
20
-0.039594
11
172.719008
21
-0.364049
0
LINE
8
Layer 1
10
172.719008
20
-0.364049
11
172.393988
21
-0.580839
0
LINE
8
Layer 1
10
172.393988
20
-0.580839
11
172.011988
21
-0.656941
0
LINE
8
Layer 1
10
172.011988
20
-0.656941
11
161.862088
21
-0.656941
0
LINE
8
Layer 1
10
161.862088
20
-0.656941
11
161.680688
21
-0.401501
0
LINE
8
Layer 1
10
161.680688
20
-0.401501
11
161.543188
21
0.279678
0
LINE
8
Layer 1
10
161.543188
20
0.279678
11
161.168178
21
0.835934
0
LINE
8
Layer 1
10
161.168178
20
0.835934
11
160.611878
21
1.210980
0
LINE
8
Layer 1
10
160.611878
20
1.210980
11
159.930678
21
1.348502
0
LINE
8
Layer 1
10
159.930678
20
1.348502
11
159.249478
21
1.210980
0
LINE
8
Layer 1
10
159.249478
20
1.210980
11
158.693278
21
0.835936
0
LINE
8
Layer 1
10
158.693278
20
0.835936
11
158.318178
21
0.279678
0
LINE
8
Layer 1
10
158.318178
20
0.279678
11
158.180678
21
-0.401501
0
LINE
8
Layer 1
10
158.180678
20
-0.401501
11
157.997758
21
-0.656939
0
LINE
8
Layer 1
10
157.997758
20
-0.656939
11
155.223118
21
-0.656941
0
LINE
8
Layer 1
10
155.223118
20
-0.656941
11
154.840128
21
-0.580814
0
LINE
8
Layer 1
10
154.840128
20
-0.580814
11
154.516138
21
-0.364022
0
LINE
8
Layer 1
10
154.516138
20
-0.364022
11
154.299138
21
-0.039591
0
LINE
8
Layer 1
10
154.299138
20
-0.039591
11
154.224138
21
0.343057
0
LINE
8
Layer 1
10
154.224138
20
0.343057
11
154.224138
21
2.854980
0
LINE
8
Layer 1
10
154.224138
20
2.854980
11
154.149138
21
3.237630
0
LINE
8
Layer 1
10
154.149138
20
3.237630
11
153.932128
21
3.562059
0
LINE
8
Layer 1
10
153.932128
20
3.562059
11
153.608138
21
3.778849
0
LINE
8
Layer 1
10
153.608138
20
3.778849
11
153.225138
21
3.854978
0
LINE
8
Layer 1
10
153.225138
20
3.854978
11
98.075038
21
3.854971
0
LINE
8
Layer 1
10
98.075038
20
3.854971
11
97.685720
21
3.776406
0
LINE
8
Layer 1
10
97.685720
20
3.776406
11
97.367831
21
3.562112
0
LINE
8
Layer 1
10
97.367831
20
3.562112
11
97.153320
21
3.244258
0
LINE
8
Layer 1
10
97.153320
20
3.244258
11
97.074620
21
2.854986
0
LINE
8
Layer 1
10
97.074620
20
2.854986
11
97.073827
21
0.341456
0
LINE
8
Layer 1
10
97.073827
20
0.341456
11
96.995117
21
-0.047791
0
LINE
8
Layer 1
10
96.995117
20
-0.047791
11
96.780720
21
-0.365640
0
LINE
8
Layer 1
10
96.780720
20
-0.365640
11
96.462821
21
-0.579908
0
LINE
8
Layer 1
10
96.462821
20
-0.579908
11
96.073518
21
-0.658457
0
LINE
8
Layer 1
10
96.073518
20
-0.658457
11
92.583628
21
-0.658194
0
LINE
8
Layer 1
10
92.583628
20
-0.658194
11
92.401256
21
-0.402440
0
LINE
8
Layer 1
10
92.401256
20
-0.402440
11
92.263755
21
0.278736
0
LINE
8
Layer 1
10
92.263755
20
0.278736
11
91.888758
21
0.834991
0
LINE
8
Layer 1
10
91.888758
20
0.834991
11
91.332400
21
1.210050
0
LINE
8
Layer 1
10
91.332400
20
1.210050
11
90.651200
21
1.347560
0
LINE
8
Layer 1
10
90.651200
20
1.347560
11
89.970000
21
1.210040
0
LINE
8
Layer 1
10
89.970000
20
1.210040
11
89.413800
21
0.835007
0
LINE
8
Layer 1
10
89.413800
20
0.835007
11
89.038711
21
0.278734
0
LINE
8
Layer 1
10
89.038711
20
0.278734
11
88.901204
21
-0.402437
0
LINE
8
Layer 1
10
88.901204
20
-0.402437
11
88.718107
21
-0.657879
0
LINE
8
Layer 1
10
88.718107
20
-0.657879
11
77.853507
21
-0.657019
0
LINE
8
Layer 1
10
77.853507
20
-0.657019
11
77.470806
21
-0.580865
0
LINE
8
Layer 1
10
77.470806
20
-0.580865
11
77.146503
21
-0.364055
0
LINE
8
Layer 1
10
77.146503
20
-0.364055
11
76.929712
21
-0.039624
0
LINE
8
Layer 1
10
76.929712
20
-0.039624
11
76.853712
21
0.343054
0
LINE
8
Layer 1
10
76.853712
20
0.343054
11
76.854241
21
2.854984
0
LINE
8
Layer 1
10
76.854241
20
2.854984
11
76.778251
21
3.237639
0
LINE
8
Layer 1
10
76.778251
20
3.237639
11
76.561541
21
3.562079
0
LINE
8
Layer 1
10
76.561541
20
3.562079
11
76.237138
21
3.778862
0
LINE
8
Layer 1
10
76.237138
20
3.778862
11
75.854437
21
3.854981
0
LINE
8
Layer 1
10
75.854437
20
3.854981
11
20.704337
21
3.854975
0
LINE
8
Layer 1
10
20.704337
20
3.854975
11
20.321826
21
3.778835
0
LINE
8
Layer 1
10
20.321826
20
3.778835
11
19.997735
21
3.561996
0
LINE
8
Layer 1
10
19.997735
20
3.561996
11
19.781340
21
3.237550
0
LINE
8
Layer 1
10
19.781340
20
3.237550
11
19.705850
21
2.854970
0
LINE
8
Layer 1
10
19.705850
20
2.854970
11
19.709650
21
0.343060
0
LINE
8
Layer 1
10
19.709650
20
0.343060
11
19.634020
21
-0.039509
0
LINE
8
Layer 1
10
19.634020
20
-0.039509
11
19.417711
21
-0.363940
0
LINE
8
Layer 1
10
19.417711
20
-0.363940
11
19.093612
21
-0.580779
0
LINE
8
Layer 1
10
19.093612
20
-0.580779
11
18.711219
21
-0.656946
0
LINE
8
Layer 1
10
18.711219
20
-0.656946
11
16.462169
21
-0.656950
0
LINE
8
Layer 1
10
16.462169
20
-0.656950
11
16.277823
21
-0.401516
0
LINE
8
Layer 1
10
16.277823
20
-0.401516
11
16.140325
21
0.279661
0
LINE
8
Layer 1
10
16.140325
20
0.279661
11
15.765327
21
0.835916
0
LINE
8
Layer 1
10
15.765327
20
0.835916
11
15.208900
21
1.210980
0
LINE
8
Layer 1
10
15.208900
20
1.210980
11
14.527700
21
1.348490
0
LINE
8
Layer 1
10
14.527700
20
1.348490
11
13.846500
21
1.210980
0
LINE
8
Layer 1
10
13.846500
20
1.210980
11
13.290300
21
0.835935
0
LINE
8
Layer 1
10
13.290300
20
0.835935
11
12.915200
21
0.279682
0
LINE
8
Layer 1
10
12.915200
20
0.279682
11
12.777700
21
-0.401508
0
LINE
8
Layer 1
10
12.777700
20
-0.401508
11
12.596200
21
-0.656931
0
LINE
8
Layer 1
10
12.596200
20
-0.656931
11
4.332360
21
-0.656937
0
LINE
8
Layer 1
10
331.885000
20
54.386800
11
331.544000
21
54.614394
0
LINE
8
Layer 1
10
331.544000
20
54.614394
11
331.143000
21
54.694294
0
LINE
8
Layer 1
10
331.143000
20
54.694294
11
330.740990
21
54.614394
0
LINE
8
Layer 1
10
330.740990
20
54.614394
11
330.400000
21
54.386797
0
LINE
8
Layer 1
10
330.400000
20
54.386797
11
330.173010
21
54.046096
0
LINE
8
Layer 1
10
330.173010
20
54.046096
11
330.093010
21
53.644299
0
LINE
8
Layer 1
10
330.093010
20
53.644299
11
330.173010
21
53.242498
0
LINE
8
Layer 1
10
330.173010
20
53.242498
11
330.400000
21
52.901799
0
LINE
8
Layer 1
10
330.400000
20
52.901799
11
330.740990
21
52.674197
0
LINE
8
Layer 1
10
330.740990
20
52.674197
11
331.143000
21
52.594297
0
LINE
8
Layer 1
10
331.143000
20
52.594297
11
331.544000
21
52.674197
0
LINE
8
Layer 1
10
331.544000
20
52.674197
11
331.885000
21
52.901797
0
LINE
8
Layer 1
10
331.885000
20
52.901797
11
332.113020
21
53.242498
0
LINE
8
Layer 1
10
332.113020
20
53.242498
11
332.193020
21
53.644299
0
LINE
8
Layer 1
10
332.193020
20
53.644299
11
332.113020
21
54.046096
0
LINE
8
Layer 1
10
332.113020
20
54.046096
11
331.885000
21
54.386800
0
LINE
8
Layer 1
10
299.890000
20
54.379300
11
299.550020
21
54.606900
0
LINE
8
Layer 1
10
299.550020
20
54.606900
11
299.148010
21
54.686800
0
LINE
8
Layer 1
10
299.148010
20
54.686800
11
298.746030
21
54.606900
0
LINE
8
Layer 1
10
298.746030
20
54.606900
11
298.405000
21
54.379300
0
LINE
8
Layer 1
10
298.405000
20
54.379300
11
298.178020
21
54.038601
0
LINE
8
Layer 1
10
298.178020
20
54.038601
11
298.098020
21
53.636800
0
LINE
8
Layer 1
10
298.098020
20
53.636800
11
298.178020
21
53.235001
0
LINE
8
Layer 1
10
298.178020
20
53.235001
11
298.405000
21
52.894297
0
LINE
8
Layer 1
10
298.405000
20
52.894297
11
298.746030
21
52.666700
0
LINE
8
Layer 1
10
298.746030
20
52.666700
11
299.148010
21
52.586800
0
LINE
8
Layer 1
10
299.148010
20
52.586800
11
299.550020
21
52.666700
0
LINE
8
Layer 1
10
299.550020
20
52.666700
11
299.890000
21
52.894297
0
LINE
8
Layer 1
10
299.890000
20
52.894297
11
300.118020
21
53.235001
0
LINE
8
Layer 1
10
300.118020
20
53.235001
11
300.198020
21
53.636800
0
LINE
8
Layer 1
10
300.198020
20
53.636800
11
300.118020
21
54.038601
0
LINE
8
Layer 1
10
300.118020
20
54.038601
11
299.890000
21
54.379300
0
LINE
8
Layer 1
10
331.885000
20
22.388700
11
331.544000
21
22.616299
0
LINE
8
Layer 1
10
331.544000
20
22.616299
11
331.143000
21
22.696199
0
LINE
8
Layer 1
10
331.143000
20
22.696199
11
330.740990
21
22.616299
0
LINE
8
Layer 1
10
330.740990
20
22.616299
11
330.400000
21
22.388698
0
LINE
8
Layer 1
10
330.400000
20
22.388698
11
330.173010
21
22.048000
0
LINE
8
Layer 1
10
330.173010
20
22.048000
11
330.093010
21
21.646198
0
LINE
8
Layer 1
10
330.093010
20
21.646198
11
330.173010
21
21.244399
0
LINE
8
Layer 1
10
330.173010
20
21.244399
11
330.400000
21
20.903799
0
LINE
8
Layer 1
10
330.400000
20
20.903799
11
330.740990
21
20.676100
0
LINE
8
Layer 1
10
330.740990
20
20.676100
11
331.143000
21
20.596200
0
LINE
8
Layer 1
10
331.143000
20
20.596200
11
331.544000
21
20.676100
0
LINE
8
Layer 1
10
331.544000
20
20.676100
11
331.885000
21
20.903799
0
LINE
8
Layer 1
10
331.885000
20
20.903799
11
332.113020
21
21.244400
0
LINE
8
Layer 1
10
332.113020
20
21.244400
11
332.193020
21
21.646198
0
LINE
8
Layer 1
10
332.193020
20
21.646198
11
332.113020
21
22.048000
0
LINE
8
Layer 1
10
332.113020
20
22.048000
11
331.885000
21
22.388700
0
LINE
8
Layer 1
10
299.890000
20
22.381200
11
299.550020
21
22.608797
0
LINE
8
Layer 1
10
299.550020
20
22.608797
11
299.148010
21
22.688697
0
LINE
8
Layer 1
10
299.148010
20
22.688697
11
298.746030
21
22.608797
0
LINE
8
Layer 1
10
298.746030
20
22.608797
11
298.405000
21
22.381198
0
LINE
8
Layer 1
10
298.405000
20
22.381198
11
298.178020
21
22.040498
0
LINE
8
Layer 1
10
298.178020
20
22.040498
11
298.098020
21
21.638696
0
LINE
8
Layer 1
10
298.098020
20
21.638696
11
298.178020
21
21.236897
0
LINE
8
Layer 1
10
298.178020
20
21.236897
11
298.405000
21
20.896297
0
LINE
8
Layer 1
10
298.405000
20
20.896297
11
298.746030
21
20.668598
0
LINE
8
Layer 1
10
298.746030
20
20.668598
11
299.148010
21
20.588698
0
LINE
8
Layer 1
10
299.148010
20
20.588698
11
299.550020
21
20.668598
0
LINE
8
Layer 1
10
299.550020
20
20.668598
11
299.890000
21
20.896297
0
LINE
8
Layer 1
10
299.890000
20
20.896297
11
300.118020
21
21.236897
0
LINE
8
Layer 1
10
300.118020
20
21.236897
11
300.198020
21
21.638698
0
LINE
8
Layer 1
10
300.198020
20
21.638698
11
300.118020
21
22.040498
0
LINE
8
Layer 1
10
300.118020
20
22.040498
11
299.890000
21
22.381200
0
LINE
8
Layer 1
10
168.603000
20
103.578000
11
167.808000
21
104.114010
0
LINE
8
Layer 1
10
167.808000
20
104.114010
11
166.835010
21
104.310000
0
LINE
8
Layer 1
10
166.835010
20
104.310000
11
165.862010
21
104.114000
0
LINE
8
Layer 1
10
165.862010
20
104.114000
11
165.067010
21
103.578000
0
LINE
8
Layer 1
10
165.067010
20
103.578000
11
164.531010
21
102.783000
0
LINE
8
Layer 1
10
164.531010
20
102.783000
11
164.335010
21
101.810000
0
LINE
8
Layer 1
10
164.335010
20
101.810000
11
164.525010
21
100.853000
0
LINE
8
Layer 1
10
164.525010
20
100.853000
11
165.067010
21
100.042000
0
LINE
8
Layer 1
10
165.067010
20
100.042000
11
165.878010
21
99.500398
0
LINE
8
Layer 1
10
165.878010
20
99.500398
11
166.835000
21
99.310108
0
LINE
8
Layer 1
10
166.835000
20
99.310108
11
167.792000
21
99.500408
0
LINE
8
Layer 1
10
167.792000
20
99.500408
11
168.603000
21
100.042010
0
LINE
8
Layer 1
10
168.603000
20
100.042010
11
169.145010
21
100.852990
0
LINE
8
Layer 1
10
169.145010
20
100.852990
11
169.335000
21
101.810010
0
LINE
8
Layer 1
10
169.335000
20
101.810010
11
169.138010
21
102.783000
0
LINE
8
Layer 1
10
169.138010
20
102.783000
11
168.603000
21
103.578000
0
LINE
8
Layer 1
10
168.603000
20
5.202400
11
167.808010
21
5.738169
0
LINE
8
Layer 1
10
167.808010
20
5.738169
11
166.835010
21
5.934628
0
LINE
8
Layer 1
10
166.835010
20
5.934628
11
165.862010
21
5.738169
0
LINE
8
Layer 1
10
165.862010
20
5.738169
11
165.067010
21
5.202400
0
LINE
8
Layer 1
10
165.067010
20
5.202400
11
164.531010
21
4.407740
0
LINE
8
Layer 1
10
164.531010
20
4.407740
11
164.335010
21
3.434630
0
LINE
8
Layer 1
10
164.335010
20
3.434630
11
164.531010
21
2.461519
0
LINE
8
Layer 1
10
164.531010
20
2.461519
11
165.067000
21
1.666860
0
LINE
8
Layer 1
10
165.067000
20
1.666860
11
165.862010
21
1.131089
0
LINE
8
Layer 1
10
165.862010
20
1.131089
11
166.835010
21
0.934630
0
LINE
8
Layer 1
10
166.835010
20
0.934630
11
167.808010
21
1.131089
0
LINE
8
Layer 1
10
167.808010
20
1.131089
11
168.603010
21
1.666860
0
LINE
8
Layer 1
10
168.603010
20
1.666860
11
169.138010
21
2.461520
0
LINE
8
Layer 1
10
169.138010
20
2.461520
11
169.335010
21
3.434629
0
LINE
8
Layer 1
10
169.335010
20
3.434629
11
169.138010
21
4.407738
0
LINE
8
Layer 1
10
169.138010
20
4.407738
11
168.603000
21
5.202400
0
LINE
8
Layer 1
10
254.402000
20
103.578000
11
253.607000
21
104.114000
0
LINE
8
Layer 1
10
253.607000
20
104.114000
11
252.634000
21
104.310000
0
LINE
8
Layer 1
10
252.634000
20
104.310000
11
251.661000
21
104.114000
0
LINE
8
Layer 1
10
251.661000
20
104.114000
11
250.866000
21
103.578000
0
LINE
8
Layer 1
10
250.866000
20
103.578000
11
250.330000
21
102.783000
0
LINE
8
Layer 1
10
250.330000
20
102.783000
11
250.134000
21
101.810000
0
LINE
8
Layer 1
10
250.134000
20
101.810000
11
250.324000
21
100.853000
0
LINE
8
Layer 1
10
250.324000
20
100.853000
11
250.866000
21
100.042000
0
LINE
8
Layer 1
10
250.866000
20
100.042000
11
251.677000
21
99.500398
0
LINE
8
Layer 1
10
251.677000
20
99.500398
11
252.634000
21
99.310098
0
LINE
8
Layer 1
10
252.634000
20
99.310098
11
253.590990
21
99.500398
0
LINE
8
Layer 1
10
253.590990
20
99.500398
11
254.402000
21
100.042000
0
LINE
8
Layer 1
10
254.402000
20
100.042000
11
254.943000
21
100.853000
0
LINE
8
Layer 1
10
254.943000
20
100.853000
11
255.134000
21
101.810010
0
LINE
8
Layer 1
10
255.134000
20
101.810010
11
254.937000
21
102.783000
0
LINE
8
Layer 1
10
254.937000
20
102.783000
11
254.402000
21
103.578000
0
LINE
8
Layer 1
10
254.402000
20
5.202400
11
253.607000
21
5.738169
0
LINE
8
Layer 1
10
253.607000
20
5.738169
11
252.634000
21
5.934639
0
LINE
8
Layer 1
10
252.634000
20
5.934639
11
251.661000
21
5.738171
0
LINE
8
Layer 1
10
251.661000
20
5.738171
11
250.866000
21
5.202400
0
LINE
8
Layer 1
10
250.866000
20
5.202400
11
250.330000
21
4.407750
0
LINE
8
Layer 1
10
250.330000
20
4.407750
11
250.134000
21
3.434640
0
LINE
8
Layer 1
10
250.134000
20
3.434640
11
250.330000
21
2.461520
0
LINE
8
Layer 1
10
250.330000
20
2.461520
11
250.866000
21
1.666870
0
LINE
8
Layer 1
10
250.866000
20
1.666870
11
251.661000
21
1.131101
0
LINE
8
Layer 1
10
251.661000
20
1.131101
11
252.634000
21
0.934637
0
LINE
8
Layer 1
10
252.634000
20
0.934637
11
253.607000
21
1.131100
0
LINE
8
Layer 1
10
253.607000
20
1.131100
11
254.402000
21
1.666871
0
LINE
8
Layer 1
10
254.402000
20
1.666871
11
254.937000
21
2.461521
0
LINE
8
Layer 1
10
254.937000
20
2.461521
11
255.134000
21
3.434641
0
LINE
8
Layer 1
10
255.134000
20
3.434641
11
254.937000
21
4.407750
0
LINE
8
Layer 1
10
254.937000
20
4.407750
11
254.402000
21
5.202400
0
LINE
8
Layer 1
10
83.040200
20
103.578000
11
82.245505
21
104.113990
0
LINE
8
Layer 1
10
82.245505
20
104.113990
11
81.272413
21
104.309990
0
LINE
8
Layer 1
10
81.272413
20
104.309990
11
80.299304
21
104.113990
0
LINE
8
Layer 1
10
80.299304
20
104.113990
11
79.504602
21
103.577990
0
LINE
8
Layer 1
10
79.504602
20
103.577990
11
78.968910
21
102.782990
0
LINE
8
Layer 1
10
78.968910
20
102.782990
11
78.772410
21
101.809990
0
LINE
8
Layer 1
10
78.772410
20
101.809990
11
78.962701
21
100.852990
0
LINE
8
Layer 1
10
78.962701
20
100.852990
11
79.504596
21
100.042000
0
LINE
8
Layer 1
10
79.504596
20
100.042000
11
80.315706
21
99.500388
0
LINE
8
Layer 1
10
80.315706
20
99.500388
11
81.272402
21
99.310098
0
LINE
8
Layer 1
10
81.272402
20
99.310098
11
82.229106
21
99.500388
0
LINE
8
Layer 1
10
82.229106
20
99.500388
11
83.040216
21
100.041990
0
LINE
8
Layer 1
10
83.040216
20
100.041990
11
83.582103
21
100.852990
0
LINE
8
Layer 1
10
83.582103
20
100.852990
11
83.772405
21
101.809990
0
LINE
8
Layer 1
10
83.772405
20
101.809990
11
83.575896
21
102.783000
0
LINE
8
Layer 1
10
83.575896
20
102.783000
11
83.040200
21
103.578000
0
LINE
8
Layer 1
10
83.040205
20
5.202400
11
82.245500
21
5.738174
0
LINE
8
Layer 1
10
82.245500
20
5.738174
11
81.272410
21
5.934635
0
LINE
8
Layer 1
10
81.272410
20
5.934635
11
80.299300
21
5.738220
0
LINE
8
Layer 1
10
80.299300
20
5.738220
11
79.504600
21
5.202440
0
LINE
8
Layer 1
10
79.504600
20
5.202440
11
78.968900
21
4.407790
0
LINE
8
Layer 1
10
78.968900
20
4.407790
11
78.772400
21
3.434680
0
LINE
8
Layer 1
10
78.772400
20
3.434680
11
78.968900
21
2.461560
0
LINE
8
Layer 1
10
78.968900
20
2.461560
11
79.504600
21
1.666910
0
LINE
8
Layer 1
10
79.504600
20
1.666910
11
80.299300
21
1.131140
0
LINE
8
Layer 1
10
80.299300
20
1.131140
11
81.272400
21
0.934684
0
LINE
8
Layer 1
10
81.272400
20
0.934684
11
82.245500
21
1.131140
0
LINE
8
Layer 1
10
82.245500
20
1.131140
11
83.040200
21
1.666920
0
LINE
8
Layer 1
10
83.040200
20
1.666920
11
83.575900
21
2.461570
0
LINE
8
Layer 1
10
83.575900
20
2.461570
11
83.772400
21
3.434690
0
LINE
8
Layer 1
10
83.772400
20
3.434690
11
83.575900
21
4.407800
0
LINE
8
Layer 1
10
83.575900
20
4.407800
11
83.040205
21
5.202400
0
LINE
8
Layer 1
10
336.953205
20
103.578000
11
336.158185
21
104.113990
0
LINE
8
Layer 1
10
336.158185
20
104.113990
11
335.185205
21
104.310000
0
LINE
8
Layer 1
10
335.185205
20
104.310000
11
334.212205
21
104.113990
0
LINE
8
Layer 1
10
334.212205
20
104.113990
11
333.417215
21
103.578000
0
LINE
8
Layer 1
10
333.417215
20
103.578000
11
332.881215
21
102.783000
0
LINE
8
Layer 1
10
332.881215
20
102.783000
11
332.685185
21
101.810000
0
LINE
8
Layer 1
10
332.685185
20
101.810000
11
332.875215
21
100.852990
0
LINE
8
Layer 1
10
332.875215
20
100.852990
11
333.417215
21
100.041980
0
LINE
8
Layer 1
10
333.417215
20
100.041980
11
334.228215
21
99.500388
0
LINE
8
Layer 1
10
334.228215
20
99.500388
11
335.185205
21
99.310088
0
LINE
8
Layer 1
10
335.185205
20
99.310088
11
336.142205
21
99.500398
0
LINE
8
Layer 1
10
336.142205
20
99.500398
11
336.953205
21
100.041990
0
LINE
8
Layer 1
10
336.953205
20
100.041990
11
337.495205
21
100.852980
0
LINE
8
Layer 1
10
337.495205
20
100.852980
11
337.685205
21
101.810000
0
LINE
8
Layer 1
10
337.685205
20
101.810000
11
337.489205
21
102.782980
0
LINE
8
Layer 1
10
337.489205
20
102.782980
11
336.953205
21
103.578000
0
LINE
8
Layer 1
10
336.953205
20
5.202400
11
336.158185
21
5.738169
0
LINE
8
Layer 1
10
336.158185
20
5.738169
11
335.185205
21
5.934639
0
LINE
8
Layer 1
10
335.185205
20
5.934639
11
334.212205
21
5.738169
0
LINE
8
Layer 1
10
334.212205
20
5.738169
11
333.417215
21
5.202398
0
LINE
8
Layer 1
10
333.417215
20
5.202398
11
332.881195
21
4.407750
0
LINE
8
Layer 1
10
332.881195
20
4.407750
11
332.685185
21
3.434639
0
LINE
8
Layer 1
10
332.685185
20
3.434639
11
332.881195
21
2.461518
0
LINE
8
Layer 1
10
332.881195
20
2.461518
11
333.417215
21
1.666870
0
LINE
8
Layer 1
10
333.417215
20
1.666870
11
334.212205
21
1.131099
0
LINE
8
Layer 1
10
334.212205
20
1.131099
11
335.185205
21
0.934635
0
LINE
8
Layer 1
10
335.185205
20
0.934635
11
336.158185
21
1.131099
0
LINE
8
Layer 1
10
336.158185
20
1.131099
11
336.953205
21
1.666868
0
LINE
8
Layer 1
10
336.953205
20
1.666868
11
337.489205
21
2.461520
0
LINE
8
Layer 1
10
337.489205
20
2.461520
11
337.685205
21
3.434640
0
LINE
8
Layer 1
10
337.685205
20
3.434640
11
337.489205
21
4.407751
0
LINE
8
Layer 1
10
337.489205
20
4.407751
11
336.953205
21
5.202400
0
LINE
8
Layer 1
10
5.197790
20
103.578000
11
4.403140
21
104.114000
0
LINE
8
Layer 1
10
4.403140
20
104.114000
11
3.430020
21
104.310000
0
LINE
8
Layer 1
10
3.430020
20
104.310000
11
2.456910
21
104.114000
0
LINE
8
Layer 1
10
2.456910
20
104.114000
11
1.662270
21
103.578000
0
LINE
8
Layer 1
10
1.662270
20
103.578000
11
1.126480
21
102.783000
0
LINE
8
Layer 1
10
1.126480
20
102.783000
11
0.930022
21
101.810000
0
LINE
8
Layer 1
10
0.930022
20
101.810000
11
1.120328
21
100.852990
0
LINE
8
Layer 1
10
1.120328
20
100.852990
11
1.662257
21
100.041990
0
LINE
8
Layer 1
10
1.662257
20
100.041990
11
2.473306
21
99.500398
0
LINE
8
Layer 1
10
2.473306
20
99.500398
11
3.430026
21
99.310088
0
LINE
8
Layer 1
10
3.430026
20
99.310088
11
4.386737
21
99.500388
0
LINE
8
Layer 1
10
4.386737
20
99.500388
11
5.197785
21
100.042000
0
LINE
8
Layer 1
10
5.197785
20
100.042000
11
5.739713
21
100.853010
0
LINE
8
Layer 1
10
5.739713
20
100.853010
11
5.930014
21
101.810010
0
LINE
8
Layer 1
10
5.930014
20
101.810010
11
5.733562
21
102.783000
0
LINE
8
Layer 1
10
5.733562
20
102.783000
11
5.197790
21
103.578000
0
LINE
8
Layer 1
10
5.197790
20
5.202380
11
4.386730
21
5.744310
0
LINE
8
Layer 1
10
4.386730
20
5.744310
11
3.430020
21
5.934600
0
LINE
8
Layer 1
10
3.430020
20
5.934600
11
2.473320
21
5.744310
0
LINE
8
Layer 1
10
2.473320
20
5.744310
11
1.662260
21
5.202370
0
LINE
8
Layer 1
10
1.662260
20
5.202370
11
1.120330
21
4.391320
0
LINE
8
Layer 1
10
1.120330
20
4.391320
11
0.930027
21
3.434610
0
LINE
8
Layer 1
10
0.930027
20
3.434610
11
1.126480
21
2.461510
0
LINE
8
Layer 1
10
1.126480
20
2.461510
11
1.662260
21
1.666840
0
LINE
8
Layer 1
10
1.662260
20
1.666840
11
2.456920
21
1.131060
0
LINE
8
Layer 1
10
2.456920
20
1.131060
11
3.430020
21
0.934611
0
LINE
8
Layer 1
10
3.430020
20
0.934611
11
4.386730
21
1.124910
0
LINE
8
Layer 1
10
4.386730
20
1.124910
11
5.197780
21
1.666850
0
LINE
8
Layer 1
10
5.197780
20
1.666850
11
5.739720
21
2.477900
0
LINE
8
Layer 1
10
5.739720
20
2.477900
11
5.930020
21
3.434610
0
LINE
8
Layer 1
10
5.930020
20
3.434610
11
5.739730
21
4.391310
0
LINE
8
Layer 1
10
5.739730
20
4.391310
11
5.197790
21
5.202380
 0 
ENDSEC
 0 
EOF