999
"DXF R12 Output" (www.mydxf.blogspot.com)
 0 
SECTION
 2 
HEADER
 9 
$ACADVER
 1 
AC1009
 9 
$EXTMIN
 10 
 0 
 20 
 0 
 9 
$EXTMAX
 10 
 8.5 
 20 
 11 
 0 
ENDSEC
 0 
SECTION
 2 
ENTITIES
0
LINE
8
Layer 1
10
290.663000
20
62.560300
11
290.127000
21
63.355000
0
LINE
8
Layer 1
10
290.127000
20
63.355000
11
289.332010
21
63.890699
0
LINE
8
Layer 1
10
289.332010
20
63.890699
11
288.359000
21
64.087200
0
LINE
8
Layer 1
10
288.359000
20
64.087200
11
287.386000
21
63.890699
0
LINE
8
Layer 1
10
287.386000
20
63.890699
11
286.591000
21
63.355000
0
LINE
8
Layer 1
10
286.591000
20
63.355000
11
286.056020
21
62.560300
0
LINE
8
Layer 1
10
286.056020
20
62.560300
11
285.859010
21
61.587200
0
LINE
8
Layer 1
10
285.859010
20
61.587200
11
286.050010
21
60.630498
0
LINE
8
Layer 1
10
286.050010
20
60.630498
11
286.591000
21
59.819399
0
LINE
8
Layer 1
10
286.591000
20
59.819399
11
287.403010
21
59.277498
0
LINE
8
Layer 1
10
287.403010
20
59.277498
11
288.359000
21
59.087199
0
LINE
8
Layer 1
10
288.359000
20
59.087199
11
289.316000
21
59.277498
0
LINE
8
Layer 1
10
289.316000
20
59.277498
11
290.127000
21
59.819399
0
LINE
8
Layer 1
10
290.127000
20
59.819399
11
290.669000
21
60.630498
0
LINE
8
Layer 1
10
290.669000
20
60.630498
11
290.859000
21
61.587200
0
LINE
8
Layer 1
10
290.859000
20
61.587200
11
290.663000
21
62.560300
0
LINE
8
Layer 1
10
212.084000
20
44.656400
11
211.548000
21
45.451002
0
LINE
8
Layer 1
10
211.548000
20
45.451002
11
210.753000
21
45.986802
0
LINE
8
Layer 1
10
210.753000
20
45.986802
11
209.780000
21
46.183303
0
LINE
8
Layer 1
10
209.780000
20
46.183303
11
208.807000
21
45.986802
0
LINE
8
Layer 1
10
208.807000
20
45.986802
11
208.013000
21
45.451002
0
LINE
8
Layer 1
10
208.013000
20
45.451002
11
207.477000
21
44.656400
0
LINE
8
Layer 1
10
207.477000
20
44.656400
11
207.280000
21
43.683302
0
LINE
8
Layer 1
10
207.280000
20
43.683302
11
207.477000
21
42.710101
0
LINE
8
Layer 1
10
207.477000
20
42.710101
11
208.013000
21
41.915502
0
LINE
8
Layer 1
10
208.013000
20
41.915502
11
208.807000
21
41.379702
0
LINE
8
Layer 1
10
208.807000
20
41.379702
11
209.780000
21
41.183302
0
LINE
8
Layer 1
10
209.780000
20
41.183302
11
210.753000
21
41.379702
0
LINE
8
Layer 1
10
210.753000
20
41.379702
11
211.548000
21
41.915502
0
LINE
8
Layer 1
10
211.548000
20
41.915502
11
212.084000
21
42.710101
0
LINE
8
Layer 1
10
212.084000
20
42.710101
11
212.280000
21
43.683302
0
LINE
8
Layer 1
10
212.280000
20
43.683302
11
212.084000
21
44.656400
0
LINE
8
Layer 1
10
135.902000
20
62.540100
11
135.367000
21
63.334699
0
LINE
8
Layer 1
10
135.367000
20
63.334699
11
134.572000
21
63.870499
0
LINE
8
Layer 1
10
134.572000
20
63.870499
11
133.599000
21
64.067000
0
LINE
8
Layer 1
10
133.599000
20
64.067000
11
132.626000
21
63.870499
0
LINE
8
Layer 1
10
132.626000
20
63.870499
11
131.831000
21
63.334699
0
LINE
8
Layer 1
10
131.831000
20
63.334699
11
131.295000
21
62.540100
0
LINE
8
Layer 1
10
131.295000
20
62.540100
11
131.099000
21
61.567000
0
LINE
8
Layer 1
10
131.099000
20
61.567000
11
131.289000
21
60.610200
0
LINE
8
Layer 1
10
131.289000
20
60.610200
11
131.831000
21
59.799199
0
LINE
8
Layer 1
10
131.831000
20
59.799199
11
132.642000
21
59.257301
0
LINE
8
Layer 1
10
132.642000
20
59.257301
11
133.599000
21
59.066999
0
LINE
8
Layer 1
10
133.599000
20
59.066999
11
134.556000
21
59.257301
0
LINE
8
Layer 1
10
134.556000
20
59.257301
11
135.367000
21
59.799199
0
LINE
8
Layer 1
10
135.367000
20
59.799199
11
135.909000
21
60.610200
0
LINE
8
Layer 1
10
135.909000
20
60.610200
11
136.099000
21
61.567000
0
LINE
8
Layer 1
10
136.099000
20
61.567000
11
135.902000
21
62.540100
0
LINE
8
Layer 1
10
54.936400
20
43.440500
11
54.394400
21
44.251500
0
LINE
8
Layer 1
10
54.394400
20
44.251500
11
53.583400
21
44.793500
0
LINE
8
Layer 1
10
53.583400
20
44.793500
11
52.626700
21
44.983800
0
LINE
8
Layer 1
10
52.626700
20
44.983800
11
51.670000
21
44.793500
0
LINE
8
Layer 1
10
51.670000
20
44.793500
11
50.858900
21
44.251500
0
LINE
8
Layer 1
10
50.858900
20
44.251500
11
50.317000
21
43.440500
0
LINE
8
Layer 1
10
50.317000
20
43.440500
11
50.126700
21
42.483800
0
LINE
8
Layer 1
10
50.126700
20
42.483800
11
50.323100
21
41.510699
0
LINE
8
Layer 1
10
50.323100
20
41.510699
11
50.858900
21
40.715999
0
LINE
8
Layer 1
10
50.858900
20
40.715999
11
51.653600
21
40.180200
0
LINE
8
Layer 1
10
51.653600
20
40.180200
11
52.626700
21
39.983799
0
LINE
8
Layer 1
10
52.626700
20
39.983799
11
53.599798
21
40.180200
0
LINE
8
Layer 1
10
53.599798
20
40.180200
11
54.394400
21
40.715999
0
LINE
8
Layer 1
10
54.394400
20
40.715999
11
54.930200
21
41.510699
0
LINE
8
Layer 1
10
54.930200
20
41.510699
11
55.126698
21
42.483800
0
LINE
8
Layer 1
10
55.126698
20
42.483800
11
54.936400
21
43.440500
0
LINE
8
Layer 1
10
97.075200
20
102.405000
11
97.151200
21
102.022000
0
LINE
8
Layer 1
10
97.151200
20
102.022000
11
97.367799
21
101.698000
0
LINE
8
Layer 1
10
97.367799
20
101.698000
11
97.692199
21
101.480990
0
LINE
8
Layer 1
10
97.692199
20
101.480990
11
98.074800
21
101.404990
0
LINE
8
Layer 1
10
98.074800
20
101.404990
11
153.225000
21
101.404990
0
LINE
8
Layer 1
10
153.225000
20
101.404990
11
153.614000
21
101.483990
0
LINE
8
Layer 1
10
153.614000
20
101.483990
11
153.932000
21
101.697990
0
LINE
8
Layer 1
10
153.932000
20
101.697990
11
154.147000
21
102.015990
0
LINE
8
Layer 1
10
154.147000
20
102.015990
11
154.225000
21
102.404990
0
LINE
8
Layer 1
10
154.225000
20
102.404990
11
154.226000
21
104.901990
0
LINE
8
Layer 1
10
154.226000
20
104.901990
11
154.305000
21
105.290980
0
LINE
8
Layer 1
10
154.305000
20
105.290980
11
154.519000
21
105.608980
0
LINE
8
Layer 1
10
154.519000
20
105.608980
11
154.837000
21
105.822990
0
LINE
8
Layer 1
10
154.837000
20
105.822990
11
155.227000
21
105.901990
0
LINE
8
Layer 1
10
155.227000
20
105.901990
11
172.010000
21
105.901990
0
LINE
8
Layer 1
10
172.010000
20
105.901990
11
172.393000
21
105.825990
0
LINE
8
Layer 1
10
172.393000
20
105.825990
11
172.717000
21
105.608980
0
LINE
8
Layer 1
10
172.717000
20
105.608980
11
172.934000
21
105.284990
0
LINE
8
Layer 1
10
172.934000
20
105.284990
11
173.010000
21
104.901990
0
LINE
8
Layer 1
10
173.010000
20
104.901990
11
173.009000
21
102.404990
0
LINE
8
Layer 1
10
173.009000
20
102.404990
11
173.086000
21
102.021990
0
LINE
8
Layer 1
10
173.086000
20
102.021990
11
173.302000
21
101.697990
0
LINE
8
Layer 1
10
173.302000
20
101.697990
11
173.627000
21
101.480980
0
LINE
8
Layer 1
10
173.627000
20
101.480980
11
174.009000
21
101.404980
0
LINE
8
Layer 1
10
174.009000
20
101.404980
11
229.159000
21
101.404980
0
LINE
8
Layer 1
10
229.159000
20
101.404980
11
229.549000
21
101.483980
0
LINE
8
Layer 1
10
229.549000
20
101.483980
11
229.867000
21
101.697980
0
LINE
8
Layer 1
10
229.867000
20
101.697980
11
230.081000
21
102.015980
0
LINE
8
Layer 1
10
230.081000
20
102.015980
11
230.160000
21
102.404980
0
LINE
8
Layer 1
10
230.160000
20
102.404980
11
230.161000
21
104.901980
0
LINE
8
Layer 1
10
230.161000
20
104.901980
11
230.240000
21
105.290970
0
LINE
8
Layer 1
10
230.240000
20
105.290970
11
230.454000
21
105.608970
0
LINE
8
Layer 1
10
230.454000
20
105.608970
11
230.772000
21
105.822980
0
LINE
8
Layer 1
10
230.772000
20
105.822980
11
231.161000
21
105.901980
0
LINE
8
Layer 1
10
231.161000
20
105.901980
11
256.489000
21
105.901980
0
LINE
8
Layer 1
10
256.489000
20
105.901980
11
256.872000
21
105.825980
0
LINE
8
Layer 1
10
256.872000
20
105.825980
11
257.196000
21
105.608970
0
LINE
8
Layer 1
10
257.196000
20
105.608970
11
257.413000
21
105.284980
0
LINE
8
Layer 1
10
257.413000
20
105.284980
11
257.489000
21
104.901980
0
LINE
8
Layer 1
10
257.489000
20
104.901980
11
257.488000
21
102.404980
0
LINE
8
Layer 1
10
257.488000
20
102.404980
11
257.564000
21
102.021980
0
LINE
8
Layer 1
10
257.564000
20
102.021980
11
257.781000
21
101.697980
0
LINE
8
Layer 1
10
257.781000
20
101.697980
11
258.105000
21
101.480970
0
LINE
8
Layer 1
10
258.105000
20
101.480970
11
258.488000
21
101.404970
0
LINE
8
Layer 1
10
258.488000
20
101.404970
11
313.640000
21
101.398970
0
LINE
8
Layer 1
10
313.640000
20
101.398970
11
314.023010
21
101.474970
0
LINE
8
Layer 1
10
314.023010
20
101.474970
11
314.347020
21
101.691970
0
LINE
8
Layer 1
10
314.347020
20
101.691970
11
314.564010
21
102.015970
0
LINE
8
Layer 1
10
314.564010
20
102.015970
11
314.640010
21
102.398970
0
LINE
8
Layer 1
10
314.640010
20
102.398970
11
314.640010
21
104.901970
0
LINE
8
Layer 1
10
314.640010
20
104.901970
11
314.718010
21
105.290970
0
LINE
8
Layer 1
10
314.718010
20
105.290970
11
314.933010
21
105.608970
0
LINE
8
Layer 1
10
314.933010
20
105.608970
11
315.251020
21
105.822970
0
LINE
8
Layer 1
10
315.251020
20
105.822970
11
315.640010
21
105.901970
0
LINE
8
Layer 1
10
315.640010
20
105.901970
11
334.273010
21
105.901970
0
LINE
8
Layer 1
10
334.273010
20
105.901970
11
335.253020
21
105.804970
0
LINE
8
Layer 1
10
335.253020
20
105.804970
11
336.186020
21
105.520970
0
LINE
8
Layer 1
10
336.186020
20
105.520970
11
337.047000
21
105.061970
0
LINE
8
Layer 1
10
337.047000
20
105.061970
11
337.808020
21
104.436970
0
LINE
8
Layer 1
10
337.808020
20
104.436970
11
338.433020
21
103.675970
0
LINE
8
Layer 1
10
338.433020
20
103.675970
11
338.892020
21
102.814970
0
LINE
8
Layer 1
10
338.892020
20
102.814970
11
339.176030
21
101.881970
0
LINE
8
Layer 1
10
339.176030
20
101.881970
11
339.273030
21
100.901970
0
LINE
8
Layer 1
10
339.273030
20
100.901970
11
339.273030
21
82.306200
0
LINE
8
Layer 1
10
339.273030
20
82.306200
11
339.194030
21
81.917000
0
LINE
8
Layer 1
10
339.194030
20
81.917000
11
338.980030
21
81.599101
0
LINE
8
Layer 1
10
338.980030
20
81.599101
11
338.662030
21
81.384698
0
LINE
8
Layer 1
10
338.662030
20
81.384698
11
338.273010
21
81.306098
0
LINE
8
Layer 1
10
338.273010
20
81.306098
11
335.760030
21
81.305899
0
LINE
8
Layer 1
10
335.760030
20
81.305899
11
335.371040
21
81.227299
0
LINE
8
Layer 1
10
335.371040
20
81.227299
11
335.053030
21
81.012998
0
LINE
8
Layer 1
10
335.053030
20
81.012998
11
334.839010
21
80.695098
0
LINE
8
Layer 1
10
334.839010
20
80.695098
11
334.760010
21
80.305798
0
LINE
8
Layer 1
10
334.760010
20
80.305798
11
334.760010
21
25.156000
0
LINE
8
Layer 1
10
334.760010
20
25.156000
11
334.839010
21
24.766600
0
LINE
8
Layer 1
10
334.839010
20
24.766600
11
335.053030
21
24.448600
0
LINE
8
Layer 1
10
335.053030
20
24.448600
11
335.371040
21
24.233900
0
LINE
8
Layer 1
10
335.371040
20
24.233900
11
335.760030
21
24.155000
0
LINE
8
Layer 1
10
335.760030
20
24.155000
11
338.273010
21
24.152300
0
LINE
8
Layer 1
10
338.273010
20
24.152300
11
338.662030
21
24.073300
0
LINE
8
Layer 1
10
338.662030
20
24.073300
11
338.980030
21
23.858700
0
LINE
8
Layer 1
10
338.980030
20
23.858700
11
339.194030
21
23.540600
0
LINE
8
Layer 1
10
339.194030
20
23.540600
11
339.273030
21
23.151200
0
LINE
8
Layer 1
10
339.273030
20
23.151200
11
339.273030
21
4.343090
0
LINE
8
Layer 1
10
339.273030
20
4.343090
11
339.176030
21
3.363080
0
LINE
8
Layer 1
10
339.176030
20
3.363080
11
338.892020
21
2.429670
0
LINE
8
Layer 1
10
338.892020
20
2.429670
11
338.433020
21
1.569090
0
LINE
8
Layer 1
10
338.433020
20
1.569090
11
337.808020
21
0.807555
0
LINE
8
Layer 1
10
337.808020
20
0.807555
11
337.047000
21
0.183148
0
LINE
8
Layer 1
10
337.047000
20
0.183148
11
336.186020
21
-0.276309
0
LINE
8
Layer 1
10
336.186020
20
-0.276309
11
335.253020
21
-0.559950
0
LINE
8
Layer 1
10
335.253020
20
-0.559950
11
334.273010
21
-0.656911
0
LINE
8
Layer 1
10
334.273010
20
-0.656911
11
296.578010
21
-0.656911
0
LINE
8
Layer 1
10
296.578010
20
-0.656911
11
296.195030
21
-0.580789
0
LINE
8
Layer 1
10
296.195030
20
-0.580789
11
295.871020
21
-0.364016
0
LINE
8
Layer 1
10
295.871020
20
-0.364016
11
295.654040
21
-0.039593
0
LINE
8
Layer 1
10
295.654040
20
-0.039593
11
295.578040
21
0.343089
0
LINE
8
Layer 1
10
295.578040
20
0.343089
11
295.578040
21
2.864970
0
LINE
8
Layer 1
10
295.578040
20
2.864970
11
295.502040
21
3.247660
0
LINE
8
Layer 1
10
295.502040
20
3.247660
11
295.285030
21
3.572080
0
LINE
8
Layer 1
10
295.285030
20
3.572080
11
294.961020
21
3.788850
0
LINE
8
Layer 1
10
294.961020
20
3.788850
11
294.578040
21
3.864970
0
LINE
8
Layer 1
10
294.578040
20
3.864970
11
258.478040
21
3.864970
0
LINE
8
Layer 1
10
258.478040
20
3.864970
11
258.089000
21
3.786390
0
LINE
8
Layer 1
10
258.089000
20
3.786390
11
257.771000
21
3.572080
0
LINE
8
Layer 1
10
257.771000
20
3.572080
11
257.556000
21
3.254220
0
LINE
8
Layer 1
10
257.556000
20
3.254220
11
257.478000
21
2.864970
0
LINE
8
Layer 1
10
257.478000
20
2.864970
11
257.478000
21
0.343085
0
LINE
8
Layer 1
10
257.478000
20
0.343085
11
257.399000
21
-0.046165
0
LINE
8
Layer 1
10
257.399000
20
-0.046165
11
257.185000
21
-0.364025
0
LINE
8
Layer 1
10
257.185000
20
-0.364025
11
256.867000
21
-0.578331
0
LINE
8
Layer 1
10
256.867000
20
-0.578331
11
256.477000
21
-0.656915
0
LINE
8
Layer 1
10
256.477000
20
-0.656915
11
231.155000
21
-0.656915
0
LINE
8
Layer 1
10
231.155000
20
-0.656915
11
230.772000
21
-0.580772
0
LINE
8
Layer 1
10
230.772000
20
-0.580772
11
230.448000
21
-0.363954
0
LINE
8
Layer 1
10
230.448000
20
-0.363954
11
230.232000
21
-0.039515
0
LINE
8
Layer 1
10
230.232000
20
-0.039515
11
230.156000
21
0.343084
0
LINE
8
Layer 1
10
230.156000
20
0.343084
11
230.159000
21
2.855004
0
LINE
8
Layer 1
10
230.159000
20
2.855004
11
230.083000
21
3.237604
0
LINE
8
Layer 1
10
230.083000
20
3.237604
11
229.867000
21
3.562044
0
LINE
8
Layer 1
10
229.867000
20
3.562044
11
229.542010
21
3.778864
0
LINE
8
Layer 1
10
229.542010
20
3.778864
11
229.160010
21
3.855004
0
LINE
8
Layer 1
10
229.160010
20
3.855004
11
174.010010
21
3.855004
0
LINE
8
Layer 1
10
174.010010
20
3.855004
11
173.627010
21
3.778874
0
LINE
8
Layer 1
10
173.627010
20
3.778874
11
173.303010
21
3.562084
0
LINE
8
Layer 1
10
173.303010
20
3.562084
11
173.086010
21
3.237654
0
LINE
8
Layer 1
10
173.086010
20
3.237654
11
173.010010
21
2.855004
0
LINE
8
Layer 1
10
173.010010
20
2.855004
11
173.011010
21
0.343084
0
LINE
8
Layer 1
10
173.011010
20
0.343084
11
172.935010
21
-0.039598
0
LINE
8
Layer 1
10
172.935010
20
-0.039598
11
172.719020
21
-0.364051
0
LINE
8
Layer 1
10
172.719020
20
-0.364051
11
172.394010
21
-0.580842
0
LINE
8
Layer 1
10
172.394010
20
-0.580842
11
172.012010
21
-0.656944
0
LINE
8
Layer 1
10
172.012010
20
-0.656944
11
155.223010
21
-0.656944
0
LINE
8
Layer 1
10
155.223010
20
-0.656944
11
154.840010
21
-0.580816
0
LINE
8
Layer 1
10
154.840010
20
-0.580816
11
154.516020
21
-0.364025
0
LINE
8
Layer 1
10
154.516020
20
-0.364025
11
154.299020
21
-0.039595
0
LINE
8
Layer 1
10
154.299020
20
-0.039595
11
154.224020
21
0.343056
0
LINE
8
Layer 1
10
154.224020
20
0.343056
11
154.224020
21
2.854980
0
LINE
8
Layer 1
10
154.224020
20
2.854980
11
154.149020
21
3.237630
0
LINE
8
Layer 1
10
154.149020
20
3.237630
11
153.932020
21
3.562060
0
LINE
8
Layer 1
10
153.932020
20
3.562060
11
153.608030
21
3.778850
0
LINE
8
Layer 1
10
153.608030
20
3.778850
11
153.225030
21
3.854980
0
LINE
8
Layer 1
10
153.225030
20
3.854980
11
98.074900
21
3.854980
0
LINE
8
Layer 1
10
98.074900
20
3.854980
11
97.685600
21
3.776400
0
LINE
8
Layer 1
10
97.685600
20
3.776400
11
97.367701
21
3.562110
0
LINE
8
Layer 1
10
97.367701
20
3.562110
11
97.153200
21
3.244250
0
LINE
8
Layer 1
10
97.153200
20
3.244250
11
97.074500
21
2.854980
0
LINE
8
Layer 1
10
97.074500
20
2.854980
11
97.073706
21
0.341460
0
LINE
8
Layer 1
10
97.073706
20
0.341460
11
96.995006
21
-0.047797
0
LINE
8
Layer 1
10
96.995006
20
-0.047797
11
96.780606
21
-0.365640
0
LINE
8
Layer 1
10
96.780606
20
-0.365640
11
96.462707
21
-0.579912
0
LINE
8
Layer 1
10
96.462707
20
-0.579912
11
96.073407
21
-0.658461
0
LINE
8
Layer 1
10
96.073407
20
-0.658461
11
77.853407
21
-0.657023
0
LINE
8
Layer 1
10
77.853407
20
-0.657023
11
77.470708
21
-0.580870
0
LINE
8
Layer 1
10
77.470708
20
-0.580870
11
77.146408
21
-0.364067
0
LINE
8
Layer 1
10
77.146408
20
-0.364067
11
76.929609
21
-0.039626
0
LINE
8
Layer 1
10
76.929609
20
-0.039626
11
76.853609
21
0.343056
0
LINE
8
Layer 1
10
76.853609
20
0.343056
11
76.854138
21
2.854976
0
LINE
8
Layer 1
10
76.854138
20
2.854976
11
76.778138
21
3.237646
0
LINE
8
Layer 1
10
76.778138
20
3.237646
11
76.561439
21
3.562076
0
LINE
8
Layer 1
10
76.561439
20
3.562076
11
76.237039
21
3.778856
0
LINE
8
Layer 1
10
76.237039
20
3.778856
11
75.854338
21
3.854976
0
LINE
8
Layer 1
10
75.854338
20
3.854976
11
20.704200
21
3.854976
0
LINE
8
Layer 1
10
20.704200
20
3.854976
11
20.321700
21
3.778826
0
LINE
8
Layer 1
10
20.321700
20
3.778826
11
19.997600
21
3.561986
0
LINE
8
Layer 1
10
19.997600
20
3.561986
11
19.781200
21
3.237546
0
LINE
8
Layer 1
10
19.781200
20
3.237546
11
19.705700
21
2.854976
0
LINE
8
Layer 1
10
19.705700
20
2.854976
11
19.709500
21
0.343056
0
LINE
8
Layer 1
10
19.709500
20
0.343056
11
19.633900
21
-0.039501
0
LINE
8
Layer 1
10
19.633900
20
-0.039501
11
19.417600
21
-0.363942
0
LINE
8
Layer 1
10
19.417600
20
-0.363942
11
19.093500
21
-0.580780
0
LINE
8
Layer 1
10
19.093500
20
-0.580780
11
18.711100
21
-0.656942
0
LINE
8
Layer 1
10
18.711100
20
-0.656942
11
4.332360
21
-0.656942
0
LINE
8
Layer 1
10
4.332360
20
-0.656942
11
3.352350
21
-0.559981
0
LINE
8
Layer 1
10
3.352350
20
-0.559981
11
2.418940
21
-0.276340
0
LINE
8
Layer 1
10
2.418940
20
-0.276340
11
1.558360
21
0.183116
0
LINE
8
Layer 1
10
1.558360
20
0.183116
11
0.796827
21
0.807524
0
LINE
8
Layer 1
10
0.796827
20
0.807524
11
0.172420
21
1.569057
0
LINE
8
Layer 1
10
0.172420
20
1.569057
11
-0.287037
21
2.429637
0
LINE
8
Layer 1
10
-0.287037
20
2.429637
11
-0.570678
21
3.363047
0
LINE
8
Layer 1
10
-0.570678
20
3.363047
11
-0.667639
21
4.343057
0
LINE
8
Layer 1
10
-0.667639
20
4.343057
11
-0.667639
21
23.154857
0
LINE
8
Layer 1
10
-0.667639
20
23.154857
11
-0.589060
21
23.544157
0
LINE
8
Layer 1
10
-0.589060
20
23.544157
11
-0.374761
21
23.862057
0
LINE
8
Layer 1
10
-0.374761
20
23.862057
11
-0.056901
21
24.076457
0
LINE
8
Layer 1
10
-0.056901
20
24.076457
11
0.332361
21
24.155057
0
LINE
8
Layer 1
10
0.332361
20
24.155057
11
2.839491
21
24.155744
0
LINE
8
Layer 1
10
2.839491
20
24.155744
11
3.228751
21
24.234344
0
LINE
8
Layer 1
10
3.228751
20
24.234344
11
3.546611
21
24.448744
0
LINE
8
Layer 1
10
3.546611
20
24.448744
11
3.760911
21
24.766643
0
LINE
8
Layer 1
10
3.760911
20
24.766643
11
3.839491
21
25.155944
0
LINE
8
Layer 1
10
3.839491
20
25.155944
11
3.839491
21
80.305944
0
LINE
8
Layer 1
10
3.839491
20
80.305944
11
3.763371
21
80.688643
0
LINE
8
Layer 1
10
3.763371
20
80.688643
11
3.546591
21
81.013043
0
LINE
8
Layer 1
10
3.546591
20
81.013043
11
3.222171
21
81.229745
0
LINE
8
Layer 1
10
3.222171
20
81.229745
11
2.839491
21
81.305845
0
LINE
8
Layer 1
10
2.839491
20
81.305845
11
0.332361
21
81.305644
0
LINE
8
Layer 1
10
0.332361
20
81.305644
11
-0.050316
21
81.381744
0
LINE
8
Layer 1
10
-0.050316
20
81.381744
11
-0.374741
21
81.598446
0
LINE
8
Layer 1
10
-0.374741
20
81.598446
11
-0.591517
21
81.922944
0
LINE
8
Layer 1
10
-0.591517
20
81.922944
11
-0.667639
21
82.305545
0
LINE
8
Layer 1
10
-0.667639
20
82.305545
11
-0.667639
21
100.902000
0
LINE
8
Layer 1
10
-0.667639
20
100.902000
11
-0.570678
21
101.881990
0
LINE
8
Layer 1
10
-0.570678
20
101.881990
11
-0.287037
21
102.814990
0
LINE
8
Layer 1
10
-0.287037
20
102.814990
11
0.172420
21
103.676000
0
LINE
8
Layer 1
10
0.172420
20
103.676000
11
0.796827
21
104.438000
0
LINE
8
Layer 1
10
0.796827
20
104.438000
11
1.558360
21
105.062000
0
LINE
8
Layer 1
10
1.558360
20
105.062000
11
2.418940
21
105.520990
0
LINE
8
Layer 1
10
2.418940
20
105.520990
11
3.352350
21
105.805000
0
LINE
8
Layer 1
10
3.352350
20
105.805000
11
4.332360
21
105.902000
0
LINE
8
Layer 1
10
4.332360
20
105.902000
11
18.704200
21
105.902000
0
LINE
8
Layer 1
10
18.704200
20
105.902000
11
19.086900
21
105.826000
0
LINE
8
Layer 1
10
19.086900
20
105.826000
11
19.411300
21
105.608990
0
LINE
8
Layer 1
10
19.411300
20
105.608990
11
19.628100
21
105.285000
0
LINE
8
Layer 1
10
19.628100
20
105.285000
11
19.704200
21
104.902000
0
LINE
8
Layer 1
10
19.704200
20
104.902000
11
19.704200
21
102.405000
0
LINE
8
Layer 1
10
19.704200
20
102.405000
11
19.780300
21
102.022000
0
LINE
8
Layer 1
10
19.780300
20
102.022000
11
19.997100
21
101.698000
0
LINE
8
Layer 1
10
19.997100
20
101.698000
11
20.321500
21
101.480990
0
LINE
8
Layer 1
10
20.321500
20
101.480990
11
20.704200
21
101.404990
0
LINE
8
Layer 1
10
20.704200
20
101.404990
11
75.854200
21
101.404990
0
LINE
8
Layer 1
10
75.854200
20
101.404990
11
76.243500
21
101.483990
0
LINE
8
Layer 1
10
76.243500
20
101.483990
11
76.561399
21
101.697990
0
LINE
8
Layer 1
10
76.561399
20
101.697990
11
76.775900
21
102.015990
0
LINE
8
Layer 1
10
76.775900
20
102.015990
11
76.854600
21
102.404990
0
LINE
8
Layer 1
10
76.854600
20
102.404990
11
76.855900
21
104.900990
0
LINE
8
Layer 1
10
76.855900
20
104.900990
11
76.934700
21
105.290980
0
LINE
8
Layer 1
10
76.934700
20
105.290980
11
77.149100
21
105.608980
0
LINE
8
Layer 1
10
77.149100
20
105.608980
11
77.467100
21
105.822990
0
LINE
8
Layer 1
10
77.467100
20
105.822990
11
77.856400
21
105.900990
0
LINE
8
Layer 1
10
77.856400
20
105.900990
11
96.076400
21
105.901990
0
LINE
8
Layer 1
10
96.076400
20
105.901990
11
96.459001
21
105.825990
0
LINE
8
Layer 1
10
96.459001
20
105.825990
11
96.783401
21
105.608990
0
LINE
8
Layer 1
10
96.783401
20
105.608990
11
97.000003
21
105.285000
0
LINE
8
Layer 1
10
97.000003
20
105.285000
11
97.076003
21
104.901990
0
LINE
8
Layer 1
10
97.076003
20
104.901990
11
97.076003
21
104.901990
0
LINE
8
Layer 1
10
97.076003
20
104.901990
11
97.075200
21
102.405000
0
LINE
8
Layer 1
10
310.627000
20
46.784400
11
319.730000
21
46.784400
0
LINE
8
Layer 1
10
319.730000
20
46.784400
11
319.730000
21
28.497000
0
LINE
8
Layer 1
10
319.730000
20
28.497000
11
310.626990
21
28.497000
0
LINE
8
Layer 1
10
310.626990
20
28.497000
11
310.627000
21
46.784400
0
LINE
8
Layer 1
10
331.885000
20
54.386800
11
331.544000
21
54.614399
0
LINE
8
Layer 1
10
331.544000
20
54.614399
11
331.143000
21
54.694299
0
LINE
8
Layer 1
10
331.143000
20
54.694299
11
330.740990
21
54.614399
0
LINE
8
Layer 1
10
330.740990
20
54.614399
11
330.400000
21
54.386800
0
LINE
8
Layer 1
10
330.400000
20
54.386800
11
330.173010
21
54.046098
0
LINE
8
Layer 1
10
330.173010
20
54.046098
11
330.093010
21
53.644299
0
LINE
8
Layer 1
10
330.093010
20
53.644299
11
330.173010
21
53.242500
0
LINE
8
Layer 1
10
330.173010
20
53.242500
11
330.400000
21
52.901799
0
LINE
8
Layer 1
10
330.400000
20
52.901799
11
330.740990
21
52.674199
0
LINE
8
Layer 1
10
330.740990
20
52.674199
11
331.143000
21
52.594299
0
LINE
8
Layer 1
10
331.143000
20
52.594299
11
331.544000
21
52.674199
0
LINE
8
Layer 1
10
331.544000
20
52.674199
11
331.885000
21
52.901799
0
LINE
8
Layer 1
10
331.885000
20
52.901799
11
332.113020
21
53.242500
0
LINE
8
Layer 1
10
332.113020
20
53.242500
11
332.193020
21
53.644299
0
LINE
8
Layer 1
10
332.193020
20
53.644299
11
332.113020
21
54.046098
0
LINE
8
Layer 1
10
332.113020
20
54.046098
11
331.885000
21
54.386800
0
LINE
8
Layer 1
10
299.890000
20
54.379300
11
299.550020
21
54.606900
0
LINE
8
Layer 1
10
299.550020
20
54.606900
11
299.148010
21
54.686800
0
LINE
8
Layer 1
10
299.148010
20
54.686800
11
298.746030
21
54.606900
0
LINE
8
Layer 1
10
298.746030
20
54.606900
11
298.405000
21
54.379300
0
LINE
8
Layer 1
10
298.405000
20
54.379300
11
298.178020
21
54.038601
0
LINE
8
Layer 1
10
298.178020
20
54.038601
11
298.098020
21
53.636800
0
LINE
8
Layer 1
10
298.098020
20
53.636800
11
298.178020
21
53.235001
0
LINE
8
Layer 1
10
298.178020
20
53.235001
11
298.405000
21
52.894299
0
LINE
8
Layer 1
10
298.405000
20
52.894299
11
298.746030
21
52.666700
0
LINE
8
Layer 1
10
298.746030
20
52.666700
11
299.148010
21
52.586800
0
LINE
8
Layer 1
10
299.148010
20
52.586800
11
299.550020
21
52.666700
0
LINE
8
Layer 1
10
299.550020
20
52.666700
11
299.890000
21
52.894299
0
LINE
8
Layer 1
10
299.890000
20
52.894299
11
300.118020
21
53.235001
0
LINE
8
Layer 1
10
300.118020
20
53.235001
11
300.198020
21
53.636800
0
LINE
8
Layer 1
10
300.198020
20
53.636800
11
300.118020
21
54.038601
0
LINE
8
Layer 1
10
300.118020
20
54.038601
11
299.890000
21
54.379300
0
LINE
8
Layer 1
10
331.885000
20
22.388700
11
331.544000
21
22.616300
0
LINE
8
Layer 1
10
331.544000
20
22.616300
11
331.143000
21
22.696200
0
LINE
8
Layer 1
10
331.143000
20
22.696200
11
330.740990
21
22.616300
0
LINE
8
Layer 1
10
330.740990
20
22.616300
11
330.400000
21
22.388700
0
LINE
8
Layer 1
10
330.400000
20
22.388700
11
330.173010
21
22.048000
0
LINE
8
Layer 1
10
330.173010
20
22.048000
11
330.093010
21
21.646200
0
LINE
8
Layer 1
10
330.093010
20
21.646200
11
330.173010
21
21.244400
0
LINE
8
Layer 1
10
330.173010
20
21.244400
11
330.400000
21
20.903800
0
LINE
8
Layer 1
10
330.400000
20
20.903800
11
330.740990
21
20.676100
0
LINE
8
Layer 1
10
330.740990
20
20.676100
11
331.143000
21
20.596200
0
LINE
8
Layer 1
10
331.143000
20
20.596200
11
331.544000
21
20.676100
0
LINE
8
Layer 1
10
331.544000
20
20.676100
11
331.885000
21
20.903800
0
LINE
8
Layer 1
10
331.885000
20
20.903800
11
332.113020
21
21.244400
0
LINE
8
Layer 1
10
332.113020
20
21.244400
11
332.193020
21
21.646200
0
LINE
8
Layer 1
10
332.193020
20
21.646200
11
332.113020
21
22.048000
0
LINE
8
Layer 1
10
332.113020
20
22.048000
11
331.885000
21
22.388700
0
LINE
8
Layer 1
10
299.890000
20
22.381200
11
299.550020
21
22.608800
0
LINE
8
Layer 1
10
299.550020
20
22.608800
11
299.148010
21
22.688700
0
LINE
8
Layer 1
10
299.148010
20
22.688700
11
298.746030
21
22.608800
0
LINE
8
Layer 1
10
298.746030
20
22.608800
11
298.405000
21
22.381200
0
LINE
8
Layer 1
10
298.405000
20
22.381200
11
298.178020
21
22.040500
0
LINE
8
Layer 1
10
298.178020
20
22.040500
11
298.098020
21
21.638700
0
LINE
8
Layer 1
10
298.098020
20
21.638700
11
298.178020
21
21.236900
0
LINE
8
Layer 1
10
298.178020
20
21.236900
11
298.405000
21
20.896300
0
LINE
8
Layer 1
10
298.405000
20
20.896300
11
298.746030
21
20.668600
0
LINE
8
Layer 1
10
298.746030
20
20.668600
11
299.148010
21
20.588700
0
LINE
8
Layer 1
10
299.148010
20
20.588700
11
299.550020
21
20.668600
0
LINE
8
Layer 1
10
299.550020
20
20.668600
11
299.890000
21
20.896300
0
LINE
8
Layer 1
10
299.890000
20
20.896300
11
300.118020
21
21.236900
0
LINE
8
Layer 1
10
300.118020
20
21.236900
11
300.198020
21
21.638700
0
LINE
8
Layer 1
10
300.198020
20
21.638700
11
300.118020
21
22.040500
0
LINE
8
Layer 1
10
300.118020
20
22.040500
11
299.890000
21
22.381200
0
LINE
8
Layer 1
10
168.603000
20
103.578000
11
167.808000
21
104.114000
0
LINE
8
Layer 1
10
167.808000
20
104.114000
11
166.835000
21
104.310000
0
LINE
8
Layer 1
10
166.835000
20
104.310000
11
165.862000
21
104.114000
0
LINE
8
Layer 1
10
165.862000
20
104.114000
11
165.067000
21
103.578000
0
LINE
8
Layer 1
10
165.067000
20
103.578000
11
164.531000
21
102.783000
0
LINE
8
Layer 1
10
164.531000
20
102.783000
11
164.335000
21
101.810000
0
LINE
8
Layer 1
10
164.335000
20
101.810000
11
164.525000
21
100.853000
0
LINE
8
Layer 1
10
164.525000
20
100.853000
11
165.067000
21
100.042000
0
LINE
8
Layer 1
10
165.067000
20
100.042000
11
165.878000
21
99.500399
0
LINE
8
Layer 1
10
165.878000
20
99.500399
11
166.835000
21
99.310099
0
LINE
8
Layer 1
10
166.835000
20
99.310099
11
167.792000
21
99.500399
0
LINE
8
Layer 1
10
167.792000
20
99.500399
11
168.603000
21
100.042000
0
LINE
8
Layer 1
10
168.603000
20
100.042000
11
169.145000
21
100.853000
0
LINE
8
Layer 1
10
169.145000
20
100.853000
11
169.335000
21
101.810000
0
LINE
8
Layer 1
10
169.335000
20
101.810000
11
169.138000
21
102.783000
0
LINE
8
Layer 1
10
169.138000
20
102.783000
11
168.603000
21
103.578000
0
LINE
8
Layer 1
10
168.603000
20
5.202400
11
167.808000
21
5.738170
0
LINE
8
Layer 1
10
167.808000
20
5.738170
11
166.835000
21
5.934630
0
LINE
8
Layer 1
10
166.835000
20
5.934630
11
165.862000
21
5.738170
0
LINE
8
Layer 1
10
165.862000
20
5.738170
11
165.067000
21
5.202400
0
LINE
8
Layer 1
10
165.067000
20
5.202400
11
164.531000
21
4.407740
0
LINE
8
Layer 1
10
164.531000
20
4.407740
11
164.335000
21
3.434630
0
LINE
8
Layer 1
10
164.335000
20
3.434630
11
164.531000
21
2.461520
0
LINE
8
Layer 1
10
164.531000
20
2.461520
11
165.067000
21
1.666860
0
LINE
8
Layer 1
10
165.067000
20
1.666860
11
165.862000
21
1.131090
0
LINE
8
Layer 1
10
165.862000
20
1.131090
11
166.835000
21
0.934629
0
LINE
8
Layer 1
10
166.835000
20
0.934629
11
167.808000
21
1.131090
0
LINE
8
Layer 1
10
167.808000
20
1.131090
11
168.603000
21
1.666860
0
LINE
8
Layer 1
10
168.603000
20
1.666860
11
169.138000
21
2.461520
0
LINE
8
Layer 1
10
169.138000
20
2.461520
11
169.335000
21
3.434630
0
LINE
8
Layer 1
10
169.335000
20
3.434630
11
169.138000
21
4.407740
0
LINE
8
Layer 1
10
169.138000
20
4.407740
11
168.603000
21
5.202400
0
LINE
8
Layer 1
10
254.402000
20
103.578000
11
253.607000
21
104.114000
0
LINE
8
Layer 1
10
253.607000
20
104.114000
11
252.634000
21
104.310000
0
LINE
8
Layer 1
10
252.634000
20
104.310000
11
251.661000
21
104.114000
0
LINE
8
Layer 1
10
251.661000
20
104.114000
11
250.866000
21
103.578000
0
LINE
8
Layer 1
10
250.866000
20
103.578000
11
250.330000
21
102.783000
0
LINE
8
Layer 1
10
250.330000
20
102.783000
11
250.134000
21
101.810000
0
LINE
8
Layer 1
10
250.134000
20
101.810000
11
250.324000
21
100.853000
0
LINE
8
Layer 1
10
250.324000
20
100.853000
11
250.866000
21
100.042000
0
LINE
8
Layer 1
10
250.866000
20
100.042000
11
251.677000
21
99.500399
0
LINE
8
Layer 1
10
251.677000
20
99.500399
11
252.634000
21
99.310099
0
LINE
8
Layer 1
10
252.634000
20
99.310099
11
253.590990
21
99.500399
0
LINE
8
Layer 1
10
253.590990
20
99.500399
11
254.402000
21
100.042000
0
LINE
8
Layer 1
10
254.402000
20
100.042000
11
254.943000
21
100.853000
0
LINE
8
Layer 1
10
254.943000
20
100.853000
11
255.134000
21
101.810000
0
LINE
8
Layer 1
10
255.134000
20
101.810000
11
254.937000
21
102.783000
0
LINE
8
Layer 1
10
254.937000
20
102.783000
11
254.402000
21
103.578000
0
LINE
8
Layer 1
10
254.402000
20
5.202400
11
253.607000
21
5.738170
0
LINE
8
Layer 1
10
253.607000
20
5.738170
11
252.634000
21
5.934640
0
LINE
8
Layer 1
10
252.634000
20
5.934640
11
251.661000
21
5.738170
0
LINE
8
Layer 1
10
251.661000
20
5.738170
11
250.866000
21
5.202400
0
LINE
8
Layer 1
10
250.866000
20
5.202400
11
250.330000
21
4.407750
0
LINE
8
Layer 1
10
250.330000
20
4.407750
11
250.134000
21
3.434640
0
LINE
8
Layer 1
10
250.134000
20
3.434640
11
250.330000
21
2.461520
0
LINE
8
Layer 1
10
250.330000
20
2.461520
11
250.866000
21
1.666870
0
LINE
8
Layer 1
10
250.866000
20
1.666870
11
251.661000
21
1.131100
0
LINE
8
Layer 1
10
251.661000
20
1.131100
11
252.634000
21
0.934636
0
LINE
8
Layer 1
10
252.634000
20
0.934636
11
253.607000
21
1.131100
0
LINE
8
Layer 1
10
253.607000
20
1.131100
11
254.402000
21
1.666870
0
LINE
8
Layer 1
10
254.402000
20
1.666870
11
254.937000
21
2.461520
0
LINE
8
Layer 1
10
254.937000
20
2.461520
11
255.134000
21
3.434640
0
LINE
8
Layer 1
10
255.134000
20
3.434640
11
254.937000
21
4.407750
0
LINE
8
Layer 1
10
254.937000
20
4.407750
11
254.402000
21
5.202400
0
LINE
8
Layer 1
10
83.040200
20
103.578000
11
82.245500
21
104.114000
0
LINE
8
Layer 1
10
82.245500
20
104.114000
11
81.272400
21
104.310000
0
LINE
8
Layer 1
10
81.272400
20
104.310000
11
80.299299
21
104.114000
0
LINE
8
Layer 1
10
80.299299
20
104.114000
11
79.504599
21
103.578000
0
LINE
8
Layer 1
10
79.504599
20
103.578000
11
78.968900
21
102.783000
0
LINE
8
Layer 1
10
78.968900
20
102.783000
11
78.772399
21
101.810000
0
LINE
8
Layer 1
10
78.772399
20
101.810000
11
78.962698
21
100.853000
0
LINE
8
Layer 1
10
78.962698
20
100.853000
11
79.504599
21
100.042000
0
LINE
8
Layer 1
10
79.504599
20
100.042000
11
80.315698
21
99.500399
0
LINE
8
Layer 1
10
80.315698
20
99.500399
11
81.272400
21
99.310099
0
LINE
8
Layer 1
10
81.272400
20
99.310099
11
82.229099
21
99.500399
0
LINE
8
Layer 1
10
82.229099
20
99.500399
11
83.040200
21
100.042000
0
LINE
8
Layer 1
10
83.040200
20
100.042000
11
83.582098
21
100.853000
0
LINE
8
Layer 1
10
83.582098
20
100.853000
11
83.772400
21
101.810000
0
LINE
8
Layer 1
10
83.772400
20
101.810000
11
83.575899
21
102.783000
0
LINE
8
Layer 1
10
83.575899
20
102.783000
11
83.040200
21
103.578000
0
LINE
8
Layer 1
10
83.040200
20
5.202400
11
82.245500
21
5.738170
0
LINE
8
Layer 1
10
82.245500
20
5.738170
11
81.272400
21
5.934640
0
LINE
8
Layer 1
10
81.272400
20
5.934640
11
80.299299
21
5.738170
0
LINE
8
Layer 1
10
80.299299
20
5.738170
11
79.504599
21
5.202400
0
LINE
8
Layer 1
10
79.504599
20
5.202400
11
78.968900
21
4.407750
0
LINE
8
Layer 1
10
78.968900
20
4.407750
11
78.772399
21
3.434640
0
LINE
8
Layer 1
10
78.772399
20
3.434640
11
78.968900
21
2.461520
0
LINE
8
Layer 1
10
78.968900
20
2.461520
11
79.504599
21
1.666870
0
LINE
8
Layer 1
10
79.504599
20
1.666870
11
80.299299
21
1.131100
0
LINE
8
Layer 1
10
80.299299
20
1.131100
11
81.272400
21
0.934636
0
LINE
8
Layer 1
10
81.272400
20
0.934636
11
82.245500
21
1.131100
0
LINE
8
Layer 1
10
82.245500
20
1.131100
11
83.040200
21
1.666870
0
LINE
8
Layer 1
10
83.040200
20
1.666870
11
83.575899
21
2.461520
0
LINE
8
Layer 1
10
83.575899
20
2.461520
11
83.772400
21
3.434640
0
LINE
8
Layer 1
10
83.772400
20
3.434640
11
83.575899
21
4.407750
0
LINE
8
Layer 1
10
83.575899
20
4.407750
11
83.040200
21
5.202400
0
LINE
8
Layer 1
10
336.953200
20
103.578000
11
336.158180
21
104.114000
0
LINE
8
Layer 1
10
336.158180
20
104.114000
11
335.185200
21
104.310000
0
LINE
8
Layer 1
10
335.185200
20
104.310000
11
334.212200
21
104.114000
0
LINE
8
Layer 1
10
334.212200
20
104.114000
11
333.417210
21
103.578000
0
LINE
8
Layer 1
10
333.417210
20
103.578000
11
332.881190
21
102.783000
0
LINE
8
Layer 1
10
332.881190
20
102.783000
11
332.685180
21
101.810000
0
LINE
8
Layer 1
10
332.685180
20
101.810000
11
332.875210
21
100.853000
0
LINE
8
Layer 1
10
332.875210
20
100.853000
11
333.417210
21
100.042000
0
LINE
8
Layer 1
10
333.417210
20
100.042000
11
334.228210
21
99.500399
0
LINE
8
Layer 1
10
334.228210
20
99.500399
11
335.185200
21
99.310099
0
LINE
8
Layer 1
10
335.185200
20
99.310099
11
336.142200
21
99.500399
0
LINE
8
Layer 1
10
336.142200
20
99.500399
11
336.953200
21
100.042000
0
LINE
8
Layer 1
10
336.953200
20
100.042000
11
337.495200
21
100.853000
0
LINE
8
Layer 1
10
337.495200
20
100.853000
11
337.685200
21
101.810000
0
LINE
8
Layer 1
10
337.685200
20
101.810000
11
337.489200
21
102.783000
0
LINE
8
Layer 1
10
337.489200
20
102.783000
11
336.953200
21
103.578000
0
LINE
8
Layer 1
10
336.953200
20
5.202400
11
336.158180
21
5.738170
0
LINE
8
Layer 1
10
336.158180
20
5.738170
11
335.185200
21
5.934640
0
LINE
8
Layer 1
10
335.185200
20
5.934640
11
334.212200
21
5.738170
0
LINE
8
Layer 1
10
334.212200
20
5.738170
11
333.417210
21
5.202400
0
LINE
8
Layer 1
10
333.417210
20
5.202400
11
332.881190
21
4.407750
0
LINE
8
Layer 1
10
332.881190
20
4.407750
11
332.685180
21
3.434640
0
LINE
8
Layer 1
10
332.685180
20
3.434640
11
332.881190
21
2.461520
0
LINE
8
Layer 1
10
332.881190
20
2.461520
11
333.417210
21
1.666870
0
LINE
8
Layer 1
10
333.417210
20
1.666870
11
334.212200
21
1.131100
0
LINE
8
Layer 1
10
334.212200
20
1.131100
11
335.185200
21
0.934636
0
LINE
8
Layer 1
10
335.185200
20
0.934636
11
336.158180
21
1.131100
0
LINE
8
Layer 1
10
336.158180
20
1.131100
11
336.953200
21
1.666870
0
LINE
8
Layer 1
10
336.953200
20
1.666870
11
337.489200
21
2.461520
0
LINE
8
Layer 1
10
337.489200
20
2.461520
11
337.685200
21
3.434640
0
LINE
8
Layer 1
10
337.685200
20
3.434640
11
337.489200
21
4.407750
0
LINE
8
Layer 1
10
337.489200
20
4.407750
11
336.953200
21
5.202400
0
LINE
8
Layer 1
10
5.197790
20
103.578000
11
4.403140
21
104.114000
0
LINE
8
Layer 1
10
4.403140
20
104.114000
11
3.430020
21
104.310000
0
LINE
8
Layer 1
10
3.430020
20
104.310000
11
2.456910
21
104.114000
0
LINE
8
Layer 1
10
2.456910
20
104.114000
11
1.662260
21
103.578000
0
LINE
8
Layer 1
10
1.662260
20
103.578000
11
1.126490
21
102.783000
0
LINE
8
Layer 1
10
1.126490
20
102.783000
11
0.930024
21
101.810000
0
LINE
8
Layer 1
10
0.930024
20
101.810000
11
1.120320
21
100.853000
0
LINE
8
Layer 1
10
1.120320
20
100.853000
11
1.662260
21
100.041990
0
LINE
8
Layer 1
10
1.662260
20
100.041990
11
2.473310
21
99.500399
0
LINE
8
Layer 1
10
2.473310
20
99.500399
11
3.430020
21
99.310099
0
LINE
8
Layer 1
10
3.430020
20
99.310099
11
4.386730
21
99.500399
0
LINE
8
Layer 1
10
4.386730
20
99.500399
11
5.197790
21
100.041990
0
LINE
8
Layer 1
10
5.197790
20
100.041990
11
5.739720
21
100.853000
0
LINE
8
Layer 1
10
5.739720
20
100.853000
11
5.930020
21
101.810000
0
LINE
8
Layer 1
10
5.930020
20
101.810000
11
5.733560
21
102.783000
0
LINE
8
Layer 1
10
5.733560
20
102.783000
11
5.197790
21
103.578000
0
LINE
8
Layer 1
10
5.197790
20
5.202400
11
4.386730
21
5.744330
0
LINE
8
Layer 1
10
4.386730
20
5.744330
11
3.430020
21
5.934630
0
LINE
8
Layer 1
10
3.430020
20
5.934630
11
2.473320
21
5.744330
0
LINE
8
Layer 1
10
2.473320
20
5.744330
11
1.662260
21
5.202380
0
LINE
8
Layer 1
10
1.662260
20
5.202380
11
1.120330
21
4.391320
0
LINE
8
Layer 1
10
1.120330
20
4.391320
11
0.930024
21
3.434610
0
LINE
8
Layer 1
10
0.930024
20
3.434610
11
1.126490
21
2.461500
0
LINE
8
Layer 1
10
1.126490
20
2.461500
11
1.662260
21
1.666840
0
LINE
8
Layer 1
10
1.662260
20
1.666840
11
2.456910
21
1.131070
0
LINE
8
Layer 1
10
2.456910
20
1.131070
11
3.430020
21
0.934611
0
LINE
8
Layer 1
10
3.430020
20
0.934611
11
4.386730
21
1.124910
0
LINE
8
Layer 1
10
4.386730
20
1.124910
11
5.197790
21
1.666840
0
LINE
8
Layer 1
10
5.197790
20
1.666840
11
5.739720
21
2.477900
0
LINE
8
Layer 1
10
5.739720
20
2.477900
11
5.930020
21
3.434610
0
LINE
8
Layer 1
10
5.930020
20
3.434610
11
5.739720
21
4.391320
0
LINE
8
Layer 1
10
5.739720
20
4.391320
11
5.197790
21
5.202400
 0 
ENDSEC
 0 
EOF