<?xml version="1.0" encoding="UTF-8" standalone="no"?>
<svg
   xmlns:dc="http://purl.org/dc/elements/1.1/"
   xmlns:cc="http://creativecommons.org/ns#"
   xmlns:rdf="http://www.w3.org/1999/02/22-rdf-syntax-ns#"
   xmlns:svg="http://www.w3.org/2000/svg"
   xmlns="http://www.w3.org/2000/svg"
   xmlns:sodipodi="http://sodipodi.sourceforge.net/DTD/sodipodi-0.dtd"
   xmlns:inkscape="http://www.inkscape.org/namespaces/inkscape"
   sodipodi:docname="gasket.svg"
   inkscape:version="1.0 (4035a4fb49, 2020-05-01)"
   id="svg8"
   version="1.1"
   viewBox="0 0 210 297"
   height="297mm"
   width="210mm">
  <defs
     id="defs2" />
  <sodipodi:namedview
     inkscape:window-maximized="0"
     inkscape:window-y="0"
     inkscape:window-x="1972"
     inkscape:window-height="1032"
     inkscape:window-width="1662"
     showgrid="false"
     inkscape:document-rotation="0"
     inkscape:current-layer="layer1"
     inkscape:document-units="mm"
     inkscape:cy="560"
     inkscape:cx="400"
     inkscape:zoom="0.35"
     inkscape:pageshadow="2"
     inkscape:pageopacity="0.0"
     borderopacity="1.0"
     bordercolor="#666666"
     pagecolor="#ffffff"
     id="base" />
  <metadata
     id="metadata5">
    <rdf:RDF>
      <cc:Work
         rdf:about="">
        <dc:format>image/svg+xml</dc:format>
        <dc:type
           rdf:resource="http://purl.org/dc/dcmitype/StillImage" />
        <dc:title></dc:title>
      </cc:Work>
    </rdf:RDF>
  </metadata>
  <g
     id="layer1"
     inkscape:groupmode="layer"
     inkscape:label="レイヤー 1">
    <path
       id="path887"
       style="display:inline;fill:none;stroke:#000000;stroke-width:0.264583px;stroke-linecap:butt;stroke-linejoin:miter;stroke-opacity:1"
       d="m 80.447786,161.37658 h -32.62847 m 0,-3.74805 h 32.62847 m 1.87403,1.87403 c 0,1.03499 -0.83903,1.87402 -1.87402,1.87402 m 0,-3.74805 c 1.03499,10e-6 1.87402,0.83903 1.87402,1.87403 m -34.5025,1.87402 c -1.03499,0 -1.87402,-0.83903 -1.87402,-1.87402 0,-1.035 0.83903,-1.87402 1.87402,-1.87403" />
    <path
       d="m 98.986629,150.04409 h -51.67847 m 0,-3.74805 h 51.67847 m 1.874031,1.87403 c 0,1.03499 -0.83903,1.87402 -1.87402,1.87402 m 0,-3.74805 c 1.03499,1e-5 1.87402,0.83903 1.87402,1.87403 m -53.552501,1.87402 c -1.03499,0 -1.87402,-0.83903 -1.87402,-1.87402 0,-1.035 0.83903,-1.87402 1.87402,-1.87403"
       style="display:inline;fill:none;stroke:#000000;stroke-width:0.264583px;stroke-linecap:butt;stroke-linejoin:miter;stroke-opacity:1"
       id="path887-2"
       sodipodi:nodetypes="cccccccccsc" />
  </g>
</svg>
