<?xml version="1.0" encoding="UTF-8" standalone="no"?>
<svg
   xmlns:dc="http://purl.org/dc/elements/1.1/"
   xmlns:cc="http://creativecommons.org/ns#"
   xmlns:rdf="http://www.w3.org/1999/02/22-rdf-syntax-ns#"
   xmlns:svg="http://www.w3.org/2000/svg"
   xmlns="http://www.w3.org/2000/svg"
   xmlns:sodipodi="http://sodipodi.sourceforge.net/DTD/sodipodi-0.dtd"
   xmlns:inkscape="http://www.inkscape.org/namespaces/inkscape"
   width="420mm"
   height="297mm"
   viewBox="0 0 420 297"
   version="1.1"
   id="svg136"
   sodipodi:docname="middle-top.svg"
   inkscape:version="1.0 (4035a4fb49, 2020-05-01)">
  <metadata
     id="metadata142">
    <rdf:RDF>
      <cc:Work
         rdf:about="">
        <dc:format>image/svg+xml</dc:format>
        <dc:type
           rdf:resource="http://purl.org/dc/dcmitype/StillImage" />
        <dc:title />
      </cc:Work>
    </rdf:RDF>
  </metadata>
  <defs
     id="defs140">
    <inkscape:path-effect
       effect="fillet_chamfer"
       id="path-effect936"
       is_visible="true"
       lpeversion="1"
       satellites_param="F,0,0,1,0,0,0,10 @ F,0,0,1,0,0,0,10 @ F,0,0,1,0,0,0,10 @ F,0,0,1,0,0,0,10 @ F,0,0,1,0,0,0,10 @ F,0,0,1,0,0,0,10 @ F,0,0,1,0,0,0,10 @ F,0,0,1,0,0,0,10 @ F,0,0,1,0,0,0,10 @ F,0,0,1,0,0,0,10 @ F,0,0,1,0,0,0,10 @ F,0,0,1,0,0,0,10 @ F,0,0,1,0,0,0,10 @ F,0,0,1,0,0,0,10 @ F,0,0,1,0,0,0,10 @ F,0,0,1,0,0,0,10 @ F,0,0,1,0,0,0,10 @ F,0,0,1,0,0,0,10 @ F,0,0,1,0,0,0,10 @ F,0,0,1,0,0,0,10 @ F,0,0,1,0,0,0,10 @ F,0,0,1,0,0,0,10 @ F,0,0,1,0,0,0,10 @ F,0,0,1,0,0,0,10 @ F,0,0,1,0,0,0,10 @ F,0,0,1,0,0,0,10 @ F,0,0,1,0,0,0,10 @ F,0,0,1,0,0,0,10 @ F,0,0,1,0,0,0,10 @ F,0,0,1,0,0,0,10 @ F,0,0,1,0,0,0,10 @ F,0,0,1,0,0,0,10 @ F,0,0,1,0,0,0,10 @ F,0,0,1,0,0,0,10 @ F,0,0,1,0,0,0,10 @ F,0,0,1,0,5,0,10 @ F,0,0,1,0,0,0,10 @ F,0,0,1,0,0,0,10 @ F,0,0,1,0,0,0,10 @ F,0,0,1,0,0,0,10 @ F,0,0,1,0,0,0,10 @ F,0,0,1,0,0,0,10 @ F,0,0,1,0,0,0,10 @ F,0,0,1,0,0,0,10 @ F,0,0,1,0,0,0,10 @ F,0,0,1,0,0,0,10 @ F,0,0,1,0,0,0,10 @ F,0,0,1,0,0,0,10 @ F,0,0,1,0,0,0,10 @ F,0,0,1,0,0,0,10 @ F,0,0,1,0,0,0,10 @ F,0,0,1,0,0,0,10 @ F,0,0,1,0,0,0,10 @ F,0,0,1,0,0,0,10 @ F,0,0,1,0,5,0,10 @ F,0,0,1,0,0,0,10 @ F,0,0,1,0,0,0,10 @ F,0,0,1,0,0,0,10 @ F,0,0,1,0,0,0,10 @ F,0,0,1,0,0,0,10 @ F,0,0,1,0,0,0,10 @ F,0,0,1,0,0,0,10 @ F,0,0,1,0,0,0,10 @ F,0,0,1,0,0,0,10 @ F,0,0,1,0,0,0,10 @ F,0,0,1,0,0,0,10 @ F,0,0,1,0,0,0,10 @ F,0,0,1,0,0,0,10 @ F,0,0,1,0,0,0,10 @ F,0,0,1,0,0,0,10 @ F,0,0,1,0,0,0,10 @ F,0,0,1,0,0,0,10 @ F,0,0,1,0,0,0,10 @ F,0,0,1,0,0,0,10 @ F,0,0,1,0,0,0,10 @ F,0,0,1,0,0,0,10 @ F,0,0,1,0,0,0,10 @ F,0,0,1,0,0,0,10 @ F,0,0,1,0,0,0,10 @ F,0,0,1,0,0,0,10 @ F,0,0,1,0,0,0,10 @ F,0,0,1,0,0,0,10 @ F,0,0,1,0,0,0,10 @ F,0,0,1,0,0,0,10 @ F,0,0,1,0,0,0,10 @ F,0,0,1,0,0,0,10 @ F,0,0,1,0,0,0,10 @ F,0,0,1,0,0,0,10 @ F,0,0,1,0,0,0,10 @ F,0,0,1,0,0,0,10 @ F,0,0,1,0,0,0,10 @ F,0,0,1,0,0,0,10 @ F,0,0,1,0,0,0,10 @ F,0,0,1,0,0,0,10 @ F,0,0,1,0,0,0,10 @ F,0,0,1,0,0,0,10 @ F,0,0,1,0,0,0,10 @ F,0,0,1,0,0,0,10 @ F,0,0,1,0,0,0,10 @ F,0,0,1,0,0,0,10 @ F,0,0,1,0,5,0,10 @ F,0,0,1,0,0,0,10 @ F,0,0,1,0,0,0,10 @ F,0,0,1,0,0,0,10 @ F,0,0,1,0,0,0,10 @ F,0,0,1,0,0,0,10 @ F,0,0,1,0,0,0,10 @ F,0,0,1,0,0,0,10 @ F,0,0,1,0,0,0,10 @ F,0,0,1,0,0,0,10 @ F,0,0,1,0,0,0,10 @ F,0,0,1,0,0,0,10 @ F,0,0,1,0,0,0,10 @ F,0,0,1,0,0,0,10 @ F,0,0,1,0,0,0,10 @ F,0,0,1,0,0,0,10 @ F,0,0,1,0,0,0,10 @ F,0,0,1,0,0,0,10 @ F,0,0,1,0,0,0,10 @ F,0,0,1,0,5,0,10 @ F,0,0,1,0,0,0,10 @ F,0,0,1,0,0,0,10 @ F,0,0,1,0,0,0,10 @ F,0,0,1,0,0,0,10 @ F,0,0,1,0,0,0,10 @ F,0,0,1,0,0,0,10 @ F,0,0,1,0,0,0,10 @ F,0,0,1,0,0,0,10 @ F,0,0,1,0,0,0,10 @ F,0,0,1,0,0,0,10"
       unit="mm"
       method="auto"
       mode="F"
       radius="0"
       chamfer_steps="10"
       flexible="false"
       use_knot_distance="true"
       apply_no_radius="true"
       apply_with_radius="true"
       only_selected="true"
       hide_knots="false" />
    <inkscape:path-effect
       effect="fillet_chamfer"
       id="path-effect831"
       is_visible="true"
       lpeversion="1"
       satellites_param="F,0,0,1,0,0,0,10 @ F,0,0,1,0,0,0,10 @ F,0,0,1,0,0,0,10 @ F,0,0,1,0,0,0,10 @ F,0,0,1,0,0,0,10 @ F,0,0,1,0,0,0,10 @ F,0,0,1,0,0,0,10 @ F,0,0,1,0,0,0,10 @ F,0,0,1,0,0,0,10 @ F,0,0,1,0,0,0,10 @ F,0,0,1,0,0,0,10 @ F,0,0,1,0,0,0,10 @ F,0,0,1,0,0,0,10 @ F,0,0,1,0,0,0,10 @ F,0,0,1,0,0,0,10 @ F,0,0,1,0,0,0,10 @ F,0,0,1,0,0,0,10 @ F,0,0,1,0,0,0,10 @ F,0,0,1,0,0,0,10 @ F,0,0,1,0,0,0,10 @ F,0,0,1,0,0,0,10 @ F,0,0,1,0,0,0,10 @ F,0,0,1,0,0,0,10 @ F,0,0,1,0,0,0,10 @ F,0,0,1,0,0,0,10 @ F,0,0,1,0,5,0,10 @ F,0,0,1,0,0,0,10 @ F,0,0,1,0,0,0,10 @ F,0,0,1,0,0,0,10 @ F,0,0,1,0,0,0,10 @ F,0,0,1,0,0,0,10 @ F,0,0,1,0,0,0,10 @ F,0,0,1,0,0,0,10 @ F,0,0,1,0,0,0,10 @ F,0,0,1,0,0,0,10 @ F,0,0,1,0,0,0,10 @ F,0,0,1,0,5,0,10 @ F,0,0,1,0,0,0,10 @ F,0,0,1,0,0,0,10 @ F,0,0,1,0,0,0,10 @ F,0,0,1,0,0,0,10 @ F,0,0,1,0,0,0,10 @ F,0,0,1,0,0,0,10 @ F,0,0,1,0,0,0,10 @ F,0,0,1,0,0,0,10 @ F,0,0,1,0,0,0,10 @ F,0,0,1,0,0,0,10 @ F,0,0,1,0,0,0,10 @ F,0,0,1,0,0,0,10 @ F,0,0,1,0,0,0,10 @ F,0,0,1,0,0,0,10 @ F,0,0,1,0,0,0,10 @ F,0,0,1,0,0,0,10 @ F,0,0,1,0,0,0,10 @ F,0,0,1,0,0,0,10 @ F,0,0,1,0,0,0,10 @ F,0,0,1,0,0,0,10 @ F,0,0,1,0,0,0,10 @ F,0,0,1,0,0,0,10 @ F,0,0,1,0,0,0,10 @ F,0,0,1,0,0,0,10 @ F,0,0,1,0,0,0,10 @ F,0,0,1,0,0,0,10 @ F,0,0,1,0,0,0,10 @ F,0,0,1,0,0,0,10 @ F,0,0,1,0,0,0,10 @ F,0,0,1,0,5,0,10 @ F,0,0,1,0,0,0,10 @ F,0,0,1,0,0,0,10 @ F,0,0,1,0,0,0,10 @ F,0,0,1,0,0,0,10 @ F,0,0,1,0,0,0,10 @ F,0,0,1,0,0,0,10 @ F,0,0,1,0,0,0,10 @ F,0,0,1,0,0,0,10 @ F,0,0,1,0,0,0,10 @ F,0,0,1,0,0,0,10 @ F,0,0,1,0,5,0,10 | F,0,0,1,0,0,0,10 @ F,0,0,1,0,0,0,10 @ F,0,0,1,0,0,0,10 @ F,0,0,1,0,0,0,10 @ F,0,0,1,0,0,0,10 @ F,0,0,1,0,0,0,10 @ F,0,0,1,0,0,0,10 @ F,0,0,1,0,0,0,10 @ F,0,0,1,0,0,0,10 @ F,0,0,1,0,0,0,10 @ F,0,0,1,0,0,0,10 @ F,0,0,1,0,0,0,10 @ F,0,0,1,0,0,0,10 @ F,0,0,1,0,0,0,10 @ F,0,0,1,0,0,0,10 @ F,0,0,1,0,0,0,10 @ F,0,0,1,0,0,0,10 @ F,0,0,1,0,0,0,10 @ F,0,0,1,0,0,0,10 @ F,0,0,1,0,0,0,10 @ F,0,0,1,0,0,0,10 @ F,0,0,1,0,0,0,10 @ F,0,0,1,0,0,0,10 @ F,0,0,1,0,0,0,10 @ F,0,0,1,0,0,0,10 @ F,0,0,1,0,0,0,10 @ F,0,0,1,0,0,0,10 @ F,0,0,1,0,0,0,10 @ F,0,0,1,0,0,0,10 @ F,0,0,1,0,0,0,10 @ F,0,0,1,0,0,0,10 @ F,0,0,1,0,0,0,10 @ F,0,0,1,0,0,0,10 @ F,0,0,1,0,0,0,10 @ F,0,0,1,0,0,0,10 @ F,0,1,1,0,0,0,10"
       unit="mm"
       method="auto"
       mode="F"
       radius="0"
       chamfer_steps="10"
       flexible="false"
       use_knot_distance="true"
       apply_no_radius="true"
       apply_with_radius="true"
       only_selected="true"
       hide_knots="false" />
    <inkscape:path-effect
       effect="fillet_chamfer"
       id="path-effect850"
       is_visible="true"
       lpeversion="1"
       satellites_param="F,0,0,1,0,5,0,10 @ F,0,0,1,0,5,0,10 @ F,0,0,1,0,5,0,10 @ F,0,0,1,0,5,0,10"
       unit="mm"
       method="auto"
       mode="F"
       radius="0"
       chamfer_steps="10"
       flexible="false"
       use_knot_distance="true"
       apply_no_radius="true"
       apply_with_radius="true"
       only_selected="true"
       hide_knots="false" />
  </defs>
  <sodipodi:namedview
     inkscape:document-rotation="0"
     pagecolor="#ffffff"
     bordercolor="#666666"
     borderopacity="1"
     objecttolerance="10"
     gridtolerance="10"
     guidetolerance="10"
     inkscape:pageopacity="0"
     inkscape:pageshadow="2"
     inkscape:window-width="1920"
     inkscape:window-height="1009"
     id="namedview138"
     showgrid="false"
     inkscape:zoom="2.7545023"
     inkscape:cx="1245.8476"
     inkscape:cy="19.916037"
     inkscape:window-x="-8"
     inkscape:window-y="-8"
     inkscape:window-maximized="1"
     inkscape:current-layer="layer2" />
  <g
     style="display:inline"
     inkscape:label="middle"
     id="layer2"
     inkscape:groupmode="layer">
    <path
       d="M -0.26713037,-5.2564049 H 338.87285 a 5,5 45 0 1 5,5.00000002 V 105.49759 a 5,5 135 0 1 -5,5 H -0.26713037 a 5,5 45 0 1 -5.00000003,-5 V -0.25640488 A 5,5 135 0 1 -0.26713037,-5.2564049 Z M 245.154,107.103 l -0.544,0.558 -0.695,0.365 -0.803,0.132 -0.804,-0.131 -0.695,-0.366 -0.544,-0.557 -0.348,-0.706 h -78.405 l -0.349,0.705 -0.544,0.557 -0.695,0.366 -0.803,0.132 -0.803,-0.131 -0.695,-0.366 -0.543,-0.558 -0.348,-0.705 H 93.0362 l -0.3476,0.706 -0.5424,0.557 -0.6942,0.366 -0.8032,0.131 -0.8038,-0.131 -0.6955,-0.366 -0.5434,-0.557 -0.3479,-0.706 H 16.9168 l -0.3481,0.706 -0.5431,0.557 -0.6947,0.366 -0.8032,0.131 -0.8031,-0.131 -0.6948,-0.366 -0.543,-0.557 -0.348,-0.706 h -8.307 a 5,5 0 0 1 -5,-5 V 89.3599 l -0.70057,-0.3495 -0.55293,-0.542 -0.36288,-0.6919 -0.13039,-0.7996 0.13031,-0.8 0.36275,-0.6926 0.55291,-0.5424 0.7008,-0.3496 v -63.931 l -0.69995,-0.3499 -0.553,-0.5417 -0.36322,-0.6914 -0.1306,-0.7987 0.13023,-0.8005 0.36262,-0.6931 0.55289,-0.5428 0.70103,-0.3496 V 3.84742 a 5,5 0 0 1 5,-5 h 8.3122 l 0.3494,-0.70115 0.5421,-0.55365 0.6923,-0.36348 0.7999,-0.13064 0.799,0.13093 0.6917,0.36396 0.5422,0.55375 0.35,0.70028 H 88.262 l 0.3505,-0.70051 0.5434,-0.55372 0.6931,-0.36384 0.7998,-0.13085 0.7988,0.13102 0.6918,0.3641 0.5423,0.55378 0.3503,0.70002 h 64.508 l 0.35,-0.69997 0.544,-0.55378 0.692,-0.36414 0.799,-0.13103 0.8,0.13065 0.693,0.3635 0.542,0.55366 0.349,0.70111 h 78.418 l 0.351,-0.69974 0.543,-0.5538 0.692,-0.36427 0.799,-0.13111 0.799,0.13076 0.693,0.36368 0.542,0.55369 0.35,0.70079 h 76.195 l 0.35,-0.70081 0.542,-0.55369 0.692,-0.36367 0.8,-0.13075 0.799,0.13098 0.693,0.36405 0.544,0.55376 0.351,0.70013 h 8.313 a 5,5 0 0 1 5,5 V 15.9029 l 0.694,0.352 0.548,0.5412 0.36,0.6887 0.129,0.7948 -0.129,0.7949 -0.36,0.6891 -0.548,0.5414 -0.694,0.3521 v 63.9403 l 0.694,0.3527 0.548,0.5422 0.36,0.6896 0.129,0.795 -0.129,0.7949 -0.36,0.6891 -0.548,0.5416 -0.694,0.3523 v 12.0432 a 5,5 0 0 1 -5,5 h -8.311 l -0.348,0.706 -0.543,0.557 -0.695,0.366 -0.803,0.131 -0.803,-0.131 -0.695,-0.366 -0.542,-0.557 -0.348,-0.706 h -76.185 z"
       style="display:inline;fill:none;fill-rule:evenodd;stroke:#fc80ff;stroke-width:0.0986647;stroke-linecap:round;stroke-linejoin:round;stroke-miterlimit:4;stroke-dasharray:none"
       id="rect1750" />
  </g>
</svg>
