<?xml version="1.0" encoding="UTF-8" standalone="no"?>
<svg
   xmlns:dc="http://purl.org/dc/elements/1.1/"
   xmlns:cc="http://creativecommons.org/ns#"
   xmlns:rdf="http://www.w3.org/1999/02/22-rdf-syntax-ns#"
   xmlns:svg="http://www.w3.org/2000/svg"
   xmlns="http://www.w3.org/2000/svg"
   xmlns:sodipodi="http://sodipodi.sourceforge.net/DTD/sodipodi-0.dtd"
   xmlns:inkscape="http://www.inkscape.org/namespaces/inkscape"
   inkscape:version="1.0 (4035a4fb49, 2020-05-01)"
   sodipodi:docname="middle-top.svg"
   id="svg136"
   version="1.1"
   viewBox="0 0 420 297"
   height="297mm"
   width="420mm">
  <metadata
     id="metadata142">
    <rdf:RDF>
      <cc:Work
         rdf:about="">
        <dc:format>image/svg+xml</dc:format>
        <dc:type
           rdf:resource="http://purl.org/dc/dcmitype/StillImage" />
        <dc:title />
      </cc:Work>
    </rdf:RDF>
  </metadata>
  <defs
     id="defs140">
    <inkscape:path-effect
       hide_knots="false"
       only_selected="true"
       apply_with_radius="true"
       apply_no_radius="true"
       use_knot_distance="true"
       flexible="false"
       chamfer_steps="10"
       radius="0"
       mode="F"
       method="auto"
       unit="mm"
       satellites_param="F,0,0,1,0,0,0,10 @ F,0,0,1,0,0,0,10 @ F,0,0,1,0,0,0,10 @ F,0,0,1,0,0,0,10 @ F,0,0,1,0,0,0,10 @ F,0,0,1,0,0,0,10 @ F,0,0,1,0,0,0,10 @ F,0,0,1,0,0,0,10 @ F,0,0,1,0,0,0,10 @ F,0,0,1,0,0,0,10 @ F,0,0,1,0,0,0,10 @ F,0,0,1,0,0,0,10 @ F,0,0,1,0,0,0,10 @ F,0,0,1,0,0,0,10 @ F,0,0,1,0,0,0,10 @ F,0,0,1,0,0,0,10 @ F,0,0,1,0,0,0,10 @ F,0,0,1,0,0,0,10 @ F,0,0,1,0,0,0,10 @ F,0,0,1,0,0,0,10 @ F,0,0,1,0,0,0,10 @ F,0,0,1,0,0,0,10 @ F,0,0,1,0,0,0,10 @ F,0,0,1,0,0,0,10 @ F,0,0,1,0,0,0,10 @ F,0,0,1,0,0,0,10 @ F,0,0,1,0,0,0,10 @ F,0,0,1,0,0,0,10 @ F,0,0,1,0,0,0,10 @ F,0,0,1,0,0,0,10 @ F,0,0,1,0,0,0,10 @ F,0,0,1,0,0,0,10 @ F,0,0,1,0,0,0,10 @ F,0,0,1,0,0,0,10 @ F,0,0,1,0,0,0,10 @ F,0,0,1,0,5,0,10 @ F,0,0,1,0,0,0,10 @ F,0,0,1,0,0,0,10 @ F,0,0,1,0,0,0,10 @ F,0,0,1,0,0,0,10 @ F,0,0,1,0,0,0,10 @ F,0,0,1,0,0,0,10 @ F,0,0,1,0,0,0,10 @ F,0,0,1,0,0,0,10 @ F,0,0,1,0,0,0,10 @ F,0,0,1,0,0,0,10 @ F,0,0,1,0,0,0,10 @ F,0,0,1,0,0,0,10 @ F,0,0,1,0,0,0,10 @ F,0,0,1,0,0,0,10 @ F,0,0,1,0,0,0,10 @ F,0,0,1,0,0,0,10 @ F,0,0,1,0,0,0,10 @ F,0,0,1,0,0,0,10 @ F,0,0,1,0,5,0,10 @ F,0,0,1,0,0,0,10 @ F,0,0,1,0,0,0,10 @ F,0,0,1,0,0,0,10 @ F,0,0,1,0,0,0,10 @ F,0,0,1,0,0,0,10 @ F,0,0,1,0,0,0,10 @ F,0,0,1,0,0,0,10 @ F,0,0,1,0,0,0,10 @ F,0,0,1,0,0,0,10 @ F,0,0,1,0,0,0,10 @ F,0,0,1,0,0,0,10 @ F,0,0,1,0,0,0,10 @ F,0,0,1,0,0,0,10 @ F,0,0,1,0,0,0,10 @ F,0,0,1,0,0,0,10 @ F,0,0,1,0,0,0,10 @ F,0,0,1,0,0,0,10 @ F,0,0,1,0,0,0,10 @ F,0,0,1,0,0,0,10 @ F,0,0,1,0,0,0,10 @ F,0,0,1,0,0,0,10 @ F,0,0,1,0,0,0,10 @ F,0,0,1,0,0,0,10 @ F,0,0,1,0,0,0,10 @ F,0,0,1,0,0,0,10 @ F,0,0,1,0,0,0,10 @ F,0,0,1,0,0,0,10 @ F,0,0,1,0,0,0,10 @ F,0,0,1,0,0,0,10 @ F,0,0,1,0,0,0,10 @ F,0,0,1,0,0,0,10 @ F,0,0,1,0,0,0,10 @ F,0,0,1,0,0,0,10 @ F,0,0,1,0,0,0,10 @ F,0,0,1,0,0,0,10 @ F,0,0,1,0,0,0,10 @ F,0,0,1,0,0,0,10 @ F,0,0,1,0,0,0,10 @ F,0,0,1,0,0,0,10 @ F,0,0,1,0,0,0,10 @ F,0,0,1,0,0,0,10 @ F,0,0,1,0,0,0,10 @ F,0,0,1,0,0,0,10 @ F,0,0,1,0,0,0,10 @ F,0,0,1,0,0,0,10 @ F,0,0,1,0,5,0,10 @ F,0,0,1,0,0,0,10 @ F,0,0,1,0,0,0,10 @ F,0,0,1,0,0,0,10 @ F,0,0,1,0,0,0,10 @ F,0,0,1,0,0,0,10 @ F,0,0,1,0,0,0,10 @ F,0,0,1,0,0,0,10 @ F,0,0,1,0,0,0,10 @ F,0,0,1,0,0,0,10 @ F,0,0,1,0,0,0,10 @ F,0,0,1,0,0,0,10 @ F,0,0,1,0,0,0,10 @ F,0,0,1,0,0,0,10 @ F,0,0,1,0,0,0,10 @ F,0,0,1,0,0,0,10 @ F,0,0,1,0,0,0,10 @ F,0,0,1,0,0,0,10 @ F,0,0,1,0,0,0,10 @ F,0,0,1,0,5,0,10 @ F,0,0,1,0,0,0,10 @ F,0,0,1,0,0,0,10 @ F,0,0,1,0,0,0,10 @ F,0,0,1,0,0,0,10 @ F,0,0,1,0,0,0,10 @ F,0,0,1,0,0,0,10 @ F,0,0,1,0,0,0,10 @ F,0,0,1,0,0,0,10 @ F,0,0,1,0,0,0,10 @ F,0,0,1,0,0,0,10 | F,0,0,1,0,0,0,10 @ F,0,0,1,0,0,0,10 @ F,0,0,1,0,0,0,10 @ F,0,0,1,0,0,0,10 @ F,0,0,1,0,0,0,10 @ F,0,0,1,0,0,0,10 @ F,0,0,1,0,0,0,10 @ F,0,0,1,0,0,0,10 @ F,0,0,1,0,0,0,10 @ F,0,0,1,0,0,0,10 @ F,0,0,1,0,0,0,10 @ F,0,0,1,0,0,0,10 @ F,0,0,1,0,0,0,10 @ F,0,0,1,0,0,0,10 @ F,0,0,1,0,0,0,10 @ F,0,0,1,0,0,0,10 @ F,0,0,1,0,0,0,10 @ F,0,0,1,0,0,0,10 @ F,0,0,1,0,0,0,10 @ F,0,0,1,0,0,0,10 @ F,0,0,1,0,0,0,10 @ F,0,0,1,0,0,0,10 @ F,0,0,1,0,0,0,10 @ F,0,0,1,0,0,0,10 @ F,0,0,1,0,0,0,10 @ F,0,0,1,0,0,0,10 @ F,0,0,1,0,0,0,10 @ F,0,0,1,0,0,0,10 @ F,0,0,1,0,0,0,10 @ F,0,0,1,0,0,0,10 @ F,0,0,1,0,0,0,10 @ F,0,0,1,0,0,0,10 @ F,0,0,1,0,0,0,10 @ F,0,0,1,0,0,0,10 @ F,0,0,1,0,0,0,10 @ F,0,0,1,0,0,0,10"
       lpeversion="1"
       is_visible="true"
       id="path-effect936"
       effect="fillet_chamfer" />
    <inkscape:path-effect
       hide_knots="false"
       only_selected="true"
       apply_with_radius="true"
       apply_no_radius="true"
       use_knot_distance="true"
       flexible="false"
       chamfer_steps="10"
       radius="0"
       mode="F"
       method="auto"
       unit="mm"
       satellites_param="F,0,0,1,0,0,0,10 @ F,0,0,1,0,0,0,10 @ F,0,0,1,0,0,0,10 @ F,0,0,1,0,0,0,10 @ F,0,0,1,0,0,0,10 @ F,0,0,1,0,0,0,10 @ F,0,0,1,0,0,0,10 @ F,0,0,1,0,0,0,10 @ F,0,0,1,0,0,0,10 @ F,0,0,1,0,0,0,10 @ F,0,0,1,0,0,0,10 @ F,0,0,1,0,0,0,10 @ F,0,0,1,0,0,0,10 @ F,0,0,1,0,0,0,10 @ F,0,0,1,0,0,0,10 @ F,0,0,1,0,0,0,10 @ F,0,0,1,0,0,0,10 @ F,0,0,1,0,0,0,10 @ F,0,0,1,0,0,0,10 @ F,0,0,1,0,0,0,10 @ F,0,0,1,0,0,0,10 @ F,0,0,1,0,0,0,10 @ F,0,0,1,0,0,0,10 @ F,0,0,1,0,0,0,10 @ F,0,0,1,0,0,0,10 @ F,0,0,1,0,5,0,10 @ F,0,0,1,0,0,0,10 @ F,0,0,1,0,0,0,10 @ F,0,0,1,0,0,0,10 @ F,0,0,1,0,0,0,10 @ F,0,0,1,0,0,0,10 @ F,0,0,1,0,0,0,10 @ F,0,0,1,0,0,0,10 @ F,0,0,1,0,0,0,10 @ F,0,0,1,0,0,0,10 @ F,0,0,1,0,0,0,10 @ F,0,0,1,0,5,0,10 @ F,0,0,1,0,0,0,10 @ F,0,0,1,0,0,0,10 @ F,0,0,1,0,0,0,10 @ F,0,0,1,0,0,0,10 @ F,0,0,1,0,0,0,10 @ F,0,0,1,0,0,0,10 @ F,0,0,1,0,0,0,10 @ F,0,0,1,0,0,0,10 @ F,0,0,1,0,0,0,10 @ F,0,0,1,0,0,0,10 @ F,0,0,1,0,0,0,10 @ F,0,0,1,0,0,0,10 @ F,0,0,1,0,0,0,10 @ F,0,0,1,0,0,0,10 @ F,0,0,1,0,0,0,10 @ F,0,0,1,0,0,0,10 @ F,0,0,1,0,0,0,10 @ F,0,0,1,0,0,0,10 @ F,0,0,1,0,0,0,10 @ F,0,0,1,0,0,0,10 @ F,0,0,1,0,0,0,10 @ F,0,0,1,0,0,0,10 @ F,0,0,1,0,0,0,10 @ F,0,0,1,0,0,0,10 @ F,0,0,1,0,0,0,10 @ F,0,0,1,0,0,0,10 @ F,0,0,1,0,0,0,10 @ F,0,0,1,0,0,0,10 @ F,0,0,1,0,0,0,10 @ F,0,0,1,0,5,0,10 @ F,0,0,1,0,0,0,10 @ F,0,0,1,0,0,0,10 @ F,0,0,1,0,0,0,10 @ F,0,0,1,0,0,0,10 @ F,0,0,1,0,0,0,10 @ F,0,0,1,0,0,0,10 @ F,0,0,1,0,0,0,10 @ F,0,0,1,0,0,0,10 @ F,0,0,1,0,0,0,10 @ F,0,0,1,0,0,0,10 @ F,0,0,1,0,5,0,10 | F,0,0,1,0,0,0,10 @ F,0,0,1,0,0,0,10 @ F,0,0,1,0,0,0,10 @ F,0,0,1,0,0,0,10 @ F,0,0,1,0,0,0,10 @ F,0,0,1,0,0,0,10 @ F,0,0,1,0,0,0,10 @ F,0,0,1,0,0,0,10 @ F,0,0,1,0,0,0,10 @ F,0,0,1,0,0,0,10 @ F,0,0,1,0,0,0,10 @ F,0,0,1,0,0,0,10 @ F,0,0,1,0,0,0,10 @ F,0,0,1,0,0,0,10 @ F,0,0,1,0,0,0,10 @ F,0,0,1,0,0,0,10 @ F,0,0,1,0,0,0,10 @ F,0,0,1,0,0,0,10 @ F,0,0,1,0,0,0,10 @ F,0,0,1,0,0,0,10 @ F,0,0,1,0,0,0,10 @ F,0,0,1,0,0,0,10 @ F,0,0,1,0,0,0,10 @ F,0,0,1,0,0,0,10 @ F,0,0,1,0,0,0,10 @ F,0,0,1,0,0,0,10 @ F,0,0,1,0,0,0,10 @ F,0,0,1,0,0,0,10 @ F,0,0,1,0,0,0,10 @ F,0,0,1,0,0,0,10 @ F,0,0,1,0,0,0,10 @ F,0,0,1,0,0,0,10 @ F,0,0,1,0,0,0,10 @ F,0,0,1,0,0,0,10 @ F,0,0,1,0,0,0,10 @ F,0,1,1,0,0,0,10"
       lpeversion="1"
       is_visible="true"
       id="path-effect831"
       effect="fillet_chamfer" />
  </defs>
  <sodipodi:namedview
     inkscape:current-layer="layer2"
     inkscape:window-maximized="1"
     inkscape:window-y="-8"
     inkscape:window-x="-8"
     inkscape:cy="63.481076"
     inkscape:cx="142.19995"
     inkscape:zoom="2.8284271"
     showgrid="false"
     id="namedview138"
     inkscape:window-height="1009"
     inkscape:window-width="1920"
     inkscape:pageshadow="2"
     inkscape:pageopacity="0"
     guidetolerance="10"
     gridtolerance="10"
     objecttolerance="10"
     borderopacity="1"
     bordercolor="#666666"
     pagecolor="#ffffff"
     inkscape:document-rotation="0" />
  <g
     inkscape:groupmode="layer"
     id="layer2"
     inkscape:label="middle"
     style="display:inline">
    <path
       inkscape:original-d="m 245.154,107.103 -0.544,0.558 -0.695,0.365 -0.803,0.132 -0.804,-0.131 -0.695,-0.366 -0.544,-0.557 -0.348,-0.706 h -78.405 l -0.349,0.705 -0.544,0.557 -0.695,0.366 -0.803,0.132 -0.803,-0.131 -0.695,-0.366 -0.543,-0.558 -0.348,-0.705 H 93.0362 l -0.3476,0.706 -0.5424,0.557 -0.6942,0.366 -0.8032,0.131 -0.8038,-0.131 -0.6955,-0.366 -0.5434,-0.557 -0.3479,-0.706 H 16.9168 l -0.3481,0.706 -0.5431,0.557 -0.6947,0.366 -0.8032,0.131 -0.8031,-0.131 -0.6948,-0.366 -0.543,-0.557 -0.348,-0.706 H -1.1682 V 89.3599 l -0.70057,-0.3495 -0.55293,-0.542 -0.36288,-0.6919 -0.13039,-0.7996 0.13031,-0.8 0.36275,-0.6926 0.55291,-0.5424 0.7008,-0.3496 v -63.931 l -0.69995,-0.3499 -0.553,-0.5417 -0.36322,-0.6914 -0.1306,-0.7987 0.13023,-0.8005 0.36262,-0.6931 0.55289,-0.5428 0.70103,-0.3496 V -1.15258 H 12.144 l 0.3494,-0.70115 0.5421,-0.55365 0.6923,-0.36348 0.7999,-0.13064 0.799,0.13093 0.6917,0.36396 0.5422,0.55375 0.35,0.70028 H 88.262 l 0.3505,-0.70051 0.5434,-0.55372 0.6931,-0.36384 0.7998,-0.13085 0.7988,0.13102 0.6918,0.3641 0.5423,0.55378 0.3503,0.70002 h 64.508 l 0.35,-0.69997 0.544,-0.55378 0.692,-0.36414 0.799,-0.13103 0.8,0.13065 0.693,0.3635 0.542,0.55366 0.349,0.70111 h 78.418 l 0.351,-0.69974 0.543,-0.5538 0.692,-0.36427 0.799,-0.13111 0.799,0.13076 0.693,0.36368 0.542,0.55369 0.35,0.70079 h 76.195 l 0.35,-0.70081 0.542,-0.55369 0.692,-0.36367 0.8,-0.13075 0.799,0.13098 0.693,0.36405 0.544,0.55376 0.351,0.70013 h 13.313 V 15.9029 l 0.694,0.352 0.548,0.5412 0.36,0.6887 0.129,0.7948 -0.129,0.7949 -0.36,0.6891 -0.548,0.5414 -0.694,0.3521 v 63.9403 l 0.694,0.3527 0.548,0.5422 0.36,0.6896 0.129,0.795 -0.129,0.7949 -0.36,0.6891 -0.548,0.5416 -0.694,0.3523 v 17.0432 h -13.311 l -0.348,0.706 -0.543,0.557 -0.695,0.366 -0.803,0.131 -0.803,-0.131 -0.695,-0.366 -0.542,-0.557 -0.348,-0.706 h -76.185 z m 98.021,-1.2 -0.291,0.938 -0.461,0.85 -0.61,0.74 -0.74,0.61 -0.85,0.461 -0.938,0.291 -1.008,0.102 H 0.33094 l -1.007674,-0.102 -0.938556,-0.291 -0.84932,-0.461 -0.73998,-0.61 -0.61055,-0.74 -0.461,-0.85 -0.29134,-0.938 -0.10158,-1.008 V 0.344551 l 0.10158,-1.007674 0.29134,-0.938557 0.461,-0.84932 0.61055,-0.73998 0.73998,-0.61055 0.84932,-0.461 0.938556,-0.29134 1.007674,-0.10158 H 338.277 l 1.008,0.10158 0.938,0.29134 0.85,0.461 0.74,0.61055 0.61,0.73998 0.461,0.84932 0.291,0.938557 0.102,1.007674 V 104.895 Z"
       inkscape:path-effect="#path-effect936"
       sodipodi:nodetypes="cccccccccccccccccccccccccccccccccccccccccccccccccccccccccccccccccccccccccccccccccccccccccccccccccccccccccccccccccccccccccccccccccccccccccccccccccccccccccccccccccccccccc"
       d="m 245.154,107.103 -0.544,0.558 -0.695,0.365 -0.803,0.132 -0.804,-0.131 -0.695,-0.366 -0.544,-0.557 -0.348,-0.706 h -78.405 l -0.349,0.705 -0.544,0.557 -0.695,0.366 -0.803,0.132 -0.803,-0.131 -0.695,-0.366 -0.543,-0.558 -0.348,-0.705 H 93.0362 l -0.3476,0.706 -0.5424,0.557 -0.6942,0.366 -0.8032,0.131 -0.8038,-0.131 -0.6955,-0.366 -0.5434,-0.557 -0.3479,-0.706 H 16.9168 l -0.3481,0.706 -0.5431,0.557 -0.6947,0.366 -0.8032,0.131 -0.8031,-0.131 -0.6948,-0.366 -0.543,-0.557 -0.348,-0.706 h -8.307 a 5,5 45 0 1 -5,-5 V 89.3599 l -0.70057,-0.3495 -0.55293,-0.542 -0.36288,-0.6919 -0.13039,-0.7996 0.13031,-0.8 0.36275,-0.6926 0.55291,-0.5424 0.7008,-0.3496 v -63.931 l -0.69995,-0.3499 -0.553,-0.5417 -0.36322,-0.6914 -0.1306,-0.7987 0.13023,-0.8005 0.36262,-0.6931 0.55289,-0.5428 0.70103,-0.3496 V 3.84742 a 5,5 135 0 1 5,-5 h 8.3122 l 0.3494,-0.70115 0.5421,-0.55365 0.6923,-0.36348 0.7999,-0.13064 0.799,0.13093 0.6917,0.36396 0.5422,0.55375 0.35,0.70028 H 88.262 l 0.3505,-0.70051 0.5434,-0.55372 0.6931,-0.36384 0.7998,-0.13085 0.7988,0.13102 0.6918,0.3641 0.5423,0.55378 0.3503,0.70002 h 64.508 l 0.35,-0.69997 0.544,-0.55378 0.692,-0.36414 0.799,-0.13103 0.8,0.13065 0.693,0.3635 0.542,0.55366 0.349,0.70111 h 78.418 l 0.351,-0.69974 0.543,-0.5538 0.692,-0.36427 0.799,-0.13111 0.799,0.13076 0.693,0.36368 0.542,0.55369 0.35,0.70079 h 76.195 l 0.35,-0.70081 0.542,-0.55369 0.692,-0.36367 0.8,-0.13075 0.799,0.13098 0.693,0.36405 0.544,0.55376 0.351,0.70013 h 8.313 a 5,5 45 0 1 5,5 V 15.9029 l 0.694,0.352 0.548,0.5412 0.36,0.6887 0.129,0.7948 -0.129,0.7949 -0.36,0.6891 -0.548,0.5414 -0.694,0.3521 v 63.9403 l 0.694,0.3527 0.548,0.5422 0.36,0.6896 0.129,0.795 -0.129,0.7949 -0.36,0.6891 -0.548,0.5416 -0.694,0.3523 v 12.0432 a 5,5 135 0 1 -5,5 l -8.311,0 -0.348,0.706 -0.543,0.557 -0.695,0.366 -0.803,0.131 -0.803,-0.131 -0.695,-0.366 -0.542,-0.557 -0.348,-0.706 h -76.185 z m 98.021,-1.2 -0.291,0.938 -0.461,0.85 -0.61,0.74 -0.74,0.61 -0.85,0.461 -0.938,0.291 -1.008,0.102 H 0.33094 l -1.007674,-0.102 -0.938556,-0.291 -0.84932,-0.461 -0.73998,-0.61 -0.61055,-0.74 -0.461,-0.85 -0.29134,-0.938 -0.10158,-1.008 V 0.344551 l 0.10158,-1.007674 0.29134,-0.938557 0.461,-0.84932 0.61055,-0.73998 0.73998,-0.61055 0.84932,-0.461 0.938556,-0.29134 1.007674,-0.10158 H 338.277 l 1.008,0.10158 0.938,0.29134 0.85,0.461 0.74,0.61055 0.61,0.73998 0.461,0.84932 0.291,0.938557 0.102,1.007674 V 104.895 Z"
       style="display:inline;fill:none;fill-opacity:0;stroke:#ff8000;stroke-width:0.1;stroke-linecap:round;stroke-linejoin:round;stroke-opacity:1"
       id="path1097-6-6-0-0-7-2-3" />
  </g>
</svg>
